  0
SECTION
  2
HEADER
  9
$ACADVER
  1
AC1027
  9
$ACADMAINTVER
 70
     8
  9
$DWGCODEPAGE
  3
ANSI_1252
  9
$LASTSAVEDBY
  1
Amelia
  9
$REQUIREDVERSIONS
160
                 0
  9
$INSBASE
 10
0.0
 20
0.0
 30
0.0
  9
$EXTMIN
 10
-51.9999367
 20
-51.94024699999999
 30
0.0
  9
$EXTMAX
 10
51.9999367
 20
51.94024699999999
 30
0.0
  9
$LIMMIN
 10
0.0
 20
0.0
  9
$LIMMAX
 10
12.0
 20
9.0
  9
$ORTHOMODE
 70
     0
  9
$REGENMODE
 70
     1
  9
$FILLMODE
 70
     1
  9
$QTEXTMODE
 70
     0
  9
$MIRRTEXT
 70
     0
  9
$LTSCALE
 40
1.0
  9
$ATTMODE
 70
     1
  9
$TEXTSIZE
 40
0.2
  9
$TRACEWID
 40
0.05
  9
$TEXTSTYLE
  7
Standard
  9
$CLAYER
  8
0
  9
$CELTYPE
  6
Continuous
  9
$CECOLOR
 62
   256
  9
$CELTSCALE
 40
1.0
  9
$DISPSILH
 70
     0
  9
$DIMSCALE
 40
1.0
  9
$DIMASZ
 40
0.18
  9
$DIMEXO
 40
0.0625
  9
$DIMDLI
 40
0.38
  9
$DIMRND
 40
0.0
  9
$DIMDLE
 40
0.0
  9
$DIMEXE
 40
0.18
  9
$DIMTP
 40
0.0
  9
$DIMTM
 40
0.0
  9
$DIMTXT
 40
0.18
  9
$DIMCEN
 40
0.09
  9
$DIMTSZ
 40
0.0
  9
$DIMTOL
 70
     0
  9
$DIMLIM
 70
     0
  9
$DIMTIH
 70
     1
  9
$DIMTOH
 70
     1
  9
$DIMSE1
 70
     0
  9
$DIMSE2
 70
     0
  9
$DIMTAD
 70
     0
  9
$DIMZIN
 70
     0
  9
$DIMBLK
  1

  9
$DIMASO
 70
     1
  9
$DIMSHO
 70
     1
  9
$DIMPOST
  1

  9
$DIMAPOST
  1

  9
$DIMALT
 70
     0
  9
$DIMALTD
 70
     2
  9
$DIMALTF
 40
25.4
  9
$DIMLFAC
 40
1.0
  9
$DIMTOFL
 70
     0
  9
$DIMTVP
 40
0.0
  9
$DIMTIX
 70
     0
  9
$DIMSOXD
 70
     0
  9
$DIMSAH
 70
     0
  9
$DIMBLK1
  1

  9
$DIMBLK2
  1

  9
$DIMSTYLE
  2
Standard
  9
$DIMCLRD
 70
     0
  9
$DIMCLRE
 70
     0
  9
$DIMCLRT
 70
     0
  9
$DIMTFAC
 40
1.0
  9
$DIMGAP
 40
0.09
  9
$DIMJUST
 70
     0
  9
$DIMSD1
 70
     0
  9
$DIMSD2
 70
     0
  9
$DIMTOLJ
 70
     1
  9
$DIMTZIN
 70
     0
  9
$DIMALTZ
 70
     0
  9
$DIMALTTZ
 70
     0
  9
$DIMUPT
 70
     0
  9
$DIMDEC
 70
     4
  9
$DIMTDEC
 70
     4
  9
$DIMALTU
 70
     2
  9
$DIMALTTD
 70
     2
  9
$DIMTXSTY
  7
Standard
  9
$DIMAUNIT
 70
     0
  9
$DIMADEC
 70
     0
  9
$DIMALTRND
 40
0.0
  9
$DIMAZIN
 70
     0
  9
$DIMDSEP
 70
    46
  9
$DIMATFIT
 70
     3
  9
$DIMFRAC
 70
     0
  9
$DIMLDRBLK
  1

  9
$DIMLUNIT
 70
     2
  9
$DIMLWD
 70
    -2
  9
$DIMLWE
 70
    -2
  9
$DIMTMOVE
 70
     0
  9
$DIMFXL
 40
1.0
  9
$DIMFXLON
 70
     0
  9
$DIMJOGANG
 40
0.7853981633974483
  9
$DIMTFILL
 70
     0
  9
$DIMTFILLCLR
 70
     0
  9
$DIMARCSYM
 70
     0
  9
$DIMLTYPE
  6

  9
$DIMLTEX1
  6

  9
$DIMLTEX2
  6

  9
$DIMTXTDIRECTION
 70
     0
  9
$LUNITS
 70
     2
  9
$LUPREC
 70
     4
  9
$SKETCHINC
 40
0.1
  9
$FILLETRAD
 40
0.0
  9
$AUNITS
 70
     0
  9
$AUPREC
 70
     0
  9
$MENU
  1
.
  9
$ELEVATION
 40
0.0
  9
$PELEVATION
 40
0.0
  9
$THICKNESS
 40
0.0
  9
$LIMCHECK
 70
     0
  9
$CHAMFERA
 40
0.0
  9
$CHAMFERB
 40
0.0
  9
$CHAMFERC
 40
0.0
  9
$CHAMFERD
 40
0.0
  9
$SKPOLY
 70
     0
  9
$TDCREATE
 40
2456558.974523206
  9
$TDUCREATE
 40
2456558.557856539
  9
$TDUPDATE
 40
2456558.975080926
  9
$TDUUPDATE
 40
2456558.558414259
  9
$TDINDWG
 40
0.0005579051
  9
$TDUSRTIMER
 40
0.0005579051
  9
$USRTIMER
 70
     1
  9
$ANGBASE
 50
0.0
  9
$ANGDIR
 70
     0
  9
$PDMODE
 70
     0
  9
$PDSIZE
 40
0.0
  9
$PLINEWID
 40
0.0
  9
$SPLFRAME
 70
     0
  9
$SPLINETYPE
 70
     6
  9
$SPLINESEGS
 70
     8
  9
$HANDSEED
  5
8C7
  9
$SURFTAB1
 70
     6
  9
$SURFTAB2
 70
     6
  9
$SURFTYPE
 70
     6
  9
$SURFU
 70
     6
  9
$SURFV
 70
     6
  9
$UCSBASE
  2

  9
$UCSNAME
  2

  9
$UCSORG
 10
0.0
 20
0.0
 30
0.0
  9
$UCSXDIR
 10
1.0
 20
0.0
 30
0.0
  9
$UCSYDIR
 10
0.0
 20
1.0
 30
0.0
  9
$UCSORTHOREF
  2

  9
$UCSORTHOVIEW
 70
     0
  9
$UCSORGTOP
 10
0.0
 20
0.0
 30
0.0
  9
$UCSORGBOTTOM
 10
0.0
 20
0.0
 30
0.0
  9
$UCSORGLEFT
 10
0.0
 20
0.0
 30
0.0
  9
$UCSORGRIGHT
 10
0.0
 20
0.0
 30
0.0
  9
$UCSORGFRONT
 10
0.0
 20
0.0
 30
0.0
  9
$UCSORGBACK
 10
0.0
 20
0.0
 30
0.0
  9
$PUCSBASE
  2

  9
$PUCSNAME
  2

  9
$PUCSORG
 10
0.0
 20
0.0
 30
0.0
  9
$PUCSXDIR
 10
1.0
 20
0.0
 30
0.0
  9
$PUCSYDIR
 10
0.0
 20
1.0
 30
0.0
  9
$PUCSORTHOREF
  2

  9
$PUCSORTHOVIEW
 70
     0
  9
$PUCSORGTOP
 10
0.0
 20
0.0
 30
0.0
  9
$PUCSORGBOTTOM
 10
0.0
 20
0.0
 30
0.0
  9
$PUCSORGLEFT
 10
0.0
 20
0.0
 30
0.0
  9
$PUCSORGRIGHT
 10
0.0
 20
0.0
 30
0.0
  9
$PUCSORGFRONT
 10
0.0
 20
0.0
 30
0.0
  9
$PUCSORGBACK
 10
0.0
 20
0.0
 30
0.0
  9
$USERI1
 70
     0
  9
$USERI2
 70
     0
  9
$USERI3
 70
     0
  9
$USERI4
 70
     0
  9
$USERI5
 70
     0
  9
$USERR1
 40
0.0
  9
$USERR2
 40
0.0
  9
$USERR3
 40
0.0
  9
$USERR4
 40
0.0
  9
$USERR5
 40
0.0
  9
$WORLDVIEW
 70
     1
  9
$SHADEDGE
 70
     3
  9
$SHADEDIF
 70
    70
  9
$TILEMODE
 70
     1
  9
$MAXACTVP
 70
    64
  9
$PINSBASE
 10
0.0
 20
0.0
 30
0.0
  9
$PLIMCHECK
 70
     0
  9
$PEXTMIN
 10
1.000000000000000E+20
 20
1.000000000000000E+20
 30
1.000000000000000E+20
  9
$PEXTMAX
 10
-1.000000000000000E+20
 20
-1.000000000000000E+20
 30
-1.000000000000000E+20
  9
$PLIMMIN
 10
0.0
 20
0.0
  9
$PLIMMAX
 10
12.0
 20
9.0
  9
$UNITMODE
 70
     0
  9
$VISRETAIN
 70
     1
  9
$PLINEGEN
 70
     0
  9
$PSLTSCALE
 70
     1
  9
$TREEDEPTH
 70
  3020
  9
$CMLSTYLE
  2
Standard
  9
$CMLJUST
 70
     0
  9
$CMLSCALE
 40
1.0
  9
$PROXYGRAPHICS
 70
     1
  9
$MEASUREMENT
 70
     0
  9
$CELWEIGHT
370
    -1
  9
$ENDCAPS
280
     0
  9
$JOINSTYLE
280
     0
  9
$LWDISPLAY
290
     0
  9
$INSUNITS
 70
     0
  9
$HYPERLINKBASE
  1

  9
$STYLESHEET
  1

  9
$XEDIT
290
     1
  9
$CEPSNTYPE
380
     0
  9
$PSTYLEMODE
290
     1
  9
$FINGERPRINTGUID
  2
{2422241E-680E-48CE-93AE-6F38D32DDDA7}
  9
$VERSIONGUID
  2
{C5B671FA-349A-4111-96FB-68303B65C04C}
  9
$EXTNAMES
290
     1
  9
$PSVPSCALE
 40
0.0
  9
$OLESTARTUP
290
     0
  9
$SORTENTS
280
   127
  9
$INDEXCTL
280
     0
  9
$HIDETEXT
280
     0
  9
$XCLIPFRAME
280
     2
  9
$HALOGAP
280
     0
  9
$OBSCOLOR
 70
   257
  9
$OBSLTYPE
280
     0
  9
$INTERSECTIONDISPLAY
280
     0
  9
$INTERSECTIONCOLOR
 70
   257
  9
$DIMASSOC
280
     1
  9
$PROJECTNAME
  1

  9
$CAMERADISPLAY
290
     0
  9
$LENSLENGTH
 40
50.0
  9
$CAMERAHEIGHT
 40
0.0
  9
$STEPSPERSEC
 40
2.0
  9
$STEPSIZE
 40
6.0
  9
$3DDWFPREC
 40
2.0
  9
$PSOLWIDTH
 40
0.25
  9
$PSOLHEIGHT
 40
4.0
  9
$LOFTANG1
 40
1.570796326794896
  9
$LOFTANG2
 40
1.570796326794896
  9
$LOFTMAG1
 40
0.0
  9
$LOFTMAG2
 40
0.0
  9
$LOFTPARAM
 70
     7
  9
$LOFTNORMALS
280
     1
  9
$LATITUDE
 40
37.795
  9
$LONGITUDE
 40
-122.394
  9
$NORTHDIRECTION
 40
0.0
  9
$TIMEZONE
 70
 -8000
  9
$LIGHTGLYPHDISPLAY
280
     1
  9
$TILEMODELIGHTSYNCH
280
     1
  9
$CMATERIAL
347
11
  9
$SOLIDHIST
280
     0
  9
$SHOWHIST
280
     1
  9
$DWFFRAME
280
     2
  9
$DGNFRAME
280
     0
  9
$REALWORLDSCALE
290
     1
  9
$INTERFERECOLOR
 62
     1
  9
$INTERFEREOBJVS
345
33
  9
$INTERFEREVPVS
346
30
  9
$CSHADOW
280
     0
  9
$SHADOWPLANELOCATION
 40
0.0
  0
ENDSEC
  0
SECTION
  2
CLASSES
  0
CLASS
  1
ACDBDICTIONARYWDFLT
  2
AcDbDictionaryWithDefault
  3
ObjectDBX Classes
 90
        0
 91
        1
280
     0
281
     0
  0
CLASS
  1
MATERIAL
  2
AcDbMaterial
  3
ObjectDBX Classes
 90
     1153
 91
        3
280
     0
281
     0
  0
CLASS
  1
VISUALSTYLE
  2
AcDbVisualStyle
  3
ObjectDBX Classes
 90
     4095
 91
       24
280
     0
281
     0
  0
CLASS
  1
SCALE
  2
AcDbScale
  3
ObjectDBX Classes
 90
     1153
 91
       17
280
     0
281
     0
  0
CLASS
  1
TABLESTYLE
  2
AcDbTableStyle
  3
ObjectDBX Classes
 90
     4095
 91
        1
280
     0
281
     0
  0
CLASS
  1
MLEADERSTYLE
  2
AcDbMLeaderStyle
  3
ACDB_MLEADERSTYLE_CLASS
 90
     4095
 91
        1
280
     0
281
     0
  0
CLASS
  1
ACDBSECTIONVIEWSTYLE
  2
AcDbSectionViewStyle
  3
ObjectDBX Classes
 90
     1025
 91
        1
280
     0
281
     0
  0
CLASS
  1
ACDBDETAILVIEWSTYLE
  2
AcDbDetailViewStyle
  3
ObjectDBX Classes
 90
     1025
 91
        1
280
     0
281
     0
  0
CLASS
  1
DICTIONARYVAR
  2
AcDbDictionaryVar
  3
ObjectDBX Classes
 90
        0
 91
        9
280
     0
281
     0
  0
CLASS
  1
CELLSTYLEMAP
  2
AcDbCellStyleMap
  3
ObjectDBX Classes
 90
     1152
 91
        1
280
     0
281
     0
  0
ENDSEC
  0
SECTION
  2
TABLES
  0
TABLE
  2
VPORT
  5
8
330
0
100
AcDbSymbolTable
 70
     1
  0
VPORT
  5
8B6
330
8
100
AcDbSymbolTableRecord
100
AcDbViewportTableRecord
  2
*Active
 70
     0
 10
0.0
 20
0.0
 11
1.0
 21
1.0
 12
14.59011627906977
 22
4.5
 13
0.0
 23
0.0
 14
1.0
 24
1.0
 15
0.0
 25
0.0
 16
0.0
 26
0.0
 36
1.0
 17
0.0
 27
0.0
 37
0.0
 40
9.0
 41
3.242248062015503
 42
50.0
 43
0.0
 44
0.0
 50
0.0
 51
0.0
 71
     0
 72
  1000
 73
     1
 74
     3
 75
     0
 76
     0
 77
     0
 78
     0
281
     0
 65
     1
110
0.0
120
0.0
130
0.0
111
1.0
121
0.0
131
0.0
112
0.0
122
1.0
132
0.0
 79
     0
146
0.0
348
2F
 60
     3
 61
     5
292
     1
282
     1
141
0.0
142
0.0
 63
   250
421
  3355443
1001
ACAD_NAV_VCDISPLAY
1070
     1
  0
ENDTAB
  0
TABLE
  2
LTYPE
  5
5
330
0
100
AcDbSymbolTable
 70
     2
  0
LTYPE
  5
5A
330
5
100
AcDbSymbolTableRecord
100
AcDbLinetypeTableRecord
  2
ByBlock
 70
     0
  3

 72
    65
 73
     0
 40
0.0
  0
LTYPE
  5
5B
330
5
100
AcDbSymbolTableRecord
100
AcDbLinetypeTableRecord
  2
ByLayer
 70
     0
  3

 72
    65
 73
     0
 40
0.0
  0
LTYPE
  5
5C
330
5
100
AcDbSymbolTableRecord
100
AcDbLinetypeTableRecord
  2
Continuous
 70
     0
  3
Solid line
 72
    65
 73
     0
 40
0.0
  0
LTYPE
  5
68
330
5
100
AcDbSymbolTableRecord
100
AcDbLinetypeTableRecord
  2
PHANTOM2
 70
     0
  3
Phantom (.5x) ___ _ _ ___ _ _ ___ _ _ ___ _ _
 72
    65
 73
     6
 40
1.25
 49
0.625
 74
     0
 49
-0.125
 74
     0
 49
0.125
 74
     0
 49
-0.125
 74
     0
 49
0.125
 74
     0
 49
-0.125
 74
     0
  0
ENDTAB
  0
TABLE
  2
LAYER
  5
2
330
0
100
AcDbSymbolTable
 70
     1
  0
LAYER
  5
54
102
{ACAD_XDICTIONARY
360
8B8
102
}
330
2
100
AcDbSymbolTableRecord
100
AcDbLayerTableRecord
  2
0
 70
     0
 62
     7
  6
Continuous
370
    -3
390
F
347
21
348
0
  0
ENDTAB
  0
TABLE
  2
STYLE
  5
3
330
0
100
AcDbSymbolTable
 70
     2
  0
STYLE
  5
55
330
3
100
AcDbSymbolTableRecord
100
AcDbTextStyleTableRecord
  2
Standard
 70
     0
 40
0.0
 41
1.0
 50
0.0
 71
     0
 42
0.2
  3
txt
  4

  0
STYLE
  5
59
330
3
100
AcDbSymbolTableRecord
100
AcDbTextStyleTableRecord
  2
Annotative
 70
     0
 40
0.0
 41
1.0
 50
0.0
 71
     0
 42
0.2
  3
txt
  4

1001
AcadAnnotative
1000
AnnotativeData
1002
{
1070
     1
1070
     1
1002
}
  0
ENDTAB
  0
TABLE
  2
VIEW
  5
6
330
0
100
AcDbSymbolTable
 70
     0
  0
ENDTAB
  0
TABLE
  2
UCS
  5
7
330
0
100
AcDbSymbolTable
 70
     0
  0
ENDTAB
  0
TABLE
  2
APPID
  5
9
330
0
100
AcDbSymbolTable
 70
     3
  0
APPID
  5
56
330
9
100
AcDbSymbolTableRecord
100
AcDbRegAppTableRecord
  2
ACAD
 70
     0
  0
APPID
  5
5D
330
9
100
AcDbSymbolTableRecord
100
AcDbRegAppTableRecord
  2
AcadAnnotative
 70
     0
  0
APPID
  5
8B5
330
9
100
AcDbSymbolTableRecord
100
AcDbRegAppTableRecord
  2
ACAD_NAV_VCDISPLAY
 70
     0
  0
ENDTAB
  0
TABLE
  2
DIMSTYLE
  5
A
330
0
100
AcDbSymbolTable
 70
     2
100
AcDbDimStyleTable
 71
     0
  0
DIMSTYLE
105
57
330
A
100
AcDbSymbolTableRecord
100
AcDbDimStyleTableRecord
  2
Standard
 70
     0
340
55
  0
DIMSTYLE
105
58
330
A
100
AcDbSymbolTableRecord
100
AcDbDimStyleTableRecord
  2
Annotative
 70
     0
340
55
1001
AcadAnnotative
1000
AnnotativeData
1002
{
1070
     1
1070
     1
1002
}
  0
ENDTAB
  0
TABLE
  2
BLOCK_RECORD
  5
1
330
0
100
AcDbSymbolTable
 70
     0
  0
BLOCK_RECORD
  5
70
330
1
100
AcDbSymbolTableRecord
100
AcDbBlockTableRecord
  2
*Model_Space
340
73
 70
     0
280
     1
281
     0
  0
BLOCK_RECORD
  5
6C
330
1
100
AcDbSymbolTableRecord
100
AcDbBlockTableRecord
  2
*Paper_Space
340
6F
 70
     0
280
     1
281
     0
  0
ENDTAB
  0
ENDSEC
  0
SECTION
  2
BLOCKS
  0
BLOCK
  5
71
330
70
100
AcDbEntity
  8
0
100
AcDbBlockBegin
  2
*Model_Space
 70
     0
 10
0.0
 20
0.0
 30
0.0
  3
*Model_Space
  1

  0
ENDBLK
  5
72
330
70
100
AcDbEntity
  8
0
100
AcDbBlockEnd
  0
BLOCK
  5
6D
330
6C
100
AcDbEntity
 67
     1
  8
0
100
AcDbBlockBegin
  2
*Paper_Space
 70
     0
 10
0.0
 20
0.0
 30
0.0
  3
*Paper_Space
  1

  0
ENDBLK
  5
6E
330
6C
100
AcDbEntity
 67
     1
  8
0
100
AcDbBlockEnd
  0
ENDSEC
  0
SECTION
  2
ENTITIES
  0
CIRCLE
  5
74
330
70
100
AcDbEntity
  8
0
 62
    13
100
AcDbCircle
 10
0.0
 20
0.0
 30
0.0
 40
2.5
  0
LWPOLYLINE
  5
75
330
70
100
AcDbEntity
  8
0
 62
    13
100
AcDbPolyline
 90
     1002
 70
     0
 43
0.0
 10
47.92537
 20
-2.0851318
 10
48.1721309
 20
-2.042246599999999
 10
48.4452831
 20
-1.987874599999999
 10
48.7000941
 20
-1.9311327
 10
48.97368
 20
-1.8641696
 10
49.21577639999999
 20
-1.7999753
 10
49.4704838
 20
-1.7276576
 10
49.7375883
 20
-1.646758
 10
50.01686379999999
 20
-1.5568229
 10
50.30807199999999
 20
-1.457404399999999
 10
50.5494625
 20
-1.3707438
 10
50.7981967
 20
-1.277506699999999
 10
51.0541362
 20
-1.1774716
 10
51.3171382
 20
-1.070419699999999
 10
51.5870549
 20
-0.9561351999999999
 10
51.863734
 20
-0.8344046999999999
 10
51.9941559
 20
-0.7754298000000001
 10
51.9973306
 20
-0.5207208999999999
 10
51.9992575
 20
-0.2659995
 10
51.9999367
 20
-0.0112717
 10
51.99936799999999
 20
0.2434563
 10
51.9975515
 20
0.4981785
 10
51.9944872
 20
0.7528888000000002
 10
51.9941559
 20
0.7754298000000001
 10
51.74532909999999
 20
0.8870635
 10
51.46812520000001
 20
1.0070384
 10
51.1979227
 20
1.119475299999999
 10
50.9348776
 20
1.2245968
 10
50.6791409
 20
1.322628399999999
 10
50.4308589
 20
1.413798599999999
 10
50.1901725
 20
1.498338299999999
 10
49.88130739999999
 20
1.6011478
 10
49.5864956
 20
1.693145999999999
 10
49.3060292
 20
1.7749008
 10
49.0401839
 20
1.846987299999999
 10
48.7892188
 20
1.909987499999999
 10
48.4968053
 20
1.9768561
 10
48.22845570000001
 20
2.031607399999999
 10
47.93875279999999
 20
2.082967599999999
 10
47.68486929999999
 20
2.120619899999999
 10
47.6384565
 20
2.126684999999999
 10
47.52935739999999
 20
3.860766399999999
 10
47.77664699999999
 20
3.928582
 10
48.0482406
 20
4.011426099999999
 10
48.31242429999999
 20
4.0996044
 10
48.5581144
 20
4.1878352
 10
48.8211503
 20
4.2885596
 10
49.053292
 20
4.3825905
 10
49.29692720000001
 20
4.4862612
 10
49.5517861
 20
4.599999999999999
 10
49.8175875
 20
4.724228299999999
 10
50.094039
 20
4.859360999999999
 10
50.3226646
 20
4.9755925
 10
50.5577517
 20
5.099269099999999
 10
50.79913539999999
 20
5.2305931
 10
51.0466464
 20
5.3697637
 10
51.3001111
 20
5.516976599999999
 10
51.5593516
 20
5.6724244
 10
51.6813536
 20
5.747280299999999
 10
51.65257979999999
 20
6.0003787
 10
51.62256639999999
 20
6.253333
 10
51.59131439999999
 20
6.506137299999999
 10
51.5588243
 20
6.758785499999999
 10
51.5250969
 20
7.011271499999999
 10
51.4901331
 20
7.263589299999999
 10
51.48697929999999
 20
7.285911
 10
51.2261232
 20
7.3654782
 10
50.93606829999999
 20
7.4497641
 10
50.65390429999999
 20
7.527449099999999
 10
50.3797582
 20
7.598773399999999
 10
50.1137515
 20
7.6639797
 10
49.8560005
 20
7.723313
 10
49.6066164
 20
7.777020099999999
 10
49.28730139999999
 20
7.840307899999999
 10
48.9832838
 20
7.894630900000001
 10
48.6947823
 20
7.9405892
 10
48.4219985
 20
7.978788099999999
 10
48.16511629999999
 20
8.009837199999999
 10
47.86662779999999
 20
8.039529400000001
 10
47.593532
 20
8.060215799999999
 10
47.29967639999999
 20
8.074861699999999
 10
47.0430757
 20
8.080397099999998
 10
46.99626879999999
 20
8.080597200000001
 10
46.6706919
 20
9.787331199999998
 10
46.907532
 20
9.885605699999999
 10
47.1666009
 20
10.0018361
 10
47.4176498
 20
10.1224301
 10
47.6503442
 20
10.2407583
 10
47.89868189999999
 20
10.3736557
 10
48.11720789999999
 20
10.4960401
 10
48.3459286
 20
10.629429
 10
48.58452259999999
 20
10.7742132
 10
48.83265810000001
 20
10.9307757
 10
49.0899931
 20
11.0994914
 10
49.3022483
 20
11.2434607
 10
49.5199809
 20
11.3956263
 10
49.7430019
 20
11.5561683
 10
49.9711185
 20
11.7252628
 10
50.20413389999999
 20
11.9030824
 10
50.4418474
 20
12.0897958
 10
50.5535054
 20
12.1793525
 10
50.4932369
 20
12.4268488
 10
50.4317566
 20
12.6740468
 10
50.36906619999999
 20
12.9209408
 10
50.3051671
 20
13.1675246
 10
50.24006079999999
 20
13.4137925
 10
50.1737489
 20
13.6597386
 10
50.1678223
 20
13.6814891
 10
49.8990507
 20
13.7277348
 10
49.60071909999999
 20
13.7750027
 10
49.31104359999999
 20
13.8167105
 10
49.03011989999999
 20
13.8531128
 10
48.7580382
 20
13.8844655
 10
48.49488329999999
 20
13.9110261
 10
48.2407344
 20
13.9330536
 10
47.91600510000001
 20
13.9558215
 10
47.6075764
 20
13.9716127
 10
47.3155897
 20
13.9810498
 10
47.04016919999999
 20
13.9847586
 10
46.97391539999999
 20
13.9848643
 10
46.71935
 20
13.9822959
 10
46.4247487
 20
13.9730943
 10
46.1564901
 20
13.9583873
 10
45.8694639
 20
13.9352113
 10
45.6205441
 20
13.9080218
 10
45.6129218
 20
13.9070736
 10
45.0760017
 20
15.5595438
 10
45.2986571
 20
15.6867274
 10
45.54111569999999
 20
15.8345113
 10
45.7750705
 20
15.9856191
 10
45.9910997
 20
16.1321786
 10
46.22082269999999
 20
16.295153
 10
46.4222867
 20
16.44396099999999
 10
46.6324858
 20
16.6049643
 10
46.8510521
 20
16.7785106
 10
47.07760859999999
 20
16.9649382
 10
47.3117687
 20
17.1645762
 10
47.5043061
 20
17.33401289999999
 10
47.70125039999999
 20
17.5122678
 10
47.9023916
 20
17.6994957
 10
48.1075162
 20
17.8958474
 10
48.3164075
 20
18.1014695
 10
48.5288452
 20
18.316504
 10
48.62839829999999
 20
18.419349
 10
48.5375855
 20
18.65733999999999
 10
48.4456079
 20
18.8948833
 10
48.35246779999999
 20
19.1319732
 10
48.2581674
 20
19.368604
 10
48.1627089
 20
19.6047701
 10
48.06609470000001
 20
19.8404656
 10
48.05748879999999
 20
19.8613018
 10
47.7850404
 20
19.8734969
 10
47.48313699999999
 20
19.8830012
 10
47.19051829999999
 20
19.8880742
 10
47.0006287
 20
19.8891249
 10
46.72362179999999
 20
19.8874005
 10
46.4560553
 20
19.8819518
 10
46.1979771
 20
19.8730455
 10
45.8687052
 20
19.8562535
 10
45.5564611
 20
19.8344239
 10
45.261312
 20
19.8081922
 10
44.98330689999999
 20
19.7781944
 10
44.722477
 20
19.7450671
 10
44.4206109
 20
19.7002257
 10
44.14558729999999
 20
19.6527286
 10
43.89734960000001
 20
19.6038131
 10
43.63467779999999
 20
19.5449781
 10
43.5102318
 20
19.5142272
 10
42.77043599999999
 20
21.0863732
 10
42.97539539999999
 20
21.24046
 10
43.19741989999999
 20
21.4174667
 10
43.4105911
 20
21.5967053
 10
43.60654799999999
 20
21.7691848
 10
43.8140335
 20
21.959666
 10
43.99525829999999
 20
22.1325507
 10
44.1836208
 20
22.3186295
 10
44.3787126
 20
22.5182009
 10
44.580117
 20
22.7315535
 10
44.78740949999999
 20
22.9589653
 10
44.95719249999999
 20
23.1511973
 10
45.1302426
 20
23.3527302
 10
45.30633189999999
 20
23.5636915
 10
45.4852297
 20
23.7842039
 10
45.6667025
 20
24.01438560000001
 10
45.8505141
 20
24.25435
 10
45.93639229999999
 20
24.3688613
 10
45.8164674
 20
24.5935938
 10
45.69544299999999
 20
24.8177362
 10
45.5733221
 20
25.041283
 10
45.4501075
 20
25.264229
 10
45.3258024
 20
25.4865686
 10
45.2004095
 20
25.7082967
 10
45.18925999999999
 20
25.72789
 10
44.91743139999999
 20
25.7058421
 10
44.61671749999999
 20
25.6774329
 10
44.3257703
 20
25.645791
 10
44.0446195
 20
25.6111867
 10
43.7732886
 20
25.5738905
 10
43.5117958
 20
25.5341727
 10
43.26015349999999
 20
25.4923039
 10
42.939964
 20
25.4335997
 10
42.637298
 20
25.37219160000001
 10
42.35213779999999
 20
25.3087181
 10
42.08444779999999
 20
25.24381610000001
 10
41.8341749
 20
25.1781202
 10
41.54571679999999
 20
25.0958464
 10
41.2841836
 20
25.0145468
 10
41.00557199999999
 20
24.9199887
 10
40.7649531
 20
24.8306744
 10
40.72135939999999
 20
24.8136297
 10
39.790355
 20
26.2806579
 10
39.97438610000001
 20
26.4592179
 10
40.1724749
 20
26.6626559
 10
40.3615007
 20
26.8671986
 10
40.534295
 20
27.062878
 10
40.71627079999999
 20
27.2778619
 10
40.8743984
 20
27.4720969
 10
41.0379538
 20
27.6803165
 10
41.20649429999999
 20
27.9027657
 10
41.37957039999999
 20
28.1396787
 10
41.55672599999999
 20
28.3912779
 10
41.7010772
 20
28.6032735
 10
41.847504
 20
28.8249062
 10
41.99576429999999
 20
29.0562739
 10
42.14561389999999
 20
29.2974693
 10
42.29680629999999
 20
29.5485805
 10
42.44909299999999
 20
29.8096904
 10
42.519942
 20
29.93406210000001
 10
42.3727962
 20
30.141992
 10
42.2246336
 20
30.3491986
 10
42.07545779999999
 20
30.5556769
 10
41.9252723
 20
30.7614219
 10
41.77408079999999
 20
30.9664288
 10
41.62188679999999
 20
31.1706926
 10
41.6083695
 20
31.188734
 10
41.34144779999999
 20
31.1327908
 10
41.0466656
 20
31.0669161
 10
40.76197849999999
 20
30.9990584
 10
40.4873816
 20
30.9294895
 10
40.22286479999999
 20
30.8584805
 10
39.9684119
 20
30.7863022
 10
39.7240014
 20
30.7132243
 10
39.4136943
 20
30.6148527
 10
39.1211114
 20
30.5159947
 10
38.846155
 20
30.4172817
 10
38.5887102
 20
30.319341
 10
38.3486447
 20
30.2227956
 10
38.0727728
 20
30.10501710000001
 10
37.8234914
 20
29.9915799
 10
37.55892810000001
 20
29.86284810000001
 10
37.3314005
 20
29.7440805
 10
37.2902869
 20
29.7217065
 10
36.18275629999999
 20
31.060481
 10
36.3429568
 20
31.26069810000001
 10
36.51398610000001
 20
31.4873591
 10
36.6758853
 20
31.71398010000001
 10
36.822792
 20
31.9297734
 10
36.9763882
 20
32.1658697
 10
37.1089248
 20
32.3783918
 10
37.24509370000001
 20
32.60546830000001
 10
37.3844249
 20
32.84728730000001
 10
37.5264432
 20
33.1040243
 10
37.67066810000001
 20
33.375843
 10
37.787311
 20
33.60425900000001
 10
37.90480520000001
 20
33.84249620000001
 10
38.0228984
 20
34.0906214
 10
38.1413366
 20
34.34869600000001
 10
38.2598642
 20
34.6167766
 10
38.3782243
 20
34.8949142
 10
38.4329267
 20
35.0271849
 10
38.2608807
 20
35.215033
 10
38.0879166
 20
35.4020359
 10
37.9140385
 20
35.5881894
 10
37.7392506
 20
35.7734889
 10
37.563557
 20
35.9579299
 10
37.3869621
 20
36.141508
 10
37.3712902
 20
36.157713
 10
37.1134848
 20
36.0687567
 10
36.8292834
 20
35.9664555
 10
36.5553459
 20
35.86345210000001
 10
36.29163360000001
 20
35.76001570000001
 10
36.0381023
 20
35.6564139
 10
35.79470220000001
 20
35.5529133
 10
35.56137800000001
 20
35.4497789
 10
35.2658471
 20
35.3132912
 10
34.9879614
 20
35.1785423
 10
34.7275452
 20
35.0461466
 10
34.48440570000001
 20
34.91671179999999
 10
34.2583335
 20
34.79083950000001
 10
33.9993985
 20
34.6394138
 10
33.7663002
 20
34.4956278
 10
33.5199574
 20
34.3347525
 10
33.3091095
 20
34.1884047
 10
33.2711242
 20
34.1610542
 10
32.004534
 20
35.3504616
 10
32.1383773
 20
35.5691785
 10
32.2796499
 20
35.8154878
 10
32.4118693
 20
36.06061320000001
 10
32.5305716
 20
36.2931171
 10
32.6533659
 20
36.54660250000001
 10
32.7582213
 20
36.77406
 10
32.8648562
 20
37.0164125
 10
32.9727808
 20
37.27378740000001
 10
33.0815016
 20
37.54629960000001
 10
33.1905213
 20
37.83405120000001
 10
33.2776163
 20
38.0752853
 10
33.364325
 20
38.3263698
 10
33.4503886
 20
38.5873395
 10
33.5355476
 20
38.8582234
 10
33.6195412
 20
39.1390455
 10
33.70210810000001
 20
39.42982429999999
 10
33.7398013
 20
39.56790810000001
 10
33.5455683
 20
39.7327118
 10
33.3505304
 20
39.89656210000001
 10
33.15469210000001
 20
40.0594549
 10
32.9580583
 20
40.2213865
 10
32.76063350000001
 20
40.3823529
 10
32.5624227
 20
40.5423503
 10
32.5448433
 20
40.5564633
 10
32.3002199
 20
40.4358969
 10
32.0310813
 20
40.2987825
 10
31.7722136
 20
40.1622578
 10
31.5235449
 20
40.02658499999999
 10
31.2849975
 20
39.8920243
 10
31.0564887
 20
39.7588337
 10
30.8379305
 20
39.6272693
 10
30.5618364
 20
39.45481799999999
 10
30.3030304
 20
39.2863034
 10
30.0612613
 20
39.1223128
 10
29.8362615
 20
38.96342520000001
 10
29.6277479
 20
38.810211
 10
29.3898333
 20
38.62752620000001
 10
29.1765943
 20
38.4556591
 10
28.952357
 20
38.2651774
 10
28.7615139
 20
38.0935573
 10
28.7272561
 20
38.0616616
 10
27.321581
 20
39.0829444
 10
27.4269564
 20
39.3167116
 10
27.5362443
 20
39.5787849
 10
27.6366988
 20
39.8385489
 10
27.72532460000001
 20
40.08409679999999
 10
27.8153804
 20
40.3509736
 10
27.8909011
 20
40.5897794
 10
27.9663203
 20
40.8435857
 10
28.0411363
 20
41.1124577
 10
28.1148449
 20
41.3964474
 10
28.1869402
 20
41.6955937
 10
28.24311380000001
 20
41.94584149999999
 10
28.2976695
 20
42.2058137
 10
28.3503463
 20
42.4755121
 10
28.400883
 20
42.75493329999999
 10
28.449018
 20
43.0440682
 10
28.4944895
 20
43.3429026
 10
28.514579
 20
43.4846217
 10
28.3012222
 20
43.6237821
 10
28.0871863
 20
43.7618956
 10
27.8724764
 20
43.8989589
 10
27.6570977
 20
44.0349689
 10
27.44105530000001
 20
44.1699222
 10
27.2243544
 20
44.3038155
 10
27.2051448
 20
44.31561389999999
 10
26.9775613
 20
44.1653388
 10
26.7277299
 20
43.9955735
 10
26.4880146
 20
43.8276807
 10
26.258311
 20
43.66191129999999
 10
26.0385095
 20
43.4985137
 10
25.8284958
 20
43.3377336
 10
25.6281504
 20
43.17981399999999
 10
25.3758472
 20
42.9741187
 10
25.14020260000001
 20
42.77449589999999
 10
24.92089330000001
 20
42.5814967
 10
24.7175816
 20
42.395662
 10
24.529915
 20
42.21752239999999
 10
24.316773
 20
42.0064595
 10
24.126756
 20
41.8092216
 10
23.9281606
 20
41.5921376
 10
23.76033210000001
 20
41.3979518
 10
23.730342
 20
41.362014
 10
22.2077504
 20
42.19906579999999
 10
22.2829961
 20
42.4441968
 10
22.3585757
 20
42.71790089999999
 10
22.425681
 20
42.98820689999999
 10
22.4828326
 20
43.2429263
 10
22.5387299
 20
43.5189857
 10
22.5837247
 20
43.7653737
 10
22.6267389
 20
44.0266312
 10
22.6672663
 20
44.30276
 10
22.7048003
 20
44.59374849999999
 10
22.7388342
 20
44.8995719
 10
22.7632004
 20
45.15488679999999
 10
22.7847428
 20
45.4196467
 10
22.8032021
 20
45.6938206
 10
22.8183195
 20
45.97737239999999
 10
22.8298367
 20
46.27026029999999
 10
22.8374958
 20
46.5724373
 10
22.8396648
 20
46.71555689999999
 10
22.610549
 20
46.8268792
 10
22.3808906
 20
46.93707779999999
 10
22.1506952
 20
47.0461501
 10
21.9199682
 20
47.1540935
 10
21.6887152
 20
47.26090529999999
 10
21.4569418
 20
47.3665831
 10
21.436405
 20
47.3758808
 10
21.2294505
 20
47.1982669
 10
21.0028663
 20
46.9985281
 10
20.7860838
 20
46.8019149
 10
20.5789678
 20
46.6086631
 10
20.3813787
 20
46.41900549999999
 10
20.1931721
 20
46.2331715
 10
20.0141991
 20
46.05138729999999
 10
19.7896659
 20
45.81569189999999
 10
19.5808987
 20
45.5881091
 10
19.3875079
 20
45.369145
 10
19.2090906
 20
45.159294
 10
19.0452307
 20
44.9590382
 10
18.8602225
 20
44.7229258
 10
18.69642439999999
 20
44.5034277
 10
18.5266028
 20
44.2631649
 10
18.3844356
 20
44.04947579999999
 10
18.3591862
 20
44.01006259999999
 10
16.7436902
 20
44.6496827
 10
16.7876196
 20
44.9023116
 10
16.82829899999999
 20
45.1833301
 10
16.8609969
 20
45.4599152
 10
16.885773
 20
45.719789
 10
16.90663
 20
46.0006774
 10
16.9203895
 20
46.2507619
 10
16.9303202
 20
46.51535039999999
 10
16.9359199
 20
46.7943813
 10
16.9366875
 20
47.08777949999999
 10
16.9321231
 20
47.39545699999999
 10
16.9242978
 20
47.6518126
 10
16.9124871
 20
47.9171847
 10
16.89643769999999
 20
48.1915102
 10
16.8758975
 20
48.4747208
 10
16.8506153
 20
48.7667427
 10
16.8203412
 20
49.06749699999999
 10
16.8045554
 20
49.2097598
 10
16.5632938
 20
49.2914885
 10
16.3216349
 20
49.3720343
 10
16.0795842
 20
49.4513955
 10
15.8371477
 20
49.5295699
 10
15.5943311
 20
49.6065558
 10
15.3511404
 20
49.6823513
 10
15.3296002
 20
49.6890018
 10
15.1465385
 20
49.4868501
 10
14.9467749
 20
49.26028779999999
 10
14.756344
 20
49.03805489999999
 10
14.575082
 20
48.8203684
 10
14.4028214
 20
48.6074419
 10
14.23939
 20
48.3994847
 10
14.0846119
 20
48.1967026
 10
13.8913896
 20
47.9347243
 10
13.7127923
 20
47.68277059999999
 10
13.54837
 20
47.44129479999999
 10
13.3976609
 20
47.21073689999999
 10
13.2601917
 20
46.9915231
 10
13.1062351
 20
46.73408489999999
 10
12.971239
 20
46.49578829999999
 10
12.8328694
 20
46.2361356
 10
12.7186056
 20
46.00631329999999
 10
12.6984951
 20
45.9640463
 10
11.0155721
 20
46.39614749999999
 10
11.0274923
 20
46.6522901
 10
11.03263
 20
46.9361911
 10
11.0304047
 20
47.2146934
 10
11.0224146
 20
47.47562339999999
 10
11.0079026
 20
47.7569109
 10
10.9902096
 20
48.0067479
 10
10.9669003
 20
48.27049479999999
 10
10.937484
 20
48.54802720000001
 10
10.901473
 20
48.8392081
 10
10.8583824
 20
49.1438874
 10
10.8184889
 20
49.3972407
 10
10.7735114
 20
49.6590401
 10
10.7232065
 20
49.92919099999999
 10
10.6673325
 20
50.207594
 10
10.6056496
 20
50.4941445
 10
10.5379197
 20
50.78873279999999
 10
10.5044281
 20
50.9278954
 10
10.2548257
 20
50.97874149999999
 10
10.0049772
 20
51.02836439999999
 10
9.754888599999999
 20
51.0767627
 10
9.504565899999999
 20
51.1239354
 10
9.2540151
 20
51.16988120000001
 10
9.0032423
 20
51.2145992
 10
8.9810384
 20
51.21849749999999
 10
8.824756599999998
 20
50.9949962
 10
8.654963999999999
 20
50.7451834
 10
8.493887800000001
 20
50.5008355
 10
8.341338499999999
 20
50.2621474
 10
8.197122999999999
 20
50.0293099
 10
8.0610443
 20
49.8025091
 10
7.9329019
 20
49.5819272
 10
7.774037799999999
 20
49.29779749999999
 10
7.628427
 20
49.0254463
 10
7.495566199999999
 20
48.7652671
 10
7.374941999999999
 20
48.51763829999999
 10
7.266031599999998
 20
48.2829236
 10
7.1455546
 20
48.0082195
 10
7.041489399999999
 20
47.7548824
 10
6.936753999999999
 20
47.47993489999999
 10
6.852195599999999
 20
47.23760369999999
 10
6.837541099999999
 20
47.1931495
 10
5.1137319
 20
47.41091729999999
 10
5.0934549
 20
47.66653409999999
 10
5.062969799999999
 20
47.94884039999999
 10
5.0258565
 20
48.22486770000001
 10
4.9852262
 20
48.4827388
 10
4.9355739
 20
48.75998939999999
 10
4.886707599999999
 20
49.00563889999999
 10
4.8305258
 20
49.26438459999999
 10
4.766557499999999
 20
49.53604179999999
 10
4.6943358
 20
49.8204132
 10
4.613398499999999
 20
50.1172893
 10
4.542066
 20
50.363645
 10
4.464630999999999
 20
50.6177427
 10
4.3808638
 20
50.8794585
 10
4.290537299999999
 20
51.14866339999999
 10
4.1934265
 20
51.4252234
 10
4.089309
 20
51.7090001
 10
4.0386398
 20
51.84286769999999
 10
3.7846328
 20
51.8620294
 10
3.530534999999999
 20
51.87994660000001
 10
3.2763525
 20
51.89661889999999
 10
3.022091399999999
 20
51.9120458
 10
2.767757799999999
 20
51.9262271
 10
2.5133577
 20
51.93916220000001
 10
2.490840299999999
 20
51.94024699999999
 10
2.363802999999999
 20
51.6989207
 10
2.2266591
 20
51.4297971
 10
2.097477899999999
 20
51.16718770000001
 10
1.9760471
 20
50.9112623
 10
1.862150999999999
 20
50.6621857
 10
1.755570999999999
 20
50.4201182
 10
1.656085299999999
 20
50.1852151
 10
1.534084899999999
 20
49.88341489999999
 10
1.423756899999999
 20
49.59496149999999
 10
1.324552799999999
 20
49.32018189999999
 10
1.235915899999999
 20
49.0593876
 10
1.157281899999999
 20
48.8128735
 10
1.072184399999999
 20
48.52523579999999
 10
1.000691299999999
 20
48.26085349999999
 10
0.9312419
 20
47.97494729999999
 10
0.8777222999999999
 20
47.72392899999999
 10
0.8687549999999999
 20
47.6779886
 10
-0.8687549999999999
 20
47.6779886
 10
-0.9209094
 20
47.9290484
 10
-0.9865364999999998
 20
48.20530789999999
 10
-1.0579525
 20
48.4745071
 10
-1.1305822
 20
48.72525239999999
 10
-1.214591699999999
 20
48.99409379999999
 10
-1.293860699999999
 20
49.2316817
 10
-1.382028899999999
 20
49.48134559999999
 10
-1.479540599999999
 20
49.74284329999999
 10
-1.586834
 20
50.0159206
 10
-1.7043415
 20
50.3003117
 10
-1.805988
 20
50.53578439999999
 10
-1.914659399999999
 20
50.77817329999999
 10
-2.030567699999999
 20
51.0273266
 10
-2.153922299999999
 20
51.2830878
 10
-2.284929499999999
 20
51.5452959
 10
-2.4237926
 20
51.8137855
 10
-2.490840399999999
 20
51.94024699999999
 10
-2.745245999999999
 20
51.9274221
 10
-2.999585799999999
 20
51.9133511
 10
-3.253853499999999
 20
51.8980344
 10
-3.508043199999999
 20
51.8814723
 10
-3.762148799999999
 20
51.8636653
 10
-4.016163999999999
 20
51.84461370000001
 10
-4.0386398
 20
51.84286769999999
 10
-4.1344292
 20
51.5875223
 10
-4.236761599999999
 20
51.30333209999999
 10
-4.3320104
 20
51.0266029
 10
-4.4204077
 20
50.75747620000001
 10
-4.502188099999999
 20
50.4960887
 10
-4.577588599999999
 20
50.2425719
 10
-4.6468487
 20
49.9970522
 10
-4.730061499999999
 20
49.6823411
 10
-4.8033668
 20
49.3823344
 10
-4.867349599999999
 20
49.09728799999999
 10
-4.9226014
 20
48.827441
 10
-4.9697189
 20
48.5730153
 10
-5.0180948
 20
48.2769801
 10
-5.0558882
 20
48.0057222
 10
-5.0889565
 20
47.713366
 10
-5.110593099999999
 20
47.45761929999999
 10
-5.1137319
 20
47.41091729999999
 10
-6.837541099999999
 20
47.1931495
 10
-6.9207504
 20
47.43569299999999
 10
-7.020484399999999
 20
47.70154879999999
 10
-7.125077
 20
47.9596745
 10
-7.2285607
 20
48.19933970000001
 10
-7.345602499999999
 20
48.455532
 10
-7.454024099999999
 20
48.6813114
 10
-7.5727883
 20
48.91795629999999
 10
-7.702305299999999
 20
49.1651706
 10
-7.842978399999999
 20
49.42264709999999
 10
-7.9952029
 20
49.6900681
 10
-8.125560499999998
 20
49.9109443
 10
-8.263754400000001
 20
50.1378018
 10
-8.4099759
 20
50.37046329999999
 10
-8.5644132
 20
50.6087473
 10
-8.7272508
 20
50.8524682
 10
-8.898669599999999
 20
51.1014365
 10
-8.9810384
 20
51.21849749999999
 10
-9.2318306
 20
51.17388829999999
 10
-9.482401300000001
 20
51.1280511
 10
-9.732744399999999
 20
51.0809869
 10
-9.982853999999999
 20
51.032697
 10
-10.232724
 20
50.9831825
 10
-10.4823484
 20
50.9324446
 10
-10.5044281
 20
50.9278954
 10
-10.567459
 20
50.66255789999999
 10
-10.6333659
 20
50.367783
 10
-10.6931803
 20
50.08129799999999
 10
-10.7471501
 20
49.8032143
 10
-10.7955251
 20
49.53363809999999
 10
-10.838557
 20
49.27267020000001
 10
-10.8764991
 20
49.020406
 10
-10.9196121
 20
48.6977471
 10
-10.9547384
 20
48.39091849999999
 10
-10.982491
 20
48.10010059999999
 10
-11.0034862
 20
47.8254565
 10
-11.0183443
 20
47.56713159999999
 10
-11.0292357
 20
47.2673677
 10
-11.0327334
 20
46.9935119
 10
-11.028899
 20
46.69931649999999
 10
-11.0183114
 20
46.4428746
 10
-11.0155721
 20
46.39614749999999
 10
-12.6984951
 20
45.9640463
 10
-12.811447
 20
46.19424839999999
 10
-12.9437152
 20
46.44550789999999
 10
-13.0798347
 20
46.68848920000001
 10
-13.2125404
 20
46.9132946
 10
-13.3607687
 20
47.1527976
 10
-13.4966331
 20
47.36320779999999
 10
-13.6441202
 20
47.58310149999999
 10
-13.8036002
 20
47.8121337
 10
-13.9754343
 20
48.049949
 10
-14.1599753
 20
48.2961824
 10
-14.3169881
 20
48.4989788
 10
-14.482525
 20
48.7067272
 10
-14.6567537
 20
48.9192277
 10
-14.8398381
 20
49.1362766
 10
-15.0319381
 20
49.3576668
 10
-15.2332092
 20
49.5831874
 10
-15.3296002
 20
49.6890018
 10
-15.5728238
 20
49.61331170000001
 10
-15.8156737
 20
49.5364311
 10
-16.0581441
 20
49.4583618
 10
-16.3002291
 20
49.3791056
 10
-16.541923
 20
49.2986645
 10
-16.78322
 20
49.21704039999999
 10
-16.8045554
 20
49.2097598
 10
-16.8338336
 20
48.9386147
 10
-16.8622758
 20
48.6379039
 10
-16.8857124
 20
48.3461811
 10
-16.9044035
 20
48.063526
 10
-16.9186102
 20
47.7900125
 10
-16.9285948
 20
47.5257091
 10
-16.9346206
 20
47.2706786
 10
-16.9369538
 20
46.9451606
 10
-16.9333473
 20
46.63634889999999
 10
-16.9244319
 20
46.34434579999999
 10
-16.9108396
 20
46.069236
 10
-16.8932038
 20
45.8110859
 10
-16.8664389
 20
45.5123206
 10
-16.8355858
 20
45.24018589999999
 10
-16.7949092
 20
44.9487909
 10
-16.7522644
 20
44.6956981
 10
-16.7436902
 20
44.6496827
 10
-18.3591862
 20
44.01006259999999
 10
-18.50009939999999
 20
44.22429279999999
 10
-18.6628158
 20
44.4569935
 10
-18.8283156
 20
44.6809986
 10
-18.9881505
 20
44.8873989
 10
-19.1652277
 20
45.10643529999999
 10
-19.3263921
 20
45.2981581
 10
-19.5002762
 20
45.49783289999999
 10
-19.687204
 20
45.70507089999999
 10
-19.8874893
 20
45.9194744
 10
-20.1014363
 20
46.1406371
 10
-20.2826282
 20
46.3221555
 10
-20.4728976
 20
46.5075184
 10
-20.6723858
 20
46.6965066
 10
-20.88123
 20
46.8888975
 10
-21.0995627
 20
47.08446539999999
 10
-21.327512
 20
47.28298179999999
 10
-21.436405
 20
47.3758808
 10
-21.6682242
 20
47.2703036
 10
-21.8995235
 20
47.163592
 10
-22.1302972
 20
47.0557487
 10
-22.3605399
 20
46.9467762
 10
-22.590246
 20
46.8366771
 10
-22.8194101
 20
46.7254541
 10
-22.8396648
 20
46.71555689999999
 10
-22.8347286
 20
46.4428803
 10
-22.8252575
 20
46.14097589999999
 10
-22.8119468
 20
45.84861609999999
 10
-22.7950644
 20
45.5658472
 10
-22.7748787
 20
45.29270989999999
 10
-22.7516586
 20
45.0292392
 10
-22.7256731
 20
44.7754644
 10
-22.6871896
 20
44.45222079999999
 10
-22.6449073
 20
44.1462961
 10
-22.5994644
 20
43.857713
 10
-22.5514989
 20
43.5864761
 10
-22.5016473
 20
43.3325719
 10
-22.4376483
 20
43.03951699999999
 10
-22.372931
 20
42.7733951
 10
-22.2960536
 20
42.48939589999999
 10
-22.2220242
 20
42.2436437
 10
-22.2077504
 20
42.19906579999999
 10
-23.730342
 20
41.362014
 10
-23.8969942
 20
41.5568938
 10
-24.0875927
 20
41.7673658
 10
-24.2798628
 20
41.96886189999999
 10
-24.4643061
 20
42.153602
 10
-24.6674395
 20
42.34871759999999
 10
-24.8513623
 20
42.5187293
 10
-25.0489013
 20
42.6950362
 10
-25.2603288
 20
42.8772118
 10
-25.4859067
 20
43.0648223
 10
-25.7258858
 20
43.2574264
 10
-25.9283992
 20
43.4148041
 10
-26.1404003
 20
43.57485829999999
 10
-26.3620021
 20
43.7373537
 10
-26.5933124
 20
43.90205239999999
 10
-26.8344347
 20
44.0687139
 10
-27.08546720000001
 20
44.2370953
 10
-27.2051449
 20
44.31561389999999
 10
-27.4219038
 20
44.1818145
 10
-27.6380047
 20
44.0469549
 10
-27.8534424
 20
43.91103829999999
 10
-28.0682117
 20
43.7740681
 10
-28.2823074
 20
43.6360473
 10
-28.4957245
 20
43.4969795
 10
-28.514579
 20
43.4846217
 10
-28.4755063
 20
43.214714
 10
-28.4282712
 20
42.9163772
 10
-28.378423
 20
42.62799099999999
 10
-28.32623339999999
 20
42.3495678
 10
-28.2719738
 20
42.0811142
 10
-28.2159151
 20
41.82263129999999
 10
-28.1583281
 20
41.57411439999999
 10
-28.0796349
 20
41.25824289999999
 10
-27.9993434
 20
40.96002999999999
 10
-27.9180899
 20
40.67941789999999
 10
-27.8365076
 20
40.4163314
 10
-27.7552265
 20
40.17067739999999
 10
-27.6550026
 20
39.8879546
 10
-27.5574417
 20
39.6320423
 10
-27.445576
 20
39.3599179
 10
-27.3413293
 20
39.1253818
 10
-27.321581
 20
39.0829444
 10
-28.7272561
 20
38.0616616
 10
-28.9170192
 20
38.23411770000001
 10
-29.1324938
 20
38.4190417
 10
-29.3485019
 20
38.5948511
 10
-29.554645
 20
38.75501770000001
 10
-29.7806311
 20
38.9231354
 10
-29.98441169999999
 20
39.0687549
 10
-30.20249010000001
 20
39.2189133
 10
-30.4350832
 20
39.3731535
 10
-30.6823962
 20
39.5310122
 10
-30.9446226
 20
39.6920202
 10
-31.16526380000001
 20
39.8227753
 10
-31.3956534
 20
39.9549966
 10
-31.6358738
 20
40.0884367
 10
-31.8860024
 20
40.22284579999999
 10
-32.1461115
 20
40.35797249999999
 10
-32.4162684
 20
40.4935634
 10
-32.5448433
 20
40.5564633
 10
-32.74312360000001
 20
40.39655179999999
 10
-32.940618
 20
40.235671
 10
-33.1373221
 20
40.0738247
 10
-33.3332309
 20
39.91101670000001
 10
-33.5283399
 20
39.747251
 10
-33.7226443
 20
39.5825315
 10
-33.7398013
 20
39.56790810000001
 10
-33.6672083
 20
39.3050257
 10
-33.5829541
 20
39.01496160000001
 10
-33.49735470000001
 20
38.7350971
 10
-33.4106809
 20
38.4654103
 10
-33.3232029
 20
38.2058741
 10
-33.2351898
 20
37.95645540000001
 10
-33.1469095
 20
37.7171158
 10
-33.02924760000001
 20
37.4135979
 10
-32.91221330000001
 20
37.12779960000001
 10
-32.7964304
 20
36.8595841
 10
-32.6825179
 20
36.60879710000001
 10
-32.5710891
 20
36.3752674
 10
-32.4362209
 20
36.1073352
 10
-32.307355
 20
35.8656685
 10
-32.1622652
 20
35.6097104
 10
-32.0294454
 20
35.3900893
 10
-32.004534
 20
35.3504616
 10
-33.27112430000001
 20
34.1610542
 10
-33.4810054
 20
34.3083668
 10
-33.7179581
 20
34.4648264
 10
-33.9542977
 20
34.6121766
 10
-34.1788895
 20
34.7452436
 10
-34.4241644
 20
34.883712
 10
-34.6445891
 20
35.0026428
 10
-34.8797677
 20
35.12428470000001
 10
-35.1298581
 20
35.248157
 10
-35.3950059
 20
35.3737744
 10
-35.67534420000001
 20
35.5006472
 10
-35.91063360000001
 20
35.6027175
 10
-36.1557782
 20
35.7050208
 10
-36.4108289
 20
35.807301
 10
-36.6758311
 20
35.9093009
 10
-36.950825
 20
36.01076170000001
 10
-37.23584570000001
 20
36.1114238
 10
-37.3712902
 20
36.157713
 10
-37.54796470000001
 20
35.9742114
 10
-37.72373820000001
 20
35.78984660000001
 10
-37.8986064
 20
35.6046229
 10
-38.0725652
 20
35.4185448
 10
-38.2456104
 20
35.2316168
 10
-38.4177378
 20
35.0438434
 10
-38.4329267
 20
35.0271849
 10
-38.3279583
 20
34.77547379999999
 10
-38.2080138
 20
34.4982568
 10
-38.08801300000001
 20
34.2313275
 10
-37.968222
 20
33.9746304
 10
-37.8489053
 20
33.7281046
 10
-37.7303257
 20
33.4916836
 10
-37.6127443
 20
33.2652957
 10
-37.4579693
 20
32.9789181
 10
-37.3060378
 20
32.71004170000001
 10
-37.1575516
 20
32.4584526
 10
-37.0131054
 20
32.2239201
 10
-36.8732863
 20
32.0061976
 10
-36.7059007
 20
31.7572817
 10
-36.54776210000001
 20
31.5336717
 10
-36.37173629999999
 20
31.2979165
 10
-36.212438
 20
31.0966739
 10
-36.18275629999999
 20
31.0604809
 10
-37.2902869
 20
29.7217065
 10
-37.5169763
 20
29.8415524
 10
-37.7716701
 20
29.9670803
 10
-38.024614
 20
30.0836473
 10
-38.26411250000001
 20
30.1875162
 10
-38.524808
 20
30.2941517
 10
-38.7584005
 20
30.38451810000001
 10
-39.0069705
 20
30.4757251
 10
-39.27061420000001
 20
30.5672761
 10
-39.5494152
 20
30.6586711
 10
-39.8434444
 20
30.7494077
 10
-40.0896712
 20
30.8211836
 10
-40.34570479999999
 20
30.8919554
 10
-40.61156339999999
 20
30.96146280000001
 10
-40.88726
 20
31.02944480000001
 10
-41.172802
 20
31.0956397
 10
-41.4681914
 20
31.1597855
 10
-41.6083695
 20
31.188734
 10
-41.760652
 20
30.9845362
 10
-41.91193239999999
 20
30.7795948
 10
-42.0622071
 20
30.5739149
 10
-42.21147239999999
 20
30.36750130000001
 10
-42.3597248
 20
30.160359
 10
-42.5069607
 20
29.9524929
 10
-42.519942
 20
29.93406210000001
 10
-42.38425349999999
 20
29.6974918
 10
-42.23051029999999
 20
29.4374938
 10
-42.0780006
 20
29.1877094
 10
-41.9269815
 20
28.9480503
 10
-41.77770779999999
 20
28.7184227
 10
-41.63043179999999
 20
28.498728
 10
-41.4854037
 20
28.2888621
 10
-41.2959565
 20
28.024141
 10
-41.11152389999999
 20
27.7764269
 10
-40.93267599999999
 20
27.5454319
 10
-40.7599741
 20
27.3308527
 10
-40.59396959999999
 20
27.13237100000001
 10
-40.3967065
 20
26.9063968
 10
-40.21178909999999
 20
26.7043701
 10
-40.0076033
 20
26.4925357
 10
-39.8243388
 20
26.3128454
 10
-39.790355
 20
26.2806579
 10
-40.72135939999999
 20
24.8136297
 10
-40.96128189999999
 20
24.9041189
 10
-41.2297003
 20
24.9967353
 10
-41.4952593
 20
25.0806809
 10
-41.7458875
 20
25.1537137
 10
-42.0178924
 20
25.2268345
 10
-42.26096889999999
 20
25.2872114
 10
-42.51900999999999
 20
25.3465452
 10
-42.7920492
 20
25.4043309
 10
-43.0801067
 20
25.4600622
 10
-43.3831896
 20
25.5132317
 10
-43.63647079999999
 20
25.5535813
 10
-43.89935549999999
 20
25.5917055
 10
-44.1718294
 20
25.6273439
 10
-44.4538724
 20
25.6602358
 10
-44.74545919999999
 20
25.6901209
 10
-45.046559
 20
25.7167388
 10
-45.18925999999999
 20
25.72789
 10
-45.3147489
 20
25.5062163
 10
-45.4391505
 20
25.2839305
 10
-45.5624617
 20
25.061038
 10
-45.6846795
 20
24.8375442
 10
-45.805801
 20
24.6134543
 10
-45.92582339999999
 20
24.3887737
 10
-45.93639229999999
 20
24.3688613
 10
-45.77212359999999
 20
24.1511627
 10
-45.5870064
 20
23.9124839
 10
-45.404393
 20
23.6837837
 10
-45.2245275
 20
23.4649421
 10
-45.0476508
 20
23.2558342
 10
-44.8740012
 20
23.0563304
 10
-44.70381339999999
 20
22.8662962
 10
-44.4826817
 20
22.6274066
 10
-44.26865659999999
 20
22.4047613
 10
-44.06226769999999
 20
22.1980033
 10
-43.8640337
 20
22.0067614
 10
-43.67446179999999
 20
21.8306506
 10
-43.45043219999999
 20
21.6311819
 10
-43.2416522
 20
21.4539246
 10
-43.0125266
 20
21.2693519
 10
-42.80818599999999
 20
21.1140476
 10
-42.77043599999999
 20
21.0863732
 10
-43.5102318
 20
19.5142272
 10
-43.7596037
 20
19.5739325
 10
-44.03751339999999
 20
19.632177
 10
-44.3114996
 20
19.6821772
 10
-44.569305
 20
19.7232221
 10
-44.8483295
 20
19.7616751
 10
-45.09705649999999
 20
19.7911103
 10
-45.3604994
 20
19.8176351
 10
-45.63862809999999
 20
19.8407443
 10
-45.9313991
 20
19.859933
 10
-46.238756
 20
19.8746968
 10
-46.4950971
 20
19.8829836
 10
-46.7606872
 20
19.8878591
 10
-46.96592129999999
 20
19.8891225
 10
-47.2475806
 20
19.8874107
 10
-47.5383465
 20
19.8815833
 10
-47.83815729999999
 20
19.8713857
 10
-48.05748879999999
 20
19.8613018
 10
-48.15420519999999
 20
19.6256481
 10
-48.24976599999999
 20
19.3895235
 10
-48.344169
 20
19.1529336
 10
-48.4374119
 20
18.9158841
 10
-48.5294924
 20
18.6783807
 10
-48.62040839999999
 20
18.440429
 10
-48.62839829999999
 20
18.41934889999999
 10
-48.4381401
 20
18.2239553
 10
-48.22456810000001
 20
18.0103599
 10
-48.01473099999999
 20
17.8063506
 10
-47.8088556
 20
17.6117777
 10
-47.6071656
 20
17.4264872
 10
-47.4098807
 20
17.2503206
 10
-47.21721729999999
 20
17.0831151
 10
-46.96788849999999
 20
16.87382439999999
 10
-46.7276462
 20
16.6797592
 10
-46.4969711
 20
16.5004989
 10
-46.2763312
 20
16.3356103
 10
-46.06618169999999
 20
16.1846479
 10
-45.8189185
 20
16.0148304
 10
-45.5895686
 20
15.8651379
 10
-45.3391166
 20
15.7107376
 10
-45.1169225
 20
15.5822686
 10
-45.0760017
 20
15.5595438
 10
-45.6129218
 20
13.9070736
 10
-45.86781049999999
 20
13.9350536
 10
-46.1508287
 20
13.9580074
 10
-46.4289212
 20
13.9732738
 10
-46.68983789999999
 20
13.9816835
 10
-46.9714816
 20
13.9848622
 10
-47.22193660000001
 20
13.9828916
 10
-47.48662659999999
 20
13.9761891
 10
-47.7654585
 20
13.9642573
 10
-48.05832589999999
 20
13.9466007
 10
-48.36510969999999
 20
13.9227261
 10
-48.620468
 20
13.8988195
 10
-48.8845749
 20
13.8703692
 10
-49.15735139999999
 20
13.8371265
 10
-49.4387134
 20
13.7988438
 10
-49.7285716
 20
13.7552753
 10
-50.0268314
 20
13.7061765
 10
-50.1678223
 20
13.681489
 10
-50.2342408
 20
13.4355718
 10
-50.2994538
 20
13.1893321
 10
-50.3634599
 20
12.942776
 10
-50.4262573
 20
12.6959093
 10
-50.48784470000001
 20
12.4487379
 10
-50.5482206
 20
12.2012677
 10
-50.55350549999999
 20
12.1793525
 10
-50.3402581
 20
12.0093453
 10
-50.1015997
 20
11.8242018
 10
-49.86784799999999
 20
11.6481007
 10
-49.6392096
 20
11.4808651
 10
-49.41588679999999
 20
11.3223142
 10
-49.1980781
 20
11.1722631
 10
-48.9859775
 20
11.0305231
 10
-48.7123837
 20
10.8541319
 10
-48.4497129
 20
10.6917073
 10
-48.19838950000001
 20
10.5427718
 10
-47.9588234
 20
10.4068369
  0
LWPOLYLINE
  5
461
330
70
100
AcDbEntity
  8
0
 62
    13
100
AcDbPolyline
 90
     1002
 70
     0
 43
0.0
 10
-47.9588234
 20
10.4068369
 10
-47.73141029999999
 20
10.2834036
 10
-47.4648131
 20
10.1459155
 10
-47.21851029999998
 20
10.0261485
 10
-46.9506817
 20
9.904355699999998
 10
-46.7141382
 20
9.804748
 10
-46.6706919
 20
9.787331099999999
 10
-46.99626879999999
 20
8.080597200000001
 10
-47.2526544
 20
8.076410499999999
 10
-47.5363179
 20
8.0637118
 10
-47.81413079999999
 20
8.044003599999999
 10
-48.07404420000001
 20
8.019645399999999
 10
-48.3538655
 20
7.987499699999999
 10
-48.6020985
 20
7.9541543
 10
-48.86386139999999
 20
7.914330199999999
 10
-49.13899910000001
 20
7.867545599999998
 10
-49.4273442
 20
7.8133222
 10
-49.7287166
 20
7.7511856
 10
-49.97906509999999
 20
7.695462700000001
 10
-50.2375237
 20
7.6341354
 10
-50.50398279999999
 20
7.5669668
 10
-50.7783281
 20
7.493721999999999
 10
-51.0604401
 20
7.414168199999999
 10
-51.35019429999999
 20
7.328074599999999
 10
-51.48697929999999
 20
7.285911
 10
-51.5220525
 20
7.0336085
 10
-51.5558893
 20
6.781137099999999
 10
-51.58848889999999
 20
6.528503099999999
 10
-51.6198506
 20
6.2757123
 10
-51.6499736
 20
6.022770999999999
 10
-51.6788571
 20
5.769685199999999
 10
-51.6813536
 20
5.747280299999999
 10
-51.44848020000001
 20
5.6053407
 10
-51.188499
 20
5.451569
 10
-50.9345192
 20
5.306153299999999
 10
-50.68672349999999
 20
5.1688924
 10
-50.4452901
 20
5.0395815
 10
-50.2103924
 20
4.9180122
 10
-49.9821996
 20
4.8039732
 10
-49.6886554
 20
4.6632632
 10
-49.4076987
 20
4.535040799999999
 10
-49.1396905
 20
4.4187789
 10
-48.88497629999999
 20
4.3139415
 10
-48.6438861
 20
4.2199839
 10
-48.3621593
 20
4.1169934
 10
-48.10278779999999
 20
4.029040799999999
 10
-47.82180649999999
 20
3.941776099999999
 10
-47.57464399999999
 20
3.8726006
 10
-47.52935739999999
 20
3.860766399999999
 10
-47.6384565
 20
2.126684899999999
 10
-47.89229579999999
 20
2.0903976
 10
-48.1721309
 20
2.042246599999999
 10
-48.4452831
 20
1.987874599999999
 10
-48.7000941
 20
1.9311326
 10
-48.97368
 20
1.8641696
 10
-49.21577639999999
 20
1.7999753
 10
-49.4704838
 20
1.7276576
 10
-49.7375883
 20
1.646758
 10
-50.01686379999999
 20
1.5568229
 10
-50.30807199999999
 20
1.457404399999999
 10
-50.5494625
 20
1.3707438
 10
-50.7981967
 20
1.277506699999999
 10
-51.0541362
 20
1.1774715
 10
-51.3171382
 20
1.070419699999999
 10
-51.5870549
 20
0.9561351999999999
 10
-51.863734
 20
0.8344046999999999
 10
-51.9941559
 20
0.7754298000000001
 10
-51.9973306
 20
0.5207208999999999
 10
-51.9992575
 20
0.2659995
 10
-51.9999367
 20
0.0112717
 10
-51.99936799999999
 20
-0.2434563
 10
-51.9975515
 20
-0.4981785
 10
-51.9944872
 20
-0.7528888000000002
 10
-51.9941559
 20
-0.7754299
 10
-51.74532909999999
 20
-0.8870635
 10
-51.46812520000001
 20
-1.0070384
 10
-51.1979227
 20
-1.119475299999999
 10
-50.9348776
 20
-1.2245968
 10
-50.6791409
 20
-1.322628499999999
 10
-50.4308589
 20
-1.413798599999999
 10
-50.1901725
 20
-1.498338299999999
 10
-49.88130739999999
 20
-1.6011478
 10
-49.5864956
 20
-1.693145999999999
 10
-49.3060292
 20
-1.7749008
 10
-49.0401839
 20
-1.846987399999999
 10
-48.7892188
 20
-1.909987499999999
 10
-48.4968053
 20
-1.9768561
 10
-48.22845570000001
 20
-2.031607399999999
 10
-47.93875279999999
 20
-2.082967599999999
 10
-47.68486929999999
 20
-2.120619899999999
 10
-47.6384565
 20
-2.126684999999999
 10
-47.52935739999999
 20
-3.860766399999999
 10
-47.77664699999999
 20
-3.9285821
 10
-48.0482406
 20
-4.011426099999999
 10
-48.31242429999999
 20
-4.0996044
 10
-48.5581144
 20
-4.1878352
 10
-48.8211503
 20
-4.2885596
 10
-49.053292
 20
-4.3825905
 10
-49.29692720000001
 20
-4.4862612
 10
-49.5517861
 20
-4.599999999999999
 10
-49.8175875
 20
-4.7242284
 10
-50.094039
 20
-4.859360999999999
 10
-50.3226646
 20
-4.9755925
 10
-50.5577517
 20
-5.099269099999999
 10
-50.79913539999999
 20
-5.2305932
 10
-51.0466464
 20
-5.3697637
 10
-51.3001111
 20
-5.516976599999999
 10
-51.5593516
 20
-5.6724244
 10
-51.6813536
 20
-5.7472804
 10
-51.65257979999999
 20
-6.0003787
 10
-51.62256639999999
 20
-6.253333099999999
 10
-51.59131439999999
 20
-6.5061374
 10
-51.55882420000001
 20
-6.758785499999999
 10
-51.5250969
 20
-7.011271499999999
 10
-51.4901331
 20
-7.263589299999999
 10
-51.48697929999999
 20
-7.285911
 10
-51.2261232
 20
-7.3654782
 10
-50.93606829999999
 20
-7.4497642
 10
-50.65390429999999
 20
-7.527449099999999
 10
-50.3797582
 20
-7.598773399999999
 10
-50.1137514
 20
-7.6639797
 10
-49.8560005
 20
-7.723313
 10
-49.6066164
 20
-7.777020099999999
 10
-49.28730139999999
 20
-7.840307899999999
 10
-48.9832838
 20
-7.894630900000001
 10
-48.6947823
 20
-7.9405892
 10
-48.4219985
 20
-7.978788099999999
 10
-48.16511629999999
 20
-8.009837199999999
 10
-47.86662779999999
 20
-8.039529400000001
 10
-47.593532
 20
-8.060215799999999
 10
-47.29967639999999
 20
-8.074861699999999
 10
-47.0430757
 20
-8.080397099999998
 10
-46.99626879999999
 20
-8.080597200000001
 10
-46.6706919
 20
-9.787331199999998
 10
-46.907532
 20
-9.885605699999999
 10
-47.1666009
 20
-10.0018362
 10
-47.4176498
 20
-10.1224301
 10
-47.6503442
 20
-10.2407583
 10
-47.89868189999999
 20
-10.3736557
 10
-48.11720789999999
 20
-10.4960401
 10
-48.3459286
 20
-10.629429
 10
-48.58452259999999
 20
-10.7742132
 10
-48.83265810000001
 20
-10.9307757
 10
-49.0899931
 20
-11.0994914
 10
-49.3022483
 20
-11.2434607
 10
-49.5199809
 20
-11.3956264
 10
-49.7430019
 20
-11.5561683
 10
-49.9711185
 20
-11.7252628
 10
-50.20413389999999
 20
-11.9030824
 10
-50.4418474
 20
-12.0897959
 10
-50.5535054
 20
-12.1793525
 10
-50.4932369
 20
-12.4268488
 10
-50.4317566
 20
-12.6740468
 10
-50.36906619999999
 20
-12.9209408
 10
-50.3051671
 20
-13.1675247
 10
-50.24006079999999
 20
-13.4137926
 10
-50.1737489
 20
-13.6597386
 10
-50.1678223
 20
-13.6814891
 10
-49.8990507
 20
-13.7277348
 10
-49.60071909999999
 20
-13.7750027
 10
-49.31104359999999
 20
-13.8167105
 10
-49.03011989999999
 20
-13.8531128
 10
-48.7580382
 20
-13.8844655
 10
-48.49488329999999
 20
-13.9110261
 10
-48.2407344
 20
-13.9330536
 10
-47.91600510000001
 20
-13.9558216
 10
-47.60757629999999
 20
-13.9716127
 10
-47.3155897
 20
-13.9810498
 10
-47.04016919999999
 20
-13.9847586
 10
-46.7814212
 20
-13.983367
 10
-46.48156489999999
 20
-13.9754146
 10
-46.2080299
 20
-13.9617099
 10
-45.9146558
 20
-13.9394104
 10
-45.6593847
 20
-13.9127415
 10
-45.6129218
 20
-13.9070736
 10
-45.0760017
 20
-15.5595439
 10
-45.2986571
 20
-15.6867274
 10
-45.54111569999999
 20
-15.8345113
 10
-45.7750705
 20
-15.9856191
 10
-45.9910997
 20
-16.1321786
 10
-46.22082269999999
 20
-16.295153
 10
-46.4222867
 20
-16.44396099999999
 10
-46.6324858
 20
-16.6049643
 10
-46.8510521
 20
-16.7785106
 10
-47.07760859999999
 20
-16.9649383
 10
-47.3117687
 20
-17.1645762
 10
-47.5043061
 20
-17.33401289999999
 10
-47.70125029999999
 20
-17.5122678
 10
-47.9023916
 20
-17.6994957
 10
-48.1075162
 20
-17.8958475
 10
-48.3164075
 20
-18.1014695
 10
-48.5288452
 20
-18.3165041
 10
-48.62839829999999
 20
-18.419349
 10
-48.5375855
 20
-18.65733999999999
 10
-48.4456079
 20
-18.8948833
 10
-48.35246779999999
 20
-19.1319732
 10
-48.2581674
 20
-19.368604
 10
-48.1627089
 20
-19.6047701
 10
-48.06609470000001
 20
-19.8404657
 10
-48.05748879999999
 20
-19.8613018
 10
-47.7850404
 20
-19.8734969
 10
-47.48313699999999
 20
-19.8830012
 10
-47.19051829999999
 20
-19.8880742
 10
-46.9072473
 20
-19.8889803
 10
-46.6333815
 20
-19.8859849
 10
-46.3689727
 20
-19.8793541
 10
-46.11406709999999
 20
-19.8693545
 10
-45.78904489999999
 20
-19.8512436
 10
-45.48106899999999
 20
-19.8282538
 10
-45.19020199999999
 20
-19.8010209
 10
-44.91648839999999
 20
-19.7701812
 10
-44.6599551
 20
-19.7363708
 10
-44.36345999999999
 20
-19.6908991
 10
-44.0937995
 20
-19.6430194
 10
-43.8055336
 20
-19.5841262
 10
-43.555618
 20
-19.5256737
 10
-43.5102318
 20
-19.5142272
 10
-42.77043599999999
 20
-21.0863733
 10
-42.97539539999999
 20
-21.24046
 10
-43.19741989999999
 20
-21.4174667
 10
-43.4105911
 20
-21.5967054
 10
-43.60654799999999
 20
-21.7691848
 10
-43.8140335
 20
-21.959666
 10
-43.99525829999999
 20
-22.1325507
 10
-44.1836208
 20
-22.3186295
 10
-44.3787126
 20
-22.5182009
 10
-44.580117
 20
-22.7315536
 10
-44.78740949999999
 20
-22.9589653
 10
-44.95719249999999
 20
-23.1511973
 10
-45.1302426
 20
-23.3527303
 10
-45.30633189999999
 20
-23.5636915
 10
-45.4852297
 20
-23.7842039
 10
-45.6667025
 20
-24.01438560000001
 10
-45.8505141
 20
-24.25435
 10
-45.93639229999999
 20
-24.3688613
 10
-45.8164674
 20
-24.5935938
 10
-45.69544299999999
 20
-24.8177362
 10
-45.5733221
 20
-25.0412831
 10
-45.4501075
 20
-25.264229
 10
-45.32580229999999
 20
-25.4865687
 10
-45.2004095
 20
-25.7082967
 10
-45.18925999999999
 20
-25.72789
 10
-44.91743139999999
 20
-25.7058421
 10
-44.61671749999999
 20
-25.6774329
 10
-44.3257703
 20
-25.645791
 10
-44.0446195
 20
-25.6111867
 10
-43.7732886
 20
-25.5738905
 10
-43.5117958
 20
-25.5341727
 10
-43.26015349999999
 20
-25.4923039
 10
-42.939964
 20
-25.4335997
 10
-42.637298
 20
-25.37219160000001
 10
-42.3521377
 20
-25.3087181
 10
-42.08444779999999
 20
-25.24381610000001
 10
-41.8341749
 20
-25.1781202
 10
-41.54571679999999
 20
-25.0958464
 10
-41.2841836
 20
-25.0145468
 10
-41.00557199999999
 20
-24.9199887
 10
-40.7649531
 20
-24.8306744
 10
-40.72135939999999
 20
-24.8136297
 10
-39.790355
 20
-26.2806579
 10
-39.97438610000001
 20
-26.4592179
 10
-40.1724749
 20
-26.6626559
 10
-40.3615007
 20
-26.8671986
 10
-40.534295
 20
-27.062878
 10
-40.71627079999999
 20
-27.277862
 10
-40.8743984
 20
-27.4720969
 10
-41.0379538
 20
-27.6803165
 10
-41.20649429999999
 20
-27.9027657
 10
-41.37957039999999
 20
-28.1396787
 10
-41.55672599999999
 20
-28.3912779
 10
-41.7010772
 20
-28.6032735
 10
-41.847504
 20
-28.8249062
 10
-41.99576429999999
 20
-29.0562739
 10
-42.14561389999999
 20
-29.2974693
 10
-42.29680629999999
 20
-29.5485805
 10
-42.44909299999999
 20
-29.8096904
 10
-42.519942
 20
-29.93406210000001
 10
-42.3727962
 20
-30.141992
 10
-42.2246336
 20
-30.3491986
 10
-42.07545779999999
 20
-30.5556769
 10
-41.9252723
 20
-30.7614219
 10
-41.77408079999999
 20
-30.9664288
 10
-41.62188679999999
 20
-31.1706926
 10
-41.6083695
 20
-31.188734
 10
-41.3414477
 20
-31.1327908
 10
-41.0466656
 20
-31.0669161
 10
-40.76197849999999
 20
-30.9990584
 10
-40.4873816
 20
-30.9294895
 10
-40.22286479999999
 20
-30.8584805
 10
-39.9684119
 20
-30.7863022
 10
-39.7240014
 20
-30.7132244
 10
-39.4136943
 20
-30.6148527
 10
-39.1211114
 20
-30.5159947
 10
-38.846155
 20
-30.4172817
 10
-38.5887102
 20
-30.319341
 10
-38.3486447
 20
-30.2227956
 10
-38.0727728
 20
-30.10501710000001
 10
-37.8234914
 20
-29.9915799
 10
-37.55892810000001
 20
-29.86284810000001
 10
-37.3314005
 20
-29.7440805
 10
-37.2902869
 20
-29.7217065
 10
-36.18275629999999
 20
-31.060481
 10
-36.3429568
 20
-31.2606982
 10
-36.51398610000001
 20
-31.4873591
 10
-36.6758853
 20
-31.71398010000001
 10
-36.822792
 20
-31.9297734
 10
-36.9763882
 20
-32.1658697
 10
-37.1089248
 20
-32.3783918
 10
-37.24509370000001
 20
-32.6054684
 10
-37.3844249
 20
-32.84728730000001
 10
-37.5264432
 20
-33.1040243
 10
-37.67066810000001
 20
-33.375843
 10
-37.787311
 20
-33.60425900000001
 10
-37.90480520000001
 20
-33.84249620000001
 10
-38.0228984
 20
-34.0906214
 10
-38.1413365
 20
-34.3486961
 10
-38.2598642
 20
-34.6167766
 10
-38.3782243
 20
-34.8949142
 10
-38.4329267
 20
-35.0271849
 10
-38.2608807
 20
-35.215033
 10
-38.0879166
 20
-35.402036
 10
-37.9140385
 20
-35.5881894
 10
-37.7392506
 20
-35.7734889
 10
-37.563557
 20
-35.9579299
 10
-37.3869621
 20
-36.1415081
 10
-37.3712902
 20
-36.157713
 10
-37.1134847
 20
-36.0687568
 10
-36.8292834
 20
-35.9664555
 10
-36.5553459
 20
-35.8634522
 10
-36.29163360000001
 20
-35.76001570000001
 10
-36.0381023
 20
-35.6564139
 10
-35.79470220000001
 20
-35.5529133
 10
-35.56137800000001
 20
-35.4497789
 10
-35.2658471
 20
-35.3132912
 10
-34.9879614
 20
-35.1785424
 10
-34.7275452
 20
-35.0461466
 10
-34.48440570000001
 20
-34.91671179999999
 10
-34.2583335
 20
-34.79083950000001
 10
-33.9993985
 20
-34.6394138
 10
-33.7663002
 20
-34.4956278
 10
-33.5199574
 20
-34.3347525
 10
-33.3091095
 20
-34.1884047
 10
-33.2711242
 20
-34.1610542
 10
-32.0045339
 20
-35.3504616
 10
-32.1383773
 20
-35.5691785
 10
-32.2796499
 20
-35.8154878
 10
-32.4118693
 20
-36.06061320000001
 10
-32.5305715
 20
-36.2931171
 10
-32.6533658
 20
-36.54660250000001
 10
-32.7582213
 20
-36.77406
 10
-32.8648562
 20
-37.0164125
 10
-32.9727808
 20
-37.27378740000001
 10
-33.0815015
 20
-37.54629960000001
 10
-33.1905213
 20
-37.83405120000001
 10
-33.2776163
 20
-38.0752853
 10
-33.364325
 20
-38.3263698
 10
-33.4503886
 20
-38.5873395
 10
-33.5355476
 20
-38.8582234
 10
-33.6195412
 20
-39.1390455
 10
-33.70210810000001
 20
-39.42982429999999
 10
-33.7398013
 20
-39.56790810000001
 10
-33.5455683
 20
-39.7327118
 10
-33.3505303
 20
-39.89656210000001
 10
-33.15469210000001
 20
-40.059455
 10
-32.9580583
 20
-40.2213865
 10
-32.76063350000001
 20
-40.382353
 10
-32.5624227
 20
-40.5423503
 10
-32.5448433
 20
-40.5564633
 10
-32.3002199
 20
-40.4358969
 10
-32.0310813
 20
-40.2987825
 10
-31.7722136
 20
-40.1622578
 10
-31.5235448
 20
-40.02658499999999
 10
-31.2849975
 20
-39.8920243
 10
-31.0564887
 20
-39.7588338
 10
-30.8379305
 20
-39.6272693
 10
-30.5618364
 20
-39.45481799999999
 10
-30.3030304
 20
-39.2863034
 10
-30.0612613
 20
-39.1223128
 10
-29.8362614
 20
-38.96342520000001
 10
-29.6277479
 20
-38.810211
 10
-29.3898333
 20
-38.62752620000001
 10
-29.1765943
 20
-38.4556591
 10
-28.952357
 20
-38.2651774
 10
-28.7615139
 20
-38.0935573
 10
-28.7272561
 20
-38.0616616
 10
-27.321581
 20
-39.0829444
 10
-27.4269564
 20
-39.31671170000001
 10
-27.5362443
 20
-39.5787849
 10
-27.6366988
 20
-39.8385489
 10
-27.7253245
 20
-40.08409679999999
 10
-27.8153804
 20
-40.3509736
 10
-27.8909011
 20
-40.5897794
 10
-27.9663203
 20
-40.84358579999999
 10
-28.0411363
 20
-41.1124577
 10
-28.1148449
 20
-41.3964474
 10
-28.1869402
 20
-41.6955937
 10
-28.24311380000001
 20
-41.94584149999999
 10
-28.2976695
 20
-42.2058137
 10
-28.3503463
 20
-42.4755121
 10
-28.400883
 20
-42.75493329999999
 10
-28.4490179
 20
-43.0440682
 10
-28.4944895
 20
-43.3429026
 10
-28.514579
 20
-43.4846217
 10
-28.3012222
 20
-43.6237821
 10
-28.0871863
 20
-43.7618956
 10
-27.8724764
 20
-43.898959
 10
-27.6570977
 20
-44.0349689
 10
-27.44105530000001
 20
-44.1699222
 10
-27.2243544
 20
-44.3038155
 10
-27.2051448
 20
-44.31561389999999
 10
-26.9775613
 20
-44.1653388
 10
-26.7277299
 20
-43.9955735
 10
-26.4880146
 20
-43.8276807
 10
-26.2583109
 20
-43.66191129999999
 10
-26.0385095
 20
-43.4985137
 10
-25.8284958
 20
-43.3377336
 10
-25.6281504
 20
-43.17981399999999
 10
-25.3758472
 20
-42.9741187
 10
-25.14020260000001
 20
-42.77449589999999
 10
-24.92089330000001
 20
-42.5814967
 10
-24.7175815
 20
-42.395662
 10
-24.529915
 20
-42.21752239999999
 10
-24.316773
 20
-42.0064595
 10
-24.126756
 20
-41.8092216
 10
-23.9281606
 20
-41.5921376
 10
-23.76033210000001
 20
-41.3979518
 10
-23.730342
 20
-41.362014
 10
-22.2077503
 20
-42.19906579999999
 10
-22.2829961
 20
-42.4441968
 10
-22.3585757
 20
-42.71790089999999
 10
-22.425681
 20
-42.98820689999999
 10
-22.4828326
 20
-43.2429263
 10
-22.5387298
 20
-43.5189857
 10
-22.5837247
 20
-43.7653737
 10
-22.6267389
 20
-44.0266312
 10
-22.6672663
 20
-44.30276
 10
-22.7048003
 20
-44.59374849999999
 10
-22.7388342
 20
-44.8995719
 10
-22.7632004
 20
-45.15488679999999
 10
-22.7847428
 20
-45.4196467
 10
-22.8032021
 20
-45.6938206
 10
-22.8183195
 20
-45.97737239999999
 10
-22.8298367
 20
-46.27026029999999
 10
-22.8374958
 20
-46.5724373
 10
-22.8396648
 20
-46.71555689999999
 10
-22.610549
 20
-46.8268792
 10
-22.3808906
 20
-46.93707779999999
 10
-22.1506952
 20
-47.04615020000001
 10
-21.9199682
 20
-47.1540935
 10
-21.6887152
 20
-47.26090529999999
 10
-21.4569418
 20
-47.3665831
 10
-21.436405
 20
-47.3758808
 10
-21.2294505
 20
-47.1982669
 10
-21.0028663
 20
-46.9985281
 10
-20.7860837
 20
-46.8019149
 10
-20.5789678
 20
-46.6086631
 10
-20.3813787
 20
-46.41900549999999
 10
-20.1931721
 20
-46.2331715
 10
-20.0141991
 20
-46.05138729999999
 10
-19.78966579999999
 20
-45.81569199999999
 10
-19.5808987
 20
-45.5881091
 10
-19.3875079
 20
-45.369145
 10
-19.2090906
 20
-45.159294
 10
-19.0452307
 20
-44.9590382
 10
-18.8602225
 20
-44.7229258
 10
-18.69642439999999
 20
-44.5034277
 10
-18.5266028
 20
-44.2631649
 10
-18.3844356
 20
-44.04947579999999
 10
-18.3591862
 20
-44.01006259999999
 10
-16.7436902
 20
-44.6496827
 10
-16.7876196
 20
-44.9023116
 10
-16.82829899999999
 20
-45.1833301
 10
-16.8609969
 20
-45.4599152
 10
-16.885773
 20
-45.719789
 10
-16.90663
 20
-46.0006774
 10
-16.9203895
 20
-46.2507619
 10
-16.9303202
 20
-46.51535039999999
 10
-16.9359199
 20
-46.7943813
 10
-16.9366875
 20
-47.08777949999999
 10
-16.9321231
 20
-47.39545699999999
 10
-16.9242978
 20
-47.6518126
 10
-16.9124871
 20
-47.9171847
 10
-16.89643769999999
 20
-48.1915102
 10
-16.8758975
 20
-48.4747208
 10
-16.8506153
 20
-48.7667427
 10
-16.8203412
 20
-49.06749699999999
 10
-16.8045554
 20
-49.2097598
 10
-16.5632938
 20
-49.2914885
 10
-16.3216348
 20
-49.3720344
 10
-16.0795842
 20
-49.4513955
 10
-15.8371477
 20
-49.5295699
 10
-15.5943311
 20
-49.6065558
 10
-15.3511403
 20
-49.6823513
 10
-15.3296002
 20
-49.6890018
 10
-15.1465385
 20
-49.4868501
 10
-14.9467749
 20
-49.26028779999999
 10
-14.7563439
 20
-49.03805489999999
 10
-14.575082
 20
-48.8203684
 10
-14.4028214
 20
-48.6074419
 10
-14.23939
 20
-48.3994847
 10
-14.0846119
 20
-48.1967026
 10
-13.8913896
 20
-47.9347243
 10
-13.7127923
 20
-47.68277059999999
 10
-13.54837
 20
-47.44129479999999
 10
-13.3976609
 20
-47.21073689999999
 10
-13.2601917
 20
-46.9915231
 10
-13.1062351
 20
-46.73408489999999
 10
-12.971239
 20
-46.49578829999999
 10
-12.8328694
 20
-46.2361356
 10
-12.7186056
 20
-46.00631329999999
 10
-12.6984951
 20
-45.9640463
 10
-11.0155721
 20
-46.39614749999999
 10
-11.0274923
 20
-46.6522901
 10
-11.03263
 20
-46.9361911
 10
-11.0304047
 20
-47.2146934
 10
-11.0224146
 20
-47.47562339999999
 10
-11.0079026
 20
-47.7569109
 10
-10.9902096
 20
-48.0067479
 10
-10.9669003
 20
-48.27049479999999
 10
-10.937484
 20
-48.54802720000001
 10
-10.901473
 20
-48.8392081
 10
-10.8583824
 20
-49.1438874
 10
-10.8184889
 20
-49.3972408
 10
-10.7735114
 20
-49.6590401
 10
-10.7232064
 20
-49.92919099999999
 10
-10.6673325
 20
-50.207594
 10
-10.6056496
 20
-50.4941445
 10
-10.5379197
 20
-50.78873279999999
 10
-10.5044281
 20
-50.9278954
 10
-10.2548257
 20
-50.97874159999999
 10
-10.0049772
 20
-51.02836439999999
 10
-9.754888599999999
 20
-51.0767627
 10
-9.504565899999999
 20
-51.1239354
 10
-9.2540151
 20
-51.16988120000001
 10
-9.0032423
 20
-51.2145992
 10
-8.9810384
 20
-51.21849749999999
 10
-8.824756599999998
 20
-50.9949962
 10
-8.654963999999999
 20
-50.7451834
 10
-8.493887800000001
 20
-50.5008355
 10
-8.341338499999999
 20
-50.2621474
 10
-8.197122999999999
 20
-50.0293099
 10
-8.0610443
 20
-49.8025091
 10
-7.9329019
 20
-49.5819272
 10
-7.774037799999999
 20
-49.29779749999999
 10
-7.628427
 20
-49.0254463
 10
-7.495566099999999
 20
-48.7652671
 10
-7.374941999999999
 20
-48.51763829999999
 10
-7.266031599999998
 20
-48.2829236
 10
-7.1455546
 20
-48.0082195
 10
-7.041489399999999
 20
-47.7548824
 10
-6.936753999999999
 20
-47.47993489999999
 10
-6.852195599999999
 20
-47.23760369999999
 10
-6.837541099999999
 20
-47.1931495
 10
-5.1137318
 20
-47.41091729999999
 10
-5.093454799999999
 20
-47.66653409999999
 10
-5.062969799999999
 20
-47.94884039999999
 10
-5.0258565
 20
-48.22486770000001
 10
-4.9852262
 20
-48.4827388
 10
-4.9355739
 20
-48.75998939999999
 10
-4.886707599999999
 20
-49.00563889999999
 10
-4.8305258
 20
-49.26438459999999
 10
-4.766557499999999
 20
-49.53604179999999
 10
-4.6943358
 20
-49.8204132
 10
-4.613398499999999
 20
-50.1172893
 10
-4.542066
 20
-50.363645
 10
-4.464630999999999
 20
-50.6177427
 10
-4.3808638
 20
-50.8794585
 10
-4.290537299999999
 20
-51.14866339999999
 10
-4.1934265
 20
-51.4252234
 10
-4.089308899999999
 20
-51.7090001
 10
-4.0386398
 20
-51.84286769999999
 10
-3.7846328
 20
-51.8620294
 10
-3.530534999999999
 20
-51.87994660000001
 10
-3.2763525
 20
-51.89661889999999
 10
-3.022091399999999
 20
-51.9120458
 10
-2.767757799999999
 20
-51.9262271
 10
-2.5133577
 20
-51.93916220000001
 10
-2.490840299999999
 20
-51.94024699999999
 10
-2.363802999999999
 20
-51.6989207
 10
-2.2266591
 20
-51.4297971
 10
-2.097477899999999
 20
-51.16718770000001
 10
-1.9760471
 20
-50.9112623
 10
-1.862150999999999
 20
-50.6621857
 10
-1.755570999999999
 20
-50.4201182
 10
-1.656085299999999
 20
-50.1852151
 10
-1.534084899999999
 20
-49.88341489999999
 10
-1.423756899999999
 20
-49.59496149999999
 10
-1.324552799999999
 20
-49.32018189999999
 10
-1.235915899999999
 20
-49.0593876
 10
-1.1572818
 20
-48.8128735
 10
-1.072184399999999
 20
-48.52523579999999
 10
-1.000691299999999
 20
-48.26085349999999
 10
-0.9312419
 20
-47.97494729999999
 10
-0.8777222999999999
 20
-47.72392899999999
 10
-0.8687549999999999
 20
-47.6779886
 10
0.8687549999999999
 20
-47.6779886
 10
0.9209094
 20
-47.9290484
 10
0.9865364999999998
 20
-48.20530789999999
 10
1.0579525
 20
-48.4745071
 10
1.1305822
 20
-48.72525239999999
 10
1.214591699999999
 20
-48.99409379999999
 10
1.293860699999999
 20
-49.2316817
 10
1.382029
 20
-49.48134559999999
 10
1.479540599999999
 20
-49.74284329999999
 10
1.586834
 20
-50.0159206
 10
1.7043415
 20
-50.3003117
 10
1.805988
 20
-50.53578439999999
 10
1.914659399999999
 20
-50.77817329999999
 10
2.030567699999999
 20
-51.0273266
 10
2.153922299999999
 20
-51.2830878
 10
2.284929499999999
 20
-51.5452959
 10
2.4237927
 20
-51.8137855
 10
2.490840399999999
 20
-51.94024699999999
 10
2.745245999999999
 20
-51.9274221
 10
2.999585799999999
 20
-51.9133511
 10
3.253853599999999
 20
-51.8980344
 10
3.508043299999999
 20
-51.8814723
 10
3.762148799999999
 20
-51.8636653
 10
4.016163999999999
 20
-51.84461370000001
 10
4.0386398
 20
-51.84286769999999
 10
4.1344292
 20
-51.5875223
 10
4.236761599999999
 20
-51.30333209999999
 10
4.3320104
 20
-51.0266029
 10
4.4204077
 20
-50.75747620000001
 10
4.502188099999999
 20
-50.4960887
 10
4.577588599999999
 20
-50.2425719
 10
4.6468487
 20
-49.9970522
 10
4.730061599999999
 20
-49.6823411
 10
4.8033668
 20
-49.3823344
 10
4.867349599999999
 20
-49.09728799999999
 10
4.9226014
 20
-48.827441
 10
4.9697189
 20
-48.5730153
 10
5.0180948
 20
-48.2769801
 10
5.0558882
 20
-48.0057222
 10
5.0889565
 20
-47.713366
 10
5.110593099999999
 20
-47.45761929999999
 10
5.1137319
 20
-47.41091729999999
 10
6.837541099999999
 20
-47.1931495
 10
6.9207504
 20
-47.43569299999999
 10
7.020484399999999
 20
-47.70154879999999
 10
7.125077
 20
-47.9596745
 10
7.2285607
 20
-48.19933970000001
 10
7.345602499999999
 20
-48.455532
 10
7.454024099999999
 20
-48.6813114
 10
7.5727883
 20
-48.91795629999999
 10
7.702305299999999
 20
-49.1651706
 10
7.842978399999999
 20
-49.42264709999999
 10
7.9952029
 20
-49.6900681
 10
8.125560499999998
 20
-49.9109443
 10
8.263754400000001
 20
-50.1378018
 10
8.4099759
 20
-50.37046329999999
 10
8.5644132
 20
-50.6087473
 10
8.7272508
 20
-50.8524682
 10
8.898669599999999
 20
-51.1014365
 10
8.981038499999998
 20
-51.21849749999999
 10
9.2318306
 20
-51.17388829999999
 10
9.482401300000001
 20
-51.1280511
 10
9.732744399999999
 20
-51.0809869
 10
9.982853999999999
 20
-51.032697
 10
10.232724
 20
-50.9831825
 10
10.4823484
 20
-50.9324446
 10
10.5044281
 20
-50.9278954
 10
10.567459
 20
-50.66255789999999
 10
10.6333659
 20
-50.367783
 10
10.6931803
 20
-50.08129799999999
 10
10.7471501
 20
-49.8032143
 10
10.7955251
 20
-49.53363809999999
 10
10.838557
 20
-49.27267020000001
 10
10.8764991
 20
-49.020406
 10
10.9196121
 20
-48.6977471
 10
10.9547385
 20
-48.39091849999999
 10
10.982491
 20
-48.10010059999999
 10
11.0034863
 20
-47.8254565
 10
11.0183443
 20
-47.56713159999999
 10
11.0292357
 20
-47.2673677
 10
11.0327334
 20
-46.9935119
 10
11.028899
 20
-46.69931649999999
 10
11.0183114
 20
-46.4428746
 10
11.0155721
 20
-46.39614749999999
 10
12.6984951
 20
-45.9640463
 10
12.811447
 20
-46.19424839999999
 10
12.9437152
 20
-46.44550789999999
 10
13.0798347
 20
-46.68848920000001
 10
13.2125404
 20
-46.9132946
 10
13.3607687
 20
-47.15279749999999
 10
13.4966331
 20
-47.36320779999999
 10
13.6441202
 20
-47.58310149999999
 10
13.8036002
 20
-47.8121337
 10
13.9754343
 20
-48.049949
 10
14.1599753
 20
-48.2961824
 10
14.3169881
 20
-48.4989788
 10
14.482525
 20
-48.7067272
 10
14.6567538
 20
-48.9192277
 10
14.8398382
 20
-49.1362766
 10
15.0319381
 20
-49.3576668
 10
15.2332092
 20
-49.5831874
 10
15.3296002
 20
-49.6890018
 10
15.5728238
 20
-49.61331170000001
 10
15.8156737
 20
-49.5364311
 10
16.0581441
 20
-49.4583618
 10
16.3002291
 20
-49.3791056
 10
16.541923
 20
-49.2986645
 10
16.78322
 20
-49.21704039999999
 10
16.8045554
 20
-49.2097598
 10
16.8338336
 20
-48.9386147
 10
16.8622758
 20
-48.6379039
 10
16.8857124
 20
-48.3461811
 10
16.9044035
 20
-48.063526
 10
16.9186102
 20
-47.7900125
 10
16.9285948
 20
-47.5257091
 10
16.9346207
 20
-47.2706786
 10
16.9369538
 20
-46.9451606
 10
16.9333474
 20
-46.63634879999999
 10
16.9244319
 20
-46.34434579999999
 10
16.9108396
 20
-46.069236
 10
16.8932038
 20
-45.8110859
 10
16.8664389
 20
-45.5123206
 10
16.8355858
 20
-45.24018579999999
 10
16.7949092
 20
-44.9487909
 10
16.7522644
 20
-44.6956981
 10
16.7436903
 20
-44.6496827
 10
18.3591862
 20
-44.01006259999999
 10
18.50009939999999
 20
-44.22429279999999
 10
18.6628158
 20
-44.4569935
 10
18.8283156
 20
-44.6809986
 10
18.9881505
 20
-44.8873989
 10
19.1652277
 20
-45.10643529999999
 10
19.3263921
 20
-45.2981581
 10
19.5002762
 20
-45.49783289999999
 10
19.687204
 20
-45.70507089999999
 10
19.8874893
 20
-45.9194744
 10
20.1014364
 20
-46.1406371
 10
20.2826282
 20
-46.3221555
 10
20.4728976
 20
-46.5075184
 10
20.6723859
 20
-46.6965066
 10
20.88123
 20
-46.8888975
 10
21.0995627
 20
-47.08446539999999
 10
21.327512
 20
-47.28298179999999
 10
21.436405
 20
-47.3758808
 10
21.6682242
 20
-47.2703036
 10
21.8995235
 20
-47.163592
 10
22.1302972
 20
-47.0557487
 10
22.3605399
 20
-46.9467762
 10
22.5902461
 20
-46.8366771
 10
22.8194101
 20
-46.7254541
 10
22.8396648
 20
-46.71555689999999
 10
22.8347286
 20
-46.4428803
 10
22.8252575
 20
-46.14097589999999
 10
22.8119468
 20
-45.84861609999999
 10
22.7950644
 20
-45.5658472
 10
22.7748787
 20
-45.29270989999999
 10
22.7516586
 20
-45.0292392
 10
22.7256731
 20
-44.7754644
 10
22.6871896
 20
-44.45222079999999
 10
22.6449073
 20
-44.1462961
 10
22.5994644
 20
-43.857713
 10
22.5514989
 20
-43.5864761
 10
22.5016474
 20
-43.3325719
 10
22.4376483
 20
-43.03951699999999
 10
22.372931
 20
-42.7733951
 10
22.2960536
 20
-42.48939589999999
 10
22.2220242
 20
-42.2436437
 10
22.2077504
 20
-42.19906579999999
 10
23.730342
 20
-41.362014
 10
23.8969942
 20
-41.5568938
 10
24.0875927
 20
-41.7673657
 10
24.2798628
 20
-41.96886189999999
 10
24.4643061
 20
-42.153602
 10
24.6674395
 20
-42.34871759999999
 10
24.8513623
 20
-42.5187293
 10
25.0489013
 20
-42.6950362
 10
25.2603288
 20
-42.8772118
 10
25.4859067
 20
-43.0648223
 10
25.7258858
 20
-43.2574264
 10
25.9283992
 20
-43.4148041
 10
26.1404004
 20
-43.57485829999999
 10
26.3620021
 20
-43.7373537
 10
26.5933124
 20
-43.90205239999999
 10
26.8344347
 20
-44.0687139
 10
27.08546720000001
 20
-44.2370953
 10
27.2051449
 20
-44.31561389999999
 10
27.4219038
 20
-44.1818145
 10
27.6380047
 20
-44.0469549
 10
27.8534424
 20
-43.91103829999999
 10
28.0682117
 20
-43.7740681
 10
28.2823074
 20
-43.6360473
 10
28.4957245
 20
-43.4969795
 10
28.514579
 20
-43.4846217
 10
28.4755064
 20
-43.2147139
 10
28.4282712
 20
-42.9163772
 10
28.3784231
 20
-42.62799099999999
 10
28.3262335
 20
-42.3495677
 10
28.2719738
 20
-42.08111409999999
 10
28.2159151
 20
-41.8226312
 10
28.1583281
 20
-41.57411439999999
 10
28.0796349
 20
-41.25824289999999
 10
27.9993434
 20
-40.9600299
 10
27.9180899
 20
-40.67941789999999
 10
27.8365076
 20
-40.4163314
 10
27.7552265
 20
-40.17067739999999
 10
27.6550026
 20
-39.8879546
 10
27.5574417
 20
-39.6320423
 10
27.445576
 20
-39.3599179
 10
27.3413293
 20
-39.1253818
 10
27.321581
 20
-39.0829444
 10
28.7272561
 20
-38.0616616
 10
28.9170192
 20
-38.23411770000001
 10
29.1324938
 20
-38.4190417
 10
29.34850200000001
 20
-38.5948511
 10
29.554645
 20
-38.75501770000001
 10
29.7806311
 20
-38.9231354
 10
29.98441169999999
 20
-39.0687549
 10
30.20249010000001
 20
-39.2189133
 10
30.4350832
 20
-39.3731535
 10
30.6823962
 20
-39.5310122
 10
30.9446226
 20
-39.6920202
 10
31.16526380000001
 20
-39.8227753
 10
31.3956534
 20
-39.9549966
 10
31.6358738
 20
-40.0884367
 10
31.8860024
 20
-40.22284579999999
 10
32.1461116
 20
-40.35797249999999
 10
32.4162684
 20
-40.4935634
 10
32.5448434
 20
-40.5564632
 10
32.74312360000001
 20
-40.39655179999999
 10
32.9406181
 20
-40.235671
 10
33.1373221
 20
-40.0738247
 10
33.3332309
 20
-39.91101670000001
 10
33.5283399
 20
-39.747251
 10
33.7226443
 20
-39.5825315
 10
33.7398013
 20
-39.56790810000001
 10
33.6672083
 20
-39.3050257
 10
33.5829541
 20
-39.01496160000001
 10
33.49735470000001
 20
-38.73509699999999
 10
33.4106809
 20
-38.4654103
 10
33.3232029
 20
-38.2058741
 10
33.2351898
 20
-37.95645540000001
 10
33.1469095
 20
-37.7171158
 10
33.02924760000001
 20
-37.4135979
 10
32.91221330000001
 20
-37.12779960000001
 10
32.7964304
 20
-36.8595841
 10
32.6825179
 20
-36.60879710000001
 10
32.5710892
 20
-36.3752674
 10
32.436221
 20
-36.1073352
 10
32.307355
 20
-35.8656685
 10
32.1622652
 20
-35.6097104
 10
32.0294454
 20
-35.3900893
 10
32.004534
 20
-35.3504616
 10
33.27112430000001
 20
-34.1610542
 10
33.4810054
 20
-34.3083667
 10
33.7179581
 20
-34.4648264
 10
33.9542977
 20
-34.6121766
 10
34.1788895
 20
-34.7452436
 10
34.4241644
 20
-34.883712
 10
34.6445891
 20
-35.0026428
 10
34.8797677
 20
-35.12428470000001
 10
35.1298581
 20
-35.248157
 10
35.3950059
 20
-35.3737744
 10
35.67534420000001
 20
-35.5006471
 10
35.91063360000001
 20
-35.6027175
 10
36.1557782
 20
-35.7050208
 10
36.4108289
 20
-35.807301
 10
36.6758311
 20
-35.9093009
 10
36.9508251
 20
-36.01076170000001
 10
37.23584570000001
 20
-36.1114238
 10
37.3712902
 20
-36.157713
 10
37.54796470000001
 20
-35.9742114
 10
37.72373820000001
 20
-35.78984660000001
 10
37.8986064
 20
-35.6046229
 10
38.0725652
 20
-35.4185448
 10
38.2456104
 20
-35.2316168
 10
38.4177378
 20
-35.0438434
 10
38.4329267
 20
-35.0271849
 10
38.3279583
 20
-34.77547379999999
 10
38.2080138
 20
-34.49825670000001
 10
38.08801300000001
 20
-34.2313275
 10
37.968222
 20
-33.9746304
 10
37.8489053
 20
-33.7281046
 10
37.7303257
 20
-33.4916836
 10
37.6127443
 20
-33.2652957
 10
37.4579693
 20
-32.9789181
 10
37.3060378
 20
-32.71004170000001
 10
37.1575516
 20
-32.4584526
 10
37.0131054
 20
-32.2239201
 10
36.8732863
 20
-32.0061976
 10
36.7059007
 20
-31.7572816
 10
36.54776210000001
 20
-31.5336717
 10
36.37173629999999
 20
-31.2979165
 10
36.212438
 20
-31.0966739
 10
36.18275629999999
 20
-31.0604809
 10
37.2902869
 20
-29.7217065
 10
37.5169763
 20
-29.8415524
 10
37.7716701
 20
-29.9670803
 10
38.024614
 20
-30.0836473
 10
38.26411250000001
 20
-30.1875162
 10
38.524808
 20
-30.2941517
 10
38.7584006
 20
-30.38451810000001
 10
39.0069705
 20
-30.4757251
 10
39.27061420000001
 20
-30.5672761
 10
39.5494152
 20
-30.6586711
 10
39.8434444
 20
-30.7494077
 10
40.0896712
 20
-30.8211836
 10
40.34570479999999
 20
-30.8919554
 10
40.61156339999999
 20
-30.96146280000001
 10
40.88726
 20
-31.02944480000001
 10
41.172802
 20
-31.0956397
 10
41.46819149999999
 20
-31.1597855
 10
41.6083695
 20
-31.188734
 10
41.760652
 20
-30.9845362
 10
41.9119325
 20
-30.7795948
 10
42.0622071
 20
-30.5739149
 10
42.21147239999999
 20
-30.36750130000001
 10
42.3597248
 20
-30.160359
 10
42.5069607
 20
-29.9524929
 10
42.519942
 20
-29.93406210000001
 10
42.38425349999999
 20
-29.6974918
 10
42.23051029999999
 20
-29.4374938
 10
42.0780006
 20
-29.1877094
 10
41.9269815
 20
-28.9480503
 10
41.77770779999999
 20
-28.7184227
 10
41.63043179999999
 20
-28.498728
 10
41.4854037
 20
-28.2888621
 10
41.2959565
 20
-28.024141
 10
41.11152389999999
 20
-27.7764269
 10
40.93267599999999
 20
-27.5454319
 10
40.7599741
 20
-27.3308527
 10
40.59396959999999
 20
-27.13237100000001
 10
40.3967066
 20
-26.9063968
 10
40.21178909999999
 20
-26.7043701
 10
40.0076034
 20
-26.4925357
 10
39.8243388
 20
-26.3128454
 10
39.790355
 20
-26.2806579
 10
40.72135939999999
 20
-24.8136297
 10
40.961282
 20
-24.9041189
 10
41.2297003
 20
-24.9967353
 10
41.4952593
 20
-25.0806809
 10
41.7458875
 20
-25.1537137
 10
42.0178924
 20
-25.2268345
 10
42.26096889999999
 20
-25.2872114
 10
42.5190101
 20
-25.3465452
 10
42.7920492
 20
-25.4043309
 10
43.0801067
 20
-25.4600622
 10
43.3831896
 20
-25.5132317
 10
43.63647079999999
 20
-25.5535812
 10
43.89935549999999
 20
-25.5917055
 10
44.1718294
 20
-25.6273439
 10
44.4538724
 20
-25.6602358
 10
44.74545919999999
 20
-25.6901209
 10
45.0465591
 20
-25.7167388
 10
45.18925999999999
 20
-25.72789
 10
45.3147489
 20
-25.5062163
 10
45.4391505
 20
-25.2839305
 10
45.5624617
 20
-25.061038
 10
45.6846795
 20
-24.8375442
 10
45.805801
 20
-24.6134543
 10
45.92582339999999
 20
-24.3887737
 10
45.93639229999999
 20
-24.3688613
 10
45.7721237
 20
-24.1511627
 10
45.5870064
 20
-23.9124839
 10
45.404393
 20
-23.6837837
 10
45.2245275
 20
-23.4649421
 10
45.0476508
 20
-23.2558342
 10
44.8740012
 20
-23.0563304
 10
44.70381339999999
 20
-22.8662961
 10
44.48268179999999
 20
-22.6274066
 10
44.26865659999999
 20
-22.4047613
 10
44.06226769999999
 20
-22.1980033
 10
43.8640337
 20
-22.0067614
 10
43.67446179999999
 20
-21.8306506
 10
43.45043219999999
 20
-21.6311819
 10
43.2416522
 20
-21.4539246
 10
43.0125266
 20
-21.2693519
 10
42.80818599999999
 20
-21.1140476
 10
42.77043599999999
 20
-21.0863732
 10
43.5102318
 20
-19.5142271
 10
43.75960379999999
 20
-19.5739325
 10
44.03751339999999
 20
-19.632177
 10
44.3114997
 20
-19.6821772
 10
44.569305
 20
-19.7232221
 10
44.8483295
 20
-19.7616751
 10
45.09705649999999
 20
-19.7911103
 10
45.3604994
 20
-19.8176351
 10
45.63862809999999
 20
-19.8407443
 10
45.9313991
 20
-19.8599329
 10
46.23875609999999
 20
-19.8746968
 10
46.4950971
 20
-19.8829836
 10
46.7606872
 20
-19.8878591
 10
47.0354792
 20
-19.88906639999999
 10
47.3194207
 20
-19.8863496
 10
47.6124538
 20
-19.8794535
 10
47.9145155
 20
-19.8681237
 10
48.05748879999999
 20
-19.8613018
 10
48.15420519999999
 20
-19.6256481
 10
48.24976599999999
 20
-19.3895235
 10
48.344169
 20
-19.1529336
 10
48.4374119
 20
-18.9158841
 10
48.5294924
 20
-18.6783807
 10
48.62040839999999
 20
-18.440429
 10
48.62839829999999
 20
-18.41934889999999
 10
48.4381401
 20
-18.2239553
 10
48.22456810000001
 20
-18.0103599
 10
48.01473099999999
 20
-17.8063506
 10
47.8088556
 20
-17.6117777
  0
LWPOLYLINE
  5
84D
330
70
100
AcDbEntity
  8
0
 62
    13
100
AcDbPolyline
 90
      100
 70
     0
 43
0.0
 10
47.8088556
 20
-17.6117777
 10
47.6071656
 20
-17.4264872
 10
47.4098807
 20
-17.2503206
 10
47.21721729999999
 20
-17.0831151
 10
46.9678886
 20
-16.87382439999999
 10
46.7276462
 20
-16.6797592
 10
46.4969711
 20
-16.5004989
 10
46.2763312
 20
-16.3356103
 10
46.06618169999999
 20
-16.1846479
 10
45.8189185
 20
-16.0148304
 10
45.5895686
 20
-15.8651379
 10
45.3391166
 20
-15.7107376
 10
45.1169225
 20
-15.5822686
 10
45.0760017
 20
-15.5595438
 10
45.6129218
 20
-13.9070736
 10
45.86781049999999
 20
-13.9350536
 10
46.1508287
 20
-13.9580074
 10
46.4289212
 20
-13.9732738
 10
46.68983789999999
 20
-13.9816835
 10
46.9714816
 20
-13.9848622
 10
47.22193660000001
 20
-13.9828916
 10
47.48662659999999
 20
-13.9761891
 10
47.7654585
 20
-13.9642572
 10
48.05832589999999
 20
-13.9466007
 10
48.36510969999999
 20
-13.9227261
 10
48.620468
 20
-13.8988195
 10
48.8845749
 20
-13.8703692
 10
49.15735139999999
 20
-13.8371265
 10
49.4387134
 20
-13.7988438
 10
49.7285716
 20
-13.7552753
 10
50.0268314
 20
-13.7061764
 10
50.1678223
 20
-13.681489
 10
50.2342408
 20
-13.4355718
 10
50.29945389999999
 20
-13.1893321
 10
50.3634599
 20
-12.942776
 10
50.4262573
 20
-12.6959092
 10
50.48784470000001
 20
-12.4487378
 10
50.5482206
 20
-12.2012677
 10
50.55350549999999
 20
-12.1793525
 10
50.3402581
 20
-12.0093452
 10
50.1015997
 20
-11.8242018
 10
49.86784799999999
 20
-11.6481007
 10
49.6392096
 20
-11.4808651
 10
49.41588679999999
 20
-11.3223142
 10
49.1980781
 20
-11.172263
 10
48.9859775
 20
-11.0305231
 10
48.7123837
 20
-10.8541319
 10
48.4497129
 20
-10.6917073
 10
48.19838950000001
 20
-10.5427718
 10
47.9588234
 20
-10.4068369
 10
47.7314104
 20
-10.2834036
 10
47.4648131
 20
-10.1459155
 10
47.21851029999998
 20
-10.0261485
 10
46.9506817
 20
-9.904355699999998
 10
46.7141382
 20
-9.804748
 10
46.6706919
 20
-9.787331099999999
 10
46.99626879999999
 20
-8.080597200000001
 10
47.2526544
 20
-8.076410499999999
 10
47.5363179
 20
-8.0637118
 10
47.81413079999999
 20
-8.044003599999999
 10
48.07404420000001
 20
-8.019645299999998
 10
48.3538655
 20
-7.987499699999999
 10
48.6020985
 20
-7.9541543
 10
48.86386139999999
 20
-7.914330199999999
 10
49.13899910000001
 20
-7.8675455
 10
49.4273442
 20
-7.8133222
 10
49.7287166
 20
-7.7511856
 10
49.97906509999999
 20
-7.695462700000001
 10
50.2375237
 20
-7.6341354
 10
50.50398279999999
 20
-7.5669668
 10
50.7783281
 20
-7.493721999999999
 10
51.0604401
 20
-7.414168199999999
 10
51.35019429999999
 20
-7.328074599999999
 10
51.48697929999999
 20
-7.285911
 10
51.5220525
 20
-7.0336085
 10
51.5558893
 20
-6.781137099999999
 10
51.58848889999999
 20
-6.528502999999999
 10
51.6198506
 20
-6.2757123
 10
51.6499736
 20
-6.022770999999999
 10
51.6788571
 20
-5.769685099999999
 10
51.6813536
 20
-5.747280299999999
 10
51.44848020000001
 20
-5.605340599999999
 10
51.188499
 20
-5.4515689
 10
50.9345192
 20
-5.306153299999999
 10
50.68672349999999
 20
-5.1688924
 10
50.4452901
 20
-5.0395815
 10
50.2103924
 20
-4.9180122
 10
49.9821996
 20
-4.8039732
 10
49.6886554
 20
-4.6632632
 10
49.4076987
 20
-4.535040799999999
 10
49.1396905
 20
-4.4187789
 10
48.88497629999999
 20
-4.3139415
 10
48.6438862
 20
-4.2199839
 10
48.3621593
 20
-4.1169934
 10
48.10278779999999
 20
-4.029040799999999
 10
47.82180649999999
 20
-3.941776099999999
 10
47.57464399999999
 20
-3.8726006
 10
47.52935739999999
 20
-3.860766399999999
 10
47.6384565
 20
-2.126684899999999
 10
47.92537
 20
-2.0851318
  0
ENDSEC
  0
SECTION
  2
OBJECTS
  0
DICTIONARY
  5
C
330
0
100
AcDbDictionary
281
     1
  3
ACAD_CIP_PREVIOUS_PRODUCT_INFO
350
8B7
  3
ACAD_COLOR
350
62
  3
ACAD_DETAILVIEWSTYLE
350
6A
  3
ACAD_GROUP
350
D
  3
ACAD_LAYOUT
350
61
  3
ACAD_MATERIAL
350
10
  3
ACAD_MLEADERSTYLE
350
65
  3
ACAD_MLINESTYLE
350
5E
  3
ACAD_PLOTSETTINGS
350
60
  3
ACAD_PLOTSTYLENAME
350
E
  3
ACAD_SCALELIST
350
42
  3
ACAD_SECTIONVIEWSTYLE
350
67
  3
ACAD_TABLESTYLE
350
63
  3
ACAD_VISUALSTYLE
350
29
  3
ACDB_RECOMPOSE_DATA
350
8C6
  3
AcDbVariableDictionary
350
8BA
  0
DICTIONARY
  5
8B8
330
54
100
AcDbDictionary
280
     1
281
     1
  3
ADSK_XREC_LAYER_RECONCILED
360
8B9
  0
XRECORD
  5
8B7
102
{ACAD_REACTORS
330
C
102
}
330
C
100
AcDbXrecord
280
     1
300
ACD
300
2013
300
ACD_F_S
  0
DICTIONARY
  5
62
102
{ACAD_REACTORS
330
C
102
}
330
C
100
AcDbDictionary
281
     1
  0
DICTIONARY
  5
6A
102
{ACAD_REACTORS
330
C
102
}
330
C
100
AcDbDictionary
281
     1
  3
Imperial24
350
6B
  0
DICTIONARY
  5
D
102
{ACAD_REACTORS
330
C
102
}
330
C
100
AcDbDictionary
281
     1
  0
DICTIONARY
  5
61
102
{ACAD_REACTORS
330
C
102
}
330
C
100
AcDbDictionary
281
     1
  3
Layout1
350
6F
  3
Model
350
73
  0
DICTIONARY
  5
10
102
{ACAD_REACTORS
330
C
102
}
330
C
100
AcDbDictionary
281
     1
  3
ByBlock
350
19
  3
ByLayer
350
11
  3
Global
350
21
  0
DICTIONARY
  5
65
102
{ACAD_REACTORS
330
C
102
}
330
C
100
AcDbDictionary
281
     1
  3
Standard
350
66
  0
DICTIONARY
  5
5E
102
{ACAD_REACTORS
330
C
102
}
330
C
100
AcDbDictionary
281
     1
  3
Standard
350
5F
  0
DICTIONARY
  5
60
102
{ACAD_REACTORS
330
C
102
}
330
C
100
AcDbDictionary
281
     1
  0
ACDBDICTIONARYWDFLT
  5
E
102
{ACAD_REACTORS
330
C
102
}
330
C
100
AcDbDictionary
281
     1
  3
Normal
350
F
100
AcDbDictionaryWithDefault
340
F
  0
DICTIONARY
  5
42
102
{ACAD_REACTORS
330
C
102
}
330
C
100
AcDbDictionary
281
     1
  3
A0
350
43
  3
A1
350
44
  3
A2
350
45
  3
A3
350
46
  3
A4
350
47
  3
A5
350
48
  3
A6
350
49
  3
A7
350
4A
  3
A8
350
4B
  3
A9
350
4C
  3
B0
350
4D
  3
B1
350
4E
  3
B2
350
4F
  3
B3
350
50
  3
B4
350
51
  3
B5
350
52
  3
B6
350
53
  0
DICTIONARY
  5
67
102
{ACAD_REACTORS
330
C
102
}
330
C
100
AcDbDictionary
281
     1
  3
Imperial24
350
69
  0
DICTIONARY
  5
63
102
{ACAD_REACTORS
330
C
102
}
330
C
100
AcDbDictionary
281
     1
  3
Standard
350
64
  0
DICTIONARY
  5
29
102
{ACAD_REACTORS
330
C
102
}
330
C
100
AcDbDictionary
281
     1
  3
2dWireframe
350
2F
  3
Basic
350
2E
  3
Brighten
350
35
  3
ColorChange
350
39
  3
Conceptual
350
32
  3
Dim
350
34
  3
EdgeColorOff
350
41
  3
Facepattern
350
38
  3
Flat
350
2A
  3
FlatWithEdges
350
2B
  3
Gouraud
350
2C
  3
GouraudWithEdges
350
2D
  3
Hidden
350
31
  3
JitterOff
350
3F
  3
Linepattern
350
37
  3
OverhangOff
350
40
  3
Realistic
350
33
  3
Shaded
350
3E
  3
Shaded with edges
350
3D
  3
Shades of Gray
350
3A
  3
Sketchy
350
3B
  3
Thicken
350
36
  3
Wireframe
350
30
  3
X-Ray
350
3C
  0
XRECORD
  5
8C6
102
{ACAD_REACTORS
330
C
102
}
330
C
100
AcDbXrecord
280
     1
 90
        1
330
64
  0
DICTIONARY
  5
8BA
102
{ACAD_REACTORS
330
C
102
}
330
C
100
AcDbDictionary
281
     1
  3
CANNOSCALE
350
8C0
  3
CMLEADERSTYLE
350
8BC
  3
CTABLESTYLE
350
8BB
  3
CVIEWDETAILSTYLE
350
8BD
  3
CVIEWSECTIONSTYLE
350
8BE
  3
LAYEREVAL
350
8C2
  3
LAYERNOTIFY
350
8C3
  3
LIGHTINGUNITS
350
8C1
  3
MSLTSCALE
350
8BF
  0
XRECORD
  5
8B9
102
{ACAD_REACTORS
330
8B8
102
}
330
8B8
100
AcDbXrecord
280
     1
290
     1
  0
ACDBDETAILVIEWSTYLE
  5
6B
102
{ACAD_REACTORS
330
6A
102
}
330
6A
100
AcDbModelDocViewStyle
 70
     0
  3
Imperial24
290
     0
100
AcDbDetailViewStyle
 70
     0
 71
     0
 90
        3
 71
     1
340
55
 62
   256
 40
0.24
340
0
 62
   256
 40
0.24
300

 40
0.36
280
     3
 71
     2
340
5C
 90
       25
 62
   256
 71
     3
340
55
 62
   256
 40
0.24
 90
        1
 40
0.75
 90
        1
300
%<\AcVar ViewType \f "%tc1">% %<\AcVar ViewDetailId>%\PSCALE %<\AcVar ViewScale \f "%sn">%
 71
     4
340
5C
 90
       25
 62
   256
340
5C
 90
       25
 62
   256
280
     0
  0
LAYOUT
  5
6F
102
{ACAD_REACTORS
330
61
102
}
330
61
100
AcDbPlotSettings
  1

  2
Microsoft XPS Document Writer
  4

  6

 40
0.0
 41
0.0
 42
0.0
 43
0.0
 44
0.0
 45
0.0
 46
0.0
 47
0.0
 48
0.0
 49
0.0
140
0.0
141
0.0
142
1.0
143
1.0
 70
   688
 72
     0
 73
     0
 74
     5
  7

 75
    16
147
1.0
 76
     0
 77
     2
 78
   300
148
0.0
149
0.0
100
AcDbLayout
  1
Layout1
 70
     1
 71
     1
 10
0.0
 20
0.0
 11
12.0
 21
9.0
 12
0.0
 22
0.0
 32
0.0
 14
1.000000000000000E+20
 24
1.000000000000000E+20
 34
1.000000000000000E+20
 15
-1.000000000000000E+20
 25
-1.000000000000000E+20
 35
-1.000000000000000E+20
146
0.0
 13
0.0
 23
0.0
 33
0.0
 16
1.0
 26
0.0
 36
0.0
 17
0.0
 27
1.0
 37
0.0
 76
     0
330
6C
  0
LAYOUT
  5
73
102
{ACAD_REACTORS
330
61
102
}
330
61
100
AcDbPlotSettings
  1

  2
Microsoft XPS Document Writer
  4

  6

 40
0.0
 41
0.0
 42
0.0
 43
0.0
 44
0.0
 45
0.0
 46
0.0
 47
0.0
 48
0.0
 49
0.0
140
0.0
141
0.0
142
1.0
143
1.0
 70
  1712
 72
     0
 73
     0
 74
     0
  7

 75
     0
147
1.0
 76
     0
 77
     2
 78
   300
148
0.0
149
0.0
100
AcDbLayout
  1
Model
 70
     1
 71
     0
 10
0.0
 20
0.0
 11
12.0
 21
9.0
 12
0.0
 22
0.0
 32
0.0
 14
0.0
 24
0.0
 34
0.0
 15
0.0
 25
0.0
 35
0.0
146
0.0
 13
0.0
 23
0.0
 33
0.0
 16
1.0
 26
0.0
 36
0.0
 17
0.0
 27
1.0
 37
0.0
 76
     0
330
70
331
8B6
  0
MATERIAL
  5
19
102
{ACAD_XDICTIONARY
360
1A
102
}
102
{ACAD_REACTORS
330
10
102
}
330
10
100
AcDbMaterial
  1
ByBlock
 72
     0
 43
0.0208333333333333
 43
0.0
 43
0.0
 43
0.0
 43
0.0
 43
0.0208333333333333
 43
0.0
 43
0.0
 43
0.0
 43
0.0
 43
1.0
 43
0.0
 43
0.0
 43
0.0
 43
0.0
 43
1.0
 77
     0
 47
0.0208333333333333
 47
0.0
 47
0.0
 47
0.0
 47
0.0
 47
0.0208333333333333
 47
0.0
 47
0.0
 47
0.0
 47
0.0
 47
1.0
 47
0.0
 47
0.0
 47
0.0
 47
0.0
 47
1.0
171
     0
 49
0.0208333333333333
 49
0.0
 49
0.0
 49
0.0
 49
0.0
 49
0.0208333333333333
 49
0.0
 49
0.0
 49
0.0
 49
0.0
 49
1.0
 49
0.0
 49
0.0
 49
0.0
 49
0.0
 49
1.0
175
     0
142
0.0208333333333333
142
0.0
142
0.0
142
0.0
142
0.0
142
0.0208333333333333
142
0.0
142
0.0
142
0.0
142
0.0
142
1.0
142
0.0
142
0.0
142
0.0
142
0.0
142
1.0
179
     0
144
0.0208333333333333
144
0.0
144
0.0
144
0.0
144
0.0
144
0.0208333333333333
144
0.0
144
0.0
144
0.0
144
0.0
144
1.0
144
0.0
144
0.0
144
0.0
144
0.0
144
1.0
147
0.0208333333333333
147
0.0
147
0.0
147
0.0
147
0.0
147
0.0208333333333333
147
0.0
147
0.0
147
0.0
147
0.0
147
1.0
147
0.0
147
0.0
147
0.0
147
0.0
147
1.0
  0
MATERIAL
  5
11
102
{ACAD_XDICTIONARY
360
12
102
}
102
{ACAD_REACTORS
330
10
102
}
330
10
100
AcDbMaterial
  1
ByLayer
 72
     0
 43
0.0208333333333333
 43
0.0
 43
0.0
 43
0.0
 43
0.0
 43
0.0208333333333333
 43
0.0
 43
0.0
 43
0.0
 43
0.0
 43
1.0
 43
0.0
 43
0.0
 43
0.0
 43
0.0
 43
1.0
 77
     0
 47
0.0208333333333333
 47
0.0
 47
0.0
 47
0.0
 47
0.0
 47
0.0208333333333333
 47
0.0
 47
0.0
 47
0.0
 47
0.0
 47
1.0
 47
0.0
 47
0.0
 47
0.0
 47
0.0
 47
1.0
171
     0
 49
0.0208333333333333
 49
0.0
 49
0.0
 49
0.0
 49
0.0
 49
0.0208333333333333
 49
0.0
 49
0.0
 49
0.0
 49
0.0
 49
1.0
 49
0.0
 49
0.0
 49
0.0
 49
0.0
 49
1.0
175
     0
142
0.0208333333333333
142
0.0
142
0.0
142
0.0
142
0.0
142
0.0208333333333333
142
0.0
142
0.0
142
0.0
142
0.0
142
1.0
142
0.0
142
0.0
142
0.0
142
0.0
142
1.0
179
     0
144
0.0208333333333333
144
0.0
144
0.0
144
0.0
144
0.0
144
0.0208333333333333
144
0.0
144
0.0
144
0.0
144
0.0
144
1.0
144
0.0
144
0.0
144
0.0
144
0.0
144
1.0
147
0.0208333333333333
147
0.0
147
0.0
147
0.0
147
0.0
147
0.0208333333333333
147
0.0
147
0.0
147
0.0
147
0.0
147
1.0
147
0.0
147
0.0
147
0.0
147
0.0
147
1.0
  0
MATERIAL
  5
21
102
{ACAD_XDICTIONARY
360
22
102
}
102
{ACAD_REACTORS
330
10
102
}
330
10
100
AcDbMaterial
  1
Global
 72
     0
 43
0.0208333333333333
 43
0.0
 43
0.0
 43
0.0
 43
0.0
 43
0.0208333333333333
 43
0.0
 43
0.0
 43
0.0
 43
0.0
 43
1.0
 43
0.0
 43
0.0
 43
0.0
 43
0.0
 43
1.0
 77
     0
 47
0.0208333333333333
 47
0.0
 47
0.0
 47
0.0
 47
0.0
 47
0.0208333333333333
 47
0.0
 47
0.0
 47
0.0
 47
0.0
 47
1.0
 47
0.0
 47
0.0
 47
0.0
 47
0.0
 47
1.0
171
     0
 49
0.0208333333333333
 49
0.0
 49
0.0
 49
0.0
 49
0.0
 49
0.0208333333333333
 49
0.0
 49
0.0
 49
0.0
 49
0.0
 49
1.0
 49
0.0
 49
0.0
 49
0.0
 49
0.0
 49
1.0
175
     0
142
0.0208333333333333
142
0.0
142
0.0
142
0.0
142
0.0
142
0.0208333333333333
142
0.0
142
0.0
142
0.0
142
0.0
142
1.0
142
0.0
142
0.0
142
0.0
142
0.0
142
1.0
179
     0
144
0.0208333333333333
144
0.0
144
0.0
144
0.0
144
0.0
144
0.0208333333333333
144
0.0
144
0.0
144
0.0
144
0.0
144
1.0
144
0.0
144
0.0
144
0.0
144
0.0
144
1.0
147
0.0208333333333333
147
0.0
147
0.0
147
0.0
147
0.0
147
0.0208333333333333
147
0.0
147
0.0
147
0.0
147
0.0
147
1.0
147
0.0
147
0.0
147
0.0
147
0.0
147
1.0
  0
MLEADERSTYLE
  5
66
102
{ACAD_REACTORS
330
65
102
}
330
65
100
AcDbMLeaderStyle
179
     2
170
     2
171
     1
172
     0
 90
        2
 40
0.0
 41
0.0
173
     1
 91
-1056964608
340
5A
 92
       -2
290
     1
 42
0.09
291
     1
 43
0.36
  3
Standard
 44
0.18
300

342
55
174
     1
178
     6
175
     1
176
     0
 93
-1056964608
 45
0.18
292
     0
297
     0
 46
0.18
 94
-1056964608
 47
1.0
 49
1.0
140
1.0
293
     1
141
0.0
294
     1
177
     0
142
1.0
295
     0
296
     0
143
0.125
271
     0
272
     9
273
     9
298
     0
  0
MLINESTYLE
  5
5F
102
{ACAD_REACTORS
330
5E
102
}
330
5E
100
AcDbMlineStyle
  2
STANDARD
 70
     0
  3

 62
   256
 51
90.0
 52
90.0
 71
     2
 49
0.5
 62
   256
  6
BYLAYER
 49
-0.5
 62
   256
  6
BYLAYER
  0
ACDBPLACEHOLDER
  5
F
102
{ACAD_REACTORS
330
E
102
}
330
E
  0
SCALE
  5
43
102
{ACAD_REACTORS
330
42
102
}
330
42
100
AcDbScale
 70
     0
300
1:1
140
1.0
141
1.0
290
     1
  0
SCALE
  5
44
102
{ACAD_REACTORS
330
42
102
}
330
42
100
AcDbScale
 70
     0
300
1/128" = 1'-0"
140
0.0078125
141
12.0
290
     0
  0
SCALE
  5
45
102
{ACAD_REACTORS
330
42
102
}
330
42
100
AcDbScale
 70
     0
300
1/64" = 1'-0"
140
0.015625
141
12.0
290
     0
  0
SCALE
  5
46
102
{ACAD_REACTORS
330
42
102
}
330
42
100
AcDbScale
 70
     0
300
1/32" = 1'-0"
140
0.03125
141
12.0
290
     0
  0
SCALE
  5
47
102
{ACAD_REACTORS
330
42
102
}
330
42
100
AcDbScale
 70
     0
300
1/16" = 1'-0"
140
0.0625
141
12.0
290
     0
  0
SCALE
  5
48
102
{ACAD_REACTORS
330
42
102
}
330
42
100
AcDbScale
 70
     0
300
3/32" = 1'-0"
140
0.09375
141
12.0
290
     0
  0
SCALE
  5
49
102
{ACAD_REACTORS
330
42
102
}
330
42
100
AcDbScale
 70
     0
300
1/8" = 1'-0"
140
0.125
141
12.0
290
     0
  0
SCALE
  5
4A
102
{ACAD_REACTORS
330
42
102
}
330
42
100
AcDbScale
 70
     0
300
3/16" = 1'-0"
140
0.1875
141
12.0
290
     0
  0
SCALE
  5
4B
102
{ACAD_REACTORS
330
42
102
}
330
42
100
AcDbScale
 70
     0
300
1/4" = 1'-0"
140
0.25
141
12.0
290
     0
  0
SCALE
  5
4C
102
{ACAD_REACTORS
330
42
102
}
330
42
100
AcDbScale
 70
     0
300
3/8" = 1'-0"
140
0.375
141
12.0
290
     0
  0
SCALE
  5
4D
102
{ACAD_REACTORS
330
42
102
}
330
42
100
AcDbScale
 70
     0
300
1/2" = 1'-0"
140
0.5
141
12.0
290
     0
  0
SCALE
  5
4E
102
{ACAD_REACTORS
330
42
102
}
330
42
100
AcDbScale
 70
     0
300
3/4" = 1'-0"
140
0.75
141
12.0
290
     0
  0
SCALE
  5
4F
102
{ACAD_REACTORS
330
42
102
}
330
42
100
AcDbScale
 70
     0
300
1" = 1'-0"
140
1.0
141
12.0
290
     0
  0
SCALE
  5
50
102
{ACAD_REACTORS
330
42
102
}
330
42
100
AcDbScale
 70
     0
300
1-1/2" = 1'-0"
140
1.5
141
12.0
290
     0
  0
SCALE
  5
51
102
{ACAD_REACTORS
330
42
102
}
330
42
100
AcDbScale
 70
     0
300
3" = 1'-0"
140
3.0
141
12.0
290
     0
  0
SCALE
  5
52
102
{ACAD_REACTORS
330
42
102
}
330
42
100
AcDbScale
 70
     0
300
6" = 1'-0"
140
6.0
141
12.0
290
     0
  0
SCALE
  5
53
102
{ACAD_REACTORS
330
42
102
}
330
42
100
AcDbScale
 70
     0
300
1'-0" = 1'-0"
140
12.0
141
12.0
290
     0
  0
ACDBSECTIONVIEWSTYLE
  5
69
102
{ACAD_REACTORS
330
67
102
}
330
67
100
AcDbModelDocViewStyle
 70
     0
  3
Imperial24
290
     0
100
AcDbSectionViewStyle
 70
     0
 71
     0
 90
       78
 71
     1
340
55
 62
   256
 40
0.24
340
0
340
0
 62
   256
 40
0.24
300
I, O, Q, S, X, Z
 40
0.48
 90
        3
 40
0.18
 90
        1
 71
     2
340
68
 90
       25
 62
   256
340
5C
 90
       50
 62
   256
 40
0.24
 40
0.0
 40
0.24
 71
     3
340
55
 62
   256
 40
0.24
 90
        1
 40
0.75
 90
        1
300
%<\AcVar ViewType \f "%tc1">% %<\AcVar ViewSectionStartId>%-%<\AcVar ViewSectionEndId>%\PSCALE %<\AcVar ViewScale \f "%sn">%
 71
     4
 62
   256
 62
   257
300
ANSI31
 40
1.0
 90
        0
290
     0
290
     0
 90
        6
 40
0.0
 40
1.570796326794896
 40
0.2617993877991494
 40
1.308996938995747
 40
-0.2617993877991494
 40
1.832595714594046
  0
TABLESTYLE
  5
64
102
{ACAD_XDICTIONARY
360
8C4
102
}
102
{ACAD_REACTORS
330
63
102
}
330
63
100
AcDbTableStyle
280
     0
  3
Standard
 70
     0
 71
     0
 40
0.06
 41
0.06
280
     0
281
     0
  7
Standard
140
0.18
170
     2
 62
     0
 63
     7
283
     0
 90
      512
 91
        0
  1

274
    -2
284
     1
 64
     0
275
    -2
285
     1
 65
     0
276
    -2
286
     1
 66
     0
277
    -2
287
     1
 67
     0
278
    -2
288
     1
 68
     0
279
    -2
289
     1
 69
     0
  7
Standard
140
0.25
170
     5
 62
     0
 63
     7
283
     0
 90
      512
 91
        0
  1

274
    -2
284
     1
 64
     0
275
    -2
285
     1
 65
     0
276
    -2
286
     1
 66
     0
277
    -2
287
     1
 67
     0
278
    -2
288
     1
 68
     0
279
    -2
289
     1
 69
     0
  7
Standard
140
0.18
170
     5
 62
     0
 63
     7
283
     0
 90
      512
 91
        0
  1

274
    -2
284
     1
 64
     0
275
    -2
285
     1
 65
     0
276
    -2
286
     1
 66
     0
277
    -2
287
     1
 67
     0
278
    -2
288
     1
 68
     0
279
    -2
289
     1
 69
     0
  0
VISUALSTYLE
  5
2F
102
{ACAD_REACTORS
330
29
102
}
330
29
100
AcDbVisualStyle
  2
2dWireframe
 70
     4
177
     3
291
     0
 70
    58
 90
        0
176
     1
 90
        2
176
     1
 90
        0
176
     1
 90
        0
176
     1
 40
0.6
176
     1
 40
30.0
176
     1
 62
     7
420
 16777215
176
     1
 90
        1
176
     1
 90
        4
176
     1
 62
     7
176
     1
 62
   257
176
     1
 90
        1
176
     1
 90
        1
176
     1
 40
1.0
176
     1
 90
        0
176
     1
 62
   257
176
     1
 40
1.0
176
     1
 90
        1
176
     1
 90
        6
176
     1
 90
        2
176
     1
 62
     7
176
     1
 90
        5
176
     1
 90
        0
176
     1
 90
        0
176
     1
290
     0
176
     1
 90
        1
176
     1
 40
0.0
176
     1
 90
        0
176
     1
290
     1
176
     1
290
     1
176
     1
290
     0
176
     1
290
     0
176
     1
290
     0
176
     1
290
     0
176
     1
290
     0
176
     1
290
     0
176
     1
290
     0
176
     1
 90
       50
176
     1
 40
0.0
176
     1
 40
1.0
176
     1
 90
        0
176
     1
 62
    18
420
        0
176
     1
 90
       50
176
     1
 90
        3
176
     1
 62
     5
420
      255
176
     1
290
     0
176
     1
 90
       50
176
     1
 90
       50
176
     1
 90
       50
176
     1
290
     0
176
     1
 90
       50
176
     1
 62
   256
176
     0
 40
1.0
176
     0
 90
        2
176
     1
  1
strokes_ogs.tif
176
     1
290
     0
176
     1
 40
1.0
176
     1
 40
1.0
176
     1
  0
VISUALSTYLE
  5
2E
102
{ACAD_REACTORS
330
29
102
}
330
29
100
AcDbVisualStyle
  2
Basic
 70
     7
177
     3
291
     1
 70
    58
 90
        1
176
     1
 90
        0
176
     1
 90
        1
176
     1
 90
        0
176
     1
 40
0.6
176
     1
 40
30.0
176
     1
 62
     7
420
 16777215
176
     1
 90
        0
176
     1
 90
        4
176
     1
 62
     7
176
     1
 62
   257
176
     1
 90
        1
176
     1
 90
        1
176
     1
 40
1.0
176
     1
 90
        8
176
     1
 62
     7
176
     1
 40
1.0
176
     1
 90
        1
176
     1
 90
        6
176
     1
 90
        2
176
     1
 62
     7
176
     1
 90
        5
176
     1
 90
        0
176
     1
 90
        0
176
     1
290
     0
176
     1
 90
        1
176
     1
 40
0.0
176
     1
 90
        0
176
     1
290
     0
176
     1
290
     1
176
     1
290
     1
176
     1
290
     0
176
     1
290
     0
176
     1
290
     0
176
     1
290
     0
176
     1
290
     0
176
     1
290
     0
176
     1
 90
       50
176
     1
 40
0.0
176
     1
 40
1.0
176
     1
 90
        0
176
     1
 62
    18
420
        0
176
     1
 90
       50
176
     1
 90
        3
176
     1
 62
     5
420
      255
176
     1
290
     0
176
     1
 90
       50
176
     1
 90
       50
176
     1
 90
       50
176
     1
290
     0
176
     1
 90
       50
176
     1
 62
   256
176
     0
 40
1.0
176
     0
 90
        2
176
     1
  1
strokes_ogs.tif
176
     1
290
     0
176
     1
 40
1.0
176
     1
 40
1.0
176
     1
  0
VISUALSTYLE
  5
35
102
{ACAD_REACTORS
330
29
102
}
330
29
100
AcDbVisualStyle
  2
Brighten
 70
    12
177
     3
291
     1
 70
    58
 90
        2
176
     1
 90
        2
176
     1
 90
        0
176
     1
 90
        0
176
     1
 40
0.6
176
     1
 40
30.0
176
     1
 62
     7
420
 16777215
176
     1
 90
        1
176
     1
 90
        4
176
     1
 62
     7
176
     1
 62
   257
176
     1
 90
        1
176
     1
 90
        1
176
     1
 40
1.0
176
     1
 90
        8
176
     1
 62
     7
176
     1
 40
1.0
176
     1
 90
        1
176
     1
 90
        6
176
     1
 90
        2
176
     1
 62
     7
176
     1
 90
        5
176
     1
 90
        0
176
     1
 90
        0
176
     1
290
     0
176
     1
 90
        1
176
     1
 40
50.0
176
     1
 90
        0
176
     1
290
     0
176
     1
290
     1
176
     1
290
     1
176
     1
290
     0
176
     1
290
     0
176
     1
290
     0
176
     1
290
     0
176
     1
290
     0
176
     1
290
     0
176
     1
 90
       50
176
     1
 40
0.0
176
     1
 40
1.0
176
     1
 90
        0
176
     1
 62
    18
420
        0
176
     1
 90
       50
176
     1
 90
        3
176
     1
 62
     5
420
      255
176
     1
290
     0
176
     1
 90
       50
176
     1
 90
       50
176
     1
 90
       50
176
     1
290
     0
176
     1
 90
       50
176
     1
 62
   256
176
     0
 40
1.0
176
     0
 90
        2
176
     1
  1
strokes_ogs.tif
176
     1
290
     0
176
     1
 40
1.0
176
     1
 40
1.0
176
     1
  0
VISUALSTYLE
  5
39
102
{ACAD_REACTORS
330
29
102
}
330
29
100
AcDbVisualStyle
  2
ColorChange
 70
    16
177
     3
291
     1
 70
    58
 90
        2
176
     1
 90
        2
176
     1
 90
        3
176
     1
 90
        0
176
     1
 40
0.6
176
     1
 40
30.0
176
     1
 62
     8
420
  8421504
176
     1
 90
        1
176
     1
 90
        4
176
     1
 62
     7
176
     1
 62
   257
176
     1
 90
        1
176
     1
 90
        1
176
     1
 40
1.0
176
     1
 90
        8
176
     1
 62
     8
420
  8421504
176
     1
 40
1.0
176
     1
 90
        1
176
     1
 90
        6
176
     1
 90
        2
176
     1
 62
     7
176
     1
 90
        5
176
     1
 90
        0
176
     1
 90
        0
176
     1
290
     0
176
     1
 90
        1
176
     1
 40
0.0
176
     1
 90
        0
176
     1
290
     0
176
     1
290
     1
176
     1
290
     1
176
     1
290
     0
176
     1
290
     0
176
     1
290
     0
176
     1
290
     0
176
     1
290
     0
176
     1
290
     0
176
     1
 90
       50
176
     1
 40
0.0
176
     1
 40
1.0
176
     1
 90
        0
176
     1
 62
    18
420
        0
176
     1
 90
       50
176
     1
 90
        3
176
     1
 62
     5
420
      255
176
     1
290
     0
176
     1
 90
       50
176
     1
 90
       50
176
     1
 90
       50
176
     1
290
     0
176
     1
 90
       50
176
     1
 62
   256
176
     0
 40
1.0
176
     0
 90
        2
176
     1
  1
strokes_ogs.tif
176
     1
290
     0
176
     1
 40
1.0
176
     1
 40
1.0
176
     1
  0
VISUALSTYLE
  5
32
102
{ACAD_REACTORS
330
29
102
}
330
29
100
AcDbVisualStyle
  2
Conceptual
 70
     9
177
     3
291
     0
 70
    58
 90
        3
176
     1
 90
        2
176
     1
 90
        0
176
     1
 90
        0
176
     1
 40
0.6
176
     1
 40
30.0
176
     1
 62
     7
420
 16777215
176
     1
 90
        2
176
     1
 90
        2
176
     1
 62
     7
176
     1
 62
   257
176
     1
 90
        1
176
     1
 90
        1
176
     1
 40
179.0
176
     1
 90
        8
176
     1
 62
     7
176
     1
 40
1.0
176
     1
 90
        1
176
     1
 90
        6
176
     1
 90
        2
176
     1
 62
     7
176
     1
 90
        3
176
     1
 90
        0
176
     1
 90
        0
176
     1
290
     0
176
     1
 90
        1
176
     1
 40
0.0
176
     1
 90
        0
176
     1
290
     0
176
     1
290
     1
176
     1
290
     1
176
     1
290
     0
176
     1
290
     0
176
     1
290
     0
176
     1
290
     0
176
     1
290
     0
176
     1
290
     0
176
     1
 90
       50
176
     1
 40
0.0
176
     1
 40
1.0
176
     1
 90
        0
176
     1
 62
    18
420
        0
176
     1
 90
       50
176
     1
 90
        3
176
     1
 62
     5
420
      255
176
     1
290
     0
176
     1
 90
       50
176
     1
 90
       50
176
     1
 90
       50
176
     1
290
     0
176
     1
 90
       50
176
     1
 62
   256
176
     0
 40
1.0
176
     0
 90
        2
176
     1
  1
strokes_ogs.tif
176
     1
290
     0
176
     1
 40
1.0
176
     1
 40
1.0
176
     1
  0
VISUALSTYLE
  5
34
102
{ACAD_REACTORS
330
29
102
}
330
29
100
AcDbVisualStyle
  2
Dim
 70
    11
177
     3
291
     1
 70
    58
 90
        2
176
     1
 90
        2
176
     1
 90
        0
176
     1
 90
        0
176
     1
 40
0.6
176
     1
 40
30.0
176
     1
 62
     7
420
 16777215
176
     1
 90
        1
176
     1
 90
        4
176
     1
 62
     7
176
     1
 62
   257
176
     1
 90
        1
176
     1
 90
        1
176
     1
 40
1.0
176
     1
 90
        8
176
     1
 62
     7
176
     1
 40
1.0
176
     1
 90
        1
176
     1
 90
        6
176
     1
 90
        2
176
     1
 62
     7
176
     1
 90
        5
176
     1
 90
        0
176
     1
 90
        0
176
     1
290
     0
176
     1
 90
        1
176
     1
 40
-50.0
176
     1
 90
        0
176
     1
290
     0
176
     1
290
     1
176
     1
290
     1
176
     1
290
     0
176
     1
290
     0
176
     1
290
     0
176
     1
290
     0
176
     1
290
     0
176
     1
290
     0
176
     1
 90
       50
176
     1
 40
0.0
176
     1
 40
1.0
176
     1
 90
        0
176
     1
 62
    18
420
        0
176
     1
 90
       50
176
     1
 90
        3
176
     1
 62
     5
420
      255
176
     1
290
     0
176
     1
 90
       50
176
     1
 90
       50
176
     1
 90
       50
176
     1
290
     0
176
     1
 90
       50
176
     1
 62
   256
176
     0
 40
1.0
176
     0
 90
        2
176
     1
  1
strokes_ogs.tif
176
     1
290
     0
176
     1
 40
1.0
176
     1
 40
1.0
176
     1
  0
VISUALSTYLE
  5
41
102
{ACAD_REACTORS
330
29
102
}
330
29
100
AcDbVisualStyle
  2
EdgeColorOff
 70
    22
177
     3
291
     1
 70
    58
 90
        2
176
     0
 90
        2
176
     0
 90
        0
176
     0
 90
        0
176
     0
 40
0.6
176
     0
 40
30.0
176
     0
 62
     7
420
 16777215
176
     0
 90
        1
176
     0
 90
        4
176
     0
 62
     7
176
     0
 62
   257
176
     0
 90
        1
176
     0
 90
        1
176
     0
 40
1.0
176
     0
 90
        8
176
     2
 62
     7
176
     0
 40
1.0
176
     0
 90
        1
176
     0
 90
        6
176
     0
 90
        2
176
     0
 62
     7
176
     0
 90
        5
176
     0
 90
        0
176
     0
 90
        0
176
     0
290
     0
176
     0
 90
        1
176
     0
 40
0.0
176
     0
 90
        0
176
     0
290
     0
176
     1
290
     1
176
     1
290
     1
176
     1
290
     0
176
     1
290
     0
176
     1
290
     0
176
     1
290
     0
176
     1
290
     0
176
     1
290
     0
176
     1
 90
       50
176
     0
 40
0.0
176
     0
 40
1.0
176
     0
 90
        0
176
     0
 62
    18
420
        0
176
     0
 90
       50
176
     0
 90
        3
176
     0
 62
     5
420
      255
176
     0
290
     0
176
     1
 90
       50
176
     0
 90
       50
176
     0
 90
       50
176
     0
290
     0
176
     1
 90
       50
176
     0
 62
   256
176
     0
 40
1.0
176
     0
 90
        2
176
     0
  1
strokes_ogs.tif
176
     0
290
     0
176
     1
 40
1.0
176
     0
 40
1.0
176
     0
  0
VISUALSTYLE
  5
38
102
{ACAD_REACTORS
330
29
102
}
330
29
100
AcDbVisualStyle
  2
Facepattern
 70
    15
177
     3
291
     1
 70
    58
 90
        2
176
     1
 90
        2
176
     1
 90
        0
176
     1
 90
        0
176
     1
 40
0.6
176
     1
 40
30.0
176
     1
 62
     7
420
 16777215
176
     1
 90
        1
176
     1
 90
        4
176
     1
 62
     7
176
     1
 62
   257
176
     1
 90
        1
176
     1
 90
        1
176
     1
 40
1.0
176
     1
 90
        8
176
     1
 62
     7
176
     1
 40
1.0
176
     1
 90
        1
176
     1
 90
        6
176
     1
 90
        2
176
     1
 62
     7
176
     1
 90
        5
176
     1
 90
        0
176
     1
 90
        0
176
     1
290
     0
176
     1
 90
        1
176
     1
 40
0.0
176
     1
 90
        0
176
     1
290
     0
176
     1
290
     1
176
     1
290
     1
176
     1
290
     0
176
     1
290
     0
176
     1
290
     0
176
     1
290
     0
176
     1
290
     0
176
     1
290
     0
176
     1
 90
       50
176
     1
 40
0.0
176
     1
 40
1.0
176
     1
 90
        0
176
     1
 62
    18
420
        0
176
     1
 90
       50
176
     1
 90
        3
176
     1
 62
     5
420
      255
176
     1
290
     0
176
     1
 90
       50
176
     1
 90
       50
176
     1
 90
       50
176
     1
290
     0
176
     1
 90
       50
176
     1
 62
   256
176
     0
 40
1.0
176
     0
 90
        2
176
     1
  1
strokes_ogs.tif
176
     1
290
     0
176
     1
 40
1.0
176
     1
 40
1.0
176
     1
  0
VISUALSTYLE
  5
2A
102
{ACAD_REACTORS
330
29
102
}
330
29
100
AcDbVisualStyle
  2
Flat
 70
     0
177
     3
291
     1
 70
    58
 90
        2
176
     1
 90
        1
176
     1
 90
        1
176
     1
 90
        2
176
     1
 40
0.6
176
     1
 40
30.0
176
     1
 62
     7
420
 16777215
176
     1
 90
        0
176
     1
 90
        0
176
     1
 62
     7
176
     1
 62
   257
176
     1
 90
        1
176
     1
 90
        1
176
     1
 40
1.0
176
     1
 90
        8
176
     1
 62
     7
176
     1
 40
1.0
176
     1
 90
        1
176
     1
 90
        6
176
     1
 90
        2
176
     1
 62
     7
176
     1
 90
        5
176
     1
 90
        0
176
     1
 90
        0
176
     1
290
     0
176
     1
 90
       13
176
     1
 40
0.0
176
     1
 90
        0
176
     1
290
     0
176
     1
290
     1
176
     1
290
     1
176
     1
290
     0
176
     1
290
     0
176
     1
290
     0
176
     1
290
     0
176
     1
290
     0
176
     1
290
     0
176
     1
 90
       50
176
     1
 40
0.0
176
     1
 40
1.0
176
     1
 90
        0
176
     1
 62
    18
420
        0
176
     1
 90
       50
176
     1
 90
        3
176
     1
 62
     5
420
      255
176
     1
290
     0
176
     1
 90
       50
176
     1
 90
       50
176
     1
 90
       50
176
     1
290
     0
176
     1
 90
       50
176
     1
 62
   256
176
     0
 40
1.0
176
     0
 90
        2
176
     1
  1
strokes_ogs.tif
176
     1
290
     0
176
     1
 40
1.0
176
     1
 40
1.0
176
     1
  0
VISUALSTYLE
  5
2B
102
{ACAD_REACTORS
330
29
102
}
330
29
100
AcDbVisualStyle
  2
FlatWithEdges
 70
     1
177
     3
291
     1
 70
    58
 90
        2
176
     1
 90
        1
176
     1
 90
        1
176
     1
 90
        2
176
     1
 40
0.6
176
     1
 40
30.0
176
     1
 62
     7
420
 16777215
176
     1
 90
        1
176
     1
 90
        0
176
     1
 62
     7
176
     1
 62
   257
176
     1
 90
        1
176
     1
 90
        1
176
     1
 40
1.0
176
     1
 90
        0
176
     1
 62
   257
176
     1
 40
1.0
176
     1
 90
        1
176
     1
 90
        6
176
     1
 90
        2
176
     1
 62
     7
176
     1
 90
        5
176
     1
 90
        0
176
     1
 90
        0
176
     1
290
     0
176
     1
 90
       13
176
     1
 40
0.0
176
     1
 90
        0
176
     1
290
     0
176
     1
290
     1
176
     1
290
     1
176
     1
290
     0
176
     1
290
     0
176
     1
290
     0
176
     1
290
     0
176
     1
290
     0
176
     1
290
     0
176
     1
 90
       50
176
     1
 40
0.0
176
     1
 40
1.0
176
     1
 90
        0
176
     1
 62
    18
420
        0
176
     1
 90
       50
176
     1
 90
        3
176
     1
 62
     5
420
      255
176
     1
290
     0
176
     1
 90
       50
176
     1
 90
       50
176
     1
 90
       50
176
     1
290
     0
176
     1
 90
       50
176
     1
 62
   256
176
     0
 40
1.0
176
     0
 90
        2
176
     1
  1
strokes_ogs.tif
176
     1
290
     0
176
     1
 40
1.0
176
     1
 40
1.0
176
     1
  0
VISUALSTYLE
  5
2C
102
{ACAD_REACTORS
330
29
102
}
330
29
100
AcDbVisualStyle
  2
Gouraud
 70
     2
177
     3
291
     1
 70
    58
 90
        2
176
     1
 90
        2
176
     1
 90
        1
176
     1
 90
        2
176
     1
 40
0.6
176
     1
 40
30.0
176
     1
 62
     7
420
 16777215
176
     1
 90
        0
176
     1
 90
        0
176
     1
 62
     7
176
     1
 62
   257
176
     1
 90
        1
176
     1
 90
        1
176
     1
 40
1.0
176
     1
 90
        0
176
     1
 62
     7
176
     1
 40
1.0
176
     1
 90
        1
176
     1
 90
        6
176
     1
 90
        2
176
     1
 62
     7
176
     1
 90
        5
176
     1
 90
        0
176
     1
 90
        0
176
     1
290
     0
176
     1
 90
       13
176
     1
 40
0.0
176
     1
 90
        0
176
     1
290
     0
176
     1
290
     1
176
     1
290
     1
176
     1
290
     0
176
     1
290
     0
176
     1
290
     0
176
     1
290
     0
176
     1
290
     0
176
     1
290
     0
176
     1
 90
       50
176
     1
 40
0.0
176
     1
 40
1.0
176
     1
 90
        0
176
     1
 62
    18
420
        0
176
     1
 90
       50
176
     1
 90
        3
176
     1
 62
     5
420
      255
176
     1
290
     0
176
     1
 90
       50
176
     1
 90
       50
176
     1
 90
       50
176
     1
290
     0
176
     1
 90
       50
176
     1
 62
   256
176
     0
 40
1.0
176
     0
 90
        2
176
     1
  1
strokes_ogs.tif
176
     1
290
     0
176
     1
 40
1.0
176
     1
 40
1.0
176
     1
  0
VISUALSTYLE
  5
2D
102
{ACAD_REACTORS
330
29
102
}
330
29
100
AcDbVisualStyle
  2
GouraudWithEdges
 70
     3
177
     3
291
     1
 70
    58
 90
        2
176
     1
 90
        2
176
     1
 90
        1
176
     1
 90
        2
176
     1
 40
0.6
176
     1
 40
30.0
176
     1
 62
     7
420
 16777215
176
     1
 90
        1
176
     1
 90
        0
176
     1
 62
     7
176
     1
 62
   257
176
     1
 90
        1
176
     1
 90
        1
176
     1
 40
1.0
176
     1
 90
        0
176
     1
 62
   257
176
     1
 40
1.0
176
     1
 90
        1
176
     1
 90
        6
176
     1
 90
        2
176
     1
 62
     7
176
     1
 90
        5
176
     1
 90
        0
176
     1
 90
        0
176
     1
290
     0
176
     1
 90
       13
176
     1
 40
0.0
176
     1
 90
        0
176
     1
290
     0
176
     1
290
     1
176
     1
290
     1
176
     1
290
     0
176
     1
290
     0
176
     1
290
     0
176
     1
290
     0
176
     1
290
     0
176
     1
290
     0
176
     1
 90
       50
176
     1
 40
0.0
176
     1
 40
1.0
176
     1
 90
        0
176
     1
 62
    18
420
        0
176
     1
 90
       50
176
     1
 90
        3
176
     1
 62
     5
420
      255
176
     1
290
     0
176
     1
 90
       50
176
     1
 90
       50
176
     1
 90
       50
176
     1
290
     0
176
     1
 90
       50
176
     1
 62
   256
176
     0
 40
1.0
176
     0
 90
        2
176
     1
  1
strokes_ogs.tif
176
     1
290
     0
176
     1
 40
1.0
176
     1
 40
1.0
176
     1
  0
VISUALSTYLE
  5
31
102
{ACAD_REACTORS
330
29
102
}
330
29
100
AcDbVisualStyle
  2
Hidden
 70
     6
177
     3
291
     0
 70
    58
 90
        1
176
     1
 90
        2
176
     1
 90
        2
176
     1
 90
        0
176
     1
 40
0.6
176
     1
 40
30.0
176
     1
 62
     7
420
 16777215
176
     1
 90
        2
176
     1
 90
        2
176
     1
 62
     7
176
     1
 62
   257
176
     1
 90
        2
176
     1
 90
        1
176
     1
 40
40.0
176
     1
 90
        0
176
     1
 62
   257
176
     1
 40
1.0
176
     1
 90
        1
176
     1
 90
        6
176
     1
 90
        2
176
     1
 62
     7
176
     1
 90
        3
176
     1
 90
        0
176
     1
 90
        0
176
     1
290
     0
176
     1
 90
        1
176
     1
 40
0.0
176
     1
 90
        0
176
     1
290
     0
176
     1
290
     1
176
     1
290
     1
176
     1
290
     0
176
     1
290
     0
176
     1
290
     0
176
     1
290
     0
176
     1
290
     0
176
     1
290
     0
176
     1
 90
       50
176
     1
 40
0.0
176
     1
 40
1.0
176
     1
 90
        0
176
     1
 62
    18
420
        0
176
     1
 90
       50
176
     1
 90
        3
176
     1
 62
     5
420
      255
176
     1
290
     0
176
     1
 90
       50
176
     1
 90
       50
176
     1
 90
       50
176
     1
290
     0
176
     1
 90
       50
176
     1
 62
   256
176
     0
 40
1.0
176
     0
 90
        2
176
     1
  1
strokes_ogs.tif
176
     1
290
     0
176
     1
 40
1.0
176
     1
 40
1.0
176
     1
  0
VISUALSTYLE
  5
3F
102
{ACAD_REACTORS
330
29
102
}
330
29
100
AcDbVisualStyle
  2
JitterOff
 70
    20
177
     3
291
     1
 70
    58
 90
        2
176
     0
 90
        2
176
     0
 90
        0
176
     0
 90
        0
176
     0
 40
0.6
176
     0
 40
30.0
176
     0
 62
     7
420
 16777215
176
     0
 90
        1
176
     0
 90
        4
176
     0
 62
     7
176
     0
 62
   257
176
     0
 90
        1
176
     0
 90
        1
176
     0
 40
1.0
176
     0
 90
       10
176
     2
 62
     7
176
     0
 40
1.0
176
     0
 90
        1
176
     0
 90
        6
176
     0
 90
        2
176
     0
 62
     7
176
     0
 90
        5
176
     0
 90
        0
176
     0
 90
        0
176
     0
290
     0
176
     0
 90
        1
176
     0
 40
0.0
176
     0
 90
        0
176
     0
290
     0
176
     1
290
     1
176
     1
290
     1
176
     1
290
     0
176
     1
290
     0
176
     1
290
     0
176
     1
290
     0
176
     1
290
     0
176
     1
290
     0
176
     1
 90
       50
176
     0
 40
0.0
176
     0
 40
1.0
176
     0
 90
        0
176
     0
 62
    18
420
        0
176
     0
 90
       50
176
     0
 90
        3
176
     0
 62
     5
420
      255
176
     0
290
     0
176
     1
 90
       50
176
     0
 90
       50
176
     0
 90
       50
176
     0
290
     0
176
     1
 90
       50
176
     0
 62
   256
176
     0
 40
1.0
176
     0
 90
        2
176
     0
  1
strokes_ogs.tif
176
     0
290
     0
176
     1
 40
1.0
176
     0
 40
1.0
176
     0
  0
VISUALSTYLE
  5
37
102
{ACAD_REACTORS
330
29
102
}
330
29
100
AcDbVisualStyle
  2
Linepattern
 70
    14
177
     3
291
     1
 70
    58
 90
        2
176
     1
 90
        2
176
     1
 90
        0
176
     1
 90
        0
176
     1
 40
0.6
176
     1
 40
30.0
176
     1
 62
     7
420
 16777215
176
     1
 90
        1
176
     1
 90
        4
176
     1
 62
     7
176
     1
 62
   257
176
     1
 90
        7
176
     1
 90
        7
176
     1
 40
1.0
176
     1
 90
        8
176
     1
 62
     7
176
     1
 40
1.0
176
     1
 90
        1
176
     1
 90
        6
176
     1
 90
        2
176
     1
 62
     7
176
     1
 90
        5
176
     1
 90
        0
176
     1
 90
        0
176
     1
290
     0
176
     1
 90
        1
176
     1
 40
0.0
176
     1
 90
        0
176
     1
290
     0
176
     1
290
     1
176
     1
290
     1
176
     1
290
     0
176
     1
290
     0
176
     1
290
     0
176
     1
290
     0
176
     1
290
     0
176
     1
290
     0
176
     1
 90
       50
176
     1
 40
0.0
176
     1
 40
1.0
176
     1
 90
        0
176
     1
 62
    18
420
        0
176
     1
 90
       50
176
     1
 90
        3
176
     1
 62
     5
420
      255
176
     1
290
     0
176
     1
 90
       50
176
     1
 90
       50
176
     1
 90
       50
176
     1
290
     0
176
     1
 90
       50
176
     1
 62
   256
176
     0
 40
1.0
176
     0
 90
        2
176
     1
  1
strokes_ogs.tif
176
     1
290
     0
176
     1
 40
1.0
176
     1
 40
1.0
176
     1
  0
VISUALSTYLE
  5
40
102
{ACAD_REACTORS
330
29
102
}
330
29
100
AcDbVisualStyle
  2
OverhangOff
 70
    21
177
     3
291
     1
 70
    58
 90
        2
176
     0
 90
        2
176
     0
 90
        0
176
     0
 90
        0
176
     0
 40
0.6
176
     0
 40
30.0
176
     0
 62
     7
420
 16777215
176
     0
 90
        1
176
     0
 90
        4
176
     0
 62
     7
176
     0
 62
   257
176
     0
 90
        1
176
     0
 90
        1
176
     0
 40
1.0
176
     0
 90
        9
176
     2
 62
     7
176
     0
 40
1.0
176
     0
 90
        1
176
     0
 90
        6
176
     0
 90
        2
176
     0
 62
     7
176
     0
 90
        5
176
     0
 90
        0
176
     0
 90
        0
176
     0
290
     0
176
     0
 90
        1
176
     0
 40
0.0
176
     0
 90
        0
176
     0
290
     0
176
     1
290
     1
176
     1
290
     1
176
     1
290
     0
176
     1
290
     0
176
     1
290
     0
176
     1
290
     0
176
     1
290
     0
176
     1
290
     0
176
     1
 90
       50
176
     0
 40
0.0
176
     0
 40
1.0
176
     0
 90
        0
176
     0
 62
    18
420
        0
176
     0
 90
       50
176
     0
 90
        3
176
     0
 62
     5
420
      255
176
     0
290
     0
176
     1
 90
       50
176
     0
 90
       50
176
     0
 90
       50
176
     0
290
     0
176
     1
 90
       50
176
     0
 62
   256
176
     0
 40
1.0
176
     0
 90
        2
176
     0
  1
strokes_ogs.tif
176
     0
290
     0
176
     1
 40
1.0
176
     0
 40
1.0
176
     0
  0
VISUALSTYLE
  5
33
102
{ACAD_REACTORS
330
29
102
}
330
29
100
AcDbVisualStyle
  2
Realistic
 70
     8
177
     3
291
     0
 70
    58
 90
        2
176
     1
 90
        3
176
     1
 90
        0
176
     1
 90
        2
176
     1
 40
0.6
176
     1
 40
30.0
176
     1
 62
     7
420
 16777215
176
     1
 90
        0
176
     1
 90
        0
176
     1
 62
     7
176
     1
 62
   257
176
     1
 90
        1
176
     1
 90
        1
176
     1
 40
1.0
176
     1
 90
        8
176
     1
 62
   257
176
     1
 40
1.0
176
     1
 90
        1
176
     1
 90
        6
176
     1
 90
        2
176
     1
 62
     7
176
     1
 90
        3
176
     1
 90
        0
176
     1
 90
        0
176
     1
290
     0
176
     1
 90
       13
176
     1
 40
0.0
176
     1
 90
        0
176
     1
290
     0
176
     1
290
     1
176
     1
290
     1
176
     1
290
     0
176
     1
290
     0
176
     1
290
     0
176
     1
290
     0
176
     1
290
     0
176
     1
290
     0
176
     1
 90
       50
176
     1
 40
0.0
176
     1
 40
1.0
176
     1
 90
        0
176
     1
 62
    18
420
        0
176
     1
 90
       50
176
     1
 90
        3
176
     1
 62
     5
420
      255
176
     1
290
     0
176
     1
 90
       50
176
     1
 90
       50
176
     1
 90
       50
176
     1
290
     0
176
     1
 90
       50
176
     1
 62
   256
176
     0
 40
1.0
176
     0
 90
        2
176
     1
  1
strokes_ogs.tif
176
     1
290
     0
176
     1
 40
1.0
176
     1
 40
1.0
176
     1
  0
VISUALSTYLE
  5
3E
102
{ACAD_REACTORS
330
29
102
}
330
29
100
AcDbVisualStyle
  2
Shaded
 70
    27
177
     3
291
     0
 70
    58
 90
        2
176
     1
 90
        2
176
     1
 90
        1
176
     1
 90
        2
176
     1
 40
0.6
176
     1
 40
30.0
176
     1
 62
     7
420
 16777215
176
     1
 90
        0
176
     1
 90
        4
176
     1
 62
     7
176
     1
 62
   257
176
     1
 90
        1
176
     1
 90
        1
176
     1
 40
1.0
176
     1
 90
        8
176
     1
 62
   257
176
     1
 40
1.0
176
     1
 90
        1
176
     1
 90
        6
176
     1
 90
        2
176
     1
 62
     8
420
  7895160
176
     1
 90
        3
176
     1
 90
        0
176
     1
 90
        0
176
     1
290
     0
176
     1
 90
        5
176
     1
 40
0.0
176
     1
 90
        0
176
     1
290
     0
176
     1
290
     1
176
     1
290
     1
176
     1
290
     0
176
     1
290
     0
176
     1
290
     0
176
     1
290
     0
176
     1
290
     0
176
     1
290
     0
176
     1
 90
       50
176
     1
 40
0.0
176
     1
 40
1.0
176
     1
 90
        0
176
     1
 62
    18
420
        0
176
     1
 90
       50
176
     1
 90
        3
176
     1
 62
     5
420
      255
176
     1
290
     0
176
     1
 90
       50
176
     1
 90
       50
176
     1
 90
       50
176
     1
290
     0
176
     1
 90
       50
176
     1
 62
   256
176
     0
 40
1.0
176
     0
 90
        2
176
     1
  1
strokes_ogs.tif
176
     1
290
     0
176
     1
 40
1.0
176
     1
 40
1.0
176
     1
  0
VISUALSTYLE
  5
3D
102
{ACAD_REACTORS
330
29
102
}
330
29
100
AcDbVisualStyle
  2
Shaded with edges
 70
    26
177
     3
291
     0
 70
    58
 90
        2
176
     1
 90
        2
176
     1
 90
        1
176
     1
 90
        2
176
     1
 40
0.6
176
     1
 40
30.0
176
     1
 62
     7
420
 16777215
176
     1
 90
        1
176
     1
 90
       10
176
     1
 62
     7
176
     1
 62
   257
176
     1
 90
        2
176
     1
 90
        1
176
     1
 40
1.0
176
     1
 90
        8
176
     1
 62
   257
176
     1
 40
1.0
176
     1
 90
        1
176
     1
 90
        6
176
     1
 90
        2
176
     1
 62
     7
176
     1
 90
        3
176
     1
 90
        0
176
     1
 90
        0
176
     1
290
     0
176
     1
 90
        5
176
     1
 40
0.0
176
     1
 90
        0
176
     1
290
     0
176
     1
290
     1
176
     1
290
     1
176
     1
290
     0
176
     1
290
     0
176
     1
290
     0
176
     1
290
     0
176
     1
290
     0
176
     1
290
     0
176
     1
 90
       50
176
     1
 40
0.0
176
     1
 40
1.0
176
     1
 90
        0
176
     1
 62
    18
420
        0
176
     1
 90
       50
176
     1
 90
        3
176
     1
 62
     5
420
      255
176
     1
290
     0
176
     1
 90
       50
176
     1
 90
       50
176
     1
 90
       50
176
     1
290
     0
176
     1
 90
       50
176
     1
 62
   256
176
     0
 40
1.0
176
     0
 90
        2
176
     1
  1
strokes_ogs.tif
176
     1
290
     0
176
     1
 40
1.0
176
     1
 40
1.0
176
     1
  0
VISUALSTYLE
  5
3A
102
{ACAD_REACTORS
330
29
102
}
330
29
100
AcDbVisualStyle
  2
Shades of Gray
 70
    23
177
     3
291
     0
 70
    58
 90
        2
176
     1
 90
        2
176
     1
 90
        3
176
     1
 90
        0
176
     1
 40
0.6
176
     1
 40
30.0
176
     1
 62
     7
420
 16777215
176
     1
 90
        2
176
     1
 90
        2
176
     1
 62
     7
176
     1
 62
     7
176
     1
 90
        1
176
     1
 90
        1
176
     1
 40
40.0
176
     1
 90
        8
176
     1
 62
     7
176
     1
 40
1.0
176
     1
 90
        1
176
     1
 90
        6
176
     1
 90
        2
176
     1
 62
     7
176
     1
 90
        3
176
     1
 90
        0
176
     1
 90
        0
176
     1
290
     0
176
     1
 90
        1
176
     1
 40
0.0
176
     1
 90
        0
176
     1
290
     0
176
     1
290
     1
176
     1
290
     1
176
     1
290
     0
176
     1
290
     0
176
     1
290
     0
176
     1
290
     0
176
     1
290
     0
176
     1
290
     0
176
     1
 90
       50
176
     1
 40
0.0
176
     1
 40
1.0
176
     1
 90
        0
176
     1
 62
    18
420
        0
176
     1
 90
       50
176
     1
 90
        3
176
     1
 62
     5
420
      255
176
     1
290
     0
176
     1
 90
       50
176
     1
 90
       50
176
     1
 90
       50
176
     1
290
     0
176
     1
 90
       50
176
     1
 62
   256
176
     0
 40
1.0
176
     0
 90
        2
176
     1
  1
strokes_ogs.tif
176
     1
290
     0
176
     1
 40
1.0
176
     1
 40
1.0
176
     1
  0
VISUALSTYLE
  5
3B
102
{ACAD_REACTORS
330
29
102
}
330
29
100
AcDbVisualStyle
  2
Sketchy
 70
    24
177
     3
291
     0
 70
    58
 90
        1
176
     1
 90
        2
176
     1
 90
        2
176
     1
 90
        0
176
     1
 40
0.6
176
     1
 40
30.0
176
     1
 62
     7
420
 16777215
176
     1
 90
        2
176
     1
 90
        2
176
     1
 62
     7
176
     1
 62
     7
176
     1
 90
        1
176
     1
 90
        1
176
     1
 40
40.0
176
     1
 90
       11
176
     1
 62
     7
176
     1
 40
1.0
176
     1
 90
        1
176
     1
 90
        6
176
     1
 90
        2
176
     1
 62
     7
176
     1
 90
        6
176
     1
 90
        0
176
     1
 90
        0
176
     1
290
     0
176
     1
 90
        1
176
     1
 40
0.0
176
     1
 90
        0
176
     1
290
     0
176
     1
290
     1
176
     1
290
     1
176
     1
290
     0
176
     1
290
     0
176
     1
290
     0
176
     1
290
     0
176
     1
290
     0
176
     1
290
     0
176
     1
 90
       50
176
     1
 40
0.0
176
     1
 40
1.0
176
     1
 90
        0
176
     1
 62
    18
420
        0
176
     1
 90
       50
176
     1
 90
        3
176
     1
 62
     5
420
      255
176
     1
290
     0
176
     1
 90
       50
176
     1
 90
       50
176
     1
 90
       50
176
     1
290
     0
176
     1
 90
       50
176
     1
 62
   256
176
     0
 40
1.0
176
     0
 90
        2
176
     1
  1
strokes_ogs.tif
176
     1
290
     0
176
     1
 40
1.0
176
     1
 40
1.0
176
     1
  0
VISUALSTYLE
  5
36
102
{ACAD_REACTORS
330
29
102
}
330
29
100
AcDbVisualStyle
  2
Thicken
 70
    13
177
     3
291
     1
 70
    58
 90
        2
176
     1
 90
        2
176
     1
 90
        0
176
     1
 90
        0
176
     1
 40
0.6
176
     1
 40
30.0
176
     1
 62
     7
420
 16777215
176
     1
 90
        1
176
     1
 90
        4
176
     1
 62
     7
176
     1
 62
   257
176
     1
 90
        1
176
     1
 90
        1
176
     1
 40
1.0
176
     1
 90
       12
176
     1
 62
     7
176
     1
 40
1.0
176
     1
 90
        1
176
     1
 90
        6
176
     1
 90
        2
176
     1
 62
     7
176
     1
 90
        5
176
     1
 90
        0
176
     1
 90
        0
176
     1
290
     0
176
     1
 90
        1
176
     1
 40
0.0
176
     1
 90
        0
176
     1
290
     0
176
     1
290
     1
176
     1
290
     1
176
     1
290
     0
176
     1
290
     0
176
     1
290
     0
176
     1
290
     0
176
     1
290
     0
176
     1
290
     0
176
     1
 90
       50
176
     1
 40
0.0
176
     1
 40
1.0
176
     1
 90
        0
176
     1
 62
    18
420
        0
176
     1
 90
       50
176
     1
 90
        3
176
     1
 62
     5
420
      255
176
     1
290
     0
176
     1
 90
       50
176
     1
 90
       50
176
     1
 90
       50
176
     1
290
     0
176
     1
 90
       50
176
     1
 62
   256
176
     0
 40
1.0
176
     0
 90
        2
176
     1
  1
strokes_ogs.tif
176
     1
290
     0
176
     1
 40
1.0
176
     1
 40
1.0
176
     1
  0
VISUALSTYLE
  5
30
102
{ACAD_REACTORS
330
29
102
}
330
29
100
AcDbVisualStyle
  2
Wireframe
 70
     5
177
     3
291
     0
 70
    58
 90
        0
176
     1
 90
        2
176
     1
 90
        0
176
     1
 90
        0
176
     1
 40
0.6
176
     1
 40
30.0
176
     1
 62
     7
420
 16777215
176
     1
 90
        1
176
     1
 90
        4
176
     1
 62
     7
176
     1
 62
   257
176
     1
 90
        1
176
     1
 90
        1
176
     1
 40
1.0
176
     1
 90
        0
176
     1
 62
   257
176
     1
 40
1.0
176
     1
 90
        1
176
     1
 90
        6
176
     1
 90
        2
176
     1
 62
     7
176
     1
 90
        3
176
     1
 90
        0
176
     1
 90
        0
176
     1
290
     0
176
     1
 90
        1
176
     1
 40
0.0
176
     1
 90
        0
176
     1
290
     0
176
     1
290
     1
176
     1
290
     1
176
     1
290
     0
176
     1
290
     0
176
     1
290
     0
176
     1
290
     0
176
     1
290
     0
176
     1
290
     0
176
     1
 90
       50
176
     1
 40
0.0
176
     1
 40
1.0
176
     1
 90
        0
176
     1
 62
    18
420
        0
176
     1
 90
       50
176
     1
 90
        3
176
     1
 62
     5
420
      255
176
     1
290
     0
176
     1
 90
       50
176
     1
 90
       50
176
     1
 90
       50
176
     1
290
     0
176
     1
 90
       50
176
     1
 62
   256
176
     0
 40
1.0
176
     0
 90
        2
176
     1
  1
strokes_ogs.tif
176
     1
290
     0
176
     1
 40
1.0
176
     1
 40
1.0
176
     1
  0
VISUALSTYLE
  5
3C
102
{ACAD_REACTORS
330
29
102
}
330
29
100
AcDbVisualStyle
  2
X-Ray
 70
    25
177
     3
291
     0
 70
    58
 90
        2
176
     1
 90
        2
176
     1
 90
        1
176
     1
 90
        1
176
     1
 40
0.5
176
     1
 40
30.0
176
     1
 62
     7
420
 16777215
176
     1
 90
        1
176
     1
 90
        0
176
     1
 62
     7
176
     1
 62
   257
176
     1
 90
        1
176
     1
 90
        1
176
     1
 40
1.0
176
     1
 90
        8
176
     1
 62
     7
176
     1
 40
1.0
176
     1
 90
        1
176
     1
 90
        6
176
     1
 90
        2
176
     1
 62
     7
176
     1
 90
        3
176
     1
 90
        0
176
     1
 90
        0
176
     1
290
     0
176
     1
 90
       13
176
     1
 40
0.0
176
     1
 90
        0
176
     1
290
     0
176
     1
290
     1
176
     1
290
     1
176
     1
290
     0
176
     1
290
     0
176
     1
290
     0
176
     1
290
     0
176
     1
290
     0
176
     1
290
     0
176
     1
 90
       50
176
     1
 40
0.0
176
     1
 40
1.0
176
     1
 90
        0
176
     1
 62
    18
420
        0
176
     1
 90
       50
176
     1
 90
        3
176
     1
 62
     5
420
      255
176
     1
290
     0
176
     1
 90
       50
176
     1
 90
       50
176
     1
 90
       50
176
     1
290
     0
176
     1
 90
       50
176
     1
 62
   256
176
     0
 40
1.0
176
     0
 90
        2
176
     1
  1
strokes_ogs.tif
176
     1
290
     0
176
     1
 40
1.0
176
     1
 40
1.0
176
     1
  0
DICTIONARYVAR
  5
8C0
102
{ACAD_REACTORS
330
8BA
102
}
330
8BA
100
DictionaryVariables
280
     0
  1
1:1
  0
DICTIONARYVAR
  5
8BC
102
{ACAD_REACTORS
330
8BA
102
}
330
8BA
100
DictionaryVariables
280
     0
  1
STANDARD
  0
DICTIONARYVAR
  5
8BB
102
{ACAD_REACTORS
330
8BA
102
}
330
8BA
100
DictionaryVariables
280
     0
  1
STANDARD
  0
DICTIONARYVAR
  5
8BD
102
{ACAD_REACTORS
330
8BA
102
}
330
8BA
100
DictionaryVariables
280
     0
  1
Imperial24
  0
DICTIONARYVAR
  5
8BE
102
{ACAD_REACTORS
330
8BA
102
}
330
8BA
100
DictionaryVariables
280
     0
  1
Imperial24
  0
DICTIONARYVAR
  5
8C2
102
{ACAD_REACTORS
330
8BA
102
}
330
8BA
100
DictionaryVariables
280
     0
  1
1
  0
DICTIONARYVAR
  5
8C3
102
{ACAD_REACTORS
330
8BA
102
}
330
8BA
100
DictionaryVariables
280
     0
  1
15
  0
DICTIONARYVAR
  5
8C1
102
{ACAD_REACTORS
330
8BA
102
}
330
8BA
100
DictionaryVariables
280
     0
  1
0
  0
DICTIONARYVAR
  5
8BF
102
{ACAD_REACTORS
330
8BA
102
}
330
8BA
100
DictionaryVariables
280
     0
  1
0
  0
DICTIONARY
  5
1A
330
19
100
AcDbDictionary
280
     1
281
     1
  3
BUMPTILE
360
1C
  3
DIFFUSETILE
360
1B
  3
OPACITYTILE
360
1F
  3
REFLECTIONTILE
360
1E
  3
REFRACTIONTILE
360
20
  3
SPECULARTILE
360
1D
  0
DICTIONARY
  5
12
330
11
100
AcDbDictionary
280
     1
281
     1
  3
BUMPTILE
360
14
  3
DIFFUSETILE
360
13
  3
OPACITYTILE
360
17
  3
REFLECTIONTILE
360
16
  3
REFRACTIONTILE
360
18
  3
SPECULARTILE
360
15
  0
DICTIONARY
  5
22
330
21
100
AcDbDictionary
280
     1
281
     1
  3
BUMPTILE
360
24
  3
DIFFUSETILE
360
23
  3
OPACITYTILE
360
27
  3
REFLECTIONTILE
360
26
  3
REFRACTIONTILE
360
28
  3
SPECULARTILE
360
25
  0
DICTIONARY
  5
8C4
330
64
100
AcDbDictionary
280
     1
281
     1
  3
ACAD_ROUNDTRIP_2008_TABLESTYLE_CELLSTYLEMAP
360
8C5
  0
XRECORD
  5
1C
102
{ACAD_REACTORS
330
1A
102
}
330
1A
100
AcDbXrecord
280
     1
270
     1
271
     1
  0
XRECORD
  5
1B
102
{ACAD_REACTORS
330
1A
102
}
330
1A
100
AcDbXrecord
280
     1
270
     1
271
     1
  0
XRECORD
  5
1F
102
{ACAD_REACTORS
330
1A
102
}
330
1A
100
AcDbXrecord
280
     1
270
     1
271
     1
  0
XRECORD
  5
1E
102
{ACAD_REACTORS
330
1A
102
}
330
1A
100
AcDbXrecord
280
     1
270
     1
271
     1
  0
XRECORD
  5
20
102
{ACAD_REACTORS
330
1A
102
}
330
1A
100
AcDbXrecord
280
     1
270
     1
271
     1
  0
XRECORD
  5
1D
102
{ACAD_REACTORS
330
1A
102
}
330
1A
100
AcDbXrecord
280
     1
270
     1
271
     1
  0
XRECORD
  5
14
102
{ACAD_REACTORS
330
12
102
}
330
12
100
AcDbXrecord
280
     1
270
     1
271
     1
  0
XRECORD
  5
13
102
{ACAD_REACTORS
330
12
102
}
330
12
100
AcDbXrecord
280
     1
270
     1
271
     1
  0
XRECORD
  5
17
102
{ACAD_REACTORS
330
12
102
}
330
12
100
AcDbXrecord
280
     1
270
     1
271
     1
  0
XRECORD
  5
16
102
{ACAD_REACTORS
330
12
102
}
330
12
100
AcDbXrecord
280
     1
270
     1
271
     1
  0
XRECORD
  5
18
102
{ACAD_REACTORS
330
12
102
}
330
12
100
AcDbXrecord
280
     1
270
     1
271
     1
  0
XRECORD
  5
15
102
{ACAD_REACTORS
330
12
102
}
330
12
100
AcDbXrecord
280
     1
270
     1
271
     1
  0
XRECORD
  5
24
102
{ACAD_REACTORS
330
22
102
}
330
22
100
AcDbXrecord
280
     1
270
     1
271
     1
  0
XRECORD
  5
23
102
{ACAD_REACTORS
330
22
102
}
330
22
100
AcDbXrecord
280
     1
270
     1
271
     1
  0
XRECORD
  5
27
102
{ACAD_REACTORS
330
22
102
}
330
22
100
AcDbXrecord
280
     1
270
     1
271
     1
  0
XRECORD
  5
26
102
{ACAD_REACTORS
330
22
102
}
330
22
100
AcDbXrecord
280
     1
270
     1
271
     1
  0
XRECORD
  5
28
102
{ACAD_REACTORS
330
22
102
}
330
22
100
AcDbXrecord
280
     1
270
     1
271
     1
  0
XRECORD
  5
25
102
{ACAD_REACTORS
330
22
102
}
330
22
100
AcDbXrecord
280
     1
270
     1
271
     1
  0
CELLSTYLEMAP
  5
8C5
102
{ACAD_REACTORS
330
8C4
102
}
330
8C4
100
AcDbCellStyleMap
 90
        3
300
CELLSTYLE
  1
TABLEFORMAT_BEGIN
 90
        5
170
     1
 91
        0
 92
    32768
 62
   257
 93
        1
300
CONTENTFORMAT
  1
CONTENTFORMAT_BEGIN
 90
        0
 91
        0
 92
      512
 93
        0
300

 40
0.0
140
1.0
 94
        5
 62
     0
340
55
144
0.25
309
CONTENTFORMAT_END
171
     0
 94
        0
309
TABLEFORMAT_END
  1
CELLSTYLE_BEGIN
 90
        1
 91
        1
300
_TITLE
309
CELLSTYLE_END
300
CELLSTYLE
  1
TABLEFORMAT_BEGIN
 90
        5
170
     1
 91
        0
 92
        0
 62
   257
 93
        1
300
CONTENTFORMAT
  1
CONTENTFORMAT_BEGIN
 90
        0
 91
        0
 92
      512
 93
        0
300

 40
0.0
140
1.0
 94
        5
 62
     0
340
55
144
0.18
309
CONTENTFORMAT_END
171
     0
 94
        0
309
TABLEFORMAT_END
  1
CELLSTYLE_BEGIN
 90
        2
 91
        1
300
_HEADER
309
CELLSTYLE_END
300
CELLSTYLE
  1
TABLEFORMAT_BEGIN
 90
        5
170
     1
 91
        0
 92
        0
 62
   257
 93
        1
300
CONTENTFORMAT
  1
CONTENTFORMAT_BEGIN
 90
        0
 91
        0
 92
      512
 93
        0
300

 40
0.0
140
1.0
 94
        2
 62
     0
340
55
144
0.18
309
CONTENTFORMAT_END
171
     0
 94
        0
309
TABLEFORMAT_END
  1
CELLSTYLE_BEGIN
 90
        3
 91
        2
300
_DATA
309
CELLSTYLE_END
  0
ENDSEC
  0
EOF
