  0
SECTION
  2
HEADER
  9
$ACADVER
  1
AC1027
  9
$ACADMAINTVER
 70
     8
  9
$DWGCODEPAGE
  3
ANSI_1252
  9
$LASTSAVEDBY
  1
Amelia
  9
$REQUIREDVERSIONS
160
                 0
  9
$INSBASE
 10
0.0
 20
0.0
 30
0.0
  9
$EXTMIN
 10
-56.94622009999999
 20
-56.9936462
 30
0.0
  9
$EXTMAX
 10
56.9999379
 20
56.9936462
 30
0.0
  9
$LIMMIN
 10
0.0
 20
0.0
  9
$LIMMAX
 10
12.0
 20
9.0
  9
$ORTHOMODE
 70
     0
  9
$REGENMODE
 70
     1
  9
$FILLMODE
 70
     1
  9
$QTEXTMODE
 70
     0
  9
$MIRRTEXT
 70
     0
  9
$LTSCALE
 40
1.0
  9
$ATTMODE
 70
     1
  9
$TEXTSIZE
 40
0.2
  9
$TRACEWID
 40
0.05
  9
$TEXTSTYLE
  7
Standard
  9
$CLAYER
  8
0
  9
$CELTYPE
  6
Continuous
  9
$CECOLOR
 62
   256
  9
$CELTSCALE
 40
1.0
  9
$DISPSILH
 70
     0
  9
$DIMSCALE
 40
1.0
  9
$DIMASZ
 40
0.18
  9
$DIMEXO
 40
0.0625
  9
$DIMDLI
 40
0.38
  9
$DIMRND
 40
0.0
  9
$DIMDLE
 40
0.0
  9
$DIMEXE
 40
0.18
  9
$DIMTP
 40
0.0
  9
$DIMTM
 40
0.0
  9
$DIMTXT
 40
0.18
  9
$DIMCEN
 40
0.09
  9
$DIMTSZ
 40
0.0
  9
$DIMTOL
 70
     0
  9
$DIMLIM
 70
     0
  9
$DIMTIH
 70
     1
  9
$DIMTOH
 70
     1
  9
$DIMSE1
 70
     0
  9
$DIMSE2
 70
     0
  9
$DIMTAD
 70
     0
  9
$DIMZIN
 70
     0
  9
$DIMBLK
  1

  9
$DIMASO
 70
     1
  9
$DIMSHO
 70
     1
  9
$DIMPOST
  1

  9
$DIMAPOST
  1

  9
$DIMALT
 70
     0
  9
$DIMALTD
 70
     2
  9
$DIMALTF
 40
25.4
  9
$DIMLFAC
 40
1.0
  9
$DIMTOFL
 70
     0
  9
$DIMTVP
 40
0.0
  9
$DIMTIX
 70
     0
  9
$DIMSOXD
 70
     0
  9
$DIMSAH
 70
     0
  9
$DIMBLK1
  1

  9
$DIMBLK2
  1

  9
$DIMSTYLE
  2
Standard
  9
$DIMCLRD
 70
     0
  9
$DIMCLRE
 70
     0
  9
$DIMCLRT
 70
     0
  9
$DIMTFAC
 40
1.0
  9
$DIMGAP
 40
0.09
  9
$DIMJUST
 70
     0
  9
$DIMSD1
 70
     0
  9
$DIMSD2
 70
     0
  9
$DIMTOLJ
 70
     1
  9
$DIMTZIN
 70
     0
  9
$DIMALTZ
 70
     0
  9
$DIMALTTZ
 70
     0
  9
$DIMUPT
 70
     0
  9
$DIMDEC
 70
     4
  9
$DIMTDEC
 70
     4
  9
$DIMALTU
 70
     2
  9
$DIMALTTD
 70
     2
  9
$DIMTXSTY
  7
Standard
  9
$DIMAUNIT
 70
     0
  9
$DIMADEC
 70
     0
  9
$DIMALTRND
 40
0.0
  9
$DIMAZIN
 70
     0
  9
$DIMDSEP
 70
    46
  9
$DIMATFIT
 70
     3
  9
$DIMFRAC
 70
     0
  9
$DIMLDRBLK
  1

  9
$DIMLUNIT
 70
     2
  9
$DIMLWD
 70
    -2
  9
$DIMLWE
 70
    -2
  9
$DIMTMOVE
 70
     0
  9
$DIMFXL
 40
1.0
  9
$DIMFXLON
 70
     0
  9
$DIMJOGANG
 40
0.7853981633974483
  9
$DIMTFILL
 70
     0
  9
$DIMTFILLCLR
 70
     0
  9
$DIMARCSYM
 70
     0
  9
$DIMLTYPE
  6

  9
$DIMLTEX1
  6

  9
$DIMLTEX2
  6

  9
$DIMTXTDIRECTION
 70
     0
  9
$LUNITS
 70
     2
  9
$LUPREC
 70
     4
  9
$SKETCHINC
 40
0.1
  9
$FILLETRAD
 40
0.0
  9
$AUNITS
 70
     0
  9
$AUPREC
 70
     0
  9
$MENU
  1
.
  9
$ELEVATION
 40
0.0
  9
$PELEVATION
 40
0.0
  9
$THICKNESS
 40
0.0
  9
$LIMCHECK
 70
     0
  9
$CHAMFERA
 40
0.0
  9
$CHAMFERB
 40
0.0
  9
$CHAMFERC
 40
0.0
  9
$CHAMFERD
 40
0.0
  9
$SKPOLY
 70
     0
  9
$TDCREATE
 40
2456558.974527002
  9
$TDUCREATE
 40
2456558.557860336
  9
$TDUPDATE
 40
2456558.974879178
  9
$TDUUPDATE
 40
2456558.558212512
  9
$TDINDWG
 40
0.0003527199
  9
$TDUSRTIMER
 40
0.0003527199
  9
$USRTIMER
 70
     1
  9
$ANGBASE
 50
0.0
  9
$ANGDIR
 70
     0
  9
$PDMODE
 70
     0
  9
$PDSIZE
 40
0.0
  9
$PLINEWID
 40
0.0
  9
$SPLFRAME
 70
     0
  9
$SPLINETYPE
 70
     6
  9
$SPLINESEGS
 70
     8
  9
$HANDSEED
  5
8FB
  9
$SURFTAB1
 70
     6
  9
$SURFTAB2
 70
     6
  9
$SURFTYPE
 70
     6
  9
$SURFU
 70
     6
  9
$SURFV
 70
     6
  9
$UCSBASE
  2

  9
$UCSNAME
  2

  9
$UCSORG
 10
0.0
 20
0.0
 30
0.0
  9
$UCSXDIR
 10
1.0
 20
0.0
 30
0.0
  9
$UCSYDIR
 10
0.0
 20
1.0
 30
0.0
  9
$UCSORTHOREF
  2

  9
$UCSORTHOVIEW
 70
     0
  9
$UCSORGTOP
 10
0.0
 20
0.0
 30
0.0
  9
$UCSORGBOTTOM
 10
0.0
 20
0.0
 30
0.0
  9
$UCSORGLEFT
 10
0.0
 20
0.0
 30
0.0
  9
$UCSORGRIGHT
 10
0.0
 20
0.0
 30
0.0
  9
$UCSORGFRONT
 10
0.0
 20
0.0
 30
0.0
  9
$UCSORGBACK
 10
0.0
 20
0.0
 30
0.0
  9
$PUCSBASE
  2

  9
$PUCSNAME
  2

  9
$PUCSORG
 10
0.0
 20
0.0
 30
0.0
  9
$PUCSXDIR
 10
1.0
 20
0.0
 30
0.0
  9
$PUCSYDIR
 10
0.0
 20
1.0
 30
0.0
  9
$PUCSORTHOREF
  2

  9
$PUCSORTHOVIEW
 70
     0
  9
$PUCSORGTOP
 10
0.0
 20
0.0
 30
0.0
  9
$PUCSORGBOTTOM
 10
0.0
 20
0.0
 30
0.0
  9
$PUCSORGLEFT
 10
0.0
 20
0.0
 30
0.0
  9
$PUCSORGRIGHT
 10
0.0
 20
0.0
 30
0.0
  9
$PUCSORGFRONT
 10
0.0
 20
0.0
 30
0.0
  9
$PUCSORGBACK
 10
0.0
 20
0.0
 30
0.0
  9
$USERI1
 70
     0
  9
$USERI2
 70
     0
  9
$USERI3
 70
     0
  9
$USERI4
 70
     0
  9
$USERI5
 70
     0
  9
$USERR1
 40
0.0
  9
$USERR2
 40
0.0
  9
$USERR3
 40
0.0
  9
$USERR4
 40
0.0
  9
$USERR5
 40
0.0
  9
$WORLDVIEW
 70
     1
  9
$SHADEDGE
 70
     3
  9
$SHADEDIF
 70
    70
  9
$TILEMODE
 70
     1
  9
$MAXACTVP
 70
    64
  9
$PINSBASE
 10
0.0
 20
0.0
 30
0.0
  9
$PLIMCHECK
 70
     0
  9
$PEXTMIN
 10
1.000000000000000E+20
 20
1.000000000000000E+20
 30
1.000000000000000E+20
  9
$PEXTMAX
 10
-1.000000000000000E+20
 20
-1.000000000000000E+20
 30
-1.000000000000000E+20
  9
$PLIMMIN
 10
0.0
 20
0.0
  9
$PLIMMAX
 10
12.0
 20
9.0
  9
$UNITMODE
 70
     0
  9
$VISRETAIN
 70
     1
  9
$PLINEGEN
 70
     0
  9
$PSLTSCALE
 70
     1
  9
$TREEDEPTH
 70
  3020
  9
$CMLSTYLE
  2
Standard
  9
$CMLJUST
 70
     0
  9
$CMLSCALE
 40
1.0
  9
$PROXYGRAPHICS
 70
     1
  9
$MEASUREMENT
 70
     0
  9
$CELWEIGHT
370
    -1
  9
$ENDCAPS
280
     0
  9
$JOINSTYLE
280
     0
  9
$LWDISPLAY
290
     0
  9
$INSUNITS
 70
     0
  9
$HYPERLINKBASE
  1

  9
$STYLESHEET
  1

  9
$XEDIT
290
     1
  9
$CEPSNTYPE
380
     0
  9
$PSTYLEMODE
290
     1
  9
$FINGERPRINTGUID
  2
{55941705-5344-4CB8-9E08-E97630854567}
  9
$VERSIONGUID
  2
{E1D0F365-1D33-4D2C-AC4A-F06091ACF74E}
  9
$EXTNAMES
290
     1
  9
$PSVPSCALE
 40
0.0
  9
$OLESTARTUP
290
     0
  9
$SORTENTS
280
   127
  9
$INDEXCTL
280
     0
  9
$HIDETEXT
280
     0
  9
$XCLIPFRAME
280
     2
  9
$HALOGAP
280
     0
  9
$OBSCOLOR
 70
   257
  9
$OBSLTYPE
280
     0
  9
$INTERSECTIONDISPLAY
280
     0
  9
$INTERSECTIONCOLOR
 70
   257
  9
$DIMASSOC
280
     1
  9
$PROJECTNAME
  1

  9
$CAMERADISPLAY
290
     0
  9
$LENSLENGTH
 40
50.0
  9
$CAMERAHEIGHT
 40
0.0
  9
$STEPSPERSEC
 40
2.0
  9
$STEPSIZE
 40
6.0
  9
$3DDWFPREC
 40
2.0
  9
$PSOLWIDTH
 40
0.25
  9
$PSOLHEIGHT
 40
4.0
  9
$LOFTANG1
 40
1.570796326794896
  9
$LOFTANG2
 40
1.570796326794896
  9
$LOFTMAG1
 40
0.0
  9
$LOFTMAG2
 40
0.0
  9
$LOFTPARAM
 70
     7
  9
$LOFTNORMALS
280
     1
  9
$LATITUDE
 40
37.795
  9
$LONGITUDE
 40
-122.394
  9
$NORTHDIRECTION
 40
0.0
  9
$TIMEZONE
 70
 -8000
  9
$LIGHTGLYPHDISPLAY
280
     1
  9
$TILEMODELIGHTSYNCH
280
     1
  9
$CMATERIAL
347
11
  9
$SOLIDHIST
280
     0
  9
$SHOWHIST
280
     1
  9
$DWFFRAME
280
     2
  9
$DGNFRAME
280
     0
  9
$REALWORLDSCALE
290
     1
  9
$INTERFERECOLOR
 62
     1
  9
$INTERFEREOBJVS
345
33
  9
$INTERFEREVPVS
346
30
  9
$CSHADOW
280
     0
  9
$SHADOWPLANELOCATION
 40
0.0
  0
ENDSEC
  0
SECTION
  2
CLASSES
  0
CLASS
  1
ACDBDICTIONARYWDFLT
  2
AcDbDictionaryWithDefault
  3
ObjectDBX Classes
 90
        0
 91
        1
280
     0
281
     0
  0
CLASS
  1
MATERIAL
  2
AcDbMaterial
  3
ObjectDBX Classes
 90
     1153
 91
        3
280
     0
281
     0
  0
CLASS
  1
VISUALSTYLE
  2
AcDbVisualStyle
  3
ObjectDBX Classes
 90
     4095
 91
       24
280
     0
281
     0
  0
CLASS
  1
SCALE
  2
AcDbScale
  3
ObjectDBX Classes
 90
     1153
 91
       17
280
     0
281
     0
  0
CLASS
  1
TABLESTYLE
  2
AcDbTableStyle
  3
ObjectDBX Classes
 90
     4095
 91
        1
280
     0
281
     0
  0
CLASS
  1
MLEADERSTYLE
  2
AcDbMLeaderStyle
  3
ACDB_MLEADERSTYLE_CLASS
 90
     4095
 91
        1
280
     0
281
     0
  0
CLASS
  1
ACDBSECTIONVIEWSTYLE
  2
AcDbSectionViewStyle
  3
ObjectDBX Classes
 90
     1025
 91
        1
280
     0
281
     0
  0
CLASS
  1
ACDBDETAILVIEWSTYLE
  2
AcDbDetailViewStyle
  3
ObjectDBX Classes
 90
     1025
 91
        1
280
     0
281
     0
  0
CLASS
  1
SOLID_BACKGROUND
  2
AcDbSolidBackground
  3
SCENEOE
 90
     4095
 91
        1
280
     0
281
     0
  0
CLASS
  1
NPOCOLLECTION
  2
AcDbImpNonPersistentObjectsCollection
  3
ObjectDBX Classes
 90
     1153
 91
        1
280
     0
281
     0
  0
CLASS
  1
DICTIONARYVAR
  2
AcDbDictionaryVar
  3
ObjectDBX Classes
 90
        0
 91
        9
280
     0
281
     0
  0
CLASS
  1
CELLSTYLEMAP
  2
AcDbCellStyleMap
  3
ObjectDBX Classes
 90
     1152
 91
        1
280
     0
281
     0
  0
ENDSEC
  0
SECTION
  2
TABLES
  0
TABLE
  2
VPORT
  5
8
330
0
100
AcDbSymbolTable
 70
     1
  0
VPORT
  5
8E7
330
8
100
AcDbSymbolTableRecord
100
AcDbViewportTableRecord
  2
*Active
 70
     0
 10
0.0
 20
0.0
 11
1.0
 21
1.0
 12
-7.627949783725284
 22
-4.272484132073451
 13
0.0
 23
0.0
 14
1.0
 24
1.0
 15
0.0
 25
0.0
 16
-45.83185602236367
 26
-34.54253839005348
 36
76.95934128804627
 17
3.662923602835392
 27
-3.755721356847386
 37
0.4956700173933242
 40
94.38308897184272
 41
3.356415478615071
 42
50.0
 43
0.0
 44
0.0
 50
0.0
 51
0.0
 71
     0
 72
  1000
 73
     1
 74
     3
 75
     0
 76
     0
 77
     0
 78
     0
281
     0
 65
     1
110
0.0
120
0.0
130
0.0
111
1.0
121
0.0
131
0.0
112
0.0
122
1.0
132
0.0
 79
     0
146
0.0
348
2F
 60
     3
 61
     5
292
     1
282
     1
141
0.0
142
0.0
 63
   250
421
  3355443
1001
ACAD_NAV_VCDISPLAY
1070
     1
  0
ENDTAB
  0
TABLE
  2
LTYPE
  5
5
330
0
100
AcDbSymbolTable
 70
     2
  0
LTYPE
  5
5A
330
5
100
AcDbSymbolTableRecord
100
AcDbLinetypeTableRecord
  2
ByBlock
 70
     0
  3

 72
    65
 73
     0
 40
0.0
  0
LTYPE
  5
5B
330
5
100
AcDbSymbolTableRecord
100
AcDbLinetypeTableRecord
  2
ByLayer
 70
     0
  3

 72
    65
 73
     0
 40
0.0
  0
LTYPE
  5
5C
330
5
100
AcDbSymbolTableRecord
100
AcDbLinetypeTableRecord
  2
Continuous
 70
     0
  3
Solid line
 72
    65
 73
     0
 40
0.0
  0
LTYPE
  5
68
330
5
100
AcDbSymbolTableRecord
100
AcDbLinetypeTableRecord
  2
PHANTOM2
 70
     0
  3
Phantom (.5x) ___ _ _ ___ _ _ ___ _ _ ___ _ _
 72
    65
 73
     6
 40
1.25
 49
0.625
 74
     0
 49
-0.125
 74
     0
 49
0.125
 74
     0
 49
-0.125
 74
     0
 49
0.125
 74
     0
 49
-0.125
 74
     0
  0
ENDTAB
  0
TABLE
  2
LAYER
  5
2
330
0
100
AcDbSymbolTable
 70
     1
  0
LAYER
  5
54
102
{ACAD_XDICTIONARY
360
8EC
102
}
330
2
100
AcDbSymbolTableRecord
100
AcDbLayerTableRecord
  2
0
 70
     0
 62
     7
  6
Continuous
370
    -3
390
F
347
21
348
0
  0
ENDTAB
  0
TABLE
  2
STYLE
  5
3
330
0
100
AcDbSymbolTable
 70
     2
  0
STYLE
  5
55
330
3
100
AcDbSymbolTableRecord
100
AcDbTextStyleTableRecord
  2
Standard
 70
     0
 40
0.0
 41
1.0
 50
0.0
 71
     0
 42
0.2
  3
txt
  4

  0
STYLE
  5
59
330
3
100
AcDbSymbolTableRecord
100
AcDbTextStyleTableRecord
  2
Annotative
 70
     0
 40
0.0
 41
1.0
 50
0.0
 71
     0
 42
0.2
  3
txt
  4

1001
AcadAnnotative
1000
AnnotativeData
1002
{
1070
     1
1070
     1
1002
}
  0
ENDTAB
  0
TABLE
  2
VIEW
  5
6
330
0
100
AcDbSymbolTable
 70
     0
  0
ENDTAB
  0
TABLE
  2
UCS
  5
7
330
0
100
AcDbSymbolTable
 70
     0
  0
ENDTAB
  0
TABLE
  2
APPID
  5
9
330
0
100
AcDbSymbolTable
 70
     3
  0
APPID
  5
56
330
9
100
AcDbSymbolTableRecord
100
AcDbRegAppTableRecord
  2
ACAD
 70
     0
  0
APPID
  5
5D
330
9
100
AcDbSymbolTableRecord
100
AcDbRegAppTableRecord
  2
AcadAnnotative
 70
     0
  0
APPID
  5
8E6
330
9
100
AcDbSymbolTableRecord
100
AcDbRegAppTableRecord
  2
ACAD_NAV_VCDISPLAY
 70
     0
  0
ENDTAB
  0
TABLE
  2
DIMSTYLE
  5
A
330
0
100
AcDbSymbolTable
 70
     2
100
AcDbDimStyleTable
 71
     0
  0
DIMSTYLE
105
57
330
A
100
AcDbSymbolTableRecord
100
AcDbDimStyleTableRecord
  2
Standard
 70
     0
340
55
  0
DIMSTYLE
105
58
330
A
100
AcDbSymbolTableRecord
100
AcDbDimStyleTableRecord
  2
Annotative
 70
     0
340
55
1001
AcadAnnotative
1000
AnnotativeData
1002
{
1070
     1
1070
     1
1002
}
  0
ENDTAB
  0
TABLE
  2
BLOCK_RECORD
  5
1
330
0
100
AcDbSymbolTable
 70
     0
  0
BLOCK_RECORD
  5
70
330
1
100
AcDbSymbolTableRecord
100
AcDbBlockTableRecord
  2
*Model_Space
340
73
 70
     0
280
     1
281
     0
  0
BLOCK_RECORD
  5
6C
330
1
100
AcDbSymbolTableRecord
100
AcDbBlockTableRecord
  2
*Paper_Space
340
6F
 70
     0
280
     1
281
     0
  0
ENDTAB
  0
ENDSEC
  0
SECTION
  2
BLOCKS
  0
BLOCK
  5
71
330
70
100
AcDbEntity
  8
0
100
AcDbBlockBegin
  2
*Model_Space
 70
     0
 10
0.0
 20
0.0
 30
0.0
  3
*Model_Space
  1

  0
ENDBLK
  5
72
330
70
100
AcDbEntity
  8
0
100
AcDbBlockEnd
  0
BLOCK
  5
6D
330
6C
100
AcDbEntity
 67
     1
  8
0
100
AcDbBlockBegin
  2
*Paper_Space
 70
     0
 10
0.0
 20
0.0
 30
0.0
  3
*Paper_Space
  1

  0
ENDBLK
  5
6E
330
6C
100
AcDbEntity
 67
     1
  8
0
100
AcDbBlockEnd
  0
ENDSEC
  0
SECTION
  2
ENTITIES
  0
CIRCLE
  5
74
330
70
100
AcDbEntity
  8
0
 62
    13
100
AcDbCircle
 10
0.0
 20
0.0
 30
0.0
 40
2.5
  0
LWPOLYLINE
  5
75
330
70
100
AcDbEntity
  8
0
 62
    13
100
AcDbPolyline
 90
     1002
 70
     0
 43
0.0
 10
52.915051
 20
-2.110059099999999
 10
53.1636202
 20
-2.062108299999999
 10
53.4332966
 20
-2.0042066
 10
53.72376260000001
 20
-1.935450899999999
 10
53.9814498
 20
-1.869218
 10
54.25311929999999
 20
-1.7943147
 10
54.5385422
 20
-1.710233899999999
 10
54.8374765
 20
-1.6164741
 10
55.0861807
 20
-1.5341641
 10
55.3432321
 20
-1.445090999999999
 10
55.60848829999999
 20
-1.349006499999999
 10
55.88180179999999
 20
-1.2456646
 10
56.16302
 20
-1.134822299999999
 10
56.4519846
 20
-1.0162396
 10
56.7485328
 20
-0.8896791
 10
56.9945875
 20
-0.7809736999999999
 10
56.997563
 20
-0.5203140000000001
 10
56.99934649999999
 20
-0.2596433999999999
 10
56.9999379
 20
0.0010326
 10
56.9993371
 20
0.2617086
 10
56.9975441
 20
0.5223791000000001
 10
56.9945875
 20
0.7809736999999999
 10
56.67444
 20
0.9217584999999999
 10
56.3804806
 20
1.046021199999999
 10
56.09410699999999
 20
1.162403399999999
 10
55.81547979999999
 20
1.2711416
 10
55.54475479999999
 20
1.3724745
 10
55.28208209999999
 20
1.4666443
 10
55.0276071
 20
1.5538954
 10
54.7814697
 20
1.634475099999999
 10
54.4664878
 20
1.7319691
 10
54.16687129999999
 20
1.818645799999999
 10
53.8829073
 20
1.8951113
 10
53.6148657
 20
1.961978299999999
 10
53.3629993
 20
2.0198661
 10
53.0712688
 20
2.0805516
 10
52.8055981
 20
2.1294173
 10
52.64176009999999
 20
2.1562587
 10
52.54442220000001
 20
3.858504799999999
 10
52.8106653
 20
3.9355561
 10
53.0521483
 20
4.011529
 10
53.3134665
 20
4.099794099999999
 10
53.59420169999999
 20
4.201212299999999
 10
53.8426593
 20
4.2963876
 10
54.1040196
 20
4.4017707
 10
54.3779976
 20
4.5178392
 10
54.6642954
 20
4.645063799999999
 10
54.9019959
 20
4.7551874
 10
55.1472182
 20
4.872981499999999
 10
55.39979259999999
 20
4.998676699999999
 10
55.65954449999999
 20
5.1325004
 10
55.9262945
 20
5.274676599999999
 10
56.1998583
 20
5.4254258
 10
56.4800466
 20
5.584965299999999
 10
56.7121059
 20
5.721010299999999
 10
56.68534920000001
 20
5.980310099999999
 10
56.65740679999999
 20
6.239484899999999
 10
56.6282795
 20
6.4985292
 10
56.59796779999999
 20
6.757437499999999
 10
56.5664723
 20
7.0162046
 10
56.5340574
 20
7.272776499999999
 10
56.1999484
 20
7.376149599999999
 10
55.89374029999999
 20
7.4660934
 10
55.5959667
 20
7.5490729
 10
55.3067605
 20
7.625341199999999
 10
55.026249
 20
7.695153299999999
 10
54.75455400000001
 20
7.7587668
 10
54.4917919
 20
7.816441199999999
 10
54.23807339999999
 20
7.868438099999999
 10
53.9140312
 20
7.9293914
 10
53.60648730000001
 20
7.9813494
 10
53.3156578
 20
8.024947
 10
53.0417412
 20
8.060823799999999
 10
52.78491779999999
 20
8.089623599999999
 10
52.4881712
 20
8.116658799999999
 10
52.218662
 20
8.134921699999999
 10
52.0528322
 20
8.1429121
 10
51.76208729999999
 20
9.822966799999999
 10
52.0178118
 20
9.929865300000001
 10
52.2490605
 20
10.03287
 10
52.498614
 20
10.1503478
 10
52.7659584
 20
10.2831063
 10
53.0019473
 20
10.4059833
 10
53.24959119999999
 20
10.5404723
 10
53.5085525
 20
10.6870154
 10
53.7784817
 20
10.8460461
 10
54.0020797
 20
10.9825478
 10
54.232276
 20
11.1275273
 10
54.46887589999999
 20
11.2811945
 10
54.7116799
 20
11.4437553
 10
54.9604843
 20
11.615412
 10
55.2150808
 20
11.7963626
 10
55.4752566
 20
11.9868011
 10
55.6902954
 20
12.1484121
 10
55.6341551
 20
12.4029717
 10
55.5768512
 20
12.657272
 10
55.51838489999999
 20
12.9113075
 10
55.4587574
 20
13.1650729
 10
55.39797
 20
13.418563
 10
55.3365194
 20
13.6697675
 10
54.9928046
 20
13.7343813
 10
54.6783396
 20
13.7888337
 10
54.37304799999999
 20
13.8373287
 10
54.0770331
 20
13.8801328
 10
53.79039200000001
 20
13.917514
 10
53.51321659999999
 20
13.9497419
 10
53.24559279999999
 20
13.9770878
 10
52.98760099999999
 20
13.999824
 10
52.65872279999999
 20
14.023442
 10
52.3472607
 20
14.0400039
 10
52.0533572
 20
14.0501653
 10
51.7771364
 20
14.054584
 10
51.71085689999999
 20
14.0548688
 10
51.4568861
 20
14.053038
 10
51.1645951
 20
14.0448446
 10
50.90038429999999
 20
14.0313005
 10
50.7853161
 20
14.0234102
 10
50.3049545
 20
15.6593714
 10
50.5468266
 20
15.7947235
 10
50.7648263
 20
15.9234172
 10
50.9993616
 20
16.0685762
 10
51.24983010000001
 20
16.2309443
 10
51.4702739
 20
16.379921
 10
51.700973
 20
16.5417627
 10
51.9415417
 20
16.7168699
 10
52.19158329999999
 20
16.9056337
 10
52.3981637
 20
17.0667338
 10
52.6103331
 20
17.2370087
 10
52.8278741
 20
17.4166446
 10
53.0505649
 20
17.6058234
 10
53.2781801
 20
17.8047227
 10
53.51049029999999
 20
18.0135157
 10
53.7472619
 20
18.2323707
 10
53.9424767
 20
18.41744079999999
 10
53.85768470000001
 20
18.6639417
 10
53.7717663
 20
18.9100521
 10
53.68472320000001
 20
19.1557671
 10
53.5965573
 20
19.4010814
 10
53.50727049999999
 20
19.64599
 10
53.4175852
 20
19.8885522
 10
53.06874549999999
 20
19.9135643
 10
52.75012310000001
 20
19.9318154
 10
52.44129350000001
 20
19.9451937
 10
52.1423287
 20
19.9539756
 10
51.853295
 20
19.9584385
 10
51.666153
 20
19.9591518
 10
51.3938022
 20
19.9570354
 10
51.13153029999999
 20
19.951344
 10
50.87938229999999
 20
19.9423579
 10
50.5589995
 20
19.9257369
 10
50.2567594
 20
19.9044248
 10
49.9727194
 20
19.8790892
 10
49.7069188
 20
19.8503981
 10
49.40034650000001
 20
19.8108332
 10
49.1223034
 20
19.7683725
 10
48.8727438
 20
19.7243167
 10
48.8557356
 20
19.7210916
 10
48.1920196
 20
21.2916322
 10
48.4168862
 20
21.4536734
 10
48.618795
 20
21.6063783
 10
48.83525460000001
 20
21.7773261
 10
49.0655819
 20
21.9671871
 10
49.2676067
 20
22.1403214
 10
49.4783535
 20
22.3274059
 10
49.6973934
 20
22.5287945
 10
49.9242877
 20
22.7448304
 10
50.1111576
 20
22.9284289
 10
50.3025341
 20
23.1217794
 10
50.4981801
 20
23.3250421
 10
50.6978547
 20
23.5383727
 10
50.9013134
 20
23.7619217
 10
51.1083087
 20
23.995835
 10
51.3185894
 20
24.2402535
 10
51.49143529999999
 20
24.4463701
 10
51.37909699999999
 20
24.6815986
 10
51.2656842
 20
24.9163109
 10
51.1511991
 20
25.150502
 10
51.03564420000001
 20
25.3841672
 10
50.91902189999999
 20
25.6173014
 10
50.8022711
 20
25.8480592
 10
50.4528541
 20
25.8331435
 10
50.1342281
 20
25.8149555
 10
49.8258865
 20
25.7930427
 10
49.52786939999999
 20
25.7676879
 10
49.2402109
 20
25.7391744
 10
48.96293920000001
 20
25.7077854
 10
48.6960767
 20
25.6738047
 10
48.43963989999999
 20
25.6375158
 10
48.11395929999999
 20
25.58603010000001
 10
47.80684029999999
 20
25.5316165
 10
47.5182732
 20
25.4749456
 10
47.24822999999999
 20
25.4166864
 10
46.9966642
 20
25.357506
 10
46.70809000000001
 20
25.2832474
 10
46.44811699999999
 20
25.2098799
 10
46.289246
 20
25.1616785
 10
45.4508281
 20
26.646324
 10
45.6557576
 20
26.8329418
 10
45.83894329999999
 20
27.00766720000001
 10
46.03450539999999
 20
27.2021752
 10
46.2416888
 20
27.417054
 10
46.42266089999999
 20
27.6120889
 10
46.610708
 20
27.8219772
 10
46.8053636
 20
28.0470218
 10
47.0061527
 20
28.2875135
 10
47.1708759
 20
28.4912168
 10
47.3389647
 20
28.7051223
 10
47.5101652
 20
28.92936210000001
 10
47.68422029999999
 20
29.1640633
 10
47.8608702
 20
29.4093477
 10
48.0398521
 20
29.665332
 10
48.22090049999999
 20
29.9321274
 10
48.36912429999999
 20
30.1566035
 10
48.23070429999999
 20
30.37749310000001
 10
48.0912755
 20
30.5977474
 10
47.9508408
 20
30.8173617
 10
47.80940329999999
 20
31.0363315
 10
47.6669659
 20
31.2546522
 10
47.5246718
 20
31.4705973
 10
47.1792326
 20
31.4159482
 10
46.8647567
 20
31.3615581
 10
46.5609229
 20
31.3046399
 10
46.2677386
 20
31.245479
 10
45.98520539999999
 20
31.1843607
 10
45.7133191
 20
31.1215698
 10
45.4520696
 20
31.0573905
 10
45.2014409
 20
30.9921065
 10
44.8837521
 20
30.9038316
 10
44.58483769999999
 20
30.81476380000001
 10
44.3046116
 20
30.7255681
 10
44.0429697
 20
30.636906
 10
43.7997896
 20
30.549435
 10
43.5215613
 20
30.4427656
 10
43.27164609999999
 20
30.3402415
 10
43.11930519999999
 20
30.2742445
 10
42.1171156
 20
31.6536402
 10
42.2994365
 20
31.8624017
 10
42.46151079999999
 20
32.0568698
 10
42.63362599999999
 20
32.2724024
 10
42.8149646
 20
32.5094977
 10
42.9725248
 20
32.7238906
 10
43.1354207
 20
32.95384650000001
 10
43.30315429999999
 20
33.1996133
 10
43.4752206
 20
33.4614257
 10
43.6156496
 20
33.6825782
 10
43.7582594
 20
33.91425
 10
43.9027826
 20
34.1565436
 10
44.0489493
 20
34.40955570000001
 10
44.1964874
 20
34.6733779
 10
44.3451226
 20
34.948096
 10
44.49457849999999
 20
35.2337903
 10
44.6162478
 20
35.4736994
 10
44.45355049999999
 20
35.6773705
 10
44.28992339999999
 20
35.88029539999999
 10
44.1253701
 20
36.0824699
 10
43.95989379999999
 20
36.2838898
 10
43.79349809999999
 20
36.48455070000001
 10
43.6275156
 20
36.6828679
 10
43.2905576
 20
36.589198
 10
42.9843316
 20
36.4993149
 10
42.6889665
 20
36.40813320000001
 10
42.404437
 20
36.3159374
 10
42.1307124
 20
36.2230112
 10
41.86775599999999
 20
36.1296368
 10
41.61552529999999
 20
36.03609570000001
 10
41.3739721
 20
35.9426677
 10
41.0684166
 20
35.8187544
 10
40.7816035
 20
35.6961935
 10
40.5133716
 20
35.5756359
 10
40.26354179999999
 20
35.4577268
 10
40.03191779999999
 20
35.3431055
 10
39.7676624
 20
35.20541570000001
 10
39.5310631
 20
35.0750718
 10
39.3872384
 20
34.9921393
 10
38.234342
 20
36.2483027
 10
38.3916774
 20
36.4764866
 10
38.5305277
 20
36.68816210000001
 10
38.6769521
 20
36.9219095
 10
38.8300819
 20
37.1781304
 10
38.9621761
 20
37.4090863
 10
39.0977972
 20
37.6561121
 10
39.2364221
 20
37.919397
 10
39.3775225
 20
38.1991169
 10
39.49182670000001
 20
38.4348356
 10
39.6070983
 20
38.6812537
 10
39.7230601
 20
38.9384423
 10
39.8394328
 20
39.206467
 10
39.95593579999999
 20
39.4853875
 10
40.07228669999999
 20
39.7752581
 10
40.1882017
 20
40.0761269
 10
40.28173029999999
 20
40.3283414
 10
40.0968767
 20
40.51213889999999
 10
39.9111845
 20
40.695089
 10
39.7246576
 20
40.877188
 10
39.5372998
 20
41.058432
 10
39.3491151
 20
41.2388174
 10
39.1616081
 20
41.4169213
 10
38.837524
 20
41.2854516
 10
38.54354
 20
41.1612472
 10
38.260494
 20
41.0369908
 10
37.98832879999999
 20
40.9129621
 10
37.72698120000001
 20
40.7894393
 10
37.4763826
 20
40.6666988
 10
37.2364589
 20
40.54501529999999
 10
37.00713020000001
 20
40.4246613
 10
36.7176915
 20
40.266725
 10
36.4467188
 20
40.11226879999999
 10
36.1939778
 20
39.9619208
 10
35.95921710000001
 20
39.8163018
 10
35.7421688
 20
39.6760245
 10
35.4953313
 20
39.5091094
 10
35.2751323
 20
39.3526448
 10
35.14169860000001
 20
39.2538581
 10
33.8531253
 20
40.3704133
 10
33.9834242
 20
40.6150446
 10
34.0972402
 20
40.84116820000001
 10
34.216065
 20
41.090083
 10
34.3389896
 20
41.3620893
 10
34.4438958
 20
41.60659729999999
 10
34.55047410000001
 20
41.86747259999999
 10
34.6581832
 20
42.1448434
 10
34.7664782
 20
42.43882429999999
 10
34.8531674
 20
42.6860362
 10
34.93959810000001
 20
42.94398799999999
 10
35.0254867
 20
43.2127188
 10
35.1105484
 20
43.4922619
 10
35.1944974
 20
43.7826448
 10
35.2770471
 20
44.0838889
 10
35.3579101
 20
44.39600989999999
 10
35.42207879999999
 20
44.6572419
 10
35.21747879999999
 20
44.8187695
 10
35.01214229999999
 20
44.9793598
 10
34.8060735
 20
45.1390094
 10
34.59927670000001
 20
45.29771489999999
 10
34.3917563
 20
45.4554729
 10
34.1851691
 20
45.6110418
 10
33.878184
 20
45.4434862
 10
33.6002744
 20
45.2865798
 10
33.3332376
 20
45.13086849999999
 10
33.07698460000001
 20
44.9766237
 10
32.831421
 20
44.8241147
 10
32.5964473
 20
44.6736082
 10
32.3719583
 20
44.5253686
 10
32.1578438
 20
44.37965759999999
 10
31.8882951
 20
44.18975729999999
 10
31.6366954
 20
44.00541920000001
 10
31.4027402
 20
43.82724099999999
 10
31.186109
 20
43.6558105
 10
30.9864659
 20
43.49170589999999
 10
30.7602643
 20
43.2977414
 10
30.5593362
 20
43.1171959
 10
30.4380331
 20
43.0038429
 10
29.0305813
 20
43.9662337
 10
29.132145
 20
44.2241234
 10
29.219443
 20
44.4617471
 10
29.3091191
 20
44.72258449999999
 10
29.40023610000001
 20
45.0068301
 10
29.4765867
 20
45.2617028
 10
29.5527327
 20
45.53302659999999
 10
29.6281219
 20
45.82086729999999
 10
29.7021997
 20
46.12527670000001
 10
29.7601438
 20
46.380759
 10
29.8166069
 20
46.64688179999999
 10
29.8713026
 20
46.92365149999999
 10
29.9239443
 20
47.21106879999999
 10
29.974245
 20
47.50912829999999
 10
30.0219174
 20
47.81781879999999
 10
30.0666741
 20
48.13712299999999
 10
30.1006464
 20
48.4039669
 10
29.8789673
 20
48.541119
 10
29.6566632
 20
48.6772559
 10
29.433739
 20
48.81237479999999
 10
29.2101991
 20
48.9464727
 10
28.9860482
 20
49.0795469
 10
28.7630742
 20
49.21055250000001
 10
28.4771899
 20
49.0090955
 10
28.2189779
 20
48.8215325
 10
27.9714314
 20
48.6363963
 10
27.7344313
 20
48.4539463
 10
27.5078531
 20
48.2744392
 10
27.2915675
 20
48.09812879999999
 10
27.0854398
 20
47.9252656
 10
26.8893307
 20
47.7560972
 10
26.643186
 20
47.5367085
 10
26.4142393
 20
47.32489179999999
 10
26.2021198
 20
47.1212061
 10
26.0064423
 20
46.9261989
 10
25.826807
 20
46.7404064
 10
25.6241901
 20
46.52192120000001
 10
25.4451524
 20
46.3196484
 10
25.3375613
 20
46.1932067
 10
23.8295794
 20
46.98888710000001
 10
23.9010838
 20
47.2566732
 10
23.9607257
 20
47.5026992
 10
24.0200841
 20
47.7720587
 10
24.0782056
 20
48.064838
 10
24.1250052
 20
48.3267527
 10
24.1697263
 20
48.6049879
 10
24.2118127
 20
48.89954620000001
 10
24.2507076
 20
49.2104155
 10
24.2791512
 20
49.4708377
 10
24.3049105
 20
49.7416621
 10
24.3277003
 20
50.02286259999999
 10
24.3472358
 20
50.3144071
 10
24.3632324
 20
50.6162577
 10
24.375406
 20
50.9283703
 10
24.38347310000001
 20
51.250695
 10
24.386806
 20
51.5196721
 10
24.1509377
 20
51.6306607
 10
23.9145642
 20
51.7405695
 10
23.6776906
 20
51.84939620000001
 10
23.4403218
 20
51.95713839999999
 10
23.2024628
 20
52.063794
 10
22.9660086
 20
52.1685285
 10
22.7049522
 20
51.9357963
 10
22.4698038
 20
51.7200219
 10
22.2449748
 20
51.5078743
 10
22.0303172
 20
51.29959760000001
 10
21.8256783
 20
51.0954326
 10
21.6309003
 20
50.89561670000001
 10
21.4458211
 20
50.7003835
 10
21.2702741
 20
50.5099631
 10
21.0507423
 20
50.263946
 10
20.8474331
 20
50.02741199999999
 10
20.6599148
 20
49.8008741
 10
20.4877419
 20
49.5848326
 10
20.3304562
 20
49.3797742
 10
20.1540655
 20
49.1396165
 10
19.9992522
 20
48.9182535
 10
19.9067756
 20
48.7803715
 10
18.3179224
 20
49.3989684
 10
18.3584354
 20
49.6731599
 10
18.3896437
 20
49.9243809
 10
18.4179105
 20
50.198751
 10
18.4422788
 20
50.4962473
 10
18.4589174
 20
50.7617895
 10
18.4716305
 20
51.04330889999999
 10
18.4798655
 20
51.3407447
 10
18.4830704
 20
51.6540213
 10
18.4816427
 20
51.9159883
 10
18.4763625
 20
52.18798379999999
 10
18.4669493
 20
52.46994920000001
 10
18.4531239
 20
52.7618203
 10
18.4346078
 20
53.06352669999999
 10
18.41112389999999
 20
53.3749926
 10
18.3823962
 20
53.6961359
 10
18.3550462
 20
53.9637396
 10
18.1080636
 20
54.0471179
 10
17.8607023
 20
54.1293657
 10
17.6129674
 20
54.21048139999999
 10
17.3648641
 20
54.29046339999999
 10
17.11639769999999
 20
54.36930979999999
 10
16.869546
 20
54.44640790000001
 10
16.6367206
 20
54.1854345
 10
16.4277014
 20
53.94426179999999
 10
16.228521
 20
53.7078684
 10
16.0390044
 20
53.47648020000001
 10
15.8589723
 20
53.2503189
 10
15.6882412
 20
53.0296025
 10
15.5266234
 20
52.8145444
 10
15.3739269
 20
52.6053543
 10
15.1838699
 20
52.33591610000001
 10
15.0088488
 20
52.07774839999999
 10
14.8483761
 20
51.8313117
 10
14.7019524
 20
51.5970521
 10
14.5690669
 20
51.37540109999999
 10
14.4212018
 20
51.1167018
 10
14.2926311
 20
50.8791343
 10
14.2164746
 20
50.7316096
 10
12.5674632
 20
51.16505870000001
 10
12.5764568
 20
51.4420811
 10
12.5788246
 20
51.69522199999999
 10
12.5756313
 20
51.9710258
 10
12.5659288
 20
52.2693607
 10
12.5521893
 20
52.5350687
 10
12.5327288
 20
52.81620229999999
 10
12.5070049
 20
53.112638
 10
12.4744781
 20
53.424238
 10
12.4431978
 20
53.68433470000001
 10
12.4069468
 20
53.9539553
 10
12.3654533
 20
54.2330098
 10
12.3184472
 20
54.52140229999999
 10
12.2656599
 20
54.81903149999999
 10
12.2068247
 20
55.1257902
 10
12.1416766
 20
55.4415655
 10
12.0840004
 20
55.70430729999999
 10
11.8291233
 20
55.75898819999999
 10
11.5739988
 20
55.81250279999999
 10
11.3186322
 20
55.8648502
 10
11.0630289
 20
55.91602909999999
 10
10.8071942
 20
55.9660386
 10
10.553163
 20
56.0144952
 10
10.351604
 20
55.7286828
 10
10.1714389
 20
55.4652556
 10
10.0005035
 20
55.2076983
 10
9.838598499999999
 20
54.956215
 10
9.685520399999999
 20
54.7110059
 10
9.541062
 20
54.4722662
 10
9.4050124
 20
54.2401869
 10
9.2771571
 20
54.01495429999999
 10
9.119052499999998
 20
53.7256074
 10
8.974601199999998
 20
53.44917170000001
 10
8.8432662
 20
53.1860488
 10
8.724500500000001
 20
52.9366251
 10
8.6177474
 20
52.70127120000001
 10
8.500335699999999
 20
52.42740279999999
 10
8.399683599999999
 20
52.1767278
 10
8.3408402
 20
52.0214835
 10
6.653167999999999
 20
52.2641341
 10
6.6305247
 20
52.540376
 10
6.6040212
 20
52.7921368
 10
6.569409499999999
 20
53.06577889999999
 10
6.525762599999999
 20
53.36106319999999
 10
6.4818242
 20
53.62347299999999
 10
6.430443799999999
 20
53.9005558
 10
6.371096499999999
 20
54.1921269
 10
6.3032619
 20
54.49798799999999
 10
6.242536699999999
 20
54.75282370000001
 10
6.175787599999999
 20
55.01655450000001
 10
6.102754799999999
 20
55.2890601
 10
6.023180799999999
 20
55.57021460000001
 10
5.9368104
 20
55.8598864
 10
5.843390799999999
 20
56.15793889999999
 10
5.7426717
 20
56.46422959999999
 10
5.6554212
 20
56.7186841
 10
5.395972299999999
 20
56.7439548
 10
5.1364105
 20
56.7680386
 10
4.876741299999999
 20
56.79093510000001
 10
4.616970099999999
 20
56.8126439
 10
4.3571024
 20
56.83316439999999
 10
4.0992034
 20
56.8523478
 10
3.931538399999999
 20
56.54542239999999
 10
3.782576
 20
56.2631751
 10
3.642114199999999
 20
55.98781139999999
 10
3.5099315
 20
55.71951160000001
 10
3.3858029
 20
55.4584512
 10
3.2695004
 20
55.2048007
 10
3.160792599999999
 20
54.95872569999999
 10
3.059445299999999
 20
54.7203867
 10
2.935354399999999
 20
54.4149034
 10
2.823355899999999
 20
54.12380329999999
 10
2.7228707
 20
53.8474244
 10
2.633311299999999
 20
53.58608829999999
 10
2.554082399999999
 20
53.3400995
 10
2.4686547
 20
53.05463229999999
 10
2.3972335
 20
52.79411790000001
 10
2.3564701
 20
52.63317779999999
 10
0.6521385999999999
 20
52.6818667
 10
0.5981537
 20
52.95372679999999
 10
0.5431244000000001
 20
53.20082539999999
 10
0.4775454000000001
 20
53.46873829999999
 10
0.4005231
 20
53.75712249999999
 10
0.3269587
 20
54.01281329999999
 10
0.2443281
 20
54.28223299999999
 10
0.152131
 20
54.56513860000001
 10
0.0498731
 20
54.8612735
 10
-0.0395053
 20
55.10752579999999
 10
-0.1358824
 20
55.36192879999999
 10
-0.2395025
 20
55.62433299999999
 10
-0.350607
 20
55.8945841
 10
-0.4694345000000001
 20
56.1725223
 10
-0.5962206000000001
 20
56.4579829
 10
-0.7311977
 20
56.750796
 10
-0.8468851
 20
56.9936462
 10
-1.1075235
 20
56.9891771
 10
-1.368138699999999
 20
56.9835162
 10
-1.6287253
 20
56.9766634
 10
-1.889277899999999
 20
56.968619
 10
-2.1497909
 20
56.9593831
 10
-2.408195599999999
 20
56.9490431
 10
-2.539780799999999
 20
56.62500600000001
 10
-2.655598499999999
 20
56.327618
 10
-2.7637556
 20
56.03803769999999
 10
-2.8644929
 20
55.7564191
 10
-2.9580537
 20
55.4829108
 10
-3.0446841
 20
55.2176561
 10
-3.124632899999999
 20
54.9607934
 10
-3.198150999999999
 20
54.7124552
 10
-3.286610599999999
 20
54.3948178
 10
-3.3646961
 20
54.0928483
 10
-3.433021499999999
 20
53.8068165
 10
-3.492207
 20
53.5369749
 10
-3.542878899999999
 20
53.2835581
 10
-3.595208999999999
 20
52.99021360000001
 10
-3.636468199999999
 20
52.7232559
 10
-3.6586201
 20
52.5587182
 10
-5.3573925
 20
52.4128105
 10
-5.4420152
 20
52.6767448
 10
-5.524853
 20
52.9159598
 10
-5.620544299999999
 20
53.174651
 10
-5.7299378
 20
53.4523755
 10
-5.8321692
 20
53.698014
 10
-5.944972799999999
 20
53.95625840000001
 10
-6.0688177
 20
54.22681020000001
 10
-6.2041659
 20
54.50935829999999
 10
-6.321032399999999
 20
54.74381709999999
 10
-6.445781
 20
54.9855756
 10
-6.5786375
 20
55.23445770000001
 10
-6.719824099999999
 20
55.4902822
 10
-6.869559599999998
 20
55.75286339999999
 10
-7.028059299999999
 20
56.0220108
 10
-7.195534799999999
 20
56.2975291
 10
-7.338150999999999
 20
56.5256089
 10
-7.596580999999999
 20
56.4914584
 10
-7.854852199999999
 20
56.4561265
 10
-8.112959
 20
56.4196137
 10
-8.3708962
 20
56.381921
 10
-8.6286584
 20
56.343049
 10
-8.884199999999999
 20
56.3033206
 10
-8.977990099999999
 20
55.96639599999999
 10
-9.059153099999999
 20
55.6577442
 10
-9.133595599999999
 20
55.3577226
 10
-9.201574199999999
 20
55.0664564
 10
-9.2633475
 20
54.7840657
 10
-9.3191766
 20
54.510665
 10
-9.369324
 20
54.246363
 10
-9.4140545
 20
53.9912632
 10
-9.4657295
 20
53.6656126
 10
-9.508884199999998
 20
53.35671039999999
 10
-9.544159
 20
53.0647545
 10
-9.5721992
 20
52.78992510000001
 10
-9.593653399999999
 20
52.53238399999999
 10
-9.612203599999999
 20
52.23498649999999
 10
-9.622763
 20
51.9650656
 10
-9.626014699999998
 20
51.7990753
 10
-11.2970818
 20
51.4604732
 10
-11.4112391
 20
51.7130408
 10
-11.5208054
 20
51.94125379999999
 10
-11.6453615
 20
52.1873508
 10
-11.7857002
 20
52.4507951
 10
-11.9152659
 20
52.6831789
 10
-12.0567718
 20
52.9268814
 10
-12.2106501
 20
53.1815524
 10
-12.3773241
 20
53.4468302
 10
-12.5201551
 20
53.666439
 10
-12.671649
 20
53.8924014
 10
-12.8320099
 20
54.1245167
 10
-13.001438
 20
54.3625797
 10
-13.1801295
 20
54.6063807
 10
-13.3682766
 20
54.85570609999999
 10
-13.5660671
 20
55.1103377
 10
-13.7337528
 20
55.3206738
 10
-13.9866055
 20
55.2572872
 10
-14.2391656
 20
55.19274479999999
 10
-14.491428
 20
55.1270481
 10
-14.7433872
 20
55.0601984
 10
-14.9950381
 20
54.99219720000001
 10
-15.2443854
 20
54.92359809999999
 10
-15.2991576
 20
54.5781785
 10
-15.3446079
 20
54.26228670000001
 10
-15.3843653
 20
53.9557348
 10
-15.4186989
 20
53.6586183
 10
-15.4478795
 20
53.3710267
 10
-15.4721792
 20
53.09304399999999
 10
-15.4918717
 20
52.82474839999999
 10
-15.5072314
 20
52.5662125
 10
-15.5214483
 20
52.23679409999999
 10
-15.5291094
 20
51.92498610000001
 10
-15.5308739
 20
51.6309123
 10
-15.527403
 20
51.35467789999999
 10
-15.5193599
 20
51.0963699
 10
-15.5038885
 20
50.7987963
 10
-15.4836104
 20
50.52943120000001
 10
-15.4679194
 20
50.36415220000001
 10
-17.0894963
 20
49.8372699
 10
-17.2317001
 20
50.0751783
 10
-17.3665665
 20
50.2894141
 10
-17.5183637
 20
50.5197086
 10
-17.687818
 20
50.76543839999999
 10
-17.8430289
 20
50.981538
 10
-18.0113924
 20
51.20752150000001
 10
-18.193298
 20
51.4429917
 10
-18.3891249
 20
51.687541
 10
-18.5560585
 20
51.8894369
 10
-18.7323227
 20
52.0966574
 10
-18.9180974
 20
52.30897989999999
 10
-19.1135583
 20
52.5261777
 10
-19.3188763
 20
52.7480204
 10
-19.5342179
 20
52.97427339999999
 10
-19.759745
 20
53.2046988
 10
-19.9503142
 20
53.39454920000001
 10
-20.1942932
 20
53.3027527
 10
-20.4378498
 20
53.20984129999999
 10
-20.6809789
 20
53.11581709999999
 10
-20.9236755
 20
53.02068199999999
 10
-21.1659345
 20
52.924438
 10
-21.4058368
 20
52.8278626
 10
-21.4208772
 20
52.4784509
 10
-21.4300223
 20
52.15943729999999
 10
-21.4345762
 20
51.8503516
 10
-21.4348173
 20
51.551258
 10
-21.4310247
 20
51.2622146
 10
-21.4234784
 20
50.9832739
 10
-21.4124591
 20
50.7144825
 10
-21.3982479
 20
50.4558809
 10
-21.3748212
 20
50.12698910000001
 10
-21.3468889
 20
49.8163402
 10
-21.31512
 20
49.5239821
 10
-21.2801834
 20
49.249944
 10
-21.2427479
 20
48.9942365
 10
-21.1934565
 20
48.7003662
 10
-21.1426052
 20
48.43506839999999
 10
-21.1081761
 20
48.27265539999999
 10
-22.6591231
 20
47.5643617
 10
-22.8275195
 20
47.78450929999999
 10
-22.9859278
 20
47.98197499999999
 10
-23.1629872
 20
48.1934648
 10
-23.359348
 20
48.4182765
 10
-23.5381807
 20
48.6152749
 10
-23.731207
 20
48.8205933
 10
-23.9387684
 20
49.033793
 10
-24.1611954
 20
49.25442570000001
 10
-24.3500553
 20
49.4359765
 10
-24.5487919
 20
49.6217537
 10
-24.7575586
 20
49.8115155
 10
-24.9765041
 20
50.0050167
 10
-25.2057719
 20
50.20200889999999
 10
-25.4455008
 20
50.4022401
 10
-25.6958244
 20
50.6054554
 10
-25.9067927
 20
50.77234489999999
 10
-26.1387173
 20
50.6533353
 10
-26.3700953
 20
50.53326619999999
 10
-26.6009217
 20
50.4121402
 10
-26.8311918
 20
50.2899599
 10
-27.0609007
 20
50.1667277
 10
-27.2882304
 20
50.0434351
 10
-27.2633428
 20
49.69458649999999
 10
-27.2360635
 20
49.3766098
 10
-27.20535460000001
 20
49.0690197
 10
-27.1715
 20
48.7718482
 10
-27.1347837
 20
48.48512120000001
 10
-27.0954898
 20
48.208859
 10
-27.0539024
 20
47.9430756
 10
-27.0103054
 20
47.6877796
 10
-26.94954060000001
 20
47.36370209999999
 10
-26.88637910000001
 20
47.0582622
 10
-26.8214909
 20
46.7714311
 10
-26.7555441
 20
46.50316169999999
 10
-26.6892041
 20
46.2533884
 10
-26.6067353
 20
45.9670524
 10
-26.5259739
 20
45.7092805
 10
-26.4732555
 20
45.5518507
 10
-27.9333536
 20
44.6713792
 10
-28.1257472
 20
44.870896
 10
-28.3056324
 20
45.0490175
 10
-28.5056457
 20
45.2389455
 10
-28.7263532
 20
45.4399084
 10
-28.9264764
 20
45.6152372
 10
-29.141649
 20
45.797214
 10
-29.3721604
 20
45.98536379999999
 10
-29.6182878
 20
46.1792036
 10
-29.8266118
 20
46.3380426
 10
-30.04523
 20
46.4999546
 10
-30.2742672
 20
46.66468189999999
 10
-30.513843
 20
46.83196389999999
 10
-30.7640718
 20
47.0015374
 10
-31.0250627
 20
47.17313639999999
 10
-31.2969194
 20
47.3464924
 10
-31.52553660000001
 20
47.48824550000001
 10
-31.7423834
 20
47.34357420000001
 10
-31.9585663
 20
47.1979127
 10
-32.1740808
 20
47.051264
 10
-32.3889224
 20
46.9036312
 10
-32.60308660000001
 20
46.7550175
 10
-32.8148803
 20
46.60661489999999
 10
-32.7503891
 20
46.2628771
 10
-32.687041
 20
45.9500827
 10
-32.6214697
 20
45.6479981
 10
-32.55396070000001
 20
45.35662279999999
 10
-32.4847993
 20
45.0759501
 10
-32.41427
 20
44.80596779999999
 10
-32.3426567
 20
44.5466575
 10
-32.2702424
 20
44.29799529999999
 10
-32.1729315
 20
43.98295679999999
 10
-32.0753642
 20
43.6867077
 10
-31.9782027
 20
43.409143
 10
-31.8821054
 20
43.1501396
 10
-31.7877258
 20
42.90955649999999
 10
-31.6731547
 20
42.6344877
 10
-31.5635359
 20
42.3876021
 10
-31.4932155
 20
42.237208
 10
-32.84343010000001
 20
41.1960369
 10
-33.05731289999999
 20
41.3723221
 10
-33.2563299
 20
41.5287771
 10
-33.4766895
 20
41.69466739999999
 10
-33.7188664
 20
41.8691615
 10
-33.93767110000001
 20
42.0205352
 10
-34.172185
 20
42.17679799999999
 10
-34.4226413
 20
42.3374451
 10
-34.6892605
 20
42.50196489999999
 10
-34.9143329
 20
42.63602139999999
 10
-35.1499826
 20
42.77195739999999
 10
-35.3963044
 20
42.90950269999999
 10
-35.6533873
 20
43.04838479999999
 10
-35.921315
 20
43.18832899999999
 10
-36.20016550000001
 20
43.3290588
 10
-36.49001120000001
 20
43.4702954
 10
-36.7332968
 20
43.5850642
 10
-36.9322389
 20
43.4166172
 10
-37.1304085
 20
43.2472621
 10
-37.3278016
 20
43.07700259999999
 10
-37.5244139
 20
42.905842
 10
-37.7202414
 20
42.7337841
 10
-37.9137379
 20
42.5622062
 10
-37.810484
 20
42.2280604
 10
-37.71189290000001
 20
41.924526
 10
-37.61231400000001
 20
41.6318851
 10
-37.5120308
 20
41.3501044
 10
-37.41132589999999
 20
41.07914509999999
 10
-37.31048070000001
 20
40.81896229999999
 10
-37.209775
 20
40.5695056
 10
-37.1094873
 20
40.3307188
 10
-36.97689910000001
 20
40.0288264
 10
-36.8461979
 20
39.7456302
 10
-36.7180298
 20
39.4809503
 10
-36.5930346
 20
39.2345894
 10
-36.4718458
 20
39.00633300000001
 10
-36.326666
 20
38.7461173
 10
-36.1896189
 20
38.5133366
 10
-36.1026133
 20
38.3719386
 10
-37.3253422
 20
37.1836414
 10
-37.55792589999999
 20
37.3343966
 10
-37.7734801
 20
37.4671456
 10
-38.0113135
 20
37.6068354
 10
-38.2718027
 20
37.7525861
 10
-38.5064365
 20
37.8780313
 10
-38.7572343
 20
38.006543
 10
-39.02437050000001
 20
38.137593
 10
-39.3080056
 20
38.2706481
 10
-39.5468922
 20
38.3781745
 10
-39.7965015
 20
38.48636240000001
 10
-40.0568966
 20
38.5949326
 10
-40.3281351
 20
38.7036041
 10
-40.6102688
 20
38.8120947
 10
-40.90334369999999
 20
38.9201206
 10
-41.20739989999999
 20
39.0273967
 10
-41.46218239999999
 20
39.1136849
 10
-41.64062620000001
 20
38.92365820000001
 10
-41.8181991
 20
38.7328174
 10
-41.99489729999999
 20
38.5411665
 10
-42.17071729999999
 20
38.3487096
 10
-42.3456552
 20
38.1554505
 10
-42.518332
 20
37.96293400000001
 10
-42.3776614
 20
37.6427364
 10
-42.2451127
 20
37.352419
 10
-42.1128242
 20
37.0730367
 10
-41.9810741
 20
36.8045242
 10
-41.8501387
 20
36.5468105
 10
-41.7202922
 20
36.2998192
 10
-41.591807
 20
36.0634681
 10
-41.4649534
 20
35.83766970000001
 10
-41.2988162
 20
35.5528591
 10
-41.136685
 20
35.2864076
 10
-40.9791811
 20
35.038063
 10
-40.8269177
 20
34.8075564
 10
-40.6804996
 20
34.5946023
 10
-40.50660379999999
 20
34.3526319
 10
-40.343915
 20
34.1369907
 10
-40.2413583
 20
34.00643239999999
 10
-41.32066149999999
 20
32.6865002
 10
-41.5689139
 20
32.8097602
 10
-41.79819539999999
 20
32.91707260000001
 10
-42.0504019
 20
33.02874089999999
 10
-42.3258075
 20
33.143848
 10
-42.5732115
 20
33.2417292
 10
-42.8370238
 20
33.3408145
 10
-43.11735729999999
 20
33.4405591
 10
-43.4143107
 20
33.5404149
 10
-43.6638973
 20
33.6200094
 10
-43.92421210000001
 20
33.6990388
 10
-44.1952859
 20
33.7772185
 10
-44.47714409999999
 20
33.85426279999999
 10
-44.76980579999999
 20
33.9298854
 10
-45.0732843
 20
34.0037991
 10
-45.3875871
 20
34.07571620000001
 10
-45.650545
 20
34.132399
 10
-45.80616420000001
 20
33.9232698
 10
-45.9608254
 20
33.71343120000001
 10
-46.1145254
 20
33.5028875
 10
-46.2672608
 20
33.291643
 10
-46.4190286
 20
33.0797023
 10
-46.5686347
 20
32.8687569
 10
-46.3923812
 20
32.5666817
 10
-46.2276028
 20
32.2933661
 10
-46.0643294
 20
32.0308847
 10
-45.90283
 20
31.7791408
 10
-45.74337089999999
 20
31.5380324
 10
-45.58621579999999
 20
31.3074524
 10
-45.4316261
 20
31.0872881
 10
-45.2798603
 20
30.8774218
 10
-45.08234019999999
 20
30.6134059
 10
-44.8908926
 20
30.3671727
 10
-44.7061062
 20
30.138401
 10
-44.5285595
 20
29.9267536
 10
-44.35882079999999
 20
29.731878
 10
-44.1584759
 20
29.5113075
 10
-43.97226629999999
 20
29.3156171
 10
-43.8554956
 20
29.1976003
 10
-44.7773027
 20
27.7632405
 10
-45.0379876
 20
27.8573984
 10
-45.27800720000001
 20
27.9378752
 10
-45.541299
 20
28.0200662
 10
-45.8280306
 20
28.1030292
 10
-46.0849796
 20
28.1720705
 10
-46.3583672
 20
28.2404375
 10
-46.6482434
 20
28.30757630000001
 10
-46.954644
 20
28.3729312
 10
-47.21167679999999
 20
28.4235561
 10
-47.47930339999999
 20
28.4723967
 10
-47.7575221
 20
28.51916670000001
 10
-48.0463254
 20
28.5635794
 10
-48.3456998
 20
28.6053482
 10
-48.6556257
 20
28.6441861
 10
-48.9760778
 20
28.6798066
 10
-49.243783
 20
28.706145
 10
-49.3745489
 20
28.4806397
 10
-49.5042822
 20
28.2545388
 10
-49.6329801
 20
28.027847
 10
-49.7606399
 20
27.800569
 10
-49.887259
 20
27.5727095
 10
-50.0118439
 20
27.3460854
 10
-49.8023053
 20
27.06607050000001
 10
-49.60744529999999
 20
26.8133198
 10
-49.4153156
 20
26.571161
 10
-49.2261723
 20
26.33946760000001
 10
-49.0402682
 20
26.1181079
 10
-48.85785339999999
 20
25.9069452
 10
-48.67917460000001
 20
25.7058378
 10
-48.5044751
 20
25.5146395
 10
-48.2781468
 20
25.2748601
 10
-48.0598787
 20
25.0520553
 10
-47.85021879999999
 20
24.8458389
 10
-47.6497034
 20
24.6558098
 10
-47.458857
 20
24.4815532
 10
-47.23467489999999
 20
24.2852581
 10
-47.027372
 20
24.1120695
 10
-46.89790949999999
 20
24.0081328
 10
-47.6502033
 20
22.4780444
 10
-47.9199222
 20
22.5418728
 10
-48.1675509
 20
22.5944649
 10
-48.4384956
 20
22.6461072
 10
-48.73281529999999
 20
22.6958444
 10
-48.9959596
 20
22.7351456
 10
-49.2753584
 20
22.7719032
 10
-49.57099829999999
 20
22.805561
 10
-49.8828516
 20
22.8355628
 10
-50.1439798
 20
22.8565582
 10
-50.4154294
 20
22.8745733
 10
-50.69716599999999
 20
22.8893239
 10
-50.9891495
 20
22.900526
 10
-51.2913337
 20
22.9078964
 10
-51.60366660000001
 20
22.9111524
 10
-51.6833289
 20
22.9112904
 10
-52.0082656
 20
22.9090068
 10
-52.1950529
 20
22.9056625
 10
-52.29926079999999
 20
22.666721
 10
-52.4023749
 20
22.4273054
 10
-52.504393
 20
22.1874207
 10
-52.60531289999999
 20
21.947072
 10
-52.70513270000001
 20
21.7062643
 10
-52.8030723
 20
21.4669157
 10
-52.56298029999999
 20
21.2126117
 10
-52.34057899999999
 20
20.9837208
 10
-52.1220976
 20
20.7650417
 10
-51.9077761
 20
20.5564192
 10
-51.6978507
 20
20.3576938
 10
-51.4925542
 20
20.1687012
 10
-51.2921155
 20
19.9892727
 10
-51.0967598
 20
19.8192348
 10
-50.844574
 20
19.6068178
 10
-50.60233079999999
 20
19.4103461
 10
-50.3705306
 20
19.2293732
 10
-50.14966049999999
 20
19.0634398
 10
-49.94019429999999
 20
18.912074
 10
-49.69509760000001
 20
18.7426131
 10
-49.46940389999999
 20
18.5941842
 10
-49.3289374
 20
18.5056827
 10
-49.9019107
 20
16.8998127
 10
-50.1771473
 20
16.9324795
 10
-50.429157
 20
16.9565011
 10
-50.7042224
 20
16.9769214
 10
-51.0022932
 20
16.9927845
 10
-51.26820229999999
 20
17.0018334
 10
-51.54996989999999
 20
17.0065023
 10
-51.6671007
 20
17.00702
 10
-51.97093839999999
 20
17.0046317
 10
-52.2252819
 20
16.9986436
 10
-52.4895858
 20
16.9887277
 10
-52.76378799999999
 20
16.9746045
 10
-53.0478205
 20
16.955996
 10
-53.34160970000001
 20
16.932625
 10
-53.64507579999999
 20
16.9042155
 10
-53.9581336
 20
16.870493
 10
-54.2806919
 20
16.8311844
 10
-54.4658805
 20
16.8065696
 10
-54.54217190000001
 20
16.5573068
 10
-54.6173225
 20
16.3076977
 10
-54.69133079999999
 20
16.0577474
 10
-54.7641953
 20
15.8074614
 10
-54.83591429999999
 20
15.5568447
 10
-54.9059319
 20
15.307892
 10
-54.6384164
 20
15.082614
  0
LWPOLYLINE
  5
461
330
70
100
AcDbEntity
  8
0
 62
    13
100
AcDbPolyline
 90
     1002
 70
     0
 43
0.0
 10
-54.6384164
 20
15.082614
 10
-54.39137320000001
 20
14.880567
 10
-54.1493884
 20
14.6882182
 10
-53.91268270000001
 20
14.5053864
 10
-53.68147270000001
 20
14.3318861
 10
-53.4559708
 20
14.1675274
 10
-53.2363853
 20
14.0121167
 10
-53.0229201
 20
13.8654561
 10
-52.7481645
 20
13.6831707
 10
-52.48510409999999
 20
13.5155933
 10
-52.23418549999999
 20
13.3622233
 10
-51.9958401
 20
13.2225488
 10
-51.7704849
 20
13.0960469
 10
-51.5076687
 20
12.9556296
 10
-51.2665265
 20
12.8338953
 10
-51.1168872
 20
12.7619826
 10
-51.5030703
 20
11.1012661
 10
-51.7008902
 20
11.1027505
 10
-51.9895917
 20
11.0986992
 10
-52.26145289999999
 20
11.0887313
 10
-52.5556787
 20
11.0717705
 10
-52.81781940000001
 20
11.0516161
 10
-53.0952421
 20
11.0254104
 10
-53.38781070000001
 20
10.9926145
 10
-53.69537499999999
 20
10.9526922
 10
-53.9521132
 20
10.9152653
 10
-54.2182531
 20
10.8726652
 10
-54.4936983
 20
10.8246225
 10
-54.7783467
 20
10.7708695
 10
-55.0720907
 20
10.71114
 10
-55.374817
 20
10.6451701
 10
-55.68640659999999
 20
10.5726976
 10
-56.006735
 20
10.4934627
 10
-56.026662
 20
10.4883775
 10
-56.0740423
 20
10.2320428
 10
-56.12024980000001
 20
9.975494199999999
 10
-56.16528349999999
 20
9.718736900000001
 10
-56.2091426
 20
9.4617763
 10
-56.251826
 20
9.2046179
 10
-56.29300870000001
 20
8.949306599999999
 10
-56.0015571
 20
8.755991499999998
 10
-55.7330926
 20
8.583422199999999
 10
-55.4707591
 20
8.4199114
 10
-55.21475500000001
 20
8.265253799999999
 10
-54.9652745
 20
8.119240299999999
 10
-54.7225071
 20
7.981658299999999
 10
-54.48663739999999
 20
7.8522914
 10
-54.2578456
 20
7.730919999999999
 10
-53.9641019
 20
7.5811425
 10
-53.6836539
 20
7.444644
 10
-53.4168879
 20
7.320876299999999
 10
-53.1641745
 20
7.209281599999998
 10
-52.92586800000001
 20
7.1092928
 10
-52.6487585
 20
6.9997496
 10
-52.39531160000001
 20
6.9062969
 10
-52.2384502
 20
6.8519106
 10
-52.4328086
 20
5.157997499999999
 10
-52.70829129999999
 20
5.127475099999999
 10
-52.95919259999999
 20
5.0937931
 10
-53.2317347
 20
5.051381299999999
 10
-53.52565210000001
 20
4.999320099999999
 10
-53.7867003
 20
4.947906299999999
 10
-54.06220279999999
 20
4.8886344
 10
-54.3519603
 20
4.820985199999999
 10
-54.6557596
 20
4.744444099999999
 10
-54.90875729999999
 20
4.676466599999999
 10
-55.17047449999999
 20
4.6022135
 10
-55.4407834
 20
4.521428799999999
 10
-55.71955089999999
 20
4.433858599999999
 10
-56.0066382
 20
4.339251599999999
 10
-56.30190139999999
 20
4.237358900000001
 10
-56.6051911
 20
4.1279344
 10
-56.85705030000001
 20
4.0334532
 10
-56.87490179999999
 20
3.7733885
 10
-56.8915638
 20
3.5132449
 10
-56.9070359
 20
3.2530277
 10
-56.9213177
 20
2.9927426
 10
-56.9344091
 20
2.732394799999999
 10
-56.94622009999999
 20
2.4740532
 10
-56.63463199999999
 20
2.3152211
 10
-56.34824599999999
 20
2.174379399999999
 10
-56.06898349999999
 20
2.041838199999999
 10
-55.7970186
 20
1.917370899999999
 10
-55.53252
 20
1.800747799999999
 10
-55.27565179999999
 20
1.691736
 10
-55.02657289999999
 20
1.590099499999999
 10
-54.785437
 20
1.495599499999999
 10
-54.47653470000001
 20
1.3802826
 10
-54.18235509999999
 20
1.276642499999999
 10
-53.90321949999999
 20
1.1840905
 10
-53.6394325
 20
1.102030399999999
 10
-53.39128149999999
 20
1.0298583
 10
-53.10349129999999
 20
0.9526171999999998
 10
-52.8410436
 20
0.8886644
 10
-52.6790051
 20
0.8525133999999999
 10
-52.6790051
 20
-0.8525133999999999
 10
-52.9492128
 20
-0.9142395999999999
 10
-53.1946392
 20
-0.9763025999999999
 10
-53.4605702
 20
-1.049505399999999
 10
-53.7466373
 20
-1.134731399999999
 10
-54.00012310000001
 20
-1.2155673
 10
-54.2670734
 20
-1.3058578
 10
-54.54723079999999
 20
-1.406095899999999
 10
-54.8403248
 20
-1.516768499999999
 10
-55.0839245
 20
-1.613142499999999
 10
-55.3354715
 20
-1.716745099999999
 10
-55.5948098
 20
-1.827816099999999
 10
-55.8617779
 20
-1.946592599999999
 10
-56.1362096
 20
-2.073308499999999
 10
-56.41793320000001
 20
-2.208194499999999
 10
-56.7067725
 20
-2.3514781
 10
-56.94622009999999
 20
-2.4740532
 10
-56.93431
 20
-2.7344577
 10
-56.9212092
 20
-2.994804999999999
 10
-56.9069179
 20
-3.2550896
 10
-56.8914364
 20
-3.5153062
 10
-56.8747651
 20
-3.775449199999999
 10
-56.85705030000001
 20
-4.033453299999999
 10
-56.5293878
 20
-4.1557316
 10
-56.22881379999999
 20
-4.263009799999999
 10
-55.93626310000001
 20
-4.362853599999999
 10
-55.6518826
 20
-4.4555078
 10
-55.37581410000001
 20
-4.5412202
 10
-55.1081938
 20
-4.6202407
 10
-54.84915279999999
 20
-4.692821799999999
 10
-54.5988165
 20
-4.759218399999999
 10
-54.27878259999999
 20
-4.838571499999999
 10
-53.9747064
 20
-4.908002099999999
 10
-53.68684019999999
 20
-4.9681317
 10
-53.41541850000001
 20
-5.0195875
 10
-53.160658
 20
-5.063002099999999
 10
-52.86593889999999
 20
-5.106934099999999
 10
-52.5979118
 20
-5.1405532
 10
-52.4328086
 20
-5.157997599999999
 10
-52.2384502
 20
-6.8519106
 10
-52.49986039999999
 20
-6.9440357
 10
-52.7366123
 20
-7.033670699999999
 10
-52.9924655
 20
-7.136710199999999
 10
-53.26695289999999
 20
-7.2539898
 10
-53.50957179999999
 20
-7.363194099999999
 10
-53.7644897
 20
-7.483325999999999
 10
-54.0313946
 20
-7.614846299999999
 10
-54.30996249999999
 20
-7.758207799999999
 10
-54.5409885
 20
-7.881721899999999
 10
-54.7790861
 20
-8.013323299999999
 10
-55.02407279999999
 20
-8.1532327
 10
-55.2757612
 20
-8.301667
 10
-55.53395949999999
 20
-8.458839799999999
 10
-55.798471
 20
-8.624960599999999
 10
-56.06909449999999
 20
-8.800235499999999
 10
-56.29300870000001
 20
-8.949306599999999
 10
-56.2514925
 20
-9.206656
 10
-56.2087997
 20
-9.4638129
 10
-56.1649313
 20
-9.720771899999999
 10
-56.11988829999999
 20
-9.977527499999998
 10
-56.07367149999999
 20
-10.2340745
 10
-56.026662
 20
-10.4883775
 10
-55.6871966
 20
-10.5725081
 10
-55.376353
 20
-10.6448241
 10
-55.0743279
 20
-10.7106688
 10
-54.78123929999999
 20
-10.7703022
 10
-54.49719980000001
 20
-10.8239864
 10
-54.22231629999999
 20
-10.8719854
 10
-53.95669010000001
 20
-10.914565
 10
-53.700417
 20
-10.9519927
 10
-53.3734235
 20
-10.9943473
 10
-53.0634149
 20
-11.0286633
 10
-52.7705708
 20
-11.0555867
 10
-52.4950528
 20
-11.0757673
 10
-52.237004
 20
-11.0898584
 10
-51.9391981
 20
-11.0999086
 10
-51.6690858
 20
-11.1027559
 10
-51.5030703
 20
-11.1012661
 10
-51.1168872
 20
-12.7619826
 10
-51.366092
 20
-12.8833058
 10
-51.5910831
 20
-12.9993442
 10
-51.8335229
 20
-13.1308771
 10
-52.09285229999999
 20
-13.2786815
 10
-52.32144139999999
 20
-13.4148303
 10
-52.5610036
 20
-13.5632377
 10
-52.8111766
 20
-13.7243256
 10
-53.07158670000001
 20
-13.8985069
 10
-53.28702729999999
 20
-14.0475509
 10
-53.50857149999999
 20
-14.2054356
 10
-53.7360128
 20
-14.3723594
 10
-53.9691405
 20
-14.5485165
 10
-54.2077394
 20
-14.7340972
 10
-54.4515904
 20
-14.9292872
 10
-54.70047
 20
-15.1342684
 10
-54.9059319
 20
-15.3078921
 10
-54.83535060000001
 20
-15.5588315
 10
-54.7636225
 20
-15.8094456
 10
-54.69074899999999
 20
-16.059729
 10
-54.6167316
 20
-16.3096766
 10
-54.5415719
 20
-16.559283
 10
-54.4658805
 20
-16.8065697
 10
-54.11903760000001
 20
-16.8514557
 10
-53.8019767
 20
-16.8878669
 10
-53.49441460000001
 20
-16.9188541
 10
-53.19643879999999
 20
-16.9446893
 10
-52.9081311
 20
-16.96564549999999
 10
-52.6295679
 20
-16.9819972
 10
-52.36081949999999
 20
-16.9940202
 10
-52.10195039999999
 20
-17.0019909
 10
-51.77226029999999
 20
-17.0067951
 10
-51.4603607
 20
-17.005549
 10
-51.1663564
 20
-16.9989152
 10
-50.8903338
 20
-16.9875576
 10
-50.63236079999999
 20
-16.9721416
 10
-50.3353504
 20
-16.9481789
 10
-50.0666742
 20
-16.9202171
 10
-49.9019107
 20
-16.8998128
 10
-49.3289374
 20
-18.5056827
 10
-49.562688
 20
-18.6546222
 10
-49.7729852
 20
-18.7955513
 10
-49.99885110000001
 20
-18.9538629
 10
-50.23964160000001
 20
-19.1302652
 10
-50.451221
 20
-19.2915838
 10
-50.6723045
 20
-19.4663319
 10
-50.9024842
 20
-19.6548873
 10
-51.14134169999999
 20
-19.8576178
 10
-51.33838820000001
 20
-20.0302486
 10
-51.5404908
 20
-20.2123583
 10
-51.74742179999999
 20
-20.4041204
 10
-51.9589494
 20
-20.6057038
 10
-52.1748385
 20
-20.8172731
 10
-52.39485
 20
-21.0389878
 10
-52.61874129999999
 20
-21.2710029
 10
-52.8030723
 20
-21.4669158
 10
-52.7043462
 20
-21.7081739
 10
-52.6045177
 20
-21.948978
 10
-52.503589
 20
-22.1893231
 10
-52.4015622
 20
-22.429204
 10
-52.2984395
 20
-22.6686159
 10
-52.1950529
 20
-22.9056625
 10
-51.8453542
 20
-22.9107189
 10
-51.5262095
 20
-22.9107505
 10
-51.2171198
 20
-22.9064763
 10
-50.91814129999999
 20
-22.8981763
 10
-50.62932410000001
 20
-22.8861314
 10
-50.3507127
 20
-22.8706227
 10
-50.0823455
 20
-22.8519323
 10
-49.8242552
 20
-22.8303422
 10
-49.4961664
 20
-22.7975332
 10
-49.1864419
 20
-22.7607414
 10
-48.8951102
 20
-22.7206369
 10
-48.6221815
 20
-22.6778891
 10
-48.36764739999999
 20
-22.6331668
 10
-48.0753045
 20
-22.5755038
 10
-47.81156699999999
 20
-22.5170974
 10
-47.6502033
 20
-22.4780445
 10
-46.89790949999999
 20
-24.0081329
 10
-47.1131586
 20
-24.1827471
 10
-47.3060203
 20
-24.3467297
 10
-47.51236779999999
 20
-24.5297562
 10
-47.73148049999999
 20
-24.7324566
 10
-47.9232917
 20
-24.916842
 10
-48.12301439999999
 20
-25.1156526
 10
-48.3302
 20
-25.3292175
 10
-48.544391
 20
-25.5578542
 10
-48.7204747
 20
-25.7518214
 10
-48.90050099999999
 20
-25.955782
 10
-49.0842239
 20
-26.1698825
 10
-49.271394
 20
-26.3942643
 10
-49.4617588
 20
-26.629064
 10
-49.6550626
 20
-26.8744129
 10
-49.8510468
 20
-27.1304374
 10
-50.0118439
 20
-27.3460854
 10
-49.8862599
 20
-27.574517
 10
-49.7596326
 20
-27.8023719
 10
-49.6319645
 20
-28.0296453
 10
-49.5032584
 20
-28.2563325
 10
-49.37351689999999
 20
-28.4824287
 10
-49.24378289999999
 20
-28.706145
 10
-48.8957873
 20
-28.6713058
 10
-48.5787192
 20
-28.6349574
 10
-48.2721315
 20
-28.5954775
 10
-47.9760479
 20
-28.5531507
 10
-47.6904864
 20
-28.5082615
 10
-47.4154589
 20
-28.4610947
 10
-47.1509715
 20
-28.4119345
 10
-46.8970246
 20
-28.3610651
 10
-46.57481439999999
 20
-28.2910707
 10
-46.2713027
 20
-28.2192128
 10
-45.9864415
 20
-28.1461603
 10
-45.7201647
 20
-28.0725797
 10
-45.47238759999999
 20
-27.9991342
 10
-45.1885234
 20
-27.9085224
 10
-44.9331628
 20
-27.8204329
 10
-44.7773027
 20
-27.7632405
 10
-43.8554956
 20
-29.1976003
 10
-44.0494371
 20
-29.395613
 10
-44.2223491
 20
-29.5805112
 10
-44.40648809999999
 20
-29.7858665
 10
-44.6010664
 20
-30.0122227
 10
-44.7706091
 20
-30.217271
 10
-44.9463672
 20
-30.4375524
 10
-45.1278578
 20
-30.67334260000001
 10
-45.31459
 20
-30.9249049
 10
-45.4674154
 20
-31.1376798
 10
-45.62301839999999
 20
-31.3608324
 10
-45.7811381
 20
-31.5944802
 10
-45.9415106
 20
-31.83873520000001
 10
-46.10386939999999
 20
-32.0937043
 10
-46.26794559999999
 20
-32.359489
 10
-46.43346769999999
 20
-32.63618510000001
 10
-46.5686347
 20
-32.868757
 10
-46.41783
 20
-33.0813841
 10
-46.2660546
 20
-33.29331939999999
 10
-46.1133115
 20
-33.5045583
 10
-45.9596039
 20
-33.7150965
 10
-45.8049351
 20
-33.9249295
 10
-45.650545
 20
-34.132399
 10
-45.308789
 20
-34.0581183
 10
-44.99793109999999
 20
-33.9858639
 10
-44.6978422
 20
-33.911693
 10
-44.40851349999999
 20
-33.835891
 10
-44.1299302
 20
-33.7587429
 10
-43.862072
 20
-33.6805328
 10
-43.60491249999999
 20
-33.6015437
 10
-43.35841959999999
 20
-33.5220581
 10
-43.04628839999999
 20
-33.4157907
 10
-42.7529462
 20
-33.30980349999999
 10
-42.4782692
 20
-33.2047555
 10
-42.2221156
 20
-33.1013012
 10
-41.9843258
 20
-33.00009
 10
-41.7126408
 20
-32.87771080000001
 10
-41.4689862
 20
-32.76108660000001
 10
-41.32066149999999
 20
-32.6865002
 10
-40.2413582
 20
-34.00643239999999
 10
-40.41146379999999
 20
-34.225262
 10
-40.56217189999999
 20
-34.42866560000001
 10
-40.7217019
 20
-34.6536725
 10
-40.88920929999999
 20
-34.9007335
 10
-41.03427309999999
 20
-35.1237717
 10
-41.1837754
 20
-35.3626521
 10
-41.3372049
 20
-35.6175937
 10
-41.494044
 20
-35.88880220000001
 10
-41.62161870000001
 20
-36.117611
 10
-41.75077
 20
-36.3570464
 10
-41.8812252
 20
-36.6071955
 10
-42.01270939999999
 20
-36.8681394
 10
-42.1449456
 20
-37.13995410000001
 10
-42.2776551
 20
-37.42270960000001
 10
-42.4105573
 20
-37.7164703
 10
-42.518332
 20
-37.96293400000001
 10
-42.3442727
 20
-38.1569848
 10
-42.16932779999999
 20
-38.3502375
 10
-41.99350089999999
 20
-38.5426881
 10
-41.8167956
 20
-38.7343326
 10
-41.6392159
 20
-38.9251669
 10
-41.46218239999999
 20
-39.113685
 10
-41.1311214
 20
-39.0009313
 10
-40.8305262
 20
-38.8937127
 10
-40.5408481
 20
-38.7858176
 10
-40.26204609999999
 20
-38.6775288
 10
-39.994073
 20
-38.5691275
 10
-39.736876
 20
-38.4608936
 10
-39.4903968
 20
-38.3531054
 10
-39.25457120000001
 20
-38.2460399
 10
-38.95658820000001
 20
-38.1048849
 10
-38.67723970000001
 20
-37.96615
 10
-38.4163277
 20
-37.8304759
 10
-38.17363670000001
 20
-37.6984966
 10
-37.9489341
 20
-37.5708392
 10
-37.69297020000001
 20
-37.4182879
 10
-37.4641979
 20
-37.2746493
 10
-37.3253422
 20
-37.1836414
 10
-36.10261320000001
 20
-38.3719387
 10
-36.2466654
 20
-38.6087324
 10
-36.3732048
 20
-38.8279896
 10
-36.5060461
 20
-39.0697149
 10
-36.6442988
 20
-39.3342599
 10
-36.7629926
 20
-39.5723803
 10
-36.8842901
 20
-39.8267456
 10
-37.0076583
 20
-40.0975151
 10
-37.1325597
 20
-40.3848341
 10
-37.2332206
 20
-40.62669379999999
 10
-37.3342365
 20
-40.8792907
 10
-37.43532650000001
 20
-41.14268
 10
-37.5362082
 20
-41.4169111
 10
-37.636598
 20
-41.70202779999999
 10
-37.7362107
 20
-41.998068
 10
-37.8347604
 20
-42.30506359999999
 10
-37.9137379
 20
-42.5622062
 10
-37.718693
 20
-42.7351508
 10
-37.5228593
 20
-42.9072016
 10
-37.3262407
 20
-43.078355
 10
-37.1288415
 20
-43.2486074
 10
-36.9306658
 20
-43.41795529999999
 10
-36.7332968
 20
-43.5850642
 10
-36.4172467
 20
-43.4353074
 10
-36.1308328
 20
-43.2945224
 10
-35.8553421
 20
-43.1543098
 10
-35.59070139999999
 20
-43.01494579999999
 10
-35.3368318
 20
-42.87670449999999
 10
-35.0936491
 20
-42.73985779999999
 10
-34.8610634
 20
-42.60467579999999
 10
-34.6389795
 20
-42.471426
 10
-34.3590293
 20
-42.2972235
 10
-34.0973163
 20
-42.1275497
 10
-33.8535706
 20
-41.9630182
 10
-33.627506
 20
-41.8042345
 10
-33.4188199
 20
-41.65179499999999
 10
-33.181914
 20
-41.47106039999999
 10
-32.9710065
 20
-41.3022801
 10
-32.84343010000001
 20
-41.19603699999999
 10
-31.4932155
 20
-42.237208
 10
-31.6093362
 20
-42.48887899999999
 10
-31.7100574
 20
-42.7211314
 10
-31.8144781
 20
-42.9764239
 10
-31.9216738
 20
-43.2550041
 10
-32.0124502
 20
-43.5051024
 10
-32.10396160000001
 20
-43.77163659999999
 10
-32.1956603
 20
-44.054704
 10
-32.2869957
 20
-44.3543879
 10
-32.3594305
 20
-44.60614559999999
 10
-32.4309941
 20
-44.8686109
 10
-32.501401
 20
-45.14180679999999
 10
-32.5703652
 20
-45.42575
 10
-32.6375997
 20
-45.72045189999999
 10
-32.70281710000001
 20
-46.02591729999999
 10
-32.7657296
 20
-46.3421457
 10
-32.8148802
 20
-46.60661489999999
 10
-32.6013925
 20
-46.75619879999999
 10
-32.387223
 20
-46.90480469999999
 10
-32.172376
 20
-47.0524297
 10
-31.9568562
 20
-47.19907059999999
 10
-31.740668
 20
-47.34472429999999
 10
-31.5255365
 20
-47.48824550000001
 10
-31.22861760000001
 20
-47.3034379
 10
-30.9601189
 20
-47.13092179999999
 10
-30.7024069
 20
-46.9602196
 10
-30.4553775
 20
-46.7915973
 10
-30.218921
 20
-46.625318
 10
-29.9929227
 20
-46.4616426
 10
-29.7772627
 20
-46.300829
 10
-29.5718158
 20
-46.1431321
 10
-29.3135479
 20
-45.9381532
 10
-29.0728822
 20
-45.7397523
 10
-28.8494805
 20
-45.54850839999999
 10
-28.6429894
 20
-45.3649903
 10
-28.4530404
 20
-45.189756
 10
-28.2382809
 20
-44.9831942
 10
-28.0479877
 20
-44.79147239999999
 10
-27.9333536
 20
-44.6713792
 10
-26.4732555
 20
-45.5518507
 10
-26.5599309
 20
-45.815118
 10
-26.6335208
 20
-46.05733789999999
 10
-26.7081598
 20
-46.32286939999999
 10
-26.782901
 20
-46.6118531
 10
-26.8445767
 20
-46.87066889999999
 10
-26.9051089
 20
-47.1458973
 10
-26.9639427
 20
-47.43757249999999
 10
-27.0205213
 20
-47.74571439999999
 10
-27.0637857
 20
-48.004088
 10
-27.104964
 20
-48.2730002
 10
-27.1437701
 20
-48.552441
 10
-27.1799176
 20
-48.8423948
 10
-27.2131204
 20
-49.1428399
 10
-27.2430923
 20
-49.4537484
 10
-27.2695474
 20
-49.775087
 10
-27.2882304
 20
-50.0434351
 10
-27.059083
 20
-50.16770820000001
 10
-26.8293696
 20
-50.290932
 10
-26.5990951
 20
-50.413104
 10
-26.3682643
 20
-50.5342216
 10
-26.136882
 20
-50.6542823
 10
-25.9067927
 20
-50.772345
 10
-25.6328756
 20
-50.5548957
 10
-25.3857924
 20
-50.35289760000001
 10
-25.1492188
 20
-50.1539311
 10
-24.9230211
 20
-49.9582487
 10
-24.7070603
 20
-49.76609929999999
 10
-24.5011928
 20
-49.5777289
 10
-24.3052698
 20
-49.3933801
 10
-24.1191382
 20
-49.2132919
 10
-23.8859196
 20
-48.9802089
 10
-23.66943860000001
 20
-48.75566729999999
 10
-23.4692933
 20
-48.5402041
 10
-23.2850676
 20
-48.334344
 10
-23.1163319
 20
-48.1385994
 10
-22.9265186
 20
-47.90890329999999
 10
-22.7593204
 20
-47.69673939999999
 10
-22.6591231
 20
-47.5643617
 10
-21.1081761
 20
-48.27265539999999
 10
-21.1642764
 20
-48.5440869
 10
-21.2097756
 20
-48.7931165
 10
-21.2536598
 20
-49.0654254
 10
-21.2949721
 20
-49.36104539999999
 10
-21.326743
 20
-49.62520470000001
 10
-21.355507
 20
-49.9055392
 10
-21.3807088
 20
-50.2020197
 10
-21.4017931
 20
-50.5146025
 10
-21.4153231
 20
-50.7762238
 10
-21.4255794
 20
-51.0480771
 10
-21.4322786
 20
-51.33012
 10
-21.4351383
 20
-51.6223043
 10
-21.4338765
 20
-51.9245758
 10
-21.4282121
 20
-52.2368743
 10
-21.4178649
 20
-52.559134
 10
-21.4058368
 20
-52.8278626
 10
-21.1640169
 20
-52.9252048
 10
-20.9217545
 20
-53.02144010000001
 10
-20.6790544
 20
-53.11656639999999
 10
-20.4359218
 20
-53.2105818
 10
-20.1923619
 20
-53.3034843
 10
-19.9503142
 20
-53.39454920000001
 10
-19.7029699
 20
-53.1472931
 10
-19.4805233
 20
-52.91844629999999
 10
-19.2681723
 20
-52.6938095
 10
-19.0657551
 20
-52.4736179
 10
-18.8731053
 20
-52.2581033
 10
-18.6900523
 20
-52.0474936
 10
-18.5164206
 20
-51.84201289999999
 10
-18.3520307
 20
-51.6418812
 10
-18.1469018
 20
-51.3837325
 10
-17.9574277
 20
-51.1359777
 10
-17.7831479
 20
-50.8991041
 10
-17.62358939999999
 20
-50.6735857
 10
-17.4782668
 20
-50.4598825
 10
-17.31587399999999
 20
-50.2100466
 10
-17.1739505
 20
-49.9802064
 10
-17.0894963
 20
-49.83727
 10
-15.4679194
 20
-50.36415220000001
 10
-15.4927131
 20
-50.64020939999999
 10
-15.5095286
 20
-50.89280229999999
 10
-15.5220858
 20
-51.1683387
 10
-15.5294307
 20
-51.4667409
 10
-15.5308826
 20
-51.73279990000001
 10
-15.5275034
 20
-52.014586
 10
-15.5187446
 20
-52.3120068
 10
-15.5040597
 20
-52.6249555
 10
-15.487679
 20
-52.88641379999999
 10
-15.4668795
 20
-53.1576642
 10
-15.4413846
 20
-53.43863240000001
 10
-15.4109191
 20
-53.7292381
 10
-15.3752092
 20
-54.02939549999999
 10
-15.3339824
 20
-54.33901269999999
 10
-15.2869678
 20
-54.6579922
 10
-15.2443853
 20
-54.9235982
 10
-14.9930456
 20
-54.9927405
 10
-14.7413922
 20
-55.0607326
 10
-14.4894306
 20
-55.12757310000001
 10
-14.2371658
 20
-55.19326070000001
 10
-13.9846034
 20
-55.2577939
 10
-13.7337528
 20
-55.3206738
 10
-13.5162058
 20
-55.0468343
 10
-13.3212958
 20
-54.7941222
 10
-13.1359356
 20
-54.5467434
 10
-12.9599377
 20
-54.30491329999998
 10
-12.7931106
 20
-54.06884309999999
 10
-12.6352584
 20
-53.83873969999999
 10
-12.4861815
 20
-53.6148059
 10
-12.3456765
 20
-53.3972396
 10
-12.1713113
 20
-53.1173907
 10
-12.0113142
 20
-52.8496523
 10
-11.865172
 20
-52.5944563
 10
-11.7323607
 20
-52.3522196
 10
-11.6123456
 20
-52.1233439
 10
-11.4794906
 20
-51.8566251
 10
-11.364692
 20
-51.612105
 10
-11.2970817
 20
-51.4604732
 10
-9.626014699999998
 20
-51.7990753
 10
-9.619178599999999
 20
-52.0761593
 10
-9.607091
 20
-52.3290226
 10
-9.5881576
 20
-52.60419429999999
 10
-9.561439399999999
 20
-52.90148879999999
 10
-9.532553399999999
 20
-53.16597909999999
 10
-9.497075
 20
-53.4455432
 10
-9.454469900000001
 20
-53.7400269
 10
-9.404207300000001
 20
-54.0492618
 10
-9.358129400000001
 20
-54.3071485
 10
-9.306545199999998
 20
-54.57425989999999
 10
-9.249188499999998
 20
-54.85049039999999
 10
-9.185795099999999
 20
-55.1357291
 10
-9.116102599999999
 20
-55.4298593
 10
-9.039850799999999
 20
-55.7327589
 10
-8.956781699999998
 20
-56.0443
 10
-8.884199999999999
 20
-56.3033206
 10
-8.6266169
 20
-56.3433616
 10
-8.3688534
 20
-56.3822243
 10
-8.110914799999999
 20
-56.4199077
 10
-7.852806599999999
 20
-56.45641099999999
 10
-7.5945342
 20
-56.4917336
 10
-7.3381509
 20
-56.5256089
 10
-7.1532374
 20
-56.22875579999999
 10
-6.988404799999999
 20
-55.95547289999999
 10
-6.832451899999999
 20
-55.6885771
 10
-6.6851678
 20
-55.428261
 10
-6.546337999999999
 20
-55.1747127
 10
-6.4157446
 20
-54.9281155
 10
-6.293166
 20
-54.6886478
 10
-6.178377499999999
 20
-54.4564834
 10
-6.037049299999999
 20
-54.1585824
 10
-5.9086149
 20
-53.8743509
 10
-5.7925154
 20
-53.60415940000001
 10
-5.6881827
 20
-53.3483623
 10
-5.5950398
 20
-53.10729779999999
 10
-5.4934544
 20
-52.8271732
 10
-5.4072773
 20
-52.5711609
 10
-5.3573925
 20
-52.4128105
 10
-3.6586201
 20
-52.5587182
 10
-3.6202434
 20
-52.8332169
 10
-3.579410399999999
 20
-53.083054
 10
-3.5292332
 20
-53.35427389999999
 10
-3.4688001
 20
-53.6465848
 10
-3.4099527
 20
-53.9060583
 10
-3.3428377
 20
-54.17975600000001
 10
-3.266941799999999
 20
-54.4674635
 10
-3.1817566
 20
-54.7689532
 10
-3.1065822
 20
-55.01990649999999
 10
-3.024885799999999
 20
-55.2793966
 10
-2.936415099999999
 20
-55.5472884
 10
-2.8409202
 20
-55.82344159999999
 10
-2.738153599999999
 20
-56.10771020000001
 10
-2.6278709
 20
-56.3999433
 10
-2.509830299999999
 20
-56.6999846
 10
-2.4081955
 20
-56.9490431
 10
-2.1477271
 20
-56.95946089999999
 10
-1.887213699999999
 20
-56.96868739999999
 10
-1.626660899999999
 20
-56.97672239999999
 10
-1.3660741
 20
-56.9835657
 10
-1.1054586
 20
-56.9892172
 10
-0.8468851
 20
-56.9936462
 10
-0.6970155
 20
-56.6776495
 10
-0.5644093000000002
 20
-56.3873584
 10
-0.4398967000000001
 20
-56.104425
 10
-0.3232465
 20
-55.8290167
 10
-0.214224
 20
-55.5612957
 10
-0.1125917
 20
-55.3014193
 10
-0.0181094
 20
-55.04953960000001
 10
0.0694662
 20
-54.8058035
 10
0.175915
 20
-54.4937342
 10
0.2711122
 20
-54.196715
 10
0.3556554
 20
-53.91505030000001
 10
0.4301494000000001
 20
-53.6490276
 10
0.4952059000000001
 20
-53.39891689999999
 10
0.5641973000000001
 20
-53.10903829999999
 10
0.6206295000000001
 20
-52.8448714
 10
0.6521385999999999
 20
-52.6818667
 10
2.3564701
 20
-52.63317779999999
 10
2.425887099999999
 20
-52.90151269999999
 10
2.4949333
 20
-53.1450667
 10
2.575700199999999
 20
-53.4087989
 10
2.669060299999999
 20
-53.69231559999999
 10
2.757101799999999
 20
-53.94338969999999
 10
2.854978499999999
 20
-54.20765279999999
 10
2.963175999999999
 20
-54.4848335
 10
3.082173099999999
 20
-54.7746476
 10
3.185464
 20
-55.0153959
 10
3.296207499999999
 20
-55.2638819
 10
3.414638899999999
 20
-55.5199426
 10
3.540990499999999
 20
-55.7834101
 10
3.675491399999999
 20
-56.0541113
 10
3.818367299999999
 20
-56.33186829999999
 10
3.9698406
 20
-56.6164982
 10
4.0992034
 20
-56.8523478
 10
4.359161599999999
 20
-56.83300649999999
 10
4.619028599999999
 20
-56.8124766
 10
4.878798999999999
 20
-56.7907584
 10
5.1384674
 20
-56.7678525
 10
5.3980283
 20
-56.74375920000001
 10
5.6554212
 20
-56.7186841
 10
5.768292999999999
 20
-56.3876634
 10
5.866944199999999
 20
-56.08414849999999
 10
5.958393099999999
 20
-55.788866
 10
6.0428888
 20
-55.5019557
 10
6.120682799999999
 20
-55.2235521
 10
6.1920289
 20
-54.9537845
 10
6.257183299999999
 20
-54.6927764
 10
6.3164042
 20
-54.44064629999999
 10
6.3865859
 20
-54.11847679999999
 10
6.447305
 20
-53.812542
 10
6.499189799999999
 20
-53.5230761
 10
6.5428739
 20
-53.2502957
 10
6.578995799999999
 20
-52.99439939999999
 10
6.6144939
 20
-52.69854590000001
 10
6.6404455
 20
-52.4296681
 10
6.653167999999999
 20
-52.2641341
 10
8.3408402
 20
-52.0214835
 10
8.440392599999999
 20
-52.28015629999999
 10
8.536751699999999
 20
-52.5142521
 10
8.647055400000001
 20
-52.76705849999999
 10
8.7721254
 20
-53.03808489999999
 10
8.8882133
 20
-53.2774865
 10
9.0155758
 20
-53.5288699
 10
9.154664199999999
 20
-53.7919103
 10
9.305922
 20
-54.0662707
 10
9.435982899999999
 20
-54.2936754
 10
9.574329800000001
 20
-54.5279179
 10
9.7211779
 20
-54.7688094
 10
9.876739
 20
-55.0161566
 10
10.0412208
 20
-55.2697613
 10
10.2148273
 20
-55.5294212
 10
10.3977586
 20
-55.79492909999999
 10
10.553163
 20
-56.0144952
 10
10.809222
 20
-55.965647
 10
11.0650549
 20
-55.9156282
 10
11.3206563
 20
-55.86444
 10
11.576021
 20
-55.8120834
 10
11.8311436
 20
-55.7585595
 10
12.0840005
 20
-55.70430729999999
 10
12.158403
 20
-55.36257779999999
 10
12.2218131
 20
-55.04979599999999
 10
12.2790062
 20
-54.74601379999999
 10
12.3302459
 20
-54.4513418
 10
12.3757972
 20
-54.1658851
 10
12.415927
 20
-53.8897431
 10
12.450904
 20
-53.62300929999999
 10
12.4809982
 20
-53.3657719
 10
12.5139979
 20
-53.03770229999999
 10
12.5394473
 20
-52.72684019999999
 10
12.5579972
 20
-52.43334670000001
 10
12.570302
 20
-52.1573647
 10
12.5770185
 20
-51.8990189
 10
12.5785604
 20
-51.6010473
 10
12.5736931
 20
-51.33096389999999
 10
12.5674633
 20
-51.1650586
 10
14.2164746
 20
-50.7316096
 10
14.3448646
 20
-50.9772482
 10
14.4672806
 20
-51.1988339
 10
14.605683
 20
-51.4374188
 10
14.7608325
 20
-51.6924217
 10
14.9034534
 20
-51.91702979999999
 10
15.0586412
 20
-52.15225639999999
 10
15.2268074
 20
-52.3977273
 10
15.4083539
 20
-52.6530573
 10
15.5634893
 20
-52.8641539
 10
15.727636
 20
-53.08109920000001
 10
15.9009865
 20
-53.3036811
 10
16.083729
 20
-53.53168329999999
 10
16.2760475
 20
-53.7648855
 10
16.4781214
 20
-54.0030632
 10
16.6901259
 20
-54.2459879
 10
16.869546
 20
-54.44640790000001
 10
17.1183676
 20
-54.3686896
 10
17.3668312
 20
-54.28983420000001
 10
17.6149316
 20
-54.2098432
 10
17.8626635
 20
-54.12871850000001
 10
18.1100219
 20
-54.04646170000001
 10
18.3550463
 20
-53.9637396
 10
18.3900096
 20
-53.6157564
 10
18.41735189999999
 20
-53.2977851
 10
18.4395437
 20
-52.9894635
 10
18.4568593
 20
-52.6908715
 10
18.469574
 20
-52.402083
 10
18.4779645
 20
-52.1231664
 10
18.4823081
 20
-51.8541842
 10
18.4828833
 20
-51.5951931
 10
18.4782709
 20
-51.2655003
 10
18.4681187
 20
-50.9537634
 10
18.453092
 20
-50.6600685
 10
18.4338569
 20
-50.3844828
 10
18.4110805
 20
-50.12705529999999
 10
18.3786462
 20
-49.8308502
 10
18.3430234
 20
-49.5630821
 10
18.3179224
 20
-49.3989684
 10
19.9067756
 20
-48.7803715
 10
20.0623294
 20
-49.0097736
 10
20.2092063
 20
-49.2159607
 10
20.37390310000001
 20
-49.43721370000001
 10
20.5571095
 20
-49.6728687
 10
20.7244042
 20
-49.8797551
 10
20.9053943
 20
-50.0957584
 10
21.1004458
 20
-50.3204598
 10
21.3099144
 20
-50.5534307
 10
21.4881018
 20
-50.74546729999999
 10
21.6759084
 20
-50.9422871
 10
21.8735014
 20
-51.1436577
 10
22.0810431
 20
-51.3493427
 10
22.298691
 20
-51.5591021
 10
22.5265979
 20
-51.7726926
 10
22.7649119
 20
-51.9898672
 10
22.9660086
 20
-52.1685285
 10
23.2043491
 20
-52.0629532
 10
23.4422043
 20
-51.95628909999999
 10
23.6795692
 20
-51.84853829999999
 10
23.9164389
 20
-51.739703
 10
24.1528083
 20
-51.62978569999999
 10
24.386806
 20
-51.5196721
 10
24.38187430000001
 20
-51.1699716
 10
24.3727924
 20
-50.85095609999999
 10
24.3596936
 20
-50.5421146
 10
24.3428593
 20
-50.243495
 10
24.3225718
 20
-49.9551396
 10
24.2991135
 20
-49.6770846
 10
24.2727671
 20
-49.4093606
 10
24.2438158
 20
-49.15199199999999
 10
24.2016513
 20
-48.824974
 10
24.15603
 20
-48.51642639999999
 10
24.1076225
 20
-48.22635879999999
 10
24.0570984
 20
-47.9547621
 10
24.0051259
 20
-47.70160879999999
 10
23.9391382
 20
-47.41103179999999
 10
23.8732243
 20
-47.1490697
 10
23.8295794
 20
-46.988887
 10
25.3375613
 20
-46.1932067
 10
25.518251
 20
-46.4033817
 10
25.6876741
 20
-46.5914821
 10
25.8765183
 20
-46.7925189
 10
26.0853932
 20
-47.0057539
 10
26.2751806
 20
-47.1922217
 10
26.4796135
 20
-47.3861856
 10
26.6990077
 20
-47.58718820000001
 10
26.9336676
 20
-47.79476289999999
 10
27.132584
 20
-47.96523589999999
 10
27.3416023
 20
-48.13936439999999
 10
27.5608618
 20
-48.3168985
 10
27.790497
 20
-48.4975848
 10
28.0306369
 20
-48.68116699999999
 10
28.2814058
 20
-48.86738579999999
 10
28.5429224
 20
-49.0559791
 10
28.7630742
 20
-49.21055250000001
 10
28.9878265
 20
-49.0784967
 10
29.2119725
 20
-48.9454143
 10
29.4355075
 20
-48.8113083
 10
29.6584269
 20
-48.67618140000001
 10
29.880726
 20
-48.5400364
 10
30.1006464
 20
-48.40396679999999
 10
30.05588400000001
 20
-48.05710799999999
 10
30.0104963
 20
-47.7412072
 10
29.9622775
 20
-47.43587189999999
 10
29.911513
 20
-47.1411177
 10
29.8584876
 20
-46.85695449999999
 10
29.8034863
 20
-46.58338599999999
 10
29.7467935
 20
-46.32041029999999
 10
29.6886931
 20
-46.0680196
 10
29.6095261
 20
-45.7479396
 10
29.5290304
 20
-45.4466036
 10
29.4478733
 20
-45.1639447
 10
29.3667188
 20
-44.89987769999999
 10
29.2862278
 20
-44.654299
 10
29.1875469
 20
-44.373138
 10
29.0922013
 20
-44.12039710000001
 10
29.0305814
 20
-43.9662337
 10
30.4380331
 20
-43.0038429
 10
30.6415032
 20
-43.19205079999999
 10
30.8312637
 20
-43.35961229999999
 10
31.0417935
 20
-43.5378121
 10
31.2736138
 20
-43.7258472
 10
31.4834199
 20
-43.8894654
 10
31.7086305
 20
-44.05886149999999
 10
31.9495072
 20
-44.23354479999999
 10
32.20629930000001
 20
-44.4130172
 10
32.42335150000001
 20
-44.55970429999999
 10
32.6508565
 20
-44.7088715
 10
32.8889242
 20
-44.8602547
 10
33.1376592
 20
-45.0135868
 10
33.3971607
 20
-45.1685985
 10
33.6675223
 20
-45.325018
 10
33.9488323
 20
-45.4825712
 10
34.1851692
 20
-45.6110417
 10
34.3934032
 20
-45.4542268
 10
34.6009179
 20
-45.2964612
 10
34.8077089
 20
-45.1377482
 10
35.013772
 20
-44.9780912
 10
35.2191027
 20
-44.8174935
 10
35.42207879999999
 20
-44.6572419
 10
35.33806929999999
 20
-44.31774639999999
 10
35.2569674
 20
-44.0090786
 10
35.1742574
 20
-43.7112301
 10
35.0902243
 20
-43.42418389999999
 10
35.0051524
 20
-43.14791739999999
 10
34.91932520000001
 20
-42.88240179999999
 10
34.8330249
 20
-42.6276027
 10
34.7465328
 20
-42.38348010000001
 10
34.63139550000001
 20
-42.07451079999999
 10
34.5170748
 20
-41.78431479999999
 10
34.404226
 20
-41.51274960000001
 10
34.29349910000001
 20
-41.25965469999999
 10
34.1855389
 20
-41.024852
 10
34.0554513
 20
-40.7567725
 10
33.9319169
 20
-40.5165476
 10
33.8531253
 20
-40.3704132
 10
35.14169860000001
 20
-39.2538581
 10
35.3652965
 20
-39.4176454
 10
35.57292070000001
 20
-39.56248370000001
 10
35.8023915
 20
-39.7155233
 10
36.0541351
 20
-39.87590729999999
 10
36.2812247
 20
-40.01454279999999
 10
36.524277
 20
-40.1571626
 10
36.7834959
 20
-40.30324939999999
 10
37.0590725
 20
-40.45228
 10
37.291431
 20
-40.57326879999999
 10
37.53445689999999
 20
-40.6955301
 10
37.7882292
 20
-40.8187888
 10
38.0528214
 20
-40.9427678
 10
38.3283014
 20
-41.0671882
 10
38.6147312
 20
-41.1917692
 10
38.9121673
 20
-41.31622849999999
 10
39.1616081
 20
-41.4169213
 10
39.3506093
 20
-41.2373916
 10
39.5387874
 20
-41.05699949999999
 10
39.72613870000001
 20
-40.8757486
 10
39.91265900000001
 20
-40.6936429
 10
40.09834459999999
 20
-40.51068599999999
 10
40.28173029999999
 20
-40.3283414
 10
40.1595688
 20
-40.00063529999999
 10
40.0438101
 20
-39.70322429999999
 10
39.927687
 20
-39.4167455
 10
39.8114809
 20
-39.1411495
 10
39.6954715
 20
-38.8763811
 10
39.57993720000001
 20
-38.6223798
 10
39.4651545
 20
-38.37907910000001
 10
39.3513984
 20
-38.1464071
 10
39.2017917
 20
-37.8525764
 10
39.0551363
 20
-37.5773036
 10
38.912067
 20
-37.3203723
 10
38.77321120000001
 20
-37.081549
 10
38.63918920000001
 20
-36.8605834
 10
38.4793908
 20
-36.6090802
 10
38.329278
 20
-36.38450300000001
 10
38.234342
 20
-36.2483027
 10
39.3872384
 20
-34.9921393
 10
39.62804910000001
 20
-35.1293708
 10
39.8508303
 20
-35.2495975
 10
40.0962505
 20
-35.3754819
 10
40.3646356
 20
-35.5061239
 10
40.6060482
 20
-35.6179695
 10
40.8637737
 20
-35.7319538
 10
41.1379556
 20
-35.8475396
 10
41.4287241
 20
-35.9641854
 10
41.67335969999999
 20
-36.05789870000001
 10
41.9287382
 20
-36.1516602
 10
42.19490679999999
 20
-36.2451876
 10
42.47190689999999
 20
-36.3381973
 10
42.7597741
 20
-36.43040429999999
 10
43.058538
 20
-36.5215227
 10
43.3682226
 20
-36.6112656
 10
43.6275157
 20
-36.6828679
 10
43.79482
 20
-36.4829639
 10
43.9612084
 20
-36.282297
 10
44.12667739999999
 20
-36.0808711
 10
44.2912234
 20
-35.8786907
 10
44.4548431
 20
-35.6757598
 10
44.6162478
 20
-35.4736994
 10
44.45752689999999
 20
-35.1620547
 10
44.3086205
 20
-34.8797778
 10
44.1605982
 20
-34.6084034
 10
44.01373389999999
 20
-34.3478503
 10
43.8682994
 20
-34.09803179999999
 10
43.7245642
 20
-33.8588561
 10
43.58279559999999
 20
-33.6302255
 10
43.44325829999999
 20
-33.4120373
 10
43.2611326
 20
-33.1371758
 10
43.0840544
 20
-32.8804147
 10
42.9126297
 20
-32.6414668
 10
42.7474552
 20
-32.4200287
 10
42.5891186
 20
-32.2157807
 10
42.4016926
 20
-31.9841325
 10
42.2269584
 20
-31.7781307
 10
42.1171156
 20
-31.6536401
 10
43.11930519999999
 20
-30.2742444
 10
43.37418949999999
 20
-30.3831311
 10
43.6092234
 20
-30.477179
 10
43.86739359999999
 20
-30.574267
 10
44.1489213
 20
-30.6734638
 10
44.4015098
 20
-30.7570614
 10
44.6705486
 20
-30.8409243
 10
44.9561191
 20
-30.9245023
 10
45.25828889999999
 20
-31.00724260000001
 10
45.5120124
 20
-31.0724587
 10
45.77641429999999
 20
-31.1364981
 10
46.05150929999999
 20
-31.199075
 10
46.33730609999999
 20
-31.2599027
 10
46.6338077
 20
-31.3186943
 10
46.9410109
 20
-31.37516230000001
 10
47.2589068
 20
-31.4290189
 10
47.5246718
 20
-31.4705972
 10
47.66809829999999
 20
-31.252925
 10
47.81052779999999
 20
-31.0345992
 10
47.95195739999999
 20
-30.8156243
 10
48.0923841
 20
-30.5960049
 10
48.2318049
 20
-30.3757455
 10
48.36912429999999
 20
-30.1566034
 10
48.1759132
 20
-29.8650829
 10
47.9958002
 20
-29.6016201
 10
47.81780839999999
 20
-29.34888780000001
 10
47.6422006
 20
-29.1067743
 10
47.4692369
 20
-28.8751625
 10
47.2991747
 20
-28.6539304
 10
47.1322682
 20
-28.4429505
 10
46.9687689
 20
-28.2420906
 10
46.7564985
 20
-27.9897814
 10
46.55130599999999
 20
-27.7548793
 10
46.3537606
 20
-27.5370299
 10
46.16442079999999
 20
-27.3358636
 10
45.9838337
 20
-27.1509961
 10
45.77122349999999
 20
-26.9422228
 10
45.57414589999999
 20
-26.7574819
 10
45.4508281
 20
-26.646324
 10
46.289246
 20
-25.1616785
 10
46.554881
 20
-25.2408007
 10
46.79910349999999
 20
-25.3074438
 10
47.06665809999999
 20
-25.3744698
 10
47.3576584
 20
-25.4409283
 10
47.6181298
 20
-25.495188
 10
47.89497449999999
 20
-25.5478362
 10
48.1882109
 20
-25.5983168
 10
48.4978427
 20
-25.646073
 10
48.7573465
 20
-25.6819417
  0
LWPOLYLINE
  5
84D
330
70
100
AcDbEntity
  8
0
 62
    13
100
AcDbPolyline
 90
      149
 70
     0
 43
0.0
 10
48.7573465
 20
-25.6819417
 10
49.0273248
 20
-25.7154242
 10
49.3077599
 20
-25.7462347
 10
49.5986277
 20
-25.7740876
 10
49.89989829999999
 20
-25.7986973
 10
50.21153599999999
 20
-25.8197786
 10
50.53349889999999
 20
-25.8370468
 10
50.8022711
 20
-25.8480592
 10
50.91995
 20
-25.6154565
 10
51.0365639
 20
-25.382318
 10
51.1521103
 20
-25.1486487
 10
51.2665869
 20
-24.9144534
 10
51.37999129999999
 20
-24.679737
 10
51.49143529999999
 20
-24.44637
 10
51.2662527
 20
-24.1787741
 10
51.0572813
 20
-23.93756
 10
50.8516404
 20
-23.7067646
 10
50.64957839999999
 20
-23.486247
 10
50.4513404
 20
-23.2758613
 10
50.2571681
 20
-23.0754569
 10
50.06729960000001
 20
-22.8848781
 10
49.8819697
 20
-22.7039649
 10
49.6423219
 20
-22.4774974
 10
49.4116901
 20
-22.2675167
 10
49.1905994
 20
-22.0736058
 10
48.9795625
 20
-21.8953338
 10
48.77907929999999
 20
-21.7322566
 10
48.5440565
 20
-21.5490799
 10
48.3272046
 20
-21.3880084
 10
48.1920197
 20
-21.2916322
 10
48.8557356
 20
-19.7210916
 10
49.1286585
 20
-19.769418
 10
49.37888579999999
 20
-19.8077874
 10
49.65233679999999
 20
-19.8438776
 10
49.9490159
 20
-19.8767313
 10
50.2139747
 20
-19.90094589999999
 10
50.49501629999999
 20
-19.92169289999999
 10
50.7920956
 20
-19.9384181
 10
51.105153
 20
-19.9505677
 10
51.3670539
 20
-19.9566214
 10
51.6390892
 20
-19.9591104
 10
51.9212085
 20
-19.9577529
 10
52.2133553
 20
-19.9522677
 10
52.5154674
 20
-19.9423748
 10
52.8274769
 20
-19.9277947
 10
53.1493096
 20
-19.9082493
 10
53.4175852
 20
-19.8885522
 10
53.50798229999999
 20
-19.6440513
 10
53.5972603
 20
-19.3991395
 10
53.6854172
 20
-19.153822
 10
53.77245139999999
 20
-18.9081038
 10
53.85836089999999
 20
-18.6619903
 10
53.9424767
 20
-18.41744079999999
 10
53.6882583
 20
-18.1772581
 10
53.45315260000001
 20
-17.9614371
 10
53.22254350000001
 20
-17.7555875
 10
52.99666139999999
 20
-17.5595406
 10
52.7757334
 20
-17.3731237
 10
52.5599824
 20
-17.1961595
 10
52.34962720000001
 20
-17.0284663
 10
52.1448828
 20
-16.8698584
 10
51.8809817
 20
-16.6721848
 10
51.62791729999999
 20
-16.4898629
 10
51.3861635
 20
-16.3224184
 10
51.1561807
 20
-16.1693649
 10
50.93841489999999
 20
-16.030204
 10
50.6840435
 20
-15.8750119
 10
50.45024429999999
 20
-15.7397095
 10
50.3049545
 20
-15.6593714
 10
50.7853161
 20
-14.0234101
 10
51.0619687
 20
-14.0403107
 10
51.3149388
 20
-14.0499062
 10
51.5907213
 20
-14.0545901
 10
51.8892116
 20
-14.0534108
 10
52.1552036
 20
-14.0472645
 10
52.43677829999999
 20
-14.03584
 10
52.7338276
 20
-14.01859169999999
 10
53.0462294
 20
-13.9949762
 10
53.30711329999999
 20
-13.9711359
 10
53.5776591
 20
-13.942599
 10
53.8577847
 20
-13.9090912
 10
54.14740189999999
 20
-13.8703396
 10
54.44641709999999
 20
-13.8260729
 10
54.7547308
 20
-13.7760215
 10
55.07223769999999
 20
-13.7199173
 10
55.3365194
 20
-13.6697675
 10
55.39845620000001
 20
-13.4165558
 10
55.45923440000001
 20
-13.1630635
 10
55.51885260000001
 20
-12.9092959
 10
55.57730970000001
 20
-12.6552583
 10
55.6346044
 20
-12.400956
 10
55.6902954
 20
-12.1484121
 10
55.4103553
 20
-11.9387736
 10
55.1521804
 20
-11.7511595
 10
54.8996093
 20
-11.5729391
 10
54.652852
 20
-11.4039187
 10
54.41211410000001
 20
-11.2439008
 10
54.177597
 20
-11.0926839
 10
53.94949739999999
 20
-10.9500625
 10
53.7280076
 20
-10.8158275
 10
53.44329359999999
 20
-10.6495249
 10
53.17109549999999
 20
-10.4972385
 10
52.91183039999999
 20
-10.3584433
 10
52.66589989999999
 20
-10.2326035
 10
52.4336904
 20
-10.1191732
 10
52.1632865
 20
-9.993988699999999
 10
51.915588
 20
-9.886219500000001
 10
51.76208729999999
 20
-9.822966799999999
 10
52.0528322
 20
-8.1429121
 10
52.3296081
 20
-8.128166399999999
 10
52.582023
 20
-8.108863000000001
 10
52.85654189999999
 20
-8.082079499999998
 10
53.15295210000001
 20
-8.046882499999998
 10
53.4165097
 20
-8.010455499999999
 10
53.6949467
 20
-7.9670084
 10
53.9880936
 20
-7.9160114
 10
54.2957671
 20
-7.8569387
 10
54.5522329
 20
-7.803515400000001
 10
54.81776230000001
 20
-7.744324599999999
 10
55.0922423
 20
-7.679103200000001
 10
55.3755544
 20
-7.607590400000001
 10
55.6675745
 20
-7.529527099999999
 10
55.9681731
 20
-7.444656799999999
 10
56.277215
 20
-7.3527252
 10
56.5340574
 20
-7.272776499999999
 10
56.5667265
 20
-7.014155
 10
56.59821260000001
 20
-6.7553868
 10
56.6285149
 20
-6.4964774
 10
56.65763290000001
 20
-6.237432
 10
56.68556579999999
 20
-5.978256299999999
 10
56.7121059
 20
-5.7210102
 10
56.41009359999999
 20
-5.544648999999999
 10
56.13221510000001
 20
-5.3876875
 10
55.8609747
 20
-5.2394197
 10
55.596559
 20
-5.0996293
 10
55.3391497
 20
-4.968096499999999
 10
55.08892370000001
 20
-4.844598099999999
 10
54.84605329999999
 20
-4.728907799999999
 10
54.6107057
 20
-4.620795799999999
 10
54.3088904
 20
-4.488032099999999
 10
54.0211073
 20
-4.367766599999999
 10
53.7477106
 20
-4.2594301
 10
53.4890385
 20
-4.1624445
 10
53.2454125
 20
-4.076223399999999
 10
52.96250129999999
 20
-3.9826787
 10
52.70413249999999
 20
-3.9038474
 10
52.54442220000001
 20
-3.858504799999999
 10
52.64176009999999
 20
-2.1562587
 10
52.915051
 20
-2.110059099999999
  0
ENDSEC
  0
SECTION
  2
OBJECTS
  0
DICTIONARY
  5
C
330
0
100
AcDbDictionary
281
     1
  3
ACAD_BACKGROUND
350
8E9
  3
ACAD_CIP_PREVIOUS_PRODUCT_INFO
350
8E8
  3
ACAD_COLOR
350
62
  3
ACAD_DETAILVIEWSTYLE
350
6A
  3
ACAD_GROUP
350
D
  3
ACAD_LAYOUT
350
61
  3
ACAD_MATERIAL
350
10
  3
ACAD_MLEADERSTYLE
350
65
  3
ACAD_MLINESTYLE
350
5E
  3
ACAD_PLOTSETTINGS
350
60
  3
ACAD_PLOTSTYLENAME
350
E
  3
ACAD_SCALELIST
350
42
  3
ACAD_SECTIONVIEWSTYLE
350
67
  3
ACAD_TABLESTYLE
350
63
  3
ACAD_VISUALSTYLE
350
29
  3
ACDB_RECOMPOSE_DATA
350
8FA
  3
AcDbVariableDictionary
350
8EE
  0
DICTIONARY
  5
8EC
330
54
100
AcDbDictionary
280
     1
281
     1
  3
ADSK_XREC_LAYER_RECONCILED
360
8ED
  0
DICTIONARY
  5
8E9
102
{ACAD_REACTORS
330
C
102
}
330
C
100
AcDbDictionary
281
     1
  0
XRECORD
  5
8E8
102
{ACAD_REACTORS
330
C
102
}
330
C
100
AcDbXrecord
280
     1
300
ACD
300
2013
300
ACD_F_S
  0
DICTIONARY
  5
62
102
{ACAD_REACTORS
330
C
102
}
330
C
100
AcDbDictionary
281
     1
  0
DICTIONARY
  5
6A
102
{ACAD_REACTORS
330
C
102
}
330
C
100
AcDbDictionary
281
     1
  3
Imperial24
350
6B
  0
DICTIONARY
  5
D
102
{ACAD_REACTORS
330
C
102
}
330
C
100
AcDbDictionary
281
     1
  0
DICTIONARY
  5
61
102
{ACAD_REACTORS
330
C
102
}
330
C
100
AcDbDictionary
281
     1
  3
Layout1
350
6F
  3
Model
350
73
  0
DICTIONARY
  5
10
102
{ACAD_REACTORS
330
C
102
}
330
C
100
AcDbDictionary
281
     1
  3
ByBlock
350
19
  3
ByLayer
350
11
  3
Global
350
21
  0
DICTIONARY
  5
65
102
{ACAD_REACTORS
330
C
102
}
330
C
100
AcDbDictionary
281
     1
  3
Standard
350
66
  0
DICTIONARY
  5
5E
102
{ACAD_REACTORS
330
C
102
}
330
C
100
AcDbDictionary
281
     1
  3
Standard
350
5F
  0
DICTIONARY
  5
60
102
{ACAD_REACTORS
330
C
102
}
330
C
100
AcDbDictionary
281
     1
  0
ACDBDICTIONARYWDFLT
  5
E
102
{ACAD_REACTORS
330
C
102
}
330
C
100
AcDbDictionary
281
     1
  3
Normal
350
F
100
AcDbDictionaryWithDefault
340
F
  0
DICTIONARY
  5
42
102
{ACAD_REACTORS
330
C
102
}
330
C
100
AcDbDictionary
281
     1
  3
A0
350
43
  3
A1
350
44
  3
A2
350
45
  3
A3
350
46
  3
A4
350
47
  3
A5
350
48
  3
A6
350
49
  3
A7
350
4A
  3
A8
350
4B
  3
A9
350
4C
  3
B0
350
4D
  3
B1
350
4E
  3
B2
350
4F
  3
B3
350
50
  3
B4
350
51
  3
B5
350
52
  3
B6
350
53
  0
DICTIONARY
  5
67
102
{ACAD_REACTORS
330
C
102
}
330
C
100
AcDbDictionary
281
     1
  3
Imperial24
350
69
  0
DICTIONARY
  5
63
102
{ACAD_REACTORS
330
C
102
}
330
C
100
AcDbDictionary
281
     1
  3
Standard
350
64
  0
DICTIONARY
  5
29
102
{ACAD_REACTORS
330
C
102
}
330
C
100
AcDbDictionary
281
     1
  3
2dWireframe
350
2F
  3
Basic
350
2E
  3
Brighten
350
35
  3
ColorChange
350
39
  3
Conceptual
350
32
  3
Dim
350
34
  3
EdgeColorOff
350
41
  3
Facepattern
350
38
  3
Flat
350
2A
  3
FlatWithEdges
350
2B
  3
Gouraud
350
2C
  3
GouraudWithEdges
350
2D
  3
Hidden
350
31
  3
JitterOff
350
3F
  3
Linepattern
350
37
  3
OverhangOff
350
40
  3
Realistic
350
33
  3
Shaded
350
3E
  3
Shaded with edges
350
3D
  3
Shades of Gray
350
3A
  3
Sketchy
350
3B
  3
Thicken
350
36
  3
Wireframe
350
30
  3
X-Ray
350
3C
  0
XRECORD
  5
8FA
102
{ACAD_REACTORS
330
C
102
}
330
C
100
AcDbXrecord
280
     1
 90
        1
330
64
  0
DICTIONARY
  5
8EE
102
{ACAD_REACTORS
330
C
102
}
330
C
100
AcDbDictionary
281
     1
  3
CANNOSCALE
350
8F4
  3
CMLEADERSTYLE
350
8F0
  3
CTABLESTYLE
350
8EF
  3
CVIEWDETAILSTYLE
350
8F1
  3
CVIEWSECTIONSTYLE
350
8F2
  3
LAYEREVAL
350
8F6
  3
LAYERNOTIFY
350
8F7
  3
LIGHTINGUNITS
350
8F5
  3
MSLTSCALE
350
8F3
  0
XRECORD
  5
8ED
102
{ACAD_REACTORS
330
8EC
102
}
330
8EC
100
AcDbXrecord
280
     1
290
     1
  0
ACDBDETAILVIEWSTYLE
  5
6B
102
{ACAD_REACTORS
330
6A
102
}
330
6A
100
AcDbModelDocViewStyle
 70
     0
  3
Imperial24
290
     0
100
AcDbDetailViewStyle
 70
     0
 71
     0
 90
        3
 71
     1
340
55
 62
   256
 40
0.24
340
0
 62
   256
 40
0.24
300

 40
0.36
280
     3
 71
     2
340
5C
 90
       25
 62
   256
 71
     3
340
55
 62
   256
 40
0.24
 90
        1
 40
0.75
 90
        1
300
%<\AcVar ViewType \f "%tc1">% %<\AcVar ViewDetailId>%\PSCALE %<\AcVar ViewScale \f "%sn">%
 71
     4
340
5C
 90
       25
 62
   256
340
5C
 90
       25
 62
   256
280
     0
  0
LAYOUT
  5
6F
102
{ACAD_REACTORS
330
61
102
}
330
61
100
AcDbPlotSettings
  1

  2
Microsoft XPS Document Writer
  4

  6

 40
0.0
 41
0.0
 42
0.0
 43
0.0
 44
0.0
 45
0.0
 46
0.0
 47
0.0
 48
0.0
 49
0.0
140
0.0
141
0.0
142
1.0
143
1.0
 70
   688
 72
     0
 73
     0
 74
     5
  7

 75
    16
147
1.0
 76
     0
 77
     2
 78
   300
148
0.0
149
0.0
100
AcDbLayout
  1
Layout1
 70
     1
 71
     1
 10
0.0
 20
0.0
 11
12.0
 21
9.0
 12
0.0
 22
0.0
 32
0.0
 14
1.000000000000000E+20
 24
1.000000000000000E+20
 34
1.000000000000000E+20
 15
-1.000000000000000E+20
 25
-1.000000000000000E+20
 35
-1.000000000000000E+20
146
0.0
 13
0.0
 23
0.0
 33
0.0
 16
1.0
 26
0.0
 36
0.0
 17
0.0
 27
1.0
 37
0.0
 76
     0
330
6C
  0
LAYOUT
  5
73
102
{ACAD_REACTORS
330
61
102
}
330
61
100
AcDbPlotSettings
  1

  2
Microsoft XPS Document Writer
  4

  6

 40
0.0
 41
0.0
 42
0.0
 43
0.0
 44
0.0
 45
0.0
 46
0.0
 47
0.0
 48
0.0
 49
0.0
140
0.0
141
0.0
142
1.0
143
1.0
 70
  1712
 72
     0
 73
     0
 74
     0
  7

 75
     0
147
1.0
 76
     0
 77
     2
 78
   300
148
0.0
149
0.0
100
AcDbLayout
  1
Model
 70
     1
 71
     0
 10
0.0
 20
0.0
 11
12.0
 21
9.0
 12
0.0
 22
0.0
 32
0.0
 14
0.0
 24
0.0
 34
0.0
 15
0.0
 25
0.0
 35
0.0
146
0.0
 13
0.0
 23
0.0
 33
0.0
 16
1.0
 26
0.0
 36
0.0
 17
0.0
 27
1.0
 37
0.0
 76
     0
330
70
331
8E7
  0
MATERIAL
  5
19
102
{ACAD_XDICTIONARY
360
1A
102
}
102
{ACAD_REACTORS
330
10
102
}
330
10
100
AcDbMaterial
  1
ByBlock
 72
     0
 43
0.0208333333333333
 43
0.0
 43
0.0
 43
0.0
 43
0.0
 43
0.0208333333333333
 43
0.0
 43
0.0
 43
0.0
 43
0.0
 43
1.0
 43
0.0
 43
0.0
 43
0.0
 43
0.0
 43
1.0
 77
     0
 47
0.0208333333333333
 47
0.0
 47
0.0
 47
0.0
 47
0.0
 47
0.0208333333333333
 47
0.0
 47
0.0
 47
0.0
 47
0.0
 47
1.0
 47
0.0
 47
0.0
 47
0.0
 47
0.0
 47
1.0
171
     0
 49
0.0208333333333333
 49
0.0
 49
0.0
 49
0.0
 49
0.0
 49
0.0208333333333333
 49
0.0
 49
0.0
 49
0.0
 49
0.0
 49
1.0
 49
0.0
 49
0.0
 49
0.0
 49
0.0
 49
1.0
175
     0
142
0.0208333333333333
142
0.0
142
0.0
142
0.0
142
0.0
142
0.0208333333333333
142
0.0
142
0.0
142
0.0
142
0.0
142
1.0
142
0.0
142
0.0
142
0.0
142
0.0
142
1.0
179
     0
144
0.0208333333333333
144
0.0
144
0.0
144
0.0
144
0.0
144
0.0208333333333333
144
0.0
144
0.0
144
0.0
144
0.0
144
1.0
144
0.0
144
0.0
144
0.0
144
0.0
144
1.0
147
0.0208333333333333
147
0.0
147
0.0
147
0.0
147
0.0
147
0.0208333333333333
147
0.0
147
0.0
147
0.0
147
0.0
147
1.0
147
0.0
147
0.0
147
0.0
147
0.0
147
1.0
  0
MATERIAL
  5
11
102
{ACAD_XDICTIONARY
360
12
102
}
102
{ACAD_REACTORS
330
10
102
}
330
10
100
AcDbMaterial
  1
ByLayer
 72
     0
 43
0.0208333333333333
 43
0.0
 43
0.0
 43
0.0
 43
0.0
 43
0.0208333333333333
 43
0.0
 43
0.0
 43
0.0
 43
0.0
 43
1.0
 43
0.0
 43
0.0
 43
0.0
 43
0.0
 43
1.0
 77
     0
 47
0.0208333333333333
 47
0.0
 47
0.0
 47
0.0
 47
0.0
 47
0.0208333333333333
 47
0.0
 47
0.0
 47
0.0
 47
0.0
 47
1.0
 47
0.0
 47
0.0
 47
0.0
 47
0.0
 47
1.0
171
     0
 49
0.0208333333333333
 49
0.0
 49
0.0
 49
0.0
 49
0.0
 49
0.0208333333333333
 49
0.0
 49
0.0
 49
0.0
 49
0.0
 49
1.0
 49
0.0
 49
0.0
 49
0.0
 49
0.0
 49
1.0
175
     0
142
0.0208333333333333
142
0.0
142
0.0
142
0.0
142
0.0
142
0.0208333333333333
142
0.0
142
0.0
142
0.0
142
0.0
142
1.0
142
0.0
142
0.0
142
0.0
142
0.0
142
1.0
179
     0
144
0.0208333333333333
144
0.0
144
0.0
144
0.0
144
0.0
144
0.0208333333333333
144
0.0
144
0.0
144
0.0
144
0.0
144
1.0
144
0.0
144
0.0
144
0.0
144
0.0
144
1.0
147
0.0208333333333333
147
0.0
147
0.0
147
0.0
147
0.0
147
0.0208333333333333
147
0.0
147
0.0
147
0.0
147
0.0
147
1.0
147
0.0
147
0.0
147
0.0
147
0.0
147
1.0
  0
MATERIAL
  5
21
102
{ACAD_XDICTIONARY
360
22
102
}
102
{ACAD_REACTORS
330
10
102
}
330
10
100
AcDbMaterial
  1
Global
 72
     0
 43
0.0208333333333333
 43
0.0
 43
0.0
 43
0.0
 43
0.0
 43
0.0208333333333333
 43
0.0
 43
0.0
 43
0.0
 43
0.0
 43
1.0
 43
0.0
 43
0.0
 43
0.0
 43
0.0
 43
1.0
 77
     0
 47
0.0208333333333333
 47
0.0
 47
0.0
 47
0.0
 47
0.0
 47
0.0208333333333333
 47
0.0
 47
0.0
 47
0.0
 47
0.0
 47
1.0
 47
0.0
 47
0.0
 47
0.0
 47
0.0
 47
1.0
171
     0
 49
0.0208333333333333
 49
0.0
 49
0.0
 49
0.0
 49
0.0
 49
0.0208333333333333
 49
0.0
 49
0.0
 49
0.0
 49
0.0
 49
1.0
 49
0.0
 49
0.0
 49
0.0
 49
0.0
 49
1.0
175
     0
142
0.0208333333333333
142
0.0
142
0.0
142
0.0
142
0.0
142
0.0208333333333333
142
0.0
142
0.0
142
0.0
142
0.0
142
1.0
142
0.0
142
0.0
142
0.0
142
0.0
142
1.0
179
     0
144
0.0208333333333333
144
0.0
144
0.0
144
0.0
144
0.0
144
0.0208333333333333
144
0.0
144
0.0
144
0.0
144
0.0
144
1.0
144
0.0
144
0.0
144
0.0
144
0.0
144
1.0
147
0.0208333333333333
147
0.0
147
0.0
147
0.0
147
0.0
147
0.0208333333333333
147
0.0
147
0.0
147
0.0
147
0.0
147
1.0
147
0.0
147
0.0
147
0.0
147
0.0
147
1.0
  0
MLEADERSTYLE
  5
66
102
{ACAD_REACTORS
330
65
102
}
330
65
100
AcDbMLeaderStyle
179
     2
170
     2
171
     1
172
     0
 90
        2
 40
0.0
 41
0.0
173
     1
 91
-1056964608
340
5A
 92
       -2
290
     1
 42
0.09
291
     1
 43
0.36
  3
Standard
 44
0.18
300

342
55
174
     1
178
     6
175
     1
176
     0
 93
-1056964608
 45
0.18
292
     0
297
     0
 46
0.18
 94
-1056964608
 47
1.0
 49
1.0
140
1.0
293
     1
141
0.0
294
     1
177
     0
142
1.0
295
     0
296
     0
143
0.125
271
     0
272
     9
273
     9
298
     0
  0
MLINESTYLE
  5
5F
102
{ACAD_REACTORS
330
5E
102
}
330
5E
100
AcDbMlineStyle
  2
STANDARD
 70
     0
  3

 62
   256
 51
90.0
 52
90.0
 71
     2
 49
0.5
 62
   256
  6
BYLAYER
 49
-0.5
 62
   256
  6
BYLAYER
  0
ACDBPLACEHOLDER
  5
F
102
{ACAD_REACTORS
330
E
102
}
330
E
  0
SCALE
  5
43
102
{ACAD_REACTORS
330
42
102
}
330
42
100
AcDbScale
 70
     0
300
1:1
140
1.0
141
1.0
290
     1
  0
SCALE
  5
44
102
{ACAD_REACTORS
330
42
102
}
330
42
100
AcDbScale
 70
     0
300
1/128" = 1'-0"
140
0.0078125
141
12.0
290
     0
  0
SCALE
  5
45
102
{ACAD_REACTORS
330
42
102
}
330
42
100
AcDbScale
 70
     0
300
1/64" = 1'-0"
140
0.015625
141
12.0
290
     0
  0
SCALE
  5
46
102
{ACAD_REACTORS
330
42
102
}
330
42
100
AcDbScale
 70
     0
300
1/32" = 1'-0"
140
0.03125
141
12.0
290
     0
  0
SCALE
  5
47
102
{ACAD_REACTORS
330
42
102
}
330
42
100
AcDbScale
 70
     0
300
1/16" = 1'-0"
140
0.0625
141
12.0
290
     0
  0
SCALE
  5
48
102
{ACAD_REACTORS
330
42
102
}
330
42
100
AcDbScale
 70
     0
300
3/32" = 1'-0"
140
0.09375
141
12.0
290
     0
  0
SCALE
  5
49
102
{ACAD_REACTORS
330
42
102
}
330
42
100
AcDbScale
 70
     0
300
1/8" = 1'-0"
140
0.125
141
12.0
290
     0
  0
SCALE
  5
4A
102
{ACAD_REACTORS
330
42
102
}
330
42
100
AcDbScale
 70
     0
300
3/16" = 1'-0"
140
0.1875
141
12.0
290
     0
  0
SCALE
  5
4B
102
{ACAD_REACTORS
330
42
102
}
330
42
100
AcDbScale
 70
     0
300
1/4" = 1'-0"
140
0.25
141
12.0
290
     0
  0
SCALE
  5
4C
102
{ACAD_REACTORS
330
42
102
}
330
42
100
AcDbScale
 70
     0
300
3/8" = 1'-0"
140
0.375
141
12.0
290
     0
  0
SCALE
  5
4D
102
{ACAD_REACTORS
330
42
102
}
330
42
100
AcDbScale
 70
     0
300
1/2" = 1'-0"
140
0.5
141
12.0
290
     0
  0
SCALE
  5
4E
102
{ACAD_REACTORS
330
42
102
}
330
42
100
AcDbScale
 70
     0
300
3/4" = 1'-0"
140
0.75
141
12.0
290
     0
  0
SCALE
  5
4F
102
{ACAD_REACTORS
330
42
102
}
330
42
100
AcDbScale
 70
     0
300
1" = 1'-0"
140
1.0
141
12.0
290
     0
  0
SCALE
  5
50
102
{ACAD_REACTORS
330
42
102
}
330
42
100
AcDbScale
 70
     0
300
1-1/2" = 1'-0"
140
1.5
141
12.0
290
     0
  0
SCALE
  5
51
102
{ACAD_REACTORS
330
42
102
}
330
42
100
AcDbScale
 70
     0
300
3" = 1'-0"
140
3.0
141
12.0
290
     0
  0
SCALE
  5
52
102
{ACAD_REACTORS
330
42
102
}
330
42
100
AcDbScale
 70
     0
300
6" = 1'-0"
140
6.0
141
12.0
290
     0
  0
SCALE
  5
53
102
{ACAD_REACTORS
330
42
102
}
330
42
100
AcDbScale
 70
     0
300
1'-0" = 1'-0"
140
12.0
141
12.0
290
     0
  0
ACDBSECTIONVIEWSTYLE
  5
69
102
{ACAD_REACTORS
330
67
102
}
330
67
100
AcDbModelDocViewStyle
 70
     0
  3
Imperial24
290
     0
100
AcDbSectionViewStyle
 70
     0
 71
     0
 90
       78
 71
     1
340
55
 62
   256
 40
0.24
340
0
340
0
 62
   256
 40
0.24
300
I, O, Q, S, X, Z
 40
0.48
 90
        3
 40
0.18
 90
        1
 71
     2
340
68
 90
       25
 62
   256
340
5C
 90
       50
 62
   256
 40
0.24
 40
0.0
 40
0.24
 71
     3
340
55
 62
   256
 40
0.24
 90
        1
 40
0.75
 90
        1
300
%<\AcVar ViewType \f "%tc1">% %<\AcVar ViewSectionStartId>%-%<\AcVar ViewSectionEndId>%\PSCALE %<\AcVar ViewScale \f "%sn">%
 71
     4
 62
   256
 62
   257
300
ANSI31
 40
1.0
 90
        0
290
     0
290
     0
 90
        6
 40
0.0
 40
1.570796326794896
 40
0.2617993877991494
 40
1.308996938995747
 40
-0.2617993877991494
 40
1.832595714594046
  0
TABLESTYLE
  5
64
102
{ACAD_XDICTIONARY
360
8F8
102
}
102
{ACAD_REACTORS
330
63
102
}
330
63
100
AcDbTableStyle
280
     0
  3
Standard
 70
     0
 71
     0
 40
0.06
 41
0.06
280
     0
281
     0
  7
Standard
140
0.18
170
     2
 62
     0
 63
     7
283
     0
 90
      512
 91
        0
  1

274
    -2
284
     1
 64
     0
275
    -2
285
     1
 65
     0
276
    -2
286
     1
 66
     0
277
    -2
287
     1
 67
     0
278
    -2
288
     1
 68
     0
279
    -2
289
     1
 69
     0
  7
Standard
140
0.25
170
     5
 62
     0
 63
     7
283
     0
 90
      512
 91
        0
  1

274
    -2
284
     1
 64
     0
275
    -2
285
     1
 65
     0
276
    -2
286
     1
 66
     0
277
    -2
287
     1
 67
     0
278
    -2
288
     1
 68
     0
279
    -2
289
     1
 69
     0
  7
Standard
140
0.18
170
     5
 62
     0
 63
     7
283
     0
 90
      512
 91
        0
  1

274
    -2
284
     1
 64
     0
275
    -2
285
     1
 65
     0
276
    -2
286
     1
 66
     0
277
    -2
287
     1
 67
     0
278
    -2
288
     1
 68
     0
279
    -2
289
     1
 69
     0
  0
VISUALSTYLE
  5
2F
102
{ACAD_REACTORS
330
29
102
}
330
29
100
AcDbVisualStyle
  2
2dWireframe
 70
     4
177
     3
291
     0
 70
    58
 90
        0
176
     1
 90
        2
176
     1
 90
        0
176
     1
 90
        0
176
     1
 40
0.6
176
     1
 40
30.0
176
     1
 62
     7
420
 16777215
176
     1
 90
        1
176
     1
 90
        4
176
     1
 62
     7
176
     1
 62
   257
176
     1
 90
        1
176
     1
 90
        1
176
     1
 40
1.0
176
     1
 90
        0
176
     1
 62
   257
176
     1
 40
1.0
176
     1
 90
        1
176
     1
 90
        6
176
     1
 90
        2
176
     1
 62
     7
176
     1
 90
        5
176
     1
 90
        0
176
     1
 90
        0
176
     1
290
     0
176
     1
 90
        1
176
     1
 40
0.0
176
     1
 90
        0
176
     1
290
     1
176
     1
290
     1
176
     1
290
     0
176
     1
290
     0
176
     1
290
     0
176
     1
290
     0
176
     1
290
     0
176
     1
290
     0
176
     1
290
     0
176
     1
 90
       50
176
     1
 40
0.0
176
     1
 40
1.0
176
     1
 90
        0
176
     1
 62
    18
420
        0
176
     1
 90
       50
176
     1
 90
        3
176
     1
 62
     5
420
      255
176
     1
290
     0
176
     1
 90
       50
176
     1
 90
       50
176
     1
 90
       50
176
     1
290
     0
176
     1
 90
       50
176
     1
 62
   256
176
     0
 40
1.0
176
     0
 90
        2
176
     1
  1
strokes_ogs.tif
176
     1
290
     0
176
     1
 40
1.0
176
     1
 40
1.0
176
     1
  0
VISUALSTYLE
  5
2E
102
{ACAD_REACTORS
330
29
102
}
330
29
100
AcDbVisualStyle
  2
Basic
 70
     7
177
     3
291
     1
 70
    58
 90
        1
176
     1
 90
        0
176
     1
 90
        1
176
     1
 90
        0
176
     1
 40
0.6
176
     1
 40
30.0
176
     1
 62
     7
420
 16777215
176
     1
 90
        0
176
     1
 90
        4
176
     1
 62
     7
176
     1
 62
   257
176
     1
 90
        1
176
     1
 90
        1
176
     1
 40
1.0
176
     1
 90
        8
176
     1
 62
     7
176
     1
 40
1.0
176
     1
 90
        1
176
     1
 90
        6
176
     1
 90
        2
176
     1
 62
     7
176
     1
 90
        5
176
     1
 90
        0
176
     1
 90
        0
176
     1
290
     0
176
     1
 90
        1
176
     1
 40
0.0
176
     1
 90
        0
176
     1
290
     0
176
     1
290
     1
176
     1
290
     1
176
     1
290
     0
176
     1
290
     0
176
     1
290
     0
176
     1
290
     0
176
     1
290
     0
176
     1
290
     0
176
     1
 90
       50
176
     1
 40
0.0
176
     1
 40
1.0
176
     1
 90
        0
176
     1
 62
    18
420
        0
176
     1
 90
       50
176
     1
 90
        3
176
     1
 62
     5
420
      255
176
     1
290
     0
176
     1
 90
       50
176
     1
 90
       50
176
     1
 90
       50
176
     1
290
     0
176
     1
 90
       50
176
     1
 62
   256
176
     0
 40
1.0
176
     0
 90
        2
176
     1
  1
strokes_ogs.tif
176
     1
290
     0
176
     1
 40
1.0
176
     1
 40
1.0
176
     1
  0
VISUALSTYLE
  5
35
102
{ACAD_REACTORS
330
29
102
}
330
29
100
AcDbVisualStyle
  2
Brighten
 70
    12
177
     3
291
     1
 70
    58
 90
        2
176
     1
 90
        2
176
     1
 90
        0
176
     1
 90
        0
176
     1
 40
0.6
176
     1
 40
30.0
176
     1
 62
     7
420
 16777215
176
     1
 90
        1
176
     1
 90
        4
176
     1
 62
     7
176
     1
 62
   257
176
     1
 90
        1
176
     1
 90
        1
176
     1
 40
1.0
176
     1
 90
        8
176
     1
 62
     7
176
     1
 40
1.0
176
     1
 90
        1
176
     1
 90
        6
176
     1
 90
        2
176
     1
 62
     7
176
     1
 90
        5
176
     1
 90
        0
176
     1
 90
        0
176
     1
290
     0
176
     1
 90
        1
176
     1
 40
50.0
176
     1
 90
        0
176
     1
290
     0
176
     1
290
     1
176
     1
290
     1
176
     1
290
     0
176
     1
290
     0
176
     1
290
     0
176
     1
290
     0
176
     1
290
     0
176
     1
290
     0
176
     1
 90
       50
176
     1
 40
0.0
176
     1
 40
1.0
176
     1
 90
        0
176
     1
 62
    18
420
        0
176
     1
 90
       50
176
     1
 90
        3
176
     1
 62
     5
420
      255
176
     1
290
     0
176
     1
 90
       50
176
     1
 90
       50
176
     1
 90
       50
176
     1
290
     0
176
     1
 90
       50
176
     1
 62
   256
176
     0
 40
1.0
176
     0
 90
        2
176
     1
  1
strokes_ogs.tif
176
     1
290
     0
176
     1
 40
1.0
176
     1
 40
1.0
176
     1
  0
VISUALSTYLE
  5
39
102
{ACAD_REACTORS
330
29
102
}
330
29
100
AcDbVisualStyle
  2
ColorChange
 70
    16
177
     3
291
     1
 70
    58
 90
        2
176
     1
 90
        2
176
     1
 90
        3
176
     1
 90
        0
176
     1
 40
0.6
176
     1
 40
30.0
176
     1
 62
     8
420
  8421504
176
     1
 90
        1
176
     1
 90
        4
176
     1
 62
     7
176
     1
 62
   257
176
     1
 90
        1
176
     1
 90
        1
176
     1
 40
1.0
176
     1
 90
        8
176
     1
 62
     8
420
  8421504
176
     1
 40
1.0
176
     1
 90
        1
176
     1
 90
        6
176
     1
 90
        2
176
     1
 62
     7
176
     1
 90
        5
176
     1
 90
        0
176
     1
 90
        0
176
     1
290
     0
176
     1
 90
        1
176
     1
 40
0.0
176
     1
 90
        0
176
     1
290
     0
176
     1
290
     1
176
     1
290
     1
176
     1
290
     0
176
     1
290
     0
176
     1
290
     0
176
     1
290
     0
176
     1
290
     0
176
     1
290
     0
176
     1
 90
       50
176
     1
 40
0.0
176
     1
 40
1.0
176
     1
 90
        0
176
     1
 62
    18
420
        0
176
     1
 90
       50
176
     1
 90
        3
176
     1
 62
     5
420
      255
176
     1
290
     0
176
     1
 90
       50
176
     1
 90
       50
176
     1
 90
       50
176
     1
290
     0
176
     1
 90
       50
176
     1
 62
   256
176
     0
 40
1.0
176
     0
 90
        2
176
     1
  1
strokes_ogs.tif
176
     1
290
     0
176
     1
 40
1.0
176
     1
 40
1.0
176
     1
  0
VISUALSTYLE
  5
32
102
{ACAD_REACTORS
330
29
102
}
330
29
100
AcDbVisualStyle
  2
Conceptual
 70
     9
177
     3
291
     0
 70
    58
 90
        3
176
     1
 90
        2
176
     1
 90
        0
176
     1
 90
        0
176
     1
 40
0.6
176
     1
 40
30.0
176
     1
 62
     7
420
 16777215
176
     1
 90
        2
176
     1
 90
        2
176
     1
 62
     7
176
     1
 62
   257
176
     1
 90
        1
176
     1
 90
        1
176
     1
 40
179.0
176
     1
 90
        8
176
     1
 62
     7
176
     1
 40
1.0
176
     1
 90
        1
176
     1
 90
        6
176
     1
 90
        2
176
     1
 62
     7
176
     1
 90
        3
176
     1
 90
        0
176
     1
 90
        0
176
     1
290
     0
176
     1
 90
        1
176
     1
 40
0.0
176
     1
 90
        0
176
     1
290
     0
176
     1
290
     1
176
     1
290
     1
176
     1
290
     0
176
     1
290
     0
176
     1
290
     0
176
     1
290
     0
176
     1
290
     0
176
     1
290
     0
176
     1
 90
       50
176
     1
 40
0.0
176
     1
 40
1.0
176
     1
 90
        0
176
     1
 62
    18
420
        0
176
     1
 90
       50
176
     1
 90
        3
176
     1
 62
     5
420
      255
176
     1
290
     0
176
     1
 90
       50
176
     1
 90
       50
176
     1
 90
       50
176
     1
290
     0
176
     1
 90
       50
176
     1
 62
   256
176
     0
 40
1.0
176
     0
 90
        2
176
     1
  1
strokes_ogs.tif
176
     1
290
     0
176
     1
 40
1.0
176
     1
 40
1.0
176
     1
  0
VISUALSTYLE
  5
34
102
{ACAD_REACTORS
330
29
102
}
330
29
100
AcDbVisualStyle
  2
Dim
 70
    11
177
     3
291
     1
 70
    58
 90
        2
176
     1
 90
        2
176
     1
 90
        0
176
     1
 90
        0
176
     1
 40
0.6
176
     1
 40
30.0
176
     1
 62
     7
420
 16777215
176
     1
 90
        1
176
     1
 90
        4
176
     1
 62
     7
176
     1
 62
   257
176
     1
 90
        1
176
     1
 90
        1
176
     1
 40
1.0
176
     1
 90
        8
176
     1
 62
     7
176
     1
 40
1.0
176
     1
 90
        1
176
     1
 90
        6
176
     1
 90
        2
176
     1
 62
     7
176
     1
 90
        5
176
     1
 90
        0
176
     1
 90
        0
176
     1
290
     0
176
     1
 90
        1
176
     1
 40
-50.0
176
     1
 90
        0
176
     1
290
     0
176
     1
290
     1
176
     1
290
     1
176
     1
290
     0
176
     1
290
     0
176
     1
290
     0
176
     1
290
     0
176
     1
290
     0
176
     1
290
     0
176
     1
 90
       50
176
     1
 40
0.0
176
     1
 40
1.0
176
     1
 90
        0
176
     1
 62
    18
420
        0
176
     1
 90
       50
176
     1
 90
        3
176
     1
 62
     5
420
      255
176
     1
290
     0
176
     1
 90
       50
176
     1
 90
       50
176
     1
 90
       50
176
     1
290
     0
176
     1
 90
       50
176
     1
 62
   256
176
     0
 40
1.0
176
     0
 90
        2
176
     1
  1
strokes_ogs.tif
176
     1
290
     0
176
     1
 40
1.0
176
     1
 40
1.0
176
     1
  0
VISUALSTYLE
  5
41
102
{ACAD_REACTORS
330
29
102
}
330
29
100
AcDbVisualStyle
  2
EdgeColorOff
 70
    22
177
     3
291
     1
 70
    58
 90
        2
176
     0
 90
        2
176
     0
 90
        0
176
     0
 90
        0
176
     0
 40
0.6
176
     0
 40
30.0
176
     0
 62
     7
420
 16777215
176
     0
 90
        1
176
     0
 90
        4
176
     0
 62
     7
176
     0
 62
   257
176
     0
 90
        1
176
     0
 90
        1
176
     0
 40
1.0
176
     0
 90
        8
176
     2
 62
     7
176
     0
 40
1.0
176
     0
 90
        1
176
     0
 90
        6
176
     0
 90
        2
176
     0
 62
     7
176
     0
 90
        5
176
     0
 90
        0
176
     0
 90
        0
176
     0
290
     0
176
     0
 90
        1
176
     0
 40
0.0
176
     0
 90
        0
176
     0
290
     0
176
     1
290
     1
176
     1
290
     1
176
     1
290
     0
176
     1
290
     0
176
     1
290
     0
176
     1
290
     0
176
     1
290
     0
176
     1
290
     0
176
     1
 90
       50
176
     0
 40
0.0
176
     0
 40
1.0
176
     0
 90
        0
176
     0
 62
    18
420
        0
176
     0
 90
       50
176
     0
 90
        3
176
     0
 62
     5
420
      255
176
     0
290
     0
176
     1
 90
       50
176
     0
 90
       50
176
     0
 90
       50
176
     0
290
     0
176
     1
 90
       50
176
     0
 62
   256
176
     0
 40
1.0
176
     0
 90
        2
176
     0
  1
strokes_ogs.tif
176
     0
290
     0
176
     1
 40
1.0
176
     0
 40
1.0
176
     0
  0
VISUALSTYLE
  5
38
102
{ACAD_REACTORS
330
29
102
}
330
29
100
AcDbVisualStyle
  2
Facepattern
 70
    15
177
     3
291
     1
 70
    58
 90
        2
176
     1
 90
        2
176
     1
 90
        0
176
     1
 90
        0
176
     1
 40
0.6
176
     1
 40
30.0
176
     1
 62
     7
420
 16777215
176
     1
 90
        1
176
     1
 90
        4
176
     1
 62
     7
176
     1
 62
   257
176
     1
 90
        1
176
     1
 90
        1
176
     1
 40
1.0
176
     1
 90
        8
176
     1
 62
     7
176
     1
 40
1.0
176
     1
 90
        1
176
     1
 90
        6
176
     1
 90
        2
176
     1
 62
     7
176
     1
 90
        5
176
     1
 90
        0
176
     1
 90
        0
176
     1
290
     0
176
     1
 90
        1
176
     1
 40
0.0
176
     1
 90
        0
176
     1
290
     0
176
     1
290
     1
176
     1
290
     1
176
     1
290
     0
176
     1
290
     0
176
     1
290
     0
176
     1
290
     0
176
     1
290
     0
176
     1
290
     0
176
     1
 90
       50
176
     1
 40
0.0
176
     1
 40
1.0
176
     1
 90
        0
176
     1
 62
    18
420
        0
176
     1
 90
       50
176
     1
 90
        3
176
     1
 62
     5
420
      255
176
     1
290
     0
176
     1
 90
       50
176
     1
 90
       50
176
     1
 90
       50
176
     1
290
     0
176
     1
 90
       50
176
     1
 62
   256
176
     0
 40
1.0
176
     0
 90
        2
176
     1
  1
strokes_ogs.tif
176
     1
290
     0
176
     1
 40
1.0
176
     1
 40
1.0
176
     1
  0
VISUALSTYLE
  5
2A
102
{ACAD_REACTORS
330
29
102
}
330
29
100
AcDbVisualStyle
  2
Flat
 70
     0
177
     3
291
     1
 70
    58
 90
        2
176
     1
 90
        1
176
     1
 90
        1
176
     1
 90
        2
176
     1
 40
0.6
176
     1
 40
30.0
176
     1
 62
     7
420
 16777215
176
     1
 90
        0
176
     1
 90
        0
176
     1
 62
     7
176
     1
 62
   257
176
     1
 90
        1
176
     1
 90
        1
176
     1
 40
1.0
176
     1
 90
        8
176
     1
 62
     7
176
     1
 40
1.0
176
     1
 90
        1
176
     1
 90
        6
176
     1
 90
        2
176
     1
 62
     7
176
     1
 90
        5
176
     1
 90
        0
176
     1
 90
        0
176
     1
290
     0
176
     1
 90
       13
176
     1
 40
0.0
176
     1
 90
        0
176
     1
290
     0
176
     1
290
     1
176
     1
290
     1
176
     1
290
     0
176
     1
290
     0
176
     1
290
     0
176
     1
290
     0
176
     1
290
     0
176
     1
290
     0
176
     1
 90
       50
176
     1
 40
0.0
176
     1
 40
1.0
176
     1
 90
        0
176
     1
 62
    18
420
        0
176
     1
 90
       50
176
     1
 90
        3
176
     1
 62
     5
420
      255
176
     1
290
     0
176
     1
 90
       50
176
     1
 90
       50
176
     1
 90
       50
176
     1
290
     0
176
     1
 90
       50
176
     1
 62
   256
176
     0
 40
1.0
176
     0
 90
        2
176
     1
  1
strokes_ogs.tif
176
     1
290
     0
176
     1
 40
1.0
176
     1
 40
1.0
176
     1
  0
VISUALSTYLE
  5
2B
102
{ACAD_REACTORS
330
29
102
}
330
29
100
AcDbVisualStyle
  2
FlatWithEdges
 70
     1
177
     3
291
     1
 70
    58
 90
        2
176
     1
 90
        1
176
     1
 90
        1
176
     1
 90
        2
176
     1
 40
0.6
176
     1
 40
30.0
176
     1
 62
     7
420
 16777215
176
     1
 90
        1
176
     1
 90
        0
176
     1
 62
     7
176
     1
 62
   257
176
     1
 90
        1
176
     1
 90
        1
176
     1
 40
1.0
176
     1
 90
        0
176
     1
 62
   257
176
     1
 40
1.0
176
     1
 90
        1
176
     1
 90
        6
176
     1
 90
        2
176
     1
 62
     7
176
     1
 90
        5
176
     1
 90
        0
176
     1
 90
        0
176
     1
290
     0
176
     1
 90
       13
176
     1
 40
0.0
176
     1
 90
        0
176
     1
290
     0
176
     1
290
     1
176
     1
290
     1
176
     1
290
     0
176
     1
290
     0
176
     1
290
     0
176
     1
290
     0
176
     1
290
     0
176
     1
290
     0
176
     1
 90
       50
176
     1
 40
0.0
176
     1
 40
1.0
176
     1
 90
        0
176
     1
 62
    18
420
        0
176
     1
 90
       50
176
     1
 90
        3
176
     1
 62
     5
420
      255
176
     1
290
     0
176
     1
 90
       50
176
     1
 90
       50
176
     1
 90
       50
176
     1
290
     0
176
     1
 90
       50
176
     1
 62
   256
176
     0
 40
1.0
176
     0
 90
        2
176
     1
  1
strokes_ogs.tif
176
     1
290
     0
176
     1
 40
1.0
176
     1
 40
1.0
176
     1
  0
VISUALSTYLE
  5
2C
102
{ACAD_REACTORS
330
29
102
}
330
29
100
AcDbVisualStyle
  2
Gouraud
 70
     2
177
     3
291
     1
 70
    58
 90
        2
176
     1
 90
        2
176
     1
 90
        1
176
     1
 90
        2
176
     1
 40
0.6
176
     1
 40
30.0
176
     1
 62
     7
420
 16777215
176
     1
 90
        0
176
     1
 90
        0
176
     1
 62
     7
176
     1
 62
   257
176
     1
 90
        1
176
     1
 90
        1
176
     1
 40
1.0
176
     1
 90
        0
176
     1
 62
     7
176
     1
 40
1.0
176
     1
 90
        1
176
     1
 90
        6
176
     1
 90
        2
176
     1
 62
     7
176
     1
 90
        5
176
     1
 90
        0
176
     1
 90
        0
176
     1
290
     0
176
     1
 90
       13
176
     1
 40
0.0
176
     1
 90
        0
176
     1
290
     0
176
     1
290
     1
176
     1
290
     1
176
     1
290
     0
176
     1
290
     0
176
     1
290
     0
176
     1
290
     0
176
     1
290
     0
176
     1
290
     0
176
     1
 90
       50
176
     1
 40
0.0
176
     1
 40
1.0
176
     1
 90
        0
176
     1
 62
    18
420
        0
176
     1
 90
       50
176
     1
 90
        3
176
     1
 62
     5
420
      255
176
     1
290
     0
176
     1
 90
       50
176
     1
 90
       50
176
     1
 90
       50
176
     1
290
     0
176
     1
 90
       50
176
     1
 62
   256
176
     0
 40
1.0
176
     0
 90
        2
176
     1
  1
strokes_ogs.tif
176
     1
290
     0
176
     1
 40
1.0
176
     1
 40
1.0
176
     1
  0
VISUALSTYLE
  5
2D
102
{ACAD_REACTORS
330
29
102
}
330
29
100
AcDbVisualStyle
  2
GouraudWithEdges
 70
     3
177
     3
291
     1
 70
    58
 90
        2
176
     1
 90
        2
176
     1
 90
        1
176
     1
 90
        2
176
     1
 40
0.6
176
     1
 40
30.0
176
     1
 62
     7
420
 16777215
176
     1
 90
        1
176
     1
 90
        0
176
     1
 62
     7
176
     1
 62
   257
176
     1
 90
        1
176
     1
 90
        1
176
     1
 40
1.0
176
     1
 90
        0
176
     1
 62
   257
176
     1
 40
1.0
176
     1
 90
        1
176
     1
 90
        6
176
     1
 90
        2
176
     1
 62
     7
176
     1
 90
        5
176
     1
 90
        0
176
     1
 90
        0
176
     1
290
     0
176
     1
 90
       13
176
     1
 40
0.0
176
     1
 90
        0
176
     1
290
     0
176
     1
290
     1
176
     1
290
     1
176
     1
290
     0
176
     1
290
     0
176
     1
290
     0
176
     1
290
     0
176
     1
290
     0
176
     1
290
     0
176
     1
 90
       50
176
     1
 40
0.0
176
     1
 40
1.0
176
     1
 90
        0
176
     1
 62
    18
420
        0
176
     1
 90
       50
176
     1
 90
        3
176
     1
 62
     5
420
      255
176
     1
290
     0
176
     1
 90
       50
176
     1
 90
       50
176
     1
 90
       50
176
     1
290
     0
176
     1
 90
       50
176
     1
 62
   256
176
     0
 40
1.0
176
     0
 90
        2
176
     1
  1
strokes_ogs.tif
176
     1
290
     0
176
     1
 40
1.0
176
     1
 40
1.0
176
     1
  0
VISUALSTYLE
  5
31
102
{ACAD_REACTORS
330
29
102
}
330
29
100
AcDbVisualStyle
  2
Hidden
 70
     6
177
     3
291
     0
 70
    58
 90
        1
176
     1
 90
        2
176
     1
 90
        2
176
     1
 90
        0
176
     1
 40
0.6
176
     1
 40
30.0
176
     1
 62
     7
420
 16777215
176
     1
 90
        2
176
     1
 90
        2
176
     1
 62
     7
176
     1
 62
   257
176
     1
 90
        2
176
     1
 90
        1
176
     1
 40
40.0
176
     1
 90
        0
176
     1
 62
   257
176
     1
 40
1.0
176
     1
 90
        1
176
     1
 90
        6
176
     1
 90
        2
176
     1
 62
     7
176
     1
 90
        3
176
     1
 90
        0
176
     1
 90
        0
176
     1
290
     0
176
     1
 90
        1
176
     1
 40
0.0
176
     1
 90
        0
176
     1
290
     0
176
     1
290
     1
176
     1
290
     1
176
     1
290
     0
176
     1
290
     0
176
     1
290
     0
176
     1
290
     0
176
     1
290
     0
176
     1
290
     0
176
     1
 90
       50
176
     1
 40
0.0
176
     1
 40
1.0
176
     1
 90
        0
176
     1
 62
    18
420
        0
176
     1
 90
       50
176
     1
 90
        3
176
     1
 62
     5
420
      255
176
     1
290
     0
176
     1
 90
       50
176
     1
 90
       50
176
     1
 90
       50
176
     1
290
     0
176
     1
 90
       50
176
     1
 62
   256
176
     0
 40
1.0
176
     0
 90
        2
176
     1
  1
strokes_ogs.tif
176
     1
290
     0
176
     1
 40
1.0
176
     1
 40
1.0
176
     1
  0
VISUALSTYLE
  5
3F
102
{ACAD_REACTORS
330
29
102
}
330
29
100
AcDbVisualStyle
  2
JitterOff
 70
    20
177
     3
291
     1
 70
    58
 90
        2
176
     0
 90
        2
176
     0
 90
        0
176
     0
 90
        0
176
     0
 40
0.6
176
     0
 40
30.0
176
     0
 62
     7
420
 16777215
176
     0
 90
        1
176
     0
 90
        4
176
     0
 62
     7
176
     0
 62
   257
176
     0
 90
        1
176
     0
 90
        1
176
     0
 40
1.0
176
     0
 90
       10
176
     2
 62
     7
176
     0
 40
1.0
176
     0
 90
        1
176
     0
 90
        6
176
     0
 90
        2
176
     0
 62
     7
176
     0
 90
        5
176
     0
 90
        0
176
     0
 90
        0
176
     0
290
     0
176
     0
 90
        1
176
     0
 40
0.0
176
     0
 90
        0
176
     0
290
     0
176
     1
290
     1
176
     1
290
     1
176
     1
290
     0
176
     1
290
     0
176
     1
290
     0
176
     1
290
     0
176
     1
290
     0
176
     1
290
     0
176
     1
 90
       50
176
     0
 40
0.0
176
     0
 40
1.0
176
     0
 90
        0
176
     0
 62
    18
420
        0
176
     0
 90
       50
176
     0
 90
        3
176
     0
 62
     5
420
      255
176
     0
290
     0
176
     1
 90
       50
176
     0
 90
       50
176
     0
 90
       50
176
     0
290
     0
176
     1
 90
       50
176
     0
 62
   256
176
     0
 40
1.0
176
     0
 90
        2
176
     0
  1
strokes_ogs.tif
176
     0
290
     0
176
     1
 40
1.0
176
     0
 40
1.0
176
     0
  0
VISUALSTYLE
  5
37
102
{ACAD_REACTORS
330
29
102
}
330
29
100
AcDbVisualStyle
  2
Linepattern
 70
    14
177
     3
291
     1
 70
    58
 90
        2
176
     1
 90
        2
176
     1
 90
        0
176
     1
 90
        0
176
     1
 40
0.6
176
     1
 40
30.0
176
     1
 62
     7
420
 16777215
176
     1
 90
        1
176
     1
 90
        4
176
     1
 62
     7
176
     1
 62
   257
176
     1
 90
        7
176
     1
 90
        7
176
     1
 40
1.0
176
     1
 90
        8
176
     1
 62
     7
176
     1
 40
1.0
176
     1
 90
        1
176
     1
 90
        6
176
     1
 90
        2
176
     1
 62
     7
176
     1
 90
        5
176
     1
 90
        0
176
     1
 90
        0
176
     1
290
     0
176
     1
 90
        1
176
     1
 40
0.0
176
     1
 90
        0
176
     1
290
     0
176
     1
290
     1
176
     1
290
     1
176
     1
290
     0
176
     1
290
     0
176
     1
290
     0
176
     1
290
     0
176
     1
290
     0
176
     1
290
     0
176
     1
 90
       50
176
     1
 40
0.0
176
     1
 40
1.0
176
     1
 90
        0
176
     1
 62
    18
420
        0
176
     1
 90
       50
176
     1
 90
        3
176
     1
 62
     5
420
      255
176
     1
290
     0
176
     1
 90
       50
176
     1
 90
       50
176
     1
 90
       50
176
     1
290
     0
176
     1
 90
       50
176
     1
 62
   256
176
     0
 40
1.0
176
     0
 90
        2
176
     1
  1
strokes_ogs.tif
176
     1
290
     0
176
     1
 40
1.0
176
     1
 40
1.0
176
     1
  0
VISUALSTYLE
  5
40
102
{ACAD_REACTORS
330
29
102
}
330
29
100
AcDbVisualStyle
  2
OverhangOff
 70
    21
177
     3
291
     1
 70
    58
 90
        2
176
     0
 90
        2
176
     0
 90
        0
176
     0
 90
        0
176
     0
 40
0.6
176
     0
 40
30.0
176
     0
 62
     7
420
 16777215
176
     0
 90
        1
176
     0
 90
        4
176
     0
 62
     7
176
     0
 62
   257
176
     0
 90
        1
176
     0
 90
        1
176
     0
 40
1.0
176
     0
 90
        9
176
     2
 62
     7
176
     0
 40
1.0
176
     0
 90
        1
176
     0
 90
        6
176
     0
 90
        2
176
     0
 62
     7
176
     0
 90
        5
176
     0
 90
        0
176
     0
 90
        0
176
     0
290
     0
176
     0
 90
        1
176
     0
 40
0.0
176
     0
 90
        0
176
     0
290
     0
176
     1
290
     1
176
     1
290
     1
176
     1
290
     0
176
     1
290
     0
176
     1
290
     0
176
     1
290
     0
176
     1
290
     0
176
     1
290
     0
176
     1
 90
       50
176
     0
 40
0.0
176
     0
 40
1.0
176
     0
 90
        0
176
     0
 62
    18
420
        0
176
     0
 90
       50
176
     0
 90
        3
176
     0
 62
     5
420
      255
176
     0
290
     0
176
     1
 90
       50
176
     0
 90
       50
176
     0
 90
       50
176
     0
290
     0
176
     1
 90
       50
176
     0
 62
   256
176
     0
 40
1.0
176
     0
 90
        2
176
     0
  1
strokes_ogs.tif
176
     0
290
     0
176
     1
 40
1.0
176
     0
 40
1.0
176
     0
  0
VISUALSTYLE
  5
33
102
{ACAD_REACTORS
330
29
102
}
330
29
100
AcDbVisualStyle
  2
Realistic
 70
     8
177
     3
291
     0
 70
    58
 90
        2
176
     1
 90
        3
176
     1
 90
        0
176
     1
 90
        2
176
     1
 40
0.6
176
     1
 40
30.0
176
     1
 62
     7
420
 16777215
176
     1
 90
        0
176
     1
 90
        0
176
     1
 62
     7
176
     1
 62
   257
176
     1
 90
        1
176
     1
 90
        1
176
     1
 40
1.0
176
     1
 90
        8
176
     1
 62
   257
176
     1
 40
1.0
176
     1
 90
        1
176
     1
 90
        6
176
     1
 90
        2
176
     1
 62
     7
176
     1
 90
        3
176
     1
 90
        0
176
     1
 90
        0
176
     1
290
     0
176
     1
 90
       13
176
     1
 40
0.0
176
     1
 90
        0
176
     1
290
     0
176
     1
290
     1
176
     1
290
     1
176
     1
290
     0
176
     1
290
     0
176
     1
290
     0
176
     1
290
     0
176
     1
290
     0
176
     1
290
     0
176
     1
 90
       50
176
     1
 40
0.0
176
     1
 40
1.0
176
     1
 90
        0
176
     1
 62
    18
420
        0
176
     1
 90
       50
176
     1
 90
        3
176
     1
 62
     5
420
      255
176
     1
290
     0
176
     1
 90
       50
176
     1
 90
       50
176
     1
 90
       50
176
     1
290
     0
176
     1
 90
       50
176
     1
 62
   256
176
     0
 40
1.0
176
     0
 90
        2
176
     1
  1
strokes_ogs.tif
176
     1
290
     0
176
     1
 40
1.0
176
     1
 40
1.0
176
     1
  0
VISUALSTYLE
  5
3E
102
{ACAD_REACTORS
330
29
102
}
330
29
100
AcDbVisualStyle
  2
Shaded
 70
    27
177
     3
291
     0
 70
    58
 90
        2
176
     1
 90
        2
176
     1
 90
        1
176
     1
 90
        2
176
     1
 40
0.6
176
     1
 40
30.0
176
     1
 62
     7
420
 16777215
176
     1
 90
        0
176
     1
 90
        4
176
     1
 62
     7
176
     1
 62
   257
176
     1
 90
        1
176
     1
 90
        1
176
     1
 40
1.0
176
     1
 90
        8
176
     1
 62
   257
176
     1
 40
1.0
176
     1
 90
        1
176
     1
 90
        6
176
     1
 90
        2
176
     1
 62
     8
420
  7895160
176
     1
 90
        3
176
     1
 90
        0
176
     1
 90
        0
176
     1
290
     0
176
     1
 90
        5
176
     1
 40
0.0
176
     1
 90
        0
176
     1
290
     0
176
     1
290
     1
176
     1
290
     1
176
     1
290
     0
176
     1
290
     0
176
     1
290
     0
176
     1
290
     0
176
     1
290
     0
176
     1
290
     0
176
     1
 90
       50
176
     1
 40
0.0
176
     1
 40
1.0
176
     1
 90
        0
176
     1
 62
    18
420
        0
176
     1
 90
       50
176
     1
 90
        3
176
     1
 62
     5
420
      255
176
     1
290
     0
176
     1
 90
       50
176
     1
 90
       50
176
     1
 90
       50
176
     1
290
     0
176
     1
 90
       50
176
     1
 62
   256
176
     0
 40
1.0
176
     0
 90
        2
176
     1
  1
strokes_ogs.tif
176
     1
290
     0
176
     1
 40
1.0
176
     1
 40
1.0
176
     1
  0
VISUALSTYLE
  5
3D
102
{ACAD_REACTORS
330
29
102
}
330
29
100
AcDbVisualStyle
  2
Shaded with edges
 70
    26
177
     3
291
     0
 70
    58
 90
        2
176
     1
 90
        2
176
     1
 90
        1
176
     1
 90
        2
176
     1
 40
0.6
176
     1
 40
30.0
176
     1
 62
     7
420
 16777215
176
     1
 90
        1
176
     1
 90
       10
176
     1
 62
     7
176
     1
 62
   257
176
     1
 90
        2
176
     1
 90
        1
176
     1
 40
1.0
176
     1
 90
        8
176
     1
 62
   257
176
     1
 40
1.0
176
     1
 90
        1
176
     1
 90
        6
176
     1
 90
        2
176
     1
 62
     7
176
     1
 90
        3
176
     1
 90
        0
176
     1
 90
        0
176
     1
290
     0
176
     1
 90
        5
176
     1
 40
0.0
176
     1
 90
        0
176
     1
290
     0
176
     1
290
     1
176
     1
290
     1
176
     1
290
     0
176
     1
290
     0
176
     1
290
     0
176
     1
290
     0
176
     1
290
     0
176
     1
290
     0
176
     1
 90
       50
176
     1
 40
0.0
176
     1
 40
1.0
176
     1
 90
        0
176
     1
 62
    18
420
        0
176
     1
 90
       50
176
     1
 90
        3
176
     1
 62
     5
420
      255
176
     1
290
     0
176
     1
 90
       50
176
     1
 90
       50
176
     1
 90
       50
176
     1
290
     0
176
     1
 90
       50
176
     1
 62
   256
176
     0
 40
1.0
176
     0
 90
        2
176
     1
  1
strokes_ogs.tif
176
     1
290
     0
176
     1
 40
1.0
176
     1
 40
1.0
176
     1
  0
VISUALSTYLE
  5
3A
102
{ACAD_REACTORS
330
29
102
}
330
29
100
AcDbVisualStyle
  2
Shades of Gray
 70
    23
177
     3
291
     0
 70
    58
 90
        2
176
     1
 90
        2
176
     1
 90
        3
176
     1
 90
        0
176
     1
 40
0.6
176
     1
 40
30.0
176
     1
 62
     7
420
 16777215
176
     1
 90
        2
176
     1
 90
        2
176
     1
 62
     7
176
     1
 62
     7
176
     1
 90
        1
176
     1
 90
        1
176
     1
 40
40.0
176
     1
 90
        8
176
     1
 62
     7
176
     1
 40
1.0
176
     1
 90
        1
176
     1
 90
        6
176
     1
 90
        2
176
     1
 62
     7
176
     1
 90
        3
176
     1
 90
        0
176
     1
 90
        0
176
     1
290
     0
176
     1
 90
        1
176
     1
 40
0.0
176
     1
 90
        0
176
     1
290
     0
176
     1
290
     1
176
     1
290
     1
176
     1
290
     0
176
     1
290
     0
176
     1
290
     0
176
     1
290
     0
176
     1
290
     0
176
     1
290
     0
176
     1
 90
       50
176
     1
 40
0.0
176
     1
 40
1.0
176
     1
 90
        0
176
     1
 62
    18
420
        0
176
     1
 90
       50
176
     1
 90
        3
176
     1
 62
     5
420
      255
176
     1
290
     0
176
     1
 90
       50
176
     1
 90
       50
176
     1
 90
       50
176
     1
290
     0
176
     1
 90
       50
176
     1
 62
   256
176
     0
 40
1.0
176
     0
 90
        2
176
     1
  1
strokes_ogs.tif
176
     1
290
     0
176
     1
 40
1.0
176
     1
 40
1.0
176
     1
  0
VISUALSTYLE
  5
3B
102
{ACAD_REACTORS
330
29
102
}
330
29
100
AcDbVisualStyle
  2
Sketchy
 70
    24
177
     3
291
     0
 70
    58
 90
        1
176
     1
 90
        2
176
     1
 90
        2
176
     1
 90
        0
176
     1
 40
0.6
176
     1
 40
30.0
176
     1
 62
     7
420
 16777215
176
     1
 90
        2
176
     1
 90
        2
176
     1
 62
     7
176
     1
 62
     7
176
     1
 90
        1
176
     1
 90
        1
176
     1
 40
40.0
176
     1
 90
       11
176
     1
 62
     7
176
     1
 40
1.0
176
     1
 90
        1
176
     1
 90
        6
176
     1
 90
        2
176
     1
 62
     7
176
     1
 90
        6
176
     1
 90
        0
176
     1
 90
        0
176
     1
290
     0
176
     1
 90
        1
176
     1
 40
0.0
176
     1
 90
        0
176
     1
290
     0
176
     1
290
     1
176
     1
290
     1
176
     1
290
     0
176
     1
290
     0
176
     1
290
     0
176
     1
290
     0
176
     1
290
     0
176
     1
290
     0
176
     1
 90
       50
176
     1
 40
0.0
176
     1
 40
1.0
176
     1
 90
        0
176
     1
 62
    18
420
        0
176
     1
 90
       50
176
     1
 90
        3
176
     1
 62
     5
420
      255
176
     1
290
     0
176
     1
 90
       50
176
     1
 90
       50
176
     1
 90
       50
176
     1
290
     0
176
     1
 90
       50
176
     1
 62
   256
176
     0
 40
1.0
176
     0
 90
        2
176
     1
  1
strokes_ogs.tif
176
     1
290
     0
176
     1
 40
1.0
176
     1
 40
1.0
176
     1
  0
VISUALSTYLE
  5
36
102
{ACAD_REACTORS
330
29
102
}
330
29
100
AcDbVisualStyle
  2
Thicken
 70
    13
177
     3
291
     1
 70
    58
 90
        2
176
     1
 90
        2
176
     1
 90
        0
176
     1
 90
        0
176
     1
 40
0.6
176
     1
 40
30.0
176
     1
 62
     7
420
 16777215
176
     1
 90
        1
176
     1
 90
        4
176
     1
 62
     7
176
     1
 62
   257
176
     1
 90
        1
176
     1
 90
        1
176
     1
 40
1.0
176
     1
 90
       12
176
     1
 62
     7
176
     1
 40
1.0
176
     1
 90
        1
176
     1
 90
        6
176
     1
 90
        2
176
     1
 62
     7
176
     1
 90
        5
176
     1
 90
        0
176
     1
 90
        0
176
     1
290
     0
176
     1
 90
        1
176
     1
 40
0.0
176
     1
 90
        0
176
     1
290
     0
176
     1
290
     1
176
     1
290
     1
176
     1
290
     0
176
     1
290
     0
176
     1
290
     0
176
     1
290
     0
176
     1
290
     0
176
     1
290
     0
176
     1
 90
       50
176
     1
 40
0.0
176
     1
 40
1.0
176
     1
 90
        0
176
     1
 62
    18
420
        0
176
     1
 90
       50
176
     1
 90
        3
176
     1
 62
     5
420
      255
176
     1
290
     0
176
     1
 90
       50
176
     1
 90
       50
176
     1
 90
       50
176
     1
290
     0
176
     1
 90
       50
176
     1
 62
   256
176
     0
 40
1.0
176
     0
 90
        2
176
     1
  1
strokes_ogs.tif
176
     1
290
     0
176
     1
 40
1.0
176
     1
 40
1.0
176
     1
  0
VISUALSTYLE
  5
30
102
{ACAD_REACTORS
330
29
102
}
330
29
100
AcDbVisualStyle
  2
Wireframe
 70
     5
177
     3
291
     0
 70
    58
 90
        0
176
     1
 90
        2
176
     1
 90
        0
176
     1
 90
        0
176
     1
 40
0.6
176
     1
 40
30.0
176
     1
 62
     7
420
 16777215
176
     1
 90
        1
176
     1
 90
        4
176
     1
 62
     7
176
     1
 62
   257
176
     1
 90
        1
176
     1
 90
        1
176
     1
 40
1.0
176
     1
 90
        0
176
     1
 62
   257
176
     1
 40
1.0
176
     1
 90
        1
176
     1
 90
        6
176
     1
 90
        2
176
     1
 62
     7
176
     1
 90
        3
176
     1
 90
        0
176
     1
 90
        0
176
     1
290
     0
176
     1
 90
        1
176
     1
 40
0.0
176
     1
 90
        0
176
     1
290
     0
176
     1
290
     1
176
     1
290
     1
176
     1
290
     0
176
     1
290
     0
176
     1
290
     0
176
     1
290
     0
176
     1
290
     0
176
     1
290
     0
176
     1
 90
       50
176
     1
 40
0.0
176
     1
 40
1.0
176
     1
 90
        0
176
     1
 62
    18
420
        0
176
     1
 90
       50
176
     1
 90
        3
176
     1
 62
     5
420
      255
176
     1
290
     0
176
     1
 90
       50
176
     1
 90
       50
176
     1
 90
       50
176
     1
290
     0
176
     1
 90
       50
176
     1
 62
   256
176
     0
 40
1.0
176
     0
 90
        2
176
     1
  1
strokes_ogs.tif
176
     1
290
     0
176
     1
 40
1.0
176
     1
 40
1.0
176
     1
  0
VISUALSTYLE
  5
3C
102
{ACAD_REACTORS
330
29
102
}
330
29
100
AcDbVisualStyle
  2
X-Ray
 70
    25
177
     3
291
     0
 70
    58
 90
        2
176
     1
 90
        2
176
     1
 90
        1
176
     1
 90
        1
176
     1
 40
0.5
176
     1
 40
30.0
176
     1
 62
     7
420
 16777215
176
     1
 90
        1
176
     1
 90
        0
176
     1
 62
     7
176
     1
 62
   257
176
     1
 90
        1
176
     1
 90
        1
176
     1
 40
1.0
176
     1
 90
        8
176
     1
 62
     7
176
     1
 40
1.0
176
     1
 90
        1
176
     1
 90
        6
176
     1
 90
        2
176
     1
 62
     7
176
     1
 90
        3
176
     1
 90
        0
176
     1
 90
        0
176
     1
290
     0
176
     1
 90
       13
176
     1
 40
0.0
176
     1
 90
        0
176
     1
290
     0
176
     1
290
     1
176
     1
290
     1
176
     1
290
     0
176
     1
290
     0
176
     1
290
     0
176
     1
290
     0
176
     1
290
     0
176
     1
290
     0
176
     1
 90
       50
176
     1
 40
0.0
176
     1
 40
1.0
176
     1
 90
        0
176
     1
 62
    18
420
        0
176
     1
 90
       50
176
     1
 90
        3
176
     1
 62
     5
420
      255
176
     1
290
     0
176
     1
 90
       50
176
     1
 90
       50
176
     1
 90
       50
176
     1
290
     0
176
     1
 90
       50
176
     1
 62
   256
176
     0
 40
1.0
176
     0
 90
        2
176
     1
  1
strokes_ogs.tif
176
     1
290
     0
176
     1
 40
1.0
176
     1
 40
1.0
176
     1
  0
DICTIONARYVAR
  5
8F4
102
{ACAD_REACTORS
330
8EE
102
}
330
8EE
100
DictionaryVariables
280
     0
  1
1:1
  0
DICTIONARYVAR
  5
8F0
102
{ACAD_REACTORS
330
8EE
102
}
330
8EE
100
DictionaryVariables
280
     0
  1
STANDARD
  0
DICTIONARYVAR
  5
8EF
102
{ACAD_REACTORS
330
8EE
102
}
330
8EE
100
DictionaryVariables
280
     0
  1
STANDARD
  0
DICTIONARYVAR
  5
8F1
102
{ACAD_REACTORS
330
8EE
102
}
330
8EE
100
DictionaryVariables
280
     0
  1
Imperial24
  0
DICTIONARYVAR
  5
8F2
102
{ACAD_REACTORS
330
8EE
102
}
330
8EE
100
DictionaryVariables
280
     0
  1
Imperial24
  0
DICTIONARYVAR
  5
8F6
102
{ACAD_REACTORS
330
8EE
102
}
330
8EE
100
DictionaryVariables
280
     0
  1
1
  0
DICTIONARYVAR
  5
8F7
102
{ACAD_REACTORS
330
8EE
102
}
330
8EE
100
DictionaryVariables
280
     0
  1
15
  0
DICTIONARYVAR
  5
8F5
102
{ACAD_REACTORS
330
8EE
102
}
330
8EE
100
DictionaryVariables
280
     0
  1
0
  0
DICTIONARYVAR
  5
8F3
102
{ACAD_REACTORS
330
8EE
102
}
330
8EE
100
DictionaryVariables
280
     0
  1
0
  0
DICTIONARY
  5
1A
330
19
100
AcDbDictionary
280
     1
281
     1
  3
BUMPTILE
360
1C
  3
DIFFUSETILE
360
1B
  3
OPACITYTILE
360
1F
  3
REFLECTIONTILE
360
1E
  3
REFRACTIONTILE
360
20
  3
SPECULARTILE
360
1D
  0
DICTIONARY
  5
12
330
11
100
AcDbDictionary
280
     1
281
     1
  3
BUMPTILE
360
14
  3
DIFFUSETILE
360
13
  3
OPACITYTILE
360
17
  3
REFLECTIONTILE
360
16
  3
REFRACTIONTILE
360
18
  3
SPECULARTILE
360
15
  0
DICTIONARY
  5
22
330
21
100
AcDbDictionary
280
     1
281
     1
  3
BUMPTILE
360
24
  3
DIFFUSETILE
360
23
  3
OPACITYTILE
360
27
  3
REFLECTIONTILE
360
26
  3
REFRACTIONTILE
360
28
  3
SPECULARTILE
360
25
  0
DICTIONARY
  5
8F8
330
64
100
AcDbDictionary
280
     1
281
     1
  3
ACAD_ROUNDTRIP_2008_TABLESTYLE_CELLSTYLEMAP
360
8F9
  0
XRECORD
  5
1C
102
{ACAD_REACTORS
330
1A
102
}
330
1A
100
AcDbXrecord
280
     1
270
     1
271
     1
  0
XRECORD
  5
1B
102
{ACAD_REACTORS
330
1A
102
}
330
1A
100
AcDbXrecord
280
     1
270
     1
271
     1
  0
XRECORD
  5
1F
102
{ACAD_REACTORS
330
1A
102
}
330
1A
100
AcDbXrecord
280
     1
270
     1
271
     1
  0
XRECORD
  5
1E
102
{ACAD_REACTORS
330
1A
102
}
330
1A
100
AcDbXrecord
280
     1
270
     1
271
     1
  0
XRECORD
  5
20
102
{ACAD_REACTORS
330
1A
102
}
330
1A
100
AcDbXrecord
280
     1
270
     1
271
     1
  0
XRECORD
  5
1D
102
{ACAD_REACTORS
330
1A
102
}
330
1A
100
AcDbXrecord
280
     1
270
     1
271
     1
  0
XRECORD
  5
14
102
{ACAD_REACTORS
330
12
102
}
330
12
100
AcDbXrecord
280
     1
270
     1
271
     1
  0
XRECORD
  5
13
102
{ACAD_REACTORS
330
12
102
}
330
12
100
AcDbXrecord
280
     1
270
     1
271
     1
  0
XRECORD
  5
17
102
{ACAD_REACTORS
330
12
102
}
330
12
100
AcDbXrecord
280
     1
270
     1
271
     1
  0
XRECORD
  5
16
102
{ACAD_REACTORS
330
12
102
}
330
12
100
AcDbXrecord
280
     1
270
     1
271
     1
  0
XRECORD
  5
18
102
{ACAD_REACTORS
330
12
102
}
330
12
100
AcDbXrecord
280
     1
270
     1
271
     1
  0
XRECORD
  5
15
102
{ACAD_REACTORS
330
12
102
}
330
12
100
AcDbXrecord
280
     1
270
     1
271
     1
  0
XRECORD
  5
24
102
{ACAD_REACTORS
330
22
102
}
330
22
100
AcDbXrecord
280
     1
270
     1
271
     1
  0
XRECORD
  5
23
102
{ACAD_REACTORS
330
22
102
}
330
22
100
AcDbXrecord
280
     1
270
     1
271
     1
  0
XRECORD
  5
27
102
{ACAD_REACTORS
330
22
102
}
330
22
100
AcDbXrecord
280
     1
270
     1
271
     1
  0
XRECORD
  5
26
102
{ACAD_REACTORS
330
22
102
}
330
22
100
AcDbXrecord
280
     1
270
     1
271
     1
  0
XRECORD
  5
28
102
{ACAD_REACTORS
330
22
102
}
330
22
100
AcDbXrecord
280
     1
270
     1
271
     1
  0
XRECORD
  5
25
102
{ACAD_REACTORS
330
22
102
}
330
22
100
AcDbXrecord
280
     1
270
     1
271
     1
  0
CELLSTYLEMAP
  5
8F9
102
{ACAD_REACTORS
330
8F8
102
}
330
8F8
100
AcDbCellStyleMap
 90
        3
300
CELLSTYLE
  1
TABLEFORMAT_BEGIN
 90
        5
170
     1
 91
        0
 92
    32768
 62
   257
 93
        1
300
CONTENTFORMAT
  1
CONTENTFORMAT_BEGIN
 90
        0
 91
        0
 92
      512
 93
        0
300

 40
0.0
140
1.0
 94
        5
 62
     0
340
55
144
0.25
309
CONTENTFORMAT_END
171
     0
 94
        0
309
TABLEFORMAT_END
  1
CELLSTYLE_BEGIN
 90
        1
 91
        1
300
_TITLE
309
CELLSTYLE_END
300
CELLSTYLE
  1
TABLEFORMAT_BEGIN
 90
        5
170
     1
 91
        0
 92
        0
 62
   257
 93
        1
300
CONTENTFORMAT
  1
CONTENTFORMAT_BEGIN
 90
        0
 91
        0
 92
      512
 93
        0
300

 40
0.0
140
1.0
 94
        5
 62
     0
340
55
144
0.18
309
CONTENTFORMAT_END
171
     0
 94
        0
309
TABLEFORMAT_END
  1
CELLSTYLE_BEGIN
 90
        2
 91
        1
300
_HEADER
309
CELLSTYLE_END
300
CELLSTYLE
  1
TABLEFORMAT_BEGIN
 90
        5
170
     1
 91
        0
 92
        0
 62
   257
 93
        1
300
CONTENTFORMAT
  1
CONTENTFORMAT_BEGIN
 90
        0
 91
        0
 92
      512
 93
        0
300

 40
0.0
140
1.0
 94
        2
 62
     0
340
55
144
0.18
309
CONTENTFORMAT_END
171
     0
 94
        0
309
TABLEFORMAT_END
  1
CELLSTYLE_BEGIN
 90
        3
 91
        2
300
_DATA
309
CELLSTYLE_END
  0
ENDSEC
  0
EOF
