  0
SECTION
  2
HEADER
  9
$ACADVER
  1
AC1027
  9
$ACADMAINTVER
 70
     8
  9
$DWGCODEPAGE
  3
ANSI_1252
  9
$LASTSAVEDBY
  1
Amelia
  9
$REQUIREDVERSIONS
160
                 0
  9
$INSBASE
 10
0.0
 20
0.0
 30
0.0
  9
$EXTMIN
 10
-36.9106784
 20
-36.9887474
 30
0.0
  9
$EXTMAX
 10
36.9999168
 20
36.9887474
 30
0.0
  9
$LIMMIN
 10
0.0
 20
0.0
  9
$LIMMAX
 10
12.0
 20
9.0
  9
$ORTHOMODE
 70
     0
  9
$REGENMODE
 70
     1
  9
$FILLMODE
 70
     1
  9
$QTEXTMODE
 70
     0
  9
$MIRRTEXT
 70
     0
  9
$LTSCALE
 40
1.0
  9
$ATTMODE
 70
     1
  9
$TEXTSIZE
 40
0.2
  9
$TRACEWID
 40
0.05
  9
$TEXTSTYLE
  7
Standard
  9
$CLAYER
  8
0
  9
$CELTYPE
  6
Continuous
  9
$CECOLOR
 62
   256
  9
$CELTSCALE
 40
1.0
  9
$DISPSILH
 70
     0
  9
$DIMSCALE
 40
1.0
  9
$DIMASZ
 40
0.18
  9
$DIMEXO
 40
0.0625
  9
$DIMDLI
 40
0.38
  9
$DIMRND
 40
0.0
  9
$DIMDLE
 40
0.0
  9
$DIMEXE
 40
0.18
  9
$DIMTP
 40
0.0
  9
$DIMTM
 40
0.0
  9
$DIMTXT
 40
0.18
  9
$DIMCEN
 40
0.09
  9
$DIMTSZ
 40
0.0
  9
$DIMTOL
 70
     0
  9
$DIMLIM
 70
     0
  9
$DIMTIH
 70
     1
  9
$DIMTOH
 70
     1
  9
$DIMSE1
 70
     0
  9
$DIMSE2
 70
     0
  9
$DIMTAD
 70
     0
  9
$DIMZIN
 70
     0
  9
$DIMBLK
  1

  9
$DIMASO
 70
     1
  9
$DIMSHO
 70
     1
  9
$DIMPOST
  1

  9
$DIMAPOST
  1

  9
$DIMALT
 70
     0
  9
$DIMALTD
 70
     2
  9
$DIMALTF
 40
25.4
  9
$DIMLFAC
 40
1.0
  9
$DIMTOFL
 70
     0
  9
$DIMTVP
 40
0.0
  9
$DIMTIX
 70
     0
  9
$DIMSOXD
 70
     0
  9
$DIMSAH
 70
     0
  9
$DIMBLK1
  1

  9
$DIMBLK2
  1

  9
$DIMSTYLE
  2
Standard
  9
$DIMCLRD
 70
     0
  9
$DIMCLRE
 70
     0
  9
$DIMCLRT
 70
     0
  9
$DIMTFAC
 40
1.0
  9
$DIMGAP
 40
0.09
  9
$DIMJUST
 70
     0
  9
$DIMSD1
 70
     0
  9
$DIMSD2
 70
     0
  9
$DIMTOLJ
 70
     1
  9
$DIMTZIN
 70
     0
  9
$DIMALTZ
 70
     0
  9
$DIMALTTZ
 70
     0
  9
$DIMUPT
 70
     0
  9
$DIMDEC
 70
     4
  9
$DIMTDEC
 70
     4
  9
$DIMALTU
 70
     2
  9
$DIMALTTD
 70
     2
  9
$DIMTXSTY
  7
Standard
  9
$DIMAUNIT
 70
     0
  9
$DIMADEC
 70
     0
  9
$DIMALTRND
 40
0.0
  9
$DIMAZIN
 70
     0
  9
$DIMDSEP
 70
    46
  9
$DIMATFIT
 70
     3
  9
$DIMFRAC
 70
     0
  9
$DIMLDRBLK
  1

  9
$DIMLUNIT
 70
     2
  9
$DIMLWD
 70
    -2
  9
$DIMLWE
 70
    -2
  9
$DIMTMOVE
 70
     0
  9
$DIMFXL
 40
1.0
  9
$DIMFXLON
 70
     0
  9
$DIMJOGANG
 40
0.7853981633974483
  9
$DIMTFILL
 70
     0
  9
$DIMTFILLCLR
 70
     0
  9
$DIMARCSYM
 70
     0
  9
$DIMLTYPE
  6

  9
$DIMLTEX1
  6

  9
$DIMLTEX2
  6

  9
$DIMTXTDIRECTION
 70
     0
  9
$LUNITS
 70
     2
  9
$LUPREC
 70
     4
  9
$SKETCHINC
 40
0.1
  9
$FILLETRAD
 40
0.0
  9
$AUNITS
 70
     0
  9
$AUPREC
 70
     0
  9
$MENU
  1
.
  9
$ELEVATION
 40
0.0
  9
$PELEVATION
 40
0.0
  9
$THICKNESS
 40
0.0
  9
$LIMCHECK
 70
     0
  9
$CHAMFERA
 40
0.0
  9
$CHAMFERB
 40
0.0
  9
$CHAMFERC
 40
0.0
  9
$CHAMFERD
 40
0.0
  9
$SKPOLY
 70
     0
  9
$TDCREATE
 40
2456558.974509039
  9
$TDUCREATE
 40
2456558.557842373
  9
$TDUPDATE
 40
2456558.975670058
  9
$TDUUPDATE
 40
2456558.559003391
  9
$TDINDWG
 40
0.0011610185
  9
$TDUSRTIMER
 40
0.0011610185
  9
$USRTIMER
 70
     1
  9
$ANGBASE
 50
0.0
  9
$ANGDIR
 70
     0
  9
$PDMODE
 70
     0
  9
$PDSIZE
 40
0.0
  9
$PLINEWID
 40
0.0
  9
$SPLFRAME
 70
     0
  9
$SPLINETYPE
 70
     6
  9
$SPLINESEGS
 70
     8
  9
$HANDSEED
  5
5E7
  9
$SURFTAB1
 70
     6
  9
$SURFTAB2
 70
     6
  9
$SURFTYPE
 70
     6
  9
$SURFU
 70
     6
  9
$SURFV
 70
     6
  9
$UCSBASE
  2

  9
$UCSNAME
  2

  9
$UCSORG
 10
0.0
 20
0.0
 30
0.0
  9
$UCSXDIR
 10
1.0
 20
0.0
 30
0.0
  9
$UCSYDIR
 10
0.0
 20
1.0
 30
0.0
  9
$UCSORTHOREF
  2

  9
$UCSORTHOVIEW
 70
     0
  9
$UCSORGTOP
 10
0.0
 20
0.0
 30
0.0
  9
$UCSORGBOTTOM
 10
0.0
 20
0.0
 30
0.0
  9
$UCSORGLEFT
 10
0.0
 20
0.0
 30
0.0
  9
$UCSORGRIGHT
 10
0.0
 20
0.0
 30
0.0
  9
$UCSORGFRONT
 10
0.0
 20
0.0
 30
0.0
  9
$UCSORGBACK
 10
0.0
 20
0.0
 30
0.0
  9
$PUCSBASE
  2

  9
$PUCSNAME
  2

  9
$PUCSORG
 10
0.0
 20
0.0
 30
0.0
  9
$PUCSXDIR
 10
1.0
 20
0.0
 30
0.0
  9
$PUCSYDIR
 10
0.0
 20
1.0
 30
0.0
  9
$PUCSORTHOREF
  2

  9
$PUCSORTHOVIEW
 70
     0
  9
$PUCSORGTOP
 10
0.0
 20
0.0
 30
0.0
  9
$PUCSORGBOTTOM
 10
0.0
 20
0.0
 30
0.0
  9
$PUCSORGLEFT
 10
0.0
 20
0.0
 30
0.0
  9
$PUCSORGRIGHT
 10
0.0
 20
0.0
 30
0.0
  9
$PUCSORGFRONT
 10
0.0
 20
0.0
 30
0.0
  9
$PUCSORGBACK
 10
0.0
 20
0.0
 30
0.0
  9
$USERI1
 70
     0
  9
$USERI2
 70
     0
  9
$USERI3
 70
     0
  9
$USERI4
 70
     0
  9
$USERI5
 70
     0
  9
$USERR1
 40
0.0
  9
$USERR2
 40
0.0
  9
$USERR3
 40
0.0
  9
$USERR4
 40
0.0
  9
$USERR5
 40
0.0
  9
$WORLDVIEW
 70
     1
  9
$SHADEDGE
 70
     3
  9
$SHADEDIF
 70
    70
  9
$TILEMODE
 70
     1
  9
$MAXACTVP
 70
    64
  9
$PINSBASE
 10
0.0
 20
0.0
 30
0.0
  9
$PLIMCHECK
 70
     0
  9
$PEXTMIN
 10
1.000000000000000E+20
 20
1.000000000000000E+20
 30
1.000000000000000E+20
  9
$PEXTMAX
 10
-1.000000000000000E+20
 20
-1.000000000000000E+20
 30
-1.000000000000000E+20
  9
$PLIMMIN
 10
0.0
 20
0.0
  9
$PLIMMAX
 10
12.0
 20
9.0
  9
$UNITMODE
 70
     0
  9
$VISRETAIN
 70
     1
  9
$PLINEGEN
 70
     0
  9
$PSLTSCALE
 70
     1
  9
$TREEDEPTH
 70
  3020
  9
$CMLSTYLE
  2
Standard
  9
$CMLJUST
 70
     0
  9
$CMLSCALE
 40
1.0
  9
$PROXYGRAPHICS
 70
     1
  9
$MEASUREMENT
 70
     0
  9
$CELWEIGHT
370
    -1
  9
$ENDCAPS
280
     0
  9
$JOINSTYLE
280
     0
  9
$LWDISPLAY
290
     0
  9
$INSUNITS
 70
     0
  9
$HYPERLINKBASE
  1

  9
$STYLESHEET
  1

  9
$XEDIT
290
     1
  9
$CEPSNTYPE
380
     0
  9
$PSTYLEMODE
290
     1
  9
$FINGERPRINTGUID
  2
{35189F2C-A1FF-44E7-B888-A282FA7D2D86}
  9
$VERSIONGUID
  2
{97857396-2B8E-48C7-959D-4D004DB5C248}
  9
$EXTNAMES
290
     1
  9
$PSVPSCALE
 40
0.0
  9
$OLESTARTUP
290
     0
  9
$SORTENTS
280
   127
  9
$INDEXCTL
280
     0
  9
$HIDETEXT
280
     0
  9
$XCLIPFRAME
280
     2
  9
$HALOGAP
280
     0
  9
$OBSCOLOR
 70
   257
  9
$OBSLTYPE
280
     0
  9
$INTERSECTIONDISPLAY
280
     0
  9
$INTERSECTIONCOLOR
 70
   257
  9
$DIMASSOC
280
     1
  9
$PROJECTNAME
  1

  9
$CAMERADISPLAY
290
     0
  9
$LENSLENGTH
 40
50.0
  9
$CAMERAHEIGHT
 40
0.0
  9
$STEPSPERSEC
 40
2.0
  9
$STEPSIZE
 40
6.0
  9
$3DDWFPREC
 40
2.0
  9
$PSOLWIDTH
 40
0.25
  9
$PSOLHEIGHT
 40
4.0
  9
$LOFTANG1
 40
1.570796326794896
  9
$LOFTANG2
 40
1.570796326794896
  9
$LOFTMAG1
 40
0.0
  9
$LOFTMAG2
 40
0.0
  9
$LOFTPARAM
 70
     7
  9
$LOFTNORMALS
280
     1
  9
$LATITUDE
 40
37.795
  9
$LONGITUDE
 40
-122.394
  9
$NORTHDIRECTION
 40
0.0
  9
$TIMEZONE
 70
 -8000
  9
$LIGHTGLYPHDISPLAY
280
     1
  9
$TILEMODELIGHTSYNCH
280
     1
  9
$CMATERIAL
347
11
  9
$SOLIDHIST
280
     0
  9
$SHOWHIST
280
     1
  9
$DWFFRAME
280
     2
  9
$DGNFRAME
280
     0
  9
$REALWORLDSCALE
290
     1
  9
$INTERFERECOLOR
 62
     1
  9
$INTERFEREOBJVS
345
33
  9
$INTERFEREVPVS
346
30
  9
$CSHADOW
280
     0
  9
$SHADOWPLANELOCATION
 40
0.0
  0
ENDSEC
  0
SECTION
  2
CLASSES
  0
CLASS
  1
ACDBDICTIONARYWDFLT
  2
AcDbDictionaryWithDefault
  3
ObjectDBX Classes
 90
        0
 91
        1
280
     0
281
     0
  0
CLASS
  1
MATERIAL
  2
AcDbMaterial
  3
ObjectDBX Classes
 90
     1153
 91
        3
280
     0
281
     0
  0
CLASS
  1
VISUALSTYLE
  2
AcDbVisualStyle
  3
ObjectDBX Classes
 90
     4095
 91
       24
280
     0
281
     0
  0
CLASS
  1
SCALE
  2
AcDbScale
  3
ObjectDBX Classes
 90
     1153
 91
       17
280
     0
281
     0
  0
CLASS
  1
TABLESTYLE
  2
AcDbTableStyle
  3
ObjectDBX Classes
 90
     4095
 91
        1
280
     0
281
     0
  0
CLASS
  1
MLEADERSTYLE
  2
AcDbMLeaderStyle
  3
ACDB_MLEADERSTYLE_CLASS
 90
     4095
 91
        1
280
     0
281
     0
  0
CLASS
  1
ACDBSECTIONVIEWSTYLE
  2
AcDbSectionViewStyle
  3
ObjectDBX Classes
 90
     1025
 91
        1
280
     0
281
     0
  0
CLASS
  1
ACDBDETAILVIEWSTYLE
  2
AcDbDetailViewStyle
  3
ObjectDBX Classes
 90
     1025
 91
        1
280
     0
281
     0
  0
CLASS
  1
DICTIONARYVAR
  2
AcDbDictionaryVar
  3
ObjectDBX Classes
 90
        0
 91
        9
280
     0
281
     0
  0
CLASS
  1
CELLSTYLEMAP
  2
AcDbCellStyleMap
  3
ObjectDBX Classes
 90
     1152
 91
        1
280
     0
281
     0
  0
ENDSEC
  0
SECTION
  2
TABLES
  0
TABLE
  2
VPORT
  5
8
330
0
100
AcDbSymbolTable
 70
     1
  0
VPORT
  5
5D6
330
8
100
AcDbSymbolTableRecord
100
AcDbViewportTableRecord
  2
*Active
 70
     0
 10
0.0
 20
0.0
 11
1.0
 21
1.0
 12
13.30964467005076
 22
4.5
 13
0.0
 23
0.0
 14
1.0
 24
1.0
 15
0.0
 25
0.0
 16
0.0
 26
0.0
 36
1.0
 17
0.0
 27
0.0
 37
0.0
 40
9.0
 41
2.957698815566836
 42
50.0
 43
0.0
 44
0.0
 50
0.0
 51
0.0
 71
     0
 72
  1000
 73
     1
 74
     3
 75
     0
 76
     0
 77
     0
 78
     0
281
     0
 65
     1
110
0.0
120
0.0
130
0.0
111
1.0
121
0.0
131
0.0
112
0.0
122
1.0
132
0.0
 79
     0
146
0.0
348
2F
 60
     3
 61
     5
292
     1
282
     1
141
0.0
142
0.0
 63
   250
421
  3355443
1001
ACAD_NAV_VCDISPLAY
1070
     1
  0
ENDTAB
  0
TABLE
  2
LTYPE
  5
5
330
0
100
AcDbSymbolTable
 70
     2
  0
LTYPE
  5
5A
330
5
100
AcDbSymbolTableRecord
100
AcDbLinetypeTableRecord
  2
ByBlock
 70
     0
  3

 72
    65
 73
     0
 40
0.0
  0
LTYPE
  5
5B
330
5
100
AcDbSymbolTableRecord
100
AcDbLinetypeTableRecord
  2
ByLayer
 70
     0
  3

 72
    65
 73
     0
 40
0.0
  0
LTYPE
  5
5C
330
5
100
AcDbSymbolTableRecord
100
AcDbLinetypeTableRecord
  2
Continuous
 70
     0
  3
Solid line
 72
    65
 73
     0
 40
0.0
  0
LTYPE
  5
68
330
5
100
AcDbSymbolTableRecord
100
AcDbLinetypeTableRecord
  2
PHANTOM2
 70
     0
  3
Phantom (.5x) ___ _ _ ___ _ _ ___ _ _ ___ _ _
 72
    65
 73
     6
 40
1.25
 49
0.625
 74
     0
 49
-0.125
 74
     0
 49
0.125
 74
     0
 49
-0.125
 74
     0
 49
0.125
 74
     0
 49
-0.125
 74
     0
  0
ENDTAB
  0
TABLE
  2
LAYER
  5
2
330
0
100
AcDbSymbolTable
 70
     1
  0
LAYER
  5
54
102
{ACAD_XDICTIONARY
360
5D8
102
}
330
2
100
AcDbSymbolTableRecord
100
AcDbLayerTableRecord
  2
0
 70
     0
 62
     7
  6
Continuous
370
    -3
390
F
347
21
348
0
  0
ENDTAB
  0
TABLE
  2
STYLE
  5
3
330
0
100
AcDbSymbolTable
 70
     2
  0
STYLE
  5
55
330
3
100
AcDbSymbolTableRecord
100
AcDbTextStyleTableRecord
  2
Standard
 70
     0
 40
0.0
 41
1.0
 50
0.0
 71
     0
 42
0.2
  3
txt
  4

  0
STYLE
  5
59
330
3
100
AcDbSymbolTableRecord
100
AcDbTextStyleTableRecord
  2
Annotative
 70
     0
 40
0.0
 41
1.0
 50
0.0
 71
     0
 42
0.2
  3
txt
  4

1001
AcadAnnotative
1000
AnnotativeData
1002
{
1070
     1
1070
     1
1002
}
  0
ENDTAB
  0
TABLE
  2
VIEW
  5
6
330
0
100
AcDbSymbolTable
 70
     0
  0
ENDTAB
  0
TABLE
  2
UCS
  5
7
330
0
100
AcDbSymbolTable
 70
     0
  0
ENDTAB
  0
TABLE
  2
APPID
  5
9
330
0
100
AcDbSymbolTable
 70
     3
  0
APPID
  5
56
330
9
100
AcDbSymbolTableRecord
100
AcDbRegAppTableRecord
  2
ACAD
 70
     0
  0
APPID
  5
5D
330
9
100
AcDbSymbolTableRecord
100
AcDbRegAppTableRecord
  2
AcadAnnotative
 70
     0
  0
APPID
  5
5D5
330
9
100
AcDbSymbolTableRecord
100
AcDbRegAppTableRecord
  2
ACAD_NAV_VCDISPLAY
 70
     0
  0
ENDTAB
  0
TABLE
  2
DIMSTYLE
  5
A
330
0
100
AcDbSymbolTable
 70
     2
100
AcDbDimStyleTable
 71
     0
  0
DIMSTYLE
105
57
330
A
100
AcDbSymbolTableRecord
100
AcDbDimStyleTableRecord
  2
Standard
 70
     0
340
55
  0
DIMSTYLE
105
58
330
A
100
AcDbSymbolTableRecord
100
AcDbDimStyleTableRecord
  2
Annotative
 70
     0
340
55
1001
AcadAnnotative
1000
AnnotativeData
1002
{
1070
     1
1070
     1
1002
}
  0
ENDTAB
  0
TABLE
  2
BLOCK_RECORD
  5
1
330
0
100
AcDbSymbolTable
 70
     0
  0
BLOCK_RECORD
  5
70
330
1
100
AcDbSymbolTableRecord
100
AcDbBlockTableRecord
  2
*Model_Space
340
73
 70
     0
280
     1
281
     0
  0
BLOCK_RECORD
  5
6C
330
1
100
AcDbSymbolTableRecord
100
AcDbBlockTableRecord
  2
*Paper_Space
340
6F
 70
     0
280
     1
281
     0
  0
ENDTAB
  0
ENDSEC
  0
SECTION
  2
BLOCKS
  0
BLOCK
  5
71
330
70
100
AcDbEntity
  8
0
100
AcDbBlockBegin
  2
*Model_Space
 70
     0
 10
0.0
 20
0.0
 30
0.0
  3
*Model_Space
  1

  0
ENDBLK
  5
72
330
70
100
AcDbEntity
  8
0
100
AcDbBlockEnd
  0
BLOCK
  5
6D
330
6C
100
AcDbEntity
 67
     1
  8
0
100
AcDbBlockBegin
  2
*Paper_Space
 70
     0
 10
0.0
 20
0.0
 30
0.0
  3
*Paper_Space
  1

  0
ENDBLK
  5
6E
330
6C
100
AcDbEntity
 67
     1
  8
0
100
AcDbBlockEnd
  0
ENDSEC
  0
SECTION
  2
ENTITIES
  0
CIRCLE
  5
74
330
70
100
AcDbEntity
  8
0
 62
    13
100
AcDbCircle
 10
0.0
 20
0.0
 30
0.0
 40
2.5
  0
LWPOLYLINE
  5
75
330
70
100
AcDbEntity
  8
0
 62
    13
100
AcDbPolyline
 90
     1002
 70
     0
 43
0.0
 10
33.2177991
 20
-1.948573899999999
 10
33.4790531
 20
-1.9177431
 10
33.751076
 20
-1.8741386
 10
34.0076661
 20
-1.8238291
 10
34.2608999
 20
-1.7663526
 10
34.53727410000001
 20
-1.695460599999999
 10
34.79763629999999
 20
-1.6213777
 10
35.07486110000001
 20
-1.5351246
 10
35.325563
 20
-1.450851199999999
 10
35.5880209
 20
-1.3564651
 10
35.8619152
 20
-1.2514392
 10
36.09865429999999
 20
-1.1554158
 10
36.34289860000001
 20
-1.0513489
 10
36.5944365
 20
-0.9389483
 10
36.8530488
 20
-0.8179290999999999
 10
36.992326
 20
-0.7504819000000001
 10
36.9978292
 20
-0.3950200999999999
 10
36.9999168
 20
-0.0395218
 10
36.9985886
 20
0.3159801
 10
36.9938448
 20
0.6714528000000001
 10
36.992326
 20
0.7504819000000001
 10
36.7275287
 20
0.8773540999999999
 10
36.4281148
 20
1.013859999999999
 10
36.138685
 20
1.138705399999999
 10
35.8595864
 20
1.2523598
 10
35.591151
 20
1.355302199999999
 10
35.33369550000001
 20
1.4480201
 10
35.0875211
 20
1.5310097
 10
34.79610020000001
 20
1.621834699999999
 10
34.5232727
 20
1.6992479
 10
34.26952120000001
 20
1.7642668
 10
33.99082
 20
1.827384899999999
 10
33.7409109
 20
1.875956
 10
33.4865392
 20
1.91669
 10
33.2195566
 20
1.948408299999999
 10
32.8072633
 20
2.0464912
 10
32.60824990000001
 20
2.251729499999999
 10
32.4862837
 20
3.6068845
 10
32.6454522
 20
3.844359799999999
 10
33.0319067
 20
4.014007499999999
 10
33.2834572
 20
4.090991599999999
 10
33.5433227
 20
4.1824669
 10
33.7868062
 20
4.277783900000001
 10
34.0257076
 20
4.379553299999999
 10
34.2849821
 20
4.498654499999999
 10
34.5279321
 20
4.6180364
 10
34.78530070000001
 20
4.7524037
 10
35.0169261
 20
4.8800874
 10
35.25831289999999
 20
5.0198203
 10
35.5090525
 20
5.1720642
 10
35.72484160000001
 20
5.308815799999999
 10
35.9465789
 20
5.4548219
 10
36.17400460000001
 20
5.6103299
 10
36.406852
 20
5.775581299999999
 10
36.5318478
 20
5.8668135
 10
36.4737924
 20
6.217545499999999
 10
36.4123698
 20
6.5677035
 10
36.34758570000001
 20
6.917255199999999
 10
36.279446
 20
7.2661683
 10
36.2638404
 20
7.3436562
 10
35.9806446
 20
7.421208099999999
 10
35.6616683
 20
7.502057899999999
 10
35.3545977
 20
7.573217299999999
 10
35.0596906
 20
7.6352103
 10
34.777188
 20
7.688567299999999
 10
34.5073145
 20
7.733824799999998
 10
34.2502779
 20
7.7715246
 10
33.94732279999999
 20
7.808854799999999
 10
33.6650571
 20
7.836308599999999
 10
33.4037739
 20
7.854973599999999
 10
33.1182814
 20
7.8673133
 10
32.9039833
 20
7.8705087
 10
32.6403414
 20
7.866392399999999
 10
32.3641245
 20
7.8508615
 10
32.3378029
 20
7.8486774
 10
31.914622
 20
7.8715663
 10
31.68216
 20
8.037971199999999
 10
31.3201817
 20
9.349570300000001
 10
31.4343894
 20
9.611649900000001
 10
31.7843416
 20
9.847575499999999
 10
32.0181036
 20
9.9682384
 10
32.25745939999999
 20
10.1046445
 10
32.4800105
 20
10.2419053
 10
32.696901
 20
10.3846968
 10
32.9307425
 20
10.5481792
 10
33.1484718
 20
10.709023
 10
33.3777122
 20
10.8871859
 10
33.5828165
 20
11.054176
 10
33.79537379999999
 20
11.2347646
 10
34.0148997
 20
11.4293331
 10
34.202803
 20
11.6024177
 10
34.3949065
 20
11.7856701
 10
34.5909103
 20
11.9792876
 10
34.790509
 20
12.1834598
 10
34.897206
 20
12.2955447
 10
34.7774579
 20
12.6302741
 10
34.6544993
 20
12.9638375
 10
34.5283414
 20
13.2962041
 10
34.3989959
 20
13.6273432
 10
34.3698051
 20
13.7007993
 10
34.0773129
 20
13.7265384
 10
33.7490265
 20
13.7491335
 10
33.4341846
 20
13.7643197
 10
33.1329475
 20
13.7726588
 10
32.9160341
 20
13.7747593
 10
32.6389377
 20
13.772477
 10
32.375796
 20
13.7649077
 10
32.066635
 20
13.7488825
 10
31.7795704
 20
13.7266096
 10
31.514705
 20
13.699211
 10
31.2262507
 20
13.6611479
 10
30.9698691
 20
13.6192595
 10
30.71119910000001
 20
13.5681342
 10
30.4421943
 20
13.5035325
 10
29.9962185
 20
13.4436428
 10
29.7377795
 20
13.5658658
 10
29.1474232
 20
14.7917532
 10
29.2129995
 20
15.0700137
 10
29.5152017
 20
15.3646342
 10
29.7236618
 20
15.5250979
 10
29.9348148
 20
15.7020505
 10
30.12928060000001
 20
15.8768435
 10
30.3171892
 20
16.0560676
 10
30.5180818
 20
16.2586768
 10
30.7035923
 20
16.4558128
 10
30.8973365
 20
16.672045
 10
31.0693274
 20
16.8729743
 10
31.2462235
 20
17.0886143
 10
31.4274801
 20
17.3192539
 10
31.5814582
 20
17.52310839999999
 10
31.7377535
 20
17.7377173
 10
31.8960358
 20
17.963221
 10
32.0559705
 20
18.19975189999999
 10
32.1409392
 20
18.329087
 10
31.9633473
 20
18.6370553
 10
31.7828046
 20
18.9433031
 10
31.5993278
 20
19.2478021
 10
31.4129338
 20
19.5505241
 10
31.371096
 20
19.6175875
 10
31.0787084
 20
19.5906865
 10
30.7516631
 20
19.5543006
 10
30.4391693
 20
19.5130257
 10
30.1412842
 20
19.4674427
 10
29.8580471
 20
19.4181331
 10
29.5894798
 20
19.3656781
 10
29.3355864
 20
19.3106577
 10
29.0388324
 20
19.2391567
 10
28.76491880000001
 20
19.1656789
 10
28.513738
 20
19.0913453
 10
28.242114
 20
19.0025833
 10
28.0026678
 20
18.916101
 10
27.7634103
 20
18.82060199999999
 10
27.5179511
 20
18.7108953
 10
27.1137118
 20
18.5836296
 10
27.0605712
 20
18.5792792
 10
26.0378426
 20
19.7585171
 10
26.0526797
 20
20.0440149
 10
26.2974189
 20
20.387861
 10
26.4738771
 20
20.58296789999999
 10
26.6500407
 20
20.7947797
 10
26.8101708
 20
21.0014869
 10
26.9630579
 20
21.2113831
 10
27.1245448
 20
21.4466071
 10
27.27187410000001
 20
21.6736992
 10
27.423895
 20
21.9210509
 10
27.5572447
 20
22.1494613
 10
27.692794
 20
22.3932219
 10
27.8299553
 20
22.6525196
 10
27.9450594
 20
22.880592
 10
28.0605231
 20
23.1196596
 10
28.1759964
 20
23.3698018
 10
28.2911267
 20
23.6310889
 10
28.3516362
 20
23.7735173
 10
28.1219085
 20
24.0448262
 10
27.8895845
 20
24.3139153
 10
27.6546859
 20
24.5807598
 10
27.4172341
 20
24.8453351
 10
27.364094
 20
24.9038503
 10
27.0812086
 20
24.8251737
 10
26.765916
 20
24.7309765
 10
26.4658141
 20
24.6345669
 10
26.1808553
 20
24.536527
 10
25.9109745
 20
24.4374359
 10
25.6560894
 20
24.3378693
 10
25.4161004
 20
24.2383987
 10
25.1368823
 20
24.1150593
 10
24.8804906
 20
23.9938531
 10
24.6466192
 20
23.8758641
 10
24.3952094
 20
23.7400282
 10
24.17505310000001
 20
23.6121809
 10
23.9566926
 20
23.4754955
 10
23.7347669
 20
23.3237234
 10
23.35974810000001
 20
23.1263232
 10
23.1878091
 20
23.1024118
 10
22.0913843
 20
24.0902259
 10
22.0550054
 20
24.3737849
 10
22.2344154
 20
24.7558051
 10
22.3732001
 20
24.9792844
 10
22.5087123
 20
25.2191475
 10
22.62936
 20
25.4511252
 10
22.7423117
 20
25.6849474
 10
22.8592027
 20
25.9452258
 10
22.9636155
 20
26.1949751
 10
23.0690269
 20
26.4654961
 10
23.1594494
 20
26.7140464
 10
23.2492952
 20
26.9780929
 10
23.3379529
 20
27.2577147
 10
23.4104833
 20
27.5026745
 10
23.4814043
 20
27.758517
 10
23.5503573
 20
28.0252579
 10
23.6169828
 20
28.3029033
 10
23.6510884
 20
28.4538472
 10
23.3766083
 20
28.6797766
 10
23.0999702
 20
28.9030583
 10
22.8211995
 20
29.1236717
 10
22.540322
 20
29.3415965
 10
22.4775876
 20
29.3896829
 10
22.2132965
 20
29.2617595
 10
21.9198904
 20
29.1127784
 10
21.6418258
 20
28.9643328
 10
21.3789521
 20
28.81698710000001
 10
21.1311018
 20
28.6712994
 10
20.8980911
 20
28.5278214
 10
20.67972
 20
28.3870976
 10
20.4270122
 20
28.215884
 10
20.196383
 20
28.0508452
 10
19.9873377
 20
27.8929929
 10
19.7642226
 20
27.714449
 10
19.5704324
 20
27.5493458
 10
19.3799871
 20
27.3758673
 10
19.1887278
 20
27.1869078
 10
18.8549829
 20
26.9257177
 10
18.6900765
 20
26.8714898
 10
17.43489079999999
 20
27.647655
 10
17.348465
 20
27.9201615
 10
17.4567795
 20
28.3280773
 10
17.5534301
 20
28.5727462
 10
17.6439353
 20
28.8329512
 10
17.721223
 20
29.0827434
 10
17.790609
 20
29.3329763
 10
17.8591469
 20
29.6099436
 10
17.9172873
 20
29.874323
 10
17.9727014
 20
30.1593185
 10
18.0172903
 20
30.42002
 10
18.058545
 20
30.6958658
 10
18.0958495
 20
30.9868244
 10
18.1234751
 20
31.2407984
 10
18.1475739
 20
31.5051929
 10
18.1677904
 20
31.7799591
 10
18.1837696
 20
32.0650391
 10
18.190375
 20
32.2196471
 10
17.8799648
 20
32.3929354
 10
17.5679038
 20
32.5632332
 10
17.2542211
 20
32.7305249
 10
16.9389454
 20
32.8947949
 10
16.868633
 20
32.93090680000001
 10
16.6314308
 20
32.75784820000001
 10
16.3693414
 20
32.5588716
 10
16.1222514
 20
32.3631613
 10
15.8899118
 20
32.1712456
 10
15.6720581
 20
31.98364380000001
 10
15.468411
 20
31.8008658
 10
15.2786764
 20
31.6234119
 10
15.060601
 20
31.409827
 10
14.863147
 20
31.20626
 10
14.6856468
 20
31.013618
 10
14.4979975
 20
30.7981046
 10
14.3368018
 20
30.6010521
 10
14.1803929
 20
30.3963561
 10
14.02594719999999
 20
30.1762827
 10
13.744203
 20
29.85969760000001
 10
13.5916295
 20
29.7768959
 10
12.2180255
 20
30.3164658
 10
12.0843307
 20
30.569161
 10
12.1180683
 20
30.9898618
 10
12.1694785
 20
31.2478564
 10
12.2120678
 20
31.52004010000001
 10
12.2435113
 20
31.7796183
 10
12.2671014
 20
32.0382192
 10
12.2850835
 20
32.32297340000001
 10
12.2950828
 20
32.5934855
 10
12.2987184
 20
32.8837956
 10
12.2960408
 20
33.1482692
 10
12.2873782
 20
33.4270484
 10
12.2721306
 20
33.71999210000001
 10
12.2539634
 20
33.9748173
 10
12.2304655
 20
34.2392659
 10
12.2012957
 20
34.5132263
 10
12.1661151
 20
34.7965782
 10
12.1450081
 20
34.949881
 10
11.8086444
 20
35.06495860000001
 10
11.4711906
 20
35.176799
 10
11.1326778
 20
35.285392
 10
10.7931372
 20
35.39072750000001
 10
10.7175067
 20
35.41370429999999
 10
10.5150172
 20
35.20107279999999
 10
10.2926684
 20
34.9584959
 10
10.0844946
 20
34.72181110000001
 10
9.890156599999999
 20
34.49149370000001
 10
9.7093015
 20
34.2680075
 10
9.541563400000001
 20
34.0518042
 10
9.386563499999999
 20
33.84332360000001
 10
9.2101298
 20
33.59423229999999
 10
9.0521972
 20
33.3586799
 10
8.911946999999999
 20
33.1374399
 10
8.765794699999998
 20
32.89188380000001
 10
8.642374699999999
 20
32.6692155
 10
8.525029199999998
 20
32.4398811
 10
8.412361199999999
 20
32.195767
 10
8.191673099999999
 20
31.83396210000001
 10
7.934981299999999
 20
31.7081112
 10
6.608462799999999
 20
32.0108804
 10
6.431796099999999
 20
32.23564260000001
 10
6.3898725
 20
32.6556066
 10
6.3943897
 20
32.9186348
 10
6.387694399999999
 20
33.194049
 10
6.372283099999999
 20
33.4550701
 10
6.349319099999999
 20
33.7137273
 10
6.3161674
 20
33.9971163
 10
6.2777042
 20
34.26506660000001
 10
6.229444499999999
 20
34.5513604
 10
6.179586299999999
 20
34.81110570000001
 10
6.121284999999999
 20
35.083858
 10
6.053975399999999
 20
35.3693715
 10
5.990599299999999
 20
35.6168577
 10
5.9202599
 20
35.87286070000001
 10
5.8426413
 20
36.13721010000001
 10
5.7574317
 20
36.4097266
 10
5.709290599999999
 20
36.556797
 10
5.3577845
 20
36.6099652
 10
5.005783799999999
 20
36.6597536
 10
4.653321
 20
36.7061576
 10
4.300428599999999
 20
36.749173
 10
4.2219109
 20
36.75827620000001
 10
4.060642299999999
 20
36.5129059
 10
3.8851805
 20
36.2345254
 10
3.722613899999999
 20
35.9644734
 10
3.5725237
 20
35.7031569
 10
3.4344801
 20
35.45096920000001
 10
3.3080421
 20
35.20828970000001
 10
3.1927588
 20
34.9754831
 10
3.0636374
 20
34.6988914
 10
2.950302399999999
 20
34.4389244
 10
2.85181
 20
34.1961972
 10
2.7518522
 20
33.9284908
 10
2.670174499999999
 20
33.68736329999999
 10
2.595663999999999
 20
33.4407616
 10
2.528394899999999
 20
33.1804529
 10
2.3758561
 20
32.785057
 10
2.145761
 20
32.61539439999999
 10
0.7864986
 20
32.676439
 10
0.5725382
 20
32.8660441
 10
0.4563009
 20
33.2717734
 10
0.4137800000000001
 20
33.5313811
 10
0.3580152
 20
33.8011739
 10
0.2962444
 20
34.0552484
 10
0.2274645
 20
34.3056486
 10
0.1442445
 20
34.5785639
 10
0.058555
 20
34.8353402
 10
-0.0400488
 20
35.1084161
 10
-0.1354851
 20
35.3550847
 10
-0.2415513
 20
35.61304370000001
 10
-0.3587597
 20
35.88195020000001
 10
-0.4653076
 20
36.1141429
 10
-0.5802278000000002
 20
36.3534723
 10
-0.7038004
 20
36.5997141
 10
-0.8363003
 20
36.8526365
 10
-0.9099281999999998
 20
36.9887474
 10
-1.265279
 20
36.9782973
 10
-1.620512899999999
 20
36.96443350000001
 10
-1.9755973
 20
36.9471571
 10
-2.3304993
 20
36.9264699
 10
-2.409380599999999
 20
36.9214069
 10
-2.524245
 20
36.65118420000001
 10
-2.6471803
 20
36.3459474
 10
-2.7589147
 20
36.05120789999999
 10
-2.859933
 20
35.7672912
 10
-2.9507284
 20
35.49450770000001
 10
-3.031802299999999
 20
35.23315170000001
 10
-3.1036638
 20
34.9835018
 10
-3.181322799999999
 20
34.6882995
 10
-3.2464176
 20
34.41227360000001
 10
-3.299986499999999
 20
34.15586060000001
 10
-3.3505372
 20
33.87460820000001
 10
-3.387847299999999
 20
33.6227716
 10
-3.4171279
 20
33.3668285
 10
-3.4368361
 20
33.09869170000001
 10
-3.516322799999999
 20
32.6824131
 10
-3.7124258
 20
32.4743921
 10
-5.0607442
 20
32.2917499
 10
-5.305121499999999
 20
32.4401039
 10
-5.491936599999999
 20
32.81855800000001
 10
-5.5801289
 20
33.0664013
 10
-5.6831709
 20
33.3219012
 10
-5.789315699999999
 20
33.5608631
 10
-5.901701
 20
33.794958
 10
-6.032314599999999
 20
34.048628
 10
-6.1624762
 20
34.2859774
 10
-6.308254999999999
 20
34.5370584
 10
-6.446201999999999
 20
34.76272210000001
 10
-6.596623899999999
 20
34.9975968
 10
-6.7599639
 20
35.2412535
 10
-6.906259099999999
 20
35.4506899
 10
-7.0620664
 20
35.6656534
 10
-7.2276213
 20
35.8858732
 10
-7.403152999999999
 20
36.1110722
 10
-7.4999012
 20
36.23184910000001
 10
-7.847675399999999
 20
36.1581166
 10
-8.194725099999999
 20
36.081046
 10
-8.541018300000001
 20
36.0006446
 10
-8.886523
 20
35.9169196
 10
-8.963232699999998
 20
35.8978532
 10
-9.028000999999999
 20
35.61146320000001
 10
-9.0944585
 20
35.2891808
 10
-9.151769599999999
 20
34.9792269
 10
-9.200469199999998
 20
34.6818354
 10
-9.2410981
 20
34.3972234
 10
-9.274202199999999
 20
34.1255912
 10
-9.3003321
 20
33.867122
 10
-9.324032699999998
 20
33.56279710000001
 10
-9.3387951
 20
33.2795839
 10
-9.3457188
 20
33.0177265
 10
-9.345237499999999
 20
32.7319678
 10
-9.3369809
 20
32.4775163
 10
-9.3200906
 20
32.2204581
 10
-9.291604300000001
 20
31.9531113
 10
-9.2954843
 20
31.52932960000001
 10
-9.451292199999999
 20
31.289636
 10
-10.7453305
 20
30.8691775
 10
-11.0122702
 20
30.97151210000001
 10
-11.2636587
 20
31.3105271
 10
-11.3946879
 20
31.5386402
 10
-11.5416952
 20
31.7716351
 10
-11.6888026
 20
31.987804
 10
-11.841181
 20
32.19806980000001
 10
-12.0149901
 20
32.4243412
 10
-12.1854403
 20
32.634635
 10
-12.3737087
 20
32.85565130000001
 10
-12.5497326
 20
33.0530571
 10
-12.7396757
 20
33.2572983
 10
-12.9438972
 20
33.4678739
 10
-13.1252378
 20
33.64782260000001
 10
-13.3169244
 20
33.831511
 10
-13.5191405
 20
34.0186309
 10
-13.7320622
 20
34.2088684
 10
-13.8488211
 20
34.3104293
 10
-14.177841
 20
34.1757842
 10
-14.505552
 20
34.0379841
 10
-14.8319239
 20
33.8970417
 10
-15.1569265
 20
33.75297
 10
-15.228999
 20
33.7205129
 10
-15.2415896
 20
33.4271605
 10
-15.2494334
 20
33.0981909
 10
-15.250479
 20
32.7829848
 10
-15.2452947
 20
32.4816768
 10
-15.2344512
 20
32.1943841
 10
-15.2185215
 20
31.9212062
 10
-15.1980801
 20
31.662225
 10
-15.1670605
 20
31.3585589
 10
-15.1310159
 20
31.07726110000001
 10
-15.0910719
 20
30.8183755
 10
-15.0395742
 20
30.537295
 10
-14.9860162
 20
30.288407
 10
-14.9234978
 20
30.0384957
 10
-14.8477328
 20
29.7805316
 10
-14.7758812
 20
29.3628675
 10
-14.8863863
 20
29.0992053
 10
-16.0845531
 20
28.4544442
 10
-16.206094
 20
28.43867860000001
 10
-16.6733576
 20
28.7961501
 10
-16.8430122
 20
28.9972012
 10
-17.02926
 20
29.2002026
 10
-17.2126016
 20
29.3866305
 10
-17.4000757
 20
29.566309
 10
-17.6114939
 20
29.7579094
 10
-17.8167544
 20
29.9343886
 10
-18.0414611
 20
30.1182364
 10
-18.2499044
 20
30.2810396
 10
-18.4732638
 20
30.4480829
 10
-18.7118031
 20
30.6188093
 10
-18.9223606
 20
30.7634865
 10
-19.1437655
 20
30.9099961
 10
-19.3761435
 20
31.0580017
 10
-19.6196116
 20
31.2071635
 10
-19.7526286
 20
31.2862441
 10
-20.0523192
 20
31.095014
 10
-20.3501586
 20
30.9009134
 10
-20.6461193
 20
30.70396
 10
-20.940174
 20
30.5041721
 10
-21.0052928
 20
30.4593676
 10
-20.9653009
 20
30.1684814
 10
-20.9142789
 20
29.8433979
 10
-20.8590255
 20
29.5330705
 10
-20.8001239
 20
29.2375304
 10
-20.73815660000001
 20
28.9567908
 10
-20.6737051
 20
28.6908473
 10
-20.6073493
 20
28.43967800000001
 10
-20.5226065
 20
28.1464307
 10
-20.4369135
 20
27.8760895
 10
-20.3513856
 20
27.6284966
 10
-20.2505267
 20
27.3611284
 10
-20.1533887
 20
27.1258033
 10
-20.0472516
 20
26.8910713
 10
-19.9266429
 20
26.6507812
 10
-19.7813692
 20
26.2526587
 10
-19.8430197
 20
25.9735022
 10
-20.906805
 20
25.1251617
 10
-21.0235775
 20
25.0879475
 10
-21.547161
 20
25.3562412
 10
-21.7499883
 20
25.5237683
 10
-21.9694903
 20
25.6902516
 10
-22.1831735
 20
25.8409466
 10
-22.3997177
 20
25.9842628
 10
-22.6419499
 20
26.1350338
 10
-22.8754233
 20
26.27202630000001
 10
-23.1293462
 20
26.4127967
 10
-23.3635093
 20
26.5357645
 10
-23.6131059
 20
26.6602411
 10
-23.8782963
 20
26.785631
 10
-24.1113031
 20
26.8903867
 10
-24.3553102
 20
26.9950084
 10
-24.6103812
 20
27.0991428
 10
-24.8765706
 20
27.20243460000001
 10
-25.0215703
 20
27.2564932
 10
-25.2822993
 20
27.0148245
 10
-25.5406943
 20
26.7706619
 10
-25.7967314
 20
26.5240278
 10
-26.050387
 20
26.2749451
 10
-26.1064592
 20
26.2192332
 10
-26.0151703
 20
25.9401625
 10
-25.9069223
 20
25.6294135
 10
-25.7971458
 20
25.3339391
 10
-25.68642
 20
25.0536658
 10
-25.5753205
 20
24.7885024
 10
-25.4644188
 20
24.538341
 10
-25.3542813
 20
24.3030564
 10
-25.218539
 20
24.0296531
 10
-25.0859519
 20
23.7789575
 10
-24.9575891
 20
23.5506151
 10
-24.8106105
 20
23.3055527
 10
-24.6730146
 20
23.091354
 10
-24.5266702
 20
22.8793457
 10
-24.3650942
 20
22.6644527
 10
-24.1510677
 20
22.2986678
 10
-24.1618821
 20
22.0129893
 10
-25.0570949
 20
20.9883359
 10
-25.2295785
 20
20.9259707
 10
-25.728421
 20
21.1013618
 10
-25.9579018
 20
21.2299804
 10
-26.20360310000001
 20
21.3545947
 10
-26.44076
 20
21.4647133
 10
-26.6794143
 20
21.5670609
 10
-26.9446749
 20
21.6721568
 10
-27.19885730000001
 20
21.7652595
 10
-27.47383510000001
 20
21.858428
 10
-27.7261919
 20
21.9376082
 10
-27.9940035
 20
22.0155171
 10
-28.2773213
 20
22.0915404
 10
-28.5252885
 20
22.1530077
 10
-28.7840552
 20
22.2123789
 10
-29.0536211
 20
22.2692952
 10
-29.3339761
 20
22.3233971
 10
-29.4862982
 20
22.3506963
 10
-29.6996856
 20
22.0663563
 10
-29.9103311
 20
21.7799793
 10
-30.1182154
 20
21.4915915
 10
-30.3233192
 20
21.2012197
 10
-30.36854260000001
 20
21.136391
 10
-30.22889060000001
 20
20.8781053
 10
-30.0668959
 20
20.5916787
 10
-29.9061245
 20
20.3205541
 10
-29.7471334
 20
20.0645556
 10
-29.5904726
 20
19.8234912
 10
-29.4366851
 20
19.5971522
 10
-29.2863058
 20
19.3853145
 10
-29.1039269
 20
19.1405427
 10
-28.9287071
 20
18.91755019999999
 10
-28.761635
 20
18.7157974
 10
-28.5732609
 20
18.5009173
 10
-28.39962960000001
 20
18.3147295
 10
-28.2177814
 20
18.1322591
 10
-28.0204314
 20
17.94967
 10
-27.7445309
 20
17.6279794
 10
-27.7041617
 20
17.3449609
 10
-28.4020291
 20
16.1769276
 10
-28.6703837
 20
16.078363
 10
-29.0827483
 20
16.1682673
 10
-29.331507
 20
16.2538436
 10
-29.5955105
 20
16.3325836
 10
-29.8485187
 20
16.3985866
 10
-30.1016126
 20
16.456676
 10
-30.3813759
 20
16.5127189
 10
-30.64809760000001
 20
16.5589393
 10
-30.9352923
 20
16.6015114
 10
-31.1977317
 20
16.6343591
 10
-31.4751507
 20
16.6631964
 10
-31.76749
 20
16.6874096
 10
-32.0224476
 20
16.7036128
 10
-32.287657
 20
16.7158253
 10
-32.56305360000001
 20
16.7236941
 10
-32.8485635
 20
16.72686719999999
 10
-32.9068719
 20
16.7269075
 10
-33.0033122
 20
16.7265295
 10
-33.1624995
 20
16.4086573
 10
-33.3186252
 20
16.0892702
 10
-33.4716751
 20
15.7683978
 10
-33.6216349
 20
15.4460696
 10
-33.6545559
 20
15.3742079
 10
-33.4710296
 20
15.1450088
 10
-33.2604947
 20
14.8921103
 10
-33.0538958
 20
14.6540497
 10
-32.8517495
 20
14.4305542
 10
-32.6545626
 20
14.2213366
 10
-32.4628321
 20
14.0260949
 10
-32.2770444
 20
13.8445127
 10
-32.05389070000001
 20
13.6362395
 10
-31.8416699
 20
13.4481172
 10
-31.6412584
 20
13.2794386
 10
-31.4175432
 20
13.1016472
 10
-31.2134571
 20
12.9494546
 10
-31.00195
 20
12.8023868
 10
-30.7751689
 20
12.6579702
 10
-30.4462622
 20
12.3907132
 10
-30.3560068
 20
12.1194512
 10
-30.8340988
 20
10.8455796
 10
-31.0805414
 20
10.7006824
 10
-31.5023322
 20
10.7155114
 10
-31.7623735
 20
10.7552948
 10
-32.0361939
 20
10.7856298
 10
-32.2969214
 20
10.8053957
 10
-32.5563202
 20
10.81736
 10
-32.8415945
 20
10.8225485
 10
-32.8790641
 20
10.8226491
 10
-33.15254820000001
 20
10.8195253
 10
-33.4024637
 20
10.8110085
 10
-33.6665509
 20
10.796468
 10
-33.9446607
 20
10.7753068
 10
-34.2366254
 20
10.7469317
 10
-34.4903789
 20
10.7173501
 10
-34.753507
 20
10.6820114
 10
-35.0258829
 20
10.6405797
 10
-35.3073711
 20
10.5927221
 10
-35.4595725
 20
10.5647584
 10
-35.5594433
 20
10.2235705
 10
-35.6560314
 20
9.881438699999998
 10
-35.7493277
 20
9.5383948
 10
-35.8393237
 20
9.194470199999999
 10
-35.8588842
 20
9.117885000000001
 10
-35.6373821
 20
8.9251391
 10
-35.3850739
 20
8.7138974
 10
-35.13928770000001
 20
8.5165521
 10
-34.9004833
 20
8.332742899999999
 10
-34.669108
 20
8.162096599999999
 10
-34.4455969
 20
8.0042273
 10
-34.2303722
 20
7.8587369
 10
-33.9736161
 20
7.693656299999999
 10
-33.7312152
 20
7.546450699999999
 10
-33.5039057
 20
7.416267699999999
 10
-33.2520398
 20
7.2812794
 10
-33.0240584
 20
7.167973599999998
 10
-32.7896903
 20
7.0610353
 10
-32.5407672
 20
6.959432799999999
 10
-32.16942550000001
 20
6.7551993
 10
-32.0321848
 20
6.5044123
 10
-32.2751352
 20
5.1656458
 10
-32.4917449
 20
4.979073099999999
 10
-32.90940519999999
 20
4.918350099999999
 10
-33.1723711
 20
4.911062
 10
-33.4472076
 20
4.892017
 10
-33.7072745
 20
4.864910599999999
 10
-33.964641
 20
4.830365099999999
 10
-34.2462573
 20
4.784532599999999
 10
-34.51221210000001
 20
4.7340865
 10
-34.7960525
 20
4.673030999999999
 10
-35.0532993
 20
4.611569499999999
 10
-35.32316140000001
 20
4.54109
 10
-35.6053675
 20
4.4610386
 10
-35.8497611
 20
4.3866229
 10
-36.1023506
 20
4.304868799999999
 10
-36.3629514
 20
4.215468399999999
 10
-36.6313706
 20
4.1181181
 10
-36.7761331
 20
4.0634272
 10
-36.8134774
 20
3.7098897
 10
-36.8474233
 20
3.356009699999999
 10
-36.8779674
 20
3.0018199
 10
-36.905107
 20
2.6473529
 10
-36.9106784
 20
2.568505899999999
 10
-36.6583199
 20
2.4184082
 10
-36.37234760000001
 20
2.255612499999999
 10
-36.095274
 20
2.1053255
 10
-35.82748690000001
 20
1.967110399999999
 10
-35.5693598
 20
1.84052
 10
-35.321252
 20
1.725097199999999
 10
-35.08350770000001
 20
1.6203748
 10
-34.8014015
 20
1.503792699999999
 10
-34.5366116
 20
1.402235099999999
 10
-34.2897098
 20
1.314731899999999
 10
-34.0177885
 20
1.2268853
 10
-33.7732393
 20
1.156107999999999
 10
-33.523543
 20
1.0927363
 10
-33.2604784
 20
1.0372136
 10
-32.858637
 20
0.9025678
 10
-32.67882210000001
 20
0.6803162
 10
-32.67882210000001
 20
-0.6803162
 10
-32.858637
 20
-0.9025678
 10
-33.2587428
 20
-1.036891
 10
-33.5161814
 20
-1.091016299999999
 10
-33.7832006
 20
-1.1588293
 10
-34.034248
 20
-1.231936799999999
 10
-34.2813102
 20
-1.311881599999999
 10
-34.5502171
 20
-1.407262199999999
 10
-34.8028904
 20
-1.5043856
 10
-35.0712675
 20
-1.615141699999999
 10
-35.3134059
 20
-1.7215486
 10
-35.5663465
 20
-1.839081199999999
 10
-35.8297238
 20
-1.968236
 10
-36.0569024
 20
-2.085093999999999
 10
-36.290835
 20
-2.2106359
 10
-36.5312847
 20
-2.3451316
 10
-36.7780078
 20
-2.4888455
 10
-36.9106784
 20
-2.568505899999999
 10
-36.8842961
 20
-2.923029999999999
 10
-36.8545087
 20
-3.2772842
 10
-36.8213189
 20
-3.631235899999999
 10
-36.7847299
 20
-3.984852399999999
 10
-36.7761331
 20
-4.0634272
 10
-36.501029
 20
-4.166052399999999
 10
-36.1905842
 20
-4.275169499999999
 10
-35.8911285
 20
-4.373567999999999
 10
-35.6029655
 20
-4.4617467
 10
-35.3263831
 20
-4.5402123
 10
-35.0616529
 20
-4.6094789
 10
-34.8090304
 20
-4.6700675
 10
-34.5106412
 20
-4.734404099999999
 10
-34.2319727
 20
-4.7870495
 10
-33.97341450000001
 20
-4.8290605
 10
-33.6901774
 20
-4.866941999999999
 10
-33.4369205
 20
-4.892915900000001
 10
-33.17992150000001
 20
-4.9106842
 10
-32.9111704
 20
-4.918342599999999
 10
-32.4917449
 20
-4.979073099999999
 10
-32.2751352
 20
-5.165645699999999
 10
-32.0321849
 20
-6.504412199999999
 10
-32.16942550000001
 20
-6.7551993
 10
-32.53911710000001
 20
-6.958805599999999
 10
-32.78275410000001
 20
-7.0580285
 10
-33.0333737
 20
-7.172429799999999
 10
-33.2673329
 20
-7.2891887
 10
-33.49615
 20
-7.411963499999999
 10
-33.7437045
 20
-7.553826400000001
 10
-33.9749752
 20
-7.694505599999999
 10
-34.2192631
 20
-7.8514023
 10
-34.4385106
 20
-7.999334700000001
 10
-34.6664001
 20
-8.160142799999999
 10
-34.9024833
 20
-8.334249900000001
 10
-35.1051453
 20
-8.4897942
 10
-35.312902
 20
-8.6550889
 10
-35.5254725
 20
-8.830357199999998
 10
-35.7425696
 20
-9.015815599999999
 10
-35.8588842
 20
-9.117885000000001
 10
-35.76962310000001
 20
-9.4620011
 10
-35.6770599
 20
-9.8052436
 10
-35.58120300000001
 20
-10.1475809
 10
-35.4820613
 20
-10.4889814
 10
-35.4595725
 20
-10.5647584
 10
-35.17056510000001
 20
-10.6166126
 10
-34.8456256
 20
-10.6685441
 10
-34.5334126
 20
-10.7118914
 10
-34.2341356
 20
-10.7471996
 10
-33.94798740000001
 20
-10.7750185
 10
-33.6751435
 20
-10.7959025
 10
-33.4157622
 20
-10.81041
 10
-33.1106805
 20
-10.8204332
 10
-32.8270902
 20
-10.8224744
 10
-32.5651857
 20
-10.817643
 10
-32.2797364
 20
-10.8043417
 10
-32.0259116
 20
-10.7846774
 10
-31.76987
 20
-10.7562712
 10
-31.5040704
 20
-10.7158192
 10
-31.0805414
 20
-10.7006824
 10
-30.8340988
 20
-10.8455796
 10
-30.3560068
 20
-12.1194511
 10
-30.4462622
 20
-12.3907132
 10
-30.7736573
 20
-12.6570584
 10
-30.99566210000001
 20
-12.7981899
 10
-31.221827
 20
-12.9555025
 10
-31.4311782
 20
-13.1121601
 10
-31.6343959
 20
-13.2738187
 10
-31.8526415
 20
-13.4576044
 10
-32.0550764
 20
-13.6373178
 10
-32.2674235
 20
-13.8353124
 10
-32.4567332
 20
-14.0200156
 10
-32.652247
 20
-14.2189307
 10
-32.85344820000001
 20
-14.4323941
 10
-33.0250799
 20
-14.6216254
 10
-33.1999834
 20
-14.8213602
 10
-33.3778424
 20
-15.0317678
 10
-33.5583358
 20
-15.25301
 10
-33.6545559
 20
-15.3742079
 10
-33.505285
 20
-15.6968556
 10
-33.352921
 20
-16.0180543
 10
-33.1974779
 20
-16.3377742
 10
-33.03897
 20
-16.6559858
 10
-33.0033122
 20
-16.7265295
 10
-32.7096903
 20
-16.7259462
 10
-32.3807
 20
-16.719023
 10
-32.0657643
 20
-16.7059259
 10
-31.7649924
 20
-16.6872286
 10
-31.4784754
 20
-16.6635067
 10
-31.2062873
 20
-16.635337
 10
-30.9484839
 20
-16.603297
 10
-30.6465153
 20
-16.55868469999999
 10
-30.3671179
 20
-16.5100561
 10
-30.1102851
 20
-16.4585374
 10
-29.831798
 20
-16.394481
 10
-29.5855635
 20
-16.3298105
 10
-29.3387087
 20
-16.2561429
 10
-29.0844036
 20
-16.1688806
 10
-28.6703836
 20
-16.078363
 10
-28.4020291
 20
-16.1769276
 10
-27.7041617
 20
-17.3449609
 10
-27.7445309
 20
-17.6279794
 10
-28.019107
 20
-17.948503
 10
-28.212344
 20
-18.12700689999999
 10
-28.4067851
 20
-18.3221748
 10
-28.5847997
 20
-18.5136959
 10
-28.7558863
 20
-18.7090425
 10
-28.9378084
 20
-18.9288439
 10
-29.104901
 20
-19.1418154
 10
-29.2784823
 20
-19.3745442
 10
-29.4317697
 20
-19.5900817
 10
-29.5886239
 20
-19.8207105
 10
-29.74847630000001
 20
-20.0666693
 10
-29.8835612
 20
-20.2835056
 10
-30.01999
 20
-20.5112607
 10
-30.15742100000001
 20
-20.750045
 10
-30.2955094
 20
-20.9999601
 10
-30.36854260000001
 20
-21.1363911
 10
-30.1640595
 20
-21.4272004
 10
-29.9567918
 20
-21.7160316
 10
-29.7467585
 20
-22.002858
 10
-29.53397910000001
 20
-22.2876531
 10
-29.4862982
 20
-22.3506963
 10
-29.19749910000001
 20
-22.2976941
 10
-28.875032
 20
-22.2321386
 10
-28.5674961
 20
-22.1630181
 10
-28.2748961
 20
-22.0909164
 10
-27.99721939999999
 20
-22.0164162
 10
-27.7344353
 20
-21.9400981
 10
-27.4864959
 20
-21.8625404
 10
-27.1973459
 20
-21.7647264
 10
-26.93112150000001
 20
-21.6669909
 10
-26.6876151
 20
-21.570441
 10
-26.4250412
 20
-21.4576881
 10
-26.194311
 20
-21.3500901
 10
-25.9645772
 20
-21.2335287
 10
-25.7299402
 20
-21.1022608
 10
-25.3387362
 20
-20.9392717
 10
-25.0570949
 20
-20.9883358
 10
-24.1618821
 20
-22.0129893
 10
-24.1510676
 20
-22.2986678
 10
-24.3639994
 20
-22.6630679
 10
-24.522258
 20
-22.873207
 10
-24.6787258
 20
-23.0999572
 10
-24.8196821
 20
-23.3201863
 10
-24.9531388
 20
-23.5429422
 10
-25.0928904
 20
-23.7916948
 10
-25.2192702
 20
-24.0310793
 10
-25.3485066
 20
-24.2910622
 10
-25.4608449
 20
-24.5305064
 10
-25.573998
 20
-24.7854363
 10
-25.6873639
 20
-25.0559852
 10
-25.7815603
 20
-25.2934572
 10
-25.8751293
 20
-25.5419125
 10
-25.9677152
 20
-25.8013987
 10
-26.0589604
 20
-26.0719541
 10
-26.1064592
 20
-26.2192332
 10
-25.8533363
 20
-26.46885730000001
 10
-25.5978267
 20
-26.7160377
 10
-25.3399539
 20
-26.9607519
 10
-25.0797418
 20
-27.202977
 10
-25.0215703
 20
-27.2564932
 10
-24.7468762
 20
-27.1527757
 10
-24.4412967
 20
-27.0306951
 10
-24.151045
 20
-26.9077726
 10
-23.8760215
 20
-26.7845839
 10
-23.6161096
 20
-26.6616999
 10
-23.3711757
 20
-26.5396863
 10
-23.1410693
 20
-26.4191037
 10
-22.8740314
 20
-26.2712319
 10
-22.6295366
 20
-26.1275309
 10
-22.4071831
 20
-25.9890528
 10
-22.1689617
 20
-25.8312275
 10
-21.9611519
 20
-25.6841602
 10
-21.7559228
 20
-25.5284514
 10
-21.5484953
 20
-25.357397
 10
-21.192681
 20
-25.1271751
 10
-20.906805
 20
-25.1251617
 10
-19.8430197
 20
-25.9735022
 10
-19.7813692
 20
-26.2526587
 10
-19.9258129
 20
-26.6492232
 10
-20.0440064
 20
-26.8842434
 10
-20.1574718
 20
-27.1352881
 10
-20.2568396
 20
-27.3771466
 10
-20.3483769
 20
-27.6201524
 10
-20.4414661
 20
-27.88986110000001
 10
-20.5230712
 20
-28.1479645
 10
-20.603809
 20
-28.4268454
 10
-20.6715876
 20
-28.6825005
 10
-20.7374028
 20
-28.95353780000001
 10
-20.8006385
 20
-29.2399811
 10
-20.8509189
 20
-29.4904563
 10
-20.8986208
 20
-29.7516262
 10
-20.9433857
 20
-30.02347419999999
 10
-20.984855
 20
-30.3059742
 10
-21.0052928
 20
-30.4593676
 10
-20.7116656
 20
-30.6597833
 10
-20.4161263
 20
-30.8573685
 10
-20.1187023
 20
-31.052105
 10
-19.8194209
 20
-31.24397480000001
 10
-19.7526286
 20
-31.2862441
 10
-19.5008684
 20
-31.1351448
 10
-19.221998
 20
-30.9604627
 10
-18.9583594
 20
-30.7876893
 10
-18.7097519
 20
-30.6173729
 10
-18.4759587
 20
-30.4500546
 10
-18.2567473
 20
-30.2862672
 10
-18.0518697
 20
-30.1265353
 10
-17.8155267
 20
-29.9333584
 10
-17.6006199
 20
-29.7483105
 10
-17.40656589999999
 20
-29.5723551
 10
-17.2003536
 20
-29.3745301
 10
-17.0221433
 20
-29.1927203
 10
-16.8480152
 20
-29.0028687
 10
-16.674464
 20
-28.7975256
 10
-16.3654755
 20
-28.5074704
 10
-16.0845532
 20
-28.4544442
 10
-14.8863863
 20
-29.0992053
 10
-14.7758812
 20
-29.3628675
 10
-14.8471943
 20
-29.7788505
 10
-14.921524
 20
-30.03119810000001
 10
-14.9883402
 20
-30.2984684
 10
-15.0429255
 20
-30.554183
 10
-15.0896015
 20
-30.8096282
 10
-15.1330364
 20
-31.0916243
 10
-15.1672439
 20
-31.360151
 10
-15.1968881
 20
-31.6489665
 10
-15.2179285
 20
-31.9126154
 10
-15.2342904
 20
-32.19104880000001
 10
-15.2453634
 20
-32.48418
 10
-15.2501117
 20
-32.7396079
 10
-15.2504133
 20
-33.0050982
 10
-15.2459186
 20
-33.2805705
 10
-15.2362791
 20
-33.5659353
 10
-15.228999
 20
-33.7205129
 10
-14.9043049
 20
-33.8652787
 10
-14.5782349
 20
-34.006918
 10
-14.250819
 20
-34.1454179
 10
-13.9220875
 20
-34.2807655
 10
-13.8488211
 20
-34.3104293
 10
-13.6280867
 20
-34.1168048
 10
-13.3848885
 20
-33.89513560000001
 10
-13.1563366
 20
-33.67806420000001
 10
-12.9421354
 20
-33.4660943
 10
-12.7419752
 20
-33.2597195
 10
-12.5555321
 20
-33.0594225
 10
-12.3824681
 20
-32.8656753
 10
-12.1844163
 20
-32.6334022
 10
-12.0060047
 20
-32.412955
 10
-11.8464874
 20
-32.20517750000001
 10
-11.678912
 20
-31.973711
 10
-11.5360289
 20
-31.7630023
 10
-11.3985985
 20
-31.54511
 10
-11.2645018
 20
-31.3120781
 10
-11.0122702
 20
-30.97151210000001
 10
-10.7453306
 20
-30.8691774
 10
-9.451292199999999
 20
-31.289636
 10
-9.2954843
 20
-31.52932960000001
 10
-9.291374799999999
 20
-31.951361
 10
-9.3194514
 20
-32.2129254
 10
-9.337471
 20
-32.487831
 10
-9.345519499999999
 20
-32.7491828
 10
-9.3458339
 20
-33.0088572
 10
-9.3382184
 20
-33.294077
 10
-9.3239289
 20
-33.5643964
 10
-9.301526699999998
 20
-33.85386370000001
 10
-9.2751526
 20
-34.1170326
 10
-9.2415353
 20
-34.393913
 10
-9.2000898
 20
-34.68431070000001
 10
-9.159153399999999
 20
-34.9364815
 10
-9.112045099999999
 20
-35.1977591
 10
-9.058435099999998
 20
-35.4680019
 10
-8.997996699999999
 20
-35.7470596
 10
-8.963232699999998
 20
-35.8978532
 10
-8.6179076
 20
-35.98231610000001
 10
-8.271786999999999
 20
-36.0634572
 10
-7.9249027
 20
-36.1412689
 10
-7.5772868
 20
-36.2157442
 10
-7.4999012
 20
-36.23184910000001
 10
-7.317286999999999
 20
-36.0019225
 10
-7.1175777
 20
-35.740391
 10
-6.9314583
 20
-35.4859985
  0
LWPOLYLINE
  5
461
330
70
100
AcDbEntity
  8
0
 62
    13
100
AcDbPolyline
 90
      368
 70
     0
 43
0.0
 10
-6.9314583
 20
-35.4859985
 10
-6.758548099999999
 20
-35.2391879
 10
-6.598454199999999
 20
-35.0003896
 10
-6.4507717
 20
-34.7700208
 10
-6.3150838
 20
-34.5484854
 10
-6.1616888
 20
-34.2845815
 10
-6.0255067
 20
-34.0358204
 10
-5.9056529
 20
-33.80289910000001
 10
-5.782100499999999
 20
-33.5452306
 10
-5.6791371
 20
-33.3123953
 10
-5.582821400000001
 20
-33.0734654
 10
-5.492489199999999
 20
-32.8202345
 10
-5.305121499999999
 20
-32.4401039
 10
-5.0607442
 20
-32.2917499
 10
-3.7124258
 20
-32.4743921
 10
-3.516322799999999
 20
-32.6824131
 10
-3.436922699999999
 20
-33.0969285
 10
-3.417844099999999
 20
-33.3593027
 10
-3.386487799999999
 20
-33.63300800000001
 10
-3.347740799999999
 20
-33.8915969
 10
-3.3016834
 20
-34.1471544
 10
-3.243262399999999
 20
-34.4264308
 10
-3.1809351
 20
-34.68985460000001
 10
-3.107206499999999
 20
-34.9706699
 10
-3.0342657
 20
-35.2249003
 10
-2.951749799999999
 20
-35.49132849999999
 10
-2.859117799999999
 20
-35.76965900000001
 10
-2.7738124
 20
-36.0104679
 10
-2.6808082
 20
-36.2591351
 10
-2.579806
 20
-36.5154626
 10
-2.4705112
 20
-36.779244
 10
-2.409380599999999
 20
-36.9214069
 10
-2.0545237
 20
-36.9428523
 10
-1.699477
 20
-36.9608872
 10
-1.3442735
 20
-36.9755099
 10
-0.9889459
 20
-36.9867191
 10
-0.9099281999999998
 20
-36.9887474
 10
-0.7713036999999999
 20
-36.7299088
 10
-0.6215021
 20
-36.4369208
 10
-0.4837972
 20
-36.1533835
 10
-0.3577355
 20
-35.87966510000001
 10
-0.2428535
 20
-35.6161185
 10
-0.1386782
 20
-35.363082
 10
-0.0447276
 20
-35.12087879999999
 10
0.0590805
 20
-34.8338262
 10
0.1486561
 20
-34.5647465
 10
0.224994
 20
-34.31416760000001
 10
0.3005524
 20
-34.0385788
 10
0.3602868
 20
-33.7911005
 10
0.4123921
 20
-33.5388125
 10
0.4560566
 20
-33.27352170000001
 10
0.5725382
 20
-32.8660441
 10
0.7864986
 20
-32.676439
 10
2.145761
 20
-32.61539439999999
 10
2.3758561
 20
-32.785057
 10
2.527994799999999
 20
-33.1787335
 10
2.5936156
 20
-33.4334846
 10
2.67334
 20
-33.6971925
 10
2.757637099999999
 20
-33.94470720000001
 10
2.848585799999999
 20
-34.1879339
 10
2.955934799999999
 20
-34.4522908
 10
3.0642966
 20
-34.70035220000001
 10
3.186981799999999
 20
-34.96349
 10
3.304145099999999
 20
-35.2006107
 10
3.432907499999999
 20
-35.4480235
 10
3.5737486
 20
-35.705341
 10
3.7006812
 20
-35.9270482
 10
3.8365921
 20
-36.15511270000001
 10
3.9817402
 20
-36.3892862
 10
4.1363785
 20
-36.62931320000001
 10
4.2219109
 20
-36.75827620000001
 10
4.5748944
 20
-36.7160148
 10
4.927455499999999
 20
-36.6703639
 10
5.279561799999999
 20
-36.6213275
 10
5.631180599999999
 20
-36.5689104
 10
5.709290599999999
 20
-36.556797
 10
5.7994699
 20
-36.2773657
 10
5.8945492
 20
-35.96233789999999
 10
5.9794135
 20
-35.6587691
 10
6.0545751
 20
-35.3669402
 10
6.120552799999999
 20
-35.087116
 10
6.177872599999999
 20
-34.8195447
 10
6.227066299999999
 20
-34.56445820000001
 10
6.2779509
 20
-34.263483
 10
6.3180409
 20
-33.9827333
 10
6.348409499999999
 20
-33.7225506
 10
6.3735454
 20
-33.4378991
 10
6.388130799999999
 20
-33.1837319
 10
6.394351
 20
-32.9261945
 10
6.389944299999999
 20
-32.6573705
 10
6.431796099999999
 20
-32.23564260000001
 10
6.6084627
 20
-32.0108804
 10
7.934981299999999
 20
-31.7081112
 10
8.191673099999999
 20
-31.83396210000001
 10
8.411660499999999
 20
-32.1941467
 10
8.521714300000001
 20
-32.43308680000001
 10
8.647244399999999
 20
-32.6783215
 10
8.774382199999998
 20
-32.9068067
 10
8.9072992
 20
-33.1298851
 10
9.060125799999999
 20
-33.3708257
 10
9.2110392
 20
-33.59555200000001
 10
9.3787379
 20
-33.8325548
 10
9.536357800000001
 20
-34.0449445
 10
9.7072283
 20
-34.2653899
 10
9.891751800000001
 20
-34.49342410000001
 10
10.0562319
 20
-34.6889036
 10
10.2306811
 20
-34.8890352
 10
10.4153099
 20
-35.0935283
 10
10.6103216
 20
-35.30208620000001
 10
10.7175067
 20
-35.41370429999999
 10
11.0572715
 20
-35.3090944
 10
11.3960156
 20
-35.2012249
 10
11.7337076
 20
-35.0901056
 10
12.0703163
 20
-34.9757468
 10
12.1450081
 20
-34.949881
 10
12.1838438
 20
-34.65883820000001
 10
12.2211447
 20
-34.331896
 10
12.250441
 20
-34.01805250000001
 10
12.2722866
 20
-33.71749279999999
 10
12.2872395
 20
-33.4303847
 10
12.2958614
 20
-33.1568786
 10
12.2987171
 20
-32.8971076
 10
12.2950428
 20
-32.5918833
 10
12.2843587
 20
-32.308487
 10
12.2677819
 20
-32.047063
 10
12.2416873
 20
-31.7624979
 10
12.2106551
 20
-31.5098109
 10
12.1707902
 20
-31.2553016
 10
12.1184539
 20
-30.9915845
 10
12.0843307
 20
-30.569161
 10
12.2180254
 20
-30.3164658
 10
13.4691647
 20
-29.7817032
 10
13.744203
 20
-29.85969760000001
 10
14.0249685
 20
-30.17481350000001
 10
14.1759181
 20
-30.3902629
 10
14.3432192
 20
-30.6091423
 10
14.5091115
 20
-30.8112543
 10
14.6797247
 20
-31.0070145
 10
14.8731168
 20
-31.2167949
 10
15.0617315
 20
-31.4109631
 10
15.2690536
 20
-31.6142134
 10
15.4620642
 20
-31.7950458
 10
15.6695507
 20
-31.9814385
 10
15.891826
 20
-32.1728601
 10
16.088567
 20
-32.33582910000001
 10
16.2959477
 20
-32.5015954
 10
16.514123
 20
-32.6698355
 10
16.7432403
 20
-32.840221
 10
16.868633
 20
-32.93090680000001
 10
17.18425889999999
 20
-32.7673107
 10
17.4982983
 20
-32.6006895
 10
17.8107223
 20
-32.4310588
 10
18.1215021
 20
-32.258434
 10
18.190375
 20
-32.2196471
 10
18.176619
 20
-31.926347
 10
18.1549426
 20
-31.59799860000001
 10
18.1277292
 20
-31.2839677
 10
18.0955567
 20
-30.9843375
 10
18.0590042
 20
-30.6991733
 10
18.0186511
 20
-30.428523
 10
17.975077
 20
-30.1724168
 10
17.91696189999999
 20
-29.8727537
 10
17.8558471
 20
-29.59581939999999
 10
17.7928576
 20
-29.3415565
 10
17.71637139999999
 20
-29.0662238
 10
17.6407188
 20
-28.8231386
 10
17.5560502
 20
-28.5798375
 10
17.4574664
 20
-28.3297035
 10
17.348465
 20
-27.9201614
 10
17.4348907
 20
-27.64765510000001
 10
18.5704382
 20
-26.8980868
 10
18.8549829
 20
-26.9257177
 10
19.1875025
 20
-27.185637
 10
19.3744963
 20
-27.370671
 10
19.5781912
 20
-27.55616010000001
 10
19.777506
 20
-27.7254029
 10
19.9803317
 20
-27.887553
 10
20.2080737
 20
-28.0594306
 10
20.4283273
 20
-28.2168
 10
20.6686094
 20
-28.3797652
 10
20.89080710000001
 20
-28.5232282
 10
21.1282409
 20
-28.6695773
 10
21.3811238
 20
-28.8182339
 10
21.6038024
 20
-28.9434544
 10
21.837449
 20
-29.0695276
 10
22.0821586
 20
-29.1961072
 10
22.3380174
 20
-29.3228442
 10
22.4775876
 20
-29.3896828
 10
22.75893
 20
-29.1723586
 10
23.0381714
 20
-28.9523412
 10
23.3152859
 20
-28.729651
 10
23.5902479
 20
-28.5043086
 10
23.6510884
 20
-28.4538472
 10
23.5851826
 20
-28.1677169
 10
23.5052257
 20
-27.8485156
 10
23.4223772
 20
-27.5443904
 10
23.3372207
 20
-27.25532
 10
23.2503376
 20
-26.9812653
 10
23.1623066
 20
-26.7221698
 10
23.0737032
 20
-26.4779597
 10
22.9630151
 20
-26.1934892
 10
22.8534339
 20
-25.9319178
 10
22.7460563
 20
-25.6929882
 10
22.6216366
 20
-25.4357374
 10
22.5037953
 20
-25.2100669
 10
22.3770443
 20
-24.9857939
 10
22.2353817
 20
-24.7572825
 10
22.0550054
 20
-24.3737849
 10
22.0913843
 20
-24.0902259
 10
23.0748424
 20
-23.1499437
 10
23.35974810000001
 20
-23.1263232
 10
23.7333344
 20
-23.3226918
 10
23.9503621
 20
-23.4713632
 10
24.183904
 20
-23.6175003
 10
24.4102352
 20
-23.7484342
 10
24.6387544
 20
-23.8717625
 10
24.8935264
 20
-24.0002131
 10
25.1383398
 20
-24.1157257
 10
25.4038591
 20
-24.2331679
 10
25.6481023
 20
-24.33465050000001
 10
25.9078521
 20
-24.4362523
 10
26.1832147
 20
-24.5373659
 10
26.4246737
 20
-24.6208133
 10
26.6770768
 20
-24.7031412
 10
26.9404555
 20
-24.7839921
 10
27.2148323
 20
-24.863007
 10
27.3640941
 20
-24.9038503
 10
27.6021104
 20
-24.6397829
 10
27.8375786
 20
-24.3734409
 10
28.0704769
 20
-24.1048487
 10
28.3007838
 20
-23.8340312
 10
28.3516363
 20
-23.7735173
 10
28.23569910000001
 20
-23.5037531
 10
28.1000316
 20
-23.2039584
 10
27.9642108
 20
-22.9195138
 10
27.8288073
 20
-22.6502941
 10
27.694386
 20
-22.3961571
 10
27.5615064
 20
-22.156944
 10
27.4307216
 20
-21.9324792
 10
27.27101810000001
 20
-21.6723444
 10
27.11649260000001
 20
-21.434543
 10
26.968178
 20
-21.2186262
 10
26.7998239
 20
-20.9877254
 10
26.6435813
 20
-20.786723
 10
26.4788218
 20
-20.5886864
 10
26.2986334
 20
-20.389142
 10
26.0526797
 20
-20.0440149
 10
26.0378426
 20
-19.7585171
 10
26.8376023
 20
-18.6577423
 10
27.1137118
 20
-18.5836296
 10
27.5163574
 20
-18.710136
 10
27.7564437
 20
-18.8176664
 10
28.0123262
 20
-18.9197545
 10
28.2583993
 20
-19.0081713
 10
28.5052673
 20
-19.088714
 10
28.7788808
 20
-19.1696091
 10
29.0403855
 20
-19.2395522
 10
29.3226079
 20
-19.3076968
 10
29.5810464
 20
-19.3639372
 10
29.8547636
 20
-19.417526
 10
30.1437555
 20
-19.4678468
 10
30.3962343
 20
-19.506839
 10
30.6592814
 20
-19.5427756
 10
30.932864
 20
-19.5752991
 10
31.21694
 20
-19.6040523
 10
31.371096
 20
-19.6175875
 10
31.5581363
 20
-19.3152644
 10
31.7422632
 20
-19.011158
 10
31.9234597
 20
-18.7052967
 10
32.1017091
 20
-18.3977084
 10
32.1409392
 20
-18.329087
 10
31.978697
 20
-18.0843594
 10
31.7916793
 20
-17.8136068
 10
31.6072517
 20
-17.5579851
 10
31.4259531
 20
-17.3172692
 10
31.2483141
 20
-17.0912181
 10
31.0748568
 20
-16.8795758
 10
30.906094
 20
-16.6820707
 10
30.7025081
 20
-16.4546326
 10
30.5080048
 20
-16.2482443
 10
30.3235203
 20
-16.06227999999999
 10
30.1166428
 20
-15.8651507
 10
29.9270207
 20
-15.6952766
 10
29.7295481
 20
-15.5298416
 10
29.5166254
 20
-15.3656778
 10
29.2129995
 20
-15.0700137
 10
29.1474232
 20
-14.7917533
 10
29.7377795
 20
-13.5658658
 10
29.9962185
 20
-13.4436428
 10
30.414982
 20
-13.4962211
 10
30.6704103
 20
-13.5591544
 10
30.9404092
 20
-13.6139123
 10
31.1983153
 20
-13.6569701
 10
31.4555974
 20
-13.6921385
 10
31.7392582
 20
-13.722878
 10
32.0090492
 20
-13.7450036
 10
32.2989039
 20
-13.7616603
 10
32.56323130000001
 20
-13.7708509
 10
32.84211840000001
 20
-13.7747045
 10
33.13545130000001
 20
-13.7726151
 10
33.390835
 20
-13.7658989
 10
33.65607150000001
 20
-13.7542891
 10
33.9310648
 20
-13.7374398
 10
34.2157097
 20
-13.7150072
 10
34.3698051
 20
-13.7007993
 10
34.49985770000001
 20
-13.3699373
 10
34.6267253
 20
-13.037841
 10
34.7503963
 20
-12.704541
 10
34.87085910000001
 20
-12.3700682
 10
34.897206
 20
-12.2955447
 10
34.6938732
 20
-12.0837194
 10
34.4615162
 20
-11.8507113
 10
34.2344094
 20
-11.6321284
 10
34.01304290000001
 20
-11.4276529
 10
33.79789570000001
 20
-11.2369532
 10
33.5894357
 20
-11.0596841
 10
33.3881191
 20
-10.8954868
 10
33.1471943
 20
-10.7080553
 10
32.9189647
 20
-10.5397138
 10
32.7042397
 20
-10.3896789
 10
32.465488
 20
-10.232657
 10
32.24858109999999
 20
-10.0993712
 10
32.0247423
 20
-9.9718548
 10
31.7859288
 20
-9.8483481
 10
31.4343894
 20
-9.611649900000001
 10
31.3201817
 20
-9.349570300000001
 10
31.68216
 20
-8.037971199999999
 10
31.914622
 20
-7.8715663
 10
32.3360441
 20
-7.8485266
 10
32.5986047
 20
-7.8648399
 10
32.874042
 20
-7.8705077
 10
33.1354917
 20
-7.8668227
 10
33.3949187
 20
-7.8554864
 10
33.67950970000001
 20
-7.8350823
 10
33.9489158
 20
-7.8086793
 10
34.2370865
 20
-7.773312799999999
 10
34.4988072
 20
-7.735158199999999
 10
34.7739005
 20
-7.689152599999999
 10
35.0621463
 20
-7.634720299999999
 10
35.3122267
 20
-7.5825114
 10
35.5711277
 20
-7.523728399999999
 10
35.8386932
 20
-7.4580479
 10
36.11475820000001
 20
-7.385150599999999
 10
36.2638404
 20
-7.3436562
 10
36.3327253
 20
-6.994889399999999
 10
36.398256
 20
-6.6454769
 10
36.4604265
 20
-6.2954509
 10
36.519231
 20
-5.944843799999999
 10
36.5318478
 20
-5.8668135
 10
36.2939598
 20
-5.694698799999999
 10
36.02373170000001
 20
-5.5069242
 10
35.7612451
 20
-5.3324055
 10
35.5069255
 20
-5.1707425
 10
35.26118510000001
 20
-5.021523499999999
 10
35.0244225
 20
-4.884325099999999
 10
34.79702260000001
 20
-4.758712999999999
 10
34.5265023
 20
-4.6173124
 10
34.2718819
 20
-4.492428099999999
 10
34.0338179
 20
-4.383144999999999
 10
33.7708657
 20
-4.2712772
 10
33.5336455
 20
-4.178863699999999
 10
33.290635
 20
-4.093364499999999
 10
33.0336063
 20
-4.0144843
 10
32.6454522
 20
-3.844359799999999
 10
32.4862837
 20
-3.6068845
 10
32.60824990000001
 20
-2.251729599999999
 10
32.8072633
 20
-2.0464912
 10
33.2177991
 20
-1.948573899999999
  0
ENDSEC
  0
SECTION
  2
OBJECTS
  0
DICTIONARY
  5
C
330
0
100
AcDbDictionary
281
     1
  3
ACAD_CIP_PREVIOUS_PRODUCT_INFO
350
5D7
  3
ACAD_COLOR
350
62
  3
ACAD_DETAILVIEWSTYLE
350
6A
  3
ACAD_GROUP
350
D
  3
ACAD_LAYOUT
350
61
  3
ACAD_MATERIAL
350
10
  3
ACAD_MLEADERSTYLE
350
65
  3
ACAD_MLINESTYLE
350
5E
  3
ACAD_PLOTSETTINGS
350
60
  3
ACAD_PLOTSTYLENAME
350
E
  3
ACAD_SCALELIST
350
42
  3
ACAD_SECTIONVIEWSTYLE
350
67
  3
ACAD_TABLESTYLE
350
63
  3
ACAD_VISUALSTYLE
350
29
  3
ACDB_RECOMPOSE_DATA
350
5E6
  3
AcDbVariableDictionary
350
5DA
  0
DICTIONARY
  5
5D8
330
54
100
AcDbDictionary
280
     1
281
     1
  3
ADSK_XREC_LAYER_RECONCILED
360
5D9
  0
XRECORD
  5
5D7
102
{ACAD_REACTORS
330
C
102
}
330
C
100
AcDbXrecord
280
     1
300
ACD
300
2013
300
ACD_F_S
  0
DICTIONARY
  5
62
102
{ACAD_REACTORS
330
C
102
}
330
C
100
AcDbDictionary
281
     1
  0
DICTIONARY
  5
6A
102
{ACAD_REACTORS
330
C
102
}
330
C
100
AcDbDictionary
281
     1
  3
Imperial24
350
6B
  0
DICTIONARY
  5
D
102
{ACAD_REACTORS
330
C
102
}
330
C
100
AcDbDictionary
281
     1
  0
DICTIONARY
  5
61
102
{ACAD_REACTORS
330
C
102
}
330
C
100
AcDbDictionary
281
     1
  3
Layout1
350
6F
  3
Model
350
73
  0
DICTIONARY
  5
10
102
{ACAD_REACTORS
330
C
102
}
330
C
100
AcDbDictionary
281
     1
  3
ByBlock
350
19
  3
ByLayer
350
11
  3
Global
350
21
  0
DICTIONARY
  5
65
102
{ACAD_REACTORS
330
C
102
}
330
C
100
AcDbDictionary
281
     1
  3
Standard
350
66
  0
DICTIONARY
  5
5E
102
{ACAD_REACTORS
330
C
102
}
330
C
100
AcDbDictionary
281
     1
  3
Standard
350
5F
  0
DICTIONARY
  5
60
102
{ACAD_REACTORS
330
C
102
}
330
C
100
AcDbDictionary
281
     1
  0
ACDBDICTIONARYWDFLT
  5
E
102
{ACAD_REACTORS
330
C
102
}
330
C
100
AcDbDictionary
281
     1
  3
Normal
350
F
100
AcDbDictionaryWithDefault
340
F
  0
DICTIONARY
  5
42
102
{ACAD_REACTORS
330
C
102
}
330
C
100
AcDbDictionary
281
     1
  3
A0
350
43
  3
A1
350
44
  3
A2
350
45
  3
A3
350
46
  3
A4
350
47
  3
A5
350
48
  3
A6
350
49
  3
A7
350
4A
  3
A8
350
4B
  3
A9
350
4C
  3
B0
350
4D
  3
B1
350
4E
  3
B2
350
4F
  3
B3
350
50
  3
B4
350
51
  3
B5
350
52
  3
B6
350
53
  0
DICTIONARY
  5
67
102
{ACAD_REACTORS
330
C
102
}
330
C
100
AcDbDictionary
281
     1
  3
Imperial24
350
69
  0
DICTIONARY
  5
63
102
{ACAD_REACTORS
330
C
102
}
330
C
100
AcDbDictionary
281
     1
  3
Standard
350
64
  0
DICTIONARY
  5
29
102
{ACAD_REACTORS
330
C
102
}
330
C
100
AcDbDictionary
281
     1
  3
2dWireframe
350
2F
  3
Basic
350
2E
  3
Brighten
350
35
  3
ColorChange
350
39
  3
Conceptual
350
32
  3
Dim
350
34
  3
EdgeColorOff
350
41
  3
Facepattern
350
38
  3
Flat
350
2A
  3
FlatWithEdges
350
2B
  3
Gouraud
350
2C
  3
GouraudWithEdges
350
2D
  3
Hidden
350
31
  3
JitterOff
350
3F
  3
Linepattern
350
37
  3
OverhangOff
350
40
  3
Realistic
350
33
  3
Shaded
350
3E
  3
Shaded with edges
350
3D
  3
Shades of Gray
350
3A
  3
Sketchy
350
3B
  3
Thicken
350
36
  3
Wireframe
350
30
  3
X-Ray
350
3C
  0
XRECORD
  5
5E6
102
{ACAD_REACTORS
330
C
102
}
330
C
100
AcDbXrecord
280
     1
 90
        1
330
64
  0
DICTIONARY
  5
5DA
102
{ACAD_REACTORS
330
C
102
}
330
C
100
AcDbDictionary
281
     1
  3
CANNOSCALE
350
5E0
  3
CMLEADERSTYLE
350
5DC
  3
CTABLESTYLE
350
5DB
  3
CVIEWDETAILSTYLE
350
5DD
  3
CVIEWSECTIONSTYLE
350
5DE
  3
LAYEREVAL
350
5E2
  3
LAYERNOTIFY
350
5E3
  3
LIGHTINGUNITS
350
5E1
  3
MSLTSCALE
350
5DF
  0
XRECORD
  5
5D9
102
{ACAD_REACTORS
330
5D8
102
}
330
5D8
100
AcDbXrecord
280
     1
290
     1
  0
ACDBDETAILVIEWSTYLE
  5
6B
102
{ACAD_REACTORS
330
6A
102
}
330
6A
100
AcDbModelDocViewStyle
 70
     0
  3
Imperial24
290
     0
100
AcDbDetailViewStyle
 70
     0
 71
     0
 90
        3
 71
     1
340
55
 62
   256
 40
0.24
340
0
 62
   256
 40
0.24
300

 40
0.36
280
     3
 71
     2
340
5C
 90
       25
 62
   256
 71
     3
340
55
 62
   256
 40
0.24
 90
        1
 40
0.75
 90
        1
300
%<\AcVar ViewType \f "%tc1">% %<\AcVar ViewDetailId>%\PSCALE %<\AcVar ViewScale \f "%sn">%
 71
     4
340
5C
 90
       25
 62
   256
340
5C
 90
       25
 62
   256
280
     0
  0
LAYOUT
  5
6F
102
{ACAD_REACTORS
330
61
102
}
330
61
100
AcDbPlotSettings
  1

  2
Microsoft XPS Document Writer
  4

  6

 40
0.0
 41
0.0
 42
0.0
 43
0.0
 44
0.0
 45
0.0
 46
0.0
 47
0.0
 48
0.0
 49
0.0
140
0.0
141
0.0
142
1.0
143
1.0
 70
   688
 72
     0
 73
     0
 74
     5
  7

 75
    16
147
1.0
 76
     0
 77
     2
 78
   300
148
0.0
149
0.0
100
AcDbLayout
  1
Layout1
 70
     1
 71
     1
 10
0.0
 20
0.0
 11
12.0
 21
9.0
 12
0.0
 22
0.0
 32
0.0
 14
1.000000000000000E+20
 24
1.000000000000000E+20
 34
1.000000000000000E+20
 15
-1.000000000000000E+20
 25
-1.000000000000000E+20
 35
-1.000000000000000E+20
146
0.0
 13
0.0
 23
0.0
 33
0.0
 16
1.0
 26
0.0
 36
0.0
 17
0.0
 27
1.0
 37
0.0
 76
     0
330
6C
  0
LAYOUT
  5
73
102
{ACAD_REACTORS
330
61
102
}
330
61
100
AcDbPlotSettings
  1

  2
Microsoft XPS Document Writer
  4

  6

 40
0.0
 41
0.0
 42
0.0
 43
0.0
 44
0.0
 45
0.0
 46
0.0
 47
0.0
 48
0.0
 49
0.0
140
0.0
141
0.0
142
1.0
143
1.0
 70
  1712
 72
     0
 73
     0
 74
     0
  7

 75
     0
147
1.0
 76
     0
 77
     2
 78
   300
148
0.0
149
0.0
100
AcDbLayout
  1
Model
 70
     1
 71
     0
 10
0.0
 20
0.0
 11
12.0
 21
9.0
 12
0.0
 22
0.0
 32
0.0
 14
0.0
 24
0.0
 34
0.0
 15
0.0
 25
0.0
 35
0.0
146
0.0
 13
0.0
 23
0.0
 33
0.0
 16
1.0
 26
0.0
 36
0.0
 17
0.0
 27
1.0
 37
0.0
 76
     0
330
70
331
5D6
  0
MATERIAL
  5
19
102
{ACAD_XDICTIONARY
360
1A
102
}
102
{ACAD_REACTORS
330
10
102
}
330
10
100
AcDbMaterial
  1
ByBlock
 72
     0
 43
0.0208333333333333
 43
0.0
 43
0.0
 43
0.0
 43
0.0
 43
0.0208333333333333
 43
0.0
 43
0.0
 43
0.0
 43
0.0
 43
1.0
 43
0.0
 43
0.0
 43
0.0
 43
0.0
 43
1.0
 77
     0
 47
0.0208333333333333
 47
0.0
 47
0.0
 47
0.0
 47
0.0
 47
0.0208333333333333
 47
0.0
 47
0.0
 47
0.0
 47
0.0
 47
1.0
 47
0.0
 47
0.0
 47
0.0
 47
0.0
 47
1.0
171
     0
 49
0.0208333333333333
 49
0.0
 49
0.0
 49
0.0
 49
0.0
 49
0.0208333333333333
 49
0.0
 49
0.0
 49
0.0
 49
0.0
 49
1.0
 49
0.0
 49
0.0
 49
0.0
 49
0.0
 49
1.0
175
     0
142
0.0208333333333333
142
0.0
142
0.0
142
0.0
142
0.0
142
0.0208333333333333
142
0.0
142
0.0
142
0.0
142
0.0
142
1.0
142
0.0
142
0.0
142
0.0
142
0.0
142
1.0
179
     0
144
0.0208333333333333
144
0.0
144
0.0
144
0.0
144
0.0
144
0.0208333333333333
144
0.0
144
0.0
144
0.0
144
0.0
144
1.0
144
0.0
144
0.0
144
0.0
144
0.0
144
1.0
147
0.0208333333333333
147
0.0
147
0.0
147
0.0
147
0.0
147
0.0208333333333333
147
0.0
147
0.0
147
0.0
147
0.0
147
1.0
147
0.0
147
0.0
147
0.0
147
0.0
147
1.0
  0
MATERIAL
  5
11
102
{ACAD_XDICTIONARY
360
12
102
}
102
{ACAD_REACTORS
330
10
102
}
330
10
100
AcDbMaterial
  1
ByLayer
 72
     0
 43
0.0208333333333333
 43
0.0
 43
0.0
 43
0.0
 43
0.0
 43
0.0208333333333333
 43
0.0
 43
0.0
 43
0.0
 43
0.0
 43
1.0
 43
0.0
 43
0.0
 43
0.0
 43
0.0
 43
1.0
 77
     0
 47
0.0208333333333333
 47
0.0
 47
0.0
 47
0.0
 47
0.0
 47
0.0208333333333333
 47
0.0
 47
0.0
 47
0.0
 47
0.0
 47
1.0
 47
0.0
 47
0.0
 47
0.0
 47
0.0
 47
1.0
171
     0
 49
0.0208333333333333
 49
0.0
 49
0.0
 49
0.0
 49
0.0
 49
0.0208333333333333
 49
0.0
 49
0.0
 49
0.0
 49
0.0
 49
1.0
 49
0.0
 49
0.0
 49
0.0
 49
0.0
 49
1.0
175
     0
142
0.0208333333333333
142
0.0
142
0.0
142
0.0
142
0.0
142
0.0208333333333333
142
0.0
142
0.0
142
0.0
142
0.0
142
1.0
142
0.0
142
0.0
142
0.0
142
0.0
142
1.0
179
     0
144
0.0208333333333333
144
0.0
144
0.0
144
0.0
144
0.0
144
0.0208333333333333
144
0.0
144
0.0
144
0.0
144
0.0
144
1.0
144
0.0
144
0.0
144
0.0
144
0.0
144
1.0
147
0.0208333333333333
147
0.0
147
0.0
147
0.0
147
0.0
147
0.0208333333333333
147
0.0
147
0.0
147
0.0
147
0.0
147
1.0
147
0.0
147
0.0
147
0.0
147
0.0
147
1.0
  0
MATERIAL
  5
21
102
{ACAD_XDICTIONARY
360
22
102
}
102
{ACAD_REACTORS
330
10
102
}
330
10
100
AcDbMaterial
  1
Global
 72
     0
 43
0.0208333333333333
 43
0.0
 43
0.0
 43
0.0
 43
0.0
 43
0.0208333333333333
 43
0.0
 43
0.0
 43
0.0
 43
0.0
 43
1.0
 43
0.0
 43
0.0
 43
0.0
 43
0.0
 43
1.0
 77
     0
 47
0.0208333333333333
 47
0.0
 47
0.0
 47
0.0
 47
0.0
 47
0.0208333333333333
 47
0.0
 47
0.0
 47
0.0
 47
0.0
 47
1.0
 47
0.0
 47
0.0
 47
0.0
 47
0.0
 47
1.0
171
     0
 49
0.0208333333333333
 49
0.0
 49
0.0
 49
0.0
 49
0.0
 49
0.0208333333333333
 49
0.0
 49
0.0
 49
0.0
 49
0.0
 49
1.0
 49
0.0
 49
0.0
 49
0.0
 49
0.0
 49
1.0
175
     0
142
0.0208333333333333
142
0.0
142
0.0
142
0.0
142
0.0
142
0.0208333333333333
142
0.0
142
0.0
142
0.0
142
0.0
142
1.0
142
0.0
142
0.0
142
0.0
142
0.0
142
1.0
179
     0
144
0.0208333333333333
144
0.0
144
0.0
144
0.0
144
0.0
144
0.0208333333333333
144
0.0
144
0.0
144
0.0
144
0.0
144
1.0
144
0.0
144
0.0
144
0.0
144
0.0
144
1.0
147
0.0208333333333333
147
0.0
147
0.0
147
0.0
147
0.0
147
0.0208333333333333
147
0.0
147
0.0
147
0.0
147
0.0
147
1.0
147
0.0
147
0.0
147
0.0
147
0.0
147
1.0
  0
MLEADERSTYLE
  5
66
102
{ACAD_REACTORS
330
65
102
}
330
65
100
AcDbMLeaderStyle
179
     2
170
     2
171
     1
172
     0
 90
        2
 40
0.0
 41
0.0
173
     1
 91
-1056964608
340
5A
 92
       -2
290
     1
 42
0.09
291
     1
 43
0.36
  3
Standard
 44
0.18
300

342
55
174
     1
178
     6
175
     1
176
     0
 93
-1056964608
 45
0.18
292
     0
297
     0
 46
0.18
 94
-1056964608
 47
1.0
 49
1.0
140
1.0
293
     1
141
0.0
294
     1
177
     0
142
1.0
295
     0
296
     0
143
0.125
271
     0
272
     9
273
     9
298
     0
  0
MLINESTYLE
  5
5F
102
{ACAD_REACTORS
330
5E
102
}
330
5E
100
AcDbMlineStyle
  2
STANDARD
 70
     0
  3

 62
   256
 51
90.0
 52
90.0
 71
     2
 49
0.5
 62
   256
  6
BYLAYER
 49
-0.5
 62
   256
  6
BYLAYER
  0
ACDBPLACEHOLDER
  5
F
102
{ACAD_REACTORS
330
E
102
}
330
E
  0
SCALE
  5
43
102
{ACAD_REACTORS
330
42
102
}
330
42
100
AcDbScale
 70
     0
300
1:1
140
1.0
141
1.0
290
     1
  0
SCALE
  5
44
102
{ACAD_REACTORS
330
42
102
}
330
42
100
AcDbScale
 70
     0
300
1/128" = 1'-0"
140
0.0078125
141
12.0
290
     0
  0
SCALE
  5
45
102
{ACAD_REACTORS
330
42
102
}
330
42
100
AcDbScale
 70
     0
300
1/64" = 1'-0"
140
0.015625
141
12.0
290
     0
  0
SCALE
  5
46
102
{ACAD_REACTORS
330
42
102
}
330
42
100
AcDbScale
 70
     0
300
1/32" = 1'-0"
140
0.03125
141
12.0
290
     0
  0
SCALE
  5
47
102
{ACAD_REACTORS
330
42
102
}
330
42
100
AcDbScale
 70
     0
300
1/16" = 1'-0"
140
0.0625
141
12.0
290
     0
  0
SCALE
  5
48
102
{ACAD_REACTORS
330
42
102
}
330
42
100
AcDbScale
 70
     0
300
3/32" = 1'-0"
140
0.09375
141
12.0
290
     0
  0
SCALE
  5
49
102
{ACAD_REACTORS
330
42
102
}
330
42
100
AcDbScale
 70
     0
300
1/8" = 1'-0"
140
0.125
141
12.0
290
     0
  0
SCALE
  5
4A
102
{ACAD_REACTORS
330
42
102
}
330
42
100
AcDbScale
 70
     0
300
3/16" = 1'-0"
140
0.1875
141
12.0
290
     0
  0
SCALE
  5
4B
102
{ACAD_REACTORS
330
42
102
}
330
42
100
AcDbScale
 70
     0
300
1/4" = 1'-0"
140
0.25
141
12.0
290
     0
  0
SCALE
  5
4C
102
{ACAD_REACTORS
330
42
102
}
330
42
100
AcDbScale
 70
     0
300
3/8" = 1'-0"
140
0.375
141
12.0
290
     0
  0
SCALE
  5
4D
102
{ACAD_REACTORS
330
42
102
}
330
42
100
AcDbScale
 70
     0
300
1/2" = 1'-0"
140
0.5
141
12.0
290
     0
  0
SCALE
  5
4E
102
{ACAD_REACTORS
330
42
102
}
330
42
100
AcDbScale
 70
     0
300
3/4" = 1'-0"
140
0.75
141
12.0
290
     0
  0
SCALE
  5
4F
102
{ACAD_REACTORS
330
42
102
}
330
42
100
AcDbScale
 70
     0
300
1" = 1'-0"
140
1.0
141
12.0
290
     0
  0
SCALE
  5
50
102
{ACAD_REACTORS
330
42
102
}
330
42
100
AcDbScale
 70
     0
300
1-1/2" = 1'-0"
140
1.5
141
12.0
290
     0
  0
SCALE
  5
51
102
{ACAD_REACTORS
330
42
102
}
330
42
100
AcDbScale
 70
     0
300
3" = 1'-0"
140
3.0
141
12.0
290
     0
  0
SCALE
  5
52
102
{ACAD_REACTORS
330
42
102
}
330
42
100
AcDbScale
 70
     0
300
6" = 1'-0"
140
6.0
141
12.0
290
     0
  0
SCALE
  5
53
102
{ACAD_REACTORS
330
42
102
}
330
42
100
AcDbScale
 70
     0
300
1'-0" = 1'-0"
140
12.0
141
12.0
290
     0
  0
ACDBSECTIONVIEWSTYLE
  5
69
102
{ACAD_REACTORS
330
67
102
}
330
67
100
AcDbModelDocViewStyle
 70
     0
  3
Imperial24
290
     0
100
AcDbSectionViewStyle
 70
     0
 71
     0
 90
       78
 71
     1
340
55
 62
   256
 40
0.24
340
0
340
0
 62
   256
 40
0.24
300
I, O, Q, S, X, Z
 40
0.48
 90
        3
 40
0.18
 90
        1
 71
     2
340
68
 90
       25
 62
   256
340
5C
 90
       50
 62
   256
 40
0.24
 40
0.0
 40
0.24
 71
     3
340
55
 62
   256
 40
0.24
 90
        1
 40
0.75
 90
        1
300
%<\AcVar ViewType \f "%tc1">% %<\AcVar ViewSectionStartId>%-%<\AcVar ViewSectionEndId>%\PSCALE %<\AcVar ViewScale \f "%sn">%
 71
     4
 62
   256
 62
   257
300
ANSI31
 40
1.0
 90
        0
290
     0
290
     0
 90
        6
 40
0.0
 40
1.570796326794896
 40
0.2617993877991494
 40
1.308996938995747
 40
-0.2617993877991494
 40
1.832595714594046
  0
TABLESTYLE
  5
64
102
{ACAD_XDICTIONARY
360
5E4
102
}
102
{ACAD_REACTORS
330
63
102
}
330
63
100
AcDbTableStyle
280
     0
  3
Standard
 70
     0
 71
     0
 40
0.06
 41
0.06
280
     0
281
     0
  7
Standard
140
0.18
170
     2
 62
     0
 63
     7
283
     0
 90
      512
 91
        0
  1

274
    -2
284
     1
 64
     0
275
    -2
285
     1
 65
     0
276
    -2
286
     1
 66
     0
277
    -2
287
     1
 67
     0
278
    -2
288
     1
 68
     0
279
    -2
289
     1
 69
     0
  7
Standard
140
0.25
170
     5
 62
     0
 63
     7
283
     0
 90
      512
 91
        0
  1

274
    -2
284
     1
 64
     0
275
    -2
285
     1
 65
     0
276
    -2
286
     1
 66
     0
277
    -2
287
     1
 67
     0
278
    -2
288
     1
 68
     0
279
    -2
289
     1
 69
     0
  7
Standard
140
0.18
170
     5
 62
     0
 63
     7
283
     0
 90
      512
 91
        0
  1

274
    -2
284
     1
 64
     0
275
    -2
285
     1
 65
     0
276
    -2
286
     1
 66
     0
277
    -2
287
     1
 67
     0
278
    -2
288
     1
 68
     0
279
    -2
289
     1
 69
     0
  0
VISUALSTYLE
  5
2F
102
{ACAD_REACTORS
330
29
102
}
330
29
100
AcDbVisualStyle
  2
2dWireframe
 70
     4
177
     3
291
     0
 70
    58
 90
        0
176
     1
 90
        2
176
     1
 90
        0
176
     1
 90
        0
176
     1
 40
0.6
176
     1
 40
30.0
176
     1
 62
     7
420
 16777215
176
     1
 90
        1
176
     1
 90
        4
176
     1
 62
     7
176
     1
 62
   257
176
     1
 90
        1
176
     1
 90
        1
176
     1
 40
1.0
176
     1
 90
        0
176
     1
 62
   257
176
     1
 40
1.0
176
     1
 90
        1
176
     1
 90
        6
176
     1
 90
        2
176
     1
 62
     7
176
     1
 90
        5
176
     1
 90
        0
176
     1
 90
        0
176
     1
290
     0
176
     1
 90
        1
176
     1
 40
0.0
176
     1
 90
        0
176
     1
290
     1
176
     1
290
     1
176
     1
290
     0
176
     1
290
     0
176
     1
290
     0
176
     1
290
     0
176
     1
290
     0
176
     1
290
     0
176
     1
290
     0
176
     1
 90
       50
176
     1
 40
0.0
176
     1
 40
1.0
176
     1
 90
        0
176
     1
 62
    18
420
        0
176
     1
 90
       50
176
     1
 90
        3
176
     1
 62
     5
420
      255
176
     1
290
     0
176
     1
 90
       50
176
     1
 90
       50
176
     1
 90
       50
176
     1
290
     0
176
     1
 90
       50
176
     1
 62
   256
176
     0
 40
1.0
176
     0
 90
        2
176
     1
  1
strokes_ogs.tif
176
     1
290
     0
176
     1
 40
1.0
176
     1
 40
1.0
176
     1
  0
VISUALSTYLE
  5
2E
102
{ACAD_REACTORS
330
29
102
}
330
29
100
AcDbVisualStyle
  2
Basic
 70
     7
177
     3
291
     1
 70
    58
 90
        1
176
     1
 90
        0
176
     1
 90
        1
176
     1
 90
        0
176
     1
 40
0.6
176
     1
 40
30.0
176
     1
 62
     7
420
 16777215
176
     1
 90
        0
176
     1
 90
        4
176
     1
 62
     7
176
     1
 62
   257
176
     1
 90
        1
176
     1
 90
        1
176
     1
 40
1.0
176
     1
 90
        8
176
     1
 62
     7
176
     1
 40
1.0
176
     1
 90
        1
176
     1
 90
        6
176
     1
 90
        2
176
     1
 62
     7
176
     1
 90
        5
176
     1
 90
        0
176
     1
 90
        0
176
     1
290
     0
176
     1
 90
        1
176
     1
 40
0.0
176
     1
 90
        0
176
     1
290
     0
176
     1
290
     1
176
     1
290
     1
176
     1
290
     0
176
     1
290
     0
176
     1
290
     0
176
     1
290
     0
176
     1
290
     0
176
     1
290
     0
176
     1
 90
       50
176
     1
 40
0.0
176
     1
 40
1.0
176
     1
 90
        0
176
     1
 62
    18
420
        0
176
     1
 90
       50
176
     1
 90
        3
176
     1
 62
     5
420
      255
176
     1
290
     0
176
     1
 90
       50
176
     1
 90
       50
176
     1
 90
       50
176
     1
290
     0
176
     1
 90
       50
176
     1
 62
   256
176
     0
 40
1.0
176
     0
 90
        2
176
     1
  1
strokes_ogs.tif
176
     1
290
     0
176
     1
 40
1.0
176
     1
 40
1.0
176
     1
  0
VISUALSTYLE
  5
35
102
{ACAD_REACTORS
330
29
102
}
330
29
100
AcDbVisualStyle
  2
Brighten
 70
    12
177
     3
291
     1
 70
    58
 90
        2
176
     1
 90
        2
176
     1
 90
        0
176
     1
 90
        0
176
     1
 40
0.6
176
     1
 40
30.0
176
     1
 62
     7
420
 16777215
176
     1
 90
        1
176
     1
 90
        4
176
     1
 62
     7
176
     1
 62
   257
176
     1
 90
        1
176
     1
 90
        1
176
     1
 40
1.0
176
     1
 90
        8
176
     1
 62
     7
176
     1
 40
1.0
176
     1
 90
        1
176
     1
 90
        6
176
     1
 90
        2
176
     1
 62
     7
176
     1
 90
        5
176
     1
 90
        0
176
     1
 90
        0
176
     1
290
     0
176
     1
 90
        1
176
     1
 40
50.0
176
     1
 90
        0
176
     1
290
     0
176
     1
290
     1
176
     1
290
     1
176
     1
290
     0
176
     1
290
     0
176
     1
290
     0
176
     1
290
     0
176
     1
290
     0
176
     1
290
     0
176
     1
 90
       50
176
     1
 40
0.0
176
     1
 40
1.0
176
     1
 90
        0
176
     1
 62
    18
420
        0
176
     1
 90
       50
176
     1
 90
        3
176
     1
 62
     5
420
      255
176
     1
290
     0
176
     1
 90
       50
176
     1
 90
       50
176
     1
 90
       50
176
     1
290
     0
176
     1
 90
       50
176
     1
 62
   256
176
     0
 40
1.0
176
     0
 90
        2
176
     1
  1
strokes_ogs.tif
176
     1
290
     0
176
     1
 40
1.0
176
     1
 40
1.0
176
     1
  0
VISUALSTYLE
  5
39
102
{ACAD_REACTORS
330
29
102
}
330
29
100
AcDbVisualStyle
  2
ColorChange
 70
    16
177
     3
291
     1
 70
    58
 90
        2
176
     1
 90
        2
176
     1
 90
        3
176
     1
 90
        0
176
     1
 40
0.6
176
     1
 40
30.0
176
     1
 62
     8
420
  8421504
176
     1
 90
        1
176
     1
 90
        4
176
     1
 62
     7
176
     1
 62
   257
176
     1
 90
        1
176
     1
 90
        1
176
     1
 40
1.0
176
     1
 90
        8
176
     1
 62
     8
420
  8421504
176
     1
 40
1.0
176
     1
 90
        1
176
     1
 90
        6
176
     1
 90
        2
176
     1
 62
     7
176
     1
 90
        5
176
     1
 90
        0
176
     1
 90
        0
176
     1
290
     0
176
     1
 90
        1
176
     1
 40
0.0
176
     1
 90
        0
176
     1
290
     0
176
     1
290
     1
176
     1
290
     1
176
     1
290
     0
176
     1
290
     0
176
     1
290
     0
176
     1
290
     0
176
     1
290
     0
176
     1
290
     0
176
     1
 90
       50
176
     1
 40
0.0
176
     1
 40
1.0
176
     1
 90
        0
176
     1
 62
    18
420
        0
176
     1
 90
       50
176
     1
 90
        3
176
     1
 62
     5
420
      255
176
     1
290
     0
176
     1
 90
       50
176
     1
 90
       50
176
     1
 90
       50
176
     1
290
     0
176
     1
 90
       50
176
     1
 62
   256
176
     0
 40
1.0
176
     0
 90
        2
176
     1
  1
strokes_ogs.tif
176
     1
290
     0
176
     1
 40
1.0
176
     1
 40
1.0
176
     1
  0
VISUALSTYLE
  5
32
102
{ACAD_REACTORS
330
29
102
}
330
29
100
AcDbVisualStyle
  2
Conceptual
 70
     9
177
     3
291
     0
 70
    58
 90
        3
176
     1
 90
        2
176
     1
 90
        0
176
     1
 90
        0
176
     1
 40
0.6
176
     1
 40
30.0
176
     1
 62
     7
420
 16777215
176
     1
 90
        2
176
     1
 90
        2
176
     1
 62
     7
176
     1
 62
   257
176
     1
 90
        1
176
     1
 90
        1
176
     1
 40
179.0
176
     1
 90
        8
176
     1
 62
     7
176
     1
 40
1.0
176
     1
 90
        1
176
     1
 90
        6
176
     1
 90
        2
176
     1
 62
     7
176
     1
 90
        3
176
     1
 90
        0
176
     1
 90
        0
176
     1
290
     0
176
     1
 90
        1
176
     1
 40
0.0
176
     1
 90
        0
176
     1
290
     0
176
     1
290
     1
176
     1
290
     1
176
     1
290
     0
176
     1
290
     0
176
     1
290
     0
176
     1
290
     0
176
     1
290
     0
176
     1
290
     0
176
     1
 90
       50
176
     1
 40
0.0
176
     1
 40
1.0
176
     1
 90
        0
176
     1
 62
    18
420
        0
176
     1
 90
       50
176
     1
 90
        3
176
     1
 62
     5
420
      255
176
     1
290
     0
176
     1
 90
       50
176
     1
 90
       50
176
     1
 90
       50
176
     1
290
     0
176
     1
 90
       50
176
     1
 62
   256
176
     0
 40
1.0
176
     0
 90
        2
176
     1
  1
strokes_ogs.tif
176
     1
290
     0
176
     1
 40
1.0
176
     1
 40
1.0
176
     1
  0
VISUALSTYLE
  5
34
102
{ACAD_REACTORS
330
29
102
}
330
29
100
AcDbVisualStyle
  2
Dim
 70
    11
177
     3
291
     1
 70
    58
 90
        2
176
     1
 90
        2
176
     1
 90
        0
176
     1
 90
        0
176
     1
 40
0.6
176
     1
 40
30.0
176
     1
 62
     7
420
 16777215
176
     1
 90
        1
176
     1
 90
        4
176
     1
 62
     7
176
     1
 62
   257
176
     1
 90
        1
176
     1
 90
        1
176
     1
 40
1.0
176
     1
 90
        8
176
     1
 62
     7
176
     1
 40
1.0
176
     1
 90
        1
176
     1
 90
        6
176
     1
 90
        2
176
     1
 62
     7
176
     1
 90
        5
176
     1
 90
        0
176
     1
 90
        0
176
     1
290
     0
176
     1
 90
        1
176
     1
 40
-50.0
176
     1
 90
        0
176
     1
290
     0
176
     1
290
     1
176
     1
290
     1
176
     1
290
     0
176
     1
290
     0
176
     1
290
     0
176
     1
290
     0
176
     1
290
     0
176
     1
290
     0
176
     1
 90
       50
176
     1
 40
0.0
176
     1
 40
1.0
176
     1
 90
        0
176
     1
 62
    18
420
        0
176
     1
 90
       50
176
     1
 90
        3
176
     1
 62
     5
420
      255
176
     1
290
     0
176
     1
 90
       50
176
     1
 90
       50
176
     1
 90
       50
176
     1
290
     0
176
     1
 90
       50
176
     1
 62
   256
176
     0
 40
1.0
176
     0
 90
        2
176
     1
  1
strokes_ogs.tif
176
     1
290
     0
176
     1
 40
1.0
176
     1
 40
1.0
176
     1
  0
VISUALSTYLE
  5
41
102
{ACAD_REACTORS
330
29
102
}
330
29
100
AcDbVisualStyle
  2
EdgeColorOff
 70
    22
177
     3
291
     1
 70
    58
 90
        2
176
     0
 90
        2
176
     0
 90
        0
176
     0
 90
        0
176
     0
 40
0.6
176
     0
 40
30.0
176
     0
 62
     7
420
 16777215
176
     0
 90
        1
176
     0
 90
        4
176
     0
 62
     7
176
     0
 62
   257
176
     0
 90
        1
176
     0
 90
        1
176
     0
 40
1.0
176
     0
 90
        8
176
     2
 62
     7
176
     0
 40
1.0
176
     0
 90
        1
176
     0
 90
        6
176
     0
 90
        2
176
     0
 62
     7
176
     0
 90
        5
176
     0
 90
        0
176
     0
 90
        0
176
     0
290
     0
176
     0
 90
        1
176
     0
 40
0.0
176
     0
 90
        0
176
     0
290
     0
176
     1
290
     1
176
     1
290
     1
176
     1
290
     0
176
     1
290
     0
176
     1
290
     0
176
     1
290
     0
176
     1
290
     0
176
     1
290
     0
176
     1
 90
       50
176
     0
 40
0.0
176
     0
 40
1.0
176
     0
 90
        0
176
     0
 62
    18
420
        0
176
     0
 90
       50
176
     0
 90
        3
176
     0
 62
     5
420
      255
176
     0
290
     0
176
     1
 90
       50
176
     0
 90
       50
176
     0
 90
       50
176
     0
290
     0
176
     1
 90
       50
176
     0
 62
   256
176
     0
 40
1.0
176
     0
 90
        2
176
     0
  1
strokes_ogs.tif
176
     0
290
     0
176
     1
 40
1.0
176
     0
 40
1.0
176
     0
  0
VISUALSTYLE
  5
38
102
{ACAD_REACTORS
330
29
102
}
330
29
100
AcDbVisualStyle
  2
Facepattern
 70
    15
177
     3
291
     1
 70
    58
 90
        2
176
     1
 90
        2
176
     1
 90
        0
176
     1
 90
        0
176
     1
 40
0.6
176
     1
 40
30.0
176
     1
 62
     7
420
 16777215
176
     1
 90
        1
176
     1
 90
        4
176
     1
 62
     7
176
     1
 62
   257
176
     1
 90
        1
176
     1
 90
        1
176
     1
 40
1.0
176
     1
 90
        8
176
     1
 62
     7
176
     1
 40
1.0
176
     1
 90
        1
176
     1
 90
        6
176
     1
 90
        2
176
     1
 62
     7
176
     1
 90
        5
176
     1
 90
        0
176
     1
 90
        0
176
     1
290
     0
176
     1
 90
        1
176
     1
 40
0.0
176
     1
 90
        0
176
     1
290
     0
176
     1
290
     1
176
     1
290
     1
176
     1
290
     0
176
     1
290
     0
176
     1
290
     0
176
     1
290
     0
176
     1
290
     0
176
     1
290
     0
176
     1
 90
       50
176
     1
 40
0.0
176
     1
 40
1.0
176
     1
 90
        0
176
     1
 62
    18
420
        0
176
     1
 90
       50
176
     1
 90
        3
176
     1
 62
     5
420
      255
176
     1
290
     0
176
     1
 90
       50
176
     1
 90
       50
176
     1
 90
       50
176
     1
290
     0
176
     1
 90
       50
176
     1
 62
   256
176
     0
 40
1.0
176
     0
 90
        2
176
     1
  1
strokes_ogs.tif
176
     1
290
     0
176
     1
 40
1.0
176
     1
 40
1.0
176
     1
  0
VISUALSTYLE
  5
2A
102
{ACAD_REACTORS
330
29
102
}
330
29
100
AcDbVisualStyle
  2
Flat
 70
     0
177
     3
291
     1
 70
    58
 90
        2
176
     1
 90
        1
176
     1
 90
        1
176
     1
 90
        2
176
     1
 40
0.6
176
     1
 40
30.0
176
     1
 62
     7
420
 16777215
176
     1
 90
        0
176
     1
 90
        0
176
     1
 62
     7
176
     1
 62
   257
176
     1
 90
        1
176
     1
 90
        1
176
     1
 40
1.0
176
     1
 90
        8
176
     1
 62
     7
176
     1
 40
1.0
176
     1
 90
        1
176
     1
 90
        6
176
     1
 90
        2
176
     1
 62
     7
176
     1
 90
        5
176
     1
 90
        0
176
     1
 90
        0
176
     1
290
     0
176
     1
 90
       13
176
     1
 40
0.0
176
     1
 90
        0
176
     1
290
     0
176
     1
290
     1
176
     1
290
     1
176
     1
290
     0
176
     1
290
     0
176
     1
290
     0
176
     1
290
     0
176
     1
290
     0
176
     1
290
     0
176
     1
 90
       50
176
     1
 40
0.0
176
     1
 40
1.0
176
     1
 90
        0
176
     1
 62
    18
420
        0
176
     1
 90
       50
176
     1
 90
        3
176
     1
 62
     5
420
      255
176
     1
290
     0
176
     1
 90
       50
176
     1
 90
       50
176
     1
 90
       50
176
     1
290
     0
176
     1
 90
       50
176
     1
 62
   256
176
     0
 40
1.0
176
     0
 90
        2
176
     1
  1
strokes_ogs.tif
176
     1
290
     0
176
     1
 40
1.0
176
     1
 40
1.0
176
     1
  0
VISUALSTYLE
  5
2B
102
{ACAD_REACTORS
330
29
102
}
330
29
100
AcDbVisualStyle
  2
FlatWithEdges
 70
     1
177
     3
291
     1
 70
    58
 90
        2
176
     1
 90
        1
176
     1
 90
        1
176
     1
 90
        2
176
     1
 40
0.6
176
     1
 40
30.0
176
     1
 62
     7
420
 16777215
176
     1
 90
        1
176
     1
 90
        0
176
     1
 62
     7
176
     1
 62
   257
176
     1
 90
        1
176
     1
 90
        1
176
     1
 40
1.0
176
     1
 90
        0
176
     1
 62
   257
176
     1
 40
1.0
176
     1
 90
        1
176
     1
 90
        6
176
     1
 90
        2
176
     1
 62
     7
176
     1
 90
        5
176
     1
 90
        0
176
     1
 90
        0
176
     1
290
     0
176
     1
 90
       13
176
     1
 40
0.0
176
     1
 90
        0
176
     1
290
     0
176
     1
290
     1
176
     1
290
     1
176
     1
290
     0
176
     1
290
     0
176
     1
290
     0
176
     1
290
     0
176
     1
290
     0
176
     1
290
     0
176
     1
 90
       50
176
     1
 40
0.0
176
     1
 40
1.0
176
     1
 90
        0
176
     1
 62
    18
420
        0
176
     1
 90
       50
176
     1
 90
        3
176
     1
 62
     5
420
      255
176
     1
290
     0
176
     1
 90
       50
176
     1
 90
       50
176
     1
 90
       50
176
     1
290
     0
176
     1
 90
       50
176
     1
 62
   256
176
     0
 40
1.0
176
     0
 90
        2
176
     1
  1
strokes_ogs.tif
176
     1
290
     0
176
     1
 40
1.0
176
     1
 40
1.0
176
     1
  0
VISUALSTYLE
  5
2C
102
{ACAD_REACTORS
330
29
102
}
330
29
100
AcDbVisualStyle
  2
Gouraud
 70
     2
177
     3
291
     1
 70
    58
 90
        2
176
     1
 90
        2
176
     1
 90
        1
176
     1
 90
        2
176
     1
 40
0.6
176
     1
 40
30.0
176
     1
 62
     7
420
 16777215
176
     1
 90
        0
176
     1
 90
        0
176
     1
 62
     7
176
     1
 62
   257
176
     1
 90
        1
176
     1
 90
        1
176
     1
 40
1.0
176
     1
 90
        0
176
     1
 62
     7
176
     1
 40
1.0
176
     1
 90
        1
176
     1
 90
        6
176
     1
 90
        2
176
     1
 62
     7
176
     1
 90
        5
176
     1
 90
        0
176
     1
 90
        0
176
     1
290
     0
176
     1
 90
       13
176
     1
 40
0.0
176
     1
 90
        0
176
     1
290
     0
176
     1
290
     1
176
     1
290
     1
176
     1
290
     0
176
     1
290
     0
176
     1
290
     0
176
     1
290
     0
176
     1
290
     0
176
     1
290
     0
176
     1
 90
       50
176
     1
 40
0.0
176
     1
 40
1.0
176
     1
 90
        0
176
     1
 62
    18
420
        0
176
     1
 90
       50
176
     1
 90
        3
176
     1
 62
     5
420
      255
176
     1
290
     0
176
     1
 90
       50
176
     1
 90
       50
176
     1
 90
       50
176
     1
290
     0
176
     1
 90
       50
176
     1
 62
   256
176
     0
 40
1.0
176
     0
 90
        2
176
     1
  1
strokes_ogs.tif
176
     1
290
     0
176
     1
 40
1.0
176
     1
 40
1.0
176
     1
  0
VISUALSTYLE
  5
2D
102
{ACAD_REACTORS
330
29
102
}
330
29
100
AcDbVisualStyle
  2
GouraudWithEdges
 70
     3
177
     3
291
     1
 70
    58
 90
        2
176
     1
 90
        2
176
     1
 90
        1
176
     1
 90
        2
176
     1
 40
0.6
176
     1
 40
30.0
176
     1
 62
     7
420
 16777215
176
     1
 90
        1
176
     1
 90
        0
176
     1
 62
     7
176
     1
 62
   257
176
     1
 90
        1
176
     1
 90
        1
176
     1
 40
1.0
176
     1
 90
        0
176
     1
 62
   257
176
     1
 40
1.0
176
     1
 90
        1
176
     1
 90
        6
176
     1
 90
        2
176
     1
 62
     7
176
     1
 90
        5
176
     1
 90
        0
176
     1
 90
        0
176
     1
290
     0
176
     1
 90
       13
176
     1
 40
0.0
176
     1
 90
        0
176
     1
290
     0
176
     1
290
     1
176
     1
290
     1
176
     1
290
     0
176
     1
290
     0
176
     1
290
     0
176
     1
290
     0
176
     1
290
     0
176
     1
290
     0
176
     1
 90
       50
176
     1
 40
0.0
176
     1
 40
1.0
176
     1
 90
        0
176
     1
 62
    18
420
        0
176
     1
 90
       50
176
     1
 90
        3
176
     1
 62
     5
420
      255
176
     1
290
     0
176
     1
 90
       50
176
     1
 90
       50
176
     1
 90
       50
176
     1
290
     0
176
     1
 90
       50
176
     1
 62
   256
176
     0
 40
1.0
176
     0
 90
        2
176
     1
  1
strokes_ogs.tif
176
     1
290
     0
176
     1
 40
1.0
176
     1
 40
1.0
176
     1
  0
VISUALSTYLE
  5
31
102
{ACAD_REACTORS
330
29
102
}
330
29
100
AcDbVisualStyle
  2
Hidden
 70
     6
177
     3
291
     0
 70
    58
 90
        1
176
     1
 90
        2
176
     1
 90
        2
176
     1
 90
        0
176
     1
 40
0.6
176
     1
 40
30.0
176
     1
 62
     7
420
 16777215
176
     1
 90
        2
176
     1
 90
        2
176
     1
 62
     7
176
     1
 62
   257
176
     1
 90
        2
176
     1
 90
        1
176
     1
 40
40.0
176
     1
 90
        0
176
     1
 62
   257
176
     1
 40
1.0
176
     1
 90
        1
176
     1
 90
        6
176
     1
 90
        2
176
     1
 62
     7
176
     1
 90
        3
176
     1
 90
        0
176
     1
 90
        0
176
     1
290
     0
176
     1
 90
        1
176
     1
 40
0.0
176
     1
 90
        0
176
     1
290
     0
176
     1
290
     1
176
     1
290
     1
176
     1
290
     0
176
     1
290
     0
176
     1
290
     0
176
     1
290
     0
176
     1
290
     0
176
     1
290
     0
176
     1
 90
       50
176
     1
 40
0.0
176
     1
 40
1.0
176
     1
 90
        0
176
     1
 62
    18
420
        0
176
     1
 90
       50
176
     1
 90
        3
176
     1
 62
     5
420
      255
176
     1
290
     0
176
     1
 90
       50
176
     1
 90
       50
176
     1
 90
       50
176
     1
290
     0
176
     1
 90
       50
176
     1
 62
   256
176
     0
 40
1.0
176
     0
 90
        2
176
     1
  1
strokes_ogs.tif
176
     1
290
     0
176
     1
 40
1.0
176
     1
 40
1.0
176
     1
  0
VISUALSTYLE
  5
3F
102
{ACAD_REACTORS
330
29
102
}
330
29
100
AcDbVisualStyle
  2
JitterOff
 70
    20
177
     3
291
     1
 70
    58
 90
        2
176
     0
 90
        2
176
     0
 90
        0
176
     0
 90
        0
176
     0
 40
0.6
176
     0
 40
30.0
176
     0
 62
     7
420
 16777215
176
     0
 90
        1
176
     0
 90
        4
176
     0
 62
     7
176
     0
 62
   257
176
     0
 90
        1
176
     0
 90
        1
176
     0
 40
1.0
176
     0
 90
       10
176
     2
 62
     7
176
     0
 40
1.0
176
     0
 90
        1
176
     0
 90
        6
176
     0
 90
        2
176
     0
 62
     7
176
     0
 90
        5
176
     0
 90
        0
176
     0
 90
        0
176
     0
290
     0
176
     0
 90
        1
176
     0
 40
0.0
176
     0
 90
        0
176
     0
290
     0
176
     1
290
     1
176
     1
290
     1
176
     1
290
     0
176
     1
290
     0
176
     1
290
     0
176
     1
290
     0
176
     1
290
     0
176
     1
290
     0
176
     1
 90
       50
176
     0
 40
0.0
176
     0
 40
1.0
176
     0
 90
        0
176
     0
 62
    18
420
        0
176
     0
 90
       50
176
     0
 90
        3
176
     0
 62
     5
420
      255
176
     0
290
     0
176
     1
 90
       50
176
     0
 90
       50
176
     0
 90
       50
176
     0
290
     0
176
     1
 90
       50
176
     0
 62
   256
176
     0
 40
1.0
176
     0
 90
        2
176
     0
  1
strokes_ogs.tif
176
     0
290
     0
176
     1
 40
1.0
176
     0
 40
1.0
176
     0
  0
VISUALSTYLE
  5
37
102
{ACAD_REACTORS
330
29
102
}
330
29
100
AcDbVisualStyle
  2
Linepattern
 70
    14
177
     3
291
     1
 70
    58
 90
        2
176
     1
 90
        2
176
     1
 90
        0
176
     1
 90
        0
176
     1
 40
0.6
176
     1
 40
30.0
176
     1
 62
     7
420
 16777215
176
     1
 90
        1
176
     1
 90
        4
176
     1
 62
     7
176
     1
 62
   257
176
     1
 90
        7
176
     1
 90
        7
176
     1
 40
1.0
176
     1
 90
        8
176
     1
 62
     7
176
     1
 40
1.0
176
     1
 90
        1
176
     1
 90
        6
176
     1
 90
        2
176
     1
 62
     7
176
     1
 90
        5
176
     1
 90
        0
176
     1
 90
        0
176
     1
290
     0
176
     1
 90
        1
176
     1
 40
0.0
176
     1
 90
        0
176
     1
290
     0
176
     1
290
     1
176
     1
290
     1
176
     1
290
     0
176
     1
290
     0
176
     1
290
     0
176
     1
290
     0
176
     1
290
     0
176
     1
290
     0
176
     1
 90
       50
176
     1
 40
0.0
176
     1
 40
1.0
176
     1
 90
        0
176
     1
 62
    18
420
        0
176
     1
 90
       50
176
     1
 90
        3
176
     1
 62
     5
420
      255
176
     1
290
     0
176
     1
 90
       50
176
     1
 90
       50
176
     1
 90
       50
176
     1
290
     0
176
     1
 90
       50
176
     1
 62
   256
176
     0
 40
1.0
176
     0
 90
        2
176
     1
  1
strokes_ogs.tif
176
     1
290
     0
176
     1
 40
1.0
176
     1
 40
1.0
176
     1
  0
VISUALSTYLE
  5
40
102
{ACAD_REACTORS
330
29
102
}
330
29
100
AcDbVisualStyle
  2
OverhangOff
 70
    21
177
     3
291
     1
 70
    58
 90
        2
176
     0
 90
        2
176
     0
 90
        0
176
     0
 90
        0
176
     0
 40
0.6
176
     0
 40
30.0
176
     0
 62
     7
420
 16777215
176
     0
 90
        1
176
     0
 90
        4
176
     0
 62
     7
176
     0
 62
   257
176
     0
 90
        1
176
     0
 90
        1
176
     0
 40
1.0
176
     0
 90
        9
176
     2
 62
     7
176
     0
 40
1.0
176
     0
 90
        1
176
     0
 90
        6
176
     0
 90
        2
176
     0
 62
     7
176
     0
 90
        5
176
     0
 90
        0
176
     0
 90
        0
176
     0
290
     0
176
     0
 90
        1
176
     0
 40
0.0
176
     0
 90
        0
176
     0
290
     0
176
     1
290
     1
176
     1
290
     1
176
     1
290
     0
176
     1
290
     0
176
     1
290
     0
176
     1
290
     0
176
     1
290
     0
176
     1
290
     0
176
     1
 90
       50
176
     0
 40
0.0
176
     0
 40
1.0
176
     0
 90
        0
176
     0
 62
    18
420
        0
176
     0
 90
       50
176
     0
 90
        3
176
     0
 62
     5
420
      255
176
     0
290
     0
176
     1
 90
       50
176
     0
 90
       50
176
     0
 90
       50
176
     0
290
     0
176
     1
 90
       50
176
     0
 62
   256
176
     0
 40
1.0
176
     0
 90
        2
176
     0
  1
strokes_ogs.tif
176
     0
290
     0
176
     1
 40
1.0
176
     0
 40
1.0
176
     0
  0
VISUALSTYLE
  5
33
102
{ACAD_REACTORS
330
29
102
}
330
29
100
AcDbVisualStyle
  2
Realistic
 70
     8
177
     3
291
     0
 70
    58
 90
        2
176
     1
 90
        3
176
     1
 90
        0
176
     1
 90
        2
176
     1
 40
0.6
176
     1
 40
30.0
176
     1
 62
     7
420
 16777215
176
     1
 90
        0
176
     1
 90
        0
176
     1
 62
     7
176
     1
 62
   257
176
     1
 90
        1
176
     1
 90
        1
176
     1
 40
1.0
176
     1
 90
        8
176
     1
 62
   257
176
     1
 40
1.0
176
     1
 90
        1
176
     1
 90
        6
176
     1
 90
        2
176
     1
 62
     7
176
     1
 90
        3
176
     1
 90
        0
176
     1
 90
        0
176
     1
290
     0
176
     1
 90
       13
176
     1
 40
0.0
176
     1
 90
        0
176
     1
290
     0
176
     1
290
     1
176
     1
290
     1
176
     1
290
     0
176
     1
290
     0
176
     1
290
     0
176
     1
290
     0
176
     1
290
     0
176
     1
290
     0
176
     1
 90
       50
176
     1
 40
0.0
176
     1
 40
1.0
176
     1
 90
        0
176
     1
 62
    18
420
        0
176
     1
 90
       50
176
     1
 90
        3
176
     1
 62
     5
420
      255
176
     1
290
     0
176
     1
 90
       50
176
     1
 90
       50
176
     1
 90
       50
176
     1
290
     0
176
     1
 90
       50
176
     1
 62
   256
176
     0
 40
1.0
176
     0
 90
        2
176
     1
  1
strokes_ogs.tif
176
     1
290
     0
176
     1
 40
1.0
176
     1
 40
1.0
176
     1
  0
VISUALSTYLE
  5
3E
102
{ACAD_REACTORS
330
29
102
}
330
29
100
AcDbVisualStyle
  2
Shaded
 70
    27
177
     3
291
     0
 70
    58
 90
        2
176
     1
 90
        2
176
     1
 90
        1
176
     1
 90
        2
176
     1
 40
0.6
176
     1
 40
30.0
176
     1
 62
     7
420
 16777215
176
     1
 90
        0
176
     1
 90
        4
176
     1
 62
     7
176
     1
 62
   257
176
     1
 90
        1
176
     1
 90
        1
176
     1
 40
1.0
176
     1
 90
        8
176
     1
 62
   257
176
     1
 40
1.0
176
     1
 90
        1
176
     1
 90
        6
176
     1
 90
        2
176
     1
 62
     8
420
  7895160
176
     1
 90
        3
176
     1
 90
        0
176
     1
 90
        0
176
     1
290
     0
176
     1
 90
        5
176
     1
 40
0.0
176
     1
 90
        0
176
     1
290
     0
176
     1
290
     1
176
     1
290
     1
176
     1
290
     0
176
     1
290
     0
176
     1
290
     0
176
     1
290
     0
176
     1
290
     0
176
     1
290
     0
176
     1
 90
       50
176
     1
 40
0.0
176
     1
 40
1.0
176
     1
 90
        0
176
     1
 62
    18
420
        0
176
     1
 90
       50
176
     1
 90
        3
176
     1
 62
     5
420
      255
176
     1
290
     0
176
     1
 90
       50
176
     1
 90
       50
176
     1
 90
       50
176
     1
290
     0
176
     1
 90
       50
176
     1
 62
   256
176
     0
 40
1.0
176
     0
 90
        2
176
     1
  1
strokes_ogs.tif
176
     1
290
     0
176
     1
 40
1.0
176
     1
 40
1.0
176
     1
  0
VISUALSTYLE
  5
3D
102
{ACAD_REACTORS
330
29
102
}
330
29
100
AcDbVisualStyle
  2
Shaded with edges
 70
    26
177
     3
291
     0
 70
    58
 90
        2
176
     1
 90
        2
176
     1
 90
        1
176
     1
 90
        2
176
     1
 40
0.6
176
     1
 40
30.0
176
     1
 62
     7
420
 16777215
176
     1
 90
        1
176
     1
 90
       10
176
     1
 62
     7
176
     1
 62
   257
176
     1
 90
        2
176
     1
 90
        1
176
     1
 40
1.0
176
     1
 90
        8
176
     1
 62
   257
176
     1
 40
1.0
176
     1
 90
        1
176
     1
 90
        6
176
     1
 90
        2
176
     1
 62
     7
176
     1
 90
        3
176
     1
 90
        0
176
     1
 90
        0
176
     1
290
     0
176
     1
 90
        5
176
     1
 40
0.0
176
     1
 90
        0
176
     1
290
     0
176
     1
290
     1
176
     1
290
     1
176
     1
290
     0
176
     1
290
     0
176
     1
290
     0
176
     1
290
     0
176
     1
290
     0
176
     1
290
     0
176
     1
 90
       50
176
     1
 40
0.0
176
     1
 40
1.0
176
     1
 90
        0
176
     1
 62
    18
420
        0
176
     1
 90
       50
176
     1
 90
        3
176
     1
 62
     5
420
      255
176
     1
290
     0
176
     1
 90
       50
176
     1
 90
       50
176
     1
 90
       50
176
     1
290
     0
176
     1
 90
       50
176
     1
 62
   256
176
     0
 40
1.0
176
     0
 90
        2
176
     1
  1
strokes_ogs.tif
176
     1
290
     0
176
     1
 40
1.0
176
     1
 40
1.0
176
     1
  0
VISUALSTYLE
  5
3A
102
{ACAD_REACTORS
330
29
102
}
330
29
100
AcDbVisualStyle
  2
Shades of Gray
 70
    23
177
     3
291
     0
 70
    58
 90
        2
176
     1
 90
        2
176
     1
 90
        3
176
     1
 90
        0
176
     1
 40
0.6
176
     1
 40
30.0
176
     1
 62
     7
420
 16777215
176
     1
 90
        2
176
     1
 90
        2
176
     1
 62
     7
176
     1
 62
     7
176
     1
 90
        1
176
     1
 90
        1
176
     1
 40
40.0
176
     1
 90
        8
176
     1
 62
     7
176
     1
 40
1.0
176
     1
 90
        1
176
     1
 90
        6
176
     1
 90
        2
176
     1
 62
     7
176
     1
 90
        3
176
     1
 90
        0
176
     1
 90
        0
176
     1
290
     0
176
     1
 90
        1
176
     1
 40
0.0
176
     1
 90
        0
176
     1
290
     0
176
     1
290
     1
176
     1
290
     1
176
     1
290
     0
176
     1
290
     0
176
     1
290
     0
176
     1
290
     0
176
     1
290
     0
176
     1
290
     0
176
     1
 90
       50
176
     1
 40
0.0
176
     1
 40
1.0
176
     1
 90
        0
176
     1
 62
    18
420
        0
176
     1
 90
       50
176
     1
 90
        3
176
     1
 62
     5
420
      255
176
     1
290
     0
176
     1
 90
       50
176
     1
 90
       50
176
     1
 90
       50
176
     1
290
     0
176
     1
 90
       50
176
     1
 62
   256
176
     0
 40
1.0
176
     0
 90
        2
176
     1
  1
strokes_ogs.tif
176
     1
290
     0
176
     1
 40
1.0
176
     1
 40
1.0
176
     1
  0
VISUALSTYLE
  5
3B
102
{ACAD_REACTORS
330
29
102
}
330
29
100
AcDbVisualStyle
  2
Sketchy
 70
    24
177
     3
291
     0
 70
    58
 90
        1
176
     1
 90
        2
176
     1
 90
        2
176
     1
 90
        0
176
     1
 40
0.6
176
     1
 40
30.0
176
     1
 62
     7
420
 16777215
176
     1
 90
        2
176
     1
 90
        2
176
     1
 62
     7
176
     1
 62
     7
176
     1
 90
        1
176
     1
 90
        1
176
     1
 40
40.0
176
     1
 90
       11
176
     1
 62
     7
176
     1
 40
1.0
176
     1
 90
        1
176
     1
 90
        6
176
     1
 90
        2
176
     1
 62
     7
176
     1
 90
        6
176
     1
 90
        0
176
     1
 90
        0
176
     1
290
     0
176
     1
 90
        1
176
     1
 40
0.0
176
     1
 90
        0
176
     1
290
     0
176
     1
290
     1
176
     1
290
     1
176
     1
290
     0
176
     1
290
     0
176
     1
290
     0
176
     1
290
     0
176
     1
290
     0
176
     1
290
     0
176
     1
 90
       50
176
     1
 40
0.0
176
     1
 40
1.0
176
     1
 90
        0
176
     1
 62
    18
420
        0
176
     1
 90
       50
176
     1
 90
        3
176
     1
 62
     5
420
      255
176
     1
290
     0
176
     1
 90
       50
176
     1
 90
       50
176
     1
 90
       50
176
     1
290
     0
176
     1
 90
       50
176
     1
 62
   256
176
     0
 40
1.0
176
     0
 90
        2
176
     1
  1
strokes_ogs.tif
176
     1
290
     0
176
     1
 40
1.0
176
     1
 40
1.0
176
     1
  0
VISUALSTYLE
  5
36
102
{ACAD_REACTORS
330
29
102
}
330
29
100
AcDbVisualStyle
  2
Thicken
 70
    13
177
     3
291
     1
 70
    58
 90
        2
176
     1
 90
        2
176
     1
 90
        0
176
     1
 90
        0
176
     1
 40
0.6
176
     1
 40
30.0
176
     1
 62
     7
420
 16777215
176
     1
 90
        1
176
     1
 90
        4
176
     1
 62
     7
176
     1
 62
   257
176
     1
 90
        1
176
     1
 90
        1
176
     1
 40
1.0
176
     1
 90
       12
176
     1
 62
     7
176
     1
 40
1.0
176
     1
 90
        1
176
     1
 90
        6
176
     1
 90
        2
176
     1
 62
     7
176
     1
 90
        5
176
     1
 90
        0
176
     1
 90
        0
176
     1
290
     0
176
     1
 90
        1
176
     1
 40
0.0
176
     1
 90
        0
176
     1
290
     0
176
     1
290
     1
176
     1
290
     1
176
     1
290
     0
176
     1
290
     0
176
     1
290
     0
176
     1
290
     0
176
     1
290
     0
176
     1
290
     0
176
     1
 90
       50
176
     1
 40
0.0
176
     1
 40
1.0
176
     1
 90
        0
176
     1
 62
    18
420
        0
176
     1
 90
       50
176
     1
 90
        3
176
     1
 62
     5
420
      255
176
     1
290
     0
176
     1
 90
       50
176
     1
 90
       50
176
     1
 90
       50
176
     1
290
     0
176
     1
 90
       50
176
     1
 62
   256
176
     0
 40
1.0
176
     0
 90
        2
176
     1
  1
strokes_ogs.tif
176
     1
290
     0
176
     1
 40
1.0
176
     1
 40
1.0
176
     1
  0
VISUALSTYLE
  5
30
102
{ACAD_REACTORS
330
29
102
}
330
29
100
AcDbVisualStyle
  2
Wireframe
 70
     5
177
     3
291
     0
 70
    58
 90
        0
176
     1
 90
        2
176
     1
 90
        0
176
     1
 90
        0
176
     1
 40
0.6
176
     1
 40
30.0
176
     1
 62
     7
420
 16777215
176
     1
 90
        1
176
     1
 90
        4
176
     1
 62
     7
176
     1
 62
   257
176
     1
 90
        1
176
     1
 90
        1
176
     1
 40
1.0
176
     1
 90
        0
176
     1
 62
   257
176
     1
 40
1.0
176
     1
 90
        1
176
     1
 90
        6
176
     1
 90
        2
176
     1
 62
     7
176
     1
 90
        3
176
     1
 90
        0
176
     1
 90
        0
176
     1
290
     0
176
     1
 90
        1
176
     1
 40
0.0
176
     1
 90
        0
176
     1
290
     0
176
     1
290
     1
176
     1
290
     1
176
     1
290
     0
176
     1
290
     0
176
     1
290
     0
176
     1
290
     0
176
     1
290
     0
176
     1
290
     0
176
     1
 90
       50
176
     1
 40
0.0
176
     1
 40
1.0
176
     1
 90
        0
176
     1
 62
    18
420
        0
176
     1
 90
       50
176
     1
 90
        3
176
     1
 62
     5
420
      255
176
     1
290
     0
176
     1
 90
       50
176
     1
 90
       50
176
     1
 90
       50
176
     1
290
     0
176
     1
 90
       50
176
     1
 62
   256
176
     0
 40
1.0
176
     0
 90
        2
176
     1
  1
strokes_ogs.tif
176
     1
290
     0
176
     1
 40
1.0
176
     1
 40
1.0
176
     1
  0
VISUALSTYLE
  5
3C
102
{ACAD_REACTORS
330
29
102
}
330
29
100
AcDbVisualStyle
  2
X-Ray
 70
    25
177
     3
291
     0
 70
    58
 90
        2
176
     1
 90
        2
176
     1
 90
        1
176
     1
 90
        1
176
     1
 40
0.5
176
     1
 40
30.0
176
     1
 62
     7
420
 16777215
176
     1
 90
        1
176
     1
 90
        0
176
     1
 62
     7
176
     1
 62
   257
176
     1
 90
        1
176
     1
 90
        1
176
     1
 40
1.0
176
     1
 90
        8
176
     1
 62
     7
176
     1
 40
1.0
176
     1
 90
        1
176
     1
 90
        6
176
     1
 90
        2
176
     1
 62
     7
176
     1
 90
        3
176
     1
 90
        0
176
     1
 90
        0
176
     1
290
     0
176
     1
 90
       13
176
     1
 40
0.0
176
     1
 90
        0
176
     1
290
     0
176
     1
290
     1
176
     1
290
     1
176
     1
290
     0
176
     1
290
     0
176
     1
290
     0
176
     1
290
     0
176
     1
290
     0
176
     1
290
     0
176
     1
 90
       50
176
     1
 40
0.0
176
     1
 40
1.0
176
     1
 90
        0
176
     1
 62
    18
420
        0
176
     1
 90
       50
176
     1
 90
        3
176
     1
 62
     5
420
      255
176
     1
290
     0
176
     1
 90
       50
176
     1
 90
       50
176
     1
 90
       50
176
     1
290
     0
176
     1
 90
       50
176
     1
 62
   256
176
     0
 40
1.0
176
     0
 90
        2
176
     1
  1
strokes_ogs.tif
176
     1
290
     0
176
     1
 40
1.0
176
     1
 40
1.0
176
     1
  0
DICTIONARYVAR
  5
5E0
102
{ACAD_REACTORS
330
5DA
102
}
330
5DA
100
DictionaryVariables
280
     0
  1
1:1
  0
DICTIONARYVAR
  5
5DC
102
{ACAD_REACTORS
330
5DA
102
}
330
5DA
100
DictionaryVariables
280
     0
  1
STANDARD
  0
DICTIONARYVAR
  5
5DB
102
{ACAD_REACTORS
330
5DA
102
}
330
5DA
100
DictionaryVariables
280
     0
  1
STANDARD
  0
DICTIONARYVAR
  5
5DD
102
{ACAD_REACTORS
330
5DA
102
}
330
5DA
100
DictionaryVariables
280
     0
  1
Imperial24
  0
DICTIONARYVAR
  5
5DE
102
{ACAD_REACTORS
330
5DA
102
}
330
5DA
100
DictionaryVariables
280
     0
  1
Imperial24
  0
DICTIONARYVAR
  5
5E2
102
{ACAD_REACTORS
330
5DA
102
}
330
5DA
100
DictionaryVariables
280
     0
  1
1
  0
DICTIONARYVAR
  5
5E3
102
{ACAD_REACTORS
330
5DA
102
}
330
5DA
100
DictionaryVariables
280
     0
  1
15
  0
DICTIONARYVAR
  5
5E1
102
{ACAD_REACTORS
330
5DA
102
}
330
5DA
100
DictionaryVariables
280
     0
  1
0
  0
DICTIONARYVAR
  5
5DF
102
{ACAD_REACTORS
330
5DA
102
}
330
5DA
100
DictionaryVariables
280
     0
  1
0
  0
DICTIONARY
  5
1A
330
19
100
AcDbDictionary
280
     1
281
     1
  3
BUMPTILE
360
1C
  3
DIFFUSETILE
360
1B
  3
OPACITYTILE
360
1F
  3
REFLECTIONTILE
360
1E
  3
REFRACTIONTILE
360
20
  3
SPECULARTILE
360
1D
  0
DICTIONARY
  5
12
330
11
100
AcDbDictionary
280
     1
281
     1
  3
BUMPTILE
360
14
  3
DIFFUSETILE
360
13
  3
OPACITYTILE
360
17
  3
REFLECTIONTILE
360
16
  3
REFRACTIONTILE
360
18
  3
SPECULARTILE
360
15
  0
DICTIONARY
  5
22
330
21
100
AcDbDictionary
280
     1
281
     1
  3
BUMPTILE
360
24
  3
DIFFUSETILE
360
23
  3
OPACITYTILE
360
27
  3
REFLECTIONTILE
360
26
  3
REFRACTIONTILE
360
28
  3
SPECULARTILE
360
25
  0
DICTIONARY
  5
5E4
330
64
100
AcDbDictionary
280
     1
281
     1
  3
ACAD_ROUNDTRIP_2008_TABLESTYLE_CELLSTYLEMAP
360
5E5
  0
XRECORD
  5
1C
102
{ACAD_REACTORS
330
1A
102
}
330
1A
100
AcDbXrecord
280
     1
270
     1
271
     1
  0
XRECORD
  5
1B
102
{ACAD_REACTORS
330
1A
102
}
330
1A
100
AcDbXrecord
280
     1
270
     1
271
     1
  0
XRECORD
  5
1F
102
{ACAD_REACTORS
330
1A
102
}
330
1A
100
AcDbXrecord
280
     1
270
     1
271
     1
  0
XRECORD
  5
1E
102
{ACAD_REACTORS
330
1A
102
}
330
1A
100
AcDbXrecord
280
     1
270
     1
271
     1
  0
XRECORD
  5
20
102
{ACAD_REACTORS
330
1A
102
}
330
1A
100
AcDbXrecord
280
     1
270
     1
271
     1
  0
XRECORD
  5
1D
102
{ACAD_REACTORS
330
1A
102
}
330
1A
100
AcDbXrecord
280
     1
270
     1
271
     1
  0
XRECORD
  5
14
102
{ACAD_REACTORS
330
12
102
}
330
12
100
AcDbXrecord
280
     1
270
     1
271
     1
  0
XRECORD
  5
13
102
{ACAD_REACTORS
330
12
102
}
330
12
100
AcDbXrecord
280
     1
270
     1
271
     1
  0
XRECORD
  5
17
102
{ACAD_REACTORS
330
12
102
}
330
12
100
AcDbXrecord
280
     1
270
     1
271
     1
  0
XRECORD
  5
16
102
{ACAD_REACTORS
330
12
102
}
330
12
100
AcDbXrecord
280
     1
270
     1
271
     1
  0
XRECORD
  5
18
102
{ACAD_REACTORS
330
12
102
}
330
12
100
AcDbXrecord
280
     1
270
     1
271
     1
  0
XRECORD
  5
15
102
{ACAD_REACTORS
330
12
102
}
330
12
100
AcDbXrecord
280
     1
270
     1
271
     1
  0
XRECORD
  5
24
102
{ACAD_REACTORS
330
22
102
}
330
22
100
AcDbXrecord
280
     1
270
     1
271
     1
  0
XRECORD
  5
23
102
{ACAD_REACTORS
330
22
102
}
330
22
100
AcDbXrecord
280
     1
270
     1
271
     1
  0
XRECORD
  5
27
102
{ACAD_REACTORS
330
22
102
}
330
22
100
AcDbXrecord
280
     1
270
     1
271
     1
  0
XRECORD
  5
26
102
{ACAD_REACTORS
330
22
102
}
330
22
100
AcDbXrecord
280
     1
270
     1
271
     1
  0
XRECORD
  5
28
102
{ACAD_REACTORS
330
22
102
}
330
22
100
AcDbXrecord
280
     1
270
     1
271
     1
  0
XRECORD
  5
25
102
{ACAD_REACTORS
330
22
102
}
330
22
100
AcDbXrecord
280
     1
270
     1
271
     1
  0
CELLSTYLEMAP
  5
5E5
102
{ACAD_REACTORS
330
5E4
102
}
330
5E4
100
AcDbCellStyleMap
 90
        3
300
CELLSTYLE
  1
TABLEFORMAT_BEGIN
 90
        5
170
     1
 91
        0
 92
    32768
 62
   257
 93
        1
300
CONTENTFORMAT
  1
CONTENTFORMAT_BEGIN
 90
        0
 91
        0
 92
      512
 93
        0
300

 40
0.0
140
1.0
 94
        5
 62
     0
340
55
144
0.25
309
CONTENTFORMAT_END
171
     0
 94
        0
309
TABLEFORMAT_END
  1
CELLSTYLE_BEGIN
 90
        1
 91
        1
300
_TITLE
309
CELLSTYLE_END
300
CELLSTYLE
  1
TABLEFORMAT_BEGIN
 90
        5
170
     1
 91
        0
 92
        0
 62
   257
 93
        1
300
CONTENTFORMAT
  1
CONTENTFORMAT_BEGIN
 90
        0
 91
        0
 92
      512
 93
        0
300

 40
0.0
140
1.0
 94
        5
 62
     0
340
55
144
0.18
309
CONTENTFORMAT_END
171
     0
 94
        0
309
TABLEFORMAT_END
  1
CELLSTYLE_BEGIN
 90
        2
 91
        1
300
_HEADER
309
CELLSTYLE_END
300
CELLSTYLE
  1
TABLEFORMAT_BEGIN
 90
        5
170
     1
 91
        0
 92
        0
 62
   257
 93
        1
300
CONTENTFORMAT
  1
CONTENTFORMAT_BEGIN
 90
        0
 91
        0
 92
      512
 93
        0
300

 40
0.0
140
1.0
 94
        2
 62
     0
340
55
144
0.18
309
CONTENTFORMAT_END
171
     0
 94
        0
309
TABLEFORMAT_END
  1
CELLSTYLE_BEGIN
 90
        3
 91
        2
300
_DATA
309
CELLSTYLE_END
  0
ENDSEC
  0
EOF
