  0
SECTION
  2
HEADER
  9
$ACADVER
  1
AC1027
  9
$ACADMAINTVER
 70
     8
  9
$DWGCODEPAGE
  3
ANSI_1252
  9
$LASTSAVEDBY
  1
Amelia
  9
$REQUIREDVERSIONS
160
                 0
  9
$INSBASE
 10
0.0
 20
0.0
 30
0.0
  9
$EXTMIN
 10
-41.9999257
 20
-41.9999257
 30
0.0
  9
$EXTMAX
 10
41.9999257
 20
41.9999257
 30
0.0
  9
$LIMMIN
 10
0.0
 20
0.0
  9
$LIMMAX
 10
12.0
 20
9.0
  9
$ORTHOMODE
 70
     0
  9
$REGENMODE
 70
     1
  9
$FILLMODE
 70
     1
  9
$QTEXTMODE
 70
     0
  9
$MIRRTEXT
 70
     0
  9
$LTSCALE
 40
1.0
  9
$ATTMODE
 70
     1
  9
$TEXTSIZE
 40
0.2
  9
$TRACEWID
 40
0.05
  9
$TEXTSTYLE
  7
Standard
  9
$CLAYER
  8
0
  9
$CELTYPE
  6
Continuous
  9
$CECOLOR
 62
   256
  9
$CELTSCALE
 40
1.0
  9
$DISPSILH
 70
     0
  9
$DIMSCALE
 40
1.0
  9
$DIMASZ
 40
0.18
  9
$DIMEXO
 40
0.0625
  9
$DIMDLI
 40
0.38
  9
$DIMRND
 40
0.0
  9
$DIMDLE
 40
0.0
  9
$DIMEXE
 40
0.18
  9
$DIMTP
 40
0.0
  9
$DIMTM
 40
0.0
  9
$DIMTXT
 40
0.18
  9
$DIMCEN
 40
0.09
  9
$DIMTSZ
 40
0.0
  9
$DIMTOL
 70
     0
  9
$DIMLIM
 70
     0
  9
$DIMTIH
 70
     1
  9
$DIMTOH
 70
     1
  9
$DIMSE1
 70
     0
  9
$DIMSE2
 70
     0
  9
$DIMTAD
 70
     0
  9
$DIMZIN
 70
     0
  9
$DIMBLK
  1

  9
$DIMASO
 70
     1
  9
$DIMSHO
 70
     1
  9
$DIMPOST
  1

  9
$DIMAPOST
  1

  9
$DIMALT
 70
     0
  9
$DIMALTD
 70
     2
  9
$DIMALTF
 40
25.4
  9
$DIMLFAC
 40
1.0
  9
$DIMTOFL
 70
     0
  9
$DIMTVP
 40
0.0
  9
$DIMTIX
 70
     0
  9
$DIMSOXD
 70
     0
  9
$DIMSAH
 70
     0
  9
$DIMBLK1
  1

  9
$DIMBLK2
  1

  9
$DIMSTYLE
  2
Standard
  9
$DIMCLRD
 70
     0
  9
$DIMCLRE
 70
     0
  9
$DIMCLRT
 70
     0
  9
$DIMTFAC
 40
1.0
  9
$DIMGAP
 40
0.09
  9
$DIMJUST
 70
     0
  9
$DIMSD1
 70
     0
  9
$DIMSD2
 70
     0
  9
$DIMTOLJ
 70
     1
  9
$DIMTZIN
 70
     0
  9
$DIMALTZ
 70
     0
  9
$DIMALTTZ
 70
     0
  9
$DIMUPT
 70
     0
  9
$DIMDEC
 70
     4
  9
$DIMTDEC
 70
     4
  9
$DIMALTU
 70
     2
  9
$DIMALTTD
 70
     2
  9
$DIMTXSTY
  7
Standard
  9
$DIMAUNIT
 70
     0
  9
$DIMADEC
 70
     0
  9
$DIMALTRND
 40
0.0
  9
$DIMAZIN
 70
     0
  9
$DIMDSEP
 70
    46
  9
$DIMATFIT
 70
     3
  9
$DIMFRAC
 70
     0
  9
$DIMLDRBLK
  1

  9
$DIMLUNIT
 70
     2
  9
$DIMLWD
 70
    -2
  9
$DIMLWE
 70
    -2
  9
$DIMTMOVE
 70
     0
  9
$DIMFXL
 40
1.0
  9
$DIMFXLON
 70
     0
  9
$DIMJOGANG
 40
0.7853981633974483
  9
$DIMTFILL
 70
     0
  9
$DIMTFILLCLR
 70
     0
  9
$DIMARCSYM
 70
     0
  9
$DIMLTYPE
  6

  9
$DIMLTEX1
  6

  9
$DIMLTEX2
  6

  9
$DIMTXTDIRECTION
 70
     0
  9
$LUNITS
 70
     2
  9
$LUPREC
 70
     4
  9
$SKETCHINC
 40
0.1
  9
$FILLETRAD
 40
0.0
  9
$AUNITS
 70
     0
  9
$AUPREC
 70
     0
  9
$MENU
  1
.
  9
$ELEVATION
 40
0.0
  9
$PELEVATION
 40
0.0
  9
$THICKNESS
 40
0.0
  9
$LIMCHECK
 70
     0
  9
$CHAMFERA
 40
0.0
  9
$CHAMFERB
 40
0.0
  9
$CHAMFERC
 40
0.0
  9
$CHAMFERD
 40
0.0
  9
$SKPOLY
 70
     0
  9
$TDCREATE
 40
2456558.974513403
  9
$TDUCREATE
 40
2456558.557846737
  9
$TDUPDATE
 40
2456558.975504120
  9
$TDUUPDATE
 40
2456558.558837454
  9
$TDINDWG
 40
0.0009907176
  9
$TDUSRTIMER
 40
0.0009907176
  9
$USRTIMER
 70
     1
  9
$ANGBASE
 50
0.0
  9
$ANGDIR
 70
     0
  9
$PDMODE
 70
     0
  9
$PDSIZE
 40
0.0
  9
$PLINEWID
 40
0.0
  9
$SPLFRAME
 70
     0
  9
$SPLINETYPE
 70
     6
  9
$SPLINESEGS
 70
     8
  9
$HANDSEED
  5
6D1
  9
$SURFTAB1
 70
     6
  9
$SURFTAB2
 70
     6
  9
$SURFTYPE
 70
     6
  9
$SURFU
 70
     6
  9
$SURFV
 70
     6
  9
$UCSBASE
  2

  9
$UCSNAME
  2

  9
$UCSORG
 10
0.0
 20
0.0
 30
0.0
  9
$UCSXDIR
 10
1.0
 20
0.0
 30
0.0
  9
$UCSYDIR
 10
0.0
 20
1.0
 30
0.0
  9
$UCSORTHOREF
  2

  9
$UCSORTHOVIEW
 70
     0
  9
$UCSORGTOP
 10
0.0
 20
0.0
 30
0.0
  9
$UCSORGBOTTOM
 10
0.0
 20
0.0
 30
0.0
  9
$UCSORGLEFT
 10
0.0
 20
0.0
 30
0.0
  9
$UCSORGRIGHT
 10
0.0
 20
0.0
 30
0.0
  9
$UCSORGFRONT
 10
0.0
 20
0.0
 30
0.0
  9
$UCSORGBACK
 10
0.0
 20
0.0
 30
0.0
  9
$PUCSBASE
  2

  9
$PUCSNAME
  2

  9
$PUCSORG
 10
0.0
 20
0.0
 30
0.0
  9
$PUCSXDIR
 10
1.0
 20
0.0
 30
0.0
  9
$PUCSYDIR
 10
0.0
 20
1.0
 30
0.0
  9
$PUCSORTHOREF
  2

  9
$PUCSORTHOVIEW
 70
     0
  9
$PUCSORGTOP
 10
0.0
 20
0.0
 30
0.0
  9
$PUCSORGBOTTOM
 10
0.0
 20
0.0
 30
0.0
  9
$PUCSORGLEFT
 10
0.0
 20
0.0
 30
0.0
  9
$PUCSORGRIGHT
 10
0.0
 20
0.0
 30
0.0
  9
$PUCSORGFRONT
 10
0.0
 20
0.0
 30
0.0
  9
$PUCSORGBACK
 10
0.0
 20
0.0
 30
0.0
  9
$USERI1
 70
     0
  9
$USERI2
 70
     0
  9
$USERI3
 70
     0
  9
$USERI4
 70
     0
  9
$USERI5
 70
     0
  9
$USERR1
 40
0.0
  9
$USERR2
 40
0.0
  9
$USERR3
 40
0.0
  9
$USERR4
 40
0.0
  9
$USERR5
 40
0.0
  9
$WORLDVIEW
 70
     1
  9
$SHADEDGE
 70
     3
  9
$SHADEDIF
 70
    70
  9
$TILEMODE
 70
     1
  9
$MAXACTVP
 70
    64
  9
$PINSBASE
 10
0.0
 20
0.0
 30
0.0
  9
$PLIMCHECK
 70
     0
  9
$PEXTMIN
 10
1.000000000000000E+20
 20
1.000000000000000E+20
 30
1.000000000000000E+20
  9
$PEXTMAX
 10
-1.000000000000000E+20
 20
-1.000000000000000E+20
 30
-1.000000000000000E+20
  9
$PLIMMIN
 10
0.0
 20
0.0
  9
$PLIMMAX
 10
12.0
 20
9.0
  9
$UNITMODE
 70
     0
  9
$VISRETAIN
 70
     1
  9
$PLINEGEN
 70
     0
  9
$PSLTSCALE
 70
     1
  9
$TREEDEPTH
 70
  3020
  9
$CMLSTYLE
  2
Standard
  9
$CMLJUST
 70
     0
  9
$CMLSCALE
 40
1.0
  9
$PROXYGRAPHICS
 70
     1
  9
$MEASUREMENT
 70
     0
  9
$CELWEIGHT
370
    -1
  9
$ENDCAPS
280
     0
  9
$JOINSTYLE
280
     0
  9
$LWDISPLAY
290
     0
  9
$INSUNITS
 70
     0
  9
$HYPERLINKBASE
  1

  9
$STYLESHEET
  1

  9
$XEDIT
290
     1
  9
$CEPSNTYPE
380
     0
  9
$PSTYLEMODE
290
     1
  9
$FINGERPRINTGUID
  2
{E299328F-221D-4FEE-8CF2-8E8B0B945ED4}
  9
$VERSIONGUID
  2
{09303D48-EDD2-4562-A1D3-21871603ADF0}
  9
$EXTNAMES
290
     1
  9
$PSVPSCALE
 40
0.0
  9
$OLESTARTUP
290
     0
  9
$SORTENTS
280
   127
  9
$INDEXCTL
280
     0
  9
$HIDETEXT
280
     0
  9
$XCLIPFRAME
280
     2
  9
$HALOGAP
280
     0
  9
$OBSCOLOR
 70
   257
  9
$OBSLTYPE
280
     0
  9
$INTERSECTIONDISPLAY
280
     0
  9
$INTERSECTIONCOLOR
 70
   257
  9
$DIMASSOC
280
     1
  9
$PROJECTNAME
  1

  9
$CAMERADISPLAY
290
     0
  9
$LENSLENGTH
 40
50.0
  9
$CAMERAHEIGHT
 40
0.0
  9
$STEPSPERSEC
 40
2.0
  9
$STEPSIZE
 40
6.0
  9
$3DDWFPREC
 40
2.0
  9
$PSOLWIDTH
 40
0.25
  9
$PSOLHEIGHT
 40
4.0
  9
$LOFTANG1
 40
1.570796326794896
  9
$LOFTANG2
 40
1.570796326794896
  9
$LOFTMAG1
 40
0.0
  9
$LOFTMAG2
 40
0.0
  9
$LOFTPARAM
 70
     7
  9
$LOFTNORMALS
280
     1
  9
$LATITUDE
 40
37.795
  9
$LONGITUDE
 40
-122.394
  9
$NORTHDIRECTION
 40
0.0
  9
$TIMEZONE
 70
 -8000
  9
$LIGHTGLYPHDISPLAY
280
     1
  9
$TILEMODELIGHTSYNCH
280
     1
  9
$CMATERIAL
347
11
  9
$SOLIDHIST
280
     0
  9
$SHOWHIST
280
     1
  9
$DWFFRAME
280
     2
  9
$DGNFRAME
280
     0
  9
$REALWORLDSCALE
290
     1
  9
$INTERFERECOLOR
 62
     1
  9
$INTERFEREOBJVS
345
33
  9
$INTERFEREVPVS
346
30
  9
$CSHADOW
280
     0
  9
$SHADOWPLANELOCATION
 40
0.0
  0
ENDSEC
  0
SECTION
  2
CLASSES
  0
CLASS
  1
ACDBDICTIONARYWDFLT
  2
AcDbDictionaryWithDefault
  3
ObjectDBX Classes
 90
        0
 91
        1
280
     0
281
     0
  0
CLASS
  1
MATERIAL
  2
AcDbMaterial
  3
ObjectDBX Classes
 90
     1153
 91
        3
280
     0
281
     0
  0
CLASS
  1
VISUALSTYLE
  2
AcDbVisualStyle
  3
ObjectDBX Classes
 90
     4095
 91
       24
280
     0
281
     0
  0
CLASS
  1
SCALE
  2
AcDbScale
  3
ObjectDBX Classes
 90
     1153
 91
       17
280
     0
281
     0
  0
CLASS
  1
TABLESTYLE
  2
AcDbTableStyle
  3
ObjectDBX Classes
 90
     4095
 91
        1
280
     0
281
     0
  0
CLASS
  1
MLEADERSTYLE
  2
AcDbMLeaderStyle
  3
ACDB_MLEADERSTYLE_CLASS
 90
     4095
 91
        1
280
     0
281
     0
  0
CLASS
  1
ACDBSECTIONVIEWSTYLE
  2
AcDbSectionViewStyle
  3
ObjectDBX Classes
 90
     1025
 91
        1
280
     0
281
     0
  0
CLASS
  1
ACDBDETAILVIEWSTYLE
  2
AcDbDetailViewStyle
  3
ObjectDBX Classes
 90
     1025
 91
        1
280
     0
281
     0
  0
CLASS
  1
DICTIONARYVAR
  2
AcDbDictionaryVar
  3
ObjectDBX Classes
 90
        0
 91
        9
280
     0
281
     0
  0
CLASS
  1
CELLSTYLEMAP
  2
AcDbCellStyleMap
  3
ObjectDBX Classes
 90
     1152
 91
        1
280
     0
281
     0
  0
ENDSEC
  0
SECTION
  2
TABLES
  0
TABLE
  2
VPORT
  5
8
330
0
100
AcDbSymbolTable
 70
     1
  0
VPORT
  5
6C0
330
8
100
AcDbSymbolTableRecord
100
AcDbViewportTableRecord
  2
*Active
 70
     0
 10
0.0
 20
0.0
 11
1.0
 21
1.0
 12
13.69876325088339
 22
4.5
 13
0.0
 23
0.0
 14
1.0
 24
1.0
 15
0.0
 25
0.0
 16
0.0
 26
0.0
 36
1.0
 17
0.0
 27
0.0
 37
0.0
 40
9.0
 41
3.04416961130742
 42
50.0
 43
0.0
 44
0.0
 50
0.0
 51
0.0
 71
     0
 72
  1000
 73
     1
 74
     3
 75
     0
 76
     0
 77
     0
 78
     0
281
     0
 65
     1
110
0.0
120
0.0
130
0.0
111
1.0
121
0.0
131
0.0
112
0.0
122
1.0
132
0.0
 79
     0
146
0.0
348
2F
 60
     3
 61
     5
292
     1
282
     1
141
0.0
142
0.0
 63
   250
421
  3355443
1001
ACAD_NAV_VCDISPLAY
1070
     1
  0
ENDTAB
  0
TABLE
  2
LTYPE
  5
5
330
0
100
AcDbSymbolTable
 70
     2
  0
LTYPE
  5
5A
330
5
100
AcDbSymbolTableRecord
100
AcDbLinetypeTableRecord
  2
ByBlock
 70
     0
  3

 72
    65
 73
     0
 40
0.0
  0
LTYPE
  5
5B
330
5
100
AcDbSymbolTableRecord
100
AcDbLinetypeTableRecord
  2
ByLayer
 70
     0
  3

 72
    65
 73
     0
 40
0.0
  0
LTYPE
  5
5C
330
5
100
AcDbSymbolTableRecord
100
AcDbLinetypeTableRecord
  2
Continuous
 70
     0
  3
Solid line
 72
    65
 73
     0
 40
0.0
  0
LTYPE
  5
68
330
5
100
AcDbSymbolTableRecord
100
AcDbLinetypeTableRecord
  2
PHANTOM2
 70
     0
  3
Phantom (.5x) ___ _ _ ___ _ _ ___ _ _ ___ _ _
 72
    65
 73
     6
 40
1.25
 49
0.625
 74
     0
 49
-0.125
 74
     0
 49
0.125
 74
     0
 49
-0.125
 74
     0
 49
0.125
 74
     0
 49
-0.125
 74
     0
  0
ENDTAB
  0
TABLE
  2
LAYER
  5
2
330
0
100
AcDbSymbolTable
 70
     1
  0
LAYER
  5
54
102
{ACAD_XDICTIONARY
360
6C2
102
}
330
2
100
AcDbSymbolTableRecord
100
AcDbLayerTableRecord
  2
0
 70
     0
 62
     7
  6
Continuous
370
    -3
390
F
347
21
348
0
  0
ENDTAB
  0
TABLE
  2
STYLE
  5
3
330
0
100
AcDbSymbolTable
 70
     2
  0
STYLE
  5
55
330
3
100
AcDbSymbolTableRecord
100
AcDbTextStyleTableRecord
  2
Standard
 70
     0
 40
0.0
 41
1.0
 50
0.0
 71
     0
 42
0.2
  3
txt
  4

  0
STYLE
  5
59
330
3
100
AcDbSymbolTableRecord
100
AcDbTextStyleTableRecord
  2
Annotative
 70
     0
 40
0.0
 41
1.0
 50
0.0
 71
     0
 42
0.2
  3
txt
  4

1001
AcadAnnotative
1000
AnnotativeData
1002
{
1070
     1
1070
     1
1002
}
  0
ENDTAB
  0
TABLE
  2
VIEW
  5
6
330
0
100
AcDbSymbolTable
 70
     0
  0
ENDTAB
  0
TABLE
  2
UCS
  5
7
330
0
100
AcDbSymbolTable
 70
     0
  0
ENDTAB
  0
TABLE
  2
APPID
  5
9
330
0
100
AcDbSymbolTable
 70
     3
  0
APPID
  5
56
330
9
100
AcDbSymbolTableRecord
100
AcDbRegAppTableRecord
  2
ACAD
 70
     0
  0
APPID
  5
5D
330
9
100
AcDbSymbolTableRecord
100
AcDbRegAppTableRecord
  2
AcadAnnotative
 70
     0
  0
APPID
  5
6BF
330
9
100
AcDbSymbolTableRecord
100
AcDbRegAppTableRecord
  2
ACAD_NAV_VCDISPLAY
 70
     0
  0
ENDTAB
  0
TABLE
  2
DIMSTYLE
  5
A
330
0
100
AcDbSymbolTable
 70
     2
100
AcDbDimStyleTable
 71
     0
  0
DIMSTYLE
105
57
330
A
100
AcDbSymbolTableRecord
100
AcDbDimStyleTableRecord
  2
Standard
 70
     0
340
55
  0
DIMSTYLE
105
58
330
A
100
AcDbSymbolTableRecord
100
AcDbDimStyleTableRecord
  2
Annotative
 70
     0
340
55
1001
AcadAnnotative
1000
AnnotativeData
1002
{
1070
     1
1070
     1
1002
}
  0
ENDTAB
  0
TABLE
  2
BLOCK_RECORD
  5
1
330
0
100
AcDbSymbolTable
 70
     0
  0
BLOCK_RECORD
  5
70
330
1
100
AcDbSymbolTableRecord
100
AcDbBlockTableRecord
  2
*Model_Space
340
73
 70
     0
280
     1
281
     0
  0
BLOCK_RECORD
  5
6C
330
1
100
AcDbSymbolTableRecord
100
AcDbBlockTableRecord
  2
*Paper_Space
340
6F
 70
     0
280
     1
281
     0
  0
ENDTAB
  0
ENDSEC
  0
SECTION
  2
BLOCKS
  0
BLOCK
  5
71
330
70
100
AcDbEntity
  8
0
100
AcDbBlockBegin
  2
*Model_Space
 70
     0
 10
0.0
 20
0.0
 30
0.0
  3
*Model_Space
  1

  0
ENDBLK
  5
72
330
70
100
AcDbEntity
  8
0
100
AcDbBlockEnd
  0
BLOCK
  5
6D
330
6C
100
AcDbEntity
 67
     1
  8
0
100
AcDbBlockBegin
  2
*Paper_Space
 70
     0
 10
0.0
 20
0.0
 30
0.0
  3
*Paper_Space
  1

  0
ENDBLK
  5
6E
330
6C
100
AcDbEntity
 67
     1
  8
0
100
AcDbBlockEnd
  0
ENDSEC
  0
SECTION
  2
ENTITIES
  0
CIRCLE
  5
74
330
70
100
AcDbEntity
  8
0
 62
    13
100
AcDbCircle
 10
0.0
 20
0.0
 30
0.0
 40
2.5
  0
LWPOLYLINE
  5
75
330
70
100
AcDbEntity
  8
0
 62
    13
100
AcDbPolyline
 90
     1002
 70
     0
 43
0.0
 10
37.89848129999999
 20
-2.0210451
 10
38.1498221
 20
-1.9939705
 10
38.408115
 20
-1.9561733
 10
38.67786779999999
 20
-1.9075576
 10
38.9467401
 20
-1.850847
 10
39.2040188
 20
-1.789526399999999
 10
39.4814195
 20
-1.716207199999999
 10
39.7348703
 20
-1.643041399999999
 10
40.00247520000001
 20
-1.559681899999999
 10
40.2839115
 20
-1.465505899999999
 10
40.5287609
 20
-1.3783204
 10
40.7827693
 20
-1.2828471
 10
41.04571879999999
 20
-1.178741199999999
 10
41.31738209999999
 20
-1.0656626
 10
41.597523
 20
-0.9432769
 10
41.827575
 20
-0.8384459999999998
 10
41.99304929999999
 20
-0.7606527
 10
41.99806749999999
 20
-0.3963671
 10
41.9999257
 20
-0.0320516
 10
41.9986236
 20
0.3322663
 10
41.9941614
 20
0.6965591
 10
41.99304929999999
 20
0.7606527
 10
41.6969557
 20
0.8984431999999998
 10
41.45528749999999
 20
1.0061433
 10
41.21968579999999
 20
1.1069683
 10
40.91524439999999
 20
1.2310616
 10
40.6221937
 20
1.343790899999999
 10
40.3408591
 20
1.445658799999999
 10
40.0715506
 20
1.537176099999999
 10
39.81456270000001
 20
1.6188616
 10
39.5701736
 20
1.6912414
 10
39.2828028
 20
1.769443399999999
 10
39.0160033
 20
1.8349953
 10
38.770212
 20
1.888968099999999
 10
38.5035479
 20
1.939979
 10
38.2321976
 20
1.9829243
 10
37.97549570000001
 20
2.013894599999999
 10
37.7171977
 20
2.033091
 10
37.6308714
 20
2.035876599999999
 10
37.4860542
 20
3.875953599999999
 10
37.74804920000001
 20
3.932466
 10
37.99206010000001
 20
3.9985256
 10
38.2412603
 20
4.0762634
 10
38.5000868
 20
4.1664791
 10
38.7567774
 20
4.2645524
 10
39.0012959
 20
4.365365299999999
 10
39.26381170000001
 20
4.4811769
 10
39.5026964
 20
4.5930903
 10
39.75396639999999
 20
4.717286099999999
 10
40.01720539999999
 20
4.854328999999999
 10
40.2454014
 20
4.9787441
 10
40.4813473
 20
5.112777599999999
 10
40.7247736
 20
5.256736199999999
 10
40.975403
 20
5.410919999999999
 10
41.2329495
 20
5.575622599999999
 10
41.44377
 20
5.7151509
 10
41.59503749999999
 20
5.8178724
 10
41.5430071
 20
6.178458099999999
 10
41.48785089999999
 20
6.5385789
 10
41.4295729
 20
6.8982077
 10
41.36817769999999
 20
7.2573175
 10
41.35705289999999
 20
7.320447999999999
 10
41.0430495
 20
7.4102228
 10
40.7875086
 20
7.4787917
 10
40.53903499999999
 20
7.541519099999999
 10
40.21892939999999
 20
7.6164595
 10
39.9118518
 20
7.681957799999999
 10
39.6180453
 20
7.738561099999999
 10
39.337736
 20
7.7868225
 10
39.0711336
 20
7.8273005
 10
38.8184307
 20
7.8605584
 10
38.5223644
 20
7.8928429
 10
38.2485951
 20
7.9158511
 10
37.99738660000001
 20
7.9307092
 10
37.7260258
 20
7.9393766
 10
37.602745
 20
7.940535999999999
 10
37.3474384
 20
7.9367187
 10
37.0860299
 20
7.922574599999999
 10
36.8490916
 20
7.897576899999999
 10
36.4182059
 20
9.692344999999999
 10
36.6681349
 20
9.789146699999998
 10
36.8988076
 20
9.892564699999999
 10
37.1327788
 20
10.0083289
 10
37.37430590000001
 20
10.1379233
 10
37.6124942
 20
10.2749444
 10
37.8382316
 20
10.4127673
 10
38.0793985
 20
10.5682195
 10
38.2978351
 20
10.7161249
 10
38.52658289999999
 20
10.878099
 10
38.76514279999999
 20
11.0546343
 10
38.9710666
 20
11.2132153
 10
39.1831401
 20
11.3825087
 10
39.4010494
 20
11.5627752
 10
39.6244734
 20
11.7542679
 10
39.8530839
 20
11.9572318
 10
40.0394818
 20
12.1280219
 10
40.1728178
 20
12.2531421
 10
40.06502
 20
12.6011491
 10
39.9542075
 20
12.9482079
 10
39.84038870000001
 20
13.2942924
 10
39.7235722
 20
13.6393766
 10
39.7027086
 20
13.6999896
 10
39.37852720000001
 20
13.7395382
 10
39.1154059
 20
13.7672875
 10
38.8601787
 20
13.7903728
 10
38.5322908
 20
13.814315
 10
38.2187477
 20
13.8309693
 10
37.9197037
 20
13.8409143
 10
37.6352958
 20
13.8447315
 10
37.5664951
 20
13.8447968
 10
37.3005484
 20
13.8417763
 10
37.0494824
 20
13.833946
 10
36.7566967
 20
13.818291
 10
36.4874049
 20
13.7971926
 10
36.1953705
 20
13.7663136
 10
35.93732410000001
 20
13.7312508
 10
35.67917070000001
 20
13.6877111
 10
35.4147914
 20
13.6324072
 10
35.165292
 20
13.5664312
 10
35.1599649
 20
13.5648125
 10
34.4536206
 20
15.2700787
 10
34.6853294
 20
15.4047862
 10
34.896984
 20
15.543016
 10
35.1099651
 20
15.6939562
 10
35.3282456
 20
15.8597382
 10
35.5420665
 20
16.0323332
 10
35.7434645
 20
16.2037724
 10
35.9573442
 20
16.3950375
 10
36.1499539
 20
16.575293
 10
36.3505472
 20
16.7710569
 10
36.55855379999999
 20
16.9827378
 10
36.7371348
 20
17.17158
 10
36.920114
 20
17.3719647
 10
37.1071405
 20
17.5841003
 10
37.2978577
 20
17.8081866
 10
37.4919032
 20
18.0444143
 10
37.6492888
 20
18.2422608
 10
37.76141
 20
18.3866989
 10
37.6004991
 20
18.713558
 10
37.4367589
 20
19.039009
 10
37.2702019
 20
19.3630275
 10
37.10084050000001
 20
19.685589
 10
37.0707518
 20
19.742192
 10
36.74437490000001
 20
19.7305405
 10
36.4801521
 20
19.7167869
 10
36.2244559
 20
19.6996617
 10
35.8968594
 20
19.6720161
 10
35.5845713
 20
19.6394165
 10
35.2876532
 20
19.6024582
 10
35.0061497
 20
19.5617372
 10
34.7400873
 20
19.5178494
 10
34.4894753
 20
19.4713901
 10
34.1979231
 20
19.4106049
 10
33.9304431
 20
19.3478877
 10
33.68693820000001
 20
19.2843908
 10
33.4261804
 20
19.2087789
 10
33.1649087
 20
19.123853
 10
32.9221254
 20
19.0349075
 10
32.6832652
 20
18.9347468
 10
32.6050832
 20
18.8980375
 10
31.6406727
 20
20.4718124
 10
31.8484559
 20
20.6411086
 10
32.0358808
 20
20.8107467
 10
32.2226275
 20
20.9931461
 10
32.4122866
 20
21.1910337
 10
32.5964752
 20
21.3949528
 10
32.76857469999999
 20
21.5957868
 10
32.9499007
 20
21.8181553
 10
33.1119409
 20
22.0263223
 10
33.2794403
 20
22.25105580000001
 10
33.4517718
 20
22.4926699
 10
33.59861270000001
 20
22.7071234
 10
33.74799210000001
 20
22.9336653
 10
33.8995307
 20
23.1724466
 10
34.0528451
 20
23.4236087
 10
34.2075473
 20
23.6872835
 10
34.3320452
 20
23.9073146
 10
34.42019099999999
 20
24.0675141
 10
34.2101291
 20
24.365177
 10
33.99749310000001
 20
24.6610066
 10
33.782299
 20
24.9549806
 10
33.564563
 20
25.2470769
 10
33.5259901
 20
25.2982761
 10
33.20545410000001
 20
25.2357114
 10
32.9466359
 20
25.1807936
 10
32.69676670000001
 20
25.1238795
 10
32.3775282
 20
25.045327
 10
32.0741845
 20
24.964276
 10
31.7867036
 20
24.8813246
 10
31.515036
 20
24.7970681
 10
31.2591149
 20
24.7120993
 10
31.0188562
 20
24.6270076
 10
30.7404023
 20
24.5213619
 10
30.4860266
 20
24.4175738
 10
30.2554527
 20
24.3167661
 10
30.0097336
 20
24.20129360000001
 10
29.7649639
 20
24.0765413
 10
29.5390839
 20
23.9507113
 10
29.318833
 20
23.8144178
 10
29.2473562
 20
23.76593
 10
28.0486265
 20
25.1694621
 10
28.2273678
 20
25.3691785
 10
28.385948
 20
25.5660478
 10
28.5418619
 20
25.7754152
 10
28.6982295
 20
26.0005357
 10
28.8482505
 20
26.2307575
 10
28.98681380000001
 20
26.4560413
 10
29.1311212
 20
26.7040377
 10
29.25860200000001
 20
26.9349905
 10
29.3888832
 20
27.1831598
 10
29.5212962
 20
27.4487578
 10
29.6327814
 20
27.683542
 10
29.7448827
 20
27.9306629
 10
29.857202
 20
28.1902102
 10
29.96933830000001
 20
28.4622638
 10
30.0808881
 20
28.74689310000001
 10
30.1694328
 20
28.983691
 10
30.2314326
 20
29.1557072
 10
29.9773922
 20
29.4168445
 10
29.7210962
 20
29.6757683
 10
29.46256380000001
 20
29.9324592
 10
29.2018146
 20
30.1868979
 10
29.1557072
 20
30.2314326
 10
28.8489049
 20
30.1194954
 10
28.6018642
 20
30.0247656
 10
28.3639746
 20
29.9294641
 10
28.0609548
 20
29.8019387
 10
27.7740249
 20
29.67443230000001
 10
27.5030598
 20
29.5475302
 10
27.2479175
 20
29.4218128
 10
27.0084393
 20
29.2978552
 10
26.7844498
 20
29.1762264
 10
26.52595080000001
 20
29.0283217
 10
26.2909429
 20
28.8860182
 10
26.0789776
 20
28.750382
 10
25.8543475
 20
28.5978921
 10
25.6321069
 20
28.4363854
 10
25.428692
 20
28.2767691
 10
25.2324738
 20
28.1076987
 10
25.1694621
 20
28.0486265
 10
23.76593
 20
29.2473562
 10
23.9112282
 20
29.472575
 10
24.0370588
 20
29.69182789999999
 10
24.158301
 20
29.9230079
 10
24.2775268
 20
30.16981810000001
 10
24.3896862
 20
30.420674
 10
24.4913014
 20
30.6648602
 10
24.5950369
 20
30.9323781
 10
24.6848192
 20
31.1804298
 10
24.7746742
 20
31.4459242
 10
24.8639083
 20
31.7289662
 10
24.9372926
 20
31.9783
 10
25.0093555
 20
32.23991489999999
 10
25.0796898
 20
32.5138374
 10
25.147887
 20
32.8000835
 10
25.2135376
 20
33.0986588
 10
25.2639488
 20
33.34639280000001
 10
25.2982761
 20
33.5259901
 10
25.0065124
 20
33.7441716
 10
24.7128672
 20
33.9598141
 10
24.4173625
 20
34.17290139999999
 10
24.1200206
 20
34.3834174
 10
24.0675141
 20
34.42019099999999
 10
23.7819998
 20
34.2616374
 10
23.55281960000001
 20
34.1294282
 10
23.3327673
 20
33.9980859
 10
23.0534275
 20
33.8247279
 10
22.7899766
 20
33.6539055
 10
22.5421995
 20
33.48617750000001
 10
22.3098649
 20
33.3220949
 10
22.0927263
 20
33.1622008
 10
21.8905214
 20
33.00702970000001
 10
21.6583424
 20
32.8205078
 10
21.448489
 20
32.6431929
 10
21.2603515
 20
32.476068
 10
21.0623416
 20
32.2903157
 10
20.8681024
 20
32.0960312
 10
20.69216139999999
 20
31.906559
 10
20.5248074
 20
31.7088749
 10
20.4718124
 20
31.6406727
 10
18.8980375
 20
32.6050832
 10
19.0063148
 20
32.8502589
 10
19.0962975
 20
33.0864967
 10
19.1798825
 20
33.333797
 10
19.2590308
 20
33.59621950000001
 10
19.3305668
 20
33.8615326
 10
19.3927318
 20
34.1186085
 10
19.4533412
 20
34.39906060000001
 10
19.5032143
 20
34.6581035
 10
19.5504305
 20
34.93438560000001
 10
19.5942885
 20
35.2279022
 10
19.6277649
 20
35.48564610000001
 10
19.658015
 20
35.7553132
 10
19.6846325
 20
36.036866
 10
19.7072113
 20
36.3302563
 10
19.7253462
 20
36.6354256
 10
19.7363826
 20
36.8879957
 10
19.742192
 20
37.0707518
 10
19.4198893
 20
37.2406053
 10
19.0961254
 20
37.4076566
 10
18.7709247
 20
37.5718933
 10
18.4443116
 20
37.733303
 10
18.3866989
 20
37.76141
 10
18.129503
 20
37.5601442
 10
17.9238265
 20
37.3937111
 10
17.7270298
 20
37.229562
 10
17.4782483
 20
37.0146399
 10
17.2447635
 20
36.8047079
 10
17.0262753
 20
36.600284
 10
16.8224694
 20
36.4018764
 10
16.633017
 20
36.2099829
 10
16.4575758
 20
36.0250904
 10
16.2574336
 20
35.8045441
 10
16.077902
 20
35.596584
 10
15.918225
 20
35.4020854
 10
15.751711
 20
35.1876444
 10
15.590256
 20
34.9653662
 10
15.446121
 20
34.7507035
 10
15.3117521
 20
34.5292733
 10
15.2700787
 20
34.4536206
 10
13.5648125
 20
35.1599649
 10
13.6334029
 20
35.4190604
 10
13.685322
 20
35.6664661
 10
13.7291916
 20
35.9237972
 10
13.7663136
 20
36.1953705
 10
13.7954647
 20
36.4686078
 10
13.8166488
 20
36.7322435
 10
13.8326397
 20
37.01872410000001
 10
13.8413755
 20
37.28237960000001
 10
13.8447903
 20
37.5626465
 10
13.8421922
 20
37.8594103
 10
13.8349364
 20
38.1192178
 10
13.8226289
 20
38.390297
 10
13.8048741
 20
38.6725473
 10
13.7812786
 20
38.96585770000001
 10
13.7514512
 20
39.27010670000001
 10
13.7228411
 20
39.5212937
 10
13.6999896
 20
39.7027086
 10
13.3550841
 20
39.8200516
 10
13.0091737
 20
39.9343985
 10
12.6622844
 20
40.0457405
 10
12.3144424
 20
40.1540694
 10
12.2531421
 20
40.1728178
 10
12.0305977
 20
39.93379560000001
 10
11.8534892
 20
39.7372367
 10
11.684794
 20
39.5443227
 10
11.4726967
 20
39.2931287
 10
11.2749271
 20
39.0492562
 10
11.0911078
 20
38.81317
 10
10.9208488
 20
38.5853229
 10
10.7637477
 20
38.366155
 10
10.6193899
 20
38.1560938
 10
10.456213
 20
37.9069537
 10
10.3114238
 20
37.67346890000001
 10
10.1841389
 20
37.456386
 10
10.053221
 20
37.21853660000001
 10
9.928525699999999
 20
36.9737379
 10
9.819746
 20
36.7391703
 10
9.721670599999999
 20
36.4994464
 10
9.692344999999999
 20
36.4182059
 10
7.897576899999999
 20
36.8490916
 10
7.924791299999999
 20
37.115727
 10
7.9373684
 20
37.36820870000001
 10
7.9404424
 20
37.6292344
 10
7.934624
 20
37.9032713
 10
7.9206725
 20
38.1777048
 10
7.900354099999999
 20
38.4414086
 10
7.871332599999999
 20
38.7268638
 10
7.838716
 20
38.9886398
 10
7.7982455
 20
39.2659903
 10
7.749255299999999
 20
39.5586941
 10
7.701446
 20
39.81416779999999
 10
7.6468838
 20
40.07998429999999
 10
7.585194
 20
40.3559822
 10
7.516005099999999
 20
40.6419902
 10
7.4389499
 20
40.9378275
 10
7.3713977
 20
41.18144629999999
 10
7.320447999999999
 20
41.35705289999999
 10
6.9614324
 20
41.4189961
 10
6.6018929
 20
41.4778229
 10
6.2418567
 20
41.53352869999999
 10
5.881350799999999
 20
41.58610939999999
 10
5.8178724
 20
41.59503749999999
 10
5.635459099999999
 20
41.3241445
 10
5.491279699999999
 20
41.1022996
 10
5.3548399
 20
40.88537099999999
 10
5.184649199999999
 20
40.60409029999999
 10
5.027464499999999
 20
40.33228229999999
 10
4.882840299999999
 20
40.070347
 10
4.7503207
 20
39.81867070000001
 10
4.629439099999999
 20
39.5776251
 10
4.519719499999999
 20
39.34756760000001
 10
4.397525599999999
 20
39.07596820000001
 10
4.291044099999999
 20
38.8227081
 10
4.199285599999999
 20
38.588386
 10
4.107187299999999
 20
38.3329849
 10
4.0223222
 20
38.0716935
 10
3.9515761
 20
37.8229969
 10
3.8922093
 20
37.5708819
 10
3.875953599999999
 20
37.4860542
 10
2.035876599999999
 20
37.6308714
 10
2.0210451
 20
37.89848129999999
 10
1.9939705
 20
38.1498221
 10
1.9561733
 20
38.408115
 10
1.9075576
 20
38.67786779999999
 10
1.850847
 20
38.9467401
 10
1.789526399999999
 20
39.2040188
 10
1.716207199999999
 20
39.4814195
 10
1.643041399999999
 20
39.7348703
 10
1.559681899999999
 20
40.00247520000001
 10
1.465505899999999
 20
40.2839115
 10
1.3783204
 20
40.5287609
 10
1.2828471
 20
40.7827693
 10
1.178741199999999
 20
41.04571879999999
 10
1.0656626
 20
41.31738209999999
 10
0.9432769
 20
41.597523
 10
0.8384459999999998
 20
41.827575
 10
0.7606527
 20
41.99304929999999
 10
0.3963671
 20
41.99806749999999
 10
0.0320516
 20
41.9999257
 10
-0.3322663
 20
41.9986236
 10
-0.6965591
 20
41.9941614
 10
-0.7606527
 20
41.99304929999999
 10
-0.8984431999999998
 20
41.6969557
 10
-1.0061433
 20
41.45528749999999
 10
-1.1069683
 20
41.21968579999999
 10
-1.2310616
 20
40.91524439999999
 10
-1.343790899999999
 20
40.6221937
 10
-1.445658799999999
 20
40.3408591
 10
-1.537176099999999
 20
40.0715506
 10
-1.6188616
 20
39.81456270000001
 10
-1.6912414
 20
39.5701736
 10
-1.769443399999999
 20
39.2828028
 10
-1.8349953
 20
39.0160033
 10
-1.888968099999999
 20
38.770212
 10
-1.939979
 20
38.5035479
 10
-1.9829243
 20
38.2321976
 10
-2.013894599999999
 20
37.97549570000001
 10
-2.033091
 20
37.7171977
 10
-2.035876699999999
 20
37.6308714
 10
-3.875953599999999
 20
37.4860542
 10
-3.932466
 20
37.74804920000001
 10
-3.9985256
 20
37.99206010000001
 10
-4.0762634
 20
38.2412603
 10
-4.1664791
 20
38.5000868
 10
-4.2645524
 20
38.7567774
 10
-4.365365299999999
 20
39.0012959
 10
-4.4811769
 20
39.26381170000001
 10
-4.5930903
 20
39.5026964
 10
-4.7172862
 20
39.75396639999999
 10
-4.854328999999999
 20
40.01720539999999
 10
-4.9787441
 20
40.2454014
 10
-5.112777599999999
 20
40.4813473
 10
-5.256736199999999
 20
40.7247736
 10
-5.410919999999999
 20
40.975403
 10
-5.575622599999999
 20
41.2329495
 10
-5.7151509
 20
41.44377
 10
-5.8178724
 20
41.59503749999999
 10
-6.178458099999999
 20
41.5430071
 10
-6.5385789
 20
41.48785089999999
 10
-6.8982077
 20
41.4295729
 10
-7.2573175
 20
41.36817769999999
 10
-7.320447999999999
 20
41.35705289999999
 10
-7.4102228
 20
41.0430495
 10
-7.4787917
 20
40.7875086
 10
-7.541519099999999
 20
40.53903499999999
 10
-7.6164595
 20
40.21892939999999
 10
-7.681957799999999
 20
39.9118518
 10
-7.738561099999999
 20
39.6180453
 10
-7.7868225
 20
39.337736
 10
-7.8273005
 20
39.0711336
 10
-7.8605584
 20
38.8184307
 10
-7.8928429
 20
38.5223644
 10
-7.9158511
 20
38.2485951
 10
-7.9307092
 20
37.99738660000001
 10
-7.9393766
 20
37.7260258
 10
-7.939344599999999
 20
37.4512981
 10
-7.9297766
 20
37.1929118
 10
-7.90833
 20
36.9347909
 10
-7.897576899999999
 20
36.8490916
 10
-9.692344999999999
 20
36.4182059
 10
-9.789146699999998
 20
36.6681349
 10
-9.892564699999999
 20
36.8988076
 10
-10.0083289
 20
37.1327788
 10
-10.1379233
 20
37.37430590000001
 10
-10.2749444
 20
37.6124942
 10
-10.4127673
 20
37.8382316
 10
-10.5682195
 20
38.0793985
 10
-10.7161249
 20
38.2978351
 10
-10.878099
 20
38.52658289999999
 10
-11.0546343
 20
38.76514279999999
 10
-11.2132153
 20
38.9710666
 10
-11.3825087
 20
39.1831401
 10
-11.5627752
 20
39.4010494
 10
-11.7542679
 20
39.6244734
 10
-11.9572319
 20
39.8530839
 10
-12.1280219
 20
40.0394818
 10
-12.2531421
 20
40.1728178
 10
-12.6011491
 20
40.06502
 10
-12.9482079
 20
39.9542075
 10
-13.2942924
 20
39.84038870000001
 10
-13.6393766
 20
39.7235722
 10
-13.6999896
 20
39.7027086
 10
-13.7395382
 20
39.37852720000001
 10
-13.7672875
 20
39.1154059
 10
-13.7903728
 20
38.8601787
 10
-13.814315
 20
38.5322908
 10
-13.8309693
 20
38.2187477
 10
-13.8409143
 20
37.9197037
 10
-13.8447315
 20
37.6352958
 10
-13.8430053
 20
37.3656435
 10
-13.8363223
 20
37.11084920000001
 10
-13.8218943
 20
36.8133775
 10
-13.8017923
 20
36.53937949999999
 10
-13.7771698
 20
36.28893950000001
 10
-13.7432803
 20
36.01956370000001
 10
-13.7002718
 20
35.74822329999999
 10
-13.6504011
 20
35.494515
 10
-13.5888396
 20
35.242927
 10
-13.5648125
 20
35.1599649
 10
-15.2700787
 20
34.4536206
 10
-15.4047862
 20
34.6853294
 10
-15.543016
 20
34.896984
 10
-15.6939562
 20
35.1099651
 10
-15.8597382
 20
35.3282456
 10
-16.0323332
 20
35.5420665
 10
-16.2037724
 20
35.7434645
 10
-16.3950375
 20
35.9573442
 10
-16.575293
 20
36.1499539
 10
-16.7710569
 20
36.3505472
 10
-16.9827378
 20
36.55855379999999
 10
-17.17158
 20
36.7371348
 10
-17.3719647
 20
36.920114
 10
-17.5841003
 20
37.1071405
 10
-17.8081866
 20
37.2978577
 10
-18.04441439999999
 20
37.4919032
 10
-18.2422608
 20
37.6492888
 10
-18.3866989
 20
37.76141
 10
-18.713558
 20
37.6004991
 10
-19.039009
 20
37.4367589
 10
-19.3630275
 20
37.2702019
 10
-19.685589
 20
37.10084050000001
 10
-19.742192
 20
37.0707518
 10
-19.7305405
 20
36.74437490000001
 10
-19.7167869
 20
36.4801521
 10
-19.6996617
 20
36.2244559
 10
-19.6720161
 20
35.8968594
 10
-19.6394165
 20
35.5845713
 10
-19.6024582
 20
35.2876532
 10
-19.5617372
 20
35.0061497
 10
-19.5178494
 20
34.7400873
 10
-19.4713901
 20
34.4894753
 10
-19.4106049
 20
34.1979231
 10
-19.3478877
 20
33.9304431
 10
-19.2843908
 20
33.68693820000001
 10
-19.2087789
 20
33.4261804
 10
-19.123853
 20
33.1649087
 10
-19.0349075
 20
32.9221254
 10
-18.9347468
 20
32.6832652
 10
-18.8980375
 20
32.6050832
 10
-20.4718124
 20
31.6406727
 10
-20.6411086
 20
31.8484559
 10
-20.8107467
 20
32.0358808
 10
-20.9931461
 20
32.2226275
 10
-21.1910337
 20
32.4122866
 10
-21.3949528
 20
32.5964752
 10
-21.5957868
 20
32.76857469999999
 10
-21.8181553
 20
32.9499006
 10
-22.0263223
 20
33.1119409
 10
-22.25105580000001
 20
33.2794403
 10
-22.4926699
 20
33.4517718
 10
-22.7071234
 20
33.59861270000001
 10
-22.9336653
 20
33.74799210000001
 10
-23.1724466
 20
33.8995307
 10
-23.4236087
 20
34.0528451
 10
-23.6872835
 20
34.2075473
 10
-23.9073146
 20
34.3320452
 10
-24.0675141
 20
34.42019099999999
 10
-24.365177
 20
34.2101291
 10
-24.6610066
 20
33.99749310000001
 10
-24.9549806
 20
33.782299
 10
-25.2470769
 20
33.564563
 10
-25.2982761
 20
33.5259901
 10
-25.2357114
 20
33.20545410000001
 10
-25.1807936
 20
32.9466359
 10
-25.1238795
 20
32.69676670000001
 10
-25.045327
 20
32.3775282
 10
-24.964276
 20
32.0741845
 10
-24.8813246
 20
31.7867036
 10
-24.7970681
 20
31.515036
 10
-24.7120993
 20
31.2591149
 10
-24.6270076
 20
31.0188562
 10
-24.5213619
 20
30.7404023
 10
-24.4175738
 20
30.4860266
 10
-24.3167662
 20
30.2554527
 10
-24.20129360000001
 20
30.0097336
 10
-24.0765413
 20
29.7649639
 10
-23.9507113
 20
29.5390839
 10
-23.8144178
 20
29.318833
 10
-23.76593
 20
29.2473562
 10
-25.1694621
 20
28.0486265
 10
-25.3691785
 20
28.2273678
 10
-25.5660478
 20
28.385948
 10
-25.7754152
 20
28.5418619
 10
-26.0005357
 20
28.6982295
 10
-26.2307575
 20
28.8482505
 10
-26.4560413
 20
28.98681380000001
 10
-26.7040377
 20
29.1311212
 10
-26.9349905
 20
29.25860200000001
 10
-27.1831598
 20
29.3888831
 10
-27.4487578
 20
29.5212962
 10
-27.683542
 20
29.6327814
 10
-27.9306629
 20
29.7448826
 10
-28.1902102
 20
29.857202
 10
-28.4622638
 20
29.96933830000001
 10
-28.74689310000001
 20
30.0808881
 10
-28.983691
 20
30.1694328
 10
-29.1557072
 20
30.2314326
 10
-29.4168445
 20
29.9773922
 10
-29.6757683
 20
29.7210962
 10
-29.9324592
 20
29.46256380000001
 10
-30.1868979
 20
29.2018146
 10
-30.2314326
 20
29.1557072
 10
-30.1194954
 20
28.8489049
 10
-30.0247656
 20
28.6018641
 10
-29.9294641
 20
28.3639746
 10
-29.8019388
 20
28.0609548
 10
-29.67443230000001
 20
27.7740249
 10
-29.5475302
 20
27.5030598
 10
-29.4218128
 20
27.2479175
 10
-29.2978552
 20
27.0084393
 10
-29.1762264
 20
26.7844498
 10
-29.0283217
 20
26.52595080000001
 10
-28.8860182
 20
26.2909429
 10
-28.750382
 20
26.0789776
 10
-28.5978921
 20
25.8543475
 10
-28.4363854
 20
25.6321069
 10
-28.2767691
 20
25.428692
 10
-28.1076987
 20
25.2324738
 10
-28.0486265
 20
25.1694621
 10
-29.2473562
 20
23.76593
 10
-29.472575
 20
23.9112282
 10
-29.69182789999999
 20
24.0370588
 10
-29.9230079
 20
24.158301
 10
-30.16981810000001
 20
24.2775268
 10
-30.420674
 20
24.3896862
 10
-30.6648602
 20
24.4913014
 10
-30.9323781
 20
24.5950369
 10
-31.1804298
 20
24.6848192
 10
-31.4459242
 20
24.7746742
 10
-31.7289662
 20
24.8639083
 10
-31.9783
 20
24.9372926
 10
-32.23991489999999
 20
25.0093555
 10
-32.5138374
 20
25.0796898
 10
-32.8000836
 20
25.147887
 10
-33.0986588
 20
25.2135376
 10
-33.34639280000001
 20
25.2639488
 10
-33.5259901
 20
25.2982761
 10
-33.7441716
 20
25.0065124
 10
-33.9598141
 20
24.7128672
 10
-34.17290139999999
 20
24.4173625
 10
-34.3834174
 20
24.1200205
 10
-34.42019099999999
 20
24.0675141
 10
-34.2616374
 20
23.7819998
 10
-34.1294282
 20
23.55281960000001
 10
-33.9980859
 20
23.3327673
 10
-33.8247279
 20
23.0534275
 10
-33.6539055
 20
22.7899766
 10
-33.48617750000001
 20
22.5421995
 10
-33.3220949
 20
22.3098649
 10
-33.1622008
 20
22.0927262
 10
-33.00702970000001
 20
21.8905214
 10
-32.8205078
 20
21.6583424
 10
-32.6431929
 20
21.448489
 10
-32.476068
 20
21.2603515
 10
-32.2903157
 20
21.0623416
 10
-32.0960312
 20
20.8681024
 10
-31.906559
 20
20.69216139999999
 10
-31.7088749
 20
20.5248074
 10
-31.6406727
 20
20.4718124
 10
-32.6050832
 20
18.8980375
 10
-32.8502589
 20
19.0063148
 10
-33.0864967
 20
19.0962975
 10
-33.333797
 20
19.1798824
 10
-33.59621950000001
 20
19.2590308
 10
-33.8615326
 20
19.3305668
 10
-34.1186085
 20
19.3927318
 10
-34.39906060000001
 20
19.4533412
 10
-34.6581035
 20
19.5032143
 10
-34.93438560000001
 20
19.5504305
 10
-35.2279022
 20
19.5942885
 10
-35.48564610000001
 20
19.6277649
 10
-35.7553132
 20
19.658015
 10
-36.036866
 20
19.6846325
 10
-36.3302563
 20
19.7072113
 10
-36.6354256
 20
19.7253462
 10
-36.8879957
 20
19.7363826
 10
-37.0707518
 20
19.742192
 10
-37.2406053
 20
19.4198893
 10
-37.4076566
 20
19.0961254
 10
-37.5718933
 20
18.7709247
 10
-37.733303
 20
18.4443116
 10
-37.76141
 20
18.3866989
 10
-37.5601442
 20
18.129503
 10
-37.3937111
 20
17.9238264
 10
-37.229562
 20
17.7270298
 10
-37.0146399
 20
17.4782483
 10
-36.8047079
 20
17.2447635
 10
-36.600284
 20
17.0262753
 10
-36.4018764
 20
16.8224693
 10
-36.2099829
 20
16.633017
 10
-36.0250904
 20
16.4575758
 10
-35.8045441
 20
16.2574336
 10
-35.596584
 20
16.077902
 10
-35.4020854
 20
15.918225
 10
-35.1876444
 20
15.751711
 10
-34.9653663
 20
15.590256
 10
-34.7507035
 20
15.446121
 10
-34.5292733
 20
15.311752
 10
-34.4536206
 20
15.2700787
 10
-35.1599649
 20
13.5648125
 10
-35.4190604
 20
13.6334029
 10
-35.6664661
 20
13.685322
 10
-35.9237972
 20
13.7291916
 10
-36.1953705
 20
13.7663136
 10
-36.4686078
 20
13.7954647
 10
-36.7322435
 20
13.8166488
 10
-37.01872410000001
 20
13.8326397
 10
-37.28237960000001
 20
13.8413755
 10
-37.5626465
 20
13.8447903
 10
-37.6109649
 20
13.8447935
 10
-37.9104656
 20
13.8411262
 10
-38.1725349
 20
13.8328918
 10
-38.4458568
 20
13.8195263
 10
-38.7303283
 20
13.8006348
 10
-39.0258364
 20
13.7758242
 10
-39.3322578
 20
13.7447037
 10
-39.5851628
 20
13.7150033
 10
-39.7027086
 20
13.6999896
 10
-39.8200516
 20
13.3550841
 10
-39.9343985
 20
13.0091737
 10
-40.0457405
 20
12.6622844
 10
-40.1540694
 20
12.3144424
 10
-40.1728178
 20
12.2531421
 10
-39.93379560000001
 20
12.0305977
 10
-39.7372367
 20
11.8534892
 10
-39.5443227
 20
11.684794
 10
-39.2931287
 20
11.4726967
 10
-39.0492562
 20
11.2749271
 10
-38.81317
 20
11.0911078
 10
-38.5853229
 20
10.9208488
 10
-38.366155
 20
10.7637476
 10
-38.1560938
 20
10.6193899
 10
-37.9069537
 20
10.456213
 10
-37.67346890000001
 20
10.3114238
 10
-37.456386
 20
10.1841389
 10
-37.21853660000001
 20
10.053221
 10
-36.9737379
 20
9.928525699999999
 10
-36.7391703
 20
9.8197459
 10
-36.4994464
 20
9.721670599999999
 10
-36.4182059
 20
9.692344999999999
 10
-36.8490916
 20
7.897576899999999
 10
-37.115727
 20
7.924791299999999
 10
-37.36820870000001
 20
7.9373684
 10
-37.6010679
 20
7.9405389
 10
-37.8710023
 20
7.9357487
 10
-38.14182310000001
 20
7.922927599999999
 10
-38.4023989
 20
7.9037644
 10
-38.68476300000001
 20
7.876052199999999
 10
-38.9439232
 20
7.844679499999999
 10
-39.21869279999999
 20
7.805564299999999
 10
-39.508854
 20
7.758039999999999
 10
-39.7622407
 20
7.711535999999999
 10
-40.0260012
 20
7.658354499999999
 10
-40.2999761
 20
7.598119999999999
 10
-40.5839964
 20
7.530460499999999
 10
-40.8778827
 20
7.4550077
 10
-41.11996879999999
 20
7.388789599999999
 10
-41.35705289999999
 20
7.320447999999999
 10
-41.4189961
 20
6.9614324
 10
-41.4778229
 20
6.6018929
 10
-41.53352869999999
 20
6.2418567
 10
-41.58610939999999
 20
5.881350799999999
 10
-41.59503749999999
 20
5.8178724
 10
-41.3241445
 20
5.635459099999999
 10
-41.1022996
 20
5.491279699999999
 10
-40.88537099999999
 20
5.354839799999999
 10
-40.60409029999999
 20
5.184649199999999
 10
-40.33228229999999
 20
5.027464499999999
 10
-40.070347
 20
4.882840299999999
 10
-39.81867070000001
 20
4.7503207
 10
-39.5776251
 20
4.629439099999999
 10
-39.34756760000001
 20
4.519719499999999
 10
-39.07596820000001
 20
4.397525599999999
 10
-38.8227081
 20
4.291044099999999
 10
-38.588386
 20
4.1992855
 10
-38.3329849
 20
4.107187299999999
 10
-38.0716935
 20
4.0223222
 10
-37.8229969
 20
3.9515761
 10
-37.5708819
 20
3.8922093
 10
-37.4860542
 20
3.875953599999999
 10
-37.6308714
 20
2.035876599999999
 10
-37.89848129999999
 20
2.021044999999999
 10
-38.1498221
 20
1.9939705
 10
-38.408115
 20
1.9561733
 10
-38.67786779999999
 20
1.9075576
 10
-38.9467401
 20
1.850847
 10
-39.2040188
 20
1.789526399999999
 10
-39.4814195
 20
1.716207199999999
 10
-39.7348703
 20
1.643041399999999
 10
-40.00247520000001
 20
1.559681899999999
 10
-40.2839115
 20
1.465505899999999
 10
-40.5287609
 20
1.3783204
 10
-40.7827693
 20
1.2828471
 10
-41.04571879999999
 20
1.1787411
 10
-41.31738209999999
 20
1.0656626
 10
-41.597523
 20
0.9432769
 10
-41.827575
 20
0.8384459999999998
 10
-41.99304929999999
 20
0.7606527
 10
-41.99806749999999
 20
0.3963671
 10
-41.9999257
 20
0.0320516
 10
-41.9986236
 20
-0.3322663
 10
-41.9941614
 20
-0.6965591
 10
-41.99304929999999
 20
-0.7606527
 10
-41.6969557
 20
-0.8984431999999998
 10
-41.45528749999999
 20
-1.0061433
 10
-41.21968579999999
 20
-1.1069683
 10
-40.91524439999999
 20
-1.2310616
 10
-40.6221937
 20
-1.343790899999999
 10
-40.3408591
 20
-1.445658799999999
 10
-40.0715506
 20
-1.537176099999999
 10
-39.81456270000001
 20
-1.6188616
 10
-39.5701736
 20
-1.6912414
 10
-39.2828028
 20
-1.769443399999999
 10
-39.0160033
 20
-1.8349953
 10
-38.770212
 20
-1.8889682
 10
-38.5035479
 20
-1.939979
 10
-38.2321976
 20
-1.9829243
 10
-37.97549570000001
 20
-2.013894599999999
 10
-37.7171977
 20
-2.0330911
 10
-37.6308714
 20
-2.035876699999999
 10
-37.4860542
 20
-3.875953599999999
 10
-37.74804920000001
 20
-3.932466
 10
-37.99206010000001
 20
-3.9985256
 10
-38.2412603
 20
-4.0762634
 10
-38.5000868
 20
-4.1664791
 10
-38.7567774
 20
-4.2645524
 10
-39.0012959
 20
-4.365365299999999
 10
-39.26381170000001
 20
-4.4811769
 10
-39.5026964
 20
-4.5930903
 10
-39.75396639999999
 20
-4.7172862
 10
-40.01720539999999
 20
-4.854328999999999
 10
-40.2454014
 20
-4.9787441
 10
-40.4813473
 20
-5.112777599999999
 10
-40.7247736
 20
-5.256736199999999
 10
-40.975403
 20
-5.410919999999999
 10
-41.2329495
 20
-5.575622599999999
 10
-41.44377
 20
-5.715151
 10
-41.59503749999999
 20
-5.8178724
 10
-41.5430071
 20
-6.178458099999999
 10
-41.48785089999999
 20
-6.5385789
 10
-41.4295729
 20
-6.8982077
 10
-41.36817769999999
 20
-7.2573175
 10
-41.35705289999999
 20
-7.3204481
 10
-41.0430495
 20
-7.4102228
 10
-40.7875086
 20
-7.4787917
 10
-40.53903499999999
 20
-7.541519099999999
 10
-40.21892939999999
 20
-7.6164595
 10
-39.9118518
 20
-7.681957799999999
 10
-39.6180453
 20
-7.738561099999999
 10
-39.337736
 20
-7.7868225
 10
-39.0711336
 20
-7.8273005
 10
-38.8184307
 20
-7.8605584
 10
-38.5223644
 20
-7.8928429
 10
-38.2485951
 20
-7.9158511
 10
-37.99738660000001
 20
-7.9307092
 10
-37.7260258
 20
-7.9393766
 10
-37.4512981
 20
-7.939344599999999
 10
-37.1929118
 20
-7.9297766
 10
-36.9347909
 20
-7.90833
 10
-36.8490916
 20
-7.897576899999999
 10
-36.4182059
 20
-9.692344999999999
 10
-36.6681349
 20
-9.789146699999998
 10
-36.8988076
 20
-9.892564699999999
 10
-37.1327788
 20
-10.0083289
 10
-37.37430590000001
 20
-10.1379233
 10
-37.6124942
 20
-10.2749444
 10
-37.8382316
 20
-10.4127673
 10
-38.0793985
 20
-10.5682195
 10
-38.2978351
 20
-10.7161249
 10
-38.52658289999999
 20
-10.878099
 10
-38.76514279999999
 20
-11.0546343
 10
-38.9710666
 20
-11.2132153
 10
-39.1831401
 20
-11.3825087
 10
-39.4010494
 20
-11.5627752
 10
-39.6244734
 20
-11.7542679
 10
-39.8530839
 20
-11.9572319
 10
-40.0394818
 20
-12.1280219
 10
-40.1728178
 20
-12.2531421
 10
-40.06502
 20
-12.6011491
 10
-39.9542075
 20
-12.9482079
 10
-39.84038870000001
 20
-13.2942924
 10
-39.7235722
 20
-13.6393766
 10
-39.7027086
 20
-13.6999896
 10
-39.37852720000001
 20
-13.7395382
 10
-39.1154059
 20
-13.7672875
 10
-38.8601787
 20
-13.7903728
 10
-38.5322908
 20
-13.814315
 10
-38.2187477
 20
-13.8309693
 10
-37.9197037
 20
-13.8409143
 10
-37.6352958
 20
-13.8447315
 10
-37.3656435
 20
-13.8430053
 10
-37.11084920000001
 20
-13.8363223
 10
-36.8133775
 20
-13.8218943
 10
-36.53937949999999
 20
-13.8017923
 10
-36.28893950000001
 20
-13.7771698
 10
-36.01956370000001
 20
-13.7432803
 10
-35.74822329999999
 20
-13.7002718
 10
-35.494515
 20
-13.6504012
 10
-35.242927
 20
-13.5888396
 10
-35.1599649
 20
-13.5648125
 10
-34.4536206
 20
-15.2700787
 10
-34.6853294
 20
-15.4047862
 10
-34.896984
 20
-15.543016
 10
-35.1099651
 20
-15.6939562
 10
-35.3282456
 20
-15.8597382
 10
-35.5420665
 20
-16.0323332
 10
-35.7434645
 20
-16.2037724
 10
-35.9573442
 20
-16.3950376
 10
-36.1499539
 20
-16.575293
 10
-36.3505472
 20
-16.7710569
 10
-36.55855379999999
 20
-16.9827378
 10
-36.7371347
 20
-17.17158
 10
-36.920114
 20
-17.3719647
 10
-37.1071405
 20
-17.5841003
 10
-37.2978577
 20
-17.8081866
 10
-37.4919032
 20
-18.04441439999999
 10
-37.64928870000001
 20
-18.2422608
 10
-37.76141
 20
-18.3866989
 10
-37.6004991
 20
-18.713558
 10
-37.4367589
 20
-19.039009
 10
-37.2702019
 20
-19.3630275
 10
-37.10084050000001
 20
-19.685589
 10
-37.0707518
 20
-19.742192
 10
-36.74437490000001
 20
-19.7305405
 10
-36.4801521
 20
-19.7167869
 10
-36.2244559
 20
-19.6996617
 10
-35.8968594
 20
-19.6720161
 10
-35.5845713
 20
-19.6394165
 10
-35.2876532
 20
-19.6024582
 10
-35.0061497
 20
-19.5617372
 10
-34.7400873
 20
-19.5178494
 10
-34.4894753
 20
-19.4713901
 10
-34.1979231
 20
-19.4106049
 10
-33.9304431
 20
-19.3478877
 10
-33.68693820000001
 20
-19.2843908
 10
-33.4261804
 20
-19.2087789
 10
-33.1649087
 20
-19.123853
 10
-32.9221254
 20
-19.0349075
 10
-32.6832652
 20
-18.9347468
 10
-32.6050832
 20
-18.8980375
 10
-31.6406727
 20
-20.4718124
 10
-31.8484559
 20
-20.6411086
 10
-32.0358808
 20
-20.8107467
 10
-32.2226275
 20
-20.9931461
 10
-32.4122866
 20
-21.1910337
 10
-32.5964752
 20
-21.3949528
 10
-32.76857469999999
 20
-21.5957868
 10
-32.9499006
 20
-21.8181553
 10
-33.1119409
 20
-22.0263223
 10
-33.2794403
 20
-22.25105580000001
 10
-33.4517718
 20
-22.4926699
 10
-33.59861270000001
 20
-22.7071234
 10
-33.74799210000001
 20
-22.9336653
 10
-33.8995307
 20
-23.1724466
 10
-34.0528451
 20
-23.4236087
 10
-34.2075473
 20
-23.6872835
 10
-34.3320452
 20
-23.9073146
 10
-34.42019099999999
 20
-24.0675141
 10
-34.2101291
 20
-24.365177
 10
-33.99749310000001
 20
-24.6610066
 10
-33.782299
 20
-24.9549806
 10
-33.564563
 20
-25.2470769
 10
-33.5259901
 20
-25.2982761
 10
-33.20545410000001
 20
-25.2357114
 10
-32.9466359
 20
-25.1807936
 10
-32.69676670000001
 20
-25.1238795
 10
-32.3775282
 20
-25.045327
 10
-32.0741845
 20
-24.964276
 10
-31.7867036
 20
-24.8813246
 10
-31.515036
 20
-24.7970681
 10
-31.2591149
 20
-24.7120993
 10
-31.0188562
 20
-24.6270076
 10
-30.7404023
 20
-24.5213619
 10
-30.4860266
 20
-24.4175738
 10
-30.2554527
 20
-24.3167662
 10
-30.0097336
 20
-24.20129360000001
 10
-29.7649639
 20
-24.0765413
 10
-29.5390839
 20
-23.9507113
 10
-29.318833
 20
-23.8144178
 10
-29.2473562
 20
-23.76593
 10
-28.0486265
 20
-25.1694622
  0
LWPOLYLINE
  5
461
330
70
100
AcDbEntity
  8
0
 62
    13
100
AcDbPolyline
 90
      602
 70
     0
 43
0.0
 10
-28.0486265
 20
-25.1694622
 10
-28.2273678
 20
-25.3691785
 10
-28.385948
 20
-25.5660478
 10
-28.5418619
 20
-25.7754152
 10
-28.6982295
 20
-26.0005357
 10
-28.8482505
 20
-26.2307576
 10
-28.98681380000001
 20
-26.4560413
 10
-29.1311212
 20
-26.7040377
 10
-29.25860200000001
 20
-26.9349905
 10
-29.3888831
 20
-27.1831598
 10
-29.5212962
 20
-27.4487578
 10
-29.6327814
 20
-27.683542
 10
-29.7448826
 20
-27.9306629
 10
-29.857202
 20
-28.1902103
 10
-29.96933830000001
 20
-28.4622638
 10
-30.0808881
 20
-28.74689310000001
 10
-30.1694328
 20
-28.9836911
 10
-30.2314326
 20
-29.1557072
 10
-29.9773922
 20
-29.4168445
 10
-29.7210962
 20
-29.6757683
 10
-29.46256380000001
 20
-29.9324592
 10
-29.2018146
 20
-30.186898
 10
-29.1557072
 20
-30.2314326
 10
-28.8489049
 20
-30.1194954
 10
-28.6018641
 20
-30.0247656
 10
-28.3639746
 20
-29.9294641
 10
-28.0609548
 20
-29.8019388
 10
-27.7740249
 20
-29.67443230000001
 10
-27.5030598
 20
-29.5475302
 10
-27.2479175
 20
-29.4218128
 10
-27.0084393
 20
-29.2978553
 10
-26.7844498
 20
-29.1762264
 10
-26.52595080000001
 20
-29.0283217
 10
-26.2909429
 20
-28.8860182
 10
-26.0789776
 20
-28.750382
 10
-25.8543475
 20
-28.5978921
 10
-25.6321069
 20
-28.4363854
 10
-25.428692
 20
-28.2767691
 10
-25.2324738
 20
-28.1076987
 10
-25.1694621
 20
-28.0486265
 10
-23.76593
 20
-29.2473562
 10
-23.9112282
 20
-29.472575
 10
-24.0370588
 20
-29.69182789999999
 10
-24.158301
 20
-29.92300800000001
 10
-24.2775268
 20
-30.16981810000001
 10
-24.3896862
 20
-30.420674
 10
-24.4913014
 20
-30.6648602
 10
-24.5950369
 20
-30.9323781
 10
-24.6848192
 20
-31.1804298
 10
-24.7746742
 20
-31.4459242
 10
-24.8639083
 20
-31.7289663
 10
-24.9372926
 20
-31.9783
 10
-25.0093555
 20
-32.23991489999999
 10
-25.0796898
 20
-32.5138374
 10
-25.147887
 20
-32.8000836
 10
-25.2135376
 20
-33.0986588
 10
-25.2639488
 20
-33.34639280000001
 10
-25.2982761
 20
-33.5259901
 10
-25.0065124
 20
-33.7441716
 10
-24.7128672
 20
-33.9598141
 10
-24.4173625
 20
-34.17290139999999
 10
-24.1200205
 20
-34.3834174
 10
-24.0675141
 20
-34.42019099999999
 10
-23.7819998
 20
-34.2616374
 10
-23.55281960000001
 20
-34.1294283
 10
-23.3327673
 20
-33.9980859
 10
-23.0534275
 20
-33.8247279
 10
-22.7899766
 20
-33.6539055
 10
-22.5421995
 20
-33.48617750000001
 10
-22.3098649
 20
-33.3220949
 10
-22.0927262
 20
-33.1622008
 10
-21.8905214
 20
-33.00702970000001
 10
-21.6583424
 20
-32.8205078
 10
-21.448489
 20
-32.6431929
 10
-21.2603515
 20
-32.476068
 10
-21.0623416
 20
-32.2903157
 10
-20.8681024
 20
-32.0960312
 10
-20.69216139999999
 20
-31.906559
 10
-20.5248074
 20
-31.7088749
 10
-20.4718124
 20
-31.6406727
 10
-18.8980375
 20
-32.6050832
 10
-19.0063148
 20
-32.8502589
 10
-19.0962975
 20
-33.0864967
 10
-19.1798824
 20
-33.333797
 10
-19.2590308
 20
-33.59621950000001
 10
-19.3305668
 20
-33.8615326
 10
-19.3927318
 20
-34.1186085
 10
-19.4533412
 20
-34.39906060000001
 10
-19.5032143
 20
-34.6581035
 10
-19.5504305
 20
-34.93438560000001
 10
-19.5942885
 20
-35.2279022
 10
-19.6277649
 20
-35.48564610000001
 10
-19.658015
 20
-35.7553132
 10
-19.6846324
 20
-36.036866
 10
-19.7072113
 20
-36.3302564
 10
-19.7253462
 20
-36.6354256
 10
-19.7363826
 20
-36.8879957
 10
-19.742192
 20
-37.0707518
 10
-19.4198893
 20
-37.2406053
 10
-19.0961254
 20
-37.4076566
 10
-18.7709247
 20
-37.5718933
 10
-18.4443116
 20
-37.733303
 10
-18.3866989
 20
-37.76141
 10
-18.129503
 20
-37.5601442
 10
-17.9238264
 20
-37.3937111
 10
-17.7270298
 20
-37.229562
 10
-17.4782483
 20
-37.0146399
 10
-17.2447635
 20
-36.8047079
 10
-17.0262753
 20
-36.600284
 10
-16.8224693
 20
-36.4018764
 10
-16.633017
 20
-36.2099829
 10
-16.4575758
 20
-36.0250904
 10
-16.2574336
 20
-35.8045441
 10
-16.077902
 20
-35.596584
 10
-15.918225
 20
-35.4020854
 10
-15.751711
 20
-35.1876444
 10
-15.590256
 20
-34.9653663
 10
-15.446121
 20
-34.7507035
 10
-15.311752
 20
-34.5292733
 10
-15.2700787
 20
-34.4536206
 10
-13.5648125
 20
-35.159965
 10
-13.6334029
 20
-35.4190604
 10
-13.685322
 20
-35.6664661
 10
-13.7291916
 20
-35.9237973
 10
-13.7663136
 20
-36.1953705
 10
-13.7954647
 20
-36.4686078
 10
-13.8166488
 20
-36.7322435
 10
-13.8326397
 20
-37.01872410000001
 10
-13.8413754
 20
-37.28237960000001
 10
-13.8447903
 20
-37.5626465
 10
-13.8421922
 20
-37.8594103
 10
-13.8349364
 20
-38.1192178
 10
-13.8226289
 20
-38.390297
 10
-13.8048741
 20
-38.6725473
 10
-13.7812786
 20
-38.96585770000001
 10
-13.7514512
 20
-39.27010670000001
 10
-13.7228411
 20
-39.5212937
 10
-13.6999896
 20
-39.7027086
 10
-13.3550841
 20
-39.8200516
 10
-13.0091737
 20
-39.9343985
 10
-12.6622844
 20
-40.0457405
 10
-12.3144424
 20
-40.1540694
 10
-12.2531421
 20
-40.1728178
 10
-12.0305977
 20
-39.93379560000001
 10
-11.8534892
 20
-39.7372367
 10
-11.684794
 20
-39.5443227
 10
-11.4726967
 20
-39.2931287
 10
-11.2749271
 20
-39.0492562
 10
-11.0911078
 20
-38.81317
 10
-10.9208488
 20
-38.5853229
 10
-10.7637476
 20
-38.366155
 10
-10.6193899
 20
-38.1560938
 10
-10.456213
 20
-37.9069537
 10
-10.3114238
 20
-37.67346890000001
 10
-10.1841389
 20
-37.456386
 10
-10.053221
 20
-37.21853660000001
 10
-9.928525699999999
 20
-36.9737379
 10
-9.8197459
 20
-36.7391703
 10
-9.721670599999999
 20
-36.4994464
 10
-9.692344999999999
 20
-36.4182059
 10
-7.897576799999999
 20
-36.8490916
 10
-7.924791299999999
 20
-37.115727
 10
-7.9373684
 20
-37.36820870000001
 10
-7.9404424
 20
-37.6292344
 10
-7.934624
 20
-37.9032713
 10
-7.9206725
 20
-38.1777048
 10
-7.900354099999999
 20
-38.4414087
 10
-7.871332599999999
 20
-38.7268638
 10
-7.838716
 20
-38.9886398
 10
-7.7982455
 20
-39.2659903
 10
-7.749255299999999
 20
-39.5586941
 10
-7.701446
 20
-39.81416779999999
 10
-7.6468838
 20
-40.07998429999999
 10
-7.585194
 20
-40.3559822
 10
-7.516005099999999
 20
-40.6419902
 10
-7.4389499
 20
-40.9378275
 10
-7.3713977
 20
-41.18144629999999
 10
-7.320447999999999
 20
-41.35705289999999
 10
-6.9614324
 20
-41.4189961
 10
-6.6018929
 20
-41.4778229
 10
-6.2418567
 20
-41.53352869999999
 10
-5.881350799999999
 20
-41.58610939999999
 10
-5.8178724
 20
-41.59503749999999
 10
-5.635459099999999
 20
-41.3241445
 10
-5.491279699999999
 20
-41.1022996
 10
-5.354839799999999
 20
-40.88537099999999
 10
-5.184649199999999
 20
-40.60409029999999
 10
-5.027464499999999
 20
-40.33228229999999
 10
-4.882840299999999
 20
-40.070347
 10
-4.7503207
 20
-39.81867070000001
 10
-4.629439099999999
 20
-39.5776251
 10
-4.519719499999999
 20
-39.34756760000001
 10
-4.397525599999999
 20
-39.07596820000001
 10
-4.291044099999999
 20
-38.8227081
 10
-4.1992855
 20
-38.588386
 10
-4.107187299999999
 20
-38.3329849
 10
-4.0223222
 20
-38.0716935
 10
-3.9515761
 20
-37.8229969
 10
-3.8922093
 20
-37.5708819
 10
-3.875953599999999
 20
-37.4860542
 10
-2.035876599999999
 20
-37.6308714
 10
-2.021044999999999
 20
-37.89848129999999
 10
-1.9939705
 20
-38.1498221
 10
-1.9561733
 20
-38.408115
 10
-1.9075576
 20
-38.67786779999999
 10
-1.850847
 20
-38.9467401
 10
-1.789526399999999
 20
-39.2040188
 10
-1.716207199999999
 20
-39.4814195
 10
-1.643041399999999
 20
-39.7348703
 10
-1.559681899999999
 20
-40.00247520000001
 10
-1.465505899999999
 20
-40.2839115
 10
-1.3783204
 20
-40.5287609
 10
-1.2828471
 20
-40.7827693
 10
-1.1787411
 20
-41.04571879999999
 10
-1.0656626
 20
-41.31738209999999
 10
-0.9432769
 20
-41.597523
 10
-0.8384459999999998
 20
-41.827575
 10
-0.7606527
 20
-41.99304929999999
 10
-0.3963671
 20
-41.99806749999999
 10
-0.0320516
 20
-41.9999257
 10
0.3322663
 20
-41.9986236
 10
0.6965591
 20
-41.9941614
 10
0.7606527
 20
-41.99304929999999
 10
0.8984431999999998
 20
-41.6969557
 10
1.0061433
 20
-41.45528749999999
 10
1.1069683
 20
-41.21968579999999
 10
1.2310616
 20
-40.91524439999999
 10
1.343790899999999
 20
-40.6221937
 10
1.445658799999999
 20
-40.3408591
 10
1.537176099999999
 20
-40.0715506
 10
1.6188616
 20
-39.81456270000001
 10
1.6912414
 20
-39.5701736
 10
1.769443399999999
 20
-39.2828028
 10
1.8349953
 20
-39.0160033
 10
1.8889682
 20
-38.770212
 10
1.939979
 20
-38.5035479
 10
1.9829243
 20
-38.2321976
 10
2.013894599999999
 20
-37.97549570000001
 10
2.0330911
 20
-37.7171977
 10
2.035876699999999
 20
-37.6308714
 10
3.875953599999999
 20
-37.4860542
 10
3.932466
 20
-37.74804920000001
 10
3.9985256
 20
-37.99206010000001
 10
4.0762634
 20
-38.2412603
 10
4.1664791
 20
-38.5000868
 10
4.2645524
 20
-38.7567774
 10
4.365365299999999
 20
-39.0012959
 10
4.4811769
 20
-39.26381170000001
 10
4.5930903
 20
-39.5026964
 10
4.7172862
 20
-39.75396639999999
 10
4.854328999999999
 20
-40.01720539999999
 10
4.9787441
 20
-40.2454014
 10
5.112777599999999
 20
-40.4813473
 10
5.256736199999999
 20
-40.7247736
 10
5.410919999999999
 20
-40.975403
 10
5.575622599999999
 20
-41.2329495
 10
5.715151
 20
-41.44377
 10
5.8178724
 20
-41.59503749999999
 10
6.178458099999999
 20
-41.5430071
 10
6.5385789
 20
-41.48785089999999
 10
6.8982077
 20
-41.4295729
 10
7.2573175
 20
-41.36817769999999
 10
7.3204481
 20
-41.35705289999999
 10
7.4102228
 20
-41.0430495
 10
7.4787917
 20
-40.7875086
 10
7.541519099999999
 20
-40.53903499999999
 10
7.6164595
 20
-40.21892939999999
 10
7.681957799999999
 20
-39.9118518
 10
7.738561099999999
 20
-39.6180453
 10
7.7868225
 20
-39.337736
 10
7.8273005
 20
-39.0711336
 10
7.8605584
 20
-38.8184307
 10
7.8928429
 20
-38.5223644
 10
7.9158511
 20
-38.2485951
 10
7.9307092
 20
-37.99738660000001
 10
7.9393766
 20
-37.7260258
 10
7.939344599999999
 20
-37.4512981
 10
7.9297766
 20
-37.1929118
 10
7.90833
 20
-36.9347909
 10
7.897576899999999
 20
-36.8490916
 10
9.692344999999999
 20
-36.4182059
 10
9.789146699999998
 20
-36.6681349
 10
9.892564699999999
 20
-36.8988076
 10
10.0083289
 20
-37.1327788
 10
10.1379233
 20
-37.37430590000001
 10
10.2749444
 20
-37.6124942
 10
10.4127673
 20
-37.8382316
 10
10.5682195
 20
-38.0793985
 10
10.7161249
 20
-38.2978351
 10
10.878099
 20
-38.52658289999999
 10
11.0546343
 20
-38.76514279999999
 10
11.2132153
 20
-38.9710666
 10
11.3825087
 20
-39.1831401
 10
11.5627752
 20
-39.4010494
 10
11.7542679
 20
-39.6244734
 10
11.9572319
 20
-39.8530839
 10
12.128022
 20
-40.0394818
 10
12.2531422
 20
-40.1728178
 10
12.6011491
 20
-40.06501989999999
 10
12.9482079
 20
-39.9542075
 10
13.2942924
 20
-39.84038870000001
 10
13.6393766
 20
-39.7235722
 10
13.6999896
 20
-39.7027086
 10
13.7395382
 20
-39.37852720000001
 10
13.7672875
 20
-39.1154059
 10
13.7903728
 20
-38.8601787
 10
13.814315
 20
-38.5322908
 10
13.8309693
 20
-38.2187477
 10
13.8409143
 20
-37.9197037
 10
13.8447315
 20
-37.6352958
 10
13.8430053
 20
-37.3656435
 10
13.8363223
 20
-37.11084920000001
 10
13.8218943
 20
-36.8133775
 10
13.8017923
 20
-36.53937949999999
 10
13.7771698
 20
-36.28893950000001
 10
13.7432803
 20
-36.01956370000001
 10
13.7002719
 20
-35.74822329999999
 10
13.6504012
 20
-35.494515
 10
13.5888396
 20
-35.242927
 10
13.5648125
 20
-35.1599649
 10
15.2700787
 20
-34.4536206
 10
15.4047862
 20
-34.6853294
 10
15.543016
 20
-34.896984
 10
15.6939562
 20
-35.1099651
 10
15.8597382
 20
-35.3282456
 10
16.0323332
 20
-35.5420665
 10
16.2037724
 20
-35.7434645
 10
16.3950376
 20
-35.9573441
 10
16.575293
 20
-36.1499539
 10
16.7710569
 20
-36.3505472
 10
16.9827378
 20
-36.55855370000001
 10
17.17158
 20
-36.7371347
 10
17.3719647
 20
-36.920114
 10
17.5841003
 20
-37.1071405
 10
17.8081866
 20
-37.2978577
 10
18.04441439999999
 20
-37.4919032
 10
18.2422608
 20
-37.64928870000001
 10
18.3866989
 20
-37.76141
 10
18.713558
 20
-37.6004991
 10
19.039009
 20
-37.4367589
 10
19.3630275
 20
-37.2702019
 10
19.685589
 20
-37.10084050000001
 10
19.742192
 20
-37.0707518
 10
19.7305405
 20
-36.74437490000001
 10
19.7167869
 20
-36.4801521
 10
19.6996617
 20
-36.2244559
 10
19.6720162
 20
-35.8968594
 10
19.6394165
 20
-35.5845713
 10
19.6024582
 20
-35.2876532
 10
19.5617373
 20
-35.0061497
 10
19.5178494
 20
-34.7400873
 10
19.4713901
 20
-34.4894753
 10
19.4106049
 20
-34.1979231
 10
19.3478877
 20
-33.9304431
 10
19.2843909
 20
-33.68693820000001
 10
19.2087789
 20
-33.4261804
 10
19.123853
 20
-33.1649087
 10
19.0349075
 20
-32.9221254
 10
18.9347468
 20
-32.6832652
 10
18.8980375
 20
-32.6050832
 10
20.4718124
 20
-31.6406727
 10
20.6411086
 20
-31.8484559
 10
20.8107467
 20
-32.0358808
 10
20.9931462
 20
-32.2226275
 10
21.1910337
 20
-32.4122866
 10
21.3949528
 20
-32.5964752
 10
21.5957868
 20
-32.76857469999999
 10
21.8181553
 20
-32.9499006
 10
22.0263223
 20
-33.1119409
 10
22.25105580000001
 20
-33.2794403
 10
22.4926699
 20
-33.4517718
 10
22.7071234
 20
-33.59861270000001
 10
22.9336653
 20
-33.74799210000001
 10
23.1724466
 20
-33.8995307
 10
23.4236087
 20
-34.0528451
 10
23.6872835
 20
-34.2075473
 10
23.9073146
 20
-34.3320452
 10
24.0675141
 20
-34.42019099999999
 10
24.365177
 20
-34.2101291
 10
24.6610066
 20
-33.99749310000001
 10
24.9549806
 20
-33.782299
 10
25.2470769
 20
-33.564563
 10
25.2982761
 20
-33.5259901
 10
25.2357114
 20
-33.20545410000001
 10
25.1807936
 20
-32.9466359
 10
25.1238795
 20
-32.69676670000001
 10
25.045327
 20
-32.3775282
 10
24.9642761
 20
-32.0741845
 10
24.8813246
 20
-31.7867036
 10
24.7970681
 20
-31.515036
 10
24.7120993
 20
-31.2591149
 10
24.6270076
 20
-31.0188562
 10
24.5213619
 20
-30.7404023
 10
24.4175738
 20
-30.4860266
 10
24.3167662
 20
-30.2554527
 10
24.20129360000001
 20
-30.0097336
 10
24.0765413
 20
-29.7649639
 10
23.9507113
 20
-29.5390839
 10
23.8144178
 20
-29.318833
 10
23.76593
 20
-29.2473562
 10
25.1694622
 20
-28.0486265
 10
25.3691785
 20
-28.2273678
 10
25.5660478
 20
-28.3859479
 10
25.7754152
 20
-28.5418619
 10
26.0005357
 20
-28.6982295
 10
26.2307576
 20
-28.8482505
 10
26.4560413
 20
-28.98681380000001
 10
26.7040377
 20
-29.1311212
 10
26.9349905
 20
-29.25860200000001
 10
27.1831598
 20
-29.3888831
 10
27.4487578
 20
-29.5212962
 10
27.683542
 20
-29.6327814
 10
27.9306629
 20
-29.7448826
 10
28.1902103
 20
-29.857202
 10
28.4622638
 20
-29.96933830000001
 10
28.74689310000001
 20
-30.0808881
 10
28.9836911
 20
-30.1694328
 10
29.1557072
 20
-30.2314326
 10
29.4168445
 20
-29.9773922
 10
29.6757683
 20
-29.7210962
 10
29.9324593
 20
-29.46256380000001
 10
30.186898
 20
-29.2018146
 10
30.2314326
 20
-29.1557072
 10
30.1194954
 20
-28.8489049
 10
30.0247656
 20
-28.6018641
 10
29.9294641
 20
-28.3639746
 10
29.8019388
 20
-28.0609548
 10
29.67443230000001
 20
-27.7740249
 10
29.5475302
 20
-27.5030598
 10
29.4218128
 20
-27.2479175
 10
29.2978553
 20
-27.0084393
 10
29.1762264
 20
-26.7844498
 10
29.0283217
 20
-26.52595080000001
 10
28.8860182
 20
-26.2909429
 10
28.750382
 20
-26.0789776
 10
28.5978921
 20
-25.8543475
 10
28.4363854
 20
-25.6321069
 10
28.2767691
 20
-25.428692
 10
28.1076987
 20
-25.2324738
 10
28.0486265
 20
-25.1694621
 10
29.2473562
 20
-23.76593
 10
29.472575
 20
-23.9112282
 10
29.69182789999999
 20
-24.0370588
 10
29.92300800000001
 20
-24.158301
 10
30.16981810000001
 20
-24.2775268
 10
30.420674
 20
-24.3896862
 10
30.6648602
 20
-24.4913014
 10
30.9323781
 20
-24.5950369
 10
31.1804298
 20
-24.6848192
 10
31.4459242
 20
-24.7746742
 10
31.7289663
 20
-24.8639083
 10
31.9783
 20
-24.9372926
 10
32.23991489999999
 20
-25.0093555
 10
32.5138374
 20
-25.0796898
 10
32.8000836
 20
-25.147887
 10
33.0986588
 20
-25.2135376
 10
33.34639280000001
 20
-25.2639488
 10
33.5259901
 20
-25.2982761
 10
33.7441716
 20
-25.0065124
 10
33.9598142
 20
-24.7128672
 10
34.17290139999999
 20
-24.4173625
 10
34.3834174
 20
-24.1200205
 10
34.42019099999999
 20
-24.0675141
 10
34.2616374
 20
-23.7819998
 10
34.1294283
 20
-23.55281960000001
 10
33.9980859
 20
-23.3327673
 10
33.8247279
 20
-23.0534275
 10
33.6539055
 20
-22.7899766
 10
33.48617750000001
 20
-22.5421995
 10
33.3220949
 20
-22.3098649
 10
33.1622008
 20
-22.0927262
 10
33.00702970000001
 20
-21.8905214
 10
32.8205078
 20
-21.6583424
 10
32.6431929
 20
-21.448489
 10
32.476068
 20
-21.2603515
 10
32.2903157
 20
-21.0623416
 10
32.0960312
 20
-20.8681024
 10
31.906559
 20
-20.69216139999999
 10
31.7088749
 20
-20.5248074
 10
31.6406727
 20
-20.4718124
 10
32.6050833
 20
-18.8980375
 10
32.8502589
 20
-19.0063148
 10
33.0864967
 20
-19.0962975
 10
33.333797
 20
-19.1798824
 10
33.59621950000001
 20
-19.2590308
 10
33.8615326
 20
-19.3305668
 10
34.1186085
 20
-19.3927318
 10
34.39906060000001
 20
-19.4533412
 10
34.6581035
 20
-19.5032143
 10
34.93438560000001
 20
-19.5504305
 10
35.2279022
 20
-19.5942885
 10
35.48564610000001
 20
-19.6277649
 10
35.7553132
 20
-19.658015
 10
36.036866
 20
-19.6846324
 10
36.3302564
 20
-19.7072113
 10
36.6354256
 20
-19.7253462
 10
36.8879957
 20
-19.7363826
 10
37.0707518
 20
-19.742192
 10
37.2406053
 20
-19.4198893
 10
37.4076566
 20
-19.0961254
 10
37.5718933
 20
-18.7709247
 10
37.733303
 20
-18.4443116
 10
37.76141
 20
-18.3866989
 10
37.5601442
 20
-18.129503
 10
37.3937111
 20
-17.9238264
 10
37.229562
 20
-17.7270298
 10
37.01464
 20
-17.4782483
 10
36.8047079
 20
-17.2447635
 10
36.600284
 20
-17.0262753
 10
36.4018764
 20
-16.8224693
 10
36.2099829
 20
-16.633017
 10
36.0250904
 20
-16.4575758
 10
35.8045441
 20
-16.2574336
 10
35.596584
 20
-16.077902
 10
35.4020854
 20
-15.9182249
 10
35.1876444
 20
-15.751711
 10
34.9653663
 20
-15.590256
 10
34.7507035
 20
-15.446121
 10
34.5292733
 20
-15.311752
 10
34.4536206
 20
-15.2700787
 10
35.159965
 20
-13.5648125
 10
35.4190604
 20
-13.6334029
 10
35.6664661
 20
-13.685322
 10
35.9237973
 20
-13.7291916
 10
36.1953705
 20
-13.7663136
 10
36.4686078
 20
-13.7954647
 10
36.7322435
 20
-13.8166488
 10
37.01872410000001
 20
-13.8326396
 10
37.28237960000001
 20
-13.8413754
 10
37.5626465
 20
-13.8447903
 10
37.8594103
 20
-13.8421922
 10
38.1192178
 20
-13.8349364
 10
38.390297
 20
-13.8226289
 10
38.6725473
 20
-13.8048741
 10
38.96585770000001
 20
-13.7812786
 10
39.27010670000001
 20
-13.7514512
 10
39.5212937
 20
-13.7228411
 10
39.7027086
 20
-13.6999896
 10
39.8200516
 20
-13.3550841
 10
39.9343985
 20
-13.0091737
 10
40.0457405
 20
-12.6622844
 10
40.1540694
 20
-12.3144424
 10
40.1728178
 20
-12.2531421
 10
39.93379560000001
 20
-12.0305977
 10
39.7372367
 20
-11.8534892
 10
39.5443227
 20
-11.684794
 10
39.2931287
 20
-11.4726967
 10
39.0492562
 20
-11.2749271
 10
38.81317
 20
-11.0911078
 10
38.5853229
 20
-10.9208488
 10
38.366155
 20
-10.7637476
 10
38.1560938
 20
-10.6193899
 10
37.9069537
 20
-10.456213
 10
37.673469
 20
-10.3114238
 10
37.456386
 20
-10.1841389
 10
37.21853660000001
 20
-10.053221
 10
36.9737379
 20
-9.928525699999999
 10
36.7391703
 20
-9.8197459
 10
36.4994464
 20
-9.721670599999999
 10
36.4182059
 20
-9.692344999999999
 10
36.8490916
 20
-7.897576799999999
 10
37.115727
 20
-7.924791299999999
 10
37.36820870000001
 20
-7.9373684
 10
37.6292344
 20
-7.9404424
 10
37.9032713
 20
-7.934624
 10
38.1777048
 20
-7.9206725
 10
38.4414087
 20
-7.900354099999999
 10
38.7268638
 20
-7.871332599999999
 10
38.9886398
 20
-7.838716
 10
39.2659903
 20
-7.7982455
 10
39.5586941
 20
-7.749255299999999
 10
39.81416779999999
 20
-7.701446
 10
40.07998429999999
 20
-7.6468838
 10
40.3559822
 20
-7.5851939
 10
40.6419902
 20
-7.516005099999999
 10
40.9378275
 20
-7.4389499
 10
41.18144629999999
 20
-7.3713977
 10
41.35705289999999
 20
-7.320447999999999
 10
41.4189961
 20
-6.9614324
 10
41.4778229
 20
-6.6018929
 10
41.53352869999999
 20
-6.2418567
 10
41.58610939999999
 20
-5.881350799999999
 10
41.59503749999999
 20
-5.817872299999999
 10
41.3241445
 20
-5.635459099999999
 10
41.1022996
 20
-5.491279699999999
 10
40.88537099999999
 20
-5.354839799999999
 10
40.60409029999999
 20
-5.184649199999999
 10
40.33228229999999
 20
-5.027464499999999
 10
40.070347
 20
-4.882840299999999
 10
39.81867070000001
 20
-4.7503206
 10
39.5776251
 20
-4.629439099999999
 10
39.34756760000001
 20
-4.519719499999999
 10
39.07596820000001
 20
-4.397525599999999
 10
38.8227081
 20
-4.291044099999999
 10
38.588386
 20
-4.1992855
 10
38.3329849
 20
-4.107187299999999
 10
38.0716935
 20
-4.0223222
 10
37.8229969
 20
-3.9515761
 10
37.5708819
 20
-3.8922093
 10
37.4860542
 20
-3.875953599999999
 10
37.6308714
 20
-2.035876599999999
 10
37.89848129999999
 20
-2.0210451
  0
ENDSEC
  0
SECTION
  2
OBJECTS
  0
DICTIONARY
  5
C
330
0
100
AcDbDictionary
281
     1
  3
ACAD_CIP_PREVIOUS_PRODUCT_INFO
350
6C1
  3
ACAD_COLOR
350
62
  3
ACAD_DETAILVIEWSTYLE
350
6A
  3
ACAD_GROUP
350
D
  3
ACAD_LAYOUT
350
61
  3
ACAD_MATERIAL
350
10
  3
ACAD_MLEADERSTYLE
350
65
  3
ACAD_MLINESTYLE
350
5E
  3
ACAD_PLOTSETTINGS
350
60
  3
ACAD_PLOTSTYLENAME
350
E
  3
ACAD_SCALELIST
350
42
  3
ACAD_SECTIONVIEWSTYLE
350
67
  3
ACAD_TABLESTYLE
350
63
  3
ACAD_VISUALSTYLE
350
29
  3
ACDB_RECOMPOSE_DATA
350
6D0
  3
AcDbVariableDictionary
350
6C4
  0
DICTIONARY
  5
6C2
330
54
100
AcDbDictionary
280
     1
281
     1
  3
ADSK_XREC_LAYER_RECONCILED
360
6C3
  0
XRECORD
  5
6C1
102
{ACAD_REACTORS
330
C
102
}
330
C
100
AcDbXrecord
280
     1
300
ACD
300
2013
300
ACD_F_S
  0
DICTIONARY
  5
62
102
{ACAD_REACTORS
330
C
102
}
330
C
100
AcDbDictionary
281
     1
  0
DICTIONARY
  5
6A
102
{ACAD_REACTORS
330
C
102
}
330
C
100
AcDbDictionary
281
     1
  3
Imperial24
350
6B
  0
DICTIONARY
  5
D
102
{ACAD_REACTORS
330
C
102
}
330
C
100
AcDbDictionary
281
     1
  0
DICTIONARY
  5
61
102
{ACAD_REACTORS
330
C
102
}
330
C
100
AcDbDictionary
281
     1
  3
Layout1
350
6F
  3
Model
350
73
  0
DICTIONARY
  5
10
102
{ACAD_REACTORS
330
C
102
}
330
C
100
AcDbDictionary
281
     1
  3
ByBlock
350
19
  3
ByLayer
350
11
  3
Global
350
21
  0
DICTIONARY
  5
65
102
{ACAD_REACTORS
330
C
102
}
330
C
100
AcDbDictionary
281
     1
  3
Standard
350
66
  0
DICTIONARY
  5
5E
102
{ACAD_REACTORS
330
C
102
}
330
C
100
AcDbDictionary
281
     1
  3
Standard
350
5F
  0
DICTIONARY
  5
60
102
{ACAD_REACTORS
330
C
102
}
330
C
100
AcDbDictionary
281
     1
  0
ACDBDICTIONARYWDFLT
  5
E
102
{ACAD_REACTORS
330
C
102
}
330
C
100
AcDbDictionary
281
     1
  3
Normal
350
F
100
AcDbDictionaryWithDefault
340
F
  0
DICTIONARY
  5
42
102
{ACAD_REACTORS
330
C
102
}
330
C
100
AcDbDictionary
281
     1
  3
A0
350
43
  3
A1
350
44
  3
A2
350
45
  3
A3
350
46
  3
A4
350
47
  3
A5
350
48
  3
A6
350
49
  3
A7
350
4A
  3
A8
350
4B
  3
A9
350
4C
  3
B0
350
4D
  3
B1
350
4E
  3
B2
350
4F
  3
B3
350
50
  3
B4
350
51
  3
B5
350
52
  3
B6
350
53
  0
DICTIONARY
  5
67
102
{ACAD_REACTORS
330
C
102
}
330
C
100
AcDbDictionary
281
     1
  3
Imperial24
350
69
  0
DICTIONARY
  5
63
102
{ACAD_REACTORS
330
C
102
}
330
C
100
AcDbDictionary
281
     1
  3
Standard
350
64
  0
DICTIONARY
  5
29
102
{ACAD_REACTORS
330
C
102
}
330
C
100
AcDbDictionary
281
     1
  3
2dWireframe
350
2F
  3
Basic
350
2E
  3
Brighten
350
35
  3
ColorChange
350
39
  3
Conceptual
350
32
  3
Dim
350
34
  3
EdgeColorOff
350
41
  3
Facepattern
350
38
  3
Flat
350
2A
  3
FlatWithEdges
350
2B
  3
Gouraud
350
2C
  3
GouraudWithEdges
350
2D
  3
Hidden
350
31
  3
JitterOff
350
3F
  3
Linepattern
350
37
  3
OverhangOff
350
40
  3
Realistic
350
33
  3
Shaded
350
3E
  3
Shaded with edges
350
3D
  3
Shades of Gray
350
3A
  3
Sketchy
350
3B
  3
Thicken
350
36
  3
Wireframe
350
30
  3
X-Ray
350
3C
  0
XRECORD
  5
6D0
102
{ACAD_REACTORS
330
C
102
}
330
C
100
AcDbXrecord
280
     1
 90
        1
330
64
  0
DICTIONARY
  5
6C4
102
{ACAD_REACTORS
330
C
102
}
330
C
100
AcDbDictionary
281
     1
  3
CANNOSCALE
350
6CA
  3
CMLEADERSTYLE
350
6C6
  3
CTABLESTYLE
350
6C5
  3
CVIEWDETAILSTYLE
350
6C7
  3
CVIEWSECTIONSTYLE
350
6C8
  3
LAYEREVAL
350
6CC
  3
LAYERNOTIFY
350
6CD
  3
LIGHTINGUNITS
350
6CB
  3
MSLTSCALE
350
6C9
  0
XRECORD
  5
6C3
102
{ACAD_REACTORS
330
6C2
102
}
330
6C2
100
AcDbXrecord
280
     1
290
     1
  0
ACDBDETAILVIEWSTYLE
  5
6B
102
{ACAD_REACTORS
330
6A
102
}
330
6A
100
AcDbModelDocViewStyle
 70
     0
  3
Imperial24
290
     0
100
AcDbDetailViewStyle
 70
     0
 71
     0
 90
        3
 71
     1
340
55
 62
   256
 40
0.24
340
0
 62
   256
 40
0.24
300

 40
0.36
280
     3
 71
     2
340
5C
 90
       25
 62
   256
 71
     3
340
55
 62
   256
 40
0.24
 90
        1
 40
0.75
 90
        1
300
%<\AcVar ViewType \f "%tc1">% %<\AcVar ViewDetailId>%\PSCALE %<\AcVar ViewScale \f "%sn">%
 71
     4
340
5C
 90
       25
 62
   256
340
5C
 90
       25
 62
   256
280
     0
  0
LAYOUT
  5
6F
102
{ACAD_REACTORS
330
61
102
}
330
61
100
AcDbPlotSettings
  1

  2
Microsoft XPS Document Writer
  4

  6

 40
0.0
 41
0.0
 42
0.0
 43
0.0
 44
0.0
 45
0.0
 46
0.0
 47
0.0
 48
0.0
 49
0.0
140
0.0
141
0.0
142
1.0
143
1.0
 70
   688
 72
     0
 73
     0
 74
     5
  7

 75
    16
147
1.0
 76
     0
 77
     2
 78
   300
148
0.0
149
0.0
100
AcDbLayout
  1
Layout1
 70
     1
 71
     1
 10
0.0
 20
0.0
 11
12.0
 21
9.0
 12
0.0
 22
0.0
 32
0.0
 14
1.000000000000000E+20
 24
1.000000000000000E+20
 34
1.000000000000000E+20
 15
-1.000000000000000E+20
 25
-1.000000000000000E+20
 35
-1.000000000000000E+20
146
0.0
 13
0.0
 23
0.0
 33
0.0
 16
1.0
 26
0.0
 36
0.0
 17
0.0
 27
1.0
 37
0.0
 76
     0
330
6C
  0
LAYOUT
  5
73
102
{ACAD_REACTORS
330
61
102
}
330
61
100
AcDbPlotSettings
  1

  2
Microsoft XPS Document Writer
  4

  6

 40
0.0
 41
0.0
 42
0.0
 43
0.0
 44
0.0
 45
0.0
 46
0.0
 47
0.0
 48
0.0
 49
0.0
140
0.0
141
0.0
142
1.0
143
1.0
 70
  1712
 72
     0
 73
     0
 74
     0
  7

 75
     0
147
1.0
 76
     0
 77
     2
 78
   300
148
0.0
149
0.0
100
AcDbLayout
  1
Model
 70
     1
 71
     0
 10
0.0
 20
0.0
 11
12.0
 21
9.0
 12
0.0
 22
0.0
 32
0.0
 14
0.0
 24
0.0
 34
0.0
 15
0.0
 25
0.0
 35
0.0
146
0.0
 13
0.0
 23
0.0
 33
0.0
 16
1.0
 26
0.0
 36
0.0
 17
0.0
 27
1.0
 37
0.0
 76
     0
330
70
331
6C0
  0
MATERIAL
  5
19
102
{ACAD_XDICTIONARY
360
1A
102
}
102
{ACAD_REACTORS
330
10
102
}
330
10
100
AcDbMaterial
  1
ByBlock
 72
     0
 43
0.0208333333333333
 43
0.0
 43
0.0
 43
0.0
 43
0.0
 43
0.0208333333333333
 43
0.0
 43
0.0
 43
0.0
 43
0.0
 43
1.0
 43
0.0
 43
0.0
 43
0.0
 43
0.0
 43
1.0
 77
     0
 47
0.0208333333333333
 47
0.0
 47
0.0
 47
0.0
 47
0.0
 47
0.0208333333333333
 47
0.0
 47
0.0
 47
0.0
 47
0.0
 47
1.0
 47
0.0
 47
0.0
 47
0.0
 47
0.0
 47
1.0
171
     0
 49
0.0208333333333333
 49
0.0
 49
0.0
 49
0.0
 49
0.0
 49
0.0208333333333333
 49
0.0
 49
0.0
 49
0.0
 49
0.0
 49
1.0
 49
0.0
 49
0.0
 49
0.0
 49
0.0
 49
1.0
175
     0
142
0.0208333333333333
142
0.0
142
0.0
142
0.0
142
0.0
142
0.0208333333333333
142
0.0
142
0.0
142
0.0
142
0.0
142
1.0
142
0.0
142
0.0
142
0.0
142
0.0
142
1.0
179
     0
144
0.0208333333333333
144
0.0
144
0.0
144
0.0
144
0.0
144
0.0208333333333333
144
0.0
144
0.0
144
0.0
144
0.0
144
1.0
144
0.0
144
0.0
144
0.0
144
0.0
144
1.0
147
0.0208333333333333
147
0.0
147
0.0
147
0.0
147
0.0
147
0.0208333333333333
147
0.0
147
0.0
147
0.0
147
0.0
147
1.0
147
0.0
147
0.0
147
0.0
147
0.0
147
1.0
  0
MATERIAL
  5
11
102
{ACAD_XDICTIONARY
360
12
102
}
102
{ACAD_REACTORS
330
10
102
}
330
10
100
AcDbMaterial
  1
ByLayer
 72
     0
 43
0.0208333333333333
 43
0.0
 43
0.0
 43
0.0
 43
0.0
 43
0.0208333333333333
 43
0.0
 43
0.0
 43
0.0
 43
0.0
 43
1.0
 43
0.0
 43
0.0
 43
0.0
 43
0.0
 43
1.0
 77
     0
 47
0.0208333333333333
 47
0.0
 47
0.0
 47
0.0
 47
0.0
 47
0.0208333333333333
 47
0.0
 47
0.0
 47
0.0
 47
0.0
 47
1.0
 47
0.0
 47
0.0
 47
0.0
 47
0.0
 47
1.0
171
     0
 49
0.0208333333333333
 49
0.0
 49
0.0
 49
0.0
 49
0.0
 49
0.0208333333333333
 49
0.0
 49
0.0
 49
0.0
 49
0.0
 49
1.0
 49
0.0
 49
0.0
 49
0.0
 49
0.0
 49
1.0
175
     0
142
0.0208333333333333
142
0.0
142
0.0
142
0.0
142
0.0
142
0.0208333333333333
142
0.0
142
0.0
142
0.0
142
0.0
142
1.0
142
0.0
142
0.0
142
0.0
142
0.0
142
1.0
179
     0
144
0.0208333333333333
144
0.0
144
0.0
144
0.0
144
0.0
144
0.0208333333333333
144
0.0
144
0.0
144
0.0
144
0.0
144
1.0
144
0.0
144
0.0
144
0.0
144
0.0
144
1.0
147
0.0208333333333333
147
0.0
147
0.0
147
0.0
147
0.0
147
0.0208333333333333
147
0.0
147
0.0
147
0.0
147
0.0
147
1.0
147
0.0
147
0.0
147
0.0
147
0.0
147
1.0
  0
MATERIAL
  5
21
102
{ACAD_XDICTIONARY
360
22
102
}
102
{ACAD_REACTORS
330
10
102
}
330
10
100
AcDbMaterial
  1
Global
 72
     0
 43
0.0208333333333333
 43
0.0
 43
0.0
 43
0.0
 43
0.0
 43
0.0208333333333333
 43
0.0
 43
0.0
 43
0.0
 43
0.0
 43
1.0
 43
0.0
 43
0.0
 43
0.0
 43
0.0
 43
1.0
 77
     0
 47
0.0208333333333333
 47
0.0
 47
0.0
 47
0.0
 47
0.0
 47
0.0208333333333333
 47
0.0
 47
0.0
 47
0.0
 47
0.0
 47
1.0
 47
0.0
 47
0.0
 47
0.0
 47
0.0
 47
1.0
171
     0
 49
0.0208333333333333
 49
0.0
 49
0.0
 49
0.0
 49
0.0
 49
0.0208333333333333
 49
0.0
 49
0.0
 49
0.0
 49
0.0
 49
1.0
 49
0.0
 49
0.0
 49
0.0
 49
0.0
 49
1.0
175
     0
142
0.0208333333333333
142
0.0
142
0.0
142
0.0
142
0.0
142
0.0208333333333333
142
0.0
142
0.0
142
0.0
142
0.0
142
1.0
142
0.0
142
0.0
142
0.0
142
0.0
142
1.0
179
     0
144
0.0208333333333333
144
0.0
144
0.0
144
0.0
144
0.0
144
0.0208333333333333
144
0.0
144
0.0
144
0.0
144
0.0
144
1.0
144
0.0
144
0.0
144
0.0
144
0.0
144
1.0
147
0.0208333333333333
147
0.0
147
0.0
147
0.0
147
0.0
147
0.0208333333333333
147
0.0
147
0.0
147
0.0
147
0.0
147
1.0
147
0.0
147
0.0
147
0.0
147
0.0
147
1.0
  0
MLEADERSTYLE
  5
66
102
{ACAD_REACTORS
330
65
102
}
330
65
100
AcDbMLeaderStyle
179
     2
170
     2
171
     1
172
     0
 90
        2
 40
0.0
 41
0.0
173
     1
 91
-1056964608
340
5A
 92
       -2
290
     1
 42
0.09
291
     1
 43
0.36
  3
Standard
 44
0.18
300

342
55
174
     1
178
     6
175
     1
176
     0
 93
-1056964608
 45
0.18
292
     0
297
     0
 46
0.18
 94
-1056964608
 47
1.0
 49
1.0
140
1.0
293
     1
141
0.0
294
     1
177
     0
142
1.0
295
     0
296
     0
143
0.125
271
     0
272
     9
273
     9
298
     0
  0
MLINESTYLE
  5
5F
102
{ACAD_REACTORS
330
5E
102
}
330
5E
100
AcDbMlineStyle
  2
STANDARD
 70
     0
  3

 62
   256
 51
90.0
 52
90.0
 71
     2
 49
0.5
 62
   256
  6
BYLAYER
 49
-0.5
 62
   256
  6
BYLAYER
  0
ACDBPLACEHOLDER
  5
F
102
{ACAD_REACTORS
330
E
102
}
330
E
  0
SCALE
  5
43
102
{ACAD_REACTORS
330
42
102
}
330
42
100
AcDbScale
 70
     0
300
1:1
140
1.0
141
1.0
290
     1
  0
SCALE
  5
44
102
{ACAD_REACTORS
330
42
102
}
330
42
100
AcDbScale
 70
     0
300
1/128" = 1'-0"
140
0.0078125
141
12.0
290
     0
  0
SCALE
  5
45
102
{ACAD_REACTORS
330
42
102
}
330
42
100
AcDbScale
 70
     0
300
1/64" = 1'-0"
140
0.015625
141
12.0
290
     0
  0
SCALE
  5
46
102
{ACAD_REACTORS
330
42
102
}
330
42
100
AcDbScale
 70
     0
300
1/32" = 1'-0"
140
0.03125
141
12.0
290
     0
  0
SCALE
  5
47
102
{ACAD_REACTORS
330
42
102
}
330
42
100
AcDbScale
 70
     0
300
1/16" = 1'-0"
140
0.0625
141
12.0
290
     0
  0
SCALE
  5
48
102
{ACAD_REACTORS
330
42
102
}
330
42
100
AcDbScale
 70
     0
300
3/32" = 1'-0"
140
0.09375
141
12.0
290
     0
  0
SCALE
  5
49
102
{ACAD_REACTORS
330
42
102
}
330
42
100
AcDbScale
 70
     0
300
1/8" = 1'-0"
140
0.125
141
12.0
290
     0
  0
SCALE
  5
4A
102
{ACAD_REACTORS
330
42
102
}
330
42
100
AcDbScale
 70
     0
300
3/16" = 1'-0"
140
0.1875
141
12.0
290
     0
  0
SCALE
  5
4B
102
{ACAD_REACTORS
330
42
102
}
330
42
100
AcDbScale
 70
     0
300
1/4" = 1'-0"
140
0.25
141
12.0
290
     0
  0
SCALE
  5
4C
102
{ACAD_REACTORS
330
42
102
}
330
42
100
AcDbScale
 70
     0
300
3/8" = 1'-0"
140
0.375
141
12.0
290
     0
  0
SCALE
  5
4D
102
{ACAD_REACTORS
330
42
102
}
330
42
100
AcDbScale
 70
     0
300
1/2" = 1'-0"
140
0.5
141
12.0
290
     0
  0
SCALE
  5
4E
102
{ACAD_REACTORS
330
42
102
}
330
42
100
AcDbScale
 70
     0
300
3/4" = 1'-0"
140
0.75
141
12.0
290
     0
  0
SCALE
  5
4F
102
{ACAD_REACTORS
330
42
102
}
330
42
100
AcDbScale
 70
     0
300
1" = 1'-0"
140
1.0
141
12.0
290
     0
  0
SCALE
  5
50
102
{ACAD_REACTORS
330
42
102
}
330
42
100
AcDbScale
 70
     0
300
1-1/2" = 1'-0"
140
1.5
141
12.0
290
     0
  0
SCALE
  5
51
102
{ACAD_REACTORS
330
42
102
}
330
42
100
AcDbScale
 70
     0
300
3" = 1'-0"
140
3.0
141
12.0
290
     0
  0
SCALE
  5
52
102
{ACAD_REACTORS
330
42
102
}
330
42
100
AcDbScale
 70
     0
300
6" = 1'-0"
140
6.0
141
12.0
290
     0
  0
SCALE
  5
53
102
{ACAD_REACTORS
330
42
102
}
330
42
100
AcDbScale
 70
     0
300
1'-0" = 1'-0"
140
12.0
141
12.0
290
     0
  0
ACDBSECTIONVIEWSTYLE
  5
69
102
{ACAD_REACTORS
330
67
102
}
330
67
100
AcDbModelDocViewStyle
 70
     0
  3
Imperial24
290
     0
100
AcDbSectionViewStyle
 70
     0
 71
     0
 90
       78
 71
     1
340
55
 62
   256
 40
0.24
340
0
340
0
 62
   256
 40
0.24
300
I, O, Q, S, X, Z
 40
0.48
 90
        3
 40
0.18
 90
        1
 71
     2
340
68
 90
       25
 62
   256
340
5C
 90
       50
 62
   256
 40
0.24
 40
0.0
 40
0.24
 71
     3
340
55
 62
   256
 40
0.24
 90
        1
 40
0.75
 90
        1
300
%<\AcVar ViewType \f "%tc1">% %<\AcVar ViewSectionStartId>%-%<\AcVar ViewSectionEndId>%\PSCALE %<\AcVar ViewScale \f "%sn">%
 71
     4
 62
   256
 62
   257
300
ANSI31
 40
1.0
 90
        0
290
     0
290
     0
 90
        6
 40
0.0
 40
1.570796326794896
 40
0.2617993877991494
 40
1.308996938995747
 40
-0.2617993877991494
 40
1.832595714594046
  0
TABLESTYLE
  5
64
102
{ACAD_XDICTIONARY
360
6CE
102
}
102
{ACAD_REACTORS
330
63
102
}
330
63
100
AcDbTableStyle
280
     0
  3
Standard
 70
     0
 71
     0
 40
0.06
 41
0.06
280
     0
281
     0
  7
Standard
140
0.18
170
     2
 62
     0
 63
     7
283
     0
 90
      512
 91
        0
  1

274
    -2
284
     1
 64
     0
275
    -2
285
     1
 65
     0
276
    -2
286
     1
 66
     0
277
    -2
287
     1
 67
     0
278
    -2
288
     1
 68
     0
279
    -2
289
     1
 69
     0
  7
Standard
140
0.25
170
     5
 62
     0
 63
     7
283
     0
 90
      512
 91
        0
  1

274
    -2
284
     1
 64
     0
275
    -2
285
     1
 65
     0
276
    -2
286
     1
 66
     0
277
    -2
287
     1
 67
     0
278
    -2
288
     1
 68
     0
279
    -2
289
     1
 69
     0
  7
Standard
140
0.18
170
     5
 62
     0
 63
     7
283
     0
 90
      512
 91
        0
  1

274
    -2
284
     1
 64
     0
275
    -2
285
     1
 65
     0
276
    -2
286
     1
 66
     0
277
    -2
287
     1
 67
     0
278
    -2
288
     1
 68
     0
279
    -2
289
     1
 69
     0
  0
VISUALSTYLE
  5
2F
102
{ACAD_REACTORS
330
29
102
}
330
29
100
AcDbVisualStyle
  2
2dWireframe
 70
     4
177
     3
291
     0
 70
    58
 90
        0
176
     1
 90
        2
176
     1
 90
        0
176
     1
 90
        0
176
     1
 40
0.6
176
     1
 40
30.0
176
     1
 62
     7
420
 16777215
176
     1
 90
        1
176
     1
 90
        4
176
     1
 62
     7
176
     1
 62
   257
176
     1
 90
        1
176
     1
 90
        1
176
     1
 40
1.0
176
     1
 90
        0
176
     1
 62
   257
176
     1
 40
1.0
176
     1
 90
        1
176
     1
 90
        6
176
     1
 90
        2
176
     1
 62
     7
176
     1
 90
        5
176
     1
 90
        0
176
     1
 90
        0
176
     1
290
     0
176
     1
 90
        1
176
     1
 40
0.0
176
     1
 90
        0
176
     1
290
     1
176
     1
290
     1
176
     1
290
     0
176
     1
290
     0
176
     1
290
     0
176
     1
290
     0
176
     1
290
     0
176
     1
290
     0
176
     1
290
     0
176
     1
 90
       50
176
     1
 40
0.0
176
     1
 40
1.0
176
     1
 90
        0
176
     1
 62
    18
420
        0
176
     1
 90
       50
176
     1
 90
        3
176
     1
 62
     5
420
      255
176
     1
290
     0
176
     1
 90
       50
176
     1
 90
       50
176
     1
 90
       50
176
     1
290
     0
176
     1
 90
       50
176
     1
 62
   256
176
     0
 40
1.0
176
     0
 90
        2
176
     1
  1
strokes_ogs.tif
176
     1
290
     0
176
     1
 40
1.0
176
     1
 40
1.0
176
     1
  0
VISUALSTYLE
  5
2E
102
{ACAD_REACTORS
330
29
102
}
330
29
100
AcDbVisualStyle
  2
Basic
 70
     7
177
     3
291
     1
 70
    58
 90
        1
176
     1
 90
        0
176
     1
 90
        1
176
     1
 90
        0
176
     1
 40
0.6
176
     1
 40
30.0
176
     1
 62
     7
420
 16777215
176
     1
 90
        0
176
     1
 90
        4
176
     1
 62
     7
176
     1
 62
   257
176
     1
 90
        1
176
     1
 90
        1
176
     1
 40
1.0
176
     1
 90
        8
176
     1
 62
     7
176
     1
 40
1.0
176
     1
 90
        1
176
     1
 90
        6
176
     1
 90
        2
176
     1
 62
     7
176
     1
 90
        5
176
     1
 90
        0
176
     1
 90
        0
176
     1
290
     0
176
     1
 90
        1
176
     1
 40
0.0
176
     1
 90
        0
176
     1
290
     0
176
     1
290
     1
176
     1
290
     1
176
     1
290
     0
176
     1
290
     0
176
     1
290
     0
176
     1
290
     0
176
     1
290
     0
176
     1
290
     0
176
     1
 90
       50
176
     1
 40
0.0
176
     1
 40
1.0
176
     1
 90
        0
176
     1
 62
    18
420
        0
176
     1
 90
       50
176
     1
 90
        3
176
     1
 62
     5
420
      255
176
     1
290
     0
176
     1
 90
       50
176
     1
 90
       50
176
     1
 90
       50
176
     1
290
     0
176
     1
 90
       50
176
     1
 62
   256
176
     0
 40
1.0
176
     0
 90
        2
176
     1
  1
strokes_ogs.tif
176
     1
290
     0
176
     1
 40
1.0
176
     1
 40
1.0
176
     1
  0
VISUALSTYLE
  5
35
102
{ACAD_REACTORS
330
29
102
}
330
29
100
AcDbVisualStyle
  2
Brighten
 70
    12
177
     3
291
     1
 70
    58
 90
        2
176
     1
 90
        2
176
     1
 90
        0
176
     1
 90
        0
176
     1
 40
0.6
176
     1
 40
30.0
176
     1
 62
     7
420
 16777215
176
     1
 90
        1
176
     1
 90
        4
176
     1
 62
     7
176
     1
 62
   257
176
     1
 90
        1
176
     1
 90
        1
176
     1
 40
1.0
176
     1
 90
        8
176
     1
 62
     7
176
     1
 40
1.0
176
     1
 90
        1
176
     1
 90
        6
176
     1
 90
        2
176
     1
 62
     7
176
     1
 90
        5
176
     1
 90
        0
176
     1
 90
        0
176
     1
290
     0
176
     1
 90
        1
176
     1
 40
50.0
176
     1
 90
        0
176
     1
290
     0
176
     1
290
     1
176
     1
290
     1
176
     1
290
     0
176
     1
290
     0
176
     1
290
     0
176
     1
290
     0
176
     1
290
     0
176
     1
290
     0
176
     1
 90
       50
176
     1
 40
0.0
176
     1
 40
1.0
176
     1
 90
        0
176
     1
 62
    18
420
        0
176
     1
 90
       50
176
     1
 90
        3
176
     1
 62
     5
420
      255
176
     1
290
     0
176
     1
 90
       50
176
     1
 90
       50
176
     1
 90
       50
176
     1
290
     0
176
     1
 90
       50
176
     1
 62
   256
176
     0
 40
1.0
176
     0
 90
        2
176
     1
  1
strokes_ogs.tif
176
     1
290
     0
176
     1
 40
1.0
176
     1
 40
1.0
176
     1
  0
VISUALSTYLE
  5
39
102
{ACAD_REACTORS
330
29
102
}
330
29
100
AcDbVisualStyle
  2
ColorChange
 70
    16
177
     3
291
     1
 70
    58
 90
        2
176
     1
 90
        2
176
     1
 90
        3
176
     1
 90
        0
176
     1
 40
0.6
176
     1
 40
30.0
176
     1
 62
     8
420
  8421504
176
     1
 90
        1
176
     1
 90
        4
176
     1
 62
     7
176
     1
 62
   257
176
     1
 90
        1
176
     1
 90
        1
176
     1
 40
1.0
176
     1
 90
        8
176
     1
 62
     8
420
  8421504
176
     1
 40
1.0
176
     1
 90
        1
176
     1
 90
        6
176
     1
 90
        2
176
     1
 62
     7
176
     1
 90
        5
176
     1
 90
        0
176
     1
 90
        0
176
     1
290
     0
176
     1
 90
        1
176
     1
 40
0.0
176
     1
 90
        0
176
     1
290
     0
176
     1
290
     1
176
     1
290
     1
176
     1
290
     0
176
     1
290
     0
176
     1
290
     0
176
     1
290
     0
176
     1
290
     0
176
     1
290
     0
176
     1
 90
       50
176
     1
 40
0.0
176
     1
 40
1.0
176
     1
 90
        0
176
     1
 62
    18
420
        0
176
     1
 90
       50
176
     1
 90
        3
176
     1
 62
     5
420
      255
176
     1
290
     0
176
     1
 90
       50
176
     1
 90
       50
176
     1
 90
       50
176
     1
290
     0
176
     1
 90
       50
176
     1
 62
   256
176
     0
 40
1.0
176
     0
 90
        2
176
     1
  1
strokes_ogs.tif
176
     1
290
     0
176
     1
 40
1.0
176
     1
 40
1.0
176
     1
  0
VISUALSTYLE
  5
32
102
{ACAD_REACTORS
330
29
102
}
330
29
100
AcDbVisualStyle
  2
Conceptual
 70
     9
177
     3
291
     0
 70
    58
 90
        3
176
     1
 90
        2
176
     1
 90
        0
176
     1
 90
        0
176
     1
 40
0.6
176
     1
 40
30.0
176
     1
 62
     7
420
 16777215
176
     1
 90
        2
176
     1
 90
        2
176
     1
 62
     7
176
     1
 62
   257
176
     1
 90
        1
176
     1
 90
        1
176
     1
 40
179.0
176
     1
 90
        8
176
     1
 62
     7
176
     1
 40
1.0
176
     1
 90
        1
176
     1
 90
        6
176
     1
 90
        2
176
     1
 62
     7
176
     1
 90
        3
176
     1
 90
        0
176
     1
 90
        0
176
     1
290
     0
176
     1
 90
        1
176
     1
 40
0.0
176
     1
 90
        0
176
     1
290
     0
176
     1
290
     1
176
     1
290
     1
176
     1
290
     0
176
     1
290
     0
176
     1
290
     0
176
     1
290
     0
176
     1
290
     0
176
     1
290
     0
176
     1
 90
       50
176
     1
 40
0.0
176
     1
 40
1.0
176
     1
 90
        0
176
     1
 62
    18
420
        0
176
     1
 90
       50
176
     1
 90
        3
176
     1
 62
     5
420
      255
176
     1
290
     0
176
     1
 90
       50
176
     1
 90
       50
176
     1
 90
       50
176
     1
290
     0
176
     1
 90
       50
176
     1
 62
   256
176
     0
 40
1.0
176
     0
 90
        2
176
     1
  1
strokes_ogs.tif
176
     1
290
     0
176
     1
 40
1.0
176
     1
 40
1.0
176
     1
  0
VISUALSTYLE
  5
34
102
{ACAD_REACTORS
330
29
102
}
330
29
100
AcDbVisualStyle
  2
Dim
 70
    11
177
     3
291
     1
 70
    58
 90
        2
176
     1
 90
        2
176
     1
 90
        0
176
     1
 90
        0
176
     1
 40
0.6
176
     1
 40
30.0
176
     1
 62
     7
420
 16777215
176
     1
 90
        1
176
     1
 90
        4
176
     1
 62
     7
176
     1
 62
   257
176
     1
 90
        1
176
     1
 90
        1
176
     1
 40
1.0
176
     1
 90
        8
176
     1
 62
     7
176
     1
 40
1.0
176
     1
 90
        1
176
     1
 90
        6
176
     1
 90
        2
176
     1
 62
     7
176
     1
 90
        5
176
     1
 90
        0
176
     1
 90
        0
176
     1
290
     0
176
     1
 90
        1
176
     1
 40
-50.0
176
     1
 90
        0
176
     1
290
     0
176
     1
290
     1
176
     1
290
     1
176
     1
290
     0
176
     1
290
     0
176
     1
290
     0
176
     1
290
     0
176
     1
290
     0
176
     1
290
     0
176
     1
 90
       50
176
     1
 40
0.0
176
     1
 40
1.0
176
     1
 90
        0
176
     1
 62
    18
420
        0
176
     1
 90
       50
176
     1
 90
        3
176
     1
 62
     5
420
      255
176
     1
290
     0
176
     1
 90
       50
176
     1
 90
       50
176
     1
 90
       50
176
     1
290
     0
176
     1
 90
       50
176
     1
 62
   256
176
     0
 40
1.0
176
     0
 90
        2
176
     1
  1
strokes_ogs.tif
176
     1
290
     0
176
     1
 40
1.0
176
     1
 40
1.0
176
     1
  0
VISUALSTYLE
  5
41
102
{ACAD_REACTORS
330
29
102
}
330
29
100
AcDbVisualStyle
  2
EdgeColorOff
 70
    22
177
     3
291
     1
 70
    58
 90
        2
176
     0
 90
        2
176
     0
 90
        0
176
     0
 90
        0
176
     0
 40
0.6
176
     0
 40
30.0
176
     0
 62
     7
420
 16777215
176
     0
 90
        1
176
     0
 90
        4
176
     0
 62
     7
176
     0
 62
   257
176
     0
 90
        1
176
     0
 90
        1
176
     0
 40
1.0
176
     0
 90
        8
176
     2
 62
     7
176
     0
 40
1.0
176
     0
 90
        1
176
     0
 90
        6
176
     0
 90
        2
176
     0
 62
     7
176
     0
 90
        5
176
     0
 90
        0
176
     0
 90
        0
176
     0
290
     0
176
     0
 90
        1
176
     0
 40
0.0
176
     0
 90
        0
176
     0
290
     0
176
     1
290
     1
176
     1
290
     1
176
     1
290
     0
176
     1
290
     0
176
     1
290
     0
176
     1
290
     0
176
     1
290
     0
176
     1
290
     0
176
     1
 90
       50
176
     0
 40
0.0
176
     0
 40
1.0
176
     0
 90
        0
176
     0
 62
    18
420
        0
176
     0
 90
       50
176
     0
 90
        3
176
     0
 62
     5
420
      255
176
     0
290
     0
176
     1
 90
       50
176
     0
 90
       50
176
     0
 90
       50
176
     0
290
     0
176
     1
 90
       50
176
     0
 62
   256
176
     0
 40
1.0
176
     0
 90
        2
176
     0
  1
strokes_ogs.tif
176
     0
290
     0
176
     1
 40
1.0
176
     0
 40
1.0
176
     0
  0
VISUALSTYLE
  5
38
102
{ACAD_REACTORS
330
29
102
}
330
29
100
AcDbVisualStyle
  2
Facepattern
 70
    15
177
     3
291
     1
 70
    58
 90
        2
176
     1
 90
        2
176
     1
 90
        0
176
     1
 90
        0
176
     1
 40
0.6
176
     1
 40
30.0
176
     1
 62
     7
420
 16777215
176
     1
 90
        1
176
     1
 90
        4
176
     1
 62
     7
176
     1
 62
   257
176
     1
 90
        1
176
     1
 90
        1
176
     1
 40
1.0
176
     1
 90
        8
176
     1
 62
     7
176
     1
 40
1.0
176
     1
 90
        1
176
     1
 90
        6
176
     1
 90
        2
176
     1
 62
     7
176
     1
 90
        5
176
     1
 90
        0
176
     1
 90
        0
176
     1
290
     0
176
     1
 90
        1
176
     1
 40
0.0
176
     1
 90
        0
176
     1
290
     0
176
     1
290
     1
176
     1
290
     1
176
     1
290
     0
176
     1
290
     0
176
     1
290
     0
176
     1
290
     0
176
     1
290
     0
176
     1
290
     0
176
     1
 90
       50
176
     1
 40
0.0
176
     1
 40
1.0
176
     1
 90
        0
176
     1
 62
    18
420
        0
176
     1
 90
       50
176
     1
 90
        3
176
     1
 62
     5
420
      255
176
     1
290
     0
176
     1
 90
       50
176
     1
 90
       50
176
     1
 90
       50
176
     1
290
     0
176
     1
 90
       50
176
     1
 62
   256
176
     0
 40
1.0
176
     0
 90
        2
176
     1
  1
strokes_ogs.tif
176
     1
290
     0
176
     1
 40
1.0
176
     1
 40
1.0
176
     1
  0
VISUALSTYLE
  5
2A
102
{ACAD_REACTORS
330
29
102
}
330
29
100
AcDbVisualStyle
  2
Flat
 70
     0
177
     3
291
     1
 70
    58
 90
        2
176
     1
 90
        1
176
     1
 90
        1
176
     1
 90
        2
176
     1
 40
0.6
176
     1
 40
30.0
176
     1
 62
     7
420
 16777215
176
     1
 90
        0
176
     1
 90
        0
176
     1
 62
     7
176
     1
 62
   257
176
     1
 90
        1
176
     1
 90
        1
176
     1
 40
1.0
176
     1
 90
        8
176
     1
 62
     7
176
     1
 40
1.0
176
     1
 90
        1
176
     1
 90
        6
176
     1
 90
        2
176
     1
 62
     7
176
     1
 90
        5
176
     1
 90
        0
176
     1
 90
        0
176
     1
290
     0
176
     1
 90
       13
176
     1
 40
0.0
176
     1
 90
        0
176
     1
290
     0
176
     1
290
     1
176
     1
290
     1
176
     1
290
     0
176
     1
290
     0
176
     1
290
     0
176
     1
290
     0
176
     1
290
     0
176
     1
290
     0
176
     1
 90
       50
176
     1
 40
0.0
176
     1
 40
1.0
176
     1
 90
        0
176
     1
 62
    18
420
        0
176
     1
 90
       50
176
     1
 90
        3
176
     1
 62
     5
420
      255
176
     1
290
     0
176
     1
 90
       50
176
     1
 90
       50
176
     1
 90
       50
176
     1
290
     0
176
     1
 90
       50
176
     1
 62
   256
176
     0
 40
1.0
176
     0
 90
        2
176
     1
  1
strokes_ogs.tif
176
     1
290
     0
176
     1
 40
1.0
176
     1
 40
1.0
176
     1
  0
VISUALSTYLE
  5
2B
102
{ACAD_REACTORS
330
29
102
}
330
29
100
AcDbVisualStyle
  2
FlatWithEdges
 70
     1
177
     3
291
     1
 70
    58
 90
        2
176
     1
 90
        1
176
     1
 90
        1
176
     1
 90
        2
176
     1
 40
0.6
176
     1
 40
30.0
176
     1
 62
     7
420
 16777215
176
     1
 90
        1
176
     1
 90
        0
176
     1
 62
     7
176
     1
 62
   257
176
     1
 90
        1
176
     1
 90
        1
176
     1
 40
1.0
176
     1
 90
        0
176
     1
 62
   257
176
     1
 40
1.0
176
     1
 90
        1
176
     1
 90
        6
176
     1
 90
        2
176
     1
 62
     7
176
     1
 90
        5
176
     1
 90
        0
176
     1
 90
        0
176
     1
290
     0
176
     1
 90
       13
176
     1
 40
0.0
176
     1
 90
        0
176
     1
290
     0
176
     1
290
     1
176
     1
290
     1
176
     1
290
     0
176
     1
290
     0
176
     1
290
     0
176
     1
290
     0
176
     1
290
     0
176
     1
290
     0
176
     1
 90
       50
176
     1
 40
0.0
176
     1
 40
1.0
176
     1
 90
        0
176
     1
 62
    18
420
        0
176
     1
 90
       50
176
     1
 90
        3
176
     1
 62
     5
420
      255
176
     1
290
     0
176
     1
 90
       50
176
     1
 90
       50
176
     1
 90
       50
176
     1
290
     0
176
     1
 90
       50
176
     1
 62
   256
176
     0
 40
1.0
176
     0
 90
        2
176
     1
  1
strokes_ogs.tif
176
     1
290
     0
176
     1
 40
1.0
176
     1
 40
1.0
176
     1
  0
VISUALSTYLE
  5
2C
102
{ACAD_REACTORS
330
29
102
}
330
29
100
AcDbVisualStyle
  2
Gouraud
 70
     2
177
     3
291
     1
 70
    58
 90
        2
176
     1
 90
        2
176
     1
 90
        1
176
     1
 90
        2
176
     1
 40
0.6
176
     1
 40
30.0
176
     1
 62
     7
420
 16777215
176
     1
 90
        0
176
     1
 90
        0
176
     1
 62
     7
176
     1
 62
   257
176
     1
 90
        1
176
     1
 90
        1
176
     1
 40
1.0
176
     1
 90
        0
176
     1
 62
     7
176
     1
 40
1.0
176
     1
 90
        1
176
     1
 90
        6
176
     1
 90
        2
176
     1
 62
     7
176
     1
 90
        5
176
     1
 90
        0
176
     1
 90
        0
176
     1
290
     0
176
     1
 90
       13
176
     1
 40
0.0
176
     1
 90
        0
176
     1
290
     0
176
     1
290
     1
176
     1
290
     1
176
     1
290
     0
176
     1
290
     0
176
     1
290
     0
176
     1
290
     0
176
     1
290
     0
176
     1
290
     0
176
     1
 90
       50
176
     1
 40
0.0
176
     1
 40
1.0
176
     1
 90
        0
176
     1
 62
    18
420
        0
176
     1
 90
       50
176
     1
 90
        3
176
     1
 62
     5
420
      255
176
     1
290
     0
176
     1
 90
       50
176
     1
 90
       50
176
     1
 90
       50
176
     1
290
     0
176
     1
 90
       50
176
     1
 62
   256
176
     0
 40
1.0
176
     0
 90
        2
176
     1
  1
strokes_ogs.tif
176
     1
290
     0
176
     1
 40
1.0
176
     1
 40
1.0
176
     1
  0
VISUALSTYLE
  5
2D
102
{ACAD_REACTORS
330
29
102
}
330
29
100
AcDbVisualStyle
  2
GouraudWithEdges
 70
     3
177
     3
291
     1
 70
    58
 90
        2
176
     1
 90
        2
176
     1
 90
        1
176
     1
 90
        2
176
     1
 40
0.6
176
     1
 40
30.0
176
     1
 62
     7
420
 16777215
176
     1
 90
        1
176
     1
 90
        0
176
     1
 62
     7
176
     1
 62
   257
176
     1
 90
        1
176
     1
 90
        1
176
     1
 40
1.0
176
     1
 90
        0
176
     1
 62
   257
176
     1
 40
1.0
176
     1
 90
        1
176
     1
 90
        6
176
     1
 90
        2
176
     1
 62
     7
176
     1
 90
        5
176
     1
 90
        0
176
     1
 90
        0
176
     1
290
     0
176
     1
 90
       13
176
     1
 40
0.0
176
     1
 90
        0
176
     1
290
     0
176
     1
290
     1
176
     1
290
     1
176
     1
290
     0
176
     1
290
     0
176
     1
290
     0
176
     1
290
     0
176
     1
290
     0
176
     1
290
     0
176
     1
 90
       50
176
     1
 40
0.0
176
     1
 40
1.0
176
     1
 90
        0
176
     1
 62
    18
420
        0
176
     1
 90
       50
176
     1
 90
        3
176
     1
 62
     5
420
      255
176
     1
290
     0
176
     1
 90
       50
176
     1
 90
       50
176
     1
 90
       50
176
     1
290
     0
176
     1
 90
       50
176
     1
 62
   256
176
     0
 40
1.0
176
     0
 90
        2
176
     1
  1
strokes_ogs.tif
176
     1
290
     0
176
     1
 40
1.0
176
     1
 40
1.0
176
     1
  0
VISUALSTYLE
  5
31
102
{ACAD_REACTORS
330
29
102
}
330
29
100
AcDbVisualStyle
  2
Hidden
 70
     6
177
     3
291
     0
 70
    58
 90
        1
176
     1
 90
        2
176
     1
 90
        2
176
     1
 90
        0
176
     1
 40
0.6
176
     1
 40
30.0
176
     1
 62
     7
420
 16777215
176
     1
 90
        2
176
     1
 90
        2
176
     1
 62
     7
176
     1
 62
   257
176
     1
 90
        2
176
     1
 90
        1
176
     1
 40
40.0
176
     1
 90
        0
176
     1
 62
   257
176
     1
 40
1.0
176
     1
 90
        1
176
     1
 90
        6
176
     1
 90
        2
176
     1
 62
     7
176
     1
 90
        3
176
     1
 90
        0
176
     1
 90
        0
176
     1
290
     0
176
     1
 90
        1
176
     1
 40
0.0
176
     1
 90
        0
176
     1
290
     0
176
     1
290
     1
176
     1
290
     1
176
     1
290
     0
176
     1
290
     0
176
     1
290
     0
176
     1
290
     0
176
     1
290
     0
176
     1
290
     0
176
     1
 90
       50
176
     1
 40
0.0
176
     1
 40
1.0
176
     1
 90
        0
176
     1
 62
    18
420
        0
176
     1
 90
       50
176
     1
 90
        3
176
     1
 62
     5
420
      255
176
     1
290
     0
176
     1
 90
       50
176
     1
 90
       50
176
     1
 90
       50
176
     1
290
     0
176
     1
 90
       50
176
     1
 62
   256
176
     0
 40
1.0
176
     0
 90
        2
176
     1
  1
strokes_ogs.tif
176
     1
290
     0
176
     1
 40
1.0
176
     1
 40
1.0
176
     1
  0
VISUALSTYLE
  5
3F
102
{ACAD_REACTORS
330
29
102
}
330
29
100
AcDbVisualStyle
  2
JitterOff
 70
    20
177
     3
291
     1
 70
    58
 90
        2
176
     0
 90
        2
176
     0
 90
        0
176
     0
 90
        0
176
     0
 40
0.6
176
     0
 40
30.0
176
     0
 62
     7
420
 16777215
176
     0
 90
        1
176
     0
 90
        4
176
     0
 62
     7
176
     0
 62
   257
176
     0
 90
        1
176
     0
 90
        1
176
     0
 40
1.0
176
     0
 90
       10
176
     2
 62
     7
176
     0
 40
1.0
176
     0
 90
        1
176
     0
 90
        6
176
     0
 90
        2
176
     0
 62
     7
176
     0
 90
        5
176
     0
 90
        0
176
     0
 90
        0
176
     0
290
     0
176
     0
 90
        1
176
     0
 40
0.0
176
     0
 90
        0
176
     0
290
     0
176
     1
290
     1
176
     1
290
     1
176
     1
290
     0
176
     1
290
     0
176
     1
290
     0
176
     1
290
     0
176
     1
290
     0
176
     1
290
     0
176
     1
 90
       50
176
     0
 40
0.0
176
     0
 40
1.0
176
     0
 90
        0
176
     0
 62
    18
420
        0
176
     0
 90
       50
176
     0
 90
        3
176
     0
 62
     5
420
      255
176
     0
290
     0
176
     1
 90
       50
176
     0
 90
       50
176
     0
 90
       50
176
     0
290
     0
176
     1
 90
       50
176
     0
 62
   256
176
     0
 40
1.0
176
     0
 90
        2
176
     0
  1
strokes_ogs.tif
176
     0
290
     0
176
     1
 40
1.0
176
     0
 40
1.0
176
     0
  0
VISUALSTYLE
  5
37
102
{ACAD_REACTORS
330
29
102
}
330
29
100
AcDbVisualStyle
  2
Linepattern
 70
    14
177
     3
291
     1
 70
    58
 90
        2
176
     1
 90
        2
176
     1
 90
        0
176
     1
 90
        0
176
     1
 40
0.6
176
     1
 40
30.0
176
     1
 62
     7
420
 16777215
176
     1
 90
        1
176
     1
 90
        4
176
     1
 62
     7
176
     1
 62
   257
176
     1
 90
        7
176
     1
 90
        7
176
     1
 40
1.0
176
     1
 90
        8
176
     1
 62
     7
176
     1
 40
1.0
176
     1
 90
        1
176
     1
 90
        6
176
     1
 90
        2
176
     1
 62
     7
176
     1
 90
        5
176
     1
 90
        0
176
     1
 90
        0
176
     1
290
     0
176
     1
 90
        1
176
     1
 40
0.0
176
     1
 90
        0
176
     1
290
     0
176
     1
290
     1
176
     1
290
     1
176
     1
290
     0
176
     1
290
     0
176
     1
290
     0
176
     1
290
     0
176
     1
290
     0
176
     1
290
     0
176
     1
 90
       50
176
     1
 40
0.0
176
     1
 40
1.0
176
     1
 90
        0
176
     1
 62
    18
420
        0
176
     1
 90
       50
176
     1
 90
        3
176
     1
 62
     5
420
      255
176
     1
290
     0
176
     1
 90
       50
176
     1
 90
       50
176
     1
 90
       50
176
     1
290
     0
176
     1
 90
       50
176
     1
 62
   256
176
     0
 40
1.0
176
     0
 90
        2
176
     1
  1
strokes_ogs.tif
176
     1
290
     0
176
     1
 40
1.0
176
     1
 40
1.0
176
     1
  0
VISUALSTYLE
  5
40
102
{ACAD_REACTORS
330
29
102
}
330
29
100
AcDbVisualStyle
  2
OverhangOff
 70
    21
177
     3
291
     1
 70
    58
 90
        2
176
     0
 90
        2
176
     0
 90
        0
176
     0
 90
        0
176
     0
 40
0.6
176
     0
 40
30.0
176
     0
 62
     7
420
 16777215
176
     0
 90
        1
176
     0
 90
        4
176
     0
 62
     7
176
     0
 62
   257
176
     0
 90
        1
176
     0
 90
        1
176
     0
 40
1.0
176
     0
 90
        9
176
     2
 62
     7
176
     0
 40
1.0
176
     0
 90
        1
176
     0
 90
        6
176
     0
 90
        2
176
     0
 62
     7
176
     0
 90
        5
176
     0
 90
        0
176
     0
 90
        0
176
     0
290
     0
176
     0
 90
        1
176
     0
 40
0.0
176
     0
 90
        0
176
     0
290
     0
176
     1
290
     1
176
     1
290
     1
176
     1
290
     0
176
     1
290
     0
176
     1
290
     0
176
     1
290
     0
176
     1
290
     0
176
     1
290
     0
176
     1
 90
       50
176
     0
 40
0.0
176
     0
 40
1.0
176
     0
 90
        0
176
     0
 62
    18
420
        0
176
     0
 90
       50
176
     0
 90
        3
176
     0
 62
     5
420
      255
176
     0
290
     0
176
     1
 90
       50
176
     0
 90
       50
176
     0
 90
       50
176
     0
290
     0
176
     1
 90
       50
176
     0
 62
   256
176
     0
 40
1.0
176
     0
 90
        2
176
     0
  1
strokes_ogs.tif
176
     0
290
     0
176
     1
 40
1.0
176
     0
 40
1.0
176
     0
  0
VISUALSTYLE
  5
33
102
{ACAD_REACTORS
330
29
102
}
330
29
100
AcDbVisualStyle
  2
Realistic
 70
     8
177
     3
291
     0
 70
    58
 90
        2
176
     1
 90
        3
176
     1
 90
        0
176
     1
 90
        2
176
     1
 40
0.6
176
     1
 40
30.0
176
     1
 62
     7
420
 16777215
176
     1
 90
        0
176
     1
 90
        0
176
     1
 62
     7
176
     1
 62
   257
176
     1
 90
        1
176
     1
 90
        1
176
     1
 40
1.0
176
     1
 90
        8
176
     1
 62
   257
176
     1
 40
1.0
176
     1
 90
        1
176
     1
 90
        6
176
     1
 90
        2
176
     1
 62
     7
176
     1
 90
        3
176
     1
 90
        0
176
     1
 90
        0
176
     1
290
     0
176
     1
 90
       13
176
     1
 40
0.0
176
     1
 90
        0
176
     1
290
     0
176
     1
290
     1
176
     1
290
     1
176
     1
290
     0
176
     1
290
     0
176
     1
290
     0
176
     1
290
     0
176
     1
290
     0
176
     1
290
     0
176
     1
 90
       50
176
     1
 40
0.0
176
     1
 40
1.0
176
     1
 90
        0
176
     1
 62
    18
420
        0
176
     1
 90
       50
176
     1
 90
        3
176
     1
 62
     5
420
      255
176
     1
290
     0
176
     1
 90
       50
176
     1
 90
       50
176
     1
 90
       50
176
     1
290
     0
176
     1
 90
       50
176
     1
 62
   256
176
     0
 40
1.0
176
     0
 90
        2
176
     1
  1
strokes_ogs.tif
176
     1
290
     0
176
     1
 40
1.0
176
     1
 40
1.0
176
     1
  0
VISUALSTYLE
  5
3E
102
{ACAD_REACTORS
330
29
102
}
330
29
100
AcDbVisualStyle
  2
Shaded
 70
    27
177
     3
291
     0
 70
    58
 90
        2
176
     1
 90
        2
176
     1
 90
        1
176
     1
 90
        2
176
     1
 40
0.6
176
     1
 40
30.0
176
     1
 62
     7
420
 16777215
176
     1
 90
        0
176
     1
 90
        4
176
     1
 62
     7
176
     1
 62
   257
176
     1
 90
        1
176
     1
 90
        1
176
     1
 40
1.0
176
     1
 90
        8
176
     1
 62
   257
176
     1
 40
1.0
176
     1
 90
        1
176
     1
 90
        6
176
     1
 90
        2
176
     1
 62
     8
420
  7895160
176
     1
 90
        3
176
     1
 90
        0
176
     1
 90
        0
176
     1
290
     0
176
     1
 90
        5
176
     1
 40
0.0
176
     1
 90
        0
176
     1
290
     0
176
     1
290
     1
176
     1
290
     1
176
     1
290
     0
176
     1
290
     0
176
     1
290
     0
176
     1
290
     0
176
     1
290
     0
176
     1
290
     0
176
     1
 90
       50
176
     1
 40
0.0
176
     1
 40
1.0
176
     1
 90
        0
176
     1
 62
    18
420
        0
176
     1
 90
       50
176
     1
 90
        3
176
     1
 62
     5
420
      255
176
     1
290
     0
176
     1
 90
       50
176
     1
 90
       50
176
     1
 90
       50
176
     1
290
     0
176
     1
 90
       50
176
     1
 62
   256
176
     0
 40
1.0
176
     0
 90
        2
176
     1
  1
strokes_ogs.tif
176
     1
290
     0
176
     1
 40
1.0
176
     1
 40
1.0
176
     1
  0
VISUALSTYLE
  5
3D
102
{ACAD_REACTORS
330
29
102
}
330
29
100
AcDbVisualStyle
  2
Shaded with edges
 70
    26
177
     3
291
     0
 70
    58
 90
        2
176
     1
 90
        2
176
     1
 90
        1
176
     1
 90
        2
176
     1
 40
0.6
176
     1
 40
30.0
176
     1
 62
     7
420
 16777215
176
     1
 90
        1
176
     1
 90
       10
176
     1
 62
     7
176
     1
 62
   257
176
     1
 90
        2
176
     1
 90
        1
176
     1
 40
1.0
176
     1
 90
        8
176
     1
 62
   257
176
     1
 40
1.0
176
     1
 90
        1
176
     1
 90
        6
176
     1
 90
        2
176
     1
 62
     7
176
     1
 90
        3
176
     1
 90
        0
176
     1
 90
        0
176
     1
290
     0
176
     1
 90
        5
176
     1
 40
0.0
176
     1
 90
        0
176
     1
290
     0
176
     1
290
     1
176
     1
290
     1
176
     1
290
     0
176
     1
290
     0
176
     1
290
     0
176
     1
290
     0
176
     1
290
     0
176
     1
290
     0
176
     1
 90
       50
176
     1
 40
0.0
176
     1
 40
1.0
176
     1
 90
        0
176
     1
 62
    18
420
        0
176
     1
 90
       50
176
     1
 90
        3
176
     1
 62
     5
420
      255
176
     1
290
     0
176
     1
 90
       50
176
     1
 90
       50
176
     1
 90
       50
176
     1
290
     0
176
     1
 90
       50
176
     1
 62
   256
176
     0
 40
1.0
176
     0
 90
        2
176
     1
  1
strokes_ogs.tif
176
     1
290
     0
176
     1
 40
1.0
176
     1
 40
1.0
176
     1
  0
VISUALSTYLE
  5
3A
102
{ACAD_REACTORS
330
29
102
}
330
29
100
AcDbVisualStyle
  2
Shades of Gray
 70
    23
177
     3
291
     0
 70
    58
 90
        2
176
     1
 90
        2
176
     1
 90
        3
176
     1
 90
        0
176
     1
 40
0.6
176
     1
 40
30.0
176
     1
 62
     7
420
 16777215
176
     1
 90
        2
176
     1
 90
        2
176
     1
 62
     7
176
     1
 62
     7
176
     1
 90
        1
176
     1
 90
        1
176
     1
 40
40.0
176
     1
 90
        8
176
     1
 62
     7
176
     1
 40
1.0
176
     1
 90
        1
176
     1
 90
        6
176
     1
 90
        2
176
     1
 62
     7
176
     1
 90
        3
176
     1
 90
        0
176
     1
 90
        0
176
     1
290
     0
176
     1
 90
        1
176
     1
 40
0.0
176
     1
 90
        0
176
     1
290
     0
176
     1
290
     1
176
     1
290
     1
176
     1
290
     0
176
     1
290
     0
176
     1
290
     0
176
     1
290
     0
176
     1
290
     0
176
     1
290
     0
176
     1
 90
       50
176
     1
 40
0.0
176
     1
 40
1.0
176
     1
 90
        0
176
     1
 62
    18
420
        0
176
     1
 90
       50
176
     1
 90
        3
176
     1
 62
     5
420
      255
176
     1
290
     0
176
     1
 90
       50
176
     1
 90
       50
176
     1
 90
       50
176
     1
290
     0
176
     1
 90
       50
176
     1
 62
   256
176
     0
 40
1.0
176
     0
 90
        2
176
     1
  1
strokes_ogs.tif
176
     1
290
     0
176
     1
 40
1.0
176
     1
 40
1.0
176
     1
  0
VISUALSTYLE
  5
3B
102
{ACAD_REACTORS
330
29
102
}
330
29
100
AcDbVisualStyle
  2
Sketchy
 70
    24
177
     3
291
     0
 70
    58
 90
        1
176
     1
 90
        2
176
     1
 90
        2
176
     1
 90
        0
176
     1
 40
0.6
176
     1
 40
30.0
176
     1
 62
     7
420
 16777215
176
     1
 90
        2
176
     1
 90
        2
176
     1
 62
     7
176
     1
 62
     7
176
     1
 90
        1
176
     1
 90
        1
176
     1
 40
40.0
176
     1
 90
       11
176
     1
 62
     7
176
     1
 40
1.0
176
     1
 90
        1
176
     1
 90
        6
176
     1
 90
        2
176
     1
 62
     7
176
     1
 90
        6
176
     1
 90
        0
176
     1
 90
        0
176
     1
290
     0
176
     1
 90
        1
176
     1
 40
0.0
176
     1
 90
        0
176
     1
290
     0
176
     1
290
     1
176
     1
290
     1
176
     1
290
     0
176
     1
290
     0
176
     1
290
     0
176
     1
290
     0
176
     1
290
     0
176
     1
290
     0
176
     1
 90
       50
176
     1
 40
0.0
176
     1
 40
1.0
176
     1
 90
        0
176
     1
 62
    18
420
        0
176
     1
 90
       50
176
     1
 90
        3
176
     1
 62
     5
420
      255
176
     1
290
     0
176
     1
 90
       50
176
     1
 90
       50
176
     1
 90
       50
176
     1
290
     0
176
     1
 90
       50
176
     1
 62
   256
176
     0
 40
1.0
176
     0
 90
        2
176
     1
  1
strokes_ogs.tif
176
     1
290
     0
176
     1
 40
1.0
176
     1
 40
1.0
176
     1
  0
VISUALSTYLE
  5
36
102
{ACAD_REACTORS
330
29
102
}
330
29
100
AcDbVisualStyle
  2
Thicken
 70
    13
177
     3
291
     1
 70
    58
 90
        2
176
     1
 90
        2
176
     1
 90
        0
176
     1
 90
        0
176
     1
 40
0.6
176
     1
 40
30.0
176
     1
 62
     7
420
 16777215
176
     1
 90
        1
176
     1
 90
        4
176
     1
 62
     7
176
     1
 62
   257
176
     1
 90
        1
176
     1
 90
        1
176
     1
 40
1.0
176
     1
 90
       12
176
     1
 62
     7
176
     1
 40
1.0
176
     1
 90
        1
176
     1
 90
        6
176
     1
 90
        2
176
     1
 62
     7
176
     1
 90
        5
176
     1
 90
        0
176
     1
 90
        0
176
     1
290
     0
176
     1
 90
        1
176
     1
 40
0.0
176
     1
 90
        0
176
     1
290
     0
176
     1
290
     1
176
     1
290
     1
176
     1
290
     0
176
     1
290
     0
176
     1
290
     0
176
     1
290
     0
176
     1
290
     0
176
     1
290
     0
176
     1
 90
       50
176
     1
 40
0.0
176
     1
 40
1.0
176
     1
 90
        0
176
     1
 62
    18
420
        0
176
     1
 90
       50
176
     1
 90
        3
176
     1
 62
     5
420
      255
176
     1
290
     0
176
     1
 90
       50
176
     1
 90
       50
176
     1
 90
       50
176
     1
290
     0
176
     1
 90
       50
176
     1
 62
   256
176
     0
 40
1.0
176
     0
 90
        2
176
     1
  1
strokes_ogs.tif
176
     1
290
     0
176
     1
 40
1.0
176
     1
 40
1.0
176
     1
  0
VISUALSTYLE
  5
30
102
{ACAD_REACTORS
330
29
102
}
330
29
100
AcDbVisualStyle
  2
Wireframe
 70
     5
177
     3
291
     0
 70
    58
 90
        0
176
     1
 90
        2
176
     1
 90
        0
176
     1
 90
        0
176
     1
 40
0.6
176
     1
 40
30.0
176
     1
 62
     7
420
 16777215
176
     1
 90
        1
176
     1
 90
        4
176
     1
 62
     7
176
     1
 62
   257
176
     1
 90
        1
176
     1
 90
        1
176
     1
 40
1.0
176
     1
 90
        0
176
     1
 62
   257
176
     1
 40
1.0
176
     1
 90
        1
176
     1
 90
        6
176
     1
 90
        2
176
     1
 62
     7
176
     1
 90
        3
176
     1
 90
        0
176
     1
 90
        0
176
     1
290
     0
176
     1
 90
        1
176
     1
 40
0.0
176
     1
 90
        0
176
     1
290
     0
176
     1
290
     1
176
     1
290
     1
176
     1
290
     0
176
     1
290
     0
176
     1
290
     0
176
     1
290
     0
176
     1
290
     0
176
     1
290
     0
176
     1
 90
       50
176
     1
 40
0.0
176
     1
 40
1.0
176
     1
 90
        0
176
     1
 62
    18
420
        0
176
     1
 90
       50
176
     1
 90
        3
176
     1
 62
     5
420
      255
176
     1
290
     0
176
     1
 90
       50
176
     1
 90
       50
176
     1
 90
       50
176
     1
290
     0
176
     1
 90
       50
176
     1
 62
   256
176
     0
 40
1.0
176
     0
 90
        2
176
     1
  1
strokes_ogs.tif
176
     1
290
     0
176
     1
 40
1.0
176
     1
 40
1.0
176
     1
  0
VISUALSTYLE
  5
3C
102
{ACAD_REACTORS
330
29
102
}
330
29
100
AcDbVisualStyle
  2
X-Ray
 70
    25
177
     3
291
     0
 70
    58
 90
        2
176
     1
 90
        2
176
     1
 90
        1
176
     1
 90
        1
176
     1
 40
0.5
176
     1
 40
30.0
176
     1
 62
     7
420
 16777215
176
     1
 90
        1
176
     1
 90
        0
176
     1
 62
     7
176
     1
 62
   257
176
     1
 90
        1
176
     1
 90
        1
176
     1
 40
1.0
176
     1
 90
        8
176
     1
 62
     7
176
     1
 40
1.0
176
     1
 90
        1
176
     1
 90
        6
176
     1
 90
        2
176
     1
 62
     7
176
     1
 90
        3
176
     1
 90
        0
176
     1
 90
        0
176
     1
290
     0
176
     1
 90
       13
176
     1
 40
0.0
176
     1
 90
        0
176
     1
290
     0
176
     1
290
     1
176
     1
290
     1
176
     1
290
     0
176
     1
290
     0
176
     1
290
     0
176
     1
290
     0
176
     1
290
     0
176
     1
290
     0
176
     1
 90
       50
176
     1
 40
0.0
176
     1
 40
1.0
176
     1
 90
        0
176
     1
 62
    18
420
        0
176
     1
 90
       50
176
     1
 90
        3
176
     1
 62
     5
420
      255
176
     1
290
     0
176
     1
 90
       50
176
     1
 90
       50
176
     1
 90
       50
176
     1
290
     0
176
     1
 90
       50
176
     1
 62
   256
176
     0
 40
1.0
176
     0
 90
        2
176
     1
  1
strokes_ogs.tif
176
     1
290
     0
176
     1
 40
1.0
176
     1
 40
1.0
176
     1
  0
DICTIONARYVAR
  5
6CA
102
{ACAD_REACTORS
330
6C4
102
}
330
6C4
100
DictionaryVariables
280
     0
  1
1:1
  0
DICTIONARYVAR
  5
6C6
102
{ACAD_REACTORS
330
6C4
102
}
330
6C4
100
DictionaryVariables
280
     0
  1
STANDARD
  0
DICTIONARYVAR
  5
6C5
102
{ACAD_REACTORS
330
6C4
102
}
330
6C4
100
DictionaryVariables
280
     0
  1
STANDARD
  0
DICTIONARYVAR
  5
6C7
102
{ACAD_REACTORS
330
6C4
102
}
330
6C4
100
DictionaryVariables
280
     0
  1
Imperial24
  0
DICTIONARYVAR
  5
6C8
102
{ACAD_REACTORS
330
6C4
102
}
330
6C4
100
DictionaryVariables
280
     0
  1
Imperial24
  0
DICTIONARYVAR
  5
6CC
102
{ACAD_REACTORS
330
6C4
102
}
330
6C4
100
DictionaryVariables
280
     0
  1
1
  0
DICTIONARYVAR
  5
6CD
102
{ACAD_REACTORS
330
6C4
102
}
330
6C4
100
DictionaryVariables
280
     0
  1
15
  0
DICTIONARYVAR
  5
6CB
102
{ACAD_REACTORS
330
6C4
102
}
330
6C4
100
DictionaryVariables
280
     0
  1
0
  0
DICTIONARYVAR
  5
6C9
102
{ACAD_REACTORS
330
6C4
102
}
330
6C4
100
DictionaryVariables
280
     0
  1
0
  0
DICTIONARY
  5
1A
330
19
100
AcDbDictionary
280
     1
281
     1
  3
BUMPTILE
360
1C
  3
DIFFUSETILE
360
1B
  3
OPACITYTILE
360
1F
  3
REFLECTIONTILE
360
1E
  3
REFRACTIONTILE
360
20
  3
SPECULARTILE
360
1D
  0
DICTIONARY
  5
12
330
11
100
AcDbDictionary
280
     1
281
     1
  3
BUMPTILE
360
14
  3
DIFFUSETILE
360
13
  3
OPACITYTILE
360
17
  3
REFLECTIONTILE
360
16
  3
REFRACTIONTILE
360
18
  3
SPECULARTILE
360
15
  0
DICTIONARY
  5
22
330
21
100
AcDbDictionary
280
     1
281
     1
  3
BUMPTILE
360
24
  3
DIFFUSETILE
360
23
  3
OPACITYTILE
360
27
  3
REFLECTIONTILE
360
26
  3
REFRACTIONTILE
360
28
  3
SPECULARTILE
360
25
  0
DICTIONARY
  5
6CE
330
64
100
AcDbDictionary
280
     1
281
     1
  3
ACAD_ROUNDTRIP_2008_TABLESTYLE_CELLSTYLEMAP
360
6CF
  0
XRECORD
  5
1C
102
{ACAD_REACTORS
330
1A
102
}
330
1A
100
AcDbXrecord
280
     1
270
     1
271
     1
  0
XRECORD
  5
1B
102
{ACAD_REACTORS
330
1A
102
}
330
1A
100
AcDbXrecord
280
     1
270
     1
271
     1
  0
XRECORD
  5
1F
102
{ACAD_REACTORS
330
1A
102
}
330
1A
100
AcDbXrecord
280
     1
270
     1
271
     1
  0
XRECORD
  5
1E
102
{ACAD_REACTORS
330
1A
102
}
330
1A
100
AcDbXrecord
280
     1
270
     1
271
     1
  0
XRECORD
  5
20
102
{ACAD_REACTORS
330
1A
102
}
330
1A
100
AcDbXrecord
280
     1
270
     1
271
     1
  0
XRECORD
  5
1D
102
{ACAD_REACTORS
330
1A
102
}
330
1A
100
AcDbXrecord
280
     1
270
     1
271
     1
  0
XRECORD
  5
14
102
{ACAD_REACTORS
330
12
102
}
330
12
100
AcDbXrecord
280
     1
270
     1
271
     1
  0
XRECORD
  5
13
102
{ACAD_REACTORS
330
12
102
}
330
12
100
AcDbXrecord
280
     1
270
     1
271
     1
  0
XRECORD
  5
17
102
{ACAD_REACTORS
330
12
102
}
330
12
100
AcDbXrecord
280
     1
270
     1
271
     1
  0
XRECORD
  5
16
102
{ACAD_REACTORS
330
12
102
}
330
12
100
AcDbXrecord
280
     1
270
     1
271
     1
  0
XRECORD
  5
18
102
{ACAD_REACTORS
330
12
102
}
330
12
100
AcDbXrecord
280
     1
270
     1
271
     1
  0
XRECORD
  5
15
102
{ACAD_REACTORS
330
12
102
}
330
12
100
AcDbXrecord
280
     1
270
     1
271
     1
  0
XRECORD
  5
24
102
{ACAD_REACTORS
330
22
102
}
330
22
100
AcDbXrecord
280
     1
270
     1
271
     1
  0
XRECORD
  5
23
102
{ACAD_REACTORS
330
22
102
}
330
22
100
AcDbXrecord
280
     1
270
     1
271
     1
  0
XRECORD
  5
27
102
{ACAD_REACTORS
330
22
102
}
330
22
100
AcDbXrecord
280
     1
270
     1
271
     1
  0
XRECORD
  5
26
102
{ACAD_REACTORS
330
22
102
}
330
22
100
AcDbXrecord
280
     1
270
     1
271
     1
  0
XRECORD
  5
28
102
{ACAD_REACTORS
330
22
102
}
330
22
100
AcDbXrecord
280
     1
270
     1
271
     1
  0
XRECORD
  5
25
102
{ACAD_REACTORS
330
22
102
}
330
22
100
AcDbXrecord
280
     1
270
     1
271
     1
  0
CELLSTYLEMAP
  5
6CF
102
{ACAD_REACTORS
330
6CE
102
}
330
6CE
100
AcDbCellStyleMap
 90
        3
300
CELLSTYLE
  1
TABLEFORMAT_BEGIN
 90
        5
170
     1
 91
        0
 92
    32768
 62
   257
 93
        1
300
CONTENTFORMAT
  1
CONTENTFORMAT_BEGIN
 90
        0
 91
        0
 92
      512
 93
        0
300

 40
0.0
140
1.0
 94
        5
 62
     0
340
55
144
0.25
309
CONTENTFORMAT_END
171
     0
 94
        0
309
TABLEFORMAT_END
  1
CELLSTYLE_BEGIN
 90
        1
 91
        1
300
_TITLE
309
CELLSTYLE_END
300
CELLSTYLE
  1
TABLEFORMAT_BEGIN
 90
        5
170
     1
 91
        0
 92
        0
 62
   257
 93
        1
300
CONTENTFORMAT
  1
CONTENTFORMAT_BEGIN
 90
        0
 91
        0
 92
      512
 93
        0
300

 40
0.0
140
1.0
 94
        5
 62
     0
340
55
144
0.18
309
CONTENTFORMAT_END
171
     0
 94
        0
309
TABLEFORMAT_END
  1
CELLSTYLE_BEGIN
 90
        2
 91
        1
300
_HEADER
309
CELLSTYLE_END
300
CELLSTYLE
  1
TABLEFORMAT_BEGIN
 90
        5
170
     1
 91
        0
 92
        0
 62
   257
 93
        1
300
CONTENTFORMAT
  1
CONTENTFORMAT_BEGIN
 90
        0
 91
        0
 92
      512
 93
        0
300

 40
0.0
140
1.0
 94
        2
 62
     0
340
55
144
0.18
309
CONTENTFORMAT_END
171
     0
 94
        0
309
TABLEFORMAT_END
  1
CELLSTYLE_BEGIN
 90
        3
 91
        2
300
_DATA
309
CELLSTYLE_END
  0
ENDSEC
  0
EOF
