  0
SECTION
  2
HEADER
  9
$ACADVER
  1
AC1027
  9
$ACADMAINTVER
 70
     8
  9
$DWGCODEPAGE
  3
ANSI_1252
  9
$LASTSAVEDBY
  1
Amelia
  9
$REQUIREDVERSIONS
160
                 0
  9
$INSBASE
 10
0.0
 20
0.0
 30
0.0
  9
$EXTMIN
 10
-46.9328032
 20
-46.9918528
 30
0.0
  9
$EXTMAX
 10
46.9999325
 20
46.9918528
 30
0.0
  9
$LIMMIN
 10
0.0
 20
0.0
  9
$LIMMAX
 10
12.0
 20
9.0
  9
$ORTHOMODE
 70
     0
  9
$REGENMODE
 70
     1
  9
$FILLMODE
 70
     1
  9
$QTEXTMODE
 70
     0
  9
$MIRRTEXT
 70
     0
  9
$LTSCALE
 40
1.0
  9
$ATTMODE
 70
     1
  9
$TEXTSIZE
 40
0.2
  9
$TRACEWID
 40
0.05
  9
$TEXTSTYLE
  7
Standard
  9
$CLAYER
  8
0
  9
$CELTYPE
  6
Continuous
  9
$CECOLOR
 62
   256
  9
$CELTSCALE
 40
1.0
  9
$DISPSILH
 70
     0
  9
$DIMSCALE
 40
1.0
  9
$DIMASZ
 40
0.18
  9
$DIMEXO
 40
0.0625
  9
$DIMDLI
 40
0.38
  9
$DIMRND
 40
0.0
  9
$DIMDLE
 40
0.0
  9
$DIMEXE
 40
0.18
  9
$DIMTP
 40
0.0
  9
$DIMTM
 40
0.0
  9
$DIMTXT
 40
0.18
  9
$DIMCEN
 40
0.09
  9
$DIMTSZ
 40
0.0
  9
$DIMTOL
 70
     0
  9
$DIMLIM
 70
     0
  9
$DIMTIH
 70
     1
  9
$DIMTOH
 70
     1
  9
$DIMSE1
 70
     0
  9
$DIMSE2
 70
     0
  9
$DIMTAD
 70
     0
  9
$DIMZIN
 70
     0
  9
$DIMBLK
  1

  9
$DIMASO
 70
     1
  9
$DIMSHO
 70
     1
  9
$DIMPOST
  1

  9
$DIMAPOST
  1

  9
$DIMALT
 70
     0
  9
$DIMALTD
 70
     2
  9
$DIMALTF
 40
25.4
  9
$DIMLFAC
 40
1.0
  9
$DIMTOFL
 70
     0
  9
$DIMTVP
 40
0.0
  9
$DIMTIX
 70
     0
  9
$DIMSOXD
 70
     0
  9
$DIMSAH
 70
     0
  9
$DIMBLK1
  1

  9
$DIMBLK2
  1

  9
$DIMSTYLE
  2
Standard
  9
$DIMCLRD
 70
     0
  9
$DIMCLRE
 70
     0
  9
$DIMCLRT
 70
     0
  9
$DIMTFAC
 40
1.0
  9
$DIMGAP
 40
0.09
  9
$DIMJUST
 70
     0
  9
$DIMSD1
 70
     0
  9
$DIMSD2
 70
     0
  9
$DIMTOLJ
 70
     1
  9
$DIMTZIN
 70
     0
  9
$DIMALTZ
 70
     0
  9
$DIMALTTZ
 70
     0
  9
$DIMUPT
 70
     0
  9
$DIMDEC
 70
     4
  9
$DIMTDEC
 70
     4
  9
$DIMALTU
 70
     2
  9
$DIMALTTD
 70
     2
  9
$DIMTXSTY
  7
Standard
  9
$DIMAUNIT
 70
     0
  9
$DIMADEC
 70
     0
  9
$DIMALTRND
 40
0.0
  9
$DIMAZIN
 70
     0
  9
$DIMDSEP
 70
    46
  9
$DIMATFIT
 70
     3
  9
$DIMFRAC
 70
     0
  9
$DIMLDRBLK
  1

  9
$DIMLUNIT
 70
     2
  9
$DIMLWD
 70
    -2
  9
$DIMLWE
 70
    -2
  9
$DIMTMOVE
 70
     0
  9
$DIMFXL
 40
1.0
  9
$DIMFXLON
 70
     0
  9
$DIMJOGANG
 40
0.7853981633974483
  9
$DIMTFILL
 70
     0
  9
$DIMTFILLCLR
 70
     0
  9
$DIMARCSYM
 70
     0
  9
$DIMLTYPE
  6

  9
$DIMLTEX1
  6

  9
$DIMLTEX2
  6

  9
$DIMTXTDIRECTION
 70
     0
  9
$LUNITS
 70
     2
  9
$LUPREC
 70
     4
  9
$SKETCHINC
 40
0.1
  9
$FILLETRAD
 40
0.0
  9
$AUNITS
 70
     0
  9
$AUPREC
 70
     0
  9
$MENU
  1
.
  9
$ELEVATION
 40
0.0
  9
$PELEVATION
 40
0.0
  9
$THICKNESS
 40
0.0
  9
$LIMCHECK
 70
     0
  9
$CHAMFERA
 40
0.0
  9
$CHAMFERB
 40
0.0
  9
$CHAMFERC
 40
0.0
  9
$CHAMFERD
 40
0.0
  9
$SKPOLY
 70
     0
  9
$TDCREATE
 40
2456558.974519086
  9
$TDUCREATE
 40
2456558.557852419
  9
$TDUPDATE
 40
2456558.975310070
  9
$TDUUPDATE
 40
2456558.558643403
  9
$TDINDWG
 40
0.0007909954
  9
$TDUSRTIMER
 40
0.0007909954
  9
$USRTIMER
 70
     1
  9
$ANGBASE
 50
0.0
  9
$ANGDIR
 70
     0
  9
$PDMODE
 70
     0
  9
$PDSIZE
 40
0.0
  9
$PLINEWID
 40
0.0
  9
$SPLFRAME
 70
     0
  9
$SPLINETYPE
 70
     6
  9
$SPLINESEGS
 70
     8
  9
$HANDSEED
  5
799
  9
$SURFTAB1
 70
     6
  9
$SURFTAB2
 70
     6
  9
$SURFTYPE
 70
     6
  9
$SURFU
 70
     6
  9
$SURFV
 70
     6
  9
$UCSBASE
  2

  9
$UCSNAME
  2

  9
$UCSORG
 10
0.0
 20
0.0
 30
0.0
  9
$UCSXDIR
 10
1.0
 20
0.0
 30
0.0
  9
$UCSYDIR
 10
0.0
 20
1.0
 30
0.0
  9
$UCSORTHOREF
  2

  9
$UCSORTHOVIEW
 70
     0
  9
$UCSORGTOP
 10
0.0
 20
0.0
 30
0.0
  9
$UCSORGBOTTOM
 10
0.0
 20
0.0
 30
0.0
  9
$UCSORGLEFT
 10
0.0
 20
0.0
 30
0.0
  9
$UCSORGRIGHT
 10
0.0
 20
0.0
 30
0.0
  9
$UCSORGFRONT
 10
0.0
 20
0.0
 30
0.0
  9
$UCSORGBACK
 10
0.0
 20
0.0
 30
0.0
  9
$PUCSBASE
  2

  9
$PUCSNAME
  2

  9
$PUCSORG
 10
0.0
 20
0.0
 30
0.0
  9
$PUCSXDIR
 10
1.0
 20
0.0
 30
0.0
  9
$PUCSYDIR
 10
0.0
 20
1.0
 30
0.0
  9
$PUCSORTHOREF
  2

  9
$PUCSORTHOVIEW
 70
     0
  9
$PUCSORGTOP
 10
0.0
 20
0.0
 30
0.0
  9
$PUCSORGBOTTOM
 10
0.0
 20
0.0
 30
0.0
  9
$PUCSORGLEFT
 10
0.0
 20
0.0
 30
0.0
  9
$PUCSORGRIGHT
 10
0.0
 20
0.0
 30
0.0
  9
$PUCSORGFRONT
 10
0.0
 20
0.0
 30
0.0
  9
$PUCSORGBACK
 10
0.0
 20
0.0
 30
0.0
  9
$USERI1
 70
     0
  9
$USERI2
 70
     0
  9
$USERI3
 70
     0
  9
$USERI4
 70
     0
  9
$USERI5
 70
     0
  9
$USERR1
 40
0.0
  9
$USERR2
 40
0.0
  9
$USERR3
 40
0.0
  9
$USERR4
 40
0.0
  9
$USERR5
 40
0.0
  9
$WORLDVIEW
 70
     1
  9
$SHADEDGE
 70
     3
  9
$SHADEDIF
 70
    70
  9
$TILEMODE
 70
     1
  9
$MAXACTVP
 70
    64
  9
$PINSBASE
 10
0.0
 20
0.0
 30
0.0
  9
$PLIMCHECK
 70
     0
  9
$PEXTMIN
 10
1.000000000000000E+20
 20
1.000000000000000E+20
 30
1.000000000000000E+20
  9
$PEXTMAX
 10
-1.000000000000000E+20
 20
-1.000000000000000E+20
 30
-1.000000000000000E+20
  9
$PLIMMIN
 10
0.0
 20
0.0
  9
$PLIMMAX
 10
12.0
 20
9.0
  9
$UNITMODE
 70
     0
  9
$VISRETAIN
 70
     1
  9
$PLINEGEN
 70
     0
  9
$PSLTSCALE
 70
     1
  9
$TREEDEPTH
 70
  3020
  9
$CMLSTYLE
  2
Standard
  9
$CMLJUST
 70
     0
  9
$CMLSCALE
 40
1.0
  9
$PROXYGRAPHICS
 70
     1
  9
$MEASUREMENT
 70
     0
  9
$CELWEIGHT
370
    -1
  9
$ENDCAPS
280
     0
  9
$JOINSTYLE
280
     0
  9
$LWDISPLAY
290
     0
  9
$INSUNITS
 70
     0
  9
$HYPERLINKBASE
  1

  9
$STYLESHEET
  1

  9
$XEDIT
290
     1
  9
$CEPSNTYPE
380
     0
  9
$PSTYLEMODE
290
     1
  9
$FINGERPRINTGUID
  2
{BEFBF0E1-CE76-49C4-9880-5088DF5C6A74}
  9
$VERSIONGUID
  2
{B3AC81DF-4E19-4F84-A5EB-8AEAE339E1AF}
  9
$EXTNAMES
290
     1
  9
$PSVPSCALE
 40
0.0
  9
$OLESTARTUP
290
     0
  9
$SORTENTS
280
   127
  9
$INDEXCTL
280
     0
  9
$HIDETEXT
280
     0
  9
$XCLIPFRAME
280
     2
  9
$HALOGAP
280
     0
  9
$OBSCOLOR
 70
   257
  9
$OBSLTYPE
280
     0
  9
$INTERSECTIONDISPLAY
280
     0
  9
$INTERSECTIONCOLOR
 70
   257
  9
$DIMASSOC
280
     1
  9
$PROJECTNAME
  1

  9
$CAMERADISPLAY
290
     0
  9
$LENSLENGTH
 40
50.0
  9
$CAMERAHEIGHT
 40
0.0
  9
$STEPSPERSEC
 40
2.0
  9
$STEPSIZE
 40
6.0
  9
$3DDWFPREC
 40
2.0
  9
$PSOLWIDTH
 40
0.25
  9
$PSOLHEIGHT
 40
4.0
  9
$LOFTANG1
 40
1.570796326794896
  9
$LOFTANG2
 40
1.570796326794896
  9
$LOFTMAG1
 40
0.0
  9
$LOFTMAG2
 40
0.0
  9
$LOFTPARAM
 70
     7
  9
$LOFTNORMALS
280
     1
  9
$LATITUDE
 40
37.795
  9
$LONGITUDE
 40
-122.394
  9
$NORTHDIRECTION
 40
0.0
  9
$TIMEZONE
 70
 -8000
  9
$LIGHTGLYPHDISPLAY
280
     1
  9
$TILEMODELIGHTSYNCH
280
     1
  9
$CMATERIAL
347
11
  9
$SOLIDHIST
280
     0
  9
$SHOWHIST
280
     1
  9
$DWFFRAME
280
     2
  9
$DGNFRAME
280
     0
  9
$REALWORLDSCALE
290
     1
  9
$INTERFERECOLOR
 62
     1
  9
$INTERFEREOBJVS
345
33
  9
$INTERFEREVPVS
346
30
  9
$CSHADOW
280
     0
  9
$SHADOWPLANELOCATION
 40
0.0
  0
ENDSEC
  0
SECTION
  2
CLASSES
  0
CLASS
  1
ACDBDICTIONARYWDFLT
  2
AcDbDictionaryWithDefault
  3
ObjectDBX Classes
 90
        0
 91
        1
280
     0
281
     0
  0
CLASS
  1
MATERIAL
  2
AcDbMaterial
  3
ObjectDBX Classes
 90
     1153
 91
        3
280
     0
281
     0
  0
CLASS
  1
VISUALSTYLE
  2
AcDbVisualStyle
  3
ObjectDBX Classes
 90
     4095
 91
       24
280
     0
281
     0
  0
CLASS
  1
SCALE
  2
AcDbScale
  3
ObjectDBX Classes
 90
     1153
 91
       17
280
     0
281
     0
  0
CLASS
  1
TABLESTYLE
  2
AcDbTableStyle
  3
ObjectDBX Classes
 90
     4095
 91
        1
280
     0
281
     0
  0
CLASS
  1
MLEADERSTYLE
  2
AcDbMLeaderStyle
  3
ACDB_MLEADERSTYLE_CLASS
 90
     4095
 91
        1
280
     0
281
     0
  0
CLASS
  1
ACDBSECTIONVIEWSTYLE
  2
AcDbSectionViewStyle
  3
ObjectDBX Classes
 90
     1025
 91
        1
280
     0
281
     0
  0
CLASS
  1
ACDBDETAILVIEWSTYLE
  2
AcDbDetailViewStyle
  3
ObjectDBX Classes
 90
     1025
 91
        1
280
     0
281
     0
  0
CLASS
  1
DICTIONARYVAR
  2
AcDbDictionaryVar
  3
ObjectDBX Classes
 90
        0
 91
        9
280
     0
281
     0
  0
CLASS
  1
CELLSTYLEMAP
  2
AcDbCellStyleMap
  3
ObjectDBX Classes
 90
     1152
 91
        1
280
     0
281
     0
  0
ENDSEC
  0
SECTION
  2
TABLES
  0
TABLE
  2
VPORT
  5
8
330
0
100
AcDbSymbolTable
 70
     1
  0
VPORT
  5
788
330
8
100
AcDbSymbolTableRecord
100
AcDbViewportTableRecord
  2
*Active
 70
     0
 10
0.0
 20
0.0
 11
1.0
 21
1.0
 12
14.12384473197782
 22
4.5
 13
0.0
 23
0.0
 14
1.0
 24
1.0
 15
0.0
 25
0.0
 16
0.0
 26
0.0
 36
1.0
 17
0.0
 27
0.0
 37
0.0
 40
9.0
 41
3.138632162661737
 42
50.0
 43
0.0
 44
0.0
 50
0.0
 51
0.0
 71
     0
 72
  1000
 73
     1
 74
     3
 75
     0
 76
     0
 77
     0
 78
     0
281
     0
 65
     1
110
0.0
120
0.0
130
0.0
111
1.0
121
0.0
131
0.0
112
0.0
122
1.0
132
0.0
 79
     0
146
0.0
348
2F
 60
     3
 61
     5
292
     1
282
     1
141
0.0
142
0.0
 63
   250
421
  3355443
1001
ACAD_NAV_VCDISPLAY
1070
     1
  0
ENDTAB
  0
TABLE
  2
LTYPE
  5
5
330
0
100
AcDbSymbolTable
 70
     2
  0
LTYPE
  5
5A
330
5
100
AcDbSymbolTableRecord
100
AcDbLinetypeTableRecord
  2
ByBlock
 70
     0
  3

 72
    65
 73
     0
 40
0.0
  0
LTYPE
  5
5B
330
5
100
AcDbSymbolTableRecord
100
AcDbLinetypeTableRecord
  2
ByLayer
 70
     0
  3

 72
    65
 73
     0
 40
0.0
  0
LTYPE
  5
5C
330
5
100
AcDbSymbolTableRecord
100
AcDbLinetypeTableRecord
  2
Continuous
 70
     0
  3
Solid line
 72
    65
 73
     0
 40
0.0
  0
LTYPE
  5
68
330
5
100
AcDbSymbolTableRecord
100
AcDbLinetypeTableRecord
  2
PHANTOM2
 70
     0
  3
Phantom (.5x) ___ _ _ ___ _ _ ___ _ _ ___ _ _
 72
    65
 73
     6
 40
1.25
 49
0.625
 74
     0
 49
-0.125
 74
     0
 49
0.125
 74
     0
 49
-0.125
 74
     0
 49
0.125
 74
     0
 49
-0.125
 74
     0
  0
ENDTAB
  0
TABLE
  2
LAYER
  5
2
330
0
100
AcDbSymbolTable
 70
     1
  0
LAYER
  5
54
102
{ACAD_XDICTIONARY
360
78A
102
}
330
2
100
AcDbSymbolTableRecord
100
AcDbLayerTableRecord
  2
0
 70
     0
 62
     7
  6
Continuous
370
    -3
390
F
347
21
348
0
  0
ENDTAB
  0
TABLE
  2
STYLE
  5
3
330
0
100
AcDbSymbolTable
 70
     2
  0
STYLE
  5
55
330
3
100
AcDbSymbolTableRecord
100
AcDbTextStyleTableRecord
  2
Standard
 70
     0
 40
0.0
 41
1.0
 50
0.0
 71
     0
 42
0.2
  3
txt
  4

  0
STYLE
  5
59
330
3
100
AcDbSymbolTableRecord
100
AcDbTextStyleTableRecord
  2
Annotative
 70
     0
 40
0.0
 41
1.0
 50
0.0
 71
     0
 42
0.2
  3
txt
  4

1001
AcadAnnotative
1000
AnnotativeData
1002
{
1070
     1
1070
     1
1002
}
  0
ENDTAB
  0
TABLE
  2
VIEW
  5
6
330
0
100
AcDbSymbolTable
 70
     0
  0
ENDTAB
  0
TABLE
  2
UCS
  5
7
330
0
100
AcDbSymbolTable
 70
     0
  0
ENDTAB
  0
TABLE
  2
APPID
  5
9
330
0
100
AcDbSymbolTable
 70
     3
  0
APPID
  5
56
330
9
100
AcDbSymbolTableRecord
100
AcDbRegAppTableRecord
  2
ACAD
 70
     0
  0
APPID
  5
5D
330
9
100
AcDbSymbolTableRecord
100
AcDbRegAppTableRecord
  2
AcadAnnotative
 70
     0
  0
APPID
  5
787
330
9
100
AcDbSymbolTableRecord
100
AcDbRegAppTableRecord
  2
ACAD_NAV_VCDISPLAY
 70
     0
  0
ENDTAB
  0
TABLE
  2
DIMSTYLE
  5
A
330
0
100
AcDbSymbolTable
 70
     2
100
AcDbDimStyleTable
 71
     0
  0
DIMSTYLE
105
57
330
A
100
AcDbSymbolTableRecord
100
AcDbDimStyleTableRecord
  2
Standard
 70
     0
340
55
  0
DIMSTYLE
105
58
330
A
100
AcDbSymbolTableRecord
100
AcDbDimStyleTableRecord
  2
Annotative
 70
     0
340
55
1001
AcadAnnotative
1000
AnnotativeData
1002
{
1070
     1
1070
     1
1002
}
  0
ENDTAB
  0
TABLE
  2
BLOCK_RECORD
  5
1
330
0
100
AcDbSymbolTable
 70
     0
  0
BLOCK_RECORD
  5
70
330
1
100
AcDbSymbolTableRecord
100
AcDbBlockTableRecord
  2
*Model_Space
340
73
 70
     0
280
     1
281
     0
  0
BLOCK_RECORD
  5
6C
330
1
100
AcDbSymbolTableRecord
100
AcDbBlockTableRecord
  2
*Paper_Space
340
6F
 70
     0
280
     1
281
     0
  0
ENDTAB
  0
ENDSEC
  0
SECTION
  2
BLOCKS
  0
BLOCK
  5
71
330
70
100
AcDbEntity
  8
0
100
AcDbBlockBegin
  2
*Model_Space
 70
     0
 10
0.0
 20
0.0
 30
0.0
  3
*Model_Space
  1

  0
ENDBLK
  5
72
330
70
100
AcDbEntity
  8
0
100
AcDbBlockEnd
  0
BLOCK
  5
6D
330
6C
100
AcDbEntity
 67
     1
  8
0
100
AcDbBlockBegin
  2
*Paper_Space
 70
     0
 10
0.0
 20
0.0
 30
0.0
  3
*Paper_Space
  1

  0
ENDBLK
  5
6E
330
6C
100
AcDbEntity
 67
     1
  8
0
100
AcDbBlockEnd
  0
ENDSEC
  0
SECTION
  2
ENTITIES
  0
CIRCLE
  5
74
330
70
100
AcDbEntity
  8
0
 62
    13
100
AcDbCircle
 10
0.0
 20
0.0
 30
0.0
 40
2.5
  0
LWPOLYLINE
  5
75
330
70
100
AcDbEntity
  8
0
 62
    13
100
AcDbPolyline
 90
     1002
 70
     0
 43
0.0
 10
42.9016178
 20
-2.0593675
 10
43.15629529999999
 20
-2.022348599999999
 10
43.41611379999999
 20
-1.976709899999999
 10
43.66884829999999
 20
-1.925485799999999
 10
43.94487029999999
 20
-1.862489199999999
 10
44.19966389999999
 20
-1.798238399999999
 10
44.4709431
 20
-1.723756799999999
 10
44.7583833
 20
-1.6383281
 10
45.01001229999999
 20
-1.558264399999999
 10
45.27241039999999
 20
-1.4697031
 10
45.54535399999999
 20
-1.372245099999999
 10
45.8286089
 20
-1.265496699999999
 10
46.06247279999999
 20
-1.1731479
 10
46.30264920000001
 20
-1.074408399999999
 10
46.54900379999999
 20
-0.9690847999999999
 10
46.80139819999999
 20
-0.8569856999999998
 10
46.99365
 20
-0.7687805
 10
46.9982728
 20
-0.3956188
 10
46.9999325
 20
-0.0224322
 10
46.998629
 20
0.3507558
 10
46.99436239999999
 20
0.7239217
 10
46.99365
 20
0.7687805
 10
46.7529851
 20
0.8788146999999998
 10
46.4930425
 20
0.9933665000000001
 10
46.23960349999999
 20
1.100706299999999
 10
45.9928206
 20
1.201046599999999
 10
45.75284149999999
 20
1.2946028
 10
45.443699
 20
1.4091693
 10
45.14723049999999
 20
1.512588399999999
 10
44.863745
 20
1.605392899999999
 10
44.5935362
 20
1.6881235
 10
44.3368812
 20
1.7613278
 10
44.09404129999999
 20
1.825560499999999
 10
43.81029029999999
 20
1.894090199999999
 10
43.54894849999999
 20
1.9505876
 10
43.2654802
 20
2.0040826
 10
43.0154711
 20
2.043829099999999
 10
42.7667833
 20
2.0754702
 10
42.6347771
 20
2.088559599999999
 10
42.51052969999999
 20
3.865380299999999
 10
42.77071079999999
 20
3.931425299999999
 10
43.0177577
 20
4.003528199999999
 10
43.2686961
 20
4.084882499999999
 10
43.5118419
 20
4.170781899999999
 10
43.77641029999999
 20
4.2715803
 10
44.0197822
 20
4.370666299999999
 10
44.2780555
 20
4.4821777
 10
44.550809
 20
4.606779
 10
44.78884639999999
 20
4.721083499999999
 10
45.0363655
 20
4.8453017
 10
45.29308939999999
 20
4.979797599999999
 10
45.5587312
 20
5.124928599999999
 10
45.7774666
 20
5.248926299999999
 10
46.0015637
 20
5.3801309
 10
46.2308627
 20
5.518715499999999
 10
46.4651996
 20
5.664850099999999
 10
46.6433046
 20
5.778953299999999
 10
46.59594829999999
 20
6.1491267
 10
46.54565439999999
 20
6.518912499999999
 10
46.4924258
 20
6.8882872
 10
46.4362661
 20
7.2572277
 10
46.4293174
 20
7.301550699999999
 10
46.1756809
 20
7.3770201
 10
45.9023255
 20
7.454280099999999
 10
45.6364141
 20
7.525303299999999
 10
45.3780682
 20
7.590321499999999
 10
45.1274041
 20
7.6495687
 10
44.80532559999999
 20
7.719995799999999
 10
44.4973491
 20
7.781147999999999
 10
44.2037067
 20
7.8335959
 10
43.9246136
 20
7.8779155
 10
43.6602683
 20
7.914687899999999
 10
43.4108523
 20
7.9444987
 10
43.1203252
 20
7.972871
 10
42.8536638
 20
7.992446799999999
 10
42.5655091
 20
8.005969999999999
 10
42.3124015
 20
8.010535199999999
 10
42.27364289999999
 20
8.010567999999999
 10
41.99897070000001
 20
8.005045199999999
 10
41.9291871
 20
8.001847999999998
 10
41.5588632
 20
9.7440849
 10
41.8073205
 20
9.8456974
 10
42.0419284
 20
9.951480899999999
 10
42.27910229999999
 20
10.0669673
 10
42.507927
 20
10.1858701
 10
42.7558922
 20
10.3225084
 10
42.9831055
 20
10.4545008
 10
43.22334589999999
 20
10.6008717
 10
43.47610389999999
 20
10.7622204
 10
43.6959166
 20
10.9085409
 10
43.92373909999999
 20
11.0659982
 10
44.1592463
 20
11.2349143
 10
44.4021045
 20
11.415603
 10
44.6014541
 20
11.5688361
 10
44.8051102
 20
11.7299521
 10
45.0128903
 20
11.8991003
 10
45.2246087
 20
12.0764261
 10
45.3851003
 20
12.2142062
 10
45.2866867
 20
12.5741864
 10
45.185418
 20
12.9333739
 10
45.0813005
 20
13.2917459
 10
44.97434069999999
 20
13.64928
 10
44.9612911
 20
13.6922046
 10
44.6996196
 20
13.7316401
 10
44.4181719
 20
13.7701045
 10
44.14496389999999
 20
13.8034288
 10
43.88008339999999
 20
13.8318595
 10
43.62361309999999
 20
13.8556444
 10
43.2948675
 20
13.8805615
 10
42.9813775
 20
13.8982565
 10
42.6832934
 20
13.9093268
 10
42.4007483
 20
13.9143728
 10
42.26533970000001
 20
13.9148251
 10
42.0063145
 20
13.9119661
 10
41.7047541
 20
13.9021172
 10
41.4280088
 20
13.8864035
 10
41.17617199999999
 20
13.8660138
 10
40.9069152
 20
13.8370486
 10
40.6382077
 20
13.7996504
 10
40.4074931
 20
13.7593896
 10
39.79830070000001
 20
15.433132
 10
40.03019829999999
 20
15.5683342
 10
40.2478008
 20
15.7057393
 10
40.4665939
 20
15.8531101
 10
40.67664370000001
 20
16.0027019
 10
40.9031793
 20
16.1725205
 10
41.1098116
 20
16.3348504
 10
41.3273431
 20
16.5132319
 10
41.55518589999999
 20
16.7081874
 10
41.7524955
 20
16.8836759
 10
41.95618699999999
 20
17.0713076
 10
42.1658937
 20
17.2713561
 10
42.3812414
 20
17.4840858
 10
42.55732499999999
 20
17.6635717
 10
42.73657609999999
 20
17.8514632
 10
42.91879329999999
 20
18.0478826
 10
43.1037722
 20
18.2529482
 10
43.2435266
 20
18.4117235
 10
43.0959713
 20
18.754504
 10
42.9456989
 20
19.0961019
 10
42.79271879999999
 20
19.436496
 10
42.6370408
 20
19.7756646
 10
42.6181443
 20
19.8163553
 10
42.353531
 20
19.81898939999999
 10
42.2578611
 20
19.8190834
 10
41.9767514
 20
19.8166606
 10
41.7045346
 20
19.8103799
 10
41.44126179999999
 20
19.8004977
 10
41.1869783
 20
19.7872711
 10
40.86198519999999
 20
19.76487869999999
 10
40.5531224
 20
19.7376106
 10
40.26045129999999
 20
19.7060796
 10
39.9840156
 20
19.670899
 10
39.7238417
 20
19.6326818
 10
39.4215038
 20
19.5815736
 10
39.1445652
 20
19.5278728
 10
38.8929614
 20
19.4727704
 10
38.62432529999999
 20
19.4064671
 10
38.3564693
 20
19.3314378
 10
38.1097042
 20
19.2526786
 10
38.0993133
 20
19.2491203
 10
37.2631095
 20
20.8217907
 10
37.4739338
 20
20.98795110000001
 10
37.6702955
 20
21.1543034
 10
37.8664493
 20
21.33069
 10
38.0536357
 20
21.5080594
 10
38.25433250000001
 20
21.707753
 10
38.4363619
 20
21.8972607
 10
38.6269506
 20
22.1041807
 10
38.8254434
 20
22.3289486
 10
38.9964095
 20
22.5301894
 10
39.17200540000001
 20
22.7443435
 10
39.3518299
 20
22.9716306
 10
39.53547570000001
 20
23.2122606
 10
39.684866
 20
23.4145059
 10
39.8362232
 20
23.6255158
 10
39.9893308
 20
23.8453834
 10
40.14396989999999
 20
24.0741974
 10
40.260267
 20
24.2508776
 10
40.06644179999999
 20
24.5697864
 10
39.8700906
 20
24.88714610000001
 10
39.6712256
 20
25.2029367
 10
39.4698595
 20
25.5171384
 10
39.4454838
 20
25.5548032
 10
39.1830791
 20
25.5205846
 10
38.90193209999999
 20
25.4799815
 10
38.6301222
 20
25.4367085
 10
38.3676662
 20
25.3910269
 10
38.1145751
 20
25.3431975
 10
37.7916965
 20
25.2765349
 10
37.4854731
 20
25.2071348
 10
37.1958849
 20
25.1356132
 10
36.9228943
 20
25.0625838
 10
36.6664462
 20
24.9886582
 10
36.4264682
 20
24.914445
 10
36.1495184
 20
24.8221964
 10
35.8979489
 20
24.7316188
 10
35.6292061
 20
24.6267698
 10
35.396124
 20
24.5279921
 10
35.1684575
 20
24.4230409
 10
35.04957360000001
 20
24.3641887
 10
34.0026343
 20
25.805177
 10
34.1882818
 20
25.9990614
 10
34.3595808
 20
26.191123
 10
34.5292774
 20
26.3930924
 10
34.6899571
 20
26.5947869
 10
34.8609087
 20
26.8204687
 10
35.0147922
 20
27.0334658
 10
35.1747284
 20
27.2648969
 10
35.34000779999999
 20
27.5151021
 10
35.4813028
 20
27.7381784
 10
35.6253853
 20
27.97468660000001
 10
35.7718275
 20
28.2247885
 10
35.9201968
 20
28.4886352
 10
36.0399862
 20
28.7097034
 10
36.1605035
 20
28.9397246
 10
36.2815214
 20
29.1787609
 10
36.4028108
 20
29.4268697
 10
36.493387
 20
29.6180159
 10
36.2570646
 20
29.9068459
 10
36.0184563
 20
30.1937902
 10
35.7775771
 20
30.4788309
 10
35.5344423
 20
30.7619501
 10
35.5050619
 20
30.7958559
 10
35.2499732
 20
30.7254507
 10
34.9772131
 20
30.6461146
 10
34.7140709
 20
30.5654341
 10
34.4605268
 20
30.4836703
 10
34.2165553
 20
30.4010829
 10
33.90609660000001
 20
30.290133
 10
33.612512
 20
30.1787903
 10
33.3356959
 20
30.0676618
 10
33.0755257
 20
29.9573501
 10
32.8318618
 20
29.8484533
 10
32.60454770000001
 20
29.7415639
 10
32.3431318
 20
29.6116691
 10
32.1066165
 20
29.4869613
 10
31.8550812
 20
29.3457309
 10
31.6380146
 20
29.2154757
 10
31.4271701
 20
29.0798608
 10
31.3176339
 20
29.005036
 10
30.0803365
 20
30.2862949
 10
30.23719380000001
 20
30.5041295
 10
30.3800959
 20
30.7181622
 10
30.5200323
 20
30.9417833
 10
30.6510778
 20
31.1638772
 10
30.78895689999999
 20
31.4111545
 10
30.9116994
 20
31.6434952
 10
31.0378701
 20
31.8949328
 10
31.1667192
 20
32.1657055
 10
31.2755929
 20
32.40627530000001
 10
31.3853577
 20
32.6605342
 10
31.4955672
 20
32.92858300000001
 10
31.6057722
 20
33.210511
 10
31.6936291
 20
33.4460992
 10
31.7809608
 20
33.6906546
 10
31.8675335
 20
33.9442071
 10
31.9531125
 20
34.2067815
 10
32.0162047
 20
34.4086733
 10
31.7419848
 20
34.6618026
 10
31.4657637
 20
34.9127466
 10
31.1875588
 20
35.16148939999999
 10
30.9073876
 20
35.4080154
 10
30.8735743
 20
35.4375023
 10
30.6307666
 20
35.3322808
 10
30.3717025
 20
35.2157559
 10
30.1223497
 20
35.0992383
 10
29.8826524
 20
34.98298360000001
 10
29.65254919999999
 20
34.8672458
 10
29.36055300000001
 20
34.7141681
 10
29.0853215
 20
34.5630499
 10
28.82666550000001
 20
34.4144775
 10
28.58437970000001
 20
34.2690307
 10
28.35824260000001
 20
34.1272822
 10
28.1480168
 20
33.989797
 10
27.9072228
 20
33.8247843
 10
27.6903653
 20
33.6683736
 10
27.4609334
 20
33.4935107
 10
27.2641073
 20
33.33431330000001
 10
27.0741887
 20
33.1706743
 10
26.976132
 20
33.0813332
 10
25.5725592
 20
34.1779244
 10
25.6975732
 20
34.4154694
 10
25.809297
 20
34.64730729999999
 10
25.9167495
 20
34.8882275
 10
26.0156102
 20
35.126398
 10
26.1177331
 20
35.39045789999999
 10
26.2069455
 20
35.6376199
 10
26.296895
 20
35.9041701
 10
26.3868059
 20
36.1902401
 10
26.4611392
 20
36.4436209
 10
26.5344497
 20
36.7106817
 10
26.6062815
 20
36.99146
 10
26.6761772
 20
37.2859819
 10
26.7303915
 20
37.5315047
 10
26.78283780000001
 20
37.7858343
 10
26.8332803
 20
38.04896779999999
 10
26.8814831
 20
38.3208972
 10
26.9158634
 20
38.5296049
 10
26.6090835
 20
38.7421068
 10
26.3006259
 20
38.952166
 10
25.9905101
 20
39.15976950000001
 10
25.6787557
 20
39.364904
 10
25.6411677
 20
39.3893981
 10
25.4153671
 20
39.25140820000001
 10
25.1750412
 20
39.0999626
 10
24.9443312
 20
38.9498758
 10
24.7231462
 20
38.8013931
 10
24.5113899
 20
38.6547573
 10
24.2435397
 20
38.4625314
 10
23.9920183
 20
38.274579
 10
23.7565568
 20
38.09145460000001
 10
23.5368712
 20
37.91370360000001
 10
23.3326624
 20
37.74186240000001
 10
23.1436168
 20
37.5764575
 10
22.9281315
 20
37.3795386
 10
22.7351526
 20
37.1944693
 10
22.5322897
 20
36.9893774
 10
22.3595351
 20
36.8043365
 10
22.1942389
 20
36.6158584
 10
22.1095704
 20
36.5137398
 10
20.5670411
 20
37.4043196
 10
20.6577786
 20
37.6569514
 10
20.7361495
 20
37.902082
 10
20.8090267
 20
38.15561210000001
 10
20.8737783
 20
38.4052235
 10
20.9381574
 20
38.68092629999999
 10
20.9921033
 20
38.9380989
 10
21.0440807
 20
39.2145736
 10
21.0933033
 20
39.5103727
 10
21.1316495
 20
39.7716329
 10
21.1670789
 20
40.04629749999999
 10
21.1991348
 20
40.33434039999999
 10
21.2273608
 20
40.63572360000001
 10
21.2468773
 20
40.8864021
 10
21.2634173
 20
41.1455558
 10
21.2767478
 20
41.4131487
 10
21.2866363
 20
41.68914019999999
 10
21.2916355
 20
41.9006016
 10
20.9582666
 20
42.06833989999999
 10
20.6235763
 20
42.23342589999999
 10
20.2875857
 20
42.3958492
 10
19.950316
 20
42.5555995
 10
19.9096849
 20
42.574624
 10
19.7052862
 20
42.40655170000001
 10
19.4883764
 20
42.223133
 10
19.2807997
 20
42.0423982
 10
19.082432
 20
41.8645775
 10
18.8931443
 20
41.689898
 10
18.6546535
 20
41.46226529999999
 10
18.4317378
 20
41.2411371
 10
18.2240538
 20
41.0270249
 10
18.0312442
 20
40.8204294
 10
17.8529385
 20
40.6218401
 10
17.6887526
 20
40.4317349
 10
17.5027702
 20
40.2067426
 10
17.337426
 20
39.996617
 10
17.1650807
 20
39.7652879
 10
17.01976
 20
39.558005
 10
16.8823036
 20
39.3483564
 10
16.8126712
 20
39.23544810000001
 10
15.1612089
 20
39.9026822
 10
15.2159039
 20
40.1654836
 10
15.2593964
 20
40.41913579999999
 10
15.2962798
 20
40.680341
 10
15.3256621
 20
40.9365349
 10
15.3510442
 20
41.2185145
 10
15.3686736
 20
41.4806921
 10
15.3816673
 20
41.76171
 10
15.3892437
 20
42.0614809
 10
15.3908562
 20
42.32553529999999
 10
15.3877149
 20
42.6024577
 10
15.3793711
 20
42.8921587
 10
15.3653779
 20
43.19453720000001
 10
15.3498168
 20
43.4454923
 10
15.3301286
 20
43.70442579999999
 10
15.3060876
 20
43.97126979999999
 10
15.2774693
 20
44.24595159999999
 10
15.2529901
 20
44.45605079999999
 10
14.8995208
 20
44.5757607
 10
14.5451122
 20
44.6926602
 10
14.1897865
 20
44.8067419
 10
13.8335662
 20
44.9179987
 10
13.7906828
 20
44.9311833
 10
13.6116645
 20
44.7362998
 10
13.4223925
 20
44.5244781
 10
13.2419894
 20
44.31661309999999
 10
13.0703
 20
44.1129155
 10
12.9071651
 20
43.91359229999999
 10
12.7026757
 20
43.6549834
 10
12.5127045
 20
43.40498329999999
 10
12.3368402
 20
43.1640508
 10
12.1746597
 20
42.932632
 10
12.0257275
 20
42.71116
 10
11.8895969
 20
42.5000546
 10
11.7367374
 20
42.2513682
 10
11.6022461
 20
42.020276
 10
11.4637729
 20
41.7672124
 10
11.3487147
 20
41.541722
 10
11.2417734
 20
41.3149835
 10
11.1885325
 20
41.193483
 10
9.460281
 20
41.62438449999999
 10
9.477868800000001
 20
41.8922404
 10
9.485636599999999
 20
42.14947709999999
 10
9.485808300000002
 20
42.41327349999999
 10
9.479249300000001
 20
42.67106329999999
 10
9.465140400000001
 20
42.9538311
 10
9.446110199999999
 20
43.2159108
 10
9.419867300000001
 20
43.4960023
 10
9.3856499
 20
43.79391029999999
 10
9.350497500000001
 20
44.0556193
 10
9.3088466
 20
44.32940949999999
 10
9.260265400000001
 20
44.6151299
 10
9.2043254
 20
44.9126182
 10
9.153989599999999
 20
45.1589653
 10
9.098456399999999
 20
45.41263879999999
 10
9.0375119
 20
45.6735401
 10
8.970943699999999
 20
45.94156579999999
 10
8.917462599999998
 20
46.1462135
 10
8.5507729
 20
46.215565
 10
8.183543999999999
 20
46.28200259999999
 10
7.8157993
 20
46.3455224
 10
7.447561699999999
 20
46.4061201
 10
7.4032607
 20
46.4132082
 10
7.253107099999999
 20
46.19530679999999
 10
7.095157
 20
45.959205
 10
6.945438799999998
 20
45.7282556
 10
6.8037695
 20
45.50264579999999
 10
6.669962599999998
 20
45.28255839999999
 10
6.503454699999999
 20
44.99800679999999
 10
6.350125599999999
 20
44.72400079999999
 10
6.2095042
 20
44.4609375
 10
6.0811092
 20
44.2091997
 10
5.9644494
 20
43.96915569999999
 10
5.8590238
 20
43.741159
 10
5.7422624
 20
43.4736189
 10
5.641241799999999
 20
43.2260581
 10
5.5393357
 20
42.9561856
 10
5.456779499999999
 20
42.7168766
 10
5.382434799999999
 20
42.47746129999999
 10
5.3466217
 20
42.3497336
 10
3.5752196
 20
42.5359155
 10
3.5553578
 20
42.8036124
 10
3.527249599999999
 20
43.0594267
 10
3.490706299999999
 20
43.32067969999999
 10
3.4483337
 20
43.575048
 10
3.3950084
 20
43.85310039999999
 10
3.339688899999999
 20
44.10998099999999
 10
3.274720299999999
 20
44.38369429999999
 10
3.1993751
 20
44.67394089999999
 10
3.128141899999999
 20
44.9282107
 10
3.0487921
 20
45.19353979999999
 10
2.9609191
 20
45.4697184
 10
2.8641212
 20
45.7565262
 10
2.779990299999999
 20
45.9934705
 10
2.689693099999999
 20
46.2369466
 10
2.593031199999999
 20
46.4868269
 10
2.489808899999999
 20
46.7429797
 10
2.408366899999999
 20
46.9381927
 10
2.035593899999999
 20
46.9558358
 10
1.662692499999999
 20
46.9705186
 10
1.289686399999999
 20
46.98223989999999
 10
0.9165988999999999
 20
46.9909992
 10
0.8717425999999999
 20
46.9918528
 10
0.7533763000000002
 20
46.7551746
 10
0.6298224000000001
 20
46.4993881
 10
0.5137031
 20
46.2498497
 10
0.4048114
 20
46.0067189
 10
0.3029369
 20
45.7701511
 10
0.1776514
 20
45.4651953
 10
0.0639487
 20
45.1725166
 10
-0.0386928
 20
44.8924427
 10
-0.1308032
 20
44.6252856
 10
-0.2129199999999999
 20
44.3713418
 10
-0.2855885
 20
44.13089160000001
 10
-0.3639793
 20
43.8497051
 10
-0.429563
 20
43.5904942
 10
-0.4929182
 20
43.3090655
 10
-0.5413657
 20
43.06059589999999
 10
-0.5816667
 20
42.81316379999999
 10
-0.599355
 20
42.6816949
 10
-2.379429499999999
 20
42.61953329999999
 10
-2.436354099999999
 20
42.8818608
 10
-2.499791299999999
 20
43.1312736
 10
-2.5723384
 20
43.38489829999999
 10
-2.6496998
 20
43.6308939
 10
-2.7412035
 20
43.8988189
 10
-2.831735499999999
 20
44.14550059999999
 10
-2.934165399999999
 20
44.40750829999999
 10
-3.049171899999999
 20
44.68444419999999
 10
-3.155099299999999
 20
44.9263257
 10
-3.270603599999999
 20
45.1780292
 10
-3.396058
 20
45.4392905
 10
-3.531829899999999
 20
45.70983539999999
 10
-3.648118299999999
 20
45.9327651
 10
-3.771422099999999
 20
46.1613047
 10
-3.901919799999999
 20
46.3953005
 10
-4.039787099999999
 20
46.6345946
 10
-4.147605
 20
46.81657329999999
 10
-4.519205699999999
 20
46.78216479999999
 10
-4.8905214
 20
46.7448068
 10
-5.261528799999999
 20
46.7045017
 10
-5.632204499999999
 20
46.661252
 10
-5.676743
 20
46.6558544
 10
-5.761018199999999
 20
46.4050062
 10
-5.847771099999999
 20
46.1345136
 10
-5.9280312
 20
45.871243
 10
-6.002025999999999
 20
45.6153236
 10
-6.069985099999999
 20
45.36687979999999
 10
-6.151609699999999
 20
45.0474554
 10
-6.2234729
 20
44.7418007
 10
-6.2861367
 20
44.45016749999999
 10
-6.340169599999999
 20
44.17279119999999
 10
-6.386145099999999
 20
43.9098902
 10
-6.4246422
 20
43.66166649999999
 10
-6.4631365
 20
43.3723067
 10
-6.4920067
 20
43.1064909
 10
-6.515578099999999
 20
42.8189837
 10
-6.5289738
 20
42.5661895
 10
-6.5344467
 20
42.3155566
 10
-6.533666
 20
42.1829054
 10
-8.287765700000001
 20
41.87361029999999
 10
-8.3806452
 20
42.12546249999999
 10
-8.478176600000001
 20
42.3636193
 10
-8.5853154
 20
42.6046791
 10
-8.696159899999999
 20
42.83751409999999
 10
-8.824061099999999
 20
43.09009679999999
 10
-8.948043499999998
 20
43.3217782
 10
-9.085941
 20
43.5669805
 10
-9.238370199999998
 20
43.8252155
 10
-9.3769302
 20
44.05000079999999
 10
-9.526340699999998
 20
44.28317970000001
 10
-9.686934800000001
 20
44.5244385
 10
-9.8590379
 20
44.77345479999999
 10
-10.0052204
 20
44.9780306
 10
-10.1591308
 20
45.1871855
 10
-10.3209244
 20
45.4007423
 10
-10.4907534
 20
45.61852029999999
 10
-10.6228485
 20
45.7837226
 10
-10.986044
 20
45.6979321
 10
-11.3485469
 20
45.60926049999999
 10
-11.7103343
 20
45.5177134
 10
-12.0713834
 20
45.4232965
 10
-12.1147373
 20
45.41175289999999
 10
-12.1632809
 20
45.1516171
 10
-12.2115443
 20
44.8716833
 10
-12.2543831
 20
44.5998047
 10
-12.2920407
 20
44.33607779999999
 10
-12.3247617
 20
44.0805938
 10
-12.3611367
 20
43.7529181
 10
-12.3897616
 20
43.44023649999999
 10
-12.4112281
 20
43.14272039999999
 10
-12.4261318
 20
42.8605235
 10
-12.4350712
 20
42.5937826
 10
-12.4386476
 20
42.34261679999999
 10
-12.4364961
 20
42.0507156
 10
-12.428091
 20
41.78346879999999
 10
-12.4114197
 20
41.49547899999999
 10
-12.3895029
 20
41.24328079999999
 10
-12.3600411
 20
40.9943253
 10
-12.3408066
 20
40.8630737
 10
-14.0347899
 20
40.31266519999999
 10
-14.1618166
 20
40.54914
 10
-14.2915438
 20
40.7714053
 10
-14.431189
 20
40.9952083
 10
-14.5733591
 20
41.2103508
 10
-14.7351683
 20
41.442675
 10
-14.890188
 20
41.6548467
 10
-15.060869
 20
41.87847109999999
 10
-15.2477542
 20
42.11297889999999
 10
-15.4162498
 20
42.31629279999999
 10
-15.5966584
 20
42.52640839999999
 10
-15.7892664
 20
42.742969
 10
-15.9943509
 20
42.9656097
 10
-16.1675823
 20
43.14784999999999
 10
-16.3491035
 20
43.3335492
 10
-16.539044
 20
43.52251029999999
 10
-16.737529
 20
43.7145333
 10
-16.8913303
 20
43.8597437
 10
-17.2390515
 20
43.72424109999999
 10
-17.5856858
 20
43.58598189999999
 10
-17.9312114
 20
43.4449746
 10
-18.2756065
 20
43.3012282
 10
-18.316932
 20
43.2837633
 10
-18.3287993
 20
43.0194031
 10
-18.3376337
 20
42.73547670000001
 10
-18.3422174
 20
42.46028189999999
 10
-18.3428048
 20
42.19388069999999
 10
-18.3396509
 20
41.9363291
 10
-18.3300683
 20
41.60677989999999
 10
-18.3148977
 20
41.29315759999999
 10
-18.2947491
 20
40.99554929999999
 10
-18.2702335
 20
40.7140246
 10
-18.2419627
 20
40.4486354
 10
-18.2105488
 20
40.19941619999999
 10
-18.1677935
 20
39.9106552
 10
-18.1222766
 20
39.647179
 10
-18.0656871
 20
39.36431210000001
 10
-18.0088844
 20
39.1176185
 10
-17.9450615
 20
38.8751861
 10
-17.90774739999999
 20
38.7478888
 10
-19.5086429
 20
37.9670799
 10
-19.66734439999999
 20
38.18357460000001
 10
-19.8267424
 20
38.3856224
 10
-19.9961759
 20
38.5878125
 10
-20.1669045
 20
38.7810749
 10
-20.3594722
 20
38.9886186
 10
-20.5425118
 20
39.1771509
 10
-20.7426543
 20
39.3748448
 10
-20.960358
 20
39.581061
 10
-21.1555096
 20
39.7589462
 10
-21.363405
 20
39.941909
 10
-21.5842779
 20
40.1295562
 10
-21.8183521
 20
40.32148789999999
 10
-22.0152605
 20
40.4778455
 10
-22.2208596
 20
40.6364747
 10
-22.4352499
 20
40.7971622
 10
-22.6585277
 20
40.9596926
 10
-22.8310416
 20
41.08208489999999
 10
-23.1565205
 20
40.89950759999999
 10
-23.4805394
 20
40.7143516
 10
-23.803078
 20
40.52662879999999
 10
-24.1241158
 20
40.33635079999999
 10
-24.1626084
 20
40.3133045
 10
-24.1375684
 20
40.04986539999999
 10
-24.1068019
 20
39.76747260000001
 10
-24.0730414
 20
39.4943181
 10
-24.0365471
 20
39.2304277
 10
-23.9975797
 20
38.97582160000001
 10
-23.9422259
 20
38.6508132
 10
-23.8835552
 20
38.3423543
 10
-23.8221836
 20
38.0504465
 10
-23.7587259
 20
37.7750734
 10
-23.6937952
 20
37.5162016
 10
-23.6280024
 20
37.2737797
 10
-23.5454754
 20
36.99377929999999
 10
-23.4637326
 20
36.7392019
 10
-23.3683265
 20
36.4669636
 10
-23.2777434
 20
36.2305762
 10
-23.1808015
 20
35.9993856
 10
-23.1261342
 20
35.8785203
 10
-24.6027824
 20
34.8825085
 10
-24.7900696
 20
35.0748094
 10
-24.976036
 20
35.25270689999999
 10
-25.17196010000001
 20
35.42934870000001
 10
-25.3679241
 20
35.5969695
 10
-25.5875022
 20
35.77569320000001
 10
-25.7949991
 20
35.9369165
 10
-26.0207075
 20
36.104832
 10
-26.2649922
 20
36.2787429
 10
-26.4830014
 20
36.427737
 10
-26.7143371
 20
36.5799858
 10
-26.9591759
 20
36.73506720000001
 10
-27.217684
 20
36.8925542
 10
-27.4344368
 20
37.0199858
 10
-27.6601119
 20
37.1484574
 10
-27.8947792
 20
37.27774370000001
 10
-28.1385039
 20
37.4076182
 10
-28.3263726
 20
37.50481
 10
-28.62327410000001
 20
37.2787116
 10
-28.918371
 20
37.05026289999999
 10
-29.2116446
 20
36.8194783
 10
-29.5030766
 20
36.5863722
 10
-29.53798710000001
 20
36.558193
 10
-29.4765272
 20
36.30080260000001
 10
-29.4067586
 20
36.0254399
 10
-29.3353109
 20
35.7596423
 10
-29.2624454
 20
35.5033991
 10
-29.1884228
 20
35.256694
 10
-29.0883753
 20
34.9425523
 10
-28.9873464
 20
34.6452607
 10
-28.8859464
 20
34.364735
 10
-28.7847817
 20
34.1008734
 10
-28.6844549
 20
33.8535575
 10
-28.5855638
 20
33.62265150000001
 10
-28.4648714
 20
33.3568615
 10
-28.3484939
 20
33.1161381
 10
-28.216128
 20
32.8598272
 10
-28.0935277
 20
32.638347
 10
-27.9653537
 20
32.42289810000001
 10
-27.8943972
 20
32.31081720000001
 10
-29.2180567
 20
31.1189888
 10
-29.4302843
 20
31.2833529
 10
-29.6391995
 20
31.4336376
 10
-29.8578006
 20
31.581293
 10
-30.0751858
 20
31.7200096
 10
-30.3175006
 20
31.8664346
 10
-30.5454161
 20
31.9972109
 10
-30.7922972
 20
32.13207970000001
 10
-31.0584082
 20
32.2703002
 10
-31.2950318
 20
32.3875034
 10
-31.54530510000001
 20
32.5060748
 10
-31.80934430000001
 20
32.625572
 10
-32.0872545
 20
32.745549
 10
-32.319633
 20
32.8415742
 10
-32.5609916
 20
32.9373876
 10
-32.81136830000001
 20
33.03275640000001
 10
-33.07079610000001
 20
33.127447
 10
-33.270363
 20
33.1975467
 10
-33.5329083
 20
32.9323279
 10
-33.79333939999999
 20
32.6650329
 10
-34.0516399
 20
32.3956785
 10
-34.3077935
 20
32.1242815
 10
-34.3384426
 20
32.0915179
 10
-34.241759
 20
31.845186
 10
-34.1343463
 20
31.582213
 10
-34.02660200000001
 20
31.3289458
 10
-33.9187834
 20
31.0853372
 10
-33.8111465
 20
30.851335
 10
-33.6683526
 20
30.5541744
 10
-33.5269319
 20
30.2738365
 10
-33.38747700000001
 20
30.01015300000001
 10
-33.2505745
 20
29.7629388
 10
-33.1168044
 20
29.5319925
 10
-32.9867398
 20
29.3170966
 10
-32.8302311
 20
29.0706904
 10
-32.6814839
 20
28.84850630000001
 10
-32.51473460000001
 20
28.61311160000001
 10
-32.3625034
 20
28.4108495
 10
-32.20559210000001
 20
28.21533560000001
 10
-32.11972750000001
 20
28.1142208
 10
-33.2646347
 20
26.7497734
 10
-33.4976721
 20
26.8830015
 10
-33.72546970000001
 20
27.0027483
 10
-33.962493
 20
27.1185433
 10
-34.1970683
 20
27.2256558
 10
-34.4574032
 20
27.3369321
 10
-34.7013012
 20
27.434716
 10
-34.9645499
 20
27.5339131
 10
-35.24730770000001
 20
27.6337529
 10
-35.49794
 20
27.7168838
 10
-35.76227960000001
 20
27.7994699
 10
-36.04038
 20
27.881057
 10
-36.3322831
 20
27.9611888
 10
-36.5757643
 20
28.0239387
 10
-36.82810870000001
 20
28.085229
 10
-37.0893214
 20
28.144824
 10
-37.3594029
 20
28.2024877
 10
-37.5667836
 20
28.2441308
 10
-37.7898625
 20
27.944954
 10
-38.0105588
 20
27.6440152
 10
-38.2288587
 20
27.3413336
 10
-38.44474829999999
 20
27.0369282
 10
-38.4705393
 20
27.0002179
 10
-38.3405138
 20
26.7697391
 10
-38.1975477
 20
26.5242743
 10
-38.055604
 20
26.2884669
 10
-37.9149309
 20
26.06223460000001
 10
-37.77577470000001
 20
25.8454898
 10
-37.59301370000001
 20
25.5710942
 10
-37.4139538
 20
25.3131666
 10
-37.2391585
 20
25.0714575
 10
-37.06918270000001
 20
24.8457023
 10
-36.9045729
 20
24.6356208
 10
-36.7458663
 20
24.4409178
 10
-36.5565877
 20
24.2186914
 10
-36.378366
 20
24.0193712
 10
-36.1804789
 20
23.8094743
 10
-36.0015797
 20
23.6303671
 10
-35.8189852
 20
23.4585938
 10
-35.7198838
 20
23.370413
 10
-36.6637545
 20
21.8599041
 10
-36.9130657
 20
21.95940310000001
 10
-37.1553119
 20
22.0462812
 10
-37.4061441
 20
22.1279621
 10
-37.6533437
 20
22.2013856
 10
-37.9266318
 20
22.2753473
 10
-38.1817651
 20
22.3382355
 10
-38.4562573
 20
22.3998301
 10
-38.7501584
 20
22.459346
 10
-39.00992120000001
 20
22.5067866
 10
-39.28318200000001
 20
22.5517801
 10
-39.5699307
 20
22.5938691
 10
-39.87014520000001
 20
22.632596
 10
-40.1199899
 20
22.6608491
 10
-40.3784085
 20
22.6864234
 10
-40.6453732
 20
22.7090846
 10
-40.9208514
 20
22.728599
 10
-41.1320096
 20
22.7409751
 10
-41.3112801
 20
22.4136632
 10
-41.487946
 20
22.0849382
 10
-41.6619963
 20
21.7548208
 10
-41.83341979999999
 20
21.4233318
 10
-41.8538507
 20
21.3833894
 10
-41.6930142
 20
21.1732496
 10
-41.5172773
 20
20.9500707
 10
-41.34389689999999
 20
20.7363129
 10
-41.17310739999999
 20
20.5318602
 10
-41.0051405
 20
20.3365915
 10
-40.7859696
 20
20.0903018
 10
-40.5727557
 20
19.8598046
 10
-40.36602199999999
 20
19.6447747
 10
-40.1662814
 20
19.4448725
 10
-39.9740359
 20
19.2597448
 10
-39.7897764
 20
19.0890243
 10
-39.5714119
 20
18.8953031
 10
-39.3671847
 20
18.7227263
 10
-39.1420113
 20
18.54241269999999
 10
-38.93992629999999
 20
18.3899465
 10
-38.7352026
 20
18.2452571
 10
-38.62479320000001
 20
18.1717268
 10
-39.349256
 20
16.5445566
 10
-39.6099885
 20
16.6083899
 10
-39.86196829999999
 20
16.6607083
 10
-40.1217272
 20
16.7066852
 10
-40.3767396
 20
16.7449906
 10
-40.6576616
 20
16.7801982
 10
-40.9190642
 20
16.8069667
 10
-41.1994575
 20
16.8297599
 10
-41.4987814
 20
16.8477935
 10
-41.76261859999999
 20
16.8586204
 10
-42.0394819
 20
16.8651454
 10
-42.2703022
 20
16.8669647
 10
-42.57041889999999
 20
16.8646095
 10
-42.88332559999999
 20
16.8566919
 10
-43.14278849999999
 20
16.84605239999999
 10
-43.41030889999999
 20
16.8313388
 10
-43.6858221
 20
16.8123241
 10
-43.8966477
 20
16.7951922
 10
-44.0286205
 20
16.4461161
 10
-44.15781749999999
 20
16.096003
 10
-44.2842304
 20
15.7448752
 10
-44.4078514
 20
15.3927547
 10
-44.4225245
 20
15.3503576
 10
-44.23400739999999
 20
15.1646469
 10
-44.02892029999999
 20
14.9680978
 10
-43.82747789999999
 20
14.7805502
 10
-43.6298962
 20
14.6018565
 10
-43.4363877
 20
14.4318647
 10
-43.1850729
 20
14.2184745
 10
-42.941855
 20
14.0198941
 10
-42.7072069
 20
13.8357286
 10
-42.48158909999999
 20
13.6655704
 10
-42.2654497
 20
13.5089997
 10
-42.0592237
 20
13.3655846
 10
-41.8160236
 20
13.2041392
 10
-41.5897658
 20
13.0616648
 10
-41.341689
 20
12.9144441
 10
-41.12035149999999
 20
12.7915865
 10
-40.89748329999999
 20
12.6767973
 10
-40.7779149
 20
12.6193485
 10
-41.268869
 20
10.9071882
 10
-41.53594799999999
 20
10.9341133
 10
-41.79275679999999
 20
10.9508537
 10
-42.0563865
 20
10.9602317
 10
-42.27586259999999
 20
10.9627044
 10
-42.5553572
 20
10.9595014
 10
-42.8148846
 20
10.9506508
 10
-43.0926903
 20
10.9353491
 10
-43.3886097
 20
10.9128272
 10
-43.6489106
 20
10.8879916
 10
-43.92153799999999
 20
10.8571709
 10
-44.2063583
 20
10.8199275
 10
-44.5032265
 20
10.7758271
 10
-44.8119861
 20
10.7244383
 10
-45.06744310000001
 20
10.6777921
 10
-45.3303124
 20
10.62599
 10
-45.60049799999999
 20
10.5688164
 10
-45.8068875
 20
10.52251
 10
-45.88899399999999
 20
10.1584639
 10
-45.9682073
 20
9.793777399999999
 10
-46.0445225
 20
9.4284735
 10
-46.1179346
 20
9.062575099999998
 10
-46.1265644
 20
9.018548499999999
 10
-45.91403599999999
 20
8.8608817
 10
-45.6835905
 20
8.694788
 10
-45.45800689999999
 20
8.5371009
 10
-45.2374787
 20
8.387644299999999
 10
-45.0221952
 20
8.246237999999999
 10
-44.743628
 20
8.0699008
 10
-44.47514
 20
7.9071023
 10
-44.2171445
 20
7.757385799999998
 10
-43.97004099999999
 20
7.620283599999999
 10
-43.7342146
 20
7.4953174
 10
-43.5100361
 20
7.381999099999999
 10
-43.2467339
 20
7.255971799999999
 10
-43.00284949999999
 20
7.146372999999999
 10
-42.73669779999999
 20
7.0351106
 10
-42.5004158
 20
6.944252799999999
 10
-42.263741
 20
6.861597999999999
 10
-42.13734089999999
 20
6.821349
 10
-42.38523039999999
 20
5.057523699999999
 10
-42.65345739999999
 20
5.047016499999999
 10
-42.9100968
 20
5.0278532
 10
-43.1724661
 20
5.000449699999999
 10
-43.4281581
 20
4.9669803
 10
-43.7079022
 20
4.9233914
 10
-43.96655689999999
 20
4.877070599999999
 10
-44.2423709
 20
4.821693999999999
 10
-44.5350702
 20
4.756524199999999
 10
-44.7916711
 20
4.694208299999999
 10
-45.05960779999999
 20
4.624166699999999
 10
-45.33868489999999
 20
4.5459857
 10
-45.6286962
 20
4.4592562
 10
-45.8684322
 20
4.383445799999999
 10
-46.1149113
 20
4.3017007
 10
-46.3680129
 20
4.213818499999999
 10
-46.627612
 20
4.1195987
 10
-46.8255484
 20
4.045018999999999
 10
-46.85619039999999
 20
3.673088899999999
 10
-46.88387829999999
 20
3.3009271
 10
-46.90861019999999
 20
2.928557299999999
 10
-46.9303847
 20
2.556002799999999
 10
-46.9328032
 20
2.511203599999999
 10
-46.7004002
 20
2.384649399999999
 10
-46.4490815
 20
2.252243899999999
 10
-46.20374749999999
 20
2.1274866
 10
-45.9645652
 20
2.0101761
 10
-45.7316968
 20
1.9001076
 10
-45.43129920000001
 20
1.7642556
 10
-45.14276689999999
 20
1.6404078
 10
-44.8664458
 20
1.5280544
 10
-44.6026661
 20
1.426676499999999
 10
-44.3517428
 20
1.335747199999999
 10
-44.11397509999999
 20
1.254731299999999
 10
-43.8356957
 20
1.166575099999999
 10
-43.57893159999999
 20
1.091984999999999
 10
-43.2998854
 20
1.0188466
 10
-43.0532579
 20
0.9617571999999999
 10
-42.807383
 20
0.9128454999999998
 10
-42.6766115
 20
0.8905796999999997
 10
-42.6766115
 20
-0.8905796999999997
 10
-42.94076589999999
 20
-0.9383146000000001
 10
-43.1922406
 20
-0.9930087999999999
 10
-43.4482427
 20
-1.0566603
 10
-43.69678829999999
 20
-1.125389399999999
 10
-43.9677435
 20
-1.207486999999999
 10
-44.2174345
 20
-1.2893548
 10
-44.4828573
 20
-1.3825783
 10
-44.7636382
 20
-1.4878498
 10
-45.00906920000001
 20
-1.5852712
 10
-45.26465039999999
 20
-1.691920699999999
 10
-45.53013079999999
 20
-1.808180899999999
 10
-45.80524929999999
 20
-1.9344281
 10
-46.03210159999999
 20
-2.0428656
 10
-46.2648052
 20
-2.158118299999999
 10
-46.5032127
 20
-2.280370299999999
 10
-46.7471726
 20
-2.409802299999999
 10
-46.9328032
 20
-2.511203599999999
 10
-46.9113843
 20
-2.8837787
 10
-46.8870078
 20
-3.256172
 10
-46.8596753
 20
-3.628359999999999
 10
-46.8293883
 20
-4.0003193
 10
-46.8255484
 20
-4.0450191
 10
-46.57779409999999
 20
-4.1379974
 10
-46.310494
 20
-4.2341375
 10
-46.0501847
 20
-4.3235367
 10
-45.7970036
 20
-4.4064179
 10
-45.55108289999999
 20
-4.483006099999998
 10
-45.23470179999999
 20
-4.5757288
 10
-44.93174129999998
 20
-4.6582154
 10
-44.6424727
 20
-4.7310189
 10
-44.36715099999999
 20
-4.794699099999999
 10
-44.10601479999999
 20
-4.849821799999999
 10
-43.85928579999999
 20
-4.896958299999999
 10
-43.5714456
 20
-4.9455277
 10
-43.30679929999999
 20
-4.983657099999999
 10
-43.02028989999999
 20
-5.017248099999999
 10
-42.76811729999999
 20
-5.039457999999999
 10
-42.51782799999999
 20
-5.0536745
 10
-42.38523039999999
 20
-5.057523699999999
 10
-42.13734089999999
 20
-6.821349099999999
 10
-42.39228109999999
 20
-6.905382499999999
 10
-42.6336966
 20
-6.9945429
 10
-42.8783487
 20
-7.093203599999998
 10
-43.1149102
 20
-7.1958547
 10
-43.3718027
 20
-7.314863
 10
-43.6076699
 20
-7.430684299999999
 10
-43.85753549999999
 20
-7.559940400000001
 10
-44.12093279999999
 20
-7.7032645
 10
-44.3504169
 20
-7.8338952
 10
-44.588668
 20
-7.9750768
 10
-44.83538460000001
 20
-8.127153299999999
 10
-45.0902554
 20
-8.290461
 10
-45.29980839999999
 20
-8.429414799999999
 10
-45.51420729999999
 20
-8.575932099999999
 10
-45.73328049999999
 20
-8.7301742
 10
-45.95685269999999
 20
-8.892299299999999
 10
-46.1265644
 20
-9.018548499999999
 10
-46.05350159999999
 20
-9.3845168
 10
-45.9775352
 20
-9.749893400000001
 10
-45.89867
 20
-10.1146554
 10
-45.8169111
 20
-10.4787796
 10
-45.8068875
 20
-10.52251
 10
-45.54860429999999
 20
-10.5801027
 10
-45.27052539999999
 20
-10.6381062
 10
-45.00030749999999
 20
-10.6904074
 10
-44.7380555
 20
-10.7372459
 10
-44.483869
 20
-10.7788633
 10
-44.15766239999999
 20
-10.8266519
 10
-43.8461704
 20
-10.8661717
 10
-43.5495846
 20
-10.8980083
 10
-43.26807979999999
 20
-10.9227514
 10
-43.0018133
 20
-10.9409945
 10
-42.75092539999999
 20
-10.9533343
 10
-42.45912689999999
 20
-10.9613713
 10
-42.1917495
 20
-10.9622981
 10
-41.90335339999999
 20
-10.9556877
 10
-41.6505439
 20
-10.9425858
 10
-41.40071189999999
 20
-10.9218304
 10
-41.268869
 20
-10.9071882
 10
-40.7779149
 20
-12.6193486
  0
LWPOLYLINE
  5
461
330
70
100
AcDbEntity
  8
0
 62
    13
100
AcDbPolyline
 90
      802
 70
     0
 43
0.0
 10
-40.7779149
 20
-12.6193486
 10
-41.01867879999999
 20
-12.7380451
 10
-41.2453362
 20
-12.8599363
 10
-41.47387639999999
 20
-12.9916858
 10
-41.6938495
 20
-13.1262609
 10
-41.9316792
 20
-13.2798635
 10
-42.1491317
 20
-13.4273841
 10
-42.3785766
 20
-13.5901568
 10
-42.6194637
 20
-13.7687439
 10
-42.8285342
 20
-13.9300413
 10
-43.044818
 20
-14.1030071
 10
-43.26796859999999
 20
-14.2879399
 10
-43.49763099999999
 20
-14.4851295
 10
-43.685806
 20
-14.6518952
 10
-43.8777271
 20
-14.8268251
 10
-44.07320189999999
 20
-15.0100552
 10
-44.2720349
 20
-15.2017177
 10
-44.4225245
 20
-15.3503576
 10
-44.2992397
 20
-15.7025959
 10
-44.173162
 20
-16.0538443
 10
-44.0442993
 20
-16.4040805
 10
-43.9126598
 20
-16.7532824
 10
-43.8966477
 20
-16.7951922
 10
-43.6328627
 20
-16.8162784
 10
-43.3494175
 20
-16.8350163
 10
-43.07455039999999
 20
-16.8492014
 10
-42.808332
 20
-16.8590857
 10
-42.5508273
 20
-16.8649221
 10
-42.22114439999999
 20
-16.8668464
 10
-41.9071836
 20
-16.8626304
 10
-41.6090534
 20
-16.85288039999999
 10
-41.3268446
 20
-16.8382048
 10
-41.0606305
 20
-16.8192132
 10
-40.81046679999999
 20
-16.796516
 10
-40.5203895
 20
-16.7638644
 10
-40.2554853
 20
-16.7275704
 10
-39.9708158
 20
-16.6808873
 10
-39.7222901
 20
-16.6327287
 10
-39.477778
 20
-16.5774054
 10
-39.349256
 20
-16.5445566
 10
-38.62479320000001
 20
-18.1717268
 10
-38.84669470000001
 20
-18.322776
 10
-39.05418220000001
 20
-18.4750256
 10
-39.26216229999999
 20
-18.6372996
 10
-39.4612654
 20
-18.8011794
 10
-39.6754032
 20
-18.9863866
 10
-39.8702086
 20
-19.1627351
 10
-40.074767
 20
-19.3558562
 10
-40.28845529999999
 20
-19.5662304
 10
-40.47304279999999
 20
-19.755055
 10
-40.6631496
 20
-19.9564384
 10
-40.8583908
 20
-20.170628
 10
-41.05837469999999
 20
-20.3978614
 10
-41.221509
 20
-20.589193
 10
-41.38721679999999
 20
-20.7891308
 10
-41.55528859999999
 20
-20.9977825
 10
-41.72551229999999
 20
-21.2152521
 10
-41.8538507
 20
-21.3833895
 10
-41.6827436
 20
-21.7150419
 10
-41.5090086
 20
-22.0453253
 10
-41.3326565
 20
-22.3742188
 10
-41.15369849999999
 20
-22.7017017
 10
-41.1320096
 20
-22.7409752
 10
-40.8678571
 20
-22.7251443
 10
-40.58456259999999
 20
-22.7042519
 10
-40.3103963
 20
-22.6800449
 10
-40.045393
 20
-22.6527825
 10
-39.789582
 20
-22.6227244
 10
-39.4628398
 20
-22.578747
 10
-39.1525213
 20
-22.5308771
 10
-38.8586494
 20
-22.4797303
 10
-38.5812294
 20
-22.4259217
 10
-38.3202492
 20
-22.3700651
 10
-38.0756789
 20
-22.3127727
 10
-37.7929689
 20
-22.2400679
 10
-37.5356938
 20
-22.1672595
 10
-37.2602918
 20
-22.0814125
 10
-37.020887
 20
-21.9991344
 10
-36.7864541
 20
-21.91032
 10
-36.6637545
 20
-21.8599041
 10
-35.7198838
 20
-23.370413
 10
-35.9186037
 20
-23.550875
 10
-36.102883
 20
-23.7305196
 10
-36.2862548
 20
-23.9201595
 10
-36.4606126
 20
-24.1101543
 10
-36.6468906
 20
-24.3233613
 10
-36.81525720000001
 20
-24.5251052
 10
-36.9909475
 20
-24.7448159
 10
-37.1732778
 20
-24.9828824
 10
-37.32978970000001
 20
-25.195559
 10
-37.49001920000001
 20
-25.4214404
 10
-37.6535509
 20
-25.6607178
 10
-37.8199638
 20
-25.9135721
 10
-37.9548823
 20
-26.1257456
 10
-38.0911515
 20
-26.3467997
 10
-38.2285489
 20
-26.5768119
 10
-38.3668501
 20
-26.8158556
 10
-38.4705393
 20
-27.000218
 10
-38.2549403
 20
-27.3048293
 10
-38.0369295
 20
-27.6077192
 10
-37.8165205
 20
-27.9088684
 10
-37.5937273
 20
-28.2082581
 10
-37.5667836
 20
-28.2441309
 10
-37.3074051
 20
-28.1916912
 10
-37.0297753
 20
-28.1315751
 10
-36.7616461
 20
-28.0694471
 10
-36.503016
 20
-28.0055687
 10
-36.2538778
 20
-27.9402012
 10
-35.9364359
 20
-27.851178
 10
-35.63579960000001
 20
-27.760586
 10
-35.3519059
 20
-27.6690379
 10
-35.0846745
 20
-27.5771435
 10
-34.8340079
 20
-27.48550900000001
 10
-34.59979129999999
 20
-27.3947367
 10
-34.3299511
 20
-27.2833937
 10
-34.0853128
 20
-27.1754882
 10
-33.8245385
 20
-27.052148
 10
-33.5989146
 20
-26.937352
 10
-33.3791237
 20
-26.8167752
 10
-33.2646347
 20
-26.7497734
 10
-32.11972750000001
 20
-28.1142208
 10
-32.2913981
 20
-28.3205829
 10
-32.4488822
 20
-28.524126
 10
-32.6040767
 20
-28.7374408
 10
-32.7502955
 20
-28.9498524
 10
-32.9050879
 20
-29.1869094
 10
-33.0437387
 20
-29.4101221
 10
-33.1871414
 20
-29.652146
 10
-33.3345648
 20
-29.9132711
 10
-33.45995460000001
 20
-30.1456602
 10
-33.58718820000001
 20
-30.3916429
 10
-33.7158274
 20
-30.6513509
 10
-33.8454303
 20
-30.9249046
 10
-33.9495069
 20
-31.1537903
 10
-34.05368520000001
 20
-31.3916581
 10
-34.15773400000001
 20
-31.6385539
 10
-34.2614208
 20
-31.8945191
 10
-34.3384426
 20
-32.0915179
 10
-34.08254810000001
 20
-32.3631593
 10
-33.82450479999999
 20
-32.6327602
 10
-33.564329
 20
-32.9003037
 10
-33.302037
 20
-33.1657729
 10
-33.270363
 20
-33.1975467
 10
-33.0208069
 20
-33.10951880000001
 10
-32.7542455
 20
-33.0113492
 10
-32.4973723
 20
-32.9125095
 10
-32.2501493
 20
-32.8132584
 10
-32.0125331
 20
-32.7138536
 10
-31.7105702
 20
-32.5815175
 10
-31.4254676
 20
-32.4499666
 10
-31.1570778
 20
-32.31979910000001
 10
-30.9052363
 20
-32.1916076
 10
-30.6697622
 20
-32.0659788
 10
-30.450458
 20
-31.9434932
 10
-30.1987399
 20
-31.7956794
 10
-29.9714999
 20
-31.6547769
 10
-29.7304291
 20
-31.49634430000001
 10
-29.5229774
 20
-31.3512647
 10
-29.3221066
 20
-31.2012723
 10
-29.2180567
 20
-31.1189889
 10
-27.8943972
 20
-32.31081720000001
 10
-28.035677
 20
-32.539063
 10
-28.1633008
 20
-32.7625427
 10
-28.2872973
 20
-32.9953805
 10
-28.4025311
 20
-33.2260746
 10
-28.5228252
 20
-33.48236760000001
 10
-28.6290614
 20
-33.7227044
 10
-28.7373853
 20
-33.98233070000001
 10
-28.8470324
 20
-34.2614319
 10
-28.9388596
 20
-34.50901029999999
 10
-29.0306208
 20
-34.7703066
 10
-29.12186380000001
 20
-35.0453903
 10
-29.212134
 20
-35.3343191
 10
-29.2833431
 20
-35.575462
 10
-29.3534027
 20
-35.8255136
 10
-29.4220776
 20
-36.0844874
 10
-29.4891318
 20
-36.352392
 10
-29.53798710000001
 20
-36.558193
 10
-29.2467778
 20
-36.7915771
 10
-28.95372460000001
 20
-37.0226416
 10
-28.6588459
 20
-37.2513719
 10
-28.3621604
 20
-37.4777536
 10
-28.3263726
 20
-37.50481
 10
-28.0914963
 20
-37.3829074
 10
-27.8411916
 20
-37.2485949
 10
-27.6005741
 20
-37.1149672
 10
-27.3695702
 20
-36.9822753
 10
-27.1481009
 20
-36.85076820000001
 10
-26.86749430000001
 20
-36.6776948
 10
-26.6034746
 20
-36.5077455
 10
-26.3558126
 20
-36.3414921
 10
-26.1242628
 20
-36.1794986
 10
-25.9085644
 20
-36.0223208
 10
-25.7084413
 20
-35.870506
 10
-25.4797445
 20
-35.6890983
 10
-25.2743259
 20
-35.5179414
 10
-25.0576507
 20
-35.3275001
 10
-24.87240910000001
 20
-35.1549606
 10
-24.694368
 20
-34.9784722
 10
-24.6027824
 20
-34.8825085
 10
-23.1261342
 20
-35.8785203
 10
-23.2342735
 20
-36.12420720000001
 10
-23.3295529
 20
-36.36327379999999
 10
-23.4199379
 20
-36.6111026
 10
-23.5019438
 20
-36.85558910000001
 10
-23.5853981
 20
-37.1261295
 10
-23.657152
 20
-37.3789126
 10
-23.7282887
 20
-37.651088
 10
-23.7980254
 20
-37.942733
 10
-23.8545027
 20
-38.2006818
 10
-23.9090054
 20
-38.4722059
 10
-23.9610762
 20
-38.7573111
 10
-24.0102568
 20
-39.0559912
 10
-24.0472122
 20
-39.3046977
 10
-24.0817896
 20
-39.56206629999999
 10
-24.1137539
 20
-39.8280775
 10
-24.1428705
 20
-40.10270689999999
 10
-24.1626084
 20
-40.3133045
 10
-23.8417523
 20
-40.50388879999999
 10
-23.5193931
 20
-40.69191939999999
 10
-23.1955511
 20
-40.87738459999999
 10
-22.8702466
 20
-41.06027249999999
 10
-22.8310416
 20
-41.08208489999999
 10
-22.6154167
 20
-40.9286801
 10
-22.3862406
 20
-40.7608391
 10
-22.1665621
 20
-40.5950244
 10
-21.9562735
 20
-40.4314743
 10
-21.7552618
 20
-40.2704244
 10
-21.5014731
 20
-40.0599825
 10
-21.2636753
 20
-39.8549427
 10
-21.0415615
 20
-39.6558394
 10
-20.8348102
 20
-39.4631969
 10
-20.643086
 20
-39.2775294
 10
-20.4660389
 20
-39.0993402
 10
-20.2648149
 20
-38.8878695
 10
-20.0852158
 20
-38.68978950000001
 10
-19.8971537
 20
-38.47104620000001
 10
-19.7377277
 20
-38.2744053
 10
-19.5859817
 20
-38.0748558
 10
-19.5086429
 20
-37.9670799
 10
-17.9077473
 20
-38.7478888
 10
-17.9806412
 20
-39.0062348
 10
-18.0417217
 20
-39.25623510000001
 10
-18.096736
 20
-39.51423120000001
 10
-18.1439179
 20
-39.76775139999999
 10
-18.188908
 20
-40.04727349999999
 10
-18.2247831
 20
-40.30758279999999
 10
-18.257348
 20
-40.5870098
 10
-18.2858168
 20
-40.8855219
 10
-18.3058449
 20
-41.1488205
 10
-18.3220284
 20
-41.4252875
 10
-18.3339134
 20
-41.7148648
 10
-18.3410472
 20
-42.0174829
 10
-18.3430297
 20
-42.2689121
 10
-18.3414518
 20
-42.5285883
 10
-18.3360835
 20
-42.7964593
 10
-18.3266957
 20
-43.07246829999999
 10
-18.3169319
 20
-43.2837633
 10
-17.9726742
 20
-43.4278383
 10
-17.62728339999999
 20
-43.5691754
 10
-17.2807812
 20
-43.7077655
 10
-16.9331895
 20
-43.8435999
 10
-16.8913303
 20
-43.85974379999999
 10
-16.6991536
 20
-43.6778227
 10
-16.4955668
 20
-43.47972
 10
-16.3011032
 20
-43.2849456
 10
-16.1156229
 20
-43.0937206
 10
-15.9389812
 20
-42.9062627
 10
-15.7169503
 20
-42.6625482
 10
-15.5100027
 20
-42.42640879999999
 10
-15.3177603
 20
-42.19833079999999
 10
-15.1398318
 20
-41.9787889
 10
-14.9758133
 20
-41.7682454
 10
-14.8252884
 20
-41.5671502
 10
-14.6554538
 20
-41.32973259999999
 10
-14.5051699
 20
-41.1085849
 10
-14.3493811
 20
-40.8657972
 10
-14.2188738
 20
-40.6488822
 10
-14.0963765
 20
-40.43015579999999
 10
-14.0347899
 20
-40.31266519999999
 10
-12.3408065
 20
-40.8630737
 10
-12.3770362
 20
-41.12905029999999
 10
-12.4027289
 20
-41.38511849999999
 10
-12.4213017
 20
-41.64826029999999
 10
-12.4327412
 20
-41.9058797
 10
-12.4383916
 20
-42.188943
 10
-12.4376894
 20
-42.4517117
 10
-12.4310487
 20
-42.7329515
 10
-12.4176956
 20
-43.0325207
 10
-12.4008848
 20
-43.29604429999999
 10
-12.378434
 20
-43.57207299999999
 10
-12.349902
 20
-43.8604862
 10
-12.31485
 20
-44.161152
 10
-12.2818211
 20
-44.4104103
 10
-12.2441185
 20
-44.6673397
 10
-12.201522
 20
-44.9318567
 10
-12.1538126
 20
-45.203873
 10
-12.1147373
 20
-45.41175289999999
 10
-11.7537785
 20
-45.5065144
 10
-11.3920786
 20
-45.59840679999999
 10
-11.0296606
 20
-45.6874244
 10
-10.6665471
 20
-45.77356149999999
 10
-10.6228485
 20
-45.7837226
 10
-10.4578606
 20
-45.57682609999999
 10
-10.2838256
 20
-45.3523175
 10
-10.1183619
 20
-45.1323746
 10
-9.961299999999999
 20
-44.9171967
 10
-9.812466499999999
 20
-44.70697929999999
 10
-9.6265149
 20
-44.43473589999999
 10
-9.4544455
 20
-44.17209299999999
 10
-9.2958163
 20
-43.9194798
 10
-9.150173800000001
 20
-43.6773116
 10
-9.017053500000001
 20
-43.4459901
 10
-8.895980499999998
 20
-43.22590289999999
 10
-8.760840899999999
 20
-42.9671594
 10
-8.6427974
 20
-42.7272485
 10
-8.522314199999998
 20
-42.4651419
 10
-8.423265699999999
 20
-42.23217479999999
 10
-8.3324014
 20
-41.99852869999999
 10
-8.2877656
 20
-41.87361029999999
 10
-6.533666
 20
-42.1829054
 10
-6.5325262
 20
-42.4513358
 10
-6.522331099999999
 20
-42.70848759999999
 10
-6.5041009
 20
-42.9716534
 10
-6.479575399999999
 20
-43.2283577
 10
-6.445776
 20
-43.5094526
 10
-6.408510299999999
 20
-43.7695664
 10
-6.3627932
 20
-44.04714489999999
 10
-6.307878099999999
 20
-44.34194029999999
 10
-6.2545555
 20
-44.60055969999999
 10
-6.193907399999999
 20
-44.8707776
 10
-6.125513699999999
 20
-45.1524132
 10
-6.048958299999999
 20
-45.4452746
 10
-5.9815607
 20
-45.6875104
 10
-5.908467400000001
 20
-45.9366922
 10
-5.8294718
 20
-46.1927066
 10
-5.744369299999999
 20
-46.4554358
 10
-5.676743
 20
-46.6558544
 10
-5.306108799999999
 20
-46.69945789999999
 10
-4.93514
 20
-46.7401172
 10
-4.563860099999999
 20
-46.7778296
 10
-4.1922925
 20
-46.81259279999999
 10
-4.147605
 20
-46.81657329999999
 10
-4.0130172
 20
-46.58872849999999
 10
-3.871921499999999
 20
-46.3421838
 10
-3.738678199999999
 20
-46.1013532
 10
-3.6130917
 20
-45.8664107
 10
-3.4949633
 20
-45.6375255
 10
-3.348710299999999
 20
-45.342052
 10
-3.214868399999999
 20
-45.05801779999999
 10
-3.092939899999999
 20
-44.785786
 10
-2.982418
 20
-44.5257051
 10
-2.882787
 20
-44.278108
 10
-2.793522499999999
 20
-44.0433126
 10
-2.6957081
 20
-43.7682793
 10
-2.6122026
 20
-43.51427469999999
 10
-2.5293702
 20
-43.237951
 10
-2.463708299999999
 20
-42.9934662
 10
-2.4062456
 20
-42.7494481
 10
-2.379429499999999
 20
-42.61953329999999
 10
-0.599355
 20
-42.6816949
 10
-0.5608681
 20
-42.9473542
 10
-0.5149836
 20
-43.2005846
 10
-0.4603052
 20
-43.4586521
 10
-0.400292
 20
-43.70944489999999
 10
-0.3277007
 20
-43.9831002
 10
-0.2545969
 20
-44.23549620000001
 10
-0.1706932
 20
-44.50401079999999
 10
-0.075285
 20
-44.7882946
 10
0.0135116
 20
-45.036976
 10
0.1111766
 20
-45.29612349999999
 10
0.2181007
 20
-45.5654997
 10
0.3346696
 20
-45.8448566
 10
0.4351239000000001
 20
-46.075355
 10
0.5421852000000001
 20
-46.3119392
 10
0.6560424000000001
 20
-46.55446799999999
 10
0.7768816
 20
-46.8027964
 10
0.8717425999999999
 20
-46.9918528
 10
1.2448383
 20
-46.9834496
 10
1.6178555
 20
-46.97208429999999
 10
1.9907706
 20
-46.9577575
 10
2.3635603
 20
-46.94047020000001
 10
2.408366899999999
 20
-46.9381927
 10
2.509935
 20
-46.69383419999999
 10
2.6153452
 20
-46.4300522
 10
2.7137747
 20
-46.1730215
 10
2.8054412
 20
-45.9228871
 10
2.8905653
 20
-45.67978909999999
 10
2.9942731
 20
-45.3668367
 10
3.087282599999999
 20
-45.06693939999999
 10
3.170137099999999
 20
-44.78038789999999
 10
3.2433871
 20
-44.50745629999999
 10
3.3075897
 20
-44.24840289999999
 10
3.3633082
 20
-44.0034693
 10
3.421893499999999
 20
-43.7174995
 10
3.4692357
 20
-43.45434509999999
 10
3.5128052
 20
-43.16918249999999
 10
3.5438023
 20
-42.9179386
 10
3.566745099999999
 20
-42.668298
 10
3.5752196
 20
-42.5359155
 10
5.3466217
 20
-42.3497336
 10
5.4217067
 20
-42.6074513
 10
5.5023875
 20
-42.8518314
 10
5.592449799999999
 20
-43.0997776
 10
5.686782599999999
 20
-43.3397775
 10
5.7967529
 20
-43.60066679999999
 10
5.904271999999999
 20
-43.8404325
 10
6.0247291
 20
-44.09465679999999
 10
6.158773499999999
 20
-44.3628956
 10
6.281315799999999
 20
-44.59679879999999
 10
6.414096599999999
 20
-44.83983199999999
 10
6.557470099999999
 20
-45.0917056
 10
6.711783399999999
 20
-45.3521206
 10
6.843339399999999
 20
-45.56639529999999
 10
6.982284899999999
 20
-45.785777
 10
7.128787499999999
 20
-46.0100997
 10
7.2830113
 20
-46.23919379999999
 10
7.4032607
 20
-46.4132082
 10
7.771555999999999
 20
-46.3529619
 10
8.139361200000001
 20
-46.28979329999999
 10
8.506653300000001
 20
-46.2237062
 10
8.873409099999999
 20
-46.15470479999999
 10
8.917462599999998
 20
-46.1462135
 10
8.984034199999998
 20
-45.8900976
 10
9.051707199999999
 20
-45.6142124
 10
9.113407
 20
-45.34598439999999
 10
9.1693695
 20
-45.0855268
 10
9.219832499999998
 20
-44.8329476
 10
9.278976400000001
 20
-44.5086075
 10
9.329343099999999
 20
-44.1986844
 10
9.371510999999999
 20
-43.90339039999999
 10
9.4060634
 20
-43.6229206
 10
9.4335879
 20
-43.357453
 10
9.454675999999999
 20
-43.1071485
 10
9.472891800000001
 20
-42.8158083
 10
9.4831493
 20
-42.54862609999999
 10
9.486607800000001
 20
-42.260175
 10
9.482336899999999
 20
-42.00706229999999
 10
9.4703131
 20
-41.7566581
 10
9.460281099999999
 20
-41.62438449999999
 10
11.1885325
 20
-41.193483
 10
11.2987541
 20
-41.4382427
 10
11.4126609
 20
-41.6690159
 10
11.5363542
 20
-41.90201489999999
 10
11.6631704
 20
-42.1265506
 10
11.8083793
 20
-42.3695961
 10
11.948221
 20
-42.5920646
 10
12.102887
 20
-42.82705039999999
 10
12.2729585
 20
-43.0740234
 10
12.4268612
 20
-43.2885956
 10
12.5921735
 20
-43.5107841
 10
12.7692058
 20
-43.7402528
 10
12.9582601
 20
-43.9766572
 10
13.118357
 20
-44.1705375
 10
13.2864824
 20
-44.3684467
 10
13.4627789
 20
-44.57019709999999
 10
13.6473855
 20
-44.77559789999999
 10
13.7906828
 20
-44.9311832
 10
14.1470092
 20
-44.82026649999999
 10
14.5024436
 20
-44.706524
 10
14.8569637
 20
-44.58996289999999
 10
15.2105471
 20
-44.4705905
 10
15.2529901
 20
-44.45605079999999
 10
15.2832694
 20
-44.19316239999999
 10
15.311888
 20
-43.91054379999999
 10
15.3356572
 20
-43.6363392
 10
15.3548264
 20
-43.3706279
 10
15.369646
 20
-43.1134837
 10
15.3830749
 20
-42.7840688
 10
15.3898185
 20
-42.4701522
 10
15.3904791
 20
-42.1718634
 10
15.3856614
 20
-41.88931429999999
 10
15.3759721
 20
-41.6225996
 10
15.3620193
 20
-41.3717961
 10
15.3395111
 20
-41.0807561
 10
15.3124842
 20
-40.8147465
 10
15.2757644
 20
-40.5286213
 10
15.2363085
 20
-40.2785662
 10
15.1895523
 20
-40.0322723
 10
15.1612089
 20
-39.9026822
 10
16.8126712
 20
-39.23544810000001
 10
16.9558842
 20
-39.462486
 10
17.1007998
 20
-39.6751605
 10
17.2557165
 20
-39.8886772
 10
17.4125479
 20
-40.09337829999999
 10
17.590169
 20
-40.31384929999999
 10
17.75961139999999
 20
-40.5146905
 10
17.945476
 20
-40.7258641
 10
18.1482643
 20
-40.9467642
 10
18.3305319
 20
-41.1378292
 10
18.5251581
 20
-41.33484829999999
 10
18.73240329999999
 20
-41.5374457
 10
18.9525189
 20
-41.7452381
 10
19.1380407
 20
-41.9149505
 10
19.3320736
 20
-42.0875351
 10
19.5347326
 20
-42.26278629999999
 10
19.7461289
 20
-42.44049589999999
 10
19.909685
 20
-42.574624
 10
20.2471069
 20
-42.4151956
 10
20.5832524
 20
-42.2530932
 10
20.9181001
 20
-42.0883267
 10
21.2516291
 20
-41.92090679999999
 10
21.2916355
 20
-41.9006016
 10
21.2850331
 20
-41.6360576
 10
21.27404030000001
 20
-41.35220649999999
 10
21.2594163
 20
-41.0773624
 10
21.241419
 20
-40.8115692
 10
21.2203069
 20
-40.55486499999999
 10
21.1877594
 20
-40.226787
 10
21.1507486
 20
-39.9149869
 10
21.109889
 20
-39.619509
 10
21.0657949
 20
-39.34038020000001
 10
21.0190804
 20
-39.0776096
 10
20.9703584
 20
-38.8311888
 10
20.9075642
 20
-38.5461136
 10
20.843779
 20
-38.2864543
 10
20.7675956
 20
-38.008224
 10
20.6937228
 20
-37.7660936
 10
20.6131441
 20
-37.5287039
 10
20.5670411
 20
-37.4043196
 10
22.1095704
 20
-36.5137398
 10
22.2829872
 20
-36.7186368
 10
22.4560911
 20
-36.9090733
 10
22.639216
 20
-37.0989518
 10
22.82301
 20
-37.279834
 10
23.0295861
 20
-37.47343929999999
 10
23.2253312
 20
-37.6487442
 10
23.4387766
 20
-37.8319953
 10
23.6703348
 20
-38.0225229
 10
23.8774197
 20
-38.18636170000001
 10
24.0975715
 20
-38.35437670000001
 10
24.330996
 20
-38.5261595
 10
24.5778886
 20
-38.7012955
 10
24.7852243
 20
-38.84353660000001
 10
25.0013879
 20
-38.9874374
 10
25.2264649
 20
-39.1327785
 10
25.4605364
 20
-39.27933789999999
 10
25.6411677
 20
-39.3893981
 10
25.9531178
 20
-39.1845612
 10
26.2634316
 20
-38.9772539
 10
26.5720896
 20
-38.76748920000001
 10
26.8790723
 20
-38.55528029999999
 10
26.9158635
 20
-38.5296049
 10
26.8725079
 20
-38.2685543
 10
26.8221176
 20
-37.9889955
 10
26.769385
 20
-37.7188615
 10
26.7145716
 20
-37.4581596
 10
26.6579387
 20
-37.2068919
 10
26.5800483
 20
-36.8865365
 10
26.5000035
 20
-36.5829217
 10
26.4184189
 20
-36.29600590000001
 10
26.33590680000001
 20
-36.02573029999999
 10
26.2530763
 20
-35.7720184
 10
26.1705332
 20
-35.5347765
 10
26.0686754
 20
-35.261215
 10
25.9693734
 20
-35.0129598
 10
25.8552092
 20
-34.7480399
 10
25.7483573
 20
-34.518547
 10
25.6355245
 20
-34.294682
 10
25.5725592
 20
-34.1779244
 10
26.976132
 20
-33.0813332
 10
27.1763773
 20
-33.2601011
 10
27.3743002
 20
-33.4245929
 10
27.5820689
 20
-33.58713740000001
 10
27.7892481
 20
-33.7406802
 10
28.0207586
 20
-33.9036515
 10
28.2389964
 20
-34.0500078
 10
28.4758682
 20
-34.20176970000001
 10
28.7316892
 20
-34.3582164
 10
28.9595607
 20
-34.4916401
 10
29.2009532
 20
-34.6273808
 10
29.4560135
 20
-34.7650054
 10
29.7248775
 20
-34.90407620000001
 10
29.94999160000001
 20
-35.0160774
 10
30.1840787
 20
-35.1284937
 10
30.4271929
 20
-35.2410956
 10
30.6793834
 20
-35.3536523
 10
30.8735743
 20
-35.4375023
 10
31.1539807
 20
-35.1912439
 10
31.432423
 20
-34.9427667
 10
31.7088835
 20
-34.69208650000001
 10
31.9833449
 20
-34.4392191
 10
32.0162047
 20
-34.4086733
 10
31.9369399
 20
-34.1561971
 10
31.8481329
 20
-33.886372
 10
31.7583181
 20
-33.6262058
 10
31.6677555
 20
-33.3756696
 10
31.576704
 20
-33.134729
 10
31.4549868
 20
-32.8283315
 10
31.3334659
 20
-32.5388115
 10
31.2127444
 20
-32.2660424
 10
31.0934201
 20
-32.0098805
 10
30.9760859
 20
-31.77016550000001
 10
30.8613284
 20
-31.5467203
 10
30.7223895
 20
-31.2899968
 10
30.5895034
 20
-31.0579779
 10
30.4395806
 20
-30.8115247
 10
30.3018293
 20
-30.5991362
 10
30.1589386
 20
-30.393153
 10
30.0803365
 20
-30.28629480000001
 10
31.3176339
 20
-29.0050359
 10
31.54081
 20
-29.1541954
 10
31.75969960000001
 20
-29.2895408
 10
31.98806810000001
 20
-29.4215877
 10
32.2146002
 20
-29.5448024
 10
32.4665388
 20
-29.67396760000001
 10
32.7030216
 20
-29.7885268
 10
32.9587093
 20
-29.9058455
 10
33.2338139
 20
-30.0251663
 10
33.4780367
 20
-30.12557800000001
 10
33.73597150000001
 20
-30.2264023
 10
34.0077032
 20
-30.32719
 10
34.2933056
 20
-30.4274887
 10
34.5318164
 20
-30.5070702
 10
34.77927070000001
 20
-30.58581380000001
 10
35.0356901
 20
-30.6634849
 10
35.3010912
 20
-30.739848
 10
35.5050619
 20
-30.7958559
 10
35.7484669
 20
-30.512969
 10
35.989618
 20
-30.2281583
 10
36.2285001
 20
-29.9414419
 10
36.46509810000001
 20
-29.6528377
 10
36.493387
 20
-29.6180159
 10
36.3797556
 20
-29.3790284
 10
36.2542605
 20
-29.1241887
 10
36.1291117
 20
-28.8790542
 10
36.0045625
 20
-28.6435602
 10
35.8808646
 20
-28.4176363
 10
35.71768970000001
 20
-28.1311604
 10
35.5570581
 20
-27.8613704
 10
35.3995493
 20
-27.6080571
 10
35.2457354
 20
-27.3709949
 10
35.09618120000001
 20
-27.1499425
 10
34.951443
 20
-26.944643
 10
34.77812720000001
 20
-26.7097545
 10
34.6142435
 20
-26.4984877
 10
34.4314801
 20
-26.2752983
 10
34.26551060000001
 20
-26.084148
 10
34.09534320000001
 20
-25.900056
 10
34.0026343
 20
-25.805177
 10
35.04957360000001
 20
-24.3641887
 10
35.2913368
 20
-24.4808364
 10
35.5269326
 20
-24.58440110000001
 10
35.771456
 20
-24.6833802
 10
36.0129317
 20
-24.7738686
 10
36.2803947
 20
-24.8667137
 10
36.53051970000001
 20
-24.947246
 10
36.80004670000001
 20
-25.0278381
 10
37.08908020000001
 20
-25.10771060000001
 10
37.3449009
 20
-25.1731557
 10
37.6143575
 20
-25.2371013
 10
37.8974717
 20
-25.2990904
 10
38.19425349999999
 20
-25.35866480000001
 10
38.44151870000001
 20
-25.4042775
 10
38.69752379999999
 20
-25.4478158
 10
38.9622574
 20
-25.4890443
 10
39.2357034
 20
-25.5277276
 10
39.4454838
 20
-25.5548032
 10
39.6471498
 20
-25.2407939
 10
39.8463161
 20
-24.9251932
 10
40.0429701
 20
-24.6080211
 10
40.2370996
 20
-24.2892975
 10
40.260267
 20
-24.2508776
 10
40.1144808
 20
-24.0300303
 10
39.95474020000001
 20
-23.7951362
 10
39.7966932
 20
-23.5698048
 10
39.64058170000001
 20
-23.3539364
 10
39.4866451
 20
-23.1474266
 10
39.2851884
 20
-22.8864482
 10
39.0885726
 20
-22.6416395
 10
38.89734220000001
 20
-22.4127123
 10
38.7120326
 20
-22.199364
 10
38.53316920000001
 20
-22.0012768
 10
38.3612675
 20
-21.8181189
 10
38.1569482
 20
-21.6096372
 10
37.9652568
 20
-21.4232347
 10
37.75321
 20
-21.227653
 10
37.5622528
 20
-21.0614614
 10
37.3681208
 20
-20.9028438
 10
37.2631095
 20
-20.8217907
 10
38.0993133
 20
-19.2491202
 10
38.35495789999999
 20
-19.3309858
 10
38.6026743
 20
-19.400754
 10
38.8585933
 20
-19.4647387
 10
39.1103124
 20
-19.5207396
 10
39.3880941
 20
-19.5754575
 10
39.6469927
 20
-19.6203954
 10
39.925113
 20
-19.6626923
 10
40.22244979999999
 20
-19.7015617
 10
40.484889
 20
-19.7307666
 10
40.76062279999999
 20
-19.7565888
 10
41.0496089
 20
-19.7785727
 10
41.3517936
 20
-19.7962633
 10
41.60300059999999
 20
-19.8070194
 10
41.8625736
 20
-19.814505
 10
42.1304687
 20
-19.8184885
 10
42.4066372
 20
-19.818739
 10
42.6181443
 20
-19.8163553
 10
42.774146
 20
-19.4773355
 10
42.92745089999999
 20
-19.1370876
 10
43.07804929999999
 20
-18.7956332
 10
43.2259318
 20
-18.4529938
 10
43.2435267
 20
-18.4117235
 10
43.06842329999999
 20
-18.213315
 10
42.8775463
 20
-18.0029385
 10
42.68967729999999
 20
-17.8017958
 10
42.50504199999999
 20
-17.6097548
 10
42.32386289999999
 20
-17.4266786
 10
42.08804559999999
 20
-17.19627739999999
 10
41.8592724
 20
-16.9812147
 10
41.6380426
 20
-16.7811296
 10
41.4248441
 20
-16.5956476
 10
41.220153
 20
-16.4243812
 10
41.0244335
 20
-16.2669299
 10
40.79308759999999
 20
-16.0889129
 10
40.57731949999999
 20
-15.9310027
 10
40.3401167
 20
-15.7668356
 10
40.12788839999999
 20
-15.6288376
 10
39.9135704
 20
-15.4987815
 10
39.79830070000001
 20
-15.433132
 10
40.4074931
 20
-13.7593896
 10
40.6720433
 20
-13.8048796
 10
40.92705879999999
 20
-13.8394933
 10
41.1893921
 20
-13.8672383
 10
41.44645539999999
 20
-13.8876617
 10
41.729149
 20
-13.9031873
 10
41.9917822
 20
-13.9116561
 10
42.2730824
 20
-13.9148346
 10
42.5729351
 20
-13.9119444
 10
42.8368848
 20
-13.9043406
 10
43.1135289
 20
-13.8915368
 10
43.40276229999999
 20
-13.8730876
 10
43.7044682
 20
-13.8485501
 10
43.9547273
 20
-13.8242403
 10
44.21281599999999
 20
-13.7955274
 10
44.4786584
 20
-13.7621884
 10
44.7521741
 20
-13.7240012
 10
44.9612911
 20
-13.6922046
 10
45.0685921
 20
-13.3347728
 10
45.1730517
 20
-12.9765003
 10
45.2746633
 20
-12.6174097
 10
45.37342039999999
 20
-12.2575236
 10
45.3851003
 20
-12.2142062
 10
45.18408789999999
 20
-12.0420982
 10
44.96578979999999
 20
-11.8603341
 10
44.7517554
 20
-11.6872952
 10
44.54219000000001
 20
-11.5228194
 10
44.3372949
 20
-11.3667401
 10
44.0717069
 20
-11.1714006
 10
43.8152292
 20
-10.99027
 10
43.5683059
 20
-10.8229213
 10
43.3313681
 20
-10.6689159
 10
43.1048334
 20
-10.5278037
 10
42.8891056
 20
-10.3991236
 10
42.635236
 20
-10.2550362
 10
42.3995909
 20
-10.1286919
 10
42.1418489
 20
-9.999134699999999
 10
41.9124804
 20
-9.892016099999999
 10
41.6821477
 20
-9.793053
 10
41.5588632
 20
-9.7440849
 10
41.9291871
 20
-8.001847999999998
 10
42.1974937
 20
-8.010077
 10
42.4548447
 20
-8.008862599999998
 10
42.7184864
 20
-7.9998279
 10
42.9758903
 20
-7.9842762
 10
43.25799349999999
 20
-7.9603074
 10
43.51924939999999
 20
-7.932142299999999
 10
43.79825429999999
 20
-7.896140400000001
 10
44.0947866
 20
-7.851547
 10
44.35510939999999
 20
-7.8072824
 10
44.62727929999999
 20
-7.756101799999999
 10
44.9111302
 20
-7.697578699999999
 10
45.206485
 20
-7.6312906
 10
45.45092529999999
 20
-7.572388
 10
45.7025062
 20
-7.5080356
 10
45.96112159999999
 20
-7.4380229
 10
46.2266608
 20
-7.3621413
 10
46.4293174
 20
-7.301550699999999
 10
46.48582939999999
 20
-6.932663999999999
 10
46.53941049999999
 20
-6.563340199999999
 10
46.5900574
 20
-6.1936027
 10
46.6377669
 20
-5.823474599999999
 10
46.6433046
 20
-5.7789532
 10
46.4202956
 20
-5.6364957
 10
46.1788253
 20
-5.4868817
 10
45.9427915
 20
-5.3453147
 10
45.712375
 20
-5.2116054
 10
45.48775179999999
 20
-5.085561
 10
45.1975626
 20
-4.9290852
 10
44.91837239999999
 20
-4.7854121
 10
44.6505617
 20
-4.654057099999999
 10
44.3944963
 20
-4.5345259
 10
44.15052720000001
 20
-4.426314599999999
 10
43.9189901
 20
-4.3289102
 10
43.64753799999999
 20
-4.2215569
 10
43.3966025
 20
-4.1292376
 10
43.12333789999999
 20
-4.036812099999999
 10
42.8812935
 20
-3.9626578
 10
42.63942949999999
 20
-3.896713999999999
 10
42.51052969999999
 20
-3.8653802
 10
42.6347771
 20
-2.088559599999999
 10
42.9016178
 20
-2.0593675
  0
ENDSEC
  0
SECTION
  2
OBJECTS
  0
DICTIONARY
  5
C
330
0
100
AcDbDictionary
281
     1
  3
ACAD_CIP_PREVIOUS_PRODUCT_INFO
350
789
  3
ACAD_COLOR
350
62
  3
ACAD_DETAILVIEWSTYLE
350
6A
  3
ACAD_GROUP
350
D
  3
ACAD_LAYOUT
350
61
  3
ACAD_MATERIAL
350
10
  3
ACAD_MLEADERSTYLE
350
65
  3
ACAD_MLINESTYLE
350
5E
  3
ACAD_PLOTSETTINGS
350
60
  3
ACAD_PLOTSTYLENAME
350
E
  3
ACAD_SCALELIST
350
42
  3
ACAD_SECTIONVIEWSTYLE
350
67
  3
ACAD_TABLESTYLE
350
63
  3
ACAD_VISUALSTYLE
350
29
  3
ACDB_RECOMPOSE_DATA
350
798
  3
AcDbVariableDictionary
350
78C
  0
DICTIONARY
  5
78A
330
54
100
AcDbDictionary
280
     1
281
     1
  3
ADSK_XREC_LAYER_RECONCILED
360
78B
  0
XRECORD
  5
789
102
{ACAD_REACTORS
330
C
102
}
330
C
100
AcDbXrecord
280
     1
300
ACD
300
2013
300
ACD_F_S
  0
DICTIONARY
  5
62
102
{ACAD_REACTORS
330
C
102
}
330
C
100
AcDbDictionary
281
     1
  0
DICTIONARY
  5
6A
102
{ACAD_REACTORS
330
C
102
}
330
C
100
AcDbDictionary
281
     1
  3
Imperial24
350
6B
  0
DICTIONARY
  5
D
102
{ACAD_REACTORS
330
C
102
}
330
C
100
AcDbDictionary
281
     1
  0
DICTIONARY
  5
61
102
{ACAD_REACTORS
330
C
102
}
330
C
100
AcDbDictionary
281
     1
  3
Layout1
350
6F
  3
Model
350
73
  0
DICTIONARY
  5
10
102
{ACAD_REACTORS
330
C
102
}
330
C
100
AcDbDictionary
281
     1
  3
ByBlock
350
19
  3
ByLayer
350
11
  3
Global
350
21
  0
DICTIONARY
  5
65
102
{ACAD_REACTORS
330
C
102
}
330
C
100
AcDbDictionary
281
     1
  3
Standard
350
66
  0
DICTIONARY
  5
5E
102
{ACAD_REACTORS
330
C
102
}
330
C
100
AcDbDictionary
281
     1
  3
Standard
350
5F
  0
DICTIONARY
  5
60
102
{ACAD_REACTORS
330
C
102
}
330
C
100
AcDbDictionary
281
     1
  0
ACDBDICTIONARYWDFLT
  5
E
102
{ACAD_REACTORS
330
C
102
}
330
C
100
AcDbDictionary
281
     1
  3
Normal
350
F
100
AcDbDictionaryWithDefault
340
F
  0
DICTIONARY
  5
42
102
{ACAD_REACTORS
330
C
102
}
330
C
100
AcDbDictionary
281
     1
  3
A0
350
43
  3
A1
350
44
  3
A2
350
45
  3
A3
350
46
  3
A4
350
47
  3
A5
350
48
  3
A6
350
49
  3
A7
350
4A
  3
A8
350
4B
  3
A9
350
4C
  3
B0
350
4D
  3
B1
350
4E
  3
B2
350
4F
  3
B3
350
50
  3
B4
350
51
  3
B5
350
52
  3
B6
350
53
  0
DICTIONARY
  5
67
102
{ACAD_REACTORS
330
C
102
}
330
C
100
AcDbDictionary
281
     1
  3
Imperial24
350
69
  0
DICTIONARY
  5
63
102
{ACAD_REACTORS
330
C
102
}
330
C
100
AcDbDictionary
281
     1
  3
Standard
350
64
  0
DICTIONARY
  5
29
102
{ACAD_REACTORS
330
C
102
}
330
C
100
AcDbDictionary
281
     1
  3
2dWireframe
350
2F
  3
Basic
350
2E
  3
Brighten
350
35
  3
ColorChange
350
39
  3
Conceptual
350
32
  3
Dim
350
34
  3
EdgeColorOff
350
41
  3
Facepattern
350
38
  3
Flat
350
2A
  3
FlatWithEdges
350
2B
  3
Gouraud
350
2C
  3
GouraudWithEdges
350
2D
  3
Hidden
350
31
  3
JitterOff
350
3F
  3
Linepattern
350
37
  3
OverhangOff
350
40
  3
Realistic
350
33
  3
Shaded
350
3E
  3
Shaded with edges
350
3D
  3
Shades of Gray
350
3A
  3
Sketchy
350
3B
  3
Thicken
350
36
  3
Wireframe
350
30
  3
X-Ray
350
3C
  0
XRECORD
  5
798
102
{ACAD_REACTORS
330
C
102
}
330
C
100
AcDbXrecord
280
     1
 90
        1
330
64
  0
DICTIONARY
  5
78C
102
{ACAD_REACTORS
330
C
102
}
330
C
100
AcDbDictionary
281
     1
  3
CANNOSCALE
350
792
  3
CMLEADERSTYLE
350
78E
  3
CTABLESTYLE
350
78D
  3
CVIEWDETAILSTYLE
350
78F
  3
CVIEWSECTIONSTYLE
350
790
  3
LAYEREVAL
350
794
  3
LAYERNOTIFY
350
795
  3
LIGHTINGUNITS
350
793
  3
MSLTSCALE
350
791
  0
XRECORD
  5
78B
102
{ACAD_REACTORS
330
78A
102
}
330
78A
100
AcDbXrecord
280
     1
290
     1
  0
ACDBDETAILVIEWSTYLE
  5
6B
102
{ACAD_REACTORS
330
6A
102
}
330
6A
100
AcDbModelDocViewStyle
 70
     0
  3
Imperial24
290
     0
100
AcDbDetailViewStyle
 70
     0
 71
     0
 90
        3
 71
     1
340
55
 62
   256
 40
0.24
340
0
 62
   256
 40
0.24
300

 40
0.36
280
     3
 71
     2
340
5C
 90
       25
 62
   256
 71
     3
340
55
 62
   256
 40
0.24
 90
        1
 40
0.75
 90
        1
300
%<\AcVar ViewType \f "%tc1">% %<\AcVar ViewDetailId>%\PSCALE %<\AcVar ViewScale \f "%sn">%
 71
     4
340
5C
 90
       25
 62
   256
340
5C
 90
       25
 62
   256
280
     0
  0
LAYOUT
  5
6F
102
{ACAD_REACTORS
330
61
102
}
330
61
100
AcDbPlotSettings
  1

  2
Microsoft XPS Document Writer
  4

  6

 40
0.0
 41
0.0
 42
0.0
 43
0.0
 44
0.0
 45
0.0
 46
0.0
 47
0.0
 48
0.0
 49
0.0
140
0.0
141
0.0
142
1.0
143
1.0
 70
   688
 72
     0
 73
     0
 74
     5
  7

 75
    16
147
1.0
 76
     0
 77
     2
 78
   300
148
0.0
149
0.0
100
AcDbLayout
  1
Layout1
 70
     1
 71
     1
 10
0.0
 20
0.0
 11
12.0
 21
9.0
 12
0.0
 22
0.0
 32
0.0
 14
1.000000000000000E+20
 24
1.000000000000000E+20
 34
1.000000000000000E+20
 15
-1.000000000000000E+20
 25
-1.000000000000000E+20
 35
-1.000000000000000E+20
146
0.0
 13
0.0
 23
0.0
 33
0.0
 16
1.0
 26
0.0
 36
0.0
 17
0.0
 27
1.0
 37
0.0
 76
     0
330
6C
  0
LAYOUT
  5
73
102
{ACAD_REACTORS
330
61
102
}
330
61
100
AcDbPlotSettings
  1

  2
Microsoft XPS Document Writer
  4

  6

 40
0.0
 41
0.0
 42
0.0
 43
0.0
 44
0.0
 45
0.0
 46
0.0
 47
0.0
 48
0.0
 49
0.0
140
0.0
141
0.0
142
1.0
143
1.0
 70
  1712
 72
     0
 73
     0
 74
     0
  7

 75
     0
147
1.0
 76
     0
 77
     2
 78
   300
148
0.0
149
0.0
100
AcDbLayout
  1
Model
 70
     1
 71
     0
 10
0.0
 20
0.0
 11
12.0
 21
9.0
 12
0.0
 22
0.0
 32
0.0
 14
0.0
 24
0.0
 34
0.0
 15
0.0
 25
0.0
 35
0.0
146
0.0
 13
0.0
 23
0.0
 33
0.0
 16
1.0
 26
0.0
 36
0.0
 17
0.0
 27
1.0
 37
0.0
 76
     0
330
70
331
788
  0
MATERIAL
  5
19
102
{ACAD_XDICTIONARY
360
1A
102
}
102
{ACAD_REACTORS
330
10
102
}
330
10
100
AcDbMaterial
  1
ByBlock
 72
     0
 43
0.0208333333333333
 43
0.0
 43
0.0
 43
0.0
 43
0.0
 43
0.0208333333333333
 43
0.0
 43
0.0
 43
0.0
 43
0.0
 43
1.0
 43
0.0
 43
0.0
 43
0.0
 43
0.0
 43
1.0
 77
     0
 47
0.0208333333333333
 47
0.0
 47
0.0
 47
0.0
 47
0.0
 47
0.0208333333333333
 47
0.0
 47
0.0
 47
0.0
 47
0.0
 47
1.0
 47
0.0
 47
0.0
 47
0.0
 47
0.0
 47
1.0
171
     0
 49
0.0208333333333333
 49
0.0
 49
0.0
 49
0.0
 49
0.0
 49
0.0208333333333333
 49
0.0
 49
0.0
 49
0.0
 49
0.0
 49
1.0
 49
0.0
 49
0.0
 49
0.0
 49
0.0
 49
1.0
175
     0
142
0.0208333333333333
142
0.0
142
0.0
142
0.0
142
0.0
142
0.0208333333333333
142
0.0
142
0.0
142
0.0
142
0.0
142
1.0
142
0.0
142
0.0
142
0.0
142
0.0
142
1.0
179
     0
144
0.0208333333333333
144
0.0
144
0.0
144
0.0
144
0.0
144
0.0208333333333333
144
0.0
144
0.0
144
0.0
144
0.0
144
1.0
144
0.0
144
0.0
144
0.0
144
0.0
144
1.0
147
0.0208333333333333
147
0.0
147
0.0
147
0.0
147
0.0
147
0.0208333333333333
147
0.0
147
0.0
147
0.0
147
0.0
147
1.0
147
0.0
147
0.0
147
0.0
147
0.0
147
1.0
  0
MATERIAL
  5
11
102
{ACAD_XDICTIONARY
360
12
102
}
102
{ACAD_REACTORS
330
10
102
}
330
10
100
AcDbMaterial
  1
ByLayer
 72
     0
 43
0.0208333333333333
 43
0.0
 43
0.0
 43
0.0
 43
0.0
 43
0.0208333333333333
 43
0.0
 43
0.0
 43
0.0
 43
0.0
 43
1.0
 43
0.0
 43
0.0
 43
0.0
 43
0.0
 43
1.0
 77
     0
 47
0.0208333333333333
 47
0.0
 47
0.0
 47
0.0
 47
0.0
 47
0.0208333333333333
 47
0.0
 47
0.0
 47
0.0
 47
0.0
 47
1.0
 47
0.0
 47
0.0
 47
0.0
 47
0.0
 47
1.0
171
     0
 49
0.0208333333333333
 49
0.0
 49
0.0
 49
0.0
 49
0.0
 49
0.0208333333333333
 49
0.0
 49
0.0
 49
0.0
 49
0.0
 49
1.0
 49
0.0
 49
0.0
 49
0.0
 49
0.0
 49
1.0
175
     0
142
0.0208333333333333
142
0.0
142
0.0
142
0.0
142
0.0
142
0.0208333333333333
142
0.0
142
0.0
142
0.0
142
0.0
142
1.0
142
0.0
142
0.0
142
0.0
142
0.0
142
1.0
179
     0
144
0.0208333333333333
144
0.0
144
0.0
144
0.0
144
0.0
144
0.0208333333333333
144
0.0
144
0.0
144
0.0
144
0.0
144
1.0
144
0.0
144
0.0
144
0.0
144
0.0
144
1.0
147
0.0208333333333333
147
0.0
147
0.0
147
0.0
147
0.0
147
0.0208333333333333
147
0.0
147
0.0
147
0.0
147
0.0
147
1.0
147
0.0
147
0.0
147
0.0
147
0.0
147
1.0
  0
MATERIAL
  5
21
102
{ACAD_XDICTIONARY
360
22
102
}
102
{ACAD_REACTORS
330
10
102
}
330
10
100
AcDbMaterial
  1
Global
 72
     0
 43
0.0208333333333333
 43
0.0
 43
0.0
 43
0.0
 43
0.0
 43
0.0208333333333333
 43
0.0
 43
0.0
 43
0.0
 43
0.0
 43
1.0
 43
0.0
 43
0.0
 43
0.0
 43
0.0
 43
1.0
 77
     0
 47
0.0208333333333333
 47
0.0
 47
0.0
 47
0.0
 47
0.0
 47
0.0208333333333333
 47
0.0
 47
0.0
 47
0.0
 47
0.0
 47
1.0
 47
0.0
 47
0.0
 47
0.0
 47
0.0
 47
1.0
171
     0
 49
0.0208333333333333
 49
0.0
 49
0.0
 49
0.0
 49
0.0
 49
0.0208333333333333
 49
0.0
 49
0.0
 49
0.0
 49
0.0
 49
1.0
 49
0.0
 49
0.0
 49
0.0
 49
0.0
 49
1.0
175
     0
142
0.0208333333333333
142
0.0
142
0.0
142
0.0
142
0.0
142
0.0208333333333333
142
0.0
142
0.0
142
0.0
142
0.0
142
1.0
142
0.0
142
0.0
142
0.0
142
0.0
142
1.0
179
     0
144
0.0208333333333333
144
0.0
144
0.0
144
0.0
144
0.0
144
0.0208333333333333
144
0.0
144
0.0
144
0.0
144
0.0
144
1.0
144
0.0
144
0.0
144
0.0
144
0.0
144
1.0
147
0.0208333333333333
147
0.0
147
0.0
147
0.0
147
0.0
147
0.0208333333333333
147
0.0
147
0.0
147
0.0
147
0.0
147
1.0
147
0.0
147
0.0
147
0.0
147
0.0
147
1.0
  0
MLEADERSTYLE
  5
66
102
{ACAD_REACTORS
330
65
102
}
330
65
100
AcDbMLeaderStyle
179
     2
170
     2
171
     1
172
     0
 90
        2
 40
0.0
 41
0.0
173
     1
 91
-1056964608
340
5A
 92
       -2
290
     1
 42
0.09
291
     1
 43
0.36
  3
Standard
 44
0.18
300

342
55
174
     1
178
     6
175
     1
176
     0
 93
-1056964608
 45
0.18
292
     0
297
     0
 46
0.18
 94
-1056964608
 47
1.0
 49
1.0
140
1.0
293
     1
141
0.0
294
     1
177
     0
142
1.0
295
     0
296
     0
143
0.125
271
     0
272
     9
273
     9
298
     0
  0
MLINESTYLE
  5
5F
102
{ACAD_REACTORS
330
5E
102
}
330
5E
100
AcDbMlineStyle
  2
STANDARD
 70
     0
  3

 62
   256
 51
90.0
 52
90.0
 71
     2
 49
0.5
 62
   256
  6
BYLAYER
 49
-0.5
 62
   256
  6
BYLAYER
  0
ACDBPLACEHOLDER
  5
F
102
{ACAD_REACTORS
330
E
102
}
330
E
  0
SCALE
  5
43
102
{ACAD_REACTORS
330
42
102
}
330
42
100
AcDbScale
 70
     0
300
1:1
140
1.0
141
1.0
290
     1
  0
SCALE
  5
44
102
{ACAD_REACTORS
330
42
102
}
330
42
100
AcDbScale
 70
     0
300
1/128" = 1'-0"
140
0.0078125
141
12.0
290
     0
  0
SCALE
  5
45
102
{ACAD_REACTORS
330
42
102
}
330
42
100
AcDbScale
 70
     0
300
1/64" = 1'-0"
140
0.015625
141
12.0
290
     0
  0
SCALE
  5
46
102
{ACAD_REACTORS
330
42
102
}
330
42
100
AcDbScale
 70
     0
300
1/32" = 1'-0"
140
0.03125
141
12.0
290
     0
  0
SCALE
  5
47
102
{ACAD_REACTORS
330
42
102
}
330
42
100
AcDbScale
 70
     0
300
1/16" = 1'-0"
140
0.0625
141
12.0
290
     0
  0
SCALE
  5
48
102
{ACAD_REACTORS
330
42
102
}
330
42
100
AcDbScale
 70
     0
300
3/32" = 1'-0"
140
0.09375
141
12.0
290
     0
  0
SCALE
  5
49
102
{ACAD_REACTORS
330
42
102
}
330
42
100
AcDbScale
 70
     0
300
1/8" = 1'-0"
140
0.125
141
12.0
290
     0
  0
SCALE
  5
4A
102
{ACAD_REACTORS
330
42
102
}
330
42
100
AcDbScale
 70
     0
300
3/16" = 1'-0"
140
0.1875
141
12.0
290
     0
  0
SCALE
  5
4B
102
{ACAD_REACTORS
330
42
102
}
330
42
100
AcDbScale
 70
     0
300
1/4" = 1'-0"
140
0.25
141
12.0
290
     0
  0
SCALE
  5
4C
102
{ACAD_REACTORS
330
42
102
}
330
42
100
AcDbScale
 70
     0
300
3/8" = 1'-0"
140
0.375
141
12.0
290
     0
  0
SCALE
  5
4D
102
{ACAD_REACTORS
330
42
102
}
330
42
100
AcDbScale
 70
     0
300
1/2" = 1'-0"
140
0.5
141
12.0
290
     0
  0
SCALE
  5
4E
102
{ACAD_REACTORS
330
42
102
}
330
42
100
AcDbScale
 70
     0
300
3/4" = 1'-0"
140
0.75
141
12.0
290
     0
  0
SCALE
  5
4F
102
{ACAD_REACTORS
330
42
102
}
330
42
100
AcDbScale
 70
     0
300
1" = 1'-0"
140
1.0
141
12.0
290
     0
  0
SCALE
  5
50
102
{ACAD_REACTORS
330
42
102
}
330
42
100
AcDbScale
 70
     0
300
1-1/2" = 1'-0"
140
1.5
141
12.0
290
     0
  0
SCALE
  5
51
102
{ACAD_REACTORS
330
42
102
}
330
42
100
AcDbScale
 70
     0
300
3" = 1'-0"
140
3.0
141
12.0
290
     0
  0
SCALE
  5
52
102
{ACAD_REACTORS
330
42
102
}
330
42
100
AcDbScale
 70
     0
300
6" = 1'-0"
140
6.0
141
12.0
290
     0
  0
SCALE
  5
53
102
{ACAD_REACTORS
330
42
102
}
330
42
100
AcDbScale
 70
     0
300
1'-0" = 1'-0"
140
12.0
141
12.0
290
     0
  0
ACDBSECTIONVIEWSTYLE
  5
69
102
{ACAD_REACTORS
330
67
102
}
330
67
100
AcDbModelDocViewStyle
 70
     0
  3
Imperial24
290
     0
100
AcDbSectionViewStyle
 70
     0
 71
     0
 90
       78
 71
     1
340
55
 62
   256
 40
0.24
340
0
340
0
 62
   256
 40
0.24
300
I, O, Q, S, X, Z
 40
0.48
 90
        3
 40
0.18
 90
        1
 71
     2
340
68
 90
       25
 62
   256
340
5C
 90
       50
 62
   256
 40
0.24
 40
0.0
 40
0.24
 71
     3
340
55
 62
   256
 40
0.24
 90
        1
 40
0.75
 90
        1
300
%<\AcVar ViewType \f "%tc1">% %<\AcVar ViewSectionStartId>%-%<\AcVar ViewSectionEndId>%\PSCALE %<\AcVar ViewScale \f "%sn">%
 71
     4
 62
   256
 62
   257
300
ANSI31
 40
1.0
 90
        0
290
     0
290
     0
 90
        6
 40
0.0
 40
1.570796326794896
 40
0.2617993877991494
 40
1.308996938995747
 40
-0.2617993877991494
 40
1.832595714594046
  0
TABLESTYLE
  5
64
102
{ACAD_XDICTIONARY
360
796
102
}
102
{ACAD_REACTORS
330
63
102
}
330
63
100
AcDbTableStyle
280
     0
  3
Standard
 70
     0
 71
     0
 40
0.06
 41
0.06
280
     0
281
     0
  7
Standard
140
0.18
170
     2
 62
     0
 63
     7
283
     0
 90
      512
 91
        0
  1

274
    -2
284
     1
 64
     0
275
    -2
285
     1
 65
     0
276
    -2
286
     1
 66
     0
277
    -2
287
     1
 67
     0
278
    -2
288
     1
 68
     0
279
    -2
289
     1
 69
     0
  7
Standard
140
0.25
170
     5
 62
     0
 63
     7
283
     0
 90
      512
 91
        0
  1

274
    -2
284
     1
 64
     0
275
    -2
285
     1
 65
     0
276
    -2
286
     1
 66
     0
277
    -2
287
     1
 67
     0
278
    -2
288
     1
 68
     0
279
    -2
289
     1
 69
     0
  7
Standard
140
0.18
170
     5
 62
     0
 63
     7
283
     0
 90
      512
 91
        0
  1

274
    -2
284
     1
 64
     0
275
    -2
285
     1
 65
     0
276
    -2
286
     1
 66
     0
277
    -2
287
     1
 67
     0
278
    -2
288
     1
 68
     0
279
    -2
289
     1
 69
     0
  0
VISUALSTYLE
  5
2F
102
{ACAD_REACTORS
330
29
102
}
330
29
100
AcDbVisualStyle
  2
2dWireframe
 70
     4
177
     3
291
     0
 70
    58
 90
        0
176
     1
 90
        2
176
     1
 90
        0
176
     1
 90
        0
176
     1
 40
0.6
176
     1
 40
30.0
176
     1
 62
     7
420
 16777215
176
     1
 90
        1
176
     1
 90
        4
176
     1
 62
     7
176
     1
 62
   257
176
     1
 90
        1
176
     1
 90
        1
176
     1
 40
1.0
176
     1
 90
        0
176
     1
 62
   257
176
     1
 40
1.0
176
     1
 90
        1
176
     1
 90
        6
176
     1
 90
        2
176
     1
 62
     7
176
     1
 90
        5
176
     1
 90
        0
176
     1
 90
        0
176
     1
290
     0
176
     1
 90
        1
176
     1
 40
0.0
176
     1
 90
        0
176
     1
290
     1
176
     1
290
     1
176
     1
290
     0
176
     1
290
     0
176
     1
290
     0
176
     1
290
     0
176
     1
290
     0
176
     1
290
     0
176
     1
290
     0
176
     1
 90
       50
176
     1
 40
0.0
176
     1
 40
1.0
176
     1
 90
        0
176
     1
 62
    18
420
        0
176
     1
 90
       50
176
     1
 90
        3
176
     1
 62
     5
420
      255
176
     1
290
     0
176
     1
 90
       50
176
     1
 90
       50
176
     1
 90
       50
176
     1
290
     0
176
     1
 90
       50
176
     1
 62
   256
176
     0
 40
1.0
176
     0
 90
        2
176
     1
  1
strokes_ogs.tif
176
     1
290
     0
176
     1
 40
1.0
176
     1
 40
1.0
176
     1
  0
VISUALSTYLE
  5
2E
102
{ACAD_REACTORS
330
29
102
}
330
29
100
AcDbVisualStyle
  2
Basic
 70
     7
177
     3
291
     1
 70
    58
 90
        1
176
     1
 90
        0
176
     1
 90
        1
176
     1
 90
        0
176
     1
 40
0.6
176
     1
 40
30.0
176
     1
 62
     7
420
 16777215
176
     1
 90
        0
176
     1
 90
        4
176
     1
 62
     7
176
     1
 62
   257
176
     1
 90
        1
176
     1
 90
        1
176
     1
 40
1.0
176
     1
 90
        8
176
     1
 62
     7
176
     1
 40
1.0
176
     1
 90
        1
176
     1
 90
        6
176
     1
 90
        2
176
     1
 62
     7
176
     1
 90
        5
176
     1
 90
        0
176
     1
 90
        0
176
     1
290
     0
176
     1
 90
        1
176
     1
 40
0.0
176
     1
 90
        0
176
     1
290
     0
176
     1
290
     1
176
     1
290
     1
176
     1
290
     0
176
     1
290
     0
176
     1
290
     0
176
     1
290
     0
176
     1
290
     0
176
     1
290
     0
176
     1
 90
       50
176
     1
 40
0.0
176
     1
 40
1.0
176
     1
 90
        0
176
     1
 62
    18
420
        0
176
     1
 90
       50
176
     1
 90
        3
176
     1
 62
     5
420
      255
176
     1
290
     0
176
     1
 90
       50
176
     1
 90
       50
176
     1
 90
       50
176
     1
290
     0
176
     1
 90
       50
176
     1
 62
   256
176
     0
 40
1.0
176
     0
 90
        2
176
     1
  1
strokes_ogs.tif
176
     1
290
     0
176
     1
 40
1.0
176
     1
 40
1.0
176
     1
  0
VISUALSTYLE
  5
35
102
{ACAD_REACTORS
330
29
102
}
330
29
100
AcDbVisualStyle
  2
Brighten
 70
    12
177
     3
291
     1
 70
    58
 90
        2
176
     1
 90
        2
176
     1
 90
        0
176
     1
 90
        0
176
     1
 40
0.6
176
     1
 40
30.0
176
     1
 62
     7
420
 16777215
176
     1
 90
        1
176
     1
 90
        4
176
     1
 62
     7
176
     1
 62
   257
176
     1
 90
        1
176
     1
 90
        1
176
     1
 40
1.0
176
     1
 90
        8
176
     1
 62
     7
176
     1
 40
1.0
176
     1
 90
        1
176
     1
 90
        6
176
     1
 90
        2
176
     1
 62
     7
176
     1
 90
        5
176
     1
 90
        0
176
     1
 90
        0
176
     1
290
     0
176
     1
 90
        1
176
     1
 40
50.0
176
     1
 90
        0
176
     1
290
     0
176
     1
290
     1
176
     1
290
     1
176
     1
290
     0
176
     1
290
     0
176
     1
290
     0
176
     1
290
     0
176
     1
290
     0
176
     1
290
     0
176
     1
 90
       50
176
     1
 40
0.0
176
     1
 40
1.0
176
     1
 90
        0
176
     1
 62
    18
420
        0
176
     1
 90
       50
176
     1
 90
        3
176
     1
 62
     5
420
      255
176
     1
290
     0
176
     1
 90
       50
176
     1
 90
       50
176
     1
 90
       50
176
     1
290
     0
176
     1
 90
       50
176
     1
 62
   256
176
     0
 40
1.0
176
     0
 90
        2
176
     1
  1
strokes_ogs.tif
176
     1
290
     0
176
     1
 40
1.0
176
     1
 40
1.0
176
     1
  0
VISUALSTYLE
  5
39
102
{ACAD_REACTORS
330
29
102
}
330
29
100
AcDbVisualStyle
  2
ColorChange
 70
    16
177
     3
291
     1
 70
    58
 90
        2
176
     1
 90
        2
176
     1
 90
        3
176
     1
 90
        0
176
     1
 40
0.6
176
     1
 40
30.0
176
     1
 62
     8
420
  8421504
176
     1
 90
        1
176
     1
 90
        4
176
     1
 62
     7
176
     1
 62
   257
176
     1
 90
        1
176
     1
 90
        1
176
     1
 40
1.0
176
     1
 90
        8
176
     1
 62
     8
420
  8421504
176
     1
 40
1.0
176
     1
 90
        1
176
     1
 90
        6
176
     1
 90
        2
176
     1
 62
     7
176
     1
 90
        5
176
     1
 90
        0
176
     1
 90
        0
176
     1
290
     0
176
     1
 90
        1
176
     1
 40
0.0
176
     1
 90
        0
176
     1
290
     0
176
     1
290
     1
176
     1
290
     1
176
     1
290
     0
176
     1
290
     0
176
     1
290
     0
176
     1
290
     0
176
     1
290
     0
176
     1
290
     0
176
     1
 90
       50
176
     1
 40
0.0
176
     1
 40
1.0
176
     1
 90
        0
176
     1
 62
    18
420
        0
176
     1
 90
       50
176
     1
 90
        3
176
     1
 62
     5
420
      255
176
     1
290
     0
176
     1
 90
       50
176
     1
 90
       50
176
     1
 90
       50
176
     1
290
     0
176
     1
 90
       50
176
     1
 62
   256
176
     0
 40
1.0
176
     0
 90
        2
176
     1
  1
strokes_ogs.tif
176
     1
290
     0
176
     1
 40
1.0
176
     1
 40
1.0
176
     1
  0
VISUALSTYLE
  5
32
102
{ACAD_REACTORS
330
29
102
}
330
29
100
AcDbVisualStyle
  2
Conceptual
 70
     9
177
     3
291
     0
 70
    58
 90
        3
176
     1
 90
        2
176
     1
 90
        0
176
     1
 90
        0
176
     1
 40
0.6
176
     1
 40
30.0
176
     1
 62
     7
420
 16777215
176
     1
 90
        2
176
     1
 90
        2
176
     1
 62
     7
176
     1
 62
   257
176
     1
 90
        1
176
     1
 90
        1
176
     1
 40
179.0
176
     1
 90
        8
176
     1
 62
     7
176
     1
 40
1.0
176
     1
 90
        1
176
     1
 90
        6
176
     1
 90
        2
176
     1
 62
     7
176
     1
 90
        3
176
     1
 90
        0
176
     1
 90
        0
176
     1
290
     0
176
     1
 90
        1
176
     1
 40
0.0
176
     1
 90
        0
176
     1
290
     0
176
     1
290
     1
176
     1
290
     1
176
     1
290
     0
176
     1
290
     0
176
     1
290
     0
176
     1
290
     0
176
     1
290
     0
176
     1
290
     0
176
     1
 90
       50
176
     1
 40
0.0
176
     1
 40
1.0
176
     1
 90
        0
176
     1
 62
    18
420
        0
176
     1
 90
       50
176
     1
 90
        3
176
     1
 62
     5
420
      255
176
     1
290
     0
176
     1
 90
       50
176
     1
 90
       50
176
     1
 90
       50
176
     1
290
     0
176
     1
 90
       50
176
     1
 62
   256
176
     0
 40
1.0
176
     0
 90
        2
176
     1
  1
strokes_ogs.tif
176
     1
290
     0
176
     1
 40
1.0
176
     1
 40
1.0
176
     1
  0
VISUALSTYLE
  5
34
102
{ACAD_REACTORS
330
29
102
}
330
29
100
AcDbVisualStyle
  2
Dim
 70
    11
177
     3
291
     1
 70
    58
 90
        2
176
     1
 90
        2
176
     1
 90
        0
176
     1
 90
        0
176
     1
 40
0.6
176
     1
 40
30.0
176
     1
 62
     7
420
 16777215
176
     1
 90
        1
176
     1
 90
        4
176
     1
 62
     7
176
     1
 62
   257
176
     1
 90
        1
176
     1
 90
        1
176
     1
 40
1.0
176
     1
 90
        8
176
     1
 62
     7
176
     1
 40
1.0
176
     1
 90
        1
176
     1
 90
        6
176
     1
 90
        2
176
     1
 62
     7
176
     1
 90
        5
176
     1
 90
        0
176
     1
 90
        0
176
     1
290
     0
176
     1
 90
        1
176
     1
 40
-50.0
176
     1
 90
        0
176
     1
290
     0
176
     1
290
     1
176
     1
290
     1
176
     1
290
     0
176
     1
290
     0
176
     1
290
     0
176
     1
290
     0
176
     1
290
     0
176
     1
290
     0
176
     1
 90
       50
176
     1
 40
0.0
176
     1
 40
1.0
176
     1
 90
        0
176
     1
 62
    18
420
        0
176
     1
 90
       50
176
     1
 90
        3
176
     1
 62
     5
420
      255
176
     1
290
     0
176
     1
 90
       50
176
     1
 90
       50
176
     1
 90
       50
176
     1
290
     0
176
     1
 90
       50
176
     1
 62
   256
176
     0
 40
1.0
176
     0
 90
        2
176
     1
  1
strokes_ogs.tif
176
     1
290
     0
176
     1
 40
1.0
176
     1
 40
1.0
176
     1
  0
VISUALSTYLE
  5
41
102
{ACAD_REACTORS
330
29
102
}
330
29
100
AcDbVisualStyle
  2
EdgeColorOff
 70
    22
177
     3
291
     1
 70
    58
 90
        2
176
     0
 90
        2
176
     0
 90
        0
176
     0
 90
        0
176
     0
 40
0.6
176
     0
 40
30.0
176
     0
 62
     7
420
 16777215
176
     0
 90
        1
176
     0
 90
        4
176
     0
 62
     7
176
     0
 62
   257
176
     0
 90
        1
176
     0
 90
        1
176
     0
 40
1.0
176
     0
 90
        8
176
     2
 62
     7
176
     0
 40
1.0
176
     0
 90
        1
176
     0
 90
        6
176
     0
 90
        2
176
     0
 62
     7
176
     0
 90
        5
176
     0
 90
        0
176
     0
 90
        0
176
     0
290
     0
176
     0
 90
        1
176
     0
 40
0.0
176
     0
 90
        0
176
     0
290
     0
176
     1
290
     1
176
     1
290
     1
176
     1
290
     0
176
     1
290
     0
176
     1
290
     0
176
     1
290
     0
176
     1
290
     0
176
     1
290
     0
176
     1
 90
       50
176
     0
 40
0.0
176
     0
 40
1.0
176
     0
 90
        0
176
     0
 62
    18
420
        0
176
     0
 90
       50
176
     0
 90
        3
176
     0
 62
     5
420
      255
176
     0
290
     0
176
     1
 90
       50
176
     0
 90
       50
176
     0
 90
       50
176
     0
290
     0
176
     1
 90
       50
176
     0
 62
   256
176
     0
 40
1.0
176
     0
 90
        2
176
     0
  1
strokes_ogs.tif
176
     0
290
     0
176
     1
 40
1.0
176
     0
 40
1.0
176
     0
  0
VISUALSTYLE
  5
38
102
{ACAD_REACTORS
330
29
102
}
330
29
100
AcDbVisualStyle
  2
Facepattern
 70
    15
177
     3
291
     1
 70
    58
 90
        2
176
     1
 90
        2
176
     1
 90
        0
176
     1
 90
        0
176
     1
 40
0.6
176
     1
 40
30.0
176
     1
 62
     7
420
 16777215
176
     1
 90
        1
176
     1
 90
        4
176
     1
 62
     7
176
     1
 62
   257
176
     1
 90
        1
176
     1
 90
        1
176
     1
 40
1.0
176
     1
 90
        8
176
     1
 62
     7
176
     1
 40
1.0
176
     1
 90
        1
176
     1
 90
        6
176
     1
 90
        2
176
     1
 62
     7
176
     1
 90
        5
176
     1
 90
        0
176
     1
 90
        0
176
     1
290
     0
176
     1
 90
        1
176
     1
 40
0.0
176
     1
 90
        0
176
     1
290
     0
176
     1
290
     1
176
     1
290
     1
176
     1
290
     0
176
     1
290
     0
176
     1
290
     0
176
     1
290
     0
176
     1
290
     0
176
     1
290
     0
176
     1
 90
       50
176
     1
 40
0.0
176
     1
 40
1.0
176
     1
 90
        0
176
     1
 62
    18
420
        0
176
     1
 90
       50
176
     1
 90
        3
176
     1
 62
     5
420
      255
176
     1
290
     0
176
     1
 90
       50
176
     1
 90
       50
176
     1
 90
       50
176
     1
290
     0
176
     1
 90
       50
176
     1
 62
   256
176
     0
 40
1.0
176
     0
 90
        2
176
     1
  1
strokes_ogs.tif
176
     1
290
     0
176
     1
 40
1.0
176
     1
 40
1.0
176
     1
  0
VISUALSTYLE
  5
2A
102
{ACAD_REACTORS
330
29
102
}
330
29
100
AcDbVisualStyle
  2
Flat
 70
     0
177
     3
291
     1
 70
    58
 90
        2
176
     1
 90
        1
176
     1
 90
        1
176
     1
 90
        2
176
     1
 40
0.6
176
     1
 40
30.0
176
     1
 62
     7
420
 16777215
176
     1
 90
        0
176
     1
 90
        0
176
     1
 62
     7
176
     1
 62
   257
176
     1
 90
        1
176
     1
 90
        1
176
     1
 40
1.0
176
     1
 90
        8
176
     1
 62
     7
176
     1
 40
1.0
176
     1
 90
        1
176
     1
 90
        6
176
     1
 90
        2
176
     1
 62
     7
176
     1
 90
        5
176
     1
 90
        0
176
     1
 90
        0
176
     1
290
     0
176
     1
 90
       13
176
     1
 40
0.0
176
     1
 90
        0
176
     1
290
     0
176
     1
290
     1
176
     1
290
     1
176
     1
290
     0
176
     1
290
     0
176
     1
290
     0
176
     1
290
     0
176
     1
290
     0
176
     1
290
     0
176
     1
 90
       50
176
     1
 40
0.0
176
     1
 40
1.0
176
     1
 90
        0
176
     1
 62
    18
420
        0
176
     1
 90
       50
176
     1
 90
        3
176
     1
 62
     5
420
      255
176
     1
290
     0
176
     1
 90
       50
176
     1
 90
       50
176
     1
 90
       50
176
     1
290
     0
176
     1
 90
       50
176
     1
 62
   256
176
     0
 40
1.0
176
     0
 90
        2
176
     1
  1
strokes_ogs.tif
176
     1
290
     0
176
     1
 40
1.0
176
     1
 40
1.0
176
     1
  0
VISUALSTYLE
  5
2B
102
{ACAD_REACTORS
330
29
102
}
330
29
100
AcDbVisualStyle
  2
FlatWithEdges
 70
     1
177
     3
291
     1
 70
    58
 90
        2
176
     1
 90
        1
176
     1
 90
        1
176
     1
 90
        2
176
     1
 40
0.6
176
     1
 40
30.0
176
     1
 62
     7
420
 16777215
176
     1
 90
        1
176
     1
 90
        0
176
     1
 62
     7
176
     1
 62
   257
176
     1
 90
        1
176
     1
 90
        1
176
     1
 40
1.0
176
     1
 90
        0
176
     1
 62
   257
176
     1
 40
1.0
176
     1
 90
        1
176
     1
 90
        6
176
     1
 90
        2
176
     1
 62
     7
176
     1
 90
        5
176
     1
 90
        0
176
     1
 90
        0
176
     1
290
     0
176
     1
 90
       13
176
     1
 40
0.0
176
     1
 90
        0
176
     1
290
     0
176
     1
290
     1
176
     1
290
     1
176
     1
290
     0
176
     1
290
     0
176
     1
290
     0
176
     1
290
     0
176
     1
290
     0
176
     1
290
     0
176
     1
 90
       50
176
     1
 40
0.0
176
     1
 40
1.0
176
     1
 90
        0
176
     1
 62
    18
420
        0
176
     1
 90
       50
176
     1
 90
        3
176
     1
 62
     5
420
      255
176
     1
290
     0
176
     1
 90
       50
176
     1
 90
       50
176
     1
 90
       50
176
     1
290
     0
176
     1
 90
       50
176
     1
 62
   256
176
     0
 40
1.0
176
     0
 90
        2
176
     1
  1
strokes_ogs.tif
176
     1
290
     0
176
     1
 40
1.0
176
     1
 40
1.0
176
     1
  0
VISUALSTYLE
  5
2C
102
{ACAD_REACTORS
330
29
102
}
330
29
100
AcDbVisualStyle
  2
Gouraud
 70
     2
177
     3
291
     1
 70
    58
 90
        2
176
     1
 90
        2
176
     1
 90
        1
176
     1
 90
        2
176
     1
 40
0.6
176
     1
 40
30.0
176
     1
 62
     7
420
 16777215
176
     1
 90
        0
176
     1
 90
        0
176
     1
 62
     7
176
     1
 62
   257
176
     1
 90
        1
176
     1
 90
        1
176
     1
 40
1.0
176
     1
 90
        0
176
     1
 62
     7
176
     1
 40
1.0
176
     1
 90
        1
176
     1
 90
        6
176
     1
 90
        2
176
     1
 62
     7
176
     1
 90
        5
176
     1
 90
        0
176
     1
 90
        0
176
     1
290
     0
176
     1
 90
       13
176
     1
 40
0.0
176
     1
 90
        0
176
     1
290
     0
176
     1
290
     1
176
     1
290
     1
176
     1
290
     0
176
     1
290
     0
176
     1
290
     0
176
     1
290
     0
176
     1
290
     0
176
     1
290
     0
176
     1
 90
       50
176
     1
 40
0.0
176
     1
 40
1.0
176
     1
 90
        0
176
     1
 62
    18
420
        0
176
     1
 90
       50
176
     1
 90
        3
176
     1
 62
     5
420
      255
176
     1
290
     0
176
     1
 90
       50
176
     1
 90
       50
176
     1
 90
       50
176
     1
290
     0
176
     1
 90
       50
176
     1
 62
   256
176
     0
 40
1.0
176
     0
 90
        2
176
     1
  1
strokes_ogs.tif
176
     1
290
     0
176
     1
 40
1.0
176
     1
 40
1.0
176
     1
  0
VISUALSTYLE
  5
2D
102
{ACAD_REACTORS
330
29
102
}
330
29
100
AcDbVisualStyle
  2
GouraudWithEdges
 70
     3
177
     3
291
     1
 70
    58
 90
        2
176
     1
 90
        2
176
     1
 90
        1
176
     1
 90
        2
176
     1
 40
0.6
176
     1
 40
30.0
176
     1
 62
     7
420
 16777215
176
     1
 90
        1
176
     1
 90
        0
176
     1
 62
     7
176
     1
 62
   257
176
     1
 90
        1
176
     1
 90
        1
176
     1
 40
1.0
176
     1
 90
        0
176
     1
 62
   257
176
     1
 40
1.0
176
     1
 90
        1
176
     1
 90
        6
176
     1
 90
        2
176
     1
 62
     7
176
     1
 90
        5
176
     1
 90
        0
176
     1
 90
        0
176
     1
290
     0
176
     1
 90
       13
176
     1
 40
0.0
176
     1
 90
        0
176
     1
290
     0
176
     1
290
     1
176
     1
290
     1
176
     1
290
     0
176
     1
290
     0
176
     1
290
     0
176
     1
290
     0
176
     1
290
     0
176
     1
290
     0
176
     1
 90
       50
176
     1
 40
0.0
176
     1
 40
1.0
176
     1
 90
        0
176
     1
 62
    18
420
        0
176
     1
 90
       50
176
     1
 90
        3
176
     1
 62
     5
420
      255
176
     1
290
     0
176
     1
 90
       50
176
     1
 90
       50
176
     1
 90
       50
176
     1
290
     0
176
     1
 90
       50
176
     1
 62
   256
176
     0
 40
1.0
176
     0
 90
        2
176
     1
  1
strokes_ogs.tif
176
     1
290
     0
176
     1
 40
1.0
176
     1
 40
1.0
176
     1
  0
VISUALSTYLE
  5
31
102
{ACAD_REACTORS
330
29
102
}
330
29
100
AcDbVisualStyle
  2
Hidden
 70
     6
177
     3
291
     0
 70
    58
 90
        1
176
     1
 90
        2
176
     1
 90
        2
176
     1
 90
        0
176
     1
 40
0.6
176
     1
 40
30.0
176
     1
 62
     7
420
 16777215
176
     1
 90
        2
176
     1
 90
        2
176
     1
 62
     7
176
     1
 62
   257
176
     1
 90
        2
176
     1
 90
        1
176
     1
 40
40.0
176
     1
 90
        0
176
     1
 62
   257
176
     1
 40
1.0
176
     1
 90
        1
176
     1
 90
        6
176
     1
 90
        2
176
     1
 62
     7
176
     1
 90
        3
176
     1
 90
        0
176
     1
 90
        0
176
     1
290
     0
176
     1
 90
        1
176
     1
 40
0.0
176
     1
 90
        0
176
     1
290
     0
176
     1
290
     1
176
     1
290
     1
176
     1
290
     0
176
     1
290
     0
176
     1
290
     0
176
     1
290
     0
176
     1
290
     0
176
     1
290
     0
176
     1
 90
       50
176
     1
 40
0.0
176
     1
 40
1.0
176
     1
 90
        0
176
     1
 62
    18
420
        0
176
     1
 90
       50
176
     1
 90
        3
176
     1
 62
     5
420
      255
176
     1
290
     0
176
     1
 90
       50
176
     1
 90
       50
176
     1
 90
       50
176
     1
290
     0
176
     1
 90
       50
176
     1
 62
   256
176
     0
 40
1.0
176
     0
 90
        2
176
     1
  1
strokes_ogs.tif
176
     1
290
     0
176
     1
 40
1.0
176
     1
 40
1.0
176
     1
  0
VISUALSTYLE
  5
3F
102
{ACAD_REACTORS
330
29
102
}
330
29
100
AcDbVisualStyle
  2
JitterOff
 70
    20
177
     3
291
     1
 70
    58
 90
        2
176
     0
 90
        2
176
     0
 90
        0
176
     0
 90
        0
176
     0
 40
0.6
176
     0
 40
30.0
176
     0
 62
     7
420
 16777215
176
     0
 90
        1
176
     0
 90
        4
176
     0
 62
     7
176
     0
 62
   257
176
     0
 90
        1
176
     0
 90
        1
176
     0
 40
1.0
176
     0
 90
       10
176
     2
 62
     7
176
     0
 40
1.0
176
     0
 90
        1
176
     0
 90
        6
176
     0
 90
        2
176
     0
 62
     7
176
     0
 90
        5
176
     0
 90
        0
176
     0
 90
        0
176
     0
290
     0
176
     0
 90
        1
176
     0
 40
0.0
176
     0
 90
        0
176
     0
290
     0
176
     1
290
     1
176
     1
290
     1
176
     1
290
     0
176
     1
290
     0
176
     1
290
     0
176
     1
290
     0
176
     1
290
     0
176
     1
290
     0
176
     1
 90
       50
176
     0
 40
0.0
176
     0
 40
1.0
176
     0
 90
        0
176
     0
 62
    18
420
        0
176
     0
 90
       50
176
     0
 90
        3
176
     0
 62
     5
420
      255
176
     0
290
     0
176
     1
 90
       50
176
     0
 90
       50
176
     0
 90
       50
176
     0
290
     0
176
     1
 90
       50
176
     0
 62
   256
176
     0
 40
1.0
176
     0
 90
        2
176
     0
  1
strokes_ogs.tif
176
     0
290
     0
176
     1
 40
1.0
176
     0
 40
1.0
176
     0
  0
VISUALSTYLE
  5
37
102
{ACAD_REACTORS
330
29
102
}
330
29
100
AcDbVisualStyle
  2
Linepattern
 70
    14
177
     3
291
     1
 70
    58
 90
        2
176
     1
 90
        2
176
     1
 90
        0
176
     1
 90
        0
176
     1
 40
0.6
176
     1
 40
30.0
176
     1
 62
     7
420
 16777215
176
     1
 90
        1
176
     1
 90
        4
176
     1
 62
     7
176
     1
 62
   257
176
     1
 90
        7
176
     1
 90
        7
176
     1
 40
1.0
176
     1
 90
        8
176
     1
 62
     7
176
     1
 40
1.0
176
     1
 90
        1
176
     1
 90
        6
176
     1
 90
        2
176
     1
 62
     7
176
     1
 90
        5
176
     1
 90
        0
176
     1
 90
        0
176
     1
290
     0
176
     1
 90
        1
176
     1
 40
0.0
176
     1
 90
        0
176
     1
290
     0
176
     1
290
     1
176
     1
290
     1
176
     1
290
     0
176
     1
290
     0
176
     1
290
     0
176
     1
290
     0
176
     1
290
     0
176
     1
290
     0
176
     1
 90
       50
176
     1
 40
0.0
176
     1
 40
1.0
176
     1
 90
        0
176
     1
 62
    18
420
        0
176
     1
 90
       50
176
     1
 90
        3
176
     1
 62
     5
420
      255
176
     1
290
     0
176
     1
 90
       50
176
     1
 90
       50
176
     1
 90
       50
176
     1
290
     0
176
     1
 90
       50
176
     1
 62
   256
176
     0
 40
1.0
176
     0
 90
        2
176
     1
  1
strokes_ogs.tif
176
     1
290
     0
176
     1
 40
1.0
176
     1
 40
1.0
176
     1
  0
VISUALSTYLE
  5
40
102
{ACAD_REACTORS
330
29
102
}
330
29
100
AcDbVisualStyle
  2
OverhangOff
 70
    21
177
     3
291
     1
 70
    58
 90
        2
176
     0
 90
        2
176
     0
 90
        0
176
     0
 90
        0
176
     0
 40
0.6
176
     0
 40
30.0
176
     0
 62
     7
420
 16777215
176
     0
 90
        1
176
     0
 90
        4
176
     0
 62
     7
176
     0
 62
   257
176
     0
 90
        1
176
     0
 90
        1
176
     0
 40
1.0
176
     0
 90
        9
176
     2
 62
     7
176
     0
 40
1.0
176
     0
 90
        1
176
     0
 90
        6
176
     0
 90
        2
176
     0
 62
     7
176
     0
 90
        5
176
     0
 90
        0
176
     0
 90
        0
176
     0
290
     0
176
     0
 90
        1
176
     0
 40
0.0
176
     0
 90
        0
176
     0
290
     0
176
     1
290
     1
176
     1
290
     1
176
     1
290
     0
176
     1
290
     0
176
     1
290
     0
176
     1
290
     0
176
     1
290
     0
176
     1
290
     0
176
     1
 90
       50
176
     0
 40
0.0
176
     0
 40
1.0
176
     0
 90
        0
176
     0
 62
    18
420
        0
176
     0
 90
       50
176
     0
 90
        3
176
     0
 62
     5
420
      255
176
     0
290
     0
176
     1
 90
       50
176
     0
 90
       50
176
     0
 90
       50
176
     0
290
     0
176
     1
 90
       50
176
     0
 62
   256
176
     0
 40
1.0
176
     0
 90
        2
176
     0
  1
strokes_ogs.tif
176
     0
290
     0
176
     1
 40
1.0
176
     0
 40
1.0
176
     0
  0
VISUALSTYLE
  5
33
102
{ACAD_REACTORS
330
29
102
}
330
29
100
AcDbVisualStyle
  2
Realistic
 70
     8
177
     3
291
     0
 70
    58
 90
        2
176
     1
 90
        3
176
     1
 90
        0
176
     1
 90
        2
176
     1
 40
0.6
176
     1
 40
30.0
176
     1
 62
     7
420
 16777215
176
     1
 90
        0
176
     1
 90
        0
176
     1
 62
     7
176
     1
 62
   257
176
     1
 90
        1
176
     1
 90
        1
176
     1
 40
1.0
176
     1
 90
        8
176
     1
 62
   257
176
     1
 40
1.0
176
     1
 90
        1
176
     1
 90
        6
176
     1
 90
        2
176
     1
 62
     7
176
     1
 90
        3
176
     1
 90
        0
176
     1
 90
        0
176
     1
290
     0
176
     1
 90
       13
176
     1
 40
0.0
176
     1
 90
        0
176
     1
290
     0
176
     1
290
     1
176
     1
290
     1
176
     1
290
     0
176
     1
290
     0
176
     1
290
     0
176
     1
290
     0
176
     1
290
     0
176
     1
290
     0
176
     1
 90
       50
176
     1
 40
0.0
176
     1
 40
1.0
176
     1
 90
        0
176
     1
 62
    18
420
        0
176
     1
 90
       50
176
     1
 90
        3
176
     1
 62
     5
420
      255
176
     1
290
     0
176
     1
 90
       50
176
     1
 90
       50
176
     1
 90
       50
176
     1
290
     0
176
     1
 90
       50
176
     1
 62
   256
176
     0
 40
1.0
176
     0
 90
        2
176
     1
  1
strokes_ogs.tif
176
     1
290
     0
176
     1
 40
1.0
176
     1
 40
1.0
176
     1
  0
VISUALSTYLE
  5
3E
102
{ACAD_REACTORS
330
29
102
}
330
29
100
AcDbVisualStyle
  2
Shaded
 70
    27
177
     3
291
     0
 70
    58
 90
        2
176
     1
 90
        2
176
     1
 90
        1
176
     1
 90
        2
176
     1
 40
0.6
176
     1
 40
30.0
176
     1
 62
     7
420
 16777215
176
     1
 90
        0
176
     1
 90
        4
176
     1
 62
     7
176
     1
 62
   257
176
     1
 90
        1
176
     1
 90
        1
176
     1
 40
1.0
176
     1
 90
        8
176
     1
 62
   257
176
     1
 40
1.0
176
     1
 90
        1
176
     1
 90
        6
176
     1
 90
        2
176
     1
 62
     8
420
  7895160
176
     1
 90
        3
176
     1
 90
        0
176
     1
 90
        0
176
     1
290
     0
176
     1
 90
        5
176
     1
 40
0.0
176
     1
 90
        0
176
     1
290
     0
176
     1
290
     1
176
     1
290
     1
176
     1
290
     0
176
     1
290
     0
176
     1
290
     0
176
     1
290
     0
176
     1
290
     0
176
     1
290
     0
176
     1
 90
       50
176
     1
 40
0.0
176
     1
 40
1.0
176
     1
 90
        0
176
     1
 62
    18
420
        0
176
     1
 90
       50
176
     1
 90
        3
176
     1
 62
     5
420
      255
176
     1
290
     0
176
     1
 90
       50
176
     1
 90
       50
176
     1
 90
       50
176
     1
290
     0
176
     1
 90
       50
176
     1
 62
   256
176
     0
 40
1.0
176
     0
 90
        2
176
     1
  1
strokes_ogs.tif
176
     1
290
     0
176
     1
 40
1.0
176
     1
 40
1.0
176
     1
  0
VISUALSTYLE
  5
3D
102
{ACAD_REACTORS
330
29
102
}
330
29
100
AcDbVisualStyle
  2
Shaded with edges
 70
    26
177
     3
291
     0
 70
    58
 90
        2
176
     1
 90
        2
176
     1
 90
        1
176
     1
 90
        2
176
     1
 40
0.6
176
     1
 40
30.0
176
     1
 62
     7
420
 16777215
176
     1
 90
        1
176
     1
 90
       10
176
     1
 62
     7
176
     1
 62
   257
176
     1
 90
        2
176
     1
 90
        1
176
     1
 40
1.0
176
     1
 90
        8
176
     1
 62
   257
176
     1
 40
1.0
176
     1
 90
        1
176
     1
 90
        6
176
     1
 90
        2
176
     1
 62
     7
176
     1
 90
        3
176
     1
 90
        0
176
     1
 90
        0
176
     1
290
     0
176
     1
 90
        5
176
     1
 40
0.0
176
     1
 90
        0
176
     1
290
     0
176
     1
290
     1
176
     1
290
     1
176
     1
290
     0
176
     1
290
     0
176
     1
290
     0
176
     1
290
     0
176
     1
290
     0
176
     1
290
     0
176
     1
 90
       50
176
     1
 40
0.0
176
     1
 40
1.0
176
     1
 90
        0
176
     1
 62
    18
420
        0
176
     1
 90
       50
176
     1
 90
        3
176
     1
 62
     5
420
      255
176
     1
290
     0
176
     1
 90
       50
176
     1
 90
       50
176
     1
 90
       50
176
     1
290
     0
176
     1
 90
       50
176
     1
 62
   256
176
     0
 40
1.0
176
     0
 90
        2
176
     1
  1
strokes_ogs.tif
176
     1
290
     0
176
     1
 40
1.0
176
     1
 40
1.0
176
     1
  0
VISUALSTYLE
  5
3A
102
{ACAD_REACTORS
330
29
102
}
330
29
100
AcDbVisualStyle
  2
Shades of Gray
 70
    23
177
     3
291
     0
 70
    58
 90
        2
176
     1
 90
        2
176
     1
 90
        3
176
     1
 90
        0
176
     1
 40
0.6
176
     1
 40
30.0
176
     1
 62
     7
420
 16777215
176
     1
 90
        2
176
     1
 90
        2
176
     1
 62
     7
176
     1
 62
     7
176
     1
 90
        1
176
     1
 90
        1
176
     1
 40
40.0
176
     1
 90
        8
176
     1
 62
     7
176
     1
 40
1.0
176
     1
 90
        1
176
     1
 90
        6
176
     1
 90
        2
176
     1
 62
     7
176
     1
 90
        3
176
     1
 90
        0
176
     1
 90
        0
176
     1
290
     0
176
     1
 90
        1
176
     1
 40
0.0
176
     1
 90
        0
176
     1
290
     0
176
     1
290
     1
176
     1
290
     1
176
     1
290
     0
176
     1
290
     0
176
     1
290
     0
176
     1
290
     0
176
     1
290
     0
176
     1
290
     0
176
     1
 90
       50
176
     1
 40
0.0
176
     1
 40
1.0
176
     1
 90
        0
176
     1
 62
    18
420
        0
176
     1
 90
       50
176
     1
 90
        3
176
     1
 62
     5
420
      255
176
     1
290
     0
176
     1
 90
       50
176
     1
 90
       50
176
     1
 90
       50
176
     1
290
     0
176
     1
 90
       50
176
     1
 62
   256
176
     0
 40
1.0
176
     0
 90
        2
176
     1
  1
strokes_ogs.tif
176
     1
290
     0
176
     1
 40
1.0
176
     1
 40
1.0
176
     1
  0
VISUALSTYLE
  5
3B
102
{ACAD_REACTORS
330
29
102
}
330
29
100
AcDbVisualStyle
  2
Sketchy
 70
    24
177
     3
291
     0
 70
    58
 90
        1
176
     1
 90
        2
176
     1
 90
        2
176
     1
 90
        0
176
     1
 40
0.6
176
     1
 40
30.0
176
     1
 62
     7
420
 16777215
176
     1
 90
        2
176
     1
 90
        2
176
     1
 62
     7
176
     1
 62
     7
176
     1
 90
        1
176
     1
 90
        1
176
     1
 40
40.0
176
     1
 90
       11
176
     1
 62
     7
176
     1
 40
1.0
176
     1
 90
        1
176
     1
 90
        6
176
     1
 90
        2
176
     1
 62
     7
176
     1
 90
        6
176
     1
 90
        0
176
     1
 90
        0
176
     1
290
     0
176
     1
 90
        1
176
     1
 40
0.0
176
     1
 90
        0
176
     1
290
     0
176
     1
290
     1
176
     1
290
     1
176
     1
290
     0
176
     1
290
     0
176
     1
290
     0
176
     1
290
     0
176
     1
290
     0
176
     1
290
     0
176
     1
 90
       50
176
     1
 40
0.0
176
     1
 40
1.0
176
     1
 90
        0
176
     1
 62
    18
420
        0
176
     1
 90
       50
176
     1
 90
        3
176
     1
 62
     5
420
      255
176
     1
290
     0
176
     1
 90
       50
176
     1
 90
       50
176
     1
 90
       50
176
     1
290
     0
176
     1
 90
       50
176
     1
 62
   256
176
     0
 40
1.0
176
     0
 90
        2
176
     1
  1
strokes_ogs.tif
176
     1
290
     0
176
     1
 40
1.0
176
     1
 40
1.0
176
     1
  0
VISUALSTYLE
  5
36
102
{ACAD_REACTORS
330
29
102
}
330
29
100
AcDbVisualStyle
  2
Thicken
 70
    13
177
     3
291
     1
 70
    58
 90
        2
176
     1
 90
        2
176
     1
 90
        0
176
     1
 90
        0
176
     1
 40
0.6
176
     1
 40
30.0
176
     1
 62
     7
420
 16777215
176
     1
 90
        1
176
     1
 90
        4
176
     1
 62
     7
176
     1
 62
   257
176
     1
 90
        1
176
     1
 90
        1
176
     1
 40
1.0
176
     1
 90
       12
176
     1
 62
     7
176
     1
 40
1.0
176
     1
 90
        1
176
     1
 90
        6
176
     1
 90
        2
176
     1
 62
     7
176
     1
 90
        5
176
     1
 90
        0
176
     1
 90
        0
176
     1
290
     0
176
     1
 90
        1
176
     1
 40
0.0
176
     1
 90
        0
176
     1
290
     0
176
     1
290
     1
176
     1
290
     1
176
     1
290
     0
176
     1
290
     0
176
     1
290
     0
176
     1
290
     0
176
     1
290
     0
176
     1
290
     0
176
     1
 90
       50
176
     1
 40
0.0
176
     1
 40
1.0
176
     1
 90
        0
176
     1
 62
    18
420
        0
176
     1
 90
       50
176
     1
 90
        3
176
     1
 62
     5
420
      255
176
     1
290
     0
176
     1
 90
       50
176
     1
 90
       50
176
     1
 90
       50
176
     1
290
     0
176
     1
 90
       50
176
     1
 62
   256
176
     0
 40
1.0
176
     0
 90
        2
176
     1
  1
strokes_ogs.tif
176
     1
290
     0
176
     1
 40
1.0
176
     1
 40
1.0
176
     1
  0
VISUALSTYLE
  5
30
102
{ACAD_REACTORS
330
29
102
}
330
29
100
AcDbVisualStyle
  2
Wireframe
 70
     5
177
     3
291
     0
 70
    58
 90
        0
176
     1
 90
        2
176
     1
 90
        0
176
     1
 90
        0
176
     1
 40
0.6
176
     1
 40
30.0
176
     1
 62
     7
420
 16777215
176
     1
 90
        1
176
     1
 90
        4
176
     1
 62
     7
176
     1
 62
   257
176
     1
 90
        1
176
     1
 90
        1
176
     1
 40
1.0
176
     1
 90
        0
176
     1
 62
   257
176
     1
 40
1.0
176
     1
 90
        1
176
     1
 90
        6
176
     1
 90
        2
176
     1
 62
     7
176
     1
 90
        3
176
     1
 90
        0
176
     1
 90
        0
176
     1
290
     0
176
     1
 90
        1
176
     1
 40
0.0
176
     1
 90
        0
176
     1
290
     0
176
     1
290
     1
176
     1
290
     1
176
     1
290
     0
176
     1
290
     0
176
     1
290
     0
176
     1
290
     0
176
     1
290
     0
176
     1
290
     0
176
     1
 90
       50
176
     1
 40
0.0
176
     1
 40
1.0
176
     1
 90
        0
176
     1
 62
    18
420
        0
176
     1
 90
       50
176
     1
 90
        3
176
     1
 62
     5
420
      255
176
     1
290
     0
176
     1
 90
       50
176
     1
 90
       50
176
     1
 90
       50
176
     1
290
     0
176
     1
 90
       50
176
     1
 62
   256
176
     0
 40
1.0
176
     0
 90
        2
176
     1
  1
strokes_ogs.tif
176
     1
290
     0
176
     1
 40
1.0
176
     1
 40
1.0
176
     1
  0
VISUALSTYLE
  5
3C
102
{ACAD_REACTORS
330
29
102
}
330
29
100
AcDbVisualStyle
  2
X-Ray
 70
    25
177
     3
291
     0
 70
    58
 90
        2
176
     1
 90
        2
176
     1
 90
        1
176
     1
 90
        1
176
     1
 40
0.5
176
     1
 40
30.0
176
     1
 62
     7
420
 16777215
176
     1
 90
        1
176
     1
 90
        0
176
     1
 62
     7
176
     1
 62
   257
176
     1
 90
        1
176
     1
 90
        1
176
     1
 40
1.0
176
     1
 90
        8
176
     1
 62
     7
176
     1
 40
1.0
176
     1
 90
        1
176
     1
 90
        6
176
     1
 90
        2
176
     1
 62
     7
176
     1
 90
        3
176
     1
 90
        0
176
     1
 90
        0
176
     1
290
     0
176
     1
 90
       13
176
     1
 40
0.0
176
     1
 90
        0
176
     1
290
     0
176
     1
290
     1
176
     1
290
     1
176
     1
290
     0
176
     1
290
     0
176
     1
290
     0
176
     1
290
     0
176
     1
290
     0
176
     1
290
     0
176
     1
 90
       50
176
     1
 40
0.0
176
     1
 40
1.0
176
     1
 90
        0
176
     1
 62
    18
420
        0
176
     1
 90
       50
176
     1
 90
        3
176
     1
 62
     5
420
      255
176
     1
290
     0
176
     1
 90
       50
176
     1
 90
       50
176
     1
 90
       50
176
     1
290
     0
176
     1
 90
       50
176
     1
 62
   256
176
     0
 40
1.0
176
     0
 90
        2
176
     1
  1
strokes_ogs.tif
176
     1
290
     0
176
     1
 40
1.0
176
     1
 40
1.0
176
     1
  0
DICTIONARYVAR
  5
792
102
{ACAD_REACTORS
330
78C
102
}
330
78C
100
DictionaryVariables
280
     0
  1
1:1
  0
DICTIONARYVAR
  5
78E
102
{ACAD_REACTORS
330
78C
102
}
330
78C
100
DictionaryVariables
280
     0
  1
STANDARD
  0
DICTIONARYVAR
  5
78D
102
{ACAD_REACTORS
330
78C
102
}
330
78C
100
DictionaryVariables
280
     0
  1
STANDARD
  0
DICTIONARYVAR
  5
78F
102
{ACAD_REACTORS
330
78C
102
}
330
78C
100
DictionaryVariables
280
     0
  1
Imperial24
  0
DICTIONARYVAR
  5
790
102
{ACAD_REACTORS
330
78C
102
}
330
78C
100
DictionaryVariables
280
     0
  1
Imperial24
  0
DICTIONARYVAR
  5
794
102
{ACAD_REACTORS
330
78C
102
}
330
78C
100
DictionaryVariables
280
     0
  1
1
  0
DICTIONARYVAR
  5
795
102
{ACAD_REACTORS
330
78C
102
}
330
78C
100
DictionaryVariables
280
     0
  1
15
  0
DICTIONARYVAR
  5
793
102
{ACAD_REACTORS
330
78C
102
}
330
78C
100
DictionaryVariables
280
     0
  1
0
  0
DICTIONARYVAR
  5
791
102
{ACAD_REACTORS
330
78C
102
}
330
78C
100
DictionaryVariables
280
     0
  1
0
  0
DICTIONARY
  5
1A
330
19
100
AcDbDictionary
280
     1
281
     1
  3
BUMPTILE
360
1C
  3
DIFFUSETILE
360
1B
  3
OPACITYTILE
360
1F
  3
REFLECTIONTILE
360
1E
  3
REFRACTIONTILE
360
20
  3
SPECULARTILE
360
1D
  0
DICTIONARY
  5
12
330
11
100
AcDbDictionary
280
     1
281
     1
  3
BUMPTILE
360
14
  3
DIFFUSETILE
360
13
  3
OPACITYTILE
360
17
  3
REFLECTIONTILE
360
16
  3
REFRACTIONTILE
360
18
  3
SPECULARTILE
360
15
  0
DICTIONARY
  5
22
330
21
100
AcDbDictionary
280
     1
281
     1
  3
BUMPTILE
360
24
  3
DIFFUSETILE
360
23
  3
OPACITYTILE
360
27
  3
REFLECTIONTILE
360
26
  3
REFRACTIONTILE
360
28
  3
SPECULARTILE
360
25
  0
DICTIONARY
  5
796
330
64
100
AcDbDictionary
280
     1
281
     1
  3
ACAD_ROUNDTRIP_2008_TABLESTYLE_CELLSTYLEMAP
360
797
  0
XRECORD
  5
1C
102
{ACAD_REACTORS
330
1A
102
}
330
1A
100
AcDbXrecord
280
     1
270
     1
271
     1
  0
XRECORD
  5
1B
102
{ACAD_REACTORS
330
1A
102
}
330
1A
100
AcDbXrecord
280
     1
270
     1
271
     1
  0
XRECORD
  5
1F
102
{ACAD_REACTORS
330
1A
102
}
330
1A
100
AcDbXrecord
280
     1
270
     1
271
     1
  0
XRECORD
  5
1E
102
{ACAD_REACTORS
330
1A
102
}
330
1A
100
AcDbXrecord
280
     1
270
     1
271
     1
  0
XRECORD
  5
20
102
{ACAD_REACTORS
330
1A
102
}
330
1A
100
AcDbXrecord
280
     1
270
     1
271
     1
  0
XRECORD
  5
1D
102
{ACAD_REACTORS
330
1A
102
}
330
1A
100
AcDbXrecord
280
     1
270
     1
271
     1
  0
XRECORD
  5
14
102
{ACAD_REACTORS
330
12
102
}
330
12
100
AcDbXrecord
280
     1
270
     1
271
     1
  0
XRECORD
  5
13
102
{ACAD_REACTORS
330
12
102
}
330
12
100
AcDbXrecord
280
     1
270
     1
271
     1
  0
XRECORD
  5
17
102
{ACAD_REACTORS
330
12
102
}
330
12
100
AcDbXrecord
280
     1
270
     1
271
     1
  0
XRECORD
  5
16
102
{ACAD_REACTORS
330
12
102
}
330
12
100
AcDbXrecord
280
     1
270
     1
271
     1
  0
XRECORD
  5
18
102
{ACAD_REACTORS
330
12
102
}
330
12
100
AcDbXrecord
280
     1
270
     1
271
     1
  0
XRECORD
  5
15
102
{ACAD_REACTORS
330
12
102
}
330
12
100
AcDbXrecord
280
     1
270
     1
271
     1
  0
XRECORD
  5
24
102
{ACAD_REACTORS
330
22
102
}
330
22
100
AcDbXrecord
280
     1
270
     1
271
     1
  0
XRECORD
  5
23
102
{ACAD_REACTORS
330
22
102
}
330
22
100
AcDbXrecord
280
     1
270
     1
271
     1
  0
XRECORD
  5
27
102
{ACAD_REACTORS
330
22
102
}
330
22
100
AcDbXrecord
280
     1
270
     1
271
     1
  0
XRECORD
  5
26
102
{ACAD_REACTORS
330
22
102
}
330
22
100
AcDbXrecord
280
     1
270
     1
271
     1
  0
XRECORD
  5
28
102
{ACAD_REACTORS
330
22
102
}
330
22
100
AcDbXrecord
280
     1
270
     1
271
     1
  0
XRECORD
  5
25
102
{ACAD_REACTORS
330
22
102
}
330
22
100
AcDbXrecord
280
     1
270
     1
271
     1
  0
CELLSTYLEMAP
  5
797
102
{ACAD_REACTORS
330
796
102
}
330
796
100
AcDbCellStyleMap
 90
        3
300
CELLSTYLE
  1
TABLEFORMAT_BEGIN
 90
        5
170
     1
 91
        0
 92
    32768
 62
   257
 93
        1
300
CONTENTFORMAT
  1
CONTENTFORMAT_BEGIN
 90
        0
 91
        0
 92
      512
 93
        0
300

 40
0.0
140
1.0
 94
        5
 62
     0
340
55
144
0.25
309
CONTENTFORMAT_END
171
     0
 94
        0
309
TABLEFORMAT_END
  1
CELLSTYLE_BEGIN
 90
        1
 91
        1
300
_TITLE
309
CELLSTYLE_END
300
CELLSTYLE
  1
TABLEFORMAT_BEGIN
 90
        5
170
     1
 91
        0
 92
        0
 62
   257
 93
        1
300
CONTENTFORMAT
  1
CONTENTFORMAT_BEGIN
 90
        0
 91
        0
 92
      512
 93
        0
300

 40
0.0
140
1.0
 94
        5
 62
     0
340
55
144
0.18
309
CONTENTFORMAT_END
171
     0
 94
        0
309
TABLEFORMAT_END
  1
CELLSTYLE_BEGIN
 90
        2
 91
        1
300
_HEADER
309
CELLSTYLE_END
300
CELLSTYLE
  1
TABLEFORMAT_BEGIN
 90
        5
170
     1
 91
        0
 92
        0
 62
   257
 93
        1
300
CONTENTFORMAT
  1
CONTENTFORMAT_BEGIN
 90
        0
 91
        0
 92
      512
 93
        0
300

 40
0.0
140
1.0
 94
        2
 62
     0
340
55
144
0.18
309
CONTENTFORMAT_END
171
     0
 94
        0
309
TABLEFORMAT_END
  1
CELLSTYLE_BEGIN
 90
        3
 91
        2
300
_DATA
309
CELLSTYLE_END
  0
ENDSEC
  0
EOF
