999
Gearotic export
0
SECTION
2
HEADER
9
$ACADVER
1
AC1006
0
ENDSEC
  0
SECTION
  2
ENTITIES
  0
CIRCLE
  8
0
 62
    13
 10
0.0000000
 20
0.0000000
 30
0.0000000
 40
2.5000000
210
0.0000000
220
0.0000000
230
1.0000000
  0
POLYLINE
  8
0
 62
    13
 66
     1
 70
     1
 10
0.0000000
 20
0.0000000
 30
0.0000000
  0
VERTEX
  8
0
 62
    13
 10
18.7118598
 20
-1.7536219
 30
0.0000000
  0
VERTEX
  8
0
 62
    13
 10
18.9645663
 20
-1.7495946
 30
0.0000000
  0
VERTEX
  8
0
 62
    13
 10
19.2240624
 20
-1.7215738
 30
0.0000000
  0
VERTEX
  8
0
 62
    13
 10
19.4763573
 20
-1.6789177
 30
0.0000000
  0
VERTEX
  8
0
 62
    13
 10
19.7336726
 20
-1.6224474
 30
0.0000000
  0
VERTEX
  8
0
 62
    13
 10
19.9784536
 20
-1.5579284
 30
0.0000000
  0
VERTEX
  8
0
 62
    13
 10
20.2217011
 20
-1.4842047
 30
0.0000000
  0
VERTEX
  8
0
 62
    13
 10
20.4838984
 20
-1.3946399
 30
0.0000000
  0
VERTEX
  8
0
 62
    13
 10
20.7353891
 20
-1.2993265
 30
0.0000000
  0
VERTEX
  8
0
 62
    13
 10
20.9707214
 20
-1.2020713
 30
0.0000000
  0
VERTEX
  8
0
 62
    13
 10
21.2166301
 20
-1.0923115
 30
0.0000000
  0
VERTEX
  8
0
 62
    13
 10
21.4725898
 20
-0.9693854
 30
0.0000000
  0
VERTEX
  8
0
 62
    13
 10
21.7043648
 20
-0.8505193
 30
0.0000000
  0
VERTEX
  8
0
 62
    13
 10
21.9430231
 20
-0.7206640
 30
0.0000000
  0
VERTEX
  8
0
 62
    13
 10
21.9889636
 20
-0.6948003
 30
0.0000000
  0
VERTEX
  8
0
 62
    13
 10
21.9969129
 20
-0.3648172
 30
0.0000000
  0
VERTEX
  8
0
 62
    13
 10
21.9999104
 20
-0.0347520
 30
0.0000000
  0
VERTEX
  8
0
 62
    13
 10
21.9979556
 20
0.2953210
 30
0.0000000
  0
VERTEX
  8
0
 62
    13
 10
21.9910489
 20
0.6253275
 30
0.0000000
  0
VERTEX
  8
0
 62
    13
 10
21.9889636
 20
0.6948003
 30
0.0000000
  0
VERTEX
  8
0
 62
    13
 10
21.7393969
 20
0.8319315
 30
0.0000000
  0
VERTEX
  8
0
 62
    13
 10
21.5078845
 20
0.9517464
 30
0.0000000
  0
VERTEX
  8
0
 62
    13
 10
21.2285651
 20
1.0867755
 30
0.0000000
  0
VERTEX
  8
0
 62
    13
 10
20.9611017
 20
1.2061972
 30
0.0000000
  0
VERTEX
  8
0
 62
    13
 10
20.7061700
 20
1.3108623
 30
0.0000000
  0
VERTEX
  8
0
 62
    13
 10
20.4644047
 20
1.4016481
 30
0.0000000
  0
VERTEX
  8
0
 62
    13
 10
20.1924976
 20
1.4935417
 30
0.0000000
  0
VERTEX
  8
0
 62
    13
 10
19.9413443
 20
1.5683499
 30
0.0000000
  0
VERTEX
  8
0
 62
    13
 10
19.6756945
 20
1.6362271
 30
0.0000000
  0
VERTEX
  8
0
 62
    13
 10
19.4096236
 20
1.6915017
 30
0.0000000
  0
VERTEX
  8
0
 62
    13
 10
19.1599156
 20
1.7301498
 30
0.0000000
  0
VERTEX
  8
0
 62
    13
 10
18.8951416
 20
1.7536787
 30
0.0000000
  0
VERTEX
  8
0
 62
    13
 10
18.7897978
 20
1.7561718
 30
0.0000000
  0
VERTEX
  8
0
 62
    13
 10
18.7118598
 20
1.7536219
 30
0.0000000
  0
VERTEX
  8
0
 62
    13
 10
18.2032868
 20
1.7537099
 30
0.0000000
  0
VERTEX
  8
0
 62
    13
 10
17.9185964
 20
1.8109532
 30
0.0000000
  0
VERTEX
  8
0
 62
    13
 10
17.6726569
 20
1.9367701
 30
0.0000000
  0
VERTEX
  8
0
 62
    13
 10
17.3558131
 20
3.4010160
 30
0.0000000
  0
VERTEX
  8
0
 62
    13
 10
17.4428321
 20
3.6700511
 30
0.0000000
  0
VERTEX
  8
0
 62
    13
 10
17.6424554
 20
3.8429969
 30
0.0000000
  0
VERTEX
  8
0
 62
    13
 10
18.3379352
 20
4.1144892
 30
0.0000000
  0
VERTEX
  8
0
 62
    13
 10
18.5770288
 20
4.1964100
 30
0.0000000
  0
VERTEX
  8
0
 62
    13
 10
18.8151654
 20
4.3032480
 30
0.0000000
  0
VERTEX
  8
0
 62
    13
 10
19.0419306
 20
4.4217798
 30
0.0000000
  0
VERTEX
  8
0
 62
    13
 10
19.2692018
 20
4.5550010
 30
0.0000000
  0
VERTEX
  8
0
 62
    13
 10
19.4820648
 20
4.6920037
 30
0.0000000
  0
VERTEX
  8
0
 62
    13
 10
19.6906250
 20
4.8372867
 30
0.0000000
  0
VERTEX
  8
0
 62
    13
 10
19.9123125
 20
5.0034914
 30
0.0000000
  0
VERTEX
  8
0
 62
    13
 10
20.1220409
 20
5.1718546
 30
0.0000000
  0
VERTEX
  8
0
 62
    13
 10
20.3158018
 20
5.3370715
 30
0.0000000
  0
VERTEX
  8
0
 62
    13
 10
20.5157571
 20
5.5174493
 30
0.0000000
  0
VERTEX
  8
0
 62
    13
 10
20.7212030
 20
5.7134549
 30
0.0000000
  0
VERTEX
  8
0
 62
    13
 10
20.9049025
 20
5.8981257
 30
0.0000000
  0
VERTEX
  8
0
 62
    13
 10
21.0917525
 20
6.0953749
 30
0.0000000
  0
VERTEX
  8
0
 62
    13
 10
21.1274522
 20
6.1341691
 30
0.0000000
  0
VERTEX
  8
0
 62
    13
 10
21.0330420
 20
6.4504581
 30
0.0000000
  0
VERTEX
  8
0
 62
    13
 10
20.9338971
 20
6.7652951
 30
0.0000000
  0
VERTEX
  8
0
 62
    13
 10
20.8300399
 20
7.0786091
 30
0.0000000
  0
VERTEX
  8
0
 62
    13
 10
20.7214935
 20
7.3903296
 30
0.0000000
  0
VERTEX
  8
0
 62
    13
 10
20.6980420
 20
7.4557578
 30
0.0000000
  0
VERTEX
  8
0
 62
    13
 10
20.4183141
 20
7.5090570
 30
0.0000000
  0
VERTEX
  8
0
 62
    13
 10
20.1611079
 20
7.5514664
 30
0.0000000
  0
VERTEX
  8
0
 62
    13
 10
19.8537330
 20
7.5935723
 30
0.0000000
  0
VERTEX
  8
0
 62
    13
 10
19.5624569
 20
7.6244983
 30
0.0000000
  0
VERTEX
  8
0
 62
    13
 10
19.2876592
 20
7.6452625
 30
0.0000000
  0
VERTEX
  8
0
 62
    13
 10
19.0296723
 20
7.6568954
 30
0.0000000
  0
VERTEX
  8
0
 62
    13
 10
18.7887815
 20
7.6604377
 30
0.0000000
  0
VERTEX
  8
0
 62
    13
 10
18.5226103
 20
7.6554866
 30
0.0000000
  0
VERTEX
  8
0
 62
    13
 10
18.2440411
 20
7.6393305
 30
0.0000000
  0
VERTEX
  8
0
 62
    13
 10
17.9682206
 20
7.6107453
 30
0.0000000
  0
VERTEX
  8
0
 62
    13
 10
17.7123868
 20
7.5708870
 30
0.0000000
  0
VERTEX
  8
0
 62
    13
 10
17.4605763
 20
7.5153790
 30
0.0000000
  0
VERTEX
  8
0
 62
    13
 10
16.7704283
 20
7.2930022
 30
0.0000000
  0
VERTEX
  8
0
 62
    13
 10
16.4819826
 20
7.2594696
 30
0.0000000
  0
VERTEX
  8
0
 62
    13
 10
16.2092006
 20
7.3031291
 30
0.0000000
  0
VERTEX
  8
0
 62
    13
 10
15.4553875
 20
8.5977996
 30
0.0000000
  0
VERTEX
  8
0
 62
    13
 10
15.4550109
 20
8.8805575
 30
0.0000000
  0
VERTEX
  8
0
 62
    13
 10
15.5914208
 20
9.1067257
 30
0.0000000
  0
VERTEX
  8
0
 62
    13
 10
16.1689657
 20
9.5798454
 30
0.0000000
  0
VERTEX
  8
0
 62
    13
 10
16.3710423
 20
9.7316407
 30
0.0000000
  0
VERTEX
  8
0
 62
    13
 10
16.5645089
 20
9.9068379
 30
0.0000000
  0
VERTEX
  8
0
 62
    13
 10
16.7435471
 20
10.0896426
 30
0.0000000
  0
VERTEX
  8
0
 62
    13
 10
16.9185272
 20
10.2865742
 30
0.0000000
  0
VERTEX
  8
0
 62
    13
 10
17.0786358
 20
10.4826498
 30
0.0000000
  0
VERTEX
  8
0
 62
    13
 10
17.2320934
 20
10.6852708
 30
0.0000000
  0
VERTEX
  8
0
 62
    13
 10
17.3915707
 20
10.9118461
 30
0.0000000
  0
VERTEX
  8
0
 62
    13
 10
17.5390071
 20
11.1367786
 30
0.0000000
  0
VERTEX
  8
0
 62
    13
 10
17.6722298
 20
11.3537847
 30
0.0000000
  0
VERTEX
  8
0
 62
    13
 10
17.8066589
 20
11.5871237
 30
0.0000000
  0
VERTEX
  8
0
 62
    13
 10
17.9414805
 20
11.8370224
 30
0.0000000
  0
VERTEX
  8
0
 62
    13
 10
18.0591227
 20
12.0694210
 30
0.0000000
  0
VERTEX
  8
0
 62
    13
 10
18.1758743
 20
12.3147560
 30
0.0000000
  0
VERTEX
  8
0
 62
    13
 10
18.1978386
 20
12.3626833
 30
0.0000000
  0
VERTEX
  8
0
 62
    13
 10
18.0103105
 20
12.6343177
 30
0.0000000
  0
VERTEX
  8
0
 62
    13
 10
17.8187281
 20
12.9031079
 30
0.0000000
  0
VERTEX
  8
0
 62
    13
 10
17.6231346
 20
13.1689936
 30
0.0000000
  0
VERTEX
  8
0
 62
    13
 10
17.4235740
 20
13.4319148
 30
0.0000000
  0
VERTEX
  8
0
 62
    13
 10
17.3810519
 20
13.4868937
 30
0.0000000
  0
VERTEX
  8
0
 62
    13
 10
17.0985445
 20
13.4511436
 30
0.0000000
  0
VERTEX
  8
0
 62
    13
 10
16.8408216
 20
13.4119963
 30
0.0000000
  0
VERTEX
  8
0
 62
    13
 10
16.5354793
 20
13.3570574
 30
0.0000000
  0
VERTEX
  8
0
 62
    13
 10
16.2489026
 20
13.2964604
 30
0.0000000
  0
VERTEX
  8
0
 62
    13
 10
15.9811379
 20
13.2312912
 30
0.0000000
  0
VERTEX
  8
0
 62
    13
 10
15.7321831
 20
13.1626324
 30
0.0000000
  0
VERTEX
  8
0
 62
    13
 10
15.4581919
 20
13.0771529
 30
0.0000000
  0
VERTEX
  8
0
 62
    13
 10
15.2110335
 20
12.9900498
 30
0.0000000
  0
VERTEX
  8
0
 62
    13
 10
14.9562211
 20
12.8888186
 30
0.0000000
  0
VERTEX
  8
0
 62
    13
 10
14.7084756
 20
12.7771441
 30
0.0000000
  0
VERTEX
  8
0
 62
    13
 10
14.4837408
 20
12.6616364
 30
0.0000000
  0
VERTEX
  8
0
 62
    13
 10
14.2557042
 20
12.5250414
 30
0.0000000
  0
VERTEX
  8
0
 62
    13
 10
13.6959636
 20
12.1184046
 30
0.0000000
  0
VERTEX
  8
0
 62
    13
 10
13.4319975
 20
11.9973786
 30
0.0000000
  0
VERTEX
  8
0
 62
    13
 10
13.2217731
 20
11.9543457
 30
0.0000000
  0
VERTEX
  8
0
 62
    13
 10
12.9529708
 20
12.0420807
 30
0.0000000
  0
VERTEX
  8
0
 62
    13
 10
12.0420808
 20
12.9529707
 30
0.0000000
  0
VERTEX
  8
0
 62
    13
 10
11.9543457
 20
13.2217732
 30
0.0000000
  0
VERTEX
  8
0
 62
    13
 10
12.0141893
 20
13.4790249
 30
0.0000000
  0
VERTEX
  8
0
 62
    13
 10
12.4172651
 20
14.1074596
 30
0.0000000
  0
VERTEX
  8
0
 62
    13
 10
12.5625442
 20
14.3142706
 30
0.0000000
  0
VERTEX
  8
0
 62
    13
 10
12.6924028
 20
14.5406775
 30
0.0000000
  0
VERTEX
  8
0
 62
    13
 10
12.8061885
 20
14.7698610
 30
0.0000000
  0
VERTEX
  8
0
 62
    13
 10
12.9117493
 20
15.0112258
 30
0.0000000
  0
VERTEX
  8
0
 62
    13
 10
13.0034309
 20
15.2471811
 30
0.0000000
  0
VERTEX
  8
0
 62
    13
 10
13.0867645
 20
15.4873062
 30
0.0000000
  0
VERTEX
  8
0
 62
    13
 10
13.1684208
 20
15.7520732
 30
0.0000000
  0
VERTEX
  8
0
 62
    13
 10
13.2391331
 20
16.0115571
 30
0.0000000
  0
VERTEX
  8
0
 62
    13
 10
13.2987769
 20
16.2591102
 30
0.0000000
  0
VERTEX
  8
0
 62
    13
 10
13.3545209
 20
16.5225697
 30
0.0000000
  0
VERTEX
  8
0
 62
    13
 10
13.4055208
 20
16.8018996
 30
0.0000000
  0
VERTEX
  8
0
 62
    13
 10
13.4455901
 20
17.0592773
 30
0.0000000
  0
VERTEX
  8
0
 62
    13
 10
13.4808148
 20
17.3286829
 30
0.0000000
  0
VERTEX
  8
0
 62
    13
 10
13.4868937
 20
17.3810519
 30
0.0000000
  0
VERTEX
  8
0
 62
    13
 10
13.2246043
 20
17.5814422
 30
0.0000000
  0
VERTEX
  8
0
 62
    13
 10
12.9593379
 20
17.7778747
 30
0.0000000
  0
VERTEX
  8
0
 62
    13
 10
12.6911542
 20
17.9703053
 30
0.0000000
  0
VERTEX
  8
0
 62
    13
 10
12.4201137
 20
18.1586906
 30
0.0000000
  0
VERTEX
  8
0
 62
    13
 10
12.3626833
 20
18.1978386
 30
0.0000000
  0
VERTEX
  8
0
 62
    13
 10
12.1050502
 20
18.0765386
 30
0.0000000
  0
VERTEX
  8
0
 62
    13
 10
11.8720383
 20
17.9596666
 30
0.0000000
  0
VERTEX
  8
0
 62
    13
 10
11.5986176
 20
17.8130606
 30
0.0000000
  0
VERTEX
  8
0
 62
    13
 10
11.3447925
 20
17.6668724
 30
0.0000000
  0
VERTEX
  8
0
 62
    13
 10
11.1102715
 20
17.5221489
 30
0.0000000
  0
VERTEX
  8
0
 62
    13
 10
10.8947181
 20
17.3799192
 30
0.0000000
  0
VERTEX
  8
0
 62
    13
 10
10.6605516
 20
17.2139555
 30
0.0000000
  0
VERTEX
  8
0
 62
    13
 10
10.4524064
 20
17.0547394
 30
0.0000000
  0
VERTEX
  8
0
 62
    13
 10
10.2413476
 20
16.8797214
 30
0.0000000
  0
VERTEX
  8
0
 62
    13
 10
10.0402369
 20
16.6969551
 30
0.0000000
  0
VERTEX
  8
0
 62
    13
 10
9.8621953
 20
16.5176539
 30
0.0000000
  0
VERTEX
  8
0
 62
    13
 10
9.6875297
 20
16.3172771
 30
0.0000000
  0
VERTEX
  8
0
 62
    13
 10
9.2808424
 20
15.7575731
 30
0.0000000
  0
VERTEX
  8
0
 62
    13
 10
9.0671949
 20
15.5609006
 30
0.0000000
  0
VERTEX
  8
0
 62
    13
 10
8.8208472
 20
15.4358846
 30
0.0000000
  0
VERTEX
  8
0
 62
    13
 10
8.7478457
 20
15.4241879
 30
0.0000000
  0
VERTEX
  8
0
 62
    13
 10
7.4500113
 20
16.0402148
 30
0.0000000
  0
VERTEX
  8
0
 62
    13
 10
7.2835057
 20
16.2687495
 30
0.0000000
  0
VERTEX
  8
0
 62
    13
 10
7.2609253
 20
16.5319031
 30
0.0000000
  0
VERTEX
  8
0
 62
    13
 10
7.4500762
 20
17.2541373
 30
0.0000000
  0
VERTEX
  8
0
 62
    13
 10
7.5243366
 20
17.4957199
 30
0.0000000
  0
VERTEX
  8
0
 62
    13
 10
7.5778759
 20
17.7511743
 30
0.0000000
  0
VERTEX
  8
0
 62
    13
 10
7.6152710
 20
18.0043024
 30
0.0000000
  0
VERTEX
  8
0
 62
    13
 10
7.6410794
 20
18.2664741
 30
0.0000000
  0
VERTEX
  8
0
 62
    13
 10
7.6553596
 20
18.5192121
 30
0.0000000
  0
VERTEX
  8
0
 62
    13
 10
7.6604118
 20
18.7733361
 30
0.0000000
  0
VERTEX
  8
0
 62
    13
 10
7.6562541
 20
19.0503777
 30
0.0000000
  0
VERTEX
  8
0
 62
    13
 10
7.6433206
 20
19.3190129
 30
0.0000000
  0
VERTEX
  8
0
 62
    13
 10
7.6235471
 20
19.5728808
 30
0.0000000
  0
VERTEX
  8
0
 62
    13
 10
7.5951493
 20
19.8406715
 30
0.0000000
  0
VERTEX
  8
0
 62
    13
 10
7.5573354
 20
20.1220899
 30
0.0000000
  0
VERTEX
  8
0
 62
    13
 10
7.5159095
 20
20.3792527
 30
0.0000000
  0
VERTEX
  8
0
 62
    13
 10
7.4661592
 20
20.6463577
 30
0.0000000
  0
VERTEX
  8
0
 62
    13
 10
7.4557578
 20
20.6980420
 30
0.0000000
  0
VERTEX
  8
0
 62
    13
 10
7.1443817
 20
20.8075726
 30
0.0000000
  0
VERTEX
  8
0
 62
    13
 10
6.8313973
 20
20.9124192
 30
0.0000000
  0
VERTEX
  8
0
 62
    13
 10
6.5168752
 20
21.0125583
 30
0.0000000
  0
VERTEX
  8
0
 62
    13
 10
6.2008860
 20
21.1079672
 30
0.0000000
  0
VERTEX
  8
0
 62
    13
 10
6.1341691
 20
21.1274522
 30
0.0000000
  0
VERTEX
  8
0
 62
    13
 10
5.9266292
 20
20.9324761
 30
0.0000000
  0
VERTEX
  8
0
 62
    13
 10
5.7411372
 20
20.7493195
 30
0.0000000
  0
VERTEX
  8
0
 62
    13
 10
5.5264024
 20
20.5253973
 30
0.0000000
  0
VERTEX
  8
0
 62
    13
 10
5.3301750
 20
20.3079278
 30
0.0000000
  0
VERTEX
  8
0
 62
    13
 10
5.1518543
 20
20.0978166
 30
0.0000000
  0
VERTEX
  8
0
 62
    13
 10
4.9908022
 20
19.8959385
 30
0.0000000
  0
VERTEX
  8
0
 62
    13
 10
4.8193823
 20
19.6657362
 30
0.0000000
  0
VERTEX
  8
0
 62
    13
 10
4.6706249
 20
19.4499922
 30
0.0000000
  0
VERTEX
  8
0
 62
    13
 10
4.5239796
 20
19.2183195
 30
0.0000000
  0
VERTEX
  8
0
 62
    13
 10
4.3891898
 20
18.9823517
 30
0.0000000
  0
VERTEX
  8
0
 62
    13
 10
4.2752693
 20
18.7568083
 30
0.0000000
  0
VERTEX
  8
0
 62
    13
 10
4.1710723
 20
18.5122641
 30
0.0000000
  0
VERTEX
  8
0
 62
    13
 10
3.9572478
 20
17.8542806
 30
0.0000000
  0
VERTEX
  8
0
 62
    13
 10
3.8148320
 20
17.6012132
 30
0.0000000
  0
VERTEX
  8
0
 62
    13
 10
3.6191735
 20
17.4061904
 30
0.0000000
  0
VERTEX
  8
0
 62
    13
 10
3.4010160
 20
17.3558131
 30
0.0000000
  0
VERTEX
  8
0
 62
    13
 10
2.1286828
 20
17.5573309
 30
0.0000000
  0
VERTEX
  8
0
 62
    13
 10
1.8997055
 20
17.7232273
 30
0.0000000
  0
VERTEX
  8
0
 62
    13
 10
1.7969113
 20
17.9665235
 30
0.0000000
  0
VERTEX
  8
0
 62
    13
 10
1.7536219
 20
18.7118598
 30
0.0000000
  0
VERTEX
  8
0
 62
    13
 10
1.7495946
 20
18.9645663
 30
0.0000000
  0
VERTEX
  8
0
 62
    13
 10
1.7215738
 20
19.2240624
 30
0.0000000
  0
VERTEX
  8
0
 62
    13
 10
1.6789177
 20
19.4763573
 30
0.0000000
  0
VERTEX
  8
0
 62
    13
 10
1.6224474
 20
19.7336726
 30
0.0000000
  0
VERTEX
  8
0
 62
    13
 10
1.5579284
 20
19.9784536
 30
0.0000000
  0
VERTEX
  8
0
 62
    13
 10
1.4842047
 20
20.2217011
 30
0.0000000
  0
VERTEX
  8
0
 62
    13
 10
1.3946399
 20
20.4838984
 30
0.0000000
  0
VERTEX
  8
0
 62
    13
 10
1.2993265
 20
20.7353891
 30
0.0000000
  0
VERTEX
  8
0
 62
    13
 10
1.2020713
 20
20.9707214
 30
0.0000000
  0
VERTEX
  8
0
 62
    13
 10
1.0923115
 20
21.2166301
 30
0.0000000
  0
VERTEX
  8
0
 62
    13
 10
0.9693854
 20
21.4725898
 30
0.0000000
  0
VERTEX
  8
0
 62
    13
 10
0.8505193
 20
21.7043648
 30
0.0000000
  0
VERTEX
  8
0
 62
    13
 10
0.7206640
 20
21.9430231
 30
0.0000000
  0
VERTEX
  8
0
 62
    13
 10
0.6948003
 20
21.9889636
 30
0.0000000
  0
VERTEX
  8
0
 62
    13
 10
0.3648172
 20
21.9969129
 30
0.0000000
  0
VERTEX
  8
0
 62
    13
 10
0.0347520
 20
21.9999104
 30
0.0000000
  0
VERTEX
  8
0
 62
    13
 10
-0.2953210
 20
21.9979556
 30
0.0000000
  0
VERTEX
  8
0
 62
    13
 10
-0.6253275
 20
21.9910489
 30
0.0000000
  0
VERTEX
  8
0
 62
    13
 10
-0.6948003
 20
21.9889636
 30
0.0000000
  0
VERTEX
  8
0
 62
    13
 10
-0.8319315
 20
21.7393969
 30
0.0000000
  0
VERTEX
  8
0
 62
    13
 10
-0.9517464
 20
21.5078845
 30
0.0000000
  0
VERTEX
  8
0
 62
    13
 10
-1.0867755
 20
21.2285651
 30
0.0000000
  0
VERTEX
  8
0
 62
    13
 10
-1.2061972
 20
20.9611017
 30
0.0000000
  0
VERTEX
  8
0
 62
    13
 10
-1.3108623
 20
20.7061700
 30
0.0000000
  0
VERTEX
  8
0
 62
    13
 10
-1.4016481
 20
20.4644047
 30
0.0000000
  0
VERTEX
  8
0
 62
    13
 10
-1.4935417
 20
20.1924976
 30
0.0000000
  0
VERTEX
  8
0
 62
    13
 10
-1.5683499
 20
19.9413443
 30
0.0000000
  0
VERTEX
  8
0
 62
    13
 10
-1.6362271
 20
19.6756945
 30
0.0000000
  0
VERTEX
  8
0
 62
    13
 10
-1.6915017
 20
19.4096236
 30
0.0000000
  0
VERTEX
  8
0
 62
    13
 10
-1.7301498
 20
19.1599156
 30
0.0000000
  0
VERTEX
  8
0
 62
    13
 10
-1.7536787
 20
18.8951416
 30
0.0000000
  0
VERTEX
  8
0
 62
    13
 10
-1.7537099
 20
18.2032868
 30
0.0000000
  0
VERTEX
  8
0
 62
    13
 10
-1.8109532
 20
17.9185964
 30
0.0000000
  0
VERTEX
  8
0
 62
    13
 10
-1.9367701
 20
17.6726569
 30
0.0000000
  0
VERTEX
  8
0
 62
    13
 10
-3.4010160
 20
17.3558131
 30
0.0000000
  0
VERTEX
  8
0
 62
    13
 10
-3.6700511
 20
17.4428321
 30
0.0000000
  0
VERTEX
  8
0
 62
    13
 10
-3.8429969
 20
17.6424554
 30
0.0000000
  0
VERTEX
  8
0
 62
    13
 10
-4.1144892
 20
18.3379352
 30
0.0000000
  0
VERTEX
  8
0
 62
    13
 10
-4.1964100
 20
18.5770288
 30
0.0000000
  0
VERTEX
  8
0
 62
    13
 10
-4.3032480
 20
18.8151654
 30
0.0000000
  0
VERTEX
  8
0
 62
    13
 10
-4.4217798
 20
19.0419306
 30
0.0000000
  0
VERTEX
  8
0
 62
    13
 10
-4.5550010
 20
19.2692018
 30
0.0000000
  0
VERTEX
  8
0
 62
    13
 10
-4.6920037
 20
19.4820648
 30
0.0000000
  0
VERTEX
  8
0
 62
    13
 10
-4.8372867
 20
19.6906250
 30
0.0000000
  0
VERTEX
  8
0
 62
    13
 10
-5.0034914
 20
19.9123125
 30
0.0000000
  0
VERTEX
  8
0
 62
    13
 10
-5.1718546
 20
20.1220409
 30
0.0000000
  0
VERTEX
  8
0
 62
    13
 10
-5.3370715
 20
20.3158018
 30
0.0000000
  0
VERTEX
  8
0
 62
    13
 10
-5.5174493
 20
20.5157571
 30
0.0000000
  0
VERTEX
  8
0
 62
    13
 10
-5.7134549
 20
20.7212030
 30
0.0000000
  0
VERTEX
  8
0
 62
    13
 10
-5.8981257
 20
20.9049025
 30
0.0000000
  0
VERTEX
  8
0
 62
    13
 10
-6.0953749
 20
21.0917525
 30
0.0000000
  0
VERTEX
  8
0
 62
    13
 10
-6.1341691
 20
21.1274522
 30
0.0000000
  0
VERTEX
  8
0
 62
    13
 10
-6.4504581
 20
21.0330420
 30
0.0000000
  0
VERTEX
  8
0
 62
    13
 10
-6.7652951
 20
20.9338971
 30
0.0000000
  0
VERTEX
  8
0
 62
    13
 10
-7.0786091
 20
20.8300399
 30
0.0000000
  0
VERTEX
  8
0
 62
    13
 10
-7.3903296
 20
20.7214935
 30
0.0000000
  0
VERTEX
  8
0
 62
    13
 10
-7.4557578
 20
20.6980420
 30
0.0000000
  0
VERTEX
  8
0
 62
    13
 10
-7.5090570
 20
20.4183141
 30
0.0000000
  0
VERTEX
  8
0
 62
    13
 10
-7.5514664
 20
20.1611079
 30
0.0000000
  0
VERTEX
  8
0
 62
    13
 10
-7.5935723
 20
19.8537330
 30
0.0000000
  0
VERTEX
  8
0
 62
    13
 10
-7.6244983
 20
19.5624569
 30
0.0000000
  0
VERTEX
  8
0
 62
    13
 10
-7.6452625
 20
19.2876592
 30
0.0000000
  0
VERTEX
  8
0
 62
    13
 10
-7.6568954
 20
19.0296723
 30
0.0000000
  0
VERTEX
  8
0
 62
    13
 10
-7.6602675
 20
18.7426766
 30
0.0000000
  0
VERTEX
  8
0
 62
    13
 10
-7.6538036
 20
18.4806987
 30
0.0000000
  0
VERTEX
  8
0
 62
    13
 10
-7.6362684
 20
18.2070755
 30
0.0000000
  0
VERTEX
  8
0
 62
    13
 10
-7.6066172
 20
17.9369462
 30
0.0000000
  0
VERTEX
  8
0
 62
    13
 10
-7.5662098
 20
17.6875169
 30
0.0000000
  0
VERTEX
  8
0
 62
    13
 10
-7.5067674
 20
17.4284310
 30
0.0000000
  0
VERTEX
  8
0
 62
    13
 10
-7.2930022
 20
16.7704283
 30
0.0000000
  0
VERTEX
  8
0
 62
    13
 10
-7.2594696
 20
16.4819826
 30
0.0000000
  0
VERTEX
  8
0
 62
    13
 10
-7.3031291
 20
16.2092006
 30
0.0000000
  0
VERTEX
  8
0
 62
    13
 10
-8.5977996
 20
15.4553875
 30
0.0000000
  0
VERTEX
  8
0
 62
    13
 10
-8.7478457
 20
15.4241879
 30
0.0000000
  0
VERTEX
  8
0
 62
    13
 10
-9.0254609
 20
15.5316381
 30
0.0000000
  0
VERTEX
  8
0
 62
    13
 10
-9.2485591
 20
15.7228711
 30
0.0000000
  0
VERTEX
  8
0
 62
    13
 10
-9.5798454
 20
16.1689657
 30
0.0000000
  0
VERTEX
  8
0
 62
    13
 10
-9.7316407
 20
16.3710423
 30
0.0000000
  0
VERTEX
  8
0
 62
    13
 10
-9.9068379
 20
16.5645089
 30
0.0000000
  0
VERTEX
  8
0
 62
    13
 10
-10.0896426
 20
16.7435471
 30
0.0000000
  0
VERTEX
  8
0
 62
    13
 10
-10.2865742
 20
16.9185272
 30
0.0000000
  0
VERTEX
  8
0
 62
    13
 10
-10.4826498
 20
17.0786358
 30
0.0000000
  0
VERTEX
  8
0
 62
    13
 10
-10.6852708
 20
17.2320934
 30
0.0000000
  0
VERTEX
  8
0
 62
    13
 10
-10.9118461
 20
17.3915707
 30
0.0000000
  0
VERTEX
  8
0
 62
    13
 10
-11.1367786
 20
17.5390071
 30
0.0000000
  0
VERTEX
  8
0
 62
    13
 10
-11.3537847
 20
17.6722298
 30
0.0000000
  0
VERTEX
  8
0
 62
    13
 10
-11.5871237
 20
17.8066589
 30
0.0000000
  0
VERTEX
  8
0
 62
    13
 10
-11.8370224
 20
17.9414805
 30
0.0000000
  0
VERTEX
  8
0
 62
    13
 10
-12.0694210
 20
18.0591227
 30
0.0000000
  0
VERTEX
  8
0
 62
    13
 10
-12.3147560
 20
18.1758743
 30
0.0000000
  0
VERTEX
  8
0
 62
    13
 10
-12.3626833
 20
18.1978386
 30
0.0000000
  0
VERTEX
  8
0
 62
    13
 10
-12.6343177
 20
18.0103105
 30
0.0000000
  0
VERTEX
  8
0
 62
    13
 10
-12.9031079
 20
17.8187281
 30
0.0000000
  0
VERTEX
  8
0
 62
    13
 10
-13.1689936
 20
17.6231346
 30
0.0000000
  0
VERTEX
  8
0
 62
    13
 10
-13.4319148
 20
17.4235740
 30
0.0000000
  0
VERTEX
  8
0
 62
    13
 10
-13.4868937
 20
17.3810519
 30
0.0000000
  0
VERTEX
  8
0
 62
    13
 10
-13.4511436
 20
17.0985445
 30
0.0000000
  0
VERTEX
  8
0
 62
    13
 10
-13.4119963
 20
16.8408216
 30
0.0000000
  0
VERTEX
  8
0
 62
    13
 10
-13.3570574
 20
16.5354793
 30
0.0000000
  0
VERTEX
  8
0
 62
    13
 10
-13.2964604
 20
16.2489026
 30
0.0000000
  0
VERTEX
  8
0
 62
    13
 10
-13.2312912
 20
15.9811379
 30
0.0000000
  0
VERTEX
  8
0
 62
    13
 10
-13.1626324
 20
15.7321831
 30
0.0000000
  0
VERTEX
  8
0
 62
    13
 10
-13.0771529
 20
15.4581919
 30
0.0000000
  0
VERTEX
  8
0
 62
    13
 10
-12.9900498
 20
15.2110335
 30
0.0000000
  0
VERTEX
  8
0
 62
    13
 10
-12.8888186
 20
14.9562211
 30
0.0000000
  0
VERTEX
  8
0
 62
    13
 10
-12.7771441
 20
14.7084756
 30
0.0000000
  0
VERTEX
  8
0
 62
    13
 10
-12.6616364
 20
14.4837408
 30
0.0000000
  0
VERTEX
  8
0
 62
    13
 10
-12.5250414
 20
14.2557042
 30
0.0000000
  0
VERTEX
  8
0
 62
    13
 10
-12.1184046
 20
13.6959635
 30
0.0000000
  0
VERTEX
  8
0
 62
    13
 10
-11.9973786
 20
13.4319975
 30
0.0000000
  0
VERTEX
  8
0
 62
    13
 10
-11.9546070
 20
13.1590749
 30
0.0000000
  0
VERTEX
  8
0
 62
    13
 10
-12.9529707
 20
12.0420808
 30
0.0000000
  0
VERTEX
  8
0
 62
    13
 10
-13.2217732
 20
11.9543457
 30
0.0000000
  0
VERTEX
  8
0
 62
    13
 10
-13.4790249
 20
12.0141893
 30
0.0000000
  0
VERTEX
  8
0
 62
    13
 10
-14.1074596
 20
12.4172651
 30
0.0000000
  0
VERTEX
  8
0
 62
    13
 10
-14.3142706
 20
12.5625442
 30
0.0000000
  0
VERTEX
  8
0
 62
    13
 10
-14.5406775
 20
12.6924028
 30
0.0000000
  0
VERTEX
  8
0
 62
    13
 10
-14.7698610
 20
12.8061885
 30
0.0000000
  0
VERTEX
  8
0
 62
    13
 10
-15.0112258
 20
12.9117493
 30
0.0000000
  0
VERTEX
  8
0
 62
    13
 10
-15.2471811
 20
13.0034309
 30
0.0000000
  0
VERTEX
  8
0
 62
    13
 10
-15.4873062
 20
13.0867645
 30
0.0000000
  0
VERTEX
  8
0
 62
    13
 10
-15.7520732
 20
13.1684208
 30
0.0000000
  0
VERTEX
  8
0
 62
    13
 10
-16.0115571
 20
13.2391331
 30
0.0000000
  0
VERTEX
  8
0
 62
    13
 10
-16.2591102
 20
13.2987769
 30
0.0000000
  0
VERTEX
  8
0
 62
    13
 10
-16.5225697
 20
13.3545209
 30
0.0000000
  0
VERTEX
  8
0
 62
    13
 10
-16.8018996
 20
13.4055208
 30
0.0000000
  0
VERTEX
  8
0
 62
    13
 10
-17.0592773
 20
13.4455901
 30
0.0000000
  0
VERTEX
  8
0
 62
    13
 10
-17.3286829
 20
13.4808148
 30
0.0000000
  0
VERTEX
  8
0
 62
    13
 10
-17.3810519
 20
13.4868937
 30
0.0000000
  0
VERTEX
  8
0
 62
    13
 10
-17.5814422
 20
13.2246043
 30
0.0000000
  0
VERTEX
  8
0
 62
    13
 10
-17.7778747
 20
12.9593379
 30
0.0000000
  0
VERTEX
  8
0
 62
    13
 10
-17.9703053
 20
12.6911542
 30
0.0000000
  0
VERTEX
  8
0
 62
    13
 10
-18.1586906
 20
12.4201137
 30
0.0000000
  0
VERTEX
  8
0
 62
    13
 10
-18.1978386
 20
12.3626833
 30
0.0000000
  0
VERTEX
  8
0
 62
    13
 10
-18.0765386
 20
12.1050502
 30
0.0000000
  0
VERTEX
  8
0
 62
    13
 10
-17.9596666
 20
11.8720383
 30
0.0000000
  0
VERTEX
  8
0
 62
    13
 10
-17.8130606
 20
11.5986176
 30
0.0000000
  0
VERTEX
  8
0
 62
    13
 10
-17.6668724
 20
11.3447924
 30
0.0000000
  0
VERTEX
  8
0
 62
    13
 10
-17.5221489
 20
11.1102715
 30
0.0000000
  0
VERTEX
  8
0
 62
    13
 10
-17.3799192
 20
10.8947181
 30
0.0000000
  0
VERTEX
  8
0
 62
    13
 10
-17.2139555
 20
10.6605516
 30
0.0000000
  0
VERTEX
  8
0
 62
    13
 10
-17.0547394
 20
10.4524064
 30
0.0000000
  0
VERTEX
  8
0
 62
    13
 10
-16.8797214
 20
10.2413476
 30
0.0000000
  0
VERTEX
  8
0
 62
    13
 10
-16.6969551
 20
10.0402369
 30
0.0000000
  0
VERTEX
  8
0
 62
    13
 10
-16.5176539
 20
9.8621953
 30
0.0000000
  0
VERTEX
  8
0
 62
    13
 10
-16.3172771
 20
9.6875297
 30
0.0000000
  0
VERTEX
  8
0
 62
    13
 10
-15.7575731
 20
9.2808424
 30
0.0000000
  0
VERTEX
  8
0
 62
    13
 10
-15.5609006
 20
9.0671949
 30
0.0000000
  0
VERTEX
  8
0
 62
    13
 10
-15.4358846
 20
8.8208472
 30
0.0000000
  0
VERTEX
  8
0
 62
    13
 10
-16.0402148
 20
7.4500113
 30
0.0000000
  0
VERTEX
  8
0
 62
    13
 10
-16.2687495
 20
7.2835057
 30
0.0000000
  0
VERTEX
  8
0
 62
    13
 10
-16.4819826
 20
7.2594696
 30
0.0000000
  0
VERTEX
  8
0
 62
    13
 10
-16.7704283
 20
7.2930022
 30
0.0000000
  0
VERTEX
  8
0
 62
    13
 10
-17.2541373
 20
7.4500762
 30
0.0000000
  0
VERTEX
  8
0
 62
    13
 10
-17.4957199
 20
7.5243366
 30
0.0000000
  0
VERTEX
  8
0
 62
    13
 10
-17.7511743
 20
7.5778759
 30
0.0000000
  0
VERTEX
  8
0
 62
    13
 10
-18.0043024
 20
7.6152710
 30
0.0000000
  0
VERTEX
  8
0
 62
    13
 10
-18.2664741
 20
7.6410794
 30
0.0000000
  0
VERTEX
  8
0
 62
    13
 10
-18.5192121
 20
7.6553596
 30
0.0000000
  0
VERTEX
  8
0
 62
    13
 10
-18.7733361
 20
7.6604118
 30
0.0000000
  0
VERTEX
  8
0
 62
    13
 10
-18.8000143
 20
7.6604369
 30
0.0000000
  0
VERTEX
  8
0
 62
    13
 10
-19.0503777
 20
7.6562541
 30
0.0000000
  0
VERTEX
  8
0
 62
    13
 10
-19.3190129
 20
7.6433206
 30
0.0000000
  0
VERTEX
  8
0
 62
    13
 10
-19.5728808
 20
7.6235471
 30
0.0000000
  0
VERTEX
  8
0
 62
    13
 10
-19.8406715
 20
7.5951493
 30
0.0000000
  0
VERTEX
  8
0
 62
    13
 10
-20.1220899
 20
7.5573354
 30
0.0000000
  0
VERTEX
  8
0
 62
    13
 10
-20.3792527
 20
7.5159095
 30
0.0000000
  0
VERTEX
  8
0
 62
    13
 10
-20.6463577
 20
7.4661592
 30
0.0000000
  0
VERTEX
  8
0
 62
    13
 10
-20.6980420
 20
7.4557578
 30
0.0000000
  0
VERTEX
  8
0
 62
    13
 10
-20.8075726
 20
7.1443817
 30
0.0000000
  0
VERTEX
  8
0
 62
    13
 10
-20.9124192
 20
6.8313973
 30
0.0000000
  0
VERTEX
  8
0
 62
    13
 10
-21.0125583
 20
6.5168752
 30
0.0000000
  0
VERTEX
  8
0
 62
    13
 10
-21.1079672
 20
6.2008860
 30
0.0000000
  0
VERTEX
  8
0
 62
    13
 10
-21.1274522
 20
6.1341691
 30
0.0000000
  0
VERTEX
  8
0
 62
    13
 10
-20.9324761
 20
5.9266292
 30
0.0000000
  0
VERTEX
  8
0
 62
    13
 10
-20.7493195
 20
5.7411372
 30
0.0000000
  0
VERTEX
  8
0
 62
    13
 10
-20.5253973
 20
5.5264024
 30
0.0000000
  0
VERTEX
  8
0
 62
    13
 10
-20.3079278
 20
5.3301750
 30
0.0000000
  0
VERTEX
  8
0
 62
    13
 10
-20.0978166
 20
5.1518543
 30
0.0000000
  0
VERTEX
  8
0
 62
    13
 10
-19.8959385
 20
4.9908022
 30
0.0000000
  0
VERTEX
  8
0
 62
    13
 10
-19.6657362
 20
4.8193823
 30
0.0000000
  0
VERTEX
  8
0
 62
    13
 10
-19.4499922
 20
4.6706249
 30
0.0000000
  0
VERTEX
  8
0
 62
    13
 10
-19.2183195
 20
4.5239796
 30
0.0000000
  0
VERTEX
  8
0
 62
    13
 10
-18.9823517
 20
4.3891898
 30
0.0000000
  0
VERTEX
  8
0
 62
    13
 10
-18.7568083
 20
4.2752693
 30
0.0000000
  0
VERTEX
  8
0
 62
    13
 10
-18.5122641
 20
4.1710723
 30
0.0000000
  0
VERTEX
  8
0
 62
    13
 10
-17.8542806
 20
3.9572478
 30
0.0000000
  0
VERTEX
  8
0
 62
    13
 10
-17.6012132
 20
3.8148320
 30
0.0000000
  0
VERTEX
  8
0
 62
    13
 10
-17.4061904
 20
3.6191735
 30
0.0000000
  0
VERTEX
  8
0
 62
    13
 10
-17.5573309
 20
2.1286828
 30
0.0000000
  0
VERTEX
  8
0
 62
    13
 10
-17.7232273
 20
1.8997055
 30
0.0000000
  0
VERTEX
  8
0
 62
    13
 10
-17.9665235
 20
1.7969113
 30
0.0000000
  0
VERTEX
  8
0
 62
    13
 10
-18.7118598
 20
1.7536219
 30
0.0000000
  0
VERTEX
  8
0
 62
    13
 10
-18.7952697
 20
1.7561759
 30
0.0000000
  0
VERTEX
  8
0
 62
    13
 10
-19.0452355
 20
1.7428742
 30
0.0000000
  0
VERTEX
  8
0
 62
    13
 10
-19.3027532
 20
1.7097403
 30
0.0000000
  0
VERTEX
  8
0
 62
    13
 10
-19.5517687
 20
1.6636447
 30
0.0000000
  0
VERTEX
  8
0
 62
    13
 10
-19.7980125
 20
1.6064682
 30
0.0000000
  0
VERTEX
  8
0
 62
    13
 10
-20.0493914
 20
1.5373896
 30
0.0000000
  0
VERTEX
  8
0
 62
    13
 10
-20.2984071
 20
1.4590632
 30
0.0000000
  0
VERTEX
  8
0
 62
    13
 10
-20.5385397
 20
1.3747018
 30
0.0000000
  0
VERTEX
  8
0
 62
    13
 10
-20.7932030
 20
1.2761481
 30
0.0000000
  0
VERTEX
  8
0
 62
    13
 10
-21.0312271
 20
1.1758299
 30
0.0000000
  0
VERTEX
  8
0
 62
    13
 10
-21.2796989
 20
1.0628398
 30
0.0000000
  0
VERTEX
  8
0
 62
    13
 10
-21.5052642
 20
0.9530616
 30
0.0000000
  0
VERTEX
  8
0
 62
    13
 10
-21.7380467
 20
0.8326509
 30
0.0000000
  0
VERTEX
  8
0
 62
    13
 10
-21.9776556
 20
0.7011924
 30
0.0000000
  0
VERTEX
  8
0
 62
    13
 10
-21.9889636
 20
0.6948003
 30
0.0000000
  0
VERTEX
  8
0
 62
    13
 10
-21.9969129
 20
0.3648172
 30
0.0000000
  0
VERTEX
  8
0
 62
    13
 10
-21.9999104
 20
0.0347520
 30
0.0000000
  0
VERTEX
  8
0
 62
    13
 10
-21.9979556
 20
-0.2953210
 30
0.0000000
  0
VERTEX
  8
0
 62
    13
 10
-21.9910489
 20
-0.6253275
 30
0.0000000
  0
VERTEX
  8
0
 62
    13
 10
-21.9889636
 20
-0.6948003
 30
0.0000000
  0
VERTEX
  8
0
 62
    13
 10
-21.7393969
 20
-0.8319315
 30
0.0000000
  0
VERTEX
  8
0
 62
    13
 10
-21.5078845
 20
-0.9517464
 30
0.0000000
  0
VERTEX
  8
0
 62
    13
 10
-21.2285651
 20
-1.0867755
 30
0.0000000
  0
VERTEX
  8
0
 62
    13
 10
-20.9611017
 20
-1.2061972
 30
0.0000000
  0
VERTEX
  8
0
 62
    13
 10
-20.7061700
 20
-1.3108623
 30
0.0000000
  0
VERTEX
  8
0
 62
    13
 10
-20.4644047
 20
-1.4016481
 30
0.0000000
  0
VERTEX
  8
0
 62
    13
 10
-20.1924976
 20
-1.4935417
 30
0.0000000
  0
VERTEX
  8
0
 62
    13
 10
-19.9413443
 20
-1.5683499
 30
0.0000000
  0
VERTEX
  8
0
 62
    13
 10
-19.6756945
 20
-1.6362271
 30
0.0000000
  0
VERTEX
  8
0
 62
    13
 10
-19.4096236
 20
-1.6915017
 30
0.0000000
  0
VERTEX
  8
0
 62
    13
 10
-19.1599156
 20
-1.7301498
 30
0.0000000
  0
VERTEX
  8
0
 62
    13
 10
-18.8951416
 20
-1.7536787
 30
0.0000000
  0
VERTEX
  8
0
 62
    13
 10
-18.2032868
 20
-1.7537099
 30
0.0000000
  0
VERTEX
  8
0
 62
    13
 10
-17.9185964
 20
-1.8109532
 30
0.0000000
  0
VERTEX
  8
0
 62
    13
 10
-17.6726569
 20
-1.9367701
 30
0.0000000
  0
VERTEX
  8
0
 62
    13
 10
-17.3558131
 20
-3.4010160
 30
0.0000000
  0
VERTEX
  8
0
 62
    13
 10
-17.4428321
 20
-3.6700511
 30
0.0000000
  0
VERTEX
  8
0
 62
    13
 10
-17.6424554
 20
-3.8429969
 30
0.0000000
  0
VERTEX
  8
0
 62
    13
 10
-18.3379352
 20
-4.1144892
 30
0.0000000
  0
VERTEX
  8
0
 62
    13
 10
-18.5770288
 20
-4.1964100
 30
0.0000000
  0
VERTEX
  8
0
 62
    13
 10
-18.8151654
 20
-4.3032480
 30
0.0000000
  0
VERTEX
  8
0
 62
    13
 10
-19.0419306
 20
-4.4217798
 30
0.0000000
  0
VERTEX
  8
0
 62
    13
 10
-19.2692018
 20
-4.5550010
 30
0.0000000
  0
VERTEX
  8
0
 62
    13
 10
-19.4820648
 20
-4.6920037
 30
0.0000000
  0
VERTEX
  8
0
 62
    13
 10
-19.6906250
 20
-4.8372867
 30
0.0000000
  0
VERTEX
  8
0
 62
    13
 10
-19.9123125
 20
-5.0034914
 30
0.0000000
  0
VERTEX
  8
0
 62
    13
 10
-20.1220409
 20
-5.1718546
 30
0.0000000
  0
VERTEX
  8
0
 62
    13
 10
-20.3158018
 20
-5.3370716
 30
0.0000000
  0
VERTEX
  8
0
 62
    13
 10
-20.5157571
 20
-5.5174493
 30
0.0000000
  0
VERTEX
  8
0
 62
    13
 10
-20.7212030
 20
-5.7134549
 30
0.0000000
  0
VERTEX
  8
0
 62
    13
 10
-20.9049025
 20
-5.8981257
 30
0.0000000
  0
VERTEX
  8
0
 62
    13
 10
-21.0917525
 20
-6.0953749
 30
0.0000000
  0
VERTEX
  8
0
 62
    13
 10
-21.1274522
 20
-6.1341691
 30
0.0000000
  0
VERTEX
  8
0
 62
    13
 10
-21.0330420
 20
-6.4504581
 30
0.0000000
  0
VERTEX
  8
0
 62
    13
 10
-20.9338971
 20
-6.7652951
 30
0.0000000
  0
VERTEX
  8
0
 62
    13
 10
-20.8300399
 20
-7.0786091
 30
0.0000000
  0
VERTEX
  8
0
 62
    13
 10
-20.7214935
 20
-7.3903296
 30
0.0000000
  0
VERTEX
  8
0
 62
    13
 10
-20.6980420
 20
-7.4557578
 30
0.0000000
  0
VERTEX
  8
0
 62
    13
 10
-20.4183141
 20
-7.5090570
 30
0.0000000
  0
VERTEX
  8
0
 62
    13
 10
-20.1611079
 20
-7.5514664
 30
0.0000000
  0
VERTEX
  8
0
 62
    13
 10
-19.8537330
 20
-7.5935723
 30
0.0000000
  0
VERTEX
  8
0
 62
    13
 10
-19.5624569
 20
-7.6244983
 30
0.0000000
  0
VERTEX
  8
0
 62
    13
 10
-19.2876592
 20
-7.6452625
 30
0.0000000
  0
VERTEX
  8
0
 62
    13
 10
-19.0296723
 20
-7.6568954
 30
0.0000000
  0
VERTEX
  8
0
 62
    13
 10
-18.7426766
 20
-7.6602675
 30
0.0000000
  0
VERTEX
  8
0
 62
    13
 10
-18.4806987
 20
-7.6538036
 30
0.0000000
  0
VERTEX
  8
0
 62
    13
 10
-18.2070755
 20
-7.6362684
 30
0.0000000
  0
VERTEX
  8
0
 62
    13
 10
-17.9369462
 20
-7.6066173
 30
0.0000000
  0
VERTEX
  8
0
 62
    13
 10
-17.6875169
 20
-7.5662098
 30
0.0000000
  0
VERTEX
  8
0
 62
    13
 10
-17.4284310
 20
-7.5067674
 30
0.0000000
  0
VERTEX
  8
0
 62
    13
 10
-16.7704283
 20
-7.2930022
 30
0.0000000
  0
VERTEX
  8
0
 62
    13
 10
-16.4819826
 20
-7.2594696
 30
0.0000000
  0
VERTEX
  8
0
 62
    13
 10
-16.2092006
 20
-7.3031291
 30
0.0000000
  0
VERTEX
  8
0
 62
    13
 10
-15.4553875
 20
-8.5977996
 30
0.0000000
  0
VERTEX
  8
0
 62
    13
 10
-15.4550109
 20
-8.8805575
 30
0.0000000
  0
VERTEX
  8
0
 62
    13
 10
-15.5914208
 20
-9.1067258
 30
0.0000000
  0
VERTEX
  8
0
 62
    13
 10
-16.1689657
 20
-9.5798454
 30
0.0000000
  0
VERTEX
  8
0
 62
    13
 10
-16.3710423
 20
-9.7316407
 30
0.0000000
  0
VERTEX
  8
0
 62
    13
 10
-16.5645089
 20
-9.9068379
 30
0.0000000
  0
VERTEX
  8
0
 62
    13
 10
-16.7435471
 20
-10.0896426
 30
0.0000000
  0
VERTEX
  8
0
 62
    13
 10
-16.9185272
 20
-10.2865742
 30
0.0000000
  0
VERTEX
  8
0
 62
    13
 10
-17.0786358
 20
-10.4826498
 30
0.0000000
  0
VERTEX
  8
0
 62
    13
 10
-17.2320934
 20
-10.6852708
 30
0.0000000
  0
VERTEX
  8
0
 62
    13
 10
-17.3915707
 20
-10.9118461
 30
0.0000000
  0
VERTEX
  8
0
 62
    13
 10
-17.5390071
 20
-11.1367786
 30
0.0000000
  0
VERTEX
  8
0
 62
    13
 10
-17.6722298
 20
-11.3537847
 30
0.0000000
  0
VERTEX
  8
0
 62
    13
 10
-17.8066589
 20
-11.5871237
 30
0.0000000
  0
VERTEX
  8
0
 62
    13
 10
-17.9414805
 20
-11.8370224
 30
0.0000000
  0
VERTEX
  8
0
 62
    13
 10
-18.0591227
 20
-12.0694210
 30
0.0000000
  0
VERTEX
  8
0
 62
    13
 10
-18.1758743
 20
-12.3147560
 30
0.0000000
  0
VERTEX
  8
0
 62
    13
 10
-18.1978386
 20
-12.3626833
 30
0.0000000
  0
VERTEX
  8
0
 62
    13
 10
-18.0103105
 20
-12.6343177
 30
0.0000000
  0
VERTEX
  8
0
 62
    13
 10
-17.8187281
 20
-12.9031079
 30
0.0000000
  0
VERTEX
  8
0
 62
    13
 10
-17.6231346
 20
-13.1689936
 30
0.0000000
  0
VERTEX
  8
0
 62
    13
 10
-17.4235740
 20
-13.4319148
 30
0.0000000
  0
VERTEX
  8
0
 62
    13
 10
-17.3810519
 20
-13.4868937
 30
0.0000000
  0
VERTEX
  8
0
 62
    13
 10
-17.0985445
 20
-13.4511436
 30
0.0000000
  0
VERTEX
  8
0
 62
    13
 10
-16.8408216
 20
-13.4119963
 30
0.0000000
  0
VERTEX
  8
0
 62
    13
 10
-16.5354793
 20
-13.3570574
 30
0.0000000
  0
VERTEX
  8
0
 62
    13
 10
-16.2489026
 20
-13.2964604
 30
0.0000000
  0
VERTEX
  8
0
 62
    13
 10
-15.9811379
 20
-13.2312912
 30
0.0000000
  0
VERTEX
  8
0
 62
    13
 10
-15.7321831
 20
-13.1626324
 30
0.0000000
  0
VERTEX
  8
0
 62
    13
 10
-15.4581919
 20
-13.0771529
 30
0.0000000
  0
VERTEX
  8
0
 62
    13
 10
-15.2110335
 20
-12.9900498
 30
0.0000000
  0
VERTEX
  8
0
 62
    13
 10
-14.9562211
 20
-12.8888186
 30
0.0000000
  0
VERTEX
  8
0
 62
    13
 10
-14.7084756
 20
-12.7771441
 30
0.0000000
  0
VERTEX
  8
0
 62
    13
 10
-14.4837408
 20
-12.6616364
 30
0.0000000
  0
VERTEX
  8
0
 62
    13
 10
-14.2557042
 20
-12.5250414
 30
0.0000000
  0
VERTEX
  8
0
 62
    13
 10
-13.6959635
 20
-12.1184046
 30
0.0000000
  0
VERTEX
  8
0
 62
    13
 10
-13.4319975
 20
-11.9973786
 30
0.0000000
  0
VERTEX
  8
0
 62
    13
 10
-13.1590749
 20
-11.9546070
 30
0.0000000
  0
VERTEX
  8
0
 62
    13
 10
-12.0420808
 20
-12.9529707
 30
0.0000000
  0
VERTEX
  8
0
 62
    13
 10
-11.9543457
 20
-13.2217732
 30
0.0000000
  0
VERTEX
  8
0
 62
    13
 10
-12.0141893
 20
-13.4790249
 30
0.0000000
  0
VERTEX
  8
0
 62
    13
 10
-12.4172651
 20
-14.1074596
 30
0.0000000
  0
VERTEX
  8
0
 62
    13
 10
-12.5625442
 20
-14.3142706
 30
0.0000000
  0
VERTEX
  8
0
 62
    13
 10
-12.6924028
 20
-14.5406775
 30
0.0000000
  0
VERTEX
  8
0
 62
    13
 10
-12.8061885
 20
-14.7698610
 30
0.0000000
  0
VERTEX
  8
0
 62
    13
 10
-12.9117493
 20
-15.0112259
 30
0.0000000
  0
VERTEX
  8
0
 62
    13
 10
-13.0034309
 20
-15.2471811
 30
0.0000000
  0
VERTEX
  8
0
 62
    13
 10
-13.0867645
 20
-15.4873062
 30
0.0000000
  0
VERTEX
  8
0
 62
    13
 10
-13.1684208
 20
-15.7520732
 30
0.0000000
  0
VERTEX
  8
0
 62
    13
 10
-13.2391331
 20
-16.0115571
 30
0.0000000
  0
VERTEX
  8
0
 62
    13
 10
-13.2987769
 20
-16.2591102
 30
0.0000000
  0
VERTEX
  8
0
 62
    13
 10
-13.3545209
 20
-16.5225697
 30
0.0000000
  0
VERTEX
  8
0
 62
    13
 10
-13.4055208
 20
-16.8018996
 30
0.0000000
  0
VERTEX
  8
0
 62
    13
 10
-13.4455901
 20
-17.0592773
 30
0.0000000
  0
VERTEX
  8
0
 62
    13
 10
-13.4808148
 20
-17.3286829
 30
0.0000000
  0
VERTEX
  8
0
 62
    13
 10
-13.4868937
 20
-17.3810519
 30
0.0000000
  0
VERTEX
  8
0
 62
    13
 10
-13.2246043
 20
-17.5814422
 30
0.0000000
  0
VERTEX
  8
0
 62
    13
 10
-12.9593379
 20
-17.7778747
 30
0.0000000
  0
VERTEX
  8
0
 62
    13
 10
-12.6911542
 20
-17.9703053
 30
0.0000000
  0
VERTEX
  8
0
 62
    13
 10
-12.4201136
 20
-18.1586906
 30
0.0000000
  0
VERTEX
  8
0
 62
    13
 10
-12.3626833
 20
-18.1978386
 30
0.0000000
  0
VERTEX
  8
0
 62
    13
 10
-12.1050502
 20
-18.0765386
 30
0.0000000
  0
VERTEX
  8
0
 62
    13
 10
-11.8720383
 20
-17.9596666
 30
0.0000000
  0
VERTEX
  8
0
 62
    13
 10
-11.5986176
 20
-17.8130606
 30
0.0000000
  0
VERTEX
  8
0
 62
    13
 10
-11.3447924
 20
-17.6668724
 30
0.0000000
  0
VERTEX
  8
0
 62
    13
 10
-11.1102715
 20
-17.5221489
 30
0.0000000
  0
VERTEX
  8
0
 62
    13
 10
-10.8947181
 20
-17.3799193
 30
0.0000000
  0
VERTEX
  8
0
 62
    13
 10
-10.6605516
 20
-17.2139555
 30
0.0000000
  0
VERTEX
  8
0
 62
    13
 10
-10.4524064
 20
-17.0547394
 30
0.0000000
  0
VERTEX
  8
0
 62
    13
 10
-10.2413476
 20
-16.8797214
 30
0.0000000
  0
VERTEX
  8
0
 62
    13
 10
-10.0402369
 20
-16.6969551
 30
0.0000000
  0
VERTEX
  8
0
 62
    13
 10
-9.8621952
 20
-16.5176539
 30
0.0000000
  0
VERTEX
  8
0
 62
    13
 10
-9.6875297
 20
-16.3172771
 30
0.0000000
  0
VERTEX
  8
0
 62
    13
 10
-9.2808424
 20
-15.7575731
 30
0.0000000
  0
VERTEX
  8
0
 62
    13
 10
-9.0671948
 20
-15.5609006
 30
0.0000000
  0
VERTEX
  8
0
 62
    13
 10
-8.8208472
 20
-15.4358846
 30
0.0000000
  0
VERTEX
  8
0
 62
    13
 10
-7.4500113
 20
-16.0402148
 30
0.0000000
  0
VERTEX
  8
0
 62
    13
 10
-7.2835057
 20
-16.2687495
 30
0.0000000
  0
VERTEX
  8
0
 62
    13
 10
-7.2609253
 20
-16.5319031
 30
0.0000000
  0
VERTEX
  8
0
 62
    13
 10
-7.4500762
 20
-17.2541373
 30
0.0000000
  0
VERTEX
  8
0
 62
    13
 10
-7.5243366
 20
-17.4957199
 30
0.0000000
  0
VERTEX
  8
0
 62
    13
 10
-7.5778759
 20
-17.7511743
 30
0.0000000
  0
VERTEX
  8
0
 62
    13
 10
-7.6152710
 20
-18.0043024
 30
0.0000000
  0
VERTEX
  8
0
 62
    13
 10
-7.6410794
 20
-18.2664741
 30
0.0000000
  0
VERTEX
  8
0
 62
    13
 10
-7.6553596
 20
-18.5192121
 30
0.0000000
  0
VERTEX
  8
0
 62
    13
 10
-7.6604118
 20
-18.7733361
 30
0.0000000
  0
VERTEX
  8
0
 62
    13
 10
-7.6562541
 20
-19.0503777
 30
0.0000000
  0
VERTEX
  8
0
 62
    13
 10
-7.6433206
 20
-19.3190129
 30
0.0000000
  0
VERTEX
  8
0
 62
    13
 10
-7.6235471
 20
-19.5728808
 30
0.0000000
  0
VERTEX
  8
0
 62
    13
 10
-7.5951493
 20
-19.8406715
 30
0.0000000
  0
VERTEX
  8
0
 62
    13
 10
-7.5573354
 20
-20.1220899
 30
0.0000000
  0
VERTEX
  8
0
 62
    13
 10
-7.5159095
 20
-20.3792527
 30
0.0000000
  0
VERTEX
  8
0
 62
    13
 10
-7.4661592
 20
-20.6463577
 30
0.0000000
  0
VERTEX
  8
0
 62
    13
 10
-7.4557578
 20
-20.6980420
 30
0.0000000
  0
VERTEX
  8
0
 62
    13
 10
-7.1443817
 20
-20.8075726
 30
0.0000000
  0
VERTEX
  8
0
 62
    13
 10
-6.8313973
 20
-20.9124192
 30
0.0000000
  0
VERTEX
  8
0
 62
    13
 10
-6.5168752
 20
-21.0125583
 30
0.0000000
  0
VERTEX
  8
0
 62
    13
 10
-6.2008860
 20
-21.1079672
 30
0.0000000
  0
VERTEX
  8
0
 62
    13
 10
-6.1341691
 20
-21.1274522
 30
0.0000000
  0
VERTEX
  8
0
 62
    13
 10
-5.9266292
 20
-20.9324761
 30
0.0000000
  0
VERTEX
  8
0
 62
    13
 10
-5.7411372
 20
-20.7493195
 30
0.0000000
  0
VERTEX
  8
0
 62
    13
 10
-5.5264024
 20
-20.5253973
 30
0.0000000
  0
VERTEX
  8
0
 62
    13
 10
-5.3301750
 20
-20.3079278
 30
0.0000000
  0
VERTEX
  8
0
 62
    13
 10
-5.1518543
 20
-20.0978166
 30
0.0000000
  0
VERTEX
  8
0
 62
    13
 10
-4.9908022
 20
-19.8959385
 30
0.0000000
  0
VERTEX
  8
0
 62
    13
 10
-4.8193823
 20
-19.6657362
 30
0.0000000
  0
VERTEX
  8
0
 62
    13
 10
-4.6706249
 20
-19.4499922
 30
0.0000000
  0
VERTEX
  8
0
 62
    13
 10
-4.5239796
 20
-19.2183195
 30
0.0000000
  0
VERTEX
  8
0
 62
    13
 10
-4.3891898
 20
-18.9823517
 30
0.0000000
  0
VERTEX
  8
0
 62
    13
 10
-4.2752693
 20
-18.7568083
 30
0.0000000
  0
VERTEX
  8
0
 62
    13
 10
-4.1710723
 20
-18.5122641
 30
0.0000000
  0
VERTEX
  8
0
 62
    13
 10
-3.9572478
 20
-17.8542806
 30
0.0000000
  0
VERTEX
  8
0
 62
    13
 10
-3.8148320
 20
-17.6012132
 30
0.0000000
  0
VERTEX
  8
0
 62
    13
 10
-3.6191735
 20
-17.4061904
 30
0.0000000
  0
VERTEX
  8
0
 62
    13
 10
-2.1286828
 20
-17.5573309
 30
0.0000000
  0
VERTEX
  8
0
 62
    13
 10
-1.8997055
 20
-17.7232273
 30
0.0000000
  0
VERTEX
  8
0
 62
    13
 10
-1.7969113
 20
-17.9665235
 30
0.0000000
  0
VERTEX
  8
0
 62
    13
 10
-1.7536218
 20
-18.7118598
 30
0.0000000
  0
VERTEX
  8
0
 62
    13
 10
-1.7495946
 20
-18.9645663
 30
0.0000000
  0
VERTEX
  8
0
 62
    13
 10
-1.7215738
 20
-19.2240624
 30
0.0000000
  0
VERTEX
  8
0
 62
    13
 10
-1.6789177
 20
-19.4763573
 30
0.0000000
  0
VERTEX
  8
0
 62
    13
 10
-1.6224474
 20
-19.7336726
 30
0.0000000
  0
VERTEX
  8
0
 62
    13
 10
-1.5579284
 20
-19.9784536
 30
0.0000000
  0
VERTEX
  8
0
 62
    13
 10
-1.4842047
 20
-20.2217011
 30
0.0000000
  0
VERTEX
  8
0
 62
    13
 10
-1.3946399
 20
-20.4838984
 30
0.0000000
  0
VERTEX
  8
0
 62
    13
 10
-1.2993265
 20
-20.7353891
 30
0.0000000
  0
VERTEX
  8
0
 62
    13
 10
-1.2020713
 20
-20.9707214
 30
0.0000000
  0
VERTEX
  8
0
 62
    13
 10
-1.0923115
 20
-21.2166301
 30
0.0000000
  0
VERTEX
  8
0
 62
    13
 10
-0.9693854
 20
-21.4725898
 30
0.0000000
  0
VERTEX
  8
0
 62
    13
 10
-0.8505193
 20
-21.7043649
 30
0.0000000
  0
VERTEX
  8
0
 62
    13
 10
-0.7206640
 20
-21.9430231
 30
0.0000000
  0
VERTEX
  8
0
 62
    13
 10
-0.6948003
 20
-21.9889636
 30
0.0000000
  0
VERTEX
  8
0
 62
    13
 10
-0.3648172
 20
-21.9969129
 30
0.0000000
  0
VERTEX
  8
0
 62
    13
 10
-0.0347520
 20
-21.9999104
 30
0.0000000
  0
VERTEX
  8
0
 62
    13
 10
0.2953210
 20
-21.9979556
 30
0.0000000
  0
VERTEX
  8
0
 62
    13
 10
0.6253275
 20
-21.9910489
 30
0.0000000
  0
VERTEX
  8
0
 62
    13
 10
0.6948003
 20
-21.9889636
 30
0.0000000
  0
VERTEX
  8
0
 62
    13
 10
0.8319315
 20
-21.7393969
 30
0.0000000
  0
VERTEX
  8
0
 62
    13
 10
0.9517464
 20
-21.5078845
 30
0.0000000
  0
VERTEX
  8
0
 62
    13
 10
1.0867755
 20
-21.2285651
 30
0.0000000
  0
VERTEX
  8
0
 62
    13
 10
1.2061972
 20
-20.9611017
 30
0.0000000
  0
VERTEX
  8
0
 62
    13
 10
1.3108623
 20
-20.7061700
 30
0.0000000
  0
VERTEX
  8
0
 62
    13
 10
1.4016481
 20
-20.4644047
 30
0.0000000
  0
VERTEX
  8
0
 62
    13
 10
1.4935417
 20
-20.1924976
 30
0.0000000
  0
VERTEX
  8
0
 62
    13
 10
1.5683499
 20
-19.9413443
 30
0.0000000
  0
VERTEX
  8
0
 62
    13
 10
1.6362271
 20
-19.6756945
 30
0.0000000
  0
VERTEX
  8
0
 62
    13
 10
1.6915017
 20
-19.4096236
 30
0.0000000
  0
VERTEX
  8
0
 62
    13
 10
1.7301498
 20
-19.1599156
 30
0.0000000
  0
VERTEX
  8
0
 62
    13
 10
1.7536787
 20
-18.8951416
 30
0.0000000
  0
VERTEX
  8
0
 62
    13
 10
1.7537099
 20
-18.2032868
 30
0.0000000
  0
VERTEX
  8
0
 62
    13
 10
1.8109532
 20
-17.9185964
 30
0.0000000
  0
VERTEX
  8
0
 62
    13
 10
1.9367701
 20
-17.6726569
 30
0.0000000
  0
VERTEX
  8
0
 62
    13
 10
3.4010160
 20
-17.3558131
 30
0.0000000
  0
VERTEX
  8
0
 62
    13
 10
3.6700511
 20
-17.4428321
 30
0.0000000
  0
VERTEX
  8
0
 62
    13
 10
3.8429969
 20
-17.6424554
 30
0.0000000
  0
VERTEX
  8
0
 62
    13
 10
4.1144892
 20
-18.3379352
 30
0.0000000
  0
VERTEX
  8
0
 62
    13
 10
4.1964100
 20
-18.5770288
 30
0.0000000
  0
VERTEX
  8
0
 62
    13
 10
4.3032480
 20
-18.8151654
 30
0.0000000
  0
VERTEX
  8
0
 62
    13
 10
4.4217798
 20
-19.0419306
 30
0.0000000
  0
VERTEX
  8
0
 62
    13
 10
4.5550010
 20
-19.2692018
 30
0.0000000
  0
VERTEX
  8
0
 62
    13
 10
4.6920037
 20
-19.4820648
 30
0.0000000
  0
VERTEX
  8
0
 62
    13
 10
4.8372867
 20
-19.6906250
 30
0.0000000
  0
VERTEX
  8
0
 62
    13
 10
5.0034914
 20
-19.9123125
 30
0.0000000
  0
VERTEX
  8
0
 62
    13
 10
5.1718546
 20
-20.1220409
 30
0.0000000
  0
VERTEX
  8
0
 62
    13
 10
5.3370716
 20
-20.3158018
 30
0.0000000
  0
VERTEX
  8
0
 62
    13
 10
5.5174493
 20
-20.5157571
 30
0.0000000
  0
VERTEX
  8
0
 62
    13
 10
5.7134549
 20
-20.7212030
 30
0.0000000
  0
VERTEX
  8
0
 62
    13
 10
5.8981257
 20
-20.9049025
 30
0.0000000
  0
VERTEX
  8
0
 62
    13
 10
6.0953749
 20
-21.0917525
 30
0.0000000
  0
VERTEX
  8
0
 62
    13
 10
6.1341691
 20
-21.1274522
 30
0.0000000
  0
VERTEX
  8
0
 62
    13
 10
6.4504581
 20
-21.0330420
 30
0.0000000
  0
VERTEX
  8
0
 62
    13
 10
6.7652951
 20
-20.9338971
 30
0.0000000
  0
VERTEX
  8
0
 62
    13
 10
7.0786091
 20
-20.8300399
 30
0.0000000
  0
VERTEX
  8
0
 62
    13
 10
7.3903296
 20
-20.7214935
 30
0.0000000
  0
VERTEX
  8
0
 62
    13
 10
7.4557578
 20
-20.6980420
 30
0.0000000
  0
VERTEX
  8
0
 62
    13
 10
7.5090570
 20
-20.4183141
 30
0.0000000
  0
VERTEX
  8
0
 62
    13
 10
7.5514664
 20
-20.1611079
 30
0.0000000
  0
VERTEX
  8
0
 62
    13
 10
7.5935723
 20
-19.8537330
 30
0.0000000
  0
VERTEX
  8
0
 62
    13
 10
7.6244983
 20
-19.5624569
 30
0.0000000
  0
VERTEX
  8
0
 62
    13
 10
7.6452625
 20
-19.2876592
 30
0.0000000
  0
VERTEX
  8
0
 62
    13
 10
7.6568954
 20
-19.0296723
 30
0.0000000
  0
VERTEX
  8
0
 62
    13
 10
7.6602675
 20
-18.7426766
 30
0.0000000
  0
VERTEX
  8
0
 62
    13
 10
7.6538036
 20
-18.4806987
 30
0.0000000
  0
VERTEX
  8
0
 62
    13
 10
7.6362684
 20
-18.2070755
 30
0.0000000
  0
VERTEX
  8
0
 62
    13
 10
7.6066173
 20
-17.9369462
 30
0.0000000
  0
VERTEX
  8
0
 62
    13
 10
7.5662098
 20
-17.6875169
 30
0.0000000
  0
VERTEX
  8
0
 62
    13
 10
7.5067674
 20
-17.4284310
 30
0.0000000
  0
VERTEX
  8
0
 62
    13
 10
7.2930022
 20
-16.7704283
 30
0.0000000
  0
VERTEX
  8
0
 62
    13
 10
7.2594696
 20
-16.4819826
 30
0.0000000
  0
VERTEX
  8
0
 62
    13
 10
7.3031291
 20
-16.2092006
 30
0.0000000
  0
VERTEX
  8
0
 62
    13
 10
8.5977996
 20
-15.4553875
 30
0.0000000
  0
VERTEX
  8
0
 62
    13
 10
8.8805575
 20
-15.4550109
 30
0.0000000
  0
VERTEX
  8
0
 62
    13
 10
9.1067258
 20
-15.5914208
 30
0.0000000
  0
VERTEX
  8
0
 62
    13
 10
9.5798454
 20
-16.1689657
 30
0.0000000
  0
VERTEX
  8
0
 62
    13
 10
9.7316407
 20
-16.3710423
 30
0.0000000
  0
VERTEX
  8
0
 62
    13
 10
9.9068379
 20
-16.5645089
 30
0.0000000
  0
VERTEX
  8
0
 62
    13
 10
10.0896426
 20
-16.7435471
 30
0.0000000
  0
VERTEX
  8
0
 62
    13
 10
10.2865742
 20
-16.9185272
 30
0.0000000
  0
VERTEX
  8
0
 62
    13
 10
10.4826498
 20
-17.0786358
 30
0.0000000
  0
VERTEX
  8
0
 62
    13
 10
10.6852708
 20
-17.2320934
 30
0.0000000
  0
VERTEX
  8
0
 62
    13
 10
10.9118461
 20
-17.3915707
 30
0.0000000
  0
VERTEX
  8
0
 62
    13
 10
11.1367786
 20
-17.5390071
 30
0.0000000
  0
VERTEX
  8
0
 62
    13
 10
11.3537847
 20
-17.6722298
 30
0.0000000
  0
VERTEX
  8
0
 62
    13
 10
11.5871237
 20
-17.8066589
 30
0.0000000
  0
VERTEX
  8
0
 62
    13
 10
11.8370224
 20
-17.9414805
 30
0.0000000
  0
VERTEX
  8
0
 62
    13
 10
12.0694210
 20
-18.0591227
 30
0.0000000
  0
VERTEX
  8
0
 62
    13
 10
12.3147560
 20
-18.1758743
 30
0.0000000
  0
VERTEX
  8
0
 62
    13
 10
12.3626833
 20
-18.1978386
 30
0.0000000
  0
VERTEX
  8
0
 62
    13
 10
12.6343177
 20
-18.0103105
 30
0.0000000
  0
VERTEX
  8
0
 62
    13
 10
12.9031079
 20
-17.8187281
 30
0.0000000
  0
VERTEX
  8
0
 62
    13
 10
13.1689936
 20
-17.6231346
 30
0.0000000
  0
VERTEX
  8
0
 62
    13
 10
13.4319148
 20
-17.4235740
 30
0.0000000
  0
VERTEX
  8
0
 62
    13
 10
13.4868937
 20
-17.3810519
 30
0.0000000
  0
VERTEX
  8
0
 62
    13
 10
13.4511436
 20
-17.0985445
 30
0.0000000
  0
VERTEX
  8
0
 62
    13
 10
13.4119963
 20
-16.8408216
 30
0.0000000
  0
VERTEX
  8
0
 62
    13
 10
13.3570574
 20
-16.5354793
 30
0.0000000
  0
VERTEX
  8
0
 62
    13
 10
13.2964604
 20
-16.2489026
 30
0.0000000
  0
VERTEX
  8
0
 62
    13
 10
13.2312912
 20
-15.9811379
 30
0.0000000
  0
VERTEX
  8
0
 62
    13
 10
13.1626324
 20
-15.7321831
 30
0.0000000
  0
VERTEX
  8
0
 62
    13
 10
13.0771529
 20
-15.4581919
 30
0.0000000
  0
VERTEX
  8
0
 62
    13
 10
12.9900498
 20
-15.2110335
 30
0.0000000
  0
VERTEX
  8
0
 62
    13
 10
12.8888186
 20
-14.9562211
 30
0.0000000
  0
VERTEX
  8
0
 62
    13
 10
12.7771441
 20
-14.7084756
 30
0.0000000
  0
VERTEX
  8
0
 62
    13
 10
12.6616364
 20
-14.4837408
 30
0.0000000
  0
VERTEX
  8
0
 62
    13
 10
12.5250414
 20
-14.2557042
 30
0.0000000
  0
VERTEX
  8
0
 62
    13
 10
12.1184046
 20
-13.6959635
 30
0.0000000
  0
VERTEX
  8
0
 62
    13
 10
11.9973786
 20
-13.4319975
 30
0.0000000
  0
VERTEX
  8
0
 62
    13
 10
11.9546070
 20
-13.1590749
 30
0.0000000
  0
VERTEX
  8
0
 62
    13
 10
12.9529707
 20
-12.0420808
 30
0.0000000
  0
VERTEX
  8
0
 62
    13
 10
13.2217732
 20
-11.9543457
 30
0.0000000
  0
VERTEX
  8
0
 62
    13
 10
13.4790249
 20
-12.0141893
 30
0.0000000
  0
VERTEX
  8
0
 62
    13
 10
14.1074596
 20
-12.4172651
 30
0.0000000
  0
VERTEX
  8
0
 62
    13
 10
14.3142706
 20
-12.5625441
 30
0.0000000
  0
VERTEX
  8
0
 62
    13
 10
14.5406775
 20
-12.6924028
 30
0.0000000
  0
VERTEX
  8
0
 62
    13
 10
14.7698610
 20
-12.8061885
 30
0.0000000
  0
VERTEX
  8
0
 62
    13
 10
15.0112259
 20
-12.9117493
 30
0.0000000
  0
VERTEX
  8
0
 62
    13
 10
15.2471811
 20
-13.0034309
 30
0.0000000
  0
VERTEX
  8
0
 62
    13
 10
15.4873062
 20
-13.0867645
 30
0.0000000
  0
VERTEX
  8
0
 62
    13
 10
15.7520732
 20
-13.1684208
 30
0.0000000
  0
VERTEX
  8
0
 62
    13
 10
16.0115572
 20
-13.2391331
 30
0.0000000
  0
VERTEX
  8
0
 62
    13
 10
16.2591102
 20
-13.2987769
 30
0.0000000
  0
VERTEX
  8
0
 62
    13
 10
16.5225697
 20
-13.3545209
 30
0.0000000
  0
VERTEX
  8
0
 62
    13
 10
16.8018996
 20
-13.4055208
 30
0.0000000
  0
VERTEX
  8
0
 62
    13
 10
17.0592773
 20
-13.4455901
 30
0.0000000
  0
VERTEX
  8
0
 62
    13
 10
17.3286829
 20
-13.4808148
 30
0.0000000
  0
VERTEX
  8
0
 62
    13
 10
17.3810519
 20
-13.4868937
 30
0.0000000
  0
VERTEX
  8
0
 62
    13
 10
17.5814422
 20
-13.2246043
 30
0.0000000
  0
VERTEX
  8
0
 62
    13
 10
17.7778747
 20
-12.9593379
 30
0.0000000
  0
VERTEX
  8
0
 62
    13
 10
17.9703053
 20
-12.6911542
 30
0.0000000
  0
VERTEX
  8
0
 62
    13
 10
18.1586906
 20
-12.4201136
 30
0.0000000
  0
VERTEX
  8
0
 62
    13
 10
18.1978386
 20
-12.3626833
 30
0.0000000
  0
VERTEX
  8
0
 62
    13
 10
18.0765386
 20
-12.1050502
 30
0.0000000
  0
VERTEX
  8
0
 62
    13
 10
17.9596666
 20
-11.8720383
 30
0.0000000
  0
VERTEX
  8
0
 62
    13
 10
17.8130606
 20
-11.5986176
 30
0.0000000
  0
VERTEX
  8
0
 62
    13
 10
17.6668724
 20
-11.3447924
 30
0.0000000
  0
VERTEX
  8
0
 62
    13
 10
17.5221489
 20
-11.1102715
 30
0.0000000
  0
VERTEX
  8
0
 62
    13
 10
17.3799193
 20
-10.8947181
 30
0.0000000
  0
VERTEX
  8
0
 62
    13
 10
17.2139555
 20
-10.6605516
 30
0.0000000
  0
VERTEX
  8
0
 62
    13
 10
17.0547394
 20
-10.4524064
 30
0.0000000
  0
VERTEX
  8
0
 62
    13
 10
16.8797214
 20
-10.2413476
 30
0.0000000
  0
VERTEX
  8
0
 62
    13
 10
16.6969551
 20
-10.0402369
 30
0.0000000
  0
VERTEX
  8
0
 62
    13
 10
16.5176539
 20
-9.8621952
 30
0.0000000
  0
VERTEX
  8
0
 62
    13
 10
16.3172771
 20
-9.6875297
 30
0.0000000
  0
VERTEX
  8
0
 62
    13
 10
15.7575731
 20
-9.2808424
 30
0.0000000
  0
VERTEX
  8
0
 62
    13
 10
15.5609006
 20
-9.0671948
 30
0.0000000
  0
VERTEX
  8
0
 62
    13
 10
15.4358846
 20
-8.8208472
 30
0.0000000
  0
VERTEX
  8
0
 62
    13
 10
16.0402148
 20
-7.4500113
 30
0.0000000
  0
VERTEX
  8
0
 62
    13
 10
16.2687495
 20
-7.2835057
 30
0.0000000
  0
VERTEX
  8
0
 62
    13
 10
16.5319031
 20
-7.2609253
 30
0.0000000
  0
VERTEX
  8
0
 62
    13
 10
17.2541373
 20
-7.4500762
 30
0.0000000
  0
VERTEX
  8
0
 62
    13
 10
17.4957199
 20
-7.5243366
 30
0.0000000
  0
VERTEX
  8
0
 62
    13
 10
17.7511743
 20
-7.5778759
 30
0.0000000
  0
VERTEX
  8
0
 62
    13
 10
18.0043024
 20
-7.6152710
 30
0.0000000
  0
VERTEX
  8
0
 62
    13
 10
18.2664741
 20
-7.6410794
 30
0.0000000
  0
VERTEX
  8
0
 62
    13
 10
18.5192121
 20
-7.6553596
 30
0.0000000
  0
VERTEX
  8
0
 62
    13
 10
18.7733361
 20
-7.6604118
 30
0.0000000
  0
VERTEX
  8
0
 62
    13
 10
19.0503777
 20
-7.6562541
 30
0.0000000
  0
VERTEX
  8
0
 62
    13
 10
19.3190129
 20
-7.6433206
 30
0.0000000
  0
VERTEX
  8
0
 62
    13
 10
19.5728808
 20
-7.6235471
 30
0.0000000
  0
VERTEX
  8
0
 62
    13
 10
19.8406715
 20
-7.5951493
 30
0.0000000
  0
VERTEX
  8
0
 62
    13
 10
20.1220899
 20
-7.5573354
 30
0.0000000
  0
VERTEX
  8
0
 62
    13
 10
20.3792527
 20
-7.5159095
 30
0.0000000
  0
VERTEX
  8
0
 62
    13
 10
20.6463577
 20
-7.4661592
 30
0.0000000
  0
VERTEX
  8
0
 62
    13
 10
20.6980420
 20
-7.4557578
 30
0.0000000
  0
VERTEX
  8
0
 62
    13
 10
20.8075726
 20
-7.1443817
 30
0.0000000
  0
VERTEX
  8
0
 62
    13
 10
20.9124192
 20
-6.8313973
 30
0.0000000
  0
VERTEX
  8
0
 62
    13
 10
21.0125583
 20
-6.5168752
 30
0.0000000
  0
VERTEX
  8
0
 62
    13
 10
21.1079672
 20
-6.2008860
 30
0.0000000
  0
VERTEX
  8
0
 62
    13
 10
21.1274522
 20
-6.1341691
 30
0.0000000
  0
VERTEX
  8
0
 62
    13
 10
20.9324761
 20
-5.9266292
 30
0.0000000
  0
VERTEX
  8
0
 62
    13
 10
20.7493195
 20
-5.7411372
 30
0.0000000
  0
VERTEX
  8
0
 62
    13
 10
20.5253973
 20
-5.5264024
 30
0.0000000
  0
VERTEX
  8
0
 62
    13
 10
20.3079278
 20
-5.3301750
 30
0.0000000
  0
VERTEX
  8
0
 62
    13
 10
20.0978166
 20
-5.1518543
 30
0.0000000
  0
VERTEX
  8
0
 62
    13
 10
19.8959385
 20
-4.9908022
 30
0.0000000
  0
VERTEX
  8
0
 62
    13
 10
19.6657362
 20
-4.8193823
 30
0.0000000
  0
VERTEX
  8
0
 62
    13
 10
19.4499922
 20
-4.6706249
 30
0.0000000
  0
VERTEX
  8
0
 62
    13
 10
19.2183195
 20
-4.5239796
 30
0.0000000
  0
VERTEX
  8
0
 62
    13
 10
18.9823517
 20
-4.3891898
 30
0.0000000
  0
VERTEX
  8
0
 62
    13
 10
18.7568083
 20
-4.2752693
 30
0.0000000
  0
VERTEX
  8
0
 62
    13
 10
18.5122641
 20
-4.1710723
 30
0.0000000
  0
VERTEX
  8
0
 62
    13
 10
17.8542807
 20
-3.9572478
 30
0.0000000
  0
VERTEX
  8
0
 62
    13
 10
17.6012132
 20
-3.8148320
 30
0.0000000
  0
VERTEX
  8
0
 62
    13
 10
17.4061904
 20
-3.6191735
 30
0.0000000
  0
VERTEX
  8
0
 62
    13
 10
17.5573309
 20
-2.1286828
 30
0.0000000
  0
VERTEX
  8
0
 62
    13
 10
17.7232273
 20
-1.8997055
 30
0.0000000
  0
VERTEX
  8
0
 62
    13
 10
17.9665235
 20
-1.7969113
 30
0.0000000
  0
SEQEND
  0
ENDSEC
  0
EOF
