999
Gearotic export
0
SECTION
2
HEADER
9
$ACADVER
1
AC1006
0
ENDSEC
  0
SECTION
  2
ENTITIES
  0
CIRCLE
  8
0
 62
    13
 10
0.0000000
 20
0.0000000
 30
0.0000000
 40
2.5000000
210
0.0000000
220
0.0000000
230
1.0000000
  0
POLYLINE
  8
0
 62
    13
 66
     1
 10
0.0000000
 20
0.0000000
 30
0.0000000
  0
VERTEX
  8
0
 62
    13
 10
62.9432215
 20
-2.1390463
 30
0.0000000
  0
VERTEX
  8
0
 62
    13
 10
63.2137005
 20
-2.0782548
 30
0.0000000
  0
VERTEX
  8
0
 62
    13
 10
63.5011568
 20
-2.0083577
 30
0.0000000
  0
VERTEX
  8
0
 62
    13
 10
63.7431840
 20
-1.9454740
 30
0.0000000
  0
VERTEX
  8
0
 62
    13
 10
63.9957921
 20
-1.8760627
 30
0.0000000
  0
VERTEX
  8
0
 62
    13
 10
64.2588436
 20
-1.7998167
 30
0.0000000
  0
VERTEX
  8
0
 62
    13
 10
64.5321946
 20
-1.7164316
 30
0.0000000
  0
VERTEX
  8
0
 62
    13
 10
64.8156950
 20
-1.6256056
 30
0.0000000
  0
VERTEX
  8
0
 62
    13
 10
65.1091880
 20
-1.5270396
 30
0.0000000
  0
VERTEX
  8
0
 62
    13
 10
65.4125105
 20
-1.4204377
 30
0.0000000
  0
VERTEX
  8
0
 62
    13
 10
65.7254931
 20
-1.3055069
 30
0.0000000
  0
VERTEX
  8
0
 62
    13
 10
65.9664642
 20
-1.2136686
 30
0.0000000
  0
VERTEX
  8
0
 62
    13
 10
66.2126940
 20
-1.1168612
 30
0.0000000
  0
VERTEX
  8
0
 62
    13
 10
66.4641043
 20
-1.0149649
 30
0.0000000
  0
VERTEX
  8
0
 62
    13
 10
66.7206149
 20
-0.9078607
 30
0.0000000
  0
VERTEX
  8
0
 62
    13
 10
66.9821434
 20
-0.7954310
 30
0.0000000
  0
VERTEX
  8
0
 62
    13
 10
66.9952838
 20
-0.7896966
 30
0.0000000
  0
VERTEX
  8
0
 62
    13
 10
66.9979423
 20
-0.5171150
 30
0.0000000
  0
VERTEX
  8
0
 62
    13
 10
66.9994917
 20
-0.2445248
 30
0.0000000
  0
VERTEX
  8
0
 62
    13
 10
66.9999320
 20
0.0280695
 30
0.0000000
  0
VERTEX
  8
0
 62
    13
 10
66.9992633
 20
0.3006632
 30
0.0000000
  0
VERTEX
  8
0
 62
    13
 10
66.9974855
 20
0.5732520
 30
0.0000000
  0
VERTEX
  8
0
 62
    13
 10
66.9952838
 20
0.7896966
 30
0.0000000
  0
VERTEX
  8
0
 62
    13
 10
66.7569287
 20
0.8924438
 30
0.0000000
  0
VERTEX
  8
0
 62
    13
 10
66.4260657
 20
1.0305784
 30
0.0000000
  0
VERTEX
  8
0
 62
    13
 10
66.1037100
 20
1.1600763
 30
0.0000000
  0
VERTEX
  8
0
 62
    13
 10
65.7900327
 20
1.2811934
 30
0.0000000
  0
VERTEX
  8
0
 62
    13
 10
65.4851994
 20
1.3941884
 30
0.0000000
  0
VERTEX
  8
0
 62
    13
 10
65.1893706
 20
1.4993230
 30
0.0000000
  0
VERTEX
  8
0
 62
    13
 10
64.9027010
 20
1.5968620
 30
0.0000000
  0
VERTEX
  8
0
 62
    13
 10
64.6253398
 20
1.6870725
 30
0.0000000
  0
VERTEX
  8
0
 62
    13
 10
64.3574309
 20
1.7702245
 30
0.0000000
  0
VERTEX
  8
0
 62
    13
 10
64.0991124
 20
1.8465904
 30
0.0000000
  0
VERTEX
  8
0
 62
    13
 10
63.8505167
 20
1.9164451
 30
0.0000000
  0
VERTEX
  8
0
 62
    13
 10
63.5343987
 20
1.9999354
 30
0.0000000
  0
VERTEX
  8
0
 62
    13
 10
63.2360753
 20
2.0730063
 30
0.0000000
  0
VERTEX
  8
0
 62
    13
 10
62.9558132
 20
2.1363273
 30
0.0000000
  0
VERTEX
  8
0
 62
    13
 10
62.6938604
 20
2.1905741
 30
0.0000000
  0
VERTEX
  8
0
 62
    13
 10
62.6472965
 20
2.1996943
 30
0.0000000
  0
VERTEX
  8
0
 62
    13
 10
62.5671372
 20
3.8569109
 30
0.0000000
  0
VERTEX
  8
0
 62
    13
 10
62.8558273
 20
3.9458366
 30
0.0000000
  0
VERTEX
  8
0
 62
    13
 10
63.1191764
 20
4.0324493
 30
0.0000000
  0
VERTEX
  8
0
 62
    13
 10
63.3985447
 20
4.1297637
 30
0.0000000
  0
VERTEX
  8
0
 62
    13
 10
63.6333729
 20
4.2157129
 30
0.0000000
  0
VERTEX
  8
0
 62
    13
 10
63.8781025
 20
4.3091803
 30
0.0000000
  0
VERTEX
  8
0
 62
    13
 10
64.1325672
 20
4.4104584
 30
0.0000000
  0
VERTEX
  8
0
 62
    13
 10
64.3965943
 20
4.5198364
 30
0.0000000
  0
VERTEX
  8
0
 62
    13
 10
64.6700052
 20
4.6376002
 30
0.0000000
  0
VERTEX
  8
0
 62
    13
 10
64.9526151
 20
4.7640322
 30
0.0000000
  0
VERTEX
  8
0
 62
    13
 10
65.2442330
 20
4.8994113
 30
0.0000000
  0
VERTEX
  8
0
 62
    13
 10
65.5446621
 20
5.0440128
 30
0.0000000
  0
VERTEX
  8
0
 62
    13
 10
65.7756445
 20
5.1586794
 30
0.0000000
  0
VERTEX
  8
0
 62
    13
 10
66.0113816
 20
5.2787994
 30
0.0000000
  0
VERTEX
  8
0
 62
    13
 10
66.2517839
 20
5.4044847
 30
0.0000000
  0
VERTEX
  8
0
 62
    13
 10
66.4967599
 20
5.5358457
 30
0.0000000
  0
VERTEX
  8
0
 62
    13
 10
66.7462165
 20
5.6729916
 30
0.0000000
  0
VERTEX
  8
0
 62
    13
 10
66.7587421
 20
5.6799675
 30
0.0000000
  0
VERTEX
  8
0
 62
    13
 10
66.7350802
 20
5.9515332
 30
0.0000000
  0
VERTEX
  8
0
 62
    13
 10
66.7103136
 20
6.2230004
 30
0.0000000
  0
VERTEX
  8
0
 62
    13
 10
66.6844428
 20
6.4943646
 30
0.0000000
  0
VERTEX
  8
0
 62
    13
 10
66.6574680
 20
6.7656212
 30
0.0000000
  0
VERTEX
  8
0
 62
    13
 10
66.6293899
 20
7.0367659
 30
0.0000000
  0
VERTEX
  8
0
 62
    13
 10
66.6063087
 20
7.2519875
 30
0.0000000
  0
VERTEX
  8
0
 62
    13
 10
66.3591497
 20
7.3312505
 30
0.0000000
  0
VERTEX
  8
0
 62
    13
 10
66.0164994
 20
7.4368074
 30
0.0000000
  0
VERTEX
  8
0
 62
    13
 10
65.6831502
 20
7.5345889
 30
0.0000000
  0
VERTEX
  8
0
 62
    13
 10
65.3592478
 20
7.6248663
 30
0.0000000
  0
VERTEX
  8
0
 62
    13
 10
65.0449320
 20
7.7079131
 30
0.0000000
  0
VERTEX
  8
0
 62
    13
 10
64.7403373
 20
7.7840054
 30
0.0000000
  0
VERTEX
  8
0
 62
    13
 10
64.4455920
 20
7.8534214
 30
0.0000000
  0
VERTEX
  8
0
 62
    13
 10
64.1608191
 20
7.9164416
 30
0.0000000
  0
VERTEX
  8
0
 62
    13
 10
63.8861356
 20
7.9733484
 30
0.0000000
  0
VERTEX
  8
0
 62
    13
 10
63.6216526
 20
8.0244265
 30
0.0000000
  0
VERTEX
  8
0
 62
    13
 10
63.3674755
 20
8.0699621
 30
0.0000000
  0
VERTEX
  8
0
 62
    13
 10
63.0447753
 20
8.1225529
 30
0.0000000
  0
VERTEX
  8
0
 62
    13
 10
62.7407923
 20
8.1664903
 30
0.0000000
  0
VERTEX
  8
0
 62
    13
 10
62.4557271
 20
8.2024665
 30
0.0000000
  0
VERTEX
  8
0
 62
    13
 10
62.1897616
 20
8.2311780
 30
0.0000000
  0
VERTEX
  8
0
 62
    13
 10
62.1425349
 20
8.2357616
 30
0.0000000
  0
VERTEX
  8
0
 62
    13
 10
61.9028053
 20
9.8775051
 30
0.0000000
  0
VERTEX
  8
0
 62
    13
 10
62.1815652
 20
9.9938784
 30
0.0000000
  0
VERTEX
  8
0
 62
    13
 10
62.4353255
 20
10.1055036
 30
0.0000000
  0
VERTEX
  8
0
 62
    13
 10
62.7039974
 20
10.2293266
 30
0.0000000
  0
VERTEX
  8
0
 62
    13
 10
62.9294341
 20
10.3375387
 30
0.0000000
  0
VERTEX
  8
0
 62
    13
 10
63.1640003
 20
10.4541896
 30
0.0000000
  0
VERTEX
  8
0
 62
    13
 10
63.4075023
 20
10.5795543
 30
0.0000000
  0
VERTEX
  8
0
 62
    13
 10
63.6597404
 20
10.7139040
 30
0.0000000
  0
VERTEX
  8
0
 62
    13
 10
63.9205090
 20
10.8575060
 30
0.0000000
  0
VERTEX
  8
0
 62
    13
 10
64.1895971
 20
11.0106235
 30
0.0000000
  0
VERTEX
  8
0
 62
    13
 10
64.4667877
 20
11.1735158
 30
0.0000000
  0
VERTEX
  8
0
 62
    13
 10
64.7518582
 20
11.3464378
 30
0.0000000
  0
VERTEX
  8
0
 62
    13
 10
64.9706954
 20
11.4828621
 30
0.0000000
  0
VERTEX
  8
0
 62
    13
 10
65.1937388
 20
11.6251733
 30
0.0000000
  0
VERTEX
  8
0
 62
    13
 10
65.4208883
 20
11.7734740
 30
0.0000000
  0
VERTEX
  8
0
 62
    13
 10
65.6520425
 20
11.9278653
 30
0.0000000
  0
VERTEX
  8
0
 62
    13
 10
65.8870981
 20
12.0884471
 30
0.0000000
  0
VERTEX
  8
0
 62
    13
 10
65.8988920
 20
12.0965993
 30
0.0000000
  0
VERTEX
  8
0
 62
    13
 10
65.8491307
 20
12.3646136
 30
0.0000000
  0
VERTEX
  8
0
 62
    13
 10
65.7982793
 20
12.6324231
 30
0.0000000
  0
VERTEX
  8
0
 62
    13
 10
65.7463388
 20
12.9000235
 30
0.0000000
  0
VERTEX
  8
0
 62
    13
 10
65.6933100
 20
13.1674104
 30
0.0000000
  0
VERTEX
  8
0
 62
    13
 10
65.6391937
 20
13.4345794
 30
0.0000000
  0
VERTEX
  8
0
 62
    13
 10
65.5954483
 20
13.6465686
 30
0.0000000
  0
VERTEX
  8
0
 62
    13
 10
65.3417932
 20
13.7016073
 30
0.0000000
  0
VERTEX
  8
0
 62
    13
 10
64.9905548
 20
13.7736008
 30
0.0000000
  0
VERTEX
  8
0
 62
    13
 10
64.6493245
 20
13.8387531
 30
0.0000000
  0
VERTEX
  8
0
 62
    13
 10
64.3182212
 20
13.8973479
 30
0.0000000
  0
VERTEX
  8
0
 62
    13
 10
63.9973576
 20
13.9496712
 30
0.0000000
  0
VERTEX
  8
0
 62
    13
 10
63.6868408
 20
13.9960106
 30
0.0000000
  0
VERTEX
  8
0
 62
    13
 10
63.3867720
 20
14.0366555
 30
0.0000000
  0
VERTEX
  8
0
 62
    13
 10
63.0972462
 20
14.0718969
 30
0.0000000
  0
VERTEX
  8
0
 62
    13
 10
62.8183527
 20
14.1020274
 30
0.0000000
  0
VERTEX
  8
0
 62
    13
 10
62.5501746
 20
14.1273407
 30
0.0000000
  0
VERTEX
  8
0
 62
    13
 10
62.2927893
 20
14.1481321
 30
0.0000000
  0
VERTEX
  8
0
 62
    13
 10
61.9665198
 20
14.1693323
 30
0.0000000
  0
VERTEX
  8
0
 62
    13
 10
61.6597153
 20
14.1837260
 30
0.0000000
  0
VERTEX
  8
0
 62
    13
 10
61.3725088
 20
14.1920215
 30
0.0000000
  0
VERTEX
  8
0
 62
    13
 10
61.1050138
 20
14.1949296
 30
0.0000000
  0
VERTEX
  8
0
 62
    13
 10
61.0575652
 20
14.1949337
 30
0.0000000
  0
VERTEX
  8
0
 62
    13
 10
60.6605037
 20
15.8058758
 30
0.0000000
  0
VERTEX
  8
0
 62
    13
 10
60.9267305
 20
15.9486099
 30
0.0000000
  0
VERTEX
  8
0
 62
    13
 10
61.1685328
 20
16.0842055
 30
0.0000000
  0
VERTEX
  8
0
 62
    13
 10
61.4239998
 20
16.2333810
 30
0.0000000
  0
VERTEX
  8
0
 62
    13
 10
61.6379401
 20
16.3628457
 30
0.0000000
  0
VERTEX
  8
0
 62
    13
 10
61.8601529
 20
16.5015910
 30
0.0000000
  0
VERTEX
  8
0
 62
    13
 10
62.0904186
 20
16.6498717
 30
0.0000000
  0
VERTEX
  8
0
 62
    13
 10
62.3285126
 20
16.8079387
 30
0.0000000
  0
VERTEX
  8
0
 62
    13
 10
62.5742043
 20
16.9760381
 30
0.0000000
  0
VERTEX
  8
0
 62
    13
 10
62.8272582
 20
17.1544116
 30
0.0000000
  0
VERTEX
  8
0
 62
    13
 10
63.0874333
 20
17.3432962
 30
0.0000000
  0
VERTEX
  8
0
 62
    13
 10
63.3544837
 20
17.5429242
 30
0.0000000
  0
VERTEX
  8
0
 62
    13
 10
63.5591324
 20
17.6998325
 30
0.0000000
  0
VERTEX
  8
0
 62
    13
 10
63.7673995
 20
17.8630061
 30
0.0000000
  0
VERTEX
  8
0
 62
    13
 10
63.9791756
 20
18.0325376
 30
0.0000000
  0
VERTEX
  8
0
 62
    13
 10
64.1943498
 20
18.2085178
 30
0.0000000
  0
VERTEX
  8
0
 62
    13
 10
64.4128096
 20
18.3910360
 30
0.0000000
  0
VERTEX
  8
0
 62
    13
 10
64.4237616
 20
18.4002884
 30
0.0000000
  0
VERTEX
  8
0
 62
    13
 10
64.3483655
 20
18.6622488
 30
0.0000000
  0
VERTEX
  8
0
 62
    13
 10
64.2719042
 20
18.9239003
 30
0.0000000
  0
VERTEX
  8
0
 62
    13
 10
64.1943791
 20
19.1852385
 30
0.0000000
  0
VERTEX
  8
0
 62
    13
 10
64.1157912
 20
19.4462591
 30
0.0000000
  0
VERTEX
  8
0
 62
    13
 10
64.0361421
 20
19.7069578
 30
0.0000000
  0
VERTEX
  8
0
 62
    13
 10
63.9721410
 20
19.9137353
 30
0.0000000
  0
VERTEX
  8
0
 62
    13
 10
63.7143580
 20
19.9440358
 30
0.0000000
  0
VERTEX
  8
0
 62
    13
 10
63.3578109
 20
19.9817939
 30
0.0000000
  0
VERTEX
  8
0
 62
    13
 10
63.0118856
 20
20.0137085
 30
0.0000000
  0
VERTEX
  8
0
 62
    13
 10
62.6766727
 20
20.0400737
 30
0.0000000
  0
VERTEX
  8
0
 62
    13
 10
62.3522571
 20
20.0611850
 30
0.0000000
  0
VERTEX
  8
0
 62
    13
 10
62.0387175
 20
20.0773389
 30
0.0000000
  0
VERTEX
  8
0
 62
    13
 10
61.7361267
 20
20.0888332
 30
0.0000000
  0
VERTEX
  8
0
 62
    13
 10
61.4445512
 20
20.0959668
 30
0.0000000
  0
VERTEX
  8
0
 62
    13
 10
61.1640517
 20
20.0990395
 30
0.0000000
  0
VERTEX
  8
0
 62
    13
 10
61.0730227
 20
20.0992132
 30
0.0000000
  0
VERTEX
  8
0
 62
    13
 10
60.8073748
 20
20.0973389
 30
0.0000000
  0
VERTEX
  8
0
 62
    13
 10
60.5529203
 20
20.0921059
 30
0.0000000
  0
VERTEX
  8
0
 62
    13
 10
60.2311286
 20
20.0804264
 30
0.0000000
  0
VERTEX
  8
0
 62
    13
 10
59.9293857
 20
20.0640300
 30
0.0000000
  0
VERTEX
  8
0
 62
    13
 10
59.6477507
 20
20.0436351
 30
0.0000000
  0
VERTEX
  8
0
 62
    13
 10
59.4025175
 20
20.0215716
 30
0.0000000
  0
VERTEX
  8
0
 62
    13
 10
58.8518312
 20
21.5866713
 30
0.0000000
  0
VERTEX
  8
0
 62
    13
 10
59.1030394
 20
21.7544337
 30
0.0000000
  0
VERTEX
  8
0
 62
    13
 10
59.3306260
 20
21.9127334
 30
0.0000000
  0
VERTEX
  8
0
 62
    13
 10
59.5705029
 20
22.0858687
 30
0.0000000
  0
VERTEX
  8
0
 62
    13
 10
59.7709493
 20
22.2353772
 30
0.0000000
  0
VERTEX
  8
0
 62
    13
 10
59.9787338
 20
22.3949214
 30
0.0000000
  0
VERTEX
  8
0
 62
    13
 10
60.1936135
 20
22.5647338
 30
0.0000000
  0
VERTEX
  8
0
 62
    13
 10
60.4153402
 20
22.7450423
 30
0.0000000
  0
VERTEX
  8
0
 62
    13
 10
60.6436610
 20
22.9360696
 30
0.0000000
  0
VERTEX
  8
0
 62
    13
 10
60.8783180
 20
23.1380336
 30
0.0000000
  0
VERTEX
  8
0
 62
    13
 10
61.1190486
 20
23.3511469
 30
0.0000000
  0
VERTEX
  8
0
 62
    13
 10
61.3655854
 20
23.5756170
 30
0.0000000
  0
VERTEX
  8
0
 62
    13
 10
61.5541349
 20
23.7515443
 30
0.0000000
  0
VERTEX
  8
0
 62
    13
 10
61.7456812
 20
23.9340568
 30
0.0000000
  0
VERTEX
  8
0
 62
    13
 10
61.9401065
 20
24.1232362
 30
0.0000000
  0
VERTEX
  8
0
 62
    13
 10
62.1372917
 20
24.3191621
 30
0.0000000
  0
VERTEX
  8
0
 62
    13
 10
62.3371161
 20
24.5219127
 30
0.0000000
  0
VERTEX
  8
0
 62
    13
 10
62.3471240
 20
24.5321790
 30
0.0000000
  0
VERTEX
  8
0
 62
    13
 10
62.2467970
 20
24.7856397
 30
0.0000000
  0
VERTEX
  8
0
 62
    13
 10
62.1454397
 20
25.0386901
 30
0.0000000
  0
VERTEX
  8
0
 62
    13
 10
62.0430537
 20
25.2913260
 30
0.0000000
  0
VERTEX
  8
0
 62
    13
 10
61.9396406
 20
25.5435432
 30
0.0000000
  0
VERTEX
  8
0
 62
    13
 10
61.8352022
 20
25.7953377
 30
0.0000000
  0
VERTEX
  8
0
 62
    13
 10
61.7515430
 20
25.9949729
 30
0.0000000
  0
VERTEX
  8
0
 62
    13
 10
61.4920390
 20
26.0002523
 30
0.0000000
  0
VERTEX
  8
0
 62
    13
 10
61.1335123
 20
26.0034223
 30
0.0000000
  0
VERTEX
  8
0
 62
    13
 10
60.7861216
 20
26.0018013
 30
0.0000000
  0
VERTEX
  8
0
 62
    13
 10
60.4499290
 20
25.9956908
 30
0.0000000
  0
VERTEX
  8
0
 62
    13
 10
60.1249904
 20
25.9853928
 30
0.0000000
  0
VERTEX
  8
0
 62
    13
 10
59.8113555
 20
25.9712104
 30
0.0000000
  0
VERTEX
  8
0
 62
    13
 10
59.5090679
 20
25.9534468
 30
0.0000000
  0
VERTEX
  8
0
 62
    13
 10
59.2181651
 20
25.9324061
 30
0.0000000
  0
VERTEX
  8
0
 62
    13
 10
58.9386784
 20
25.9083923
 30
0.0000000
  0
VERTEX
  8
0
 62
    13
 10
58.6706332
 20
25.8817098
 30
0.0000000
  0
VERTEX
  8
0
 62
    13
 10
58.4140484
 20
25.8526633
 30
0.0000000
  0
VERTEX
  8
0
 62
    13
 10
58.0897841
 20
25.8107835
 30
0.0000000
  0
VERTEX
  8
0
 62
    13
 10
57.7859299
 20
25.7659637
 30
0.0000000
  0
VERTEX
  8
0
 62
    13
 10
57.5024802
 20
25.7189245
 30
0.0000000
  0
VERTEX
  8
0
 62
    13
 10
57.2394099
 20
25.6703856
 30
0.0000000
  0
VERTEX
  8
0
 62
    13
 10
57.1928445
 20
25.6612735
 30
0.0000000
  0
VERTEX
  8
0
 62
    13
 10
56.4936751
 20
27.1659178
 30
0.0000000
  0
VERTEX
  8
0
 62
    13
 10
56.7275191
 20
27.3571421
 30
0.0000000
  0
VERTEX
  8
0
 62
    13
 10
56.9387652
 20
27.5366682
 30
0.0000000
  0
VERTEX
  8
0
 62
    13
 10
57.1608123
 20
27.7321466
 30
0.0000000
  0
VERTEX
  8
0
 62
    13
 10
57.3458932
 20
27.9003031
 30
0.0000000
  0
VERTEX
  8
0
 62
    13
 10
57.5373095
 20
28.0791565
 30
0.0000000
  0
VERTEX
  8
0
 62
    13
 10
57.7347968
 20
28.2689150
 30
0.0000000
  0
VERTEX
  8
0
 62
    13
 10
57.9380861
 20
28.4697815
 30
0.0000000
  0
VERTEX
  8
0
 62
    13
 10
58.1469043
 20
28.6819531
 30
0.0000000
  0
VERTEX
  8
0
 62
    13
 10
58.3609735
 20
28.9056220
 30
0.0000000
  0
VERTEX
  8
0
 62
    13
 10
58.5800118
 20
29.1409743
 30
0.0000000
  0
VERTEX
  8
0
 62
    13
 10
58.8037332
 20
29.3881907
 30
0.0000000
  0
VERTEX
  8
0
 62
    13
 10
58.9744231
 20
29.5814943
 30
0.0000000
  0
VERTEX
  8
0
 62
    13
 10
59.1474602
 20
29.7816417
 30
0.0000000
  0
VERTEX
  8
0
 62
    13
 10
59.3227194
 20
29.9887026
 30
0.0000000
  0
VERTEX
  8
0
 62
    13
 10
59.5000744
 20
30.2027451
 30
0.0000000
  0
VERTEX
  8
0
 62
    13
 10
59.6793977
 20
30.4238350
 30
0.0000000
  0
VERTEX
  8
0
 62
    13
 10
59.6883681
 20
30.4350192
 30
0.0000000
  0
VERTEX
  8
0
 62
    13
 10
59.5640470
 20
30.6776137
 30
0.0000000
  0
VERTEX
  8
0
 62
    13
 10
59.4387399
 20
30.9197004
 30
0.0000000
  0
VERTEX
  8
0
 62
    13
 10
59.3124490
 20
31.1612752
 30
0.0000000
  0
VERTEX
  8
0
 62
    13
 10
59.1851762
 20
31.4023342
 30
0.0000000
  0
VERTEX
  8
0
 62
    13
 10
59.0569237
 20
31.6428734
 30
0.0000000
  0
VERTEX
  8
0
 62
    13
 10
58.9543875
 20
31.8335024
 30
0.0000000
  0
VERTEX
  8
0
 62
    13
 10
58.6955854
 20
31.8137114
 30
0.0000000
  0
VERTEX
  8
0
 62
    13
 10
58.3384264
 20
31.7822638
 30
0.0000000
  0
VERTEX
  8
0
 62
    13
 10
57.9928140
 20
31.7471224
 30
0.0000000
  0
VERTEX
  8
0
 62
    13
 10
57.6587806
 20
31.7085931
 30
0.0000000
  0
VERTEX
  8
0
 62
    13
 10
57.3363528
 20
31.6669821
 30
0.0000000
  0
VERTEX
  8
0
 62
    13
 10
57.0255509
 20
31.6225957
 30
0.0000000
  0
VERTEX
  8
0
 62
    13
 10
56.7263889
 20
31.5757401
 30
0.0000000
  0
VERTEX
  8
0
 62
    13
 10
56.4388749
 20
31.5267214
 30
0.0000000
  0
VERTEX
  8
0
 62
    13
 10
56.1630106
 20
31.4758454
 30
0.0000000
  0
VERTEX
  8
0
 62
    13
 10
55.8987919
 20
31.4234174
 30
0.0000000
  0
VERTEX
  8
0
 62
    13
 10
55.6462083
 20
31.3697425
 30
0.0000000
  0
VERTEX
  8
0
 62
    13
 10
55.3274998
 20
31.2967621
 30
0.0000000
  0
VERTEX
  8
0
 62
    13
 10
55.0293899
 20
31.2228254
 30
0.0000000
  0
VERTEX
  8
0
 62
    13
 10
54.7518033
 20
31.1486490
 30
0.0000000
  0
VERTEX
  8
0
 62
    13
 10
54.4946459
 20
31.0749467
 30
0.0000000
  0
VERTEX
  8
0
 62
    13
 10
54.4491773
 20
31.0613829
 30
0.0000000
  0
VERTEX
  8
0
 62
    13
 10
53.6080528
 20
32.4915234
 30
0.0000000
  0
VERTEX
  8
0
 62
    13
 10
53.8223493
 20
32.7044243
 30
0.0000000
  0
VERTEX
  8
0
 62
    13
 10
54.0152824
 20
32.9035004
 30
0.0000000
  0
VERTEX
  8
0
 62
    13
 10
54.2174265
 20
33.1194969
 30
0.0000000
  0
VERTEX
  8
0
 62
    13
 10
54.3854140
 20
33.3047313
 30
0.0000000
  0
VERTEX
  8
0
 62
    13
 10
54.5586748
 20
33.5012241
 30
0.0000000
  0
VERTEX
  8
0
 62
    13
 10
54.7369258
 20
33.7091570
 30
0.0000000
  0
VERTEX
  8
0
 62
    13
 10
54.9198797
 20
33.9287060
 30
0.0000000
  0
VERTEX
  8
0
 62
    13
 10
55.1072455
 20
34.1600410
 30
0.0000000
  0
VERTEX
  8
0
 62
    13
 10
55.2987282
 20
34.4033263
 30
0.0000000
  0
VERTEX
  8
0
 62
    13
 10
55.4940292
 20
34.6587202
 30
0.0000000
  0
VERTEX
  8
0
 62
    13
 10
55.6928464
 20
34.9263748
 30
0.0000000
  0
VERTEX
  8
0
 62
    13
 10
55.8440829
 20
35.1352499
 30
0.0000000
  0
VERTEX
  8
0
 62
    13
 10
55.9969952
 20
35.3511634
 30
0.0000000
  0
VERTEX
  8
0
 62
    13
 10
56.1514520
 20
35.5741727
 30
0.0000000
  0
VERTEX
  8
0
 62
    13
 10
56.3073210
 20
35.8043331
 30
0.0000000
  0
VERTEX
  8
0
 62
    13
 10
56.4644689
 20
36.0416981
 30
0.0000000
  0
VERTEX
  8
0
 62
    13
 10
56.4723179
 20
36.0536959
 30
0.0000000
  0
VERTEX
  8
0
 62
    13
 10
56.3251635
 20
36.2831591
 30
0.0000000
  0
VERTEX
  8
0
 62
    13
 10
56.1770767
 20
36.5120218
 30
0.0000000
  0
VERTEX
  8
0
 62
    13
 10
56.0280600
 20
36.7402800
 30
0.0000000
  0
VERTEX
  8
0
 62
    13
 10
55.8781158
 20
36.9679301
 30
0.0000000
  0
VERTEX
  8
0
 62
    13
 10
55.7272466
 20
37.1949682
 30
0.0000000
  0
VERTEX
  8
0
 62
    13
 10
55.6067907
 20
37.3748111
 30
0.0000000
  0
VERTEX
  8
0
 62
    13
 10
55.3511070
 20
37.3301345
 30
0.0000000
  0
VERTEX
  8
0
 62
    13
 10
54.9986505
 20
37.2643629
 30
0.0000000
  0
VERTEX
  8
0
 62
    13
 10
54.6580431
 20
37.1960291
 30
0.0000000
  0
VERTEX
  8
0
 62
    13
 10
54.3292877
 20
37.1254408
 30
0.0000000
  0
VERTEX
  8
0
 62
    13
 10
54.0123812
 20
37.0529053
 30
0.0000000
  0
VERTEX
  8
0
 62
    13
 10
53.7073140
 20
36.9787294
 30
0.0000000
  0
VERTEX
  8
0
 62
    13
 10
53.4140709
 20
36.9032193
 30
0.0000000
  0
VERTEX
  8
0
 62
    13
 10
53.1326301
 20
36.8266803
 30
0.0000000
  0
VERTEX
  8
0
 62
    13
 10
52.8629639
 20
36.7494170
 30
0.0000000
  0
VERTEX
  8
0
 62
    13
 10
52.6050387
 20
36.6717330
 30
0.0000000
  0
VERTEX
  8
0
 62
    13
 10
52.3588147
 20
36.5939308
 30
0.0000000
  0
VERTEX
  8
0
 62
    13
 10
52.0486376
 20
36.4905314
 30
0.0000000
  0
VERTEX
  8
0
 62
    13
 10
51.7590553
 20
36.3881680
 30
0.0000000
  0
VERTEX
  8
0
 62
    13
 10
51.4899237
 20
36.2875470
 30
0.0000000
  0
VERTEX
  8
0
 62
    13
 10
51.2410800
 20
36.1893694
 30
0.0000000
  0
VERTEX
  8
0
 62
    13
 10
51.1971328
 20
36.1714807
 30
0.0000000
  0
VERTEX
  8
0
 62
    13
 10
50.2219065
 20
37.5137645
 30
0.0000000
  0
VERTEX
  8
0
 62
    13
 10
50.4146547
 20
37.7463540
 30
0.0000000
  0
VERTEX
  8
0
 62
    13
 10
50.5874735
 20
37.9631215
 30
0.0000000
  0
VERTEX
  8
0
 62
    13
 10
50.7678272
 20
38.1976194
 30
0.0000000
  0
VERTEX
  8
0
 62
    13
 10
50.9171528
 20
38.3982022
 30
0.0000000
  0
VERTEX
  8
0
 62
    13
 10
51.0706405
 20
38.6104998
 30
0.0000000
  0
VERTEX
  8
0
 62
    13
 10
51.2279909
 20
38.8346657
 30
0.0000000
  0
VERTEX
  8
0
 62
    13
 10
51.3889012
 20
39.0708473
 30
0.0000000
  0
VERTEX
  8
0
 62
    13
 10
51.5530653
 20
39.3191858
 30
0.0000000
  0
VERTEX
  8
0
 62
    13
 10
51.7201736
 20
39.5798161
 30
0.0000000
  0
VERTEX
  8
0
 62
    13
 10
51.8899139
 20
39.8528670
 30
0.0000000
  0
VERTEX
  8
0
 62
    13
 10
52.0619705
 20
40.1384607
 30
0.0000000
  0
VERTEX
  8
0
 62
    13
 10
52.1923416
 20
40.3609571
 30
0.0000000
  0
VERTEX
  8
0
 62
    13
 10
52.3237014
 20
40.5906209
 30
0.0000000
  0
VERTEX
  8
0
 62
    13
 10
52.4559136
 20
40.8274962
 30
0.0000000
  0
VERTEX
  8
0
 62
    13
 10
52.5888412
 20
41.0716257
 30
0.0000000
  0
VERTEX
  8
0
 62
    13
 10
52.7223465
 20
41.3230496
 30
0.0000000
  0
VERTEX
  8
0
 62
    13
 10
52.7290010
 20
41.3357489
 30
0.0000000
  0
VERTEX
  8
0
 62
    13
 10
52.5603871
 20
41.5499385
 30
0.0000000
  0
VERTEX
  8
0
 62
    13
 10
52.3909032
 20
41.7634402
 30
0.0000000
  0
VERTEX
  8
0
 62
    13
 10
52.2205520
 20
41.9762507
 30
0.0000000
  0
VERTEX
  8
0
 62
    13
 10
52.0493364
 20
42.1883663
 30
0.0000000
  0
VERTEX
  8
0
 62
    13
 10
51.8772593
 20
42.3997836
 30
0.0000000
  0
VERTEX
  8
0
 62
    13
 10
51.7400083
 20
42.5671612
 30
0.0000000
  0
VERTEX
  8
0
 62
    13
 10
51.4898301
 20
42.4980161
 30
0.0000000
  0
VERTEX
  8
0
 62
    13
 10
51.1453669
 20
42.3985346
 30
0.0000000
  0
VERTEX
  8
0
 62
    13
 10
50.8129447
 20
42.2976465
 30
0.0000000
  0
VERTEX
  8
0
 62
    13
 10
50.4925369
 20
42.1956582
 30
0.0000000
  0
VERTEX
  8
0
 62
    13
 10
50.1841105
 20
42.0928755
 30
0.0000000
  0
VERTEX
  8
0
 62
    13
 10
49.8876265
 20
41.9896026
 30
0.0000000
  0
VERTEX
  8
0
 62
    13
 10
49.6030401
 20
41.8861430
 30
0.0000000
  0
VERTEX
  8
0
 62
    13
 10
49.3303002
 20
41.7827983
 30
0.0000000
  0
VERTEX
  8
0
 62
    13
 10
49.0693500
 20
41.6798692
 30
0.0000000
  0
VERTEX
  8
0
 62
    13
 10
48.8201265
 20
41.5776545
 30
0.0000000
  0
VERTEX
  8
0
 62
    13
 10
48.5825608
 20
41.4764515
 30
0.0000000
  0
VERTEX
  8
0
 62
    13
 10
48.2838113
 20
41.3435983
 30
0.0000000
  0
VERTEX
  8
0
 62
    13
 10
48.0054603
 20
41.2137641
 30
0.0000000
  0
VERTEX
  8
0
 62
    13
 10
47.7472965
 20
41.0876379
 30
0.0000000
  0
VERTEX
  8
0
 62
    13
 10
47.5090900
 20
40.9659018
 30
0.0000000
  0
VERTEX
  8
0
 62
    13
 10
47.4670744
 20
40.9438550
 30
0.0000000
  0
VERTEX
  8
0
 62
    13
 10
46.3668518
 20
42.1857497
 30
0.0000000
  0
VERTEX
  8
0
 62
    13
 10
46.5362520
 20
42.4358562
 30
0.0000000
  0
VERTEX
  8
0
 62
    13
 10
46.6873430
 20
42.6682912
 30
0.0000000
  0
VERTEX
  8
0
 62
    13
 10
46.8442225
 20
42.9191010
 30
0.0000000
  0
VERTEX
  8
0
 62
    13
 10
46.9734919
 20
43.1331594
 30
0.0000000
  0
VERTEX
  8
0
 62
    13
 10
47.1057734
 20
43.3592796
 30
0.0000000
  0
VERTEX
  8
0
 62
    13
 10
47.2407541
 20
43.5975856
 30
0.0000000
  0
VERTEX
  8
0
 62
    13
 10
47.3781184
 20
43.8481947
 30
0.0000000
  0
VERTEX
  8
0
 62
    13
 10
47.5175479
 20
44.1112179
 30
0.0000000
  0
VERTEX
  8
0
 62
    13
 10
47.6587217
 20
44.3867598
 30
0.0000000
  0
VERTEX
  8
0
 62
    13
 10
47.8013163
 20
44.6749183
 30
0.0000000
  0
VERTEX
  8
0
 62
    13
 10
47.9450060
 20
44.9757846
 30
0.0000000
  0
VERTEX
  8
0
 62
    13
 10
48.0532945
 20
45.2098250
 30
0.0000000
  0
VERTEX
  8
0
 62
    13
 10
48.1618753
 20
45.4510946
 30
0.0000000
  0
VERTEX
  8
0
 62
    13
 10
48.2706085
 20
45.6996245
 30
0.0000000
  0
VERTEX
  8
0
 62
    13
 10
48.3793537
 20
45.9554436
 30
0.0000000
  0
VERTEX
  8
0
 62
    13
 10
48.4879698
 20
46.2185789
 30
0.0000000
  0
VERTEX
  8
0
 62
    13
 10
48.4933675
 20
46.2318611
 30
0.0000000
  0
VERTEX
  8
0
 62
    13
 10
48.3048685
 20
46.4287772
 30
0.0000000
  0
VERTEX
  8
0
 62
    13
 10
48.1155699
 20
46.6249247
 30
0.0000000
  0
VERTEX
  8
0
 62
    13
 10
47.9254749
 20
46.8203005
 30
0.0000000
  0
VERTEX
  8
0
 62
    13
 10
47.7345865
 20
47.0149011
 30
0.0000000
  0
VERTEX
  8
0
 62
    13
 10
47.5429079
 20
47.2087236
 30
0.0000000
  0
VERTEX
  8
0
 62
    13
 10
47.3901434
 20
47.3620732
 30
0.0000000
  0
VERTEX
  8
0
 62
    13
 10
47.1478066
 20
47.2691053
 30
0.0000000
  0
VERTEX
  8
0
 62
    13
 10
46.8145528
 20
47.1368427
 30
0.0000000
  0
VERTEX
  8
0
 62
    13
 10
46.4934197
 20
47.0043421
 30
0.0000000
  0
VERTEX
  8
0
 62
    13
 10
46.1843509
 20
46.8719062
 30
0.0000000
  0
VERTEX
  8
0
 62
    13
 10
45.8872843
 20
46.7398358
 30
0.0000000
  0
VERTEX
  8
0
 62
    13
 10
45.6021517
 20
46.6084303
 30
0.0000000
  0
VERTEX
  8
0
 62
    13
 10
45.3288791
 20
46.4779870
 30
0.0000000
  0
VERTEX
  8
0
 62
    13
 10
45.0673867
 20
46.3488017
 30
0.0000000
  0
VERTEX
  8
0
 62
    13
 10
44.8175887
 20
46.2211677
 30
0.0000000
  0
VERTEX
  8
0
 62
    13
 10
44.5793938
 20
46.0953766
 30
0.0000000
  0
VERTEX
  8
0
 62
    13
 10
44.3527047
 20
45.9717177
 30
0.0000000
  0
VERTEX
  8
0
 62
    13
 10
44.0681721
 20
45.8106513
 30
0.0000000
  0
VERTEX
  8
0
 62
    13
 10
43.8036514
 20
45.6545584
 30
0.0000000
  0
VERTEX
  8
0
 62
    13
 10
43.5588656
 20
45.5041046
 30
0.0000000
  0
VERTEX
  8
0
 62
    13
 10
43.3335204
 20
45.3599466
 30
0.0000000
  0
VERTEX
  8
0
 62
    13
 10
43.2938288
 20
45.3339476
 30
0.0000000
  0
VERTEX
  8
0
 62
    13
 10
42.0788823
 20
46.4638578
 30
0.0000000
  0
VERTEX
  8
0
 62
    13
 10
42.2233529
 20
46.7291463
 30
0.0000000
  0
VERTEX
  8
0
 62
    13
 10
42.3513053
 20
46.9750786
 30
0.0000000
  0
VERTEX
  8
0
 62
    13
 10
42.4832458
 20
47.2398586
 30
0.0000000
  0
VERTEX
  8
0
 62
    13
 10
42.5912522
 20
47.4653939
 30
0.0000000
  0
VERTEX
  8
0
 62
    13
 10
42.7010924
 20
47.7032255
 30
0.0000000
  0
VERTEX
  8
0
 62
    13
 10
42.8124431
 20
47.9534465
 30
0.0000000
  0
VERTEX
  8
0
 62
    13
 10
42.9249789
 20
48.2161433
 30
0.0000000
  0
VERTEX
  8
0
 62
    13
 10
43.0383721
 20
48.4913955
 30
0.0000000
  0
VERTEX
  8
0
 62
    13
 10
43.1522932
 20
48.7792763
 30
0.0000000
  0
VERTEX
  8
0
 62
    13
 10
43.2664108
 20
49.0798519
 30
0.0000000
  0
VERTEX
  8
0
 62
    13
 10
43.3803918
 20
49.3931817
 30
0.0000000
  0
VERTEX
  8
0
 62
    13
 10
43.4655867
 20
49.6365809
 30
0.0000000
  0
VERTEX
  8
0
 62
    13
 10
43.5503747
 20
49.8872037
 30
0.0000000
  0
VERTEX
  8
0
 62
    13
 10
43.6346137
 20
50.1450676
 30
0.0000000
  0
VERTEX
  8
0
 62
    13
 10
43.7181611
 20
50.4101879
 30
0.0000000
  0
VERTEX
  8
0
 62
    13
 10
43.8008740
 20
50.6825777
 30
0.0000000
  0
VERTEX
  8
0
 62
    13
 10
43.8049646
 20
50.6963189
 30
0.0000000
  0
VERTEX
  8
0
 62
    13
 10
43.5983404
 20
50.8741230
 30
0.0000000
  0
VERTEX
  8
0
 62
    13
 10
43.3909946
 20
51.0510849
 30
0.0000000
  0
VERTEX
  8
0
 62
    13
 10
43.1829305
 20
51.2272017
 30
0.0000000
  0
VERTEX
  8
0
 62
    13
 10
42.9741515
 20
51.4024705
 30
0.0000000
  0
VERTEX
  8
0
 62
    13
 10
42.7646612
 20
51.5768885
 30
0.0000000
  0
VERTEX
  8
0
 62
    13
 10
42.5978096
 20
51.7147783
 30
0.0000000
  0
VERTEX
  8
0
 62
    13
 10
42.3655768
 20
51.5988555
 30
0.0000000
  0
VERTEX
  8
0
 62
    13
 10
42.0466439
 20
51.4350467
 30
0.0000000
  0
VERTEX
  8
0
 62
    13
 10
41.7397980
 20
51.2721709
 30
0.0000000
  0
VERTEX
  8
0
 62
    13
 10
41.4449540
 20
51.1105238
 30
0.0000000
  0
VERTEX
  8
0
 62
    13
 10
41.1620208
 20
50.9503989
 30
0.0000000
  0
VERTEX
  8
0
 62
    13
 10
40.8909018
 20
50.7920876
 30
0.0000000
  0
VERTEX
  8
0
 62
    13
 10
40.6314946
 20
50.6358787
 30
0.0000000
  0
VERTEX
  8
0
 62
    13
 10
40.3836911
 20
50.4820587
 30
0.0000000
  0
VERTEX
  8
0
 62
    13
 10
40.1473777
 20
50.3309116
 30
0.0000000
  0
VERTEX
  8
0
 62
    13
 10
39.9224354
 20
50.1827187
 30
0.0000000
  0
VERTEX
  8
0
 62
    13
 10
39.7087394
 20
50.0377584
 30
0.0000000
  0
VERTEX
  8
0
 62
    13
 10
39.4410802
 20
49.8499825
 30
0.0000000
  0
VERTEX
  8
0
 62
    13
 10
39.1928595
 20
49.6690884
 30
0.0000000
  0
VERTEX
  8
0
 62
    13
 10
38.9637374
 20
49.4957117
 30
0.0000000
  0
VERTEX
  8
0
 62
    13
 10
38.7533574
 20
49.3304777
 30
0.0000000
  0
VERTEX
  8
0
 62
    13
 10
38.7163604
 20
49.3007693
 30
0.0000000
  0
VERTEX
  8
0
 62
    13
 10
37.3980336
 20
50.3081455
 30
0.0000000
  0
VERTEX
  8
0
 62
    13
 10
37.5162258
 20
50.5861389
 30
0.0000000
  0
VERTEX
  8
0
 62
    13
 10
37.6198450
 20
50.8432723
 30
0.0000000
  0
VERTEX
  8
0
 62
    13
 10
37.7256145
 20
51.1195503
 30
0.0000000
  0
VERTEX
  8
0
 62
    13
 10
37.8113494
 20
51.3544569
 30
0.0000000
  0
VERTEX
  8
0
 62
    13
 10
37.8977227
 20
51.6017793
 30
0.0000000
  0
VERTEX
  8
0
 62
    13
 10
37.9844038
 20
51.8615791
 30
0.0000000
  0
VERTEX
  8
0
 62
    13
 10
38.0710603
 20
52.1339107
 30
0.0000000
  0
VERTEX
  8
0
 62
    13
 10
38.1573585
 20
52.4188220
 30
0.0000000
  0
VERTEX
  8
0
 62
    13
 10
38.2429633
 20
52.7163539
 30
0.0000000
  0
VERTEX
  8
0
 62
    13
 10
38.3275385
 20
53.0265402
 30
0.0000000
  0
VERTEX
  8
0
 62
    13
 10
38.4107467
 20
53.3494080
 30
0.0000000
  0
VERTEX
  8
0
 62
    13
 10
38.4720524
 20
53.5998934
 30
0.0000000
  0
VERTEX
  8
0
 62
    13
 10
38.5322560
 20
53.8575294
 30
0.0000000
  0
VERTEX
  8
0
 62
    13
 10
38.5912143
 20
54.1223198
 30
0.0000000
  0
VERTEX
  8
0
 62
    13
 10
38.6487839
 20
54.3942659
 30
0.0000000
  0
VERTEX
  8
0
 62
    13
 10
38.7048212
 20
54.6733670
 30
0.0000000
  0
VERTEX
  8
0
 62
    13
 10
38.7075665
 20
54.6874389
 30
0.0000000
  0
VERTEX
  8
0
 62
    13
 10
38.4847464
 20
54.8444708
 30
0.0000000
  0
VERTEX
  8
0
 62
    13
 10
38.2612892
 20
55.0005948
 30
0.0000000
  0
VERTEX
  8
0
 62
    13
 10
38.0371987
 20
55.1558083
 30
0.0000000
  0
VERTEX
  8
0
 62
    13
 10
37.8124785
 20
55.3101089
 30
0.0000000
  0
VERTEX
  8
0
 62
    13
 10
37.5871324
 20
55.4634939
 30
0.0000000
  0
VERTEX
  8
0
 62
    13
 10
37.4077514
 20
55.5846365
 30
0.0000000
  0
VERTEX
  8
0
 62
    13
 10
37.1877909
 20
55.4468411
 30
0.0000000
  0
VERTEX
  8
0
 62
    13
 10
36.8861568
 20
55.2530156
 30
0.0000000
  0
VERTEX
  8
0
 62
    13
 10
36.5964632
 20
55.0612853
 30
0.0000000
  0
VERTEX
  8
0
 62
    13
 10
36.3185968
 20
54.8719362
 30
0.0000000
  0
VERTEX
  8
0
 62
    13
 10
36.0524387
 20
54.6852519
 30
0.0000000
  0
VERTEX
  8
0
 62
    13
 10
35.7978646
 20
54.5015128
 30
0.0000000
  0
VERTEX
  8
0
 62
    13
 10
35.5547447
 20
54.3209967
 30
0.0000000
  0
VERTEX
  8
0
 62
    13
 10
35.3229438
 20
54.1439784
 30
0.0000000
  0
VERTEX
  8
0
 62
    13
 10
35.1023215
 20
53.9707294
 30
0.0000000
  0
VERTEX
  8
0
 62
    13
 10
34.8927319
 20
53.8015182
 30
0.0000000
  0
VERTEX
  8
0
 62
    13
 10
34.6940242
 20
53.6366100
 30
0.0000000
  0
VERTEX
  8
0
 62
    13
 10
34.4457375
 20
53.4238778
 30
0.0000000
  0
VERTEX
  8
0
 62
    13
 10
34.2161344
 20
53.2198715
 30
0.0000000
  0
VERTEX
  8
0
 62
    13
 10
34.0048152
 20
53.0251907
 30
0.0000000
  0
VERTEX
  8
0
 62
    13
 10
33.8113648
 20
52.8404235
 30
0.0000000
  0
VERTEX
  8
0
 62
    13
 10
33.7774077
 20
52.8072831
 30
0.0000000
  0
VERTEX
  8
0
 62
    13
 10
32.3680095
 20
53.6827195
 30
0.0000000
  0
VERTEX
  8
0
 62
    13
 10
32.4588197
 20
53.9708224
 30
0.0000000
  0
VERTEX
  8
0
 62
    13
 10
32.5371382
 20
54.2367561
 30
0.0000000
  0
VERTEX
  8
0
 62
    13
 10
32.6157493
 20
54.5219525
 30
0.0000000
  0
VERTEX
  8
0
 62
    13
 10
32.6784122
 20
54.7640371
 30
0.0000000
  0
VERTEX
  8
0
 62
    13
 10
32.7405123
 20
55.0185412
 30
0.0000000
  0
VERTEX
  8
0
 62
    13
 10
32.8017144
 20
55.2854940
 30
0.0000000
  0
VERTEX
  8
0
 62
    13
 10
32.8616826
 20
55.5649179
 30
0.0000000
  0
VERTEX
  8
0
 62
    13
 10
32.9200800
 20
55.8568281
 30
0.0000000
  0
VERTEX
  8
0
 62
    13
 10
32.9765692
 20
56.1612330
 30
0.0000000
  0
VERTEX
  8
0
 62
    13
 10
33.0308122
 20
56.4781339
 30
0.0000000
  0
VERTEX
  8
0
 62
    13
 10
33.0824708
 20
56.8075252
 30
0.0000000
  0
VERTEX
  8
0
 62
    13
 10
33.1193149
 20
57.0627581
 30
0.0000000
  0
VERTEX
  8
0
 62
    13
 10
33.1543720
 20
57.3250019
 30
0.0000000
  0
VERTEX
  8
0
 62
    13
 10
33.1874991
 20
57.5942464
 30
0.0000000
  0
VERTEX
  8
0
 62
    13
 10
33.2185534
 20
57.8704793
 30
0.0000000
  0
VERTEX
  8
0
 62
    13
 10
33.2473920
 20
58.1536859
 30
0.0000000
  0
VERTEX
  8
0
 62
    13
 10
33.2487663
 20
58.1679570
 30
0.0000000
  0
VERTEX
  8
0
 62
    13
 10
33.0118306
 20
58.3027505
 30
0.0000000
  0
VERTEX
  8
0
 62
    13
 10
32.7743485
 20
58.4365789
 30
0.0000000
  0
VERTEX
  8
0
 62
    13
 10
32.5363238
 20
58.5694401
 30
0.0000000
  0
VERTEX
  8
0
 62
    13
 10
32.2977606
 20
58.7013316
 30
0.0000000
  0
VERTEX
  8
0
 62
    13
 10
32.0586627
 20
58.8322515
 30
0.0000000
  0
VERTEX
  8
0
 62
    13
 10
31.8684271
 20
58.9355158
 30
0.0000000
  0
VERTEX
  8
0
 62
    13
 10
31.6627927
 20
58.7771345
 30
0.0000000
  0
VERTEX
  8
0
 62
    13
 10
31.3812735
 20
58.5551020
 30
0.0000000
  0
VERTEX
  8
0
 62
    13
 10
31.1114370
 20
58.3363072
 30
0.0000000
  0
VERTEX
  8
0
 62
    13
 10
30.8531426
 20
58.1210241
 30
0.0000000
  0
VERTEX
  8
0
 62
    13
 10
30.6062447
 20
57.9095233
 30
0.0000000
  0
VERTEX
  8
0
 62
    13
 10
30.3705924
 20
57.7020721
 30
0.0000000
  0
VERTEX
  8
0
 62
    13
 10
30.1460298
 20
57.4989343
 30
0.0000000
  0
VERTEX
  8
0
 62
    13
 10
29.9323958
 20
57.3003703
 30
0.0000000
  0
VERTEX
  8
0
 62
    13
 10
29.7295243
 20
57.1066370
 30
0.0000000
  0
VERTEX
  8
0
 62
    13
 10
29.5372444
 20
56.9179874
 30
0.0000000
  0
VERTEX
  8
0
 62
    13
 10
29.3553803
 20
56.7346710
 30
0.0000000
  0
VERTEX
  8
0
 62
    13
 10
29.1287843
 20
56.4989688
 30
0.0000000
  0
VERTEX
  8
0
 62
    13
 10
28.9199425
 20
56.2737550
 30
0.0000000
  0
VERTEX
  8
0
 62
    13
 10
28.7283992
 20
56.0595878
 30
0.0000000
  0
VERTEX
  8
0
 62
    13
 10
28.5536845
 20
55.8570125
 30
0.0000000
  0
VERTEX
  8
0
 62
    13
 10
28.5230845
 20
55.8207494
 30
0.0000000
  0
VERTEX
  8
0
 62
    13
 10
27.0357741
 20
56.5560725
 30
0.0000000
  0
VERTEX
  8
0
 62
    13
 10
27.0983544
 20
56.8515949
 30
0.0000000
  0
VERTEX
  8
0
 62
    13
 10
27.1506410
 20
57.1238459
 30
0.0000000
  0
VERTEX
  8
0
 62
    13
 10
27.2013597
 20
57.4152980
 30
0.0000000
  0
VERTEX
  8
0
 62
    13
 10
27.2403655
 20
57.6623002
 30
0.0000000
  0
VERTEX
  8
0
 62
    13
 10
27.2776125
 20
57.9216097
 30
0.0000000
  0
VERTEX
  8
0
 62
    13
 10
27.3127642
 20
58.1932232
 30
0.0000000
  0
VERTEX
  8
0
 62
    13
 10
27.3454842
 20
58.4771304
 30
0.0000000
  0
VERTEX
  8
0
 62
    13
 10
27.3754355
 20
58.7733140
 30
0.0000000
  0
VERTEX
  8
0
 62
    13
 10
27.4022817
 20
59.0817498
 30
0.0000000
  0
VERTEX
  8
0
 62
    13
 10
27.4256861
 20
59.4024066
 30
0.0000000
  0
VERTEX
  8
0
 62
    13
 10
27.4453127
 20
59.7352459
 30
0.0000000
  0
VERTEX
  8
0
 62
    13
 10
27.4573514
 20
59.9928433
 30
0.0000000
  0
VERTEX
  8
0
 62
    13
 10
27.4669346
 20
60.2572463
 30
0.0000000
  0
VERTEX
  8
0
 62
    13
 10
27.4739212
 20
60.5284311
 30
0.0000000
  0
VERTEX
  8
0
 62
    13
 10
27.4781702
 20
60.8063716
 30
0.0000000
  0
VERTEX
  8
0
 62
    13
 10
27.4795408
 20
61.0910394
 30
0.0000000
  0
VERTEX
  8
0
 62
    13
 10
27.4795313
 20
61.1053765
 30
0.0000000
  0
VERTEX
  8
0
 62
    13
 10
27.2306923
 20
61.2166732
 30
0.0000000
  0
VERTEX
  8
0
 62
    13
 10
26.9814025
 20
61.3269565
 30
0.0000000
  0
VERTEX
  8
0
 62
    13
 10
26.7316661
 20
61.4362247
 30
0.0000000
  0
VERTEX
  8
0
 62
    13
 10
26.4814872
 20
61.5444759
 30
0.0000000
  0
VERTEX
  8
0
 62
    13
 10
26.2308699
 20
61.6517083
 30
0.0000000
  0
VERTEX
  8
0
 62
    13
 10
26.0315560
 20
61.7361302
 30
0.0000000
  0
VERTEX
  8
0
 62
    13
 10
25.8421675
 20
61.5586417
 30
0.0000000
  0
VERTEX
  8
0
 62
    13
 10
25.5833918
 20
61.3104751
 30
0.0000000
  0
VERTEX
  8
0
 62
    13
 10
25.3359317
 20
61.0666588
 30
0.0000000
  0
VERTEX
  8
0
 62
    13
 10
25.0996209
 20
60.8274517
 30
0.0000000
  0
VERTEX
  8
0
 62
    13
 10
24.8742884
 20
60.5931092
 30
0.0000000
  0
VERTEX
  8
0
 62
    13
 10
24.6597582
 20
60.3638827
 30
0.0000000
  0
VERTEX
  8
0
 62
    13
 10
24.4558495
 20
60.1400198
 30
0.0000000
  0
VERTEX
  8
0
 62
    13
 10
24.2623770
 20
59.9217642
 30
0.0000000
  0
VERTEX
  8
0
 62
    13
 10
24.0791506
 20
59.7093553
 30
0.0000000
  0
VERTEX
  8
0
 62
    13
 10
23.9059757
 20
59.5030287
 30
0.0000000
  0
VERTEX
  8
0
 62
    13
 10
23.7426531
 20
59.3030157
 30
0.0000000
  0
VERTEX
  8
0
 62
    13
 10
23.5398635
 20
59.0465442
 30
0.0000000
  0
VERTEX
  8
0
 62
    13
 10
23.3537329
 20
58.8022256
 30
0.0000000
  0
VERTEX
  8
0
 62
    13
 10
23.1837540
 20
58.5705716
 30
0.0000000
  0
VERTEX
  8
0
 62
    13
 10
23.0294062
 20
58.3520796
 30
0.0000000
  0
VERTEX
  8
0
 62
    13
 10
23.0024489
 20
58.3130325
 30
0.0000000
  0
VERTEX
  8
0
 62
    13
 10
21.4511129
 20
58.9013767
 30
0.0000000
  0
VERTEX
  8
0
 62
    13
 10
21.4848791
 20
59.2015593
 30
0.0000000
  0
VERTEX
  8
0
 62
    13
 10
21.5106455
 20
59.4775857
 30
0.0000000
  0
VERTEX
  8
0
 62
    13
 10
21.5329983
 20
59.7725723
 30
0.0000000
  0
VERTEX
  8
0
 62
    13
 10
21.5479828
 20
60.0221860
 30
0.0000000
  0
VERTEX
  8
0
 62
    13
 10
21.5600289
 20
60.2838798
 30
0.0000000
  0
VERTEX
  8
0
 62
    13
 10
21.5688021
 20
60.5576179
 30
0.0000000
  0
VERTEX
  8
0
 62
    13
 10
21.5739683
 20
60.8433577
 30
0.0000000
  0
VERTEX
  8
0
 62
    13
 10
21.5751940
 20
61.1410493
 30
0.0000000
  0
VERTEX
  8
0
 62
    13
 10
21.5721465
 20
61.4506363
 30
0.0000000
  0
VERTEX
  8
0
 62
    13
 10
21.5644939
 20
61.7720549
 30
0.0000000
  0
VERTEX
  8
0
 62
    13
 10
21.5519052
 20
62.1052347
 30
0.0000000
  0
VERTEX
  8
0
 62
    13
 10
21.5390259
 20
62.3627914
 30
0.0000000
  0
VERTEX
  8
0
 62
    13
 10
21.5230458
 20
62.6268850
 30
0.0000000
  0
VERTEX
  8
0
 62
    13
 10
21.5038267
 20
62.8974781
 30
0.0000000
  0
VERTEX
  8
0
 62
    13
 10
21.4812307
 20
63.1745312
 30
0.0000000
  0
VERTEX
  8
0
 62
    13
 10
21.4551205
 20
63.4580023
 30
0.0000000
  0
VERTEX
  8
0
 62
    13
 10
21.4537273
 20
63.4722716
 30
0.0000000
  0
VERTEX
  8
0
 62
    13
 10
21.1953083
 20
63.5590323
 30
0.0000000
  0
VERTEX
  8
0
 62
    13
 10
20.9365384
 20
63.6447408
 30
0.0000000
  0
VERTEX
  8
0
 62
    13
 10
20.6774220
 20
63.7293959
 30
0.0000000
  0
VERTEX
  8
0
 62
    13
 10
20.4179632
 20
63.8129960
 30
0.0000000
  0
VERTEX
  8
0
 62
    13
 10
20.1581665
 20
63.8955397
 30
0.0000000
  0
VERTEX
  8
0
 62
    13
 10
19.9516352
 20
63.9603309
 30
0.0000000
  0
VERTEX
  8
0
 62
    13
 10
19.7802609
 20
63.7653924
 30
0.0000000
  0
VERTEX
  8
0
 62
    13
 10
19.5466448
 20
63.4934089
 30
0.0000000
  0
VERTEX
  8
0
 62
    13
 10
19.3238716
 20
63.2268474
 30
0.0000000
  0
VERTEX
  8
0
 62
    13
 10
19.1117508
 20
62.9659498
 30
0.0000000
  0
VERTEX
  8
0
 62
    13
 10
18.9100876
 20
62.7109536
 30
0.0000000
  0
VERTEX
  8
0
 62
    13
 10
18.7186824
 20
62.4620920
 30
0.0000000
  0
VERTEX
  8
0
 62
    13
 10
18.5373316
 20
62.2195942
 30
0.0000000
  0
VERTEX
  8
0
 62
    13
 10
18.3658270
 20
61.9836846
 30
0.0000000
  0
VERTEX
  8
0
 62
    13
 10
18.2039563
 20
61.7545835
 30
0.0000000
  0
VERTEX
  8
0
 62
    13
 10
18.0515032
 20
61.5325063
 30
0.0000000
  0
VERTEX
  8
0
 62
    13
 10
17.9082472
 20
61.3176641
 30
0.0000000
  0
VERTEX
  8
0
 62
    13
 10
17.7311573
 20
61.0428179
 30
0.0000000
  0
VERTEX
  8
0
 62
    13
 10
17.5694758
 20
60.7816757
 30
0.0000000
  0
VERTEX
  8
0
 62
    13
 10
17.4226482
 20
60.5346978
 30
0.0000000
  0
VERTEX
  8
0
 62
    13
 10
17.2901085
 20
60.3023291
 30
0.0000000
  0
VERTEX
  8
0
 62
    13
 10
17.2670457
 20
60.2608625
 30
0.0000000
  0
VERTEX
  8
0
 62
    13
 10
15.6661684
 20
60.6967345
 30
0.0000000
  0
VERTEX
  8
0
 62
    13
 10
15.6708052
 20
60.9987747
 30
0.0000000
  0
VERTEX
  8
0
 62
    13
 10
15.6698110
 20
61.2759994
 30
0.0000000
  0
VERTEX
  8
0
 62
    13
 10
15.6635890
 20
61.5717662
 30
0.0000000
  0
VERTEX
  8
0
 62
    13
 10
15.6544124
 20
61.8216609
 30
0.0000000
  0
VERTEX
  8
0
 62
    13
 10
15.6411452
 20
62.0832956
 30
0.0000000
  0
VERTEX
  8
0
 62
    13
 10
15.6234579
 20
62.3566025
 30
0.0000000
  0
VERTEX
  8
0
 62
    13
 10
15.6010221
 20
62.6415069
 30
0.0000000
  0
VERTEX
  8
0
 62
    13
 10
15.5735107
 20
62.9379272
 30
0.0000000
  0
VERTEX
  8
0
 62
    13
 10
15.5405980
 20
63.2457747
 30
0.0000000
  0
VERTEX
  8
0
 62
    13
 10
15.5019597
 20
63.5649543
 30
0.0000000
  0
VERTEX
  8
0
 62
    13
 10
15.4572733
 20
63.8953636
 30
0.0000000
  0
VERTEX
  8
0
 62
    13
 10
15.4195963
 20
64.1504749
 30
0.0000000
  0
VERTEX
  8
0
 62
    13
 10
15.3782021
 20
64.4117934
 30
0.0000000
  0
VERTEX
  8
0
 62
    13
 10
15.3329568
 20
64.6792684
 30
0.0000000
  0
VERTEX
  8
0
 62
    13
 10
15.2837268
 20
64.9528472
 30
0.0000000
  0
VERTEX
  8
0
 62
    13
 10
15.2303795
 20
65.2324750
 30
0.0000000
  0
VERTEX
  8
0
 62
    13
 10
15.2276157
 20
65.2465432
 30
0.0000000
  0
VERTEX
  8
0
 62
    13
 10
14.9620294
 20
65.3079578
 30
0.0000000
  0
VERTEX
  8
0
 62
    13
 10
14.6961955
 20
65.3682913
 30
0.0000000
  0
VERTEX
  8
0
 62
    13
 10
14.4301183
 20
65.4275428
 30
0.0000000
  0
VERTEX
  8
0
 62
    13
 10
14.1638023
 20
65.4857113
 30
0.0000000
  0
VERTEX
  8
0
 62
    13
 10
13.8972518
 20
65.5427957
 30
0.0000000
  0
VERTEX
  8
0
 62
    13
 10
13.6854313
 20
65.5873513
 30
0.0000000
  0
VERTEX
  8
0
 62
    13
 10
13.5336714
 20
65.3767828
 30
0.0000000
  0
VERTEX
  8
0
 62
    13
 10
13.3273961
 20
65.0835218
 30
0.0000000
  0
VERTEX
  8
0
 62
    13
 10
13.1313898
 20
64.7967040
 30
0.0000000
  0
VERTEX
  8
0
 62
    13
 10
12.9454395
 20
64.5165518
 30
0.0000000
  0
VERTEX
  8
0
 62
    13
 10
12.7693284
 20
64.2432826
 30
0.0000000
  0
VERTEX
  8
0
 62
    13
 10
12.6028354
 20
63.9771096
 30
0.0000000
  0
VERTEX
  8
0
 62
    13
 10
12.4457355
 20
63.7182409
 30
0.0000000
  0
VERTEX
  8
0
 62
    13
 10
12.2978001
 20
63.4668801
 30
0.0000000
  0
VERTEX
  8
0
 62
    13
 10
12.1587966
 20
63.2232257
 30
0.0000000
  0
VERTEX
  8
0
 62
    13
 10
12.0284888
 20
62.9874714
 30
0.0000000
  0
VERTEX
  8
0
 62
    13
 10
11.9066368
 20
62.7598060
 30
0.0000000
  0
VERTEX
  8
0
 62
    13
 10
11.7569001
 20
62.4691512
 30
0.0000000
  0
VERTEX
  8
0
 62
    13
 10
11.6211772
 20
62.1936236
 30
0.0000000
  0
VERTEX
  8
0
 62
    13
 10
11.4988719
 20
61.9336278
 30
0.0000000
  0
VERTEX
  8
0
 62
    13
 10
11.3893778
 20
61.6895519
 30
0.0000000
  0
VERTEX
  8
0
 62
    13
 10
11.3704247
 20
61.6460531
 30
0.0000000
  0
VERTEX
  8
0
 62
    13
 10
9.7349532
 20
61.9253833
 30
0.0000000
  0
VERTEX
  8
0
 62
    13
 10
9.7104172
 20
62.2264610
 30
0.0000000
  0
VERTEX
  8
0
 62
    13
 10
9.6826716
 20
62.5022955
 30
0.0000000
  0
VERTEX
  8
0
 62
    13
 10
9.6479331
 20
62.7960811
 30
0.0000000
  0
VERTEX
  8
0
 62
    13
 10
9.6146810
 20
63.0439235
 30
0.0000000
  0
VERTEX
  8
0
 62
    13
 10
9.5762244
 20
63.3030563
 30
0.0000000
  0
VERTEX
  8
0
 62
    13
 10
9.5322417
 20
63.5733803
 30
0.0000000
  0
VERTEX
  8
0
 62
    13
 10
9.4824134
 20
63.8547893
 30
0.0000000
  0
VERTEX
  8
0
 62
    13
 10
9.4264218
 20
64.1471705
 30
0.0000000
  0
VERTEX
  8
0
 62
    13
 10
9.3639511
 20
64.4504044
 30
0.0000000
  0
VERTEX
  8
0
 62
    13
 10
9.2946879
 20
64.7643648
 30
0.0000000
  0
VERTEX
  8
0
 62
    13
 10
9.2183210
 20
65.0889188
 30
0.0000000
  0
VERTEX
  8
0
 62
    13
 10
9.1561981
 20
65.3392028
 30
0.0000000
  0
VERTEX
  8
0
 62
    13
 10
9.0897764
 20
65.5953062
 30
0.0000000
  0
VERTEX
  8
0
 62
    13
 10
9.0189271
 20
65.8571657
 30
0.0000000
  0
VERTEX
  8
0
 62
    13
 10
8.9435228
 20
66.1247160
 30
0.0000000
  0
VERTEX
  8
0
 62
    13
 10
8.8634366
 20
66.3978896
 30
0.0000000
  0
VERTEX
  8
0
 62
    13
 10
8.8593279
 20
66.4116254
 30
0.0000000
  0
VERTEX
  8
0
 62
    13
 10
8.5890541
 20
66.4471205
 30
0.0000000
  0
VERTEX
  8
0
 62
    13
 10
8.3186382
 20
66.4815157
 30
0.0000000
  0
VERTEX
  8
0
 62
    13
 10
8.0480846
 20
66.5148105
 30
0.0000000
  0
VERTEX
  8
0
 62
    13
 10
7.7773977
 20
66.5470041
 30
0.0000000
  0
VERTEX
  8
0
 62
    13
 10
7.5065821
 20
66.5780963
 30
0.0000000
  0
VERTEX
  8
0
 62
    13
 10
7.2914503
 20
66.6020002
 30
0.0000000
  0
VERTEX
  8
0
 62
    13
 10
7.1607217
 20
66.3777677
 30
0.0000000
  0
VERTEX
  8
0
 62
    13
 10
6.9837131
 20
66.0659674
 30
0.0000000
  0
VERTEX
  8
0
 62
    13
 10
6.8163037
 20
65.7615713
 30
0.0000000
  0
VERTEX
  8
0
 62
    13
 10
6.6582601
 20
65.4647801
 30
0.0000000
  0
VERTEX
  8
0
 62
    13
 10
6.5093454
 20
65.1757895
 30
0.0000000
  0
VERTEX
  8
0
 62
    13
 10
6.3693190
 20
64.8947901
 30
0.0000000
  0
VERTEX
  8
0
 62
    13
 10
6.2379370
 20
64.6219676
 30
0.0000000
  0
VERTEX
  8
0
 62
    13
 10
6.1149521
 20
64.3575024
 30
0.0000000
  0
VERTEX
  8
0
 62
    13
 10
6.0001135
 20
64.1015697
 30
0.0000000
  0
VERTEX
  8
0
 62
    13
 10
5.8931675
 20
63.8543395
 30
0.0000000
  0
VERTEX
  8
0
 62
    13
 10
5.7938573
 20
63.6159765
 30
0.0000000
  0
VERTEX
  8
0
 62
    13
 10
5.6728719
 20
63.3122270
 30
0.0000000
  0
VERTEX
  8
0
 62
    13
 10
5.5643749
 20
63.0248864
 30
0.0000000
  0
VERTEX
  8
0
 62
    13
 10
5.4677337
 20
62.7543002
 30
0.0000000
  0
VERTEX
  8
0
 62
    13
 10
5.3823074
 20
62.5007961
 30
0.0000000
  0
VERTEX
  8
0
 62
    13
 10
5.3676411
 20
62.4556710
 30
0.0000000
  0
VERTEX
  8
0
 62
    13
 10
3.7128453
 20
62.5758515
 30
0.0000000
  0
VERTEX
  8
0
 62
    13
 10
3.6593657
 20
62.8731556
 30
0.0000000
  0
VERTEX
  8
0
 62
    13
 10
3.6051278
 20
63.1450246
 30
0.0000000
  0
VERTEX
  8
0
 62
    13
 10
3.5421970
 20
63.4340859
 30
0.0000000
  0
VERTEX
  8
0
 62
    13
 10
3.4851800
 20
63.6775620
 30
0.0000000
  0
VERTEX
  8
0
 62
    13
 10
3.4218929
 20
63.9317735
 30
0.0000000
  0
VERTEX
  8
0
 62
    13
 10
3.3520255
 20
64.1965906
 30
0.0000000
  0
VERTEX
  8
0
 62
    13
 10
3.2752700
 20
64.4718767
 30
0.0000000
  0
VERTEX
  8
0
 62
    13
 10
3.1913208
 20
64.7574890
 30
0.0000000
  0
VERTEX
  8
0
 62
    13
 10
3.0998755
 20
65.0532780
 30
0.0000000
  0
VERTEX
  8
0
 62
    13
 10
3.0006341
 20
65.3590878
 30
0.0000000
  0
VERTEX
  8
0
 62
    13
 10
2.8932998
 20
65.6747563
 30
0.0000000
  0
VERTEX
  8
0
 62
    13
 10
2.8073110
 20
65.9178761
 30
0.0000000
  0
VERTEX
  8
0
 62
    13
 10
2.7164818
 20
66.1663733
 30
0.0000000
  0
VERTEX
  8
0
 62
    13
 10
2.6206902
 20
66.4201724
 30
0.0000000
  0
VERTEX
  8
0
 62
    13
 10
2.5198156
 20
66.6791961
 30
0.0000000
  0
VERTEX
  8
0
 62
    13
 10
2.4137382
 20
66.9433650
 30
0.0000000
  0
VERTEX
  8
0
 62
    13
 10
2.4083230
 20
66.9566401
 30
0.0000000
  0
VERTEX
  8
0
 62
    13
 10
2.1358852
 20
66.9658844
 30
0.0000000
  0
VERTEX
  8
0
 62
    13
 10
1.8634120
 20
66.9740201
 30
0.0000000
  0
VERTEX
  8
0
 62
    13
 10
1.5909080
 20
66.9810472
 30
0.0000000
  0
VERTEX
  8
0
 62
    13
 10
1.3183777
 20
66.9869656
 30
0.0000000
  0
VERTEX
  8
0
 62
    13
 10
1.0458255
 20
66.9917751
 30
0.0000000
  0
VERTEX
  8
0
 62
    13
 10
0.8293910
 20
66.9948042
 30
0.0000000
  0
VERTEX
  8
0
 62
    13
 10
0.7209142
 20
66.7590014
 30
0.0000000
  0
VERTEX
  8
0
 62
    13
 10
0.5748250
 20
66.4315728
 30
0.0000000
  0
VERTEX
  8
0
 62
    13
 10
0.4375756
 20
66.1124404
 30
0.0000000
  0
VERTEX
  8
0
 62
    13
 10
0.3089143
 20
65.8017813
 30
0.0000000
  0
VERTEX
  8
0
 62
    13
 10
0.1885864
 20
65.4997675
 30
0.0000000
  0
VERTEX
  8
0
 62
    13
 10
0.0763341
 20
65.2065655
 30
0.0000000
  0
VERTEX
  8
0
 62
    13
 10
-0.0281034
 20
64.9223364
 30
0.0000000
  0
VERTEX
  8
0
 62
    13
 10
-0.1249897
 20
64.6472361
 30
0.0000000
  0
VERTEX
  8
0
 62
    13
 10
-0.2145910
 20
64.3814147
 30
0.0000000
  0
VERTEX
  8
0
 62
    13
 10
-0.2971766
 20
64.1250169
 30
0.0000000
  0
VERTEX
  8
0
 62
    13
 10
-0.3730179
 20
63.8781817
 30
0.0000000
  0
VERTEX
  8
0
 62
    13
 10
-0.4641224
 20
63.5641735
 30
0.0000000
  0
VERTEX
  8
0
 62
    13
 10
-0.5443806
 20
63.2677029
 30
0.0000000
  0
VERTEX
  8
0
 62
    13
 10
-0.6144553
 20
62.9890526
 30
0.0000000
  0
VERTEX
  8
0
 62
    13
 10
-0.6750160
 20
62.7284871
 30
0.0000000
  0
VERTEX
  8
0
 62
    13
 10
-0.6852587
 20
62.6821572
 30
0.0000000
  0
VERTEX
  8
0
 62
    13
 10
-2.3439284
 20
62.6420659
 30
0.0000000
  0
VERTEX
  8
0
 62
    13
 10
-2.4258523
 20
62.9328205
 30
0.0000000
  0
VERTEX
  8
0
 62
    13
 10
-2.5060762
 20
63.1981855
 30
0.0000000
  0
VERTEX
  8
0
 62
    13
 10
-2.5966116
 20
63.4798237
 30
0.0000000
  0
VERTEX
  8
0
 62
    13
 10
-2.6768613
 20
63.7166603
 30
0.0000000
  0
VERTEX
  8
0
 62
    13
 10
-2.7643879
 20
63.9635769
 30
0.0000000
  0
VERTEX
  8
0
 62
    13
 10
-2.8594876
 20
64.2204146
 30
0.0000000
  0
VERTEX
  8
0
 62
    13
 10
-2.9624538
 20
64.4870076
 30
0.0000000
  0
VERTEX
  8
0
 62
    13
 10
-3.0735766
 20
64.7631843
 30
0.0000000
  0
VERTEX
  8
0
 62
    13
 10
-3.1931428
 20
65.0487667
 30
0.0000000
  0
VERTEX
  8
0
 62
    13
 10
-3.3214358
 20
65.3435707
 30
0.0000000
  0
VERTEX
  8
0
 62
    13
 10
-3.4587355
 20
65.6474062
 30
0.0000000
  0
VERTEX
  8
0
 62
    13
 10
-3.5677872
 20
65.8810920
 30
0.0000000
  0
VERTEX
  8
0
 62
    13
 10
-3.6821759
 20
66.1196628
 30
0.0000000
  0
VERTEX
  8
0
 62
    13
 10
-3.8020154
 20
66.3630319
 30
0.0000000
  0
VERTEX
  8
0
 62
    13
 10
-3.9274185
 20
66.6111105
 30
0.0000000
  0
VERTEX
  8
0
 62
    13
 10
-4.0584966
 20
66.8638083
 30
0.0000000
  0
VERTEX
  8
0
 62
    13
 10
-4.0651678
 20
66.8764988
 30
0.0000000
  0
VERTEX
  8
0
 62
    13
 10
-4.3372260
 20
66.8594058
 30
0.0000000
  0
VERTEX
  8
0
 62
    13
 10
-4.6092124
 20
66.8412061
 30
0.0000000
  0
VERTEX
  8
0
 62
    13
 10
-4.8811224
 20
66.8219000
 30
0.0000000
  0
VERTEX
  8
0
 62
    13
 10
-5.1529517
 20
66.8014877
 30
0.0000000
  0
VERTEX
  8
0
 62
    13
 10
-5.4246956
 20
66.7799697
 30
0.0000000
  0
VERTEX
  8
0
 62
    13
 10
-5.6404122
 20
66.7620957
 30
0.0000000
  0
VERTEX
  8
0
 62
    13
 10
-5.7256243
 20
66.5169242
 30
0.0000000
  0
VERTEX
  8
0
 62
    13
 10
-5.8394300
 20
66.1769246
 30
0.0000000
  0
VERTEX
  8
0
 62
    13
 10
-5.9452380
 20
65.8460355
 30
0.0000000
  0
VERTEX
  8
0
 62
    13
 10
-6.0433157
 20
65.5244091
 30
0.0000000
  0
VERTEX
  8
0
 62
    13
 10
-6.1339334
 20
65.2121919
 30
0.0000000
  0
VERTEX
  8
0
 62
    13
 10
-6.2173636
 20
64.9095247
 30
0.0000000
  0
VERTEX
  8
0
 62
    13
 10
-6.2938815
 20
64.6165429
 30
0.0000000
  0
VERTEX
  8
0
 62
    13
 10
-6.3637644
 20
64.3333760
 30
0.0000000
  0
VERTEX
  8
0
 62
    13
 10
-6.4272920
 20
64.0601477
 30
0.0000000
  0
VERTEX
  8
0
 62
    13
 10
-6.4847461
 20
63.7969762
 30
0.0000000
  0
VERTEX
  8
0
 62
    13
 10
-6.5364103
 20
63.5439736
 30
0.0000000
  0
VERTEX
  8
0
 62
    13
 10
-6.5967833
 20
63.2226384
 30
0.0000000
  0
VERTEX
  8
0
 62
    13
 10
-6.6480533
 20
62.9198058
 30
0.0000000
  0
VERTEX
  8
0
 62
    13
 10
-6.6909072
 20
62.6356932
 30
0.0000000
  0
VERTEX
  8
0
 62
    13
 10
-6.7260370
 20
62.3704992
 30
0.0000000
  0
VERTEX
  8
0
 62
    13
 10
-6.7317605
 20
62.3233970
 30
0.0000000
  0
VERTEX
  8
0
 62
    13
 10
-8.3788174
 20
62.1234081
 30
0.0000000
  0
VERTEX
  8
0
 62
    13
 10
-8.4884208
 20
62.4048985
 30
0.0000000
  0
VERTEX
  8
0
 62
    13
 10
-8.5938816
 20
62.6612821
 30
0.0000000
  0
VERTEX
  8
0
 62
    13
 10
-8.7111763
 20
62.9328676
 30
0.0000000
  0
VERTEX
  8
0
 62
    13
 10
-8.8139095
 20
63.1608532
 30
0.0000000
  0
VERTEX
  8
0
 62
    13
 10
-8.9248583
 20
63.3981697
 30
0.0000000
  0
VERTEX
  8
0
 62
    13
 10
-9.0443025
 20
63.6446298
 30
0.0000000
  0
VERTEX
  8
0
 62
    13
 10
-9.1725179
 20
63.9000407
 30
0.0000000
  0
VERTEX
  8
0
 62
    13
 10
-9.3097768
 20
64.1642032
 30
0.0000000
  0
VERTEX
  8
0
 62
    13
 10
-9.4563475
 20
64.4369125
 30
0.0000000
  0
VERTEX
  8
0
 62
    13
 10
-9.6124943
 20
64.7179583
 30
0.0000000
  0
VERTEX
  8
0
 62
    13
 10
-9.7784774
 20
65.0071240
 30
0.0000000
  0
VERTEX
  8
0
 62
    13
 10
-9.9095740
 20
65.2291938
 30
0.0000000
  0
VERTEX
  8
0
 62
    13
 10
-10.0464541
 20
65.4556108
 30
0.0000000
  0
VERTEX
  8
0
 62
    13
 10
-10.1892226
 20
65.6862776
 30
0.0000000
  0
VERTEX
  8
0
 62
    13
 10
-10.3379834
 20
65.9210950
 30
0.0000000
  0
VERTEX
  8
0
 62
    13
 10
-10.4928384
 20
66.1599622
 30
0.0000000
  0
VERTEX
  8
0
 62
    13
 10
-10.5007033
 20
66.1719496
 30
0.0000000
  0
VERTEX
  8
0
 62
    13
 10
-10.7698416
 20
66.1286790
 30
0.0000000
  0
VERTEX
  8
0
 62
    13
 10
-11.0388018
 20
66.0843138
 30
0.0000000
  0
VERTEX
  8
0
 62
    13
 10
-11.3075791
 20
66.0388547
 30
0.0000000
  0
VERTEX
  8
0
 62
    13
 10
-11.5761693
 20
65.9923024
 30
0.0000000
  0
VERTEX
  8
0
 62
    13
 10
-11.8445679
 20
65.9446578
 30
0.0000000
  0
VERTEX
  8
0
 62
    13
 10
-12.0575523
 20
65.9060476
 30
0.0000000
  0
VERTEX
  8
0
 62
    13
 10
-12.1187042
 20
65.6537965
 30
0.0000000
  0
VERTEX
  8
0
 62
    13
 10
-12.1991639
 20
65.3044003
 30
0.0000000
  0
VERTEX
  8
0
 62
    13
 10
-12.2725425
 20
64.9648439
 30
0.0000000
  0
VERTEX
  8
0
 62
    13
 10
-12.3391210
 20
64.6352531
 30
0.0000000
  0
VERTEX
  8
0
 62
    13
 10
-12.3991823
 20
64.3157476
 30
0.0000000
  0
VERTEX
  8
0
 62
    13
 10
-12.4530114
 20
64.0064412
 30
0.0000000
  0
VERTEX
  8
0
 62
    13
 10
-12.5008952
 20
63.7074421
 30
0.0000000
  0
VERTEX
  8
0
 62
    13
 10
-12.5431224
 20
63.4188524
 30
0.0000000
  0
VERTEX
  8
0
 62
    13
 10
-12.5799831
 20
63.1407684
 30
0.0000000
  0
VERTEX
  8
0
 62
    13
 10
-12.6117692
 20
62.8732803
 30
0.0000000
  0
VERTEX
  8
0
 62
    13
 10
-12.6387740
 20
62.6164726
 30
0.0000000
  0
VERTEX
  8
0
 62
    13
 10
-12.6678519
 20
62.2908106
 30
0.0000000
  0
VERTEX
  8
0
 62
    13
 10
-12.6896549
 20
61.9844435
 30
0.0000000
  0
VERTEX
  8
0
 62
    13
 10
-12.7048879
 20
61.6975213
 30
0.0000000
  0
VERTEX
  8
0
 62
    13
 10
-12.7142589
 20
61.4301747
 30
0.0000000
  0
VERTEX
  8
0
 62
    13
 10
-12.7154096
 20
61.3827401
 30
0.0000000
  0
VERTEX
  8
0
 62
    13
 10
-14.3354758
 20
61.0247208
 30
0.0000000
  0
VERTEX
  8
0
 62
    13
 10
-14.4717352
 20
61.2943189
 30
0.0000000
  0
VERTEX
  8
0
 62
    13
 10
-14.6014483
 20
61.5393271
 30
0.0000000
  0
VERTEX
  8
0
 62
    13
 10
-14.7444072
 20
61.7983242
 30
0.0000000
  0
VERTEX
  8
0
 62
    13
 10
-14.8686645
 20
62.0153303
 30
0.0000000
  0
VERTEX
  8
0
 62
    13
 10
-15.0019998
 20
62.2408308
 30
0.0000000
  0
VERTEX
  8
0
 62
    13
 10
-15.1446732
 20
62.4746124
 30
0.0000000
  0
VERTEX
  8
0
 62
    13
 10
-15.2969407
 20
62.7164563
 30
0.0000000
  0
VERTEX
  8
0
 62
    13
 10
-15.4590542
 20
62.9661381
 30
0.0000000
  0
VERTEX
  8
0
 62
    13
 10
-15.6312609
 20
63.2234283
 30
0.0000000
  0
VERTEX
  8
0
 62
    13
 10
-15.8138036
 20
63.4880917
 30
0.0000000
  0
VERTEX
  8
0
 62
    13
 10
-16.0069203
 20
63.7598878
 30
0.0000000
  0
VERTEX
  8
0
 62
    13
 10
-16.1588377
 20
63.9682683
 30
0.0000000
  0
VERTEX
  8
0
 62
    13
 10
-16.3169312
 20
64.1804175
 30
0.0000000
  0
VERTEX
  8
0
 62
    13
 10
-16.4812958
 20
64.3962282
 30
0.0000000
  0
VERTEX
  8
0
 62
    13
 10
-16.6520252
 20
64.6155919
 30
0.0000000
  0
VERTEX
  8
0
 62
    13
 10
-16.8292114
 20
64.8383983
 30
0.0000000
  0
VERTEX
  8
0
 62
    13
 10
-16.8381965
 20
64.8495707
 30
0.0000000
  0
VERTEX
  8
0
 62
    13
 10
-17.1019022
 20
64.7805265
 30
0.0000000
  0
VERTEX
  8
0
 62
    13
 10
-17.3653248
 20
64.7104101
 30
0.0000000
  0
VERTEX
  8
0
 62
    13
 10
-17.6284600
 20
64.6392224
 30
0.0000000
  0
VERTEX
  8
0
 62
    13
 10
-17.8913034
 20
64.5669648
 30
0.0000000
  0
VERTEX
  8
0
 62
    13
 10
-18.1538506
 20
64.4936383
 30
0.0000000
  0
VERTEX
  8
0
 62
    13
 10
-18.3621143
 20
64.4346524
 30
0.0000000
  0
VERTEX
  8
0
 62
    13
 10
-18.3986349
 20
64.1776769
 30
0.0000000
  0
VERTEX
  8
0
 62
    13
 10
-18.4449975
 20
63.8221463
 30
0.0000000
  0
VERTEX
  8
0
 62
    13
 10
-18.4852616
 20
63.4770931
 30
0.0000000
  0
VERTEX
  8
0
 62
    13
 10
-18.5197192
 20
63.1426152
 30
0.0000000
  0
VERTEX
  8
0
 62
    13
 10
-18.5486633
 20
62.8188045
 30
0.0000000
  0
VERTEX
  8
0
 62
    13
 10
-18.5723888
 20
62.5057468
 30
0.0000000
  0
VERTEX
  8
0
 62
    13
 10
-18.5911915
 20
62.2035221
 30
0.0000000
  0
VERTEX
  8
0
 62
    13
 10
-18.6053686
 20
61.9122041
 30
0.0000000
  0
VERTEX
  8
0
 62
    13
 10
-18.6152183
 20
61.6318607
 30
0.0000000
  0
VERTEX
  8
0
 62
    13
 10
-18.6210397
 20
61.3625536
 30
0.0000000
  0
VERTEX
  8
0
 62
    13
 10
-18.6231328
 20
61.1043384
 30
0.0000000
  0
VERTEX
  8
0
 62
    13
 10
-18.6206441
 20
60.7773903
 30
0.0000000
  0
VERTEX
  8
0
 62
    13
 10
-18.6127766
 20
60.4703491
 30
0.0000000
  0
VERTEX
  8
0
 62
    13
 10
-18.6002466
 20
60.1832961
 30
0.0000000
  0
VERTEX
  8
0
 62
    13
 10
-18.5837711
 20
59.9162932
 30
0.0000000
  0
VERTEX
  8
0
 62
    13
 10
-18.5803383
 20
59.8689690
 30
0.0000000
  0
VERTEX
  8
0
 62
    13
 10
-20.1582876
 20
59.3562622
 30
0.0000000
  0
VERTEX
  8
0
 62
    13
 10
-20.3199309
 20
59.6114507
 30
0.0000000
  0
VERTEX
  8
0
 62
    13
 10
-20.4726851
 20
59.8427960
 30
0.0000000
  0
VERTEX
  8
0
 62
    13
 10
-20.6399735
 20
60.0867865
 30
0.0000000
  0
VERTEX
  8
0
 62
    13
 10
-20.7845948
 20
60.2907870
 30
0.0000000
  0
VERTEX
  8
0
 62
    13
 10
-20.9390716
 20
60.5023661
 30
0.0000000
  0
VERTEX
  8
0
 62
    13
 10
-21.1036421
 20
60.7212863
 30
0.0000000
  0
VERTEX
  8
0
 62
    13
 10
-21.2785401
 20
60.9473052
 30
0.0000000
  0
VERTEX
  8
0
 62
    13
 10
-21.4639946
 20
61.1801753
 30
0.0000000
  0
VERTEX
  8
0
 62
    13
 10
-21.6602294
 20
61.4196440
 30
0.0000000
  0
VERTEX
  8
0
 62
    13
 10
-21.8674636
 20
61.6654539
 30
0.0000000
  0
VERTEX
  8
0
 62
    13
 10
-22.0859109
 20
61.9173427
 30
0.0000000
  0
VERTEX
  8
0
 62
    13
 10
-22.2572308
 20
62.1100883
 30
0.0000000
  0
VERTEX
  8
0
 62
    13
 10
-22.4350615
 20
62.3059888
 30
0.0000000
  0
VERTEX
  8
0
 62
    13
 10
-22.6194876
 20
62.5049286
 30
0.0000000
  0
VERTEX
  8
0
 62
    13
 10
-22.8105916
 20
62.7067905
 30
0.0000000
  0
VERTEX
  8
0
 62
    13
 10
-23.0084545
 20
62.9114558
 30
0.0000000
  0
VERTEX
  8
0
 62
    13
 10
-23.0184759
 20
62.9217088
 30
0.0000000
  0
VERTEX
  8
0
 62
    13
 10
-23.2742869
 20
62.8275357
 30
0.0000000
  0
VERTEX
  8
0
 62
    13
 10
-23.5297126
 20
62.7323226
 30
0.0000000
  0
VERTEX
  8
0
 62
    13
 10
-23.7847487
 20
62.6360711
 30
0.0000000
  0
VERTEX
  8
0
 62
    13
 10
-24.0393912
 20
62.5387827
 30
0.0000000
  0
VERTEX
  8
0
 62
    13
 10
-24.2936357
 20
62.4404592
 30
0.0000000
  0
VERTEX
  8
0
 62
    13
 10
-24.4952342
 20
62.3616483
 30
0.0000000
  0
VERTEX
  8
0
 62
    13
 10
-24.5067826
 20
62.1023477
 30
0.0000000
  0
VERTEX
  8
0
 62
    13
 10
-24.5186151
 20
61.7440022
 30
0.0000000
  0
VERTEX
  8
0
 62
    13
 10
-24.5253888
 20
61.3966738
 30
0.0000000
  0
VERTEX
  8
0
 62
    13
 10
-24.5274037
 20
61.0604317
 30
0.0000000
  0
VERTEX
  8
0
 62
    13
 10
-24.5249605
 20
60.7353391
 30
0.0000000
  0
VERTEX
  8
0
 62
    13
 10
-24.5183608
 20
60.4214531
 30
0.0000000
  0
VERTEX
  8
0
 62
    13
 10
-24.5079068
 20
60.1188245
 30
0.0000000
  0
VERTEX
  8
0
 62
    13
 10
-24.4939015
 20
59.8274983
 30
0.0000000
  0
VERTEX
  8
0
 62
    13
 10
-24.4766482
 20
59.5475130
 30
0.0000000
  0
VERTEX
  8
0
 62
    13
 10
-24.4564505
 20
59.2789012
 30
0.0000000
  0
VERTEX
  8
0
 62
    13
 10
-24.4336125
 20
59.0216894
 30
0.0000000
  0
VERTEX
  8
0
 62
    13
 10
-24.3995804
 20
58.6965079
 30
0.0000000
  0
VERTEX
  8
0
 62
    13
 10
-24.3621159
 20
58.3916594
 30
0.0000000
  0
VERTEX
  8
0
 62
    13
 10
-24.3219397
 20
58.1071558
 30
0.0000000
  0
VERTEX
  8
0
 62
    13
 10
-24.2797717
 20
57.8429895
 30
0.0000000
  0
VERTEX
  8
0
 62
    13
 10
-24.2717874
 20
57.7962174
 30
0.0000000
  0
VERTEX
  8
0
 62
    13
 10
-25.7928869
 20
57.1336101
 30
0.0000000
  0
VERTEX
  8
0
 62
    13
 10
-25.9784049
 20
57.3720065
 30
0.0000000
  0
VERTEX
  8
0
 62
    13
 10
-26.1527740
 20
57.5875289
 30
0.0000000
  0
VERTEX
  8
0
 62
    13
 10
-26.3428299
 20
57.8142346
 30
0.0000000
  0
VERTEX
  8
0
 62
    13
 10
-26.5064650
 20
58.0033249
 30
0.0000000
  0
VERTEX
  8
0
 62
    13
 10
-26.6806409
 20
58.1990070
 30
0.0000000
  0
VERTEX
  8
0
 62
    13
 10
-26.8655720
 20
58.4010219
 30
0.0000000
  0
VERTEX
  8
0
 62
    13
 10
-27.0614675
 20
58.6091056
 30
0.0000000
  0
VERTEX
  8
0
 62
    13
 10
-27.2685314
 20
58.8229896
 30
0.0000000
  0
VERTEX
  8
0
 62
    13
 10
-27.4869622
 20
59.0424010
 30
0.0000000
  0
VERTEX
  8
0
 62
    13
 10
-27.7169530
 20
59.2670624
 30
0.0000000
  0
VERTEX
  8
0
 62
    13
 10
-27.9586914
 20
59.4966921
 30
0.0000000
  0
VERTEX
  8
0
 62
    13
 10
-28.1478140
 20
59.6720031
 30
0.0000000
  0
VERTEX
  8
0
 62
    13
 10
-28.3437217
 20
59.8498260
 30
0.0000000
  0
VERTEX
  8
0
 62
    13
 10
-28.5464873
 20
60.0300373
 30
0.0000000
  0
VERTEX
  8
0
 62
    13
 10
-28.7561817
 20
60.2125126
 30
0.0000000
  0
VERTEX
  8
0
 62
    13
 10
-28.9728739
 20
60.3971260
 30
0.0000000
  0
VERTEX
  8
0
 62
    13
 10
-28.9838381
 20
60.4063639
 30
0.0000000
  0
VERTEX
  8
0
 62
    13
 10
-29.2293658
 20
60.2879412
 30
0.0000000
  0
VERTEX
  8
0
 62
    13
 10
-29.4744097
 20
60.1685204
 30
0.0000000
  0
VERTEX
  8
0
 62
    13
 10
-29.7189656
 20
60.0481037
 30
0.0000000
  0
VERTEX
  8
0
 62
    13
 10
-29.9630297
 20
59.9266930
 30
0.0000000
  0
VERTEX
  8
0
 62
    13
 10
-30.2065977
 20
59.8042903
 30
0.0000000
  0
VERTEX
  8
0
 62
    13
 10
-30.3996487
 20
59.7063902
 30
0.0000000
  0
VERTEX
  8
0
 62
    13
 10
-30.3861171
 20
59.4471856
 30
0.0000000
  0
VERTEX
  8
0
 62
    13
 10
-30.3633090
 20
59.0893710
 30
0.0000000
  0
VERTEX
  8
0
 62
    13
 10
-30.3365291
 20
58.7430102
 30
0.0000000
  0
VERTEX
  8
0
 62
    13
 10
-30.3060825
 20
58.4081434
 30
0.0000000
  0
VERTEX
  8
0
 62
    13
 10
-30.2722748
 20
58.0848043
 30
0.0000000
  0
VERTEX
  8
0
 62
    13
 10
-30.2354115
 20
57.7730205
 30
0.0000000
  0
VERTEX
  8
0
 62
    13
 10
-30.1957985
 20
57.4728137
 30
0.0000000
  0
VERTEX
  8
0
 62
    13
 10
-30.1537415
 20
57.1841992
 30
0.0000000
  0
VERTEX
  8
0
 62
    13
 10
-30.1095462
 20
56.9071861
 30
0.0000000
  0
VERTEX
  8
0
 62
    13
 10
-30.0635181
 20
56.6417777
 30
0.0000000
  0
VERTEX
  8
0
 62
    13
 10
-30.0159622
 20
56.3879709
 30
0.0000000
  0
VERTEX
  8
0
 62
    13
 10
-29.9507043
 20
56.0675920
 30
0.0000000
  0
VERTEX
  8
0
 62
    13
 10
-29.8839926
 20
55.7677825
 30
0.0000000
  0
VERTEX
  8
0
 62
    13
 10
-29.8165455
 20
55.4884846
 30
0.0000000
  0
VERTEX
  8
0
 62
    13
 10
-29.7490785
 20
55.2296213
 30
0.0000000
  0
VERTEX
  8
0
 62
    13
 10
-29.7366174
 20
55.1838382
 30
0.0000000
  0
VERTEX
  8
0
 62
    13
 10
-31.1866650
 20
54.3775169
 30
0.0000000
  0
VERTEX
  8
0
 62
    13
 10
-31.3943255
 20
54.5968953
 30
0.0000000
  0
VERTEX
  8
0
 62
    13
 10
-31.5886815
 20
54.7945825
 30
0.0000000
  0
VERTEX
  8
0
 62
    13
 10
-31.7997304
 20
55.0018869
 30
0.0000000
  0
VERTEX
  8
0
 62
    13
 10
-31.9808515
 20
55.1743013
 30
0.0000000
  0
VERTEX
  8
0
 62
    13
 10
-32.1731003
 20
55.3522595
 30
0.0000000
  0
VERTEX
  8
0
 62
    13
 10
-32.3766653
 20
55.5354829
 30
0.0000000
  0
VERTEX
  8
0
 62
    13
 10
-32.5917293
 20
55.7236885
 30
0.0000000
  0
VERTEX
  8
0
 62
    13
 10
-32.8184693
 20
55.9165895
 30
0.0000000
  0
VERTEX
  8
0
 62
    13
 10
-33.0570567
 20
56.1138950
 30
0.0000000
  0
VERTEX
  8
0
 62
    13
 10
-33.3076567
 20
56.3153103
 30
0.0000000
  0
VERTEX
  8
0
 62
    13
 10
-33.5704290
 20
56.5205369
 30
0.0000000
  0
VERTEX
  8
0
 62
    13
 10
-33.7755887
 20
56.6767765
 30
0.0000000
  0
VERTEX
  8
0
 62
    13
 10
-33.9877443
 20
56.8348614
 30
0.0000000
  0
VERTEX
  8
0
 62
    13
 10
-34.2069561
 20
56.9946618
 30
0.0000000
  0
VERTEX
  8
0
 62
    13
 10
-34.4332830
 20
57.1560468
 30
0.0000000
  0
VERTEX
  8
0
 62
    13
 10
-34.6667814
 20
57.3188845
 30
0.0000000
  0
VERTEX
  8
0
 62
    13
 10
-34.6785860
 20
57.3270211
 30
0.0000000
  0
VERTEX
  8
0
 62
    13
 10
-34.9115381
 20
57.1854543
 30
0.0000000
  0
VERTEX
  8
0
 62
    13
 10
-35.1439122
 20
57.0429409
 30
0.0000000
  0
VERTEX
  8
0
 62
    13
 10
-35.3757046
 20
56.8994833
 30
0.0000000
  0
VERTEX
  8
0
 62
    13
 10
-35.6069114
 20
56.7550838
 30
0.0000000
  0
VERTEX
  8
0
 62
    13
 10
-35.8375288
 20
56.6097448
 30
0.0000000
  0
VERTEX
  8
0
 62
    13
 10
-36.0202298
 20
56.4936697
 30
0.0000000
  0
VERTEX
  8
0
 62
    13
 10
-35.9817446
 20
56.2369811
 30
0.0000000
  0
VERTEX
  8
0
 62
    13
 10
-35.9245088
 20
55.8830382
 30
0.0000000
  0
VERTEX
  8
0
 62
    13
 10
-35.8644253
 20
55.5408790
 30
0.0000000
  0
VERTEX
  8
0
 62
    13
 10
-35.8018016
 20
55.2105140
 30
0.0000000
  0
VERTEX
  8
0
 62
    13
 10
-35.7369449
 20
54.8919473
 30
0.0000000
  0
VERTEX
  8
0
 62
    13
 10
-35.6701623
 20
54.5851769
 30
0.0000000
  0
VERTEX
  8
0
 62
    13
 10
-35.6017600
 20
54.2901947
 30
0.0000000
  0
VERTEX
  8
0
 62
    13
 10
-35.5320441
 20
54.0069866
 30
0.0000000
  0
VERTEX
  8
0
 62
    13
 10
-35.4613195
 20
53.7355322
 30
0.0000000
  0
VERTEX
  8
0
 62
    13
 10
-35.3898906
 20
53.4758052
 30
0.0000000
  0
VERTEX
  8
0
 62
    13
 10
-35.3180608
 20
53.2277730
 30
0.0000000
  0
VERTEX
  8
0
 62
    13
 10
-35.2221866
 20
52.9151881
 30
0.0000000
  0
VERTEX
  8
0
 62
    13
 10
-35.1268506
 20
52.6232168
 30
0.0000000
  0
VERTEX
  8
0
 62
    13
 10
-35.0327621
 20
52.3517324
 30
0.0000000
  0
VERTEX
  8
0
 62
    13
 10
-34.9406263
 20
52.1005891
 30
0.0000000
  0
VERTEX
  8
0
 62
    13
 10
-34.9238046
 20
52.0562224
 30
0.0000000
  0
VERTEX
  8
0
 62
    13
 10
-36.2892617
 20
51.1137154
 30
0.0000000
  0
VERTEX
  8
0
 62
    13
 10
-36.5171257
 20
51.3120276
 30
0.0000000
  0
VERTEX
  8
0
 62
    13
 10
-36.7296540
 20
51.4900339
 30
0.0000000
  0
VERTEX
  8
0
 62
    13
 10
-36.9597254
 20
51.6760013
 30
0.0000000
  0
VERTEX
  8
0
 62
    13
 10
-37.1566413
 20
51.8301301
 30
0.0000000
  0
VERTEX
  8
0
 62
    13
 10
-37.3651681
 20
51.9887029
 30
0.0000000
  0
VERTEX
  8
0
 62
    13
 10
-37.5854664
 20
52.1514241
 30
0.0000000
  0
VERTEX
  8
0
 62
    13
 10
-37.8176909
 20
52.3179944
 30
0.0000000
  0
VERTEX
  8
0
 62
    13
 10
-38.0619900
 20
52.4881113
 30
0.0000000
  0
VERTEX
  8
0
 62
    13
 10
-38.3185063
 20
52.6614687
 30
0.0000000
  0
VERTEX
  8
0
 62
    13
 10
-38.5873758
 20
52.8377573
 30
0.0000000
  0
VERTEX
  8
0
 62
    13
 10
-38.8687286
 20
53.0166646
 30
0.0000000
  0
VERTEX
  8
0
 62
    13
 10
-39.0880099
 20
53.1523741
 30
0.0000000
  0
VERTEX
  8
0
 62
    13
 10
-39.3144324
 20
53.2892450
 30
0.0000000
  0
VERTEX
  8
0
 62
    13
 10
-39.5480439
 20
53.4271424
 30
0.0000000
  0
VERTEX
  8
0
 62
    13
 10
-39.7888900
 20
53.5659303
 30
0.0000000
  0
VERTEX
  8
0
 62
    13
 10
-40.0370145
 20
53.7054720
 30
0.0000000
  0
VERTEX
  8
0
 62
    13
 10
-40.0495493
 20
53.7124313
 30
0.0000000
  0
VERTEX
  8
0
 62
    13
 10
-40.2677507
 20
53.5490423
 30
0.0000000
  0
VERTEX
  8
0
 62
    13
 10
-40.4852855
 20
53.3847669
 30
0.0000000
  0
VERTEX
  8
0
 62
    13
 10
-40.7021501
 20
53.2196078
 30
0.0000000
  0
VERTEX
  8
0
 62
    13
 10
-40.9183410
 20
53.0535677
 30
0.0000000
  0
VERTEX
  8
0
 62
    13
 10
-41.1338546
 20
52.8866494
 30
0.0000000
  0
VERTEX
  8
0
 62
    13
 10
-41.3044998
 20
52.7534830
 30
0.0000000
  0
VERTEX
  8
0
 62
    13
 10
-41.2414202
 20
52.5017071
 30
0.0000000
  0
VERTEX
  8
0
 62
    13
 10
-41.1502912
 20
52.1549406
 30
0.0000000
  0
VERTEX
  8
0
 62
    13
 10
-41.0574651
 20
51.8201776
 30
0.0000000
  0
VERTEX
  8
0
 62
    13
 10
-40.9632489
 20
51.4973989
 30
0.0000000
  0
VERTEX
  8
0
 62
    13
 10
-40.8679489
 20
51.1865789
 30
0.0000000
  0
VERTEX
  8
0
 62
    13
 10
-40.7718704
 20
50.8876861
 30
0.0000000
  0
VERTEX
  8
0
 62
    13
 10
-40.6753176
 20
50.6006828
 30
0.0000000
  0
VERTEX
  8
0
 62
    13
 10
-40.5785935
 20
50.3255254
 30
0.0000000
  0
VERTEX
  8
0
 62
    13
 10
-40.4820000
 20
50.0621642
 30
0.0000000
  0
VERTEX
  8
0
 62
    13
 10
-40.3858373
 20
49.8105435
 30
0.0000000
  0
VERTEX
  8
0
 62
    13
 10
-40.2904043
 20
49.5706018
 30
0.0000000
  0
VERTEX
  8
0
 62
    13
 10
-40.1648089
 20
49.2687293
 30
0.0000000
  0
VERTEX
  8
0
 62
    13
 10
-40.0417386
 20
48.9873223
 30
0.0000000
  0
VERTEX
  8
0
 62
    13
 10
-39.9218874
 20
48.7261861
 30
0.0000000
  0
VERTEX
  8
0
 62
    13
 10
-39.8059428
 20
48.4851076
 30
0.0000000
  0
VERTEX
  8
0
 62
    13
 10
-39.7849177
 20
48.4425716
 30
0.0000000
  0
VERTEX
  8
0
 62
    13
 10
-41.0530352
 20
47.3726790
 30
0.0000000
  0
VERTEX
  8
0
 62
    13
 10
-41.2989754
 20
47.5480733
 30
0.0000000
  0
VERTEX
  8
0
 62
    13
 10
-41.5276916
 20
47.7047367
 30
0.0000000
  0
VERTEX
  8
0
 62
    13
 10
-41.7746374
 20
47.8676308
 30
0.0000000
  0
VERTEX
  8
0
 62
    13
 10
-41.9855096
 20
48.0020350
 30
0.0000000
  0
VERTEX
  8
0
 62
    13
 10
-42.2083674
 20
48.1397418
 30
0.0000000
  0
VERTEX
  8
0
 62
    13
 10
-42.4433421
 20
48.2804414
 30
0.0000000
  0
VERTEX
  8
0
 62
    13
 10
-42.6905588
 20
48.4238213
 30
0.0000000
  0
VERTEX
  8
0
 62
    13
 10
-42.9501362
 20
48.5695657
 30
0.0000000
  0
VERTEX
  8
0
 62
    13
 10
-43.2221863
 20
48.7173564
 30
0.0000000
  0
VERTEX
  8
0
 62
    13
 10
-43.5068150
 20
48.8668724
 30
0.0000000
  0
VERTEX
  8
0
 62
    13
 10
-43.8041214
 20
49.0177901
 30
0.0000000
  0
VERTEX
  8
0
 62
    13
 10
-44.0354768
 20
49.1317023
 30
0.0000000
  0
VERTEX
  8
0
 62
    13
 10
-44.2740522
 20
49.2460813
 30
0.0000000
  0
VERTEX
  8
0
 62
    13
 10
-44.5198821
 20
49.3607882
 30
0.0000000
  0
VERTEX
  8
0
 62
    13
 10
-44.7729989
 20
49.4756832
 30
0.0000000
  0
VERTEX
  8
0
 62
    13
 10
-45.0334327
 20
49.5906260
 30
0.0000000
  0
VERTEX
  8
0
 62
    13
 10
-45.0465807
 20
49.5963430
 30
0.0000000
  0
VERTEX
  8
0
 62
    13
 10
-45.2479941
 20
49.4126573
 30
0.0000000
  0
VERTEX
  8
0
 62
    13
 10
-45.4486585
 20
49.2281537
 30
0.0000000
  0
VERTEX
  8
0
 62
    13
 10
-45.6485706
 20
49.0428351
 30
0.0000000
  0
VERTEX
  8
0
 62
    13
 10
-45.8477271
 20
48.8567047
 30
0.0000000
  0
VERTEX
  8
0
 62
    13
 10
-46.0461246
 20
48.6697656
 30
0.0000000
  0
VERTEX
  8
0
 62
    13
 10
-46.2031208
 20
48.5207513
 30
0.0000000
  0
VERTEX
  8
0
 62
    13
 10
-46.1160358
 20
48.2762388
 30
0.0000000
  0
VERTEX
  8
0
 62
    13
 10
-45.9918645
 20
47.9398863
 30
0.0000000
  0
VERTEX
  8
0
 62
    13
 10
-45.8671624
 20
47.6156452
 30
0.0000000
  0
VERTEX
  8
0
 62
    13
 10
-45.7422334
 20
47.3034665
 30
0.0000000
  0
VERTEX
  8
0
 62
    13
 10
-45.6173798
 20
47.0032953
 30
0.0000000
  0
VERTEX
  8
0
 62
    13
 10
-45.4929025
 20
46.7150707
 30
0.0000000
  0
VERTEX
  8
0
 62
    13
 10
-45.3691006
 20
46.4387259
 30
0.0000000
  0
VERTEX
  8
0
 62
    13
 10
-45.2462716
 20
46.1741883
 30
0.0000000
  0
VERTEX
  8
0
 62
    13
 10
-45.1247110
 20
45.9213791
 30
0.0000000
  0
VERTEX
  8
0
 62
    13
 10
-45.0047123
 20
45.6802142
 30
0.0000000
  0
VERTEX
  8
0
 62
    13
 10
-44.8865671
 20
45.4506033
 30
0.0000000
  0
VERTEX
  8
0
 62
    13
 10
-44.7324231
 20
45.1622617
 30
0.0000000
  0
VERTEX
  8
0
 62
    13
 10
-44.5827677
 20
44.8940464
 30
0.0000000
  0
VERTEX
  8
0
 62
    13
 10
-44.4382727
 20
44.6456966
 30
0.0000000
  0
VERTEX
  8
0
 62
    13
 10
-44.2996019
 20
44.4169338
 30
0.0000000
  0
VERTEX
  8
0
 62
    13
 10
-44.2745697
 20
44.3766256
 30
0.0000000
  0
VERTEX
  8
0
 62
    13
 10
-45.4335077
 20
43.1893366
 30
0.0000000
  0
VERTEX
  8
0
 62
    13
 10
-45.6952277
 20
43.3401755
 30
0.0000000
  0
VERTEX
  8
0
 62
    15
 10
-45.9379964
 20
43.4740332
 30
0.0000000
  0
SEQEND
  0
POLYLINE
  8
0
 62
    13
 66
     1
 10
0.0000000
 20
0.0000000
 30
0.0000000
  0
VERTEX
  8
0
 62
    13
 10
-45.9379964
 20
43.4740332
 30
0.0000000
  0
VERTEX
  8
0
 62
    13
 10
-46.1995109
 20
43.6123332
 30
0.0000000
  0
VERTEX
  8
0
 62
    13
 10
-46.4223705
 20
43.7257578
 30
0.0000000
  0
VERTEX
  8
0
 62
    13
 10
-46.6574786
 20
43.8413128
 30
0.0000000
  0
VERTEX
  8
0
 62
    13
 10
-46.9049358
 20
43.9586773
 30
0.0000000
  0
VERTEX
  8
0
 62
    13
 10
-47.1648366
 20
44.0775280
 30
0.0000000
  0
VERTEX
  8
0
 62
    13
 10
-47.4372685
 20
44.1975392
 30
0.0000000
  0
VERTEX
  8
0
 62
    13
 10
-47.7223125
 20
44.3183833
 30
0.0000000
  0
VERTEX
  8
0
 62
    13
 10
-48.0200428
 20
44.4397307
 30
0.0000000
  0
VERTEX
  8
0
 62
    13
 10
-48.3305268
 20
44.5612496
 30
0.0000000
  0
VERTEX
  8
0
 62
    13
 10
-48.5717963
 20
44.6523010
 30
0.0000000
  0
VERTEX
  8
0
 62
    13
 10
-48.8202972
 20
44.7431203
 30
0.0000000
  0
VERTEX
  8
0
 62
    13
 10
-49.0760503
 20
44.8335657
 30
0.0000000
  0
VERTEX
  8
0
 62
    13
 10
-49.3390744
 20
44.9234950
 30
0.0000000
  0
VERTEX
  8
0
 62
    13
 10
-49.6093860
 20
45.0127657
 30
0.0000000
  0
VERTEX
  8
0
 62
    13
 10
-49.6230243
 20
45.0171871
 30
0.0000000
  0
VERTEX
  8
0
 62
    13
 10
-49.8057693
 20
44.8149197
 30
0.0000000
  0
VERTEX
  8
0
 62
    13
 10
-49.9876897
 20
44.6119104
 30
0.0000000
  0
VERTEX
  8
0
 62
    13
 10
-50.1687827
 20
44.4081627
 30
0.0000000
  0
VERTEX
  8
0
 62
    13
 10
-50.3490453
 20
44.2036799
 30
0.0000000
  0
VERTEX
  8
0
 62
    13
 10
-50.5284744
 20
43.9984654
 30
0.0000000
  0
VERTEX
  8
0
 62
    13
 10
-50.6703557
 20
43.8349943
 30
0.0000000
  0
VERTEX
  8
0
 62
    13
 10
-50.5600784
 20
43.6000282
 30
0.0000000
  0
VERTEX
  8
0
 62
    13
 10
-50.4040240
 20
43.2772302
 30
0.0000000
  0
VERTEX
  8
0
 62
    13
 10
-50.2486103
 20
42.9665383
 30
0.0000000
  0
VERTEX
  8
0
 62
    13
 10
-50.0941349
 20
42.6678743
 30
0.0000000
  0
VERTEX
  8
0
 62
    13
 10
-49.9408935
 20
42.3811546
 30
0.0000000
  0
VERTEX
  8
0
 62
    13
 10
-49.7891797
 20
42.1062893
 30
0.0000000
  0
VERTEX
  8
0
 62
    13
 10
-49.6392846
 20
41.8431832
 30
0.0000000
  0
VERTEX
  8
0
 62
    13
 10
-49.4914975
 20
41.5917352
 30
0.0000000
  0
VERTEX
  8
0
 62
    13
 10
-49.3461047
 20
41.3518386
 30
0.0000000
  0
VERTEX
  8
0
 62
    13
 10
-49.2033905
 20
41.1233810
 30
0.0000000
  0
VERTEX
  8
0
 62
    13
 10
-49.0636362
 20
40.9062446
 30
0.0000000
  0
VERTEX
  8
0
 62
    13
 10
-48.8823828
 20
40.6341262
 30
0.0000000
  0
VERTEX
  8
0
 62
    13
 10
-48.7075395
 20
40.3816069
 30
0.0000000
  0
VERTEX
  8
0
 62
    13
 10
-48.5397498
 20
40.1483623
 30
0.0000000
  0
VERTEX
  8
0
 62
    13
 10
-48.3796477
 20
39.9340511
 30
0.0000000
  0
VERTEX
  8
0
 62
    13
 10
-48.3508419
 20
39.8963470
 30
0.0000000
  0
VERTEX
  8
0
 62
    13
 10
-49.3897797
 20
38.6027471
 30
0.0000000
  0
VERTEX
  8
0
 62
    13
 10
-49.6648360
 20
38.7276221
 30
0.0000000
  0
VERTEX
  8
0
 62
    13
 10
-49.9193904
 20
38.8374244
 30
0.0000000
  0
VERTEX
  8
0
 62
    13
 10
-50.1930320
 20
38.9498389
 30
0.0000000
  0
VERTEX
  8
0
 62
    13
 10
-50.4257983
 20
39.0412250
 30
0.0000000
  0
VERTEX
  8
0
 62
    13
 10
-50.6709614
 20
39.1335494
 30
0.0000000
  0
VERTEX
  8
0
 62
    13
 10
-50.9285908
 20
39.2264829
 30
0.0000000
  0
VERTEX
  8
0
 62
    13
 10
-51.1987489
 20
39.3196947
 30
0.0000000
  0
VERTEX
  8
0
 62
    13
 10
-51.4814918
 20
39.4128522
 30
0.0000000
  0
VERTEX
  8
0
 62
    13
 10
-51.7768682
 20
39.5056214
 30
0.0000000
  0
VERTEX
  8
0
 62
    13
 10
-52.0849203
 20
39.5976672
 30
0.0000000
  0
VERTEX
  8
0
 62
    13
 10
-52.4056832
 20
39.6886528
 30
0.0000000
  0
VERTEX
  8
0
 62
    13
 10
-52.6546141
 20
39.7559933
 30
0.0000000
  0
VERTEX
  8
0
 62
    13
 10
-52.9107202
 20
39.8224047
 30
0.0000000
  0
VERTEX
  8
0
 62
    13
 10
-53.1740086
 20
39.8877442
 30
0.0000000
  0
VERTEX
  8
0
 62
    13
 10
-53.4444842
 20
39.9518682
 30
0.0000000
  0
VERTEX
  8
0
 62
    13
 10
-53.7221498
 20
40.0146333
 30
0.0000000
  0
VERTEX
  8
0
 62
    13
 10
-53.7361512
 20
40.0177178
 30
0.0000000
  0
VERTEX
  8
0
 62
    13
 10
-53.8985213
 20
39.7987572
 30
0.0000000
  0
VERTEX
  8
0
 62
    13
 10
-54.0599993
 20
39.5791378
 30
0.0000000
  0
VERTEX
  8
0
 62
    13
 10
-54.2205824
 20
39.3588633
 30
0.0000000
  0
VERTEX
  8
0
 62
    13
 10
-54.3802680
 20
39.1379372
 30
0.0000000
  0
VERTEX
  8
0
 62
    13
 10
-54.5390534
 20
38.9163633
 30
0.0000000
  0
VERTEX
  8
0
 62
    13
 10
-54.6644952
 20
38.7399618
 30
0.0000000
  0
VERTEX
  8
0
 62
    13
 10
-54.5320551
 20
38.5167360
 30
0.0000000
  0
VERTEX
  8
0
 62
    13
 10
-54.3455748
 20
38.2105063
 30
0.0000000
  0
VERTEX
  8
0
 62
    13
 10
-54.1609005
 20
37.9162644
 30
0.0000000
  0
VERTEX
  8
0
 62
    13
 10
-53.9783211
 20
37.6339037
 30
0.0000000
  0
VERTEX
  8
0
 62
    13
 10
-53.7981226
 20
37.3633124
 30
0.0000000
  0
VERTEX
  8
0
 62
    13
 10
-53.6205886
 20
37.1043728
 30
0.0000000
  0
VERTEX
  8
0
 62
    13
 10
-53.4460000
 20
36.8569620
 30
0.0000000
  0
VERTEX
  8
0
 62
    13
 10
-53.2746345
 20
36.6209513
 30
0.0000000
  0
VERTEX
  8
0
 62
    13
 10
-53.1067672
 20
36.3962071
 30
0.0000000
  0
VERTEX
  8
0
 62
    13
 10
-52.9426698
 20
36.1825899
 30
0.0000000
  0
VERTEX
  8
0
 62
    13
 10
-52.7826113
 20
35.9799554
 30
0.0000000
  0
VERTEX
  8
0
 62
    13
 10
-52.5759408
 20
35.7266008
 30
0.0000000
  0
VERTEX
  8
0
 62
    13
 10
-52.3775421
 20
35.4921352
 30
0.0000000
  0
VERTEX
  8
0
 62
    13
 10
-52.1880244
 20
35.2761735
 30
0.0000000
  0
VERTEX
  8
0
 62
    13
 10
-52.0079856
 20
35.0783149
 30
0.0000000
  0
VERTEX
  8
0
 62
    13
 10
-51.9756754
 20
35.0435669
 30
0.0000000
  0
VERTEX
  8
0
 62
    13
 10
-52.8849126
 20
33.6557341
 30
0.0000000
  0
VERTEX
  8
0
 62
    13
 10
-53.1707370
 20
33.7534794
 30
0.0000000
  0
VERTEX
  8
0
 62
    13
 10
-53.4347006
 20
33.8382010
 30
0.0000000
  0
VERTEX
  8
0
 62
    13
 10
-53.7179142
 20
33.9236806
 30
0.0000000
  0
VERTEX
  8
0
 62
    13
 10
-53.9584139
 20
33.9921748
 30
0.0000000
  0
VERTEX
  8
0
 62
    13
 10
-54.2113431
 20
34.0604065
 30
0.0000000
  0
VERTEX
  8
0
 62
    13
 10
-54.4767392
 20
34.1280414
 30
0.0000000
  0
VERTEX
  8
0
 62
    13
 10
-54.7546324
 20
34.1947439
 30
0.0000000
  0
VERTEX
  8
0
 62
    13
 10
-55.0450463
 20
34.2601779
 30
0.0000000
  0
VERTEX
  8
0
 62
    13
 10
-55.3479973
 20
34.3240062
 30
0.0000000
  0
VERTEX
  8
0
 62
    13
 10
-55.6634950
 20
34.3858909
 30
0.0000000
  0
VERTEX
  8
0
 62
    13
 10
-55.9915418
 20
34.4454937
 30
0.0000000
  0
VERTEX
  8
0
 62
    13
 10
-56.2458099
 20
34.4884945
 30
0.0000000
  0
VERTEX
  8
0
 62
    13
 10
-56.5071300
 20
34.5298782
 30
0.0000000
  0
VERTEX
  8
0
 62
    13
 10
-56.7754955
 20
34.5695015
 30
0.0000000
  0
VERTEX
  8
0
 62
    13
 10
-57.0508973
 20
34.6072215
 30
0.0000000
  0
VERTEX
  8
0
 62
    13
 10
-57.3333243
 20
34.6428950
 30
0.0000000
  0
VERTEX
  8
0
 62
    13
 10
-57.3475580
 20
34.6446138
 30
0.0000000
  0
VERTEX
  8
0
 62
    13
 10
-57.4880375
 20
34.4110044
 30
0.0000000
  0
VERTEX
  8
0
 62
    13
 10
-57.6275653
 20
34.1768254
 30
0.0000000
  0
VERTEX
  8
0
 62
    13
 10
-57.7661392
 20
33.9420807
 30
0.0000000
  0
VERTEX
  8
0
 62
    13
 10
-57.9037568
 20
33.7067741
 30
0.0000000
  0
VERTEX
  8
0
 62
    13
 10
-58.0404160
 20
33.4709096
 30
0.0000000
  0
VERTEX
  8
0
 62
    13
 10
-58.1482470
 20
33.2832248
 30
0.0000000
  0
VERTEX
  8
0
 62
    13
 10
-57.9948808
 20
33.0738233
 30
0.0000000
  0
VERTEX
  8
0
 62
    13
 10
-57.7797156
 20
32.7870212
 30
0.0000000
  0
VERTEX
  8
0
 62
    13
 10
-57.5675050
 20
32.5119765
 30
0.0000000
  0
VERTEX
  8
0
 62
    13
 10
-57.3585262
 20
32.2485555
 30
0.0000000
  0
VERTEX
  8
0
 62
    13
 10
-57.1530531
 20
31.9966191
 30
0.0000000
  0
VERTEX
  8
0
 62
    13
 10
-56.9513567
 20
31.7560228
 30
0.0000000
  0
VERTEX
  8
0
 62
    13
 10
-56.7537044
 20
31.5266172
 30
0.0000000
  0
VERTEX
  8
0
 62
    13
 10
-56.5603607
 20
31.3082475
 30
0.0000000
  0
VERTEX
  8
0
 62
    13
 10
-56.3715860
 20
31.1007539
 30
0.0000000
  0
VERTEX
  8
0
 62
    13
 10
-56.1876377
 20
30.9039717
 30
0.0000000
  0
VERTEX
  8
0
 62
    13
 10
-56.0087693
 20
30.7177311
 30
0.0000000
  0
VERTEX
  8
0
 62
    13
 10
-55.7786114
 20
30.4855058
 30
0.0000000
  0
VERTEX
  8
0
 62
    13
 10
-55.5585097
 20
30.2712830
 30
0.0000000
  0
VERTEX
  8
0
 62
    13
 10
-55.3490335
 20
30.0746205
 30
0.0000000
  0
VERTEX
  8
0
 62
    13
 10
-55.1507391
 20
29.8950618
 30
0.0000000
  0
VERTEX
  8
0
 62
    13
 10
-55.1152260
 20
29.8635945
 30
0.0000000
  0
VERTEX
  8
0
 62
    13
 10
-55.8862734
 20
28.3944865
 30
0.0000000
  0
VERTEX
  8
0
 62
    13
 10
-56.1801973
 20
28.4641895
 30
0.0000000
  0
VERTEX
  8
0
 62
    13
 10
-56.4511054
 20
28.5230394
 30
0.0000000
  0
VERTEX
  8
0
 62
    13
 10
-56.7412468
 20
28.5807859
 30
0.0000000
  0
VERTEX
  8
0
 62
    13
 10
-56.9872344
 20
28.6257488
 30
0.0000000
  0
VERTEX
  8
0
 62
    13
 10
-57.2455682
 20
28.6692508
 30
0.0000000
  0
VERTEX
  8
0
 62
    13
 10
-57.5162529
 20
28.7109555
 30
0.0000000
  0
VERTEX
  8
0
 62
    13
 10
-57.7992866
 20
28.7505261
 30
0.0000000
  0
VERTEX
  8
0
 62
    13
 10
-58.0946600
 20
28.7876257
 30
0.0000000
  0
VERTEX
  8
0
 62
    13
 10
-58.4023571
 20
28.8219170
 30
0.0000000
  0
VERTEX
  8
0
 62
    13
 10
-58.7223546
 20
28.8530628
 30
0.0000000
  0
VERTEX
  8
0
 62
    13
 10
-59.0546225
 20
28.8807263
 30
0.0000000
  0
VERTEX
  8
0
 62
    13
 10
-59.3118538
 20
28.8989860
 30
0.0000000
  0
VERTEX
  8
0
 62
    13
 10
-59.5759480
 20
28.9149554
 30
0.0000000
  0
VERTEX
  8
0
 62
    13
 10
-59.8468848
 20
28.9284928
 30
0.0000000
  0
VERTEX
  8
0
 62
    13
 10
-60.1246415
 20
28.9394566
 30
0.0000000
  0
VERTEX
  8
0
 62
    13
 10
-60.4091930
 20
28.9477054
 30
0.0000000
  0
VERTEX
  8
0
 62
    13
 10
-60.4235262
 20
28.9480424
 30
0.0000000
  0
VERTEX
  8
0
 62
    13
 10
-60.5408033
 20
28.7019654
 30
0.0000000
  0
VERTEX
  8
0
 62
    13
 10
-60.6570782
 20
28.4554132
 30
0.0000000
  0
VERTEX
  8
0
 62
    13
 10
-60.7723490
 20
28.2083901
 30
0.0000000
  0
VERTEX
  8
0
 62
    13
 10
-60.8866139
 20
27.9609000
 30
0.0000000
  0
VERTEX
  8
0
 62
    13
 10
-60.9998708
 20
27.7129470
 30
0.0000000
  0
VERTEX
  8
0
 62
    13
 10
-61.0890842
 20
27.5157312
 30
0.0000000
  0
VERTEX
  8
0
 62
    13
 10
-60.9162239
 20
27.3221093
 30
0.0000000
  0
VERTEX
  8
0
 62
    13
 10
-60.6743827
 20
27.0574125
 30
0.0000000
  0
VERTEX
  8
0
 62
    13
 10
-60.4366172
 20
26.8041331
 30
0.0000000
  0
VERTEX
  8
0
 62
    13
 10
-60.2031901
 20
26.5621112
 30
0.0000000
  0
VERTEX
  8
0
 62
    13
 10
-59.9743609
 20
26.3311819
 30
0.0000000
  0
VERTEX
  8
0
 62
    13
 10
-59.7503852
 20
26.1111754
 30
0.0000000
  0
VERTEX
  8
0
 62
    13
 10
-59.5315149
 20
25.9019169
 30
0.0000000
  0
VERTEX
  8
0
 62
    13
 10
-59.3179980
 20
25.7032270
 30
0.0000000
  0
VERTEX
  8
0
 62
    13
 10
-59.1100786
 20
25.5149215
 30
0.0000000
  0
VERTEX
  8
0
 62
    13
 10
-58.9079968
 20
25.3368115
 30
0.0000000
  0
VERTEX
  8
0
 62
    13
 10
-58.7119886
 20
25.1687036
 30
0.0000000
  0
VERTEX
  8
0
 62
    13
 10
-58.4604922
 20
24.9597758
 30
0.0000000
  0
VERTEX
  8
0
 62
    13
 10
-58.2207425
 20
24.7677960
 30
0.0000000
  0
VERTEX
  8
0
 62
    13
 10
-57.9932635
 20
24.5922690
 30
0.0000000
  0
VERTEX
  8
0
 62
    13
 10
-57.7785649
 20
24.4326867
 30
0.0000000
  0
VERTEX
  8
0
 62
    13
 10
-57.7401806
 20
24.4047938
 30
0.0000000
  0
VERTEX
  8
0
 62
    13
 10
-58.3658391
 20
22.8681273
 30
0.0000000
  0
VERTEX
  8
0
 62
    13
 10
-58.6651181
 20
22.9091372
 30
0.0000000
  0
VERTEX
  8
0
 62
    13
 10
-58.9404413
 20
22.9415659
 30
0.0000000
  0
VERTEX
  8
0
 62
    13
 10
-59.2348017
 20
22.9710401
 30
0.0000000
  0
VERTEX
  8
0
 62
    13
 10
-59.4839805
 20
22.9920519
 30
0.0000000
  0
VERTEX
  8
0
 62
    13
 10
-59.7453067
 20
23.0104180
 30
0.0000000
  0
VERTEX
  8
0
 62
    13
 10
-60.0187529
 20
23.0258032
 30
0.0000000
  0
VERTEX
  8
0
 62
    13
 10
-60.3042844
 20
23.0378724
 30
0.0000000
  0
VERTEX
  8
0
 62
    13
 10
-60.6018595
 20
23.0462911
 30
0.0000000
  0
VERTEX
  8
0
 62
    13
 10
-60.9114297
 20
23.0507253
 30
0.0000000
  0
VERTEX
  8
0
 62
    13
 10
-61.0706959
 20
23.0513439
 30
0.0000000
  0
VERTEX
  8
0
 62
    13
 10
-61.3981523
 20
23.0491765
 30
0.0000000
  0
VERTEX
  8
0
 62
    13
 10
-61.6515206
 20
23.0444083
 30
0.0000000
  0
VERTEX
  8
0
 62
    13
 10
-61.9115202
 20
23.0367912
 30
0.0000000
  0
VERTEX
  8
0
 62
    13
 10
-62.1781187
 20
23.0261857
 30
0.0000000
  0
VERTEX
  8
0
 62
    13
 10
-62.4512813
 20
23.0124529
 30
0.0000000
  0
VERTEX
  8
0
 62
    13
 10
-62.7309708
 20
22.9954541
 30
0.0000000
  0
VERTEX
  8
0
 62
    13
 10
-62.9353362
 20
22.9811909
 30
0.0000000
  0
VERTEX
  8
0
 62
    13
 10
-63.0283159
 20
22.7249438
 30
0.0000000
  0
VERTEX
  8
0
 62
    13
 10
-63.1202523
 20
22.4683205
 30
0.0000000
  0
VERTEX
  8
0
 62
    13
 10
-63.2111438
 20
22.2113253
 30
0.0000000
  0
VERTEX
  8
0
 62
    13
 10
-63.3009890
 20
21.9539624
 30
0.0000000
  0
VERTEX
  8
0
 62
    13
 10
-63.3897863
 20
21.6962362
 30
0.0000000
  0
VERTEX
  8
0
 62
    13
 10
-63.4595492
 20
21.4913307
 30
0.0000000
  0
VERTEX
  8
0
 62
    13
 10
-63.2688086
 20
21.3152961
 30
0.0000000
  0
VERTEX
  8
0
 62
    13
 10
-63.0025495
 20
21.0751760
 30
0.0000000
  0
VERTEX
  8
0
 62
    13
 10
-62.7414490
 20
20.8460267
 30
0.0000000
  0
VERTEX
  8
0
 62
    13
 10
-62.4857532
 20
20.6276636
 30
0.0000000
  0
VERTEX
  8
0
 62
    13
 10
-62.2357043
 20
20.4198976
 30
0.0000000
  0
VERTEX
  8
0
 62
    13
 10
-61.9915405
 20
20.2225349
 30
0.0000000
  0
VERTEX
  8
0
 62
    13
 10
-61.7534956
 20
20.0353773
 30
0.0000000
  0
VERTEX
  8
0
 62
    13
 10
-61.5217991
 20
19.8582224
 30
0.0000000
  0
VERTEX
  8
0
 62
    13
 10
-61.2966762
 20
19.6908630
 30
0.0000000
  0
VERTEX
  8
0
 62
    13
 10
-61.0783478
 20
19.5330882
 30
0.0000000
  0
VERTEX
  8
0
 62
    13
 10
-60.8670299
 20
19.3846827
 30
0.0000000
  0
VERTEX
  8
0
 62
    13
 10
-60.5965431
 20
19.2010032
 30
0.0000000
  0
VERTEX
  8
0
 62
    13
 10
-60.3393839
 20
19.0330587
 30
0.0000000
  0
VERTEX
  8
0
 62
    13
 10
-60.0960261
 20
18.8803060
 30
0.0000000
  0
VERTEX
  8
0
 62
    13
 10
-59.8669279
 20
18.7421902
 30
0.0000000
  0
VERTEX
  8
0
 62
    13
 10
-59.8260307
 20
18.7181320
 30
0.0000000
  0
VERTEX
  8
0
 62
    13
 10
-60.3004586
 20
17.1282546
 30
0.0000000
  0
VERTEX
  8
0
 62
    13
 10
-60.6022986
 20
17.1401884
 30
0.0000000
  0
VERTEX
  8
0
 62
    13
 10
-60.8794663
 20
17.1458932
 30
0.0000000
  0
VERTEX
  8
0
 62
    13
 10
-61.0547305
 20
17.1470643
 30
0.0000000
  0
VERTEX
  8
0
 62
    13
 10
-61.3617180
 20
17.1448122
 30
0.0000000
  0
VERTEX
  8
0
 62
    13
 10
-61.6206433
 20
17.1388534
 30
0.0000000
  0
VERTEX
  8
0
 62
    13
 10
-61.8913600
 20
17.1288406
 30
0.0000000
  0
VERTEX
  8
0
 62
    13
 10
-62.1738027
 20
17.1144433
 30
0.0000000
  0
VERTEX
  8
0
 62
    13
 10
-62.4678997
 20
17.0953323
 30
0.0000000
  0
VERTEX
  8
0
 62
    13
 10
-62.7735720
 20
17.0711794
 30
0.0000000
  0
VERTEX
  8
0
 62
    13
 10
-63.0907338
 20
17.0416580
 30
0.0000000
  0
VERTEX
  8
0
 62
    13
 10
-63.4192925
 20
17.0064427
 30
0.0000000
  0
VERTEX
  8
0
 62
    13
 10
-63.6731312
 20
16.9760998
 30
0.0000000
  0
VERTEX
  8
0
 62
    13
 10
-63.9332804
 20
16.9422359
 30
0.0000000
  0
VERTEX
  8
0
 62
    13
 10
-64.1996934
 20
16.9047157
 30
0.0000000
  0
VERTEX
  8
0
 62
    13
 10
-64.4723214
 20
16.8634043
 30
0.0000000
  0
VERTEX
  8
0
 62
    13
 10
-64.7511136
 20
16.8181676
 30
0.0000000
  0
VERTEX
  8
0
 62
    13
 10
-64.8595359
 20
16.7997703
 30
0.0000000
  0
VERTEX
  8
0
 62
    13
 10
-64.9273501
 20
16.5357456
 30
0.0000000
  0
VERTEX
  8
0
 62
    13
 10
-64.9940896
 20
16.2714472
 30
0.0000000
  0
VERTEX
  8
0
 62
    13
 10
-65.0597532
 20
16.0068794
 30
0.0000000
  0
VERTEX
  8
0
 62
    13
 10
-65.1243399
 20
15.7420467
 30
0.0000000
  0
VERTEX
  8
0
 62
    13
 10
-65.1878485
 20
15.4769534
 30
0.0000000
  0
VERTEX
  8
0
 62
    13
 10
-65.2375094
 20
15.2662714
 30
0.0000000
  0
VERTEX
  8
0
 62
    13
 10
-65.0306695
 20
15.1094677
 30
0.0000000
  0
VERTEX
  8
0
 62
    13
 10
-64.7424785
 20
14.8961663
 30
0.0000000
  0
VERTEX
  8
0
 62
    13
 10
-64.4604807
 20
14.6932866
 30
0.0000000
  0
VERTEX
  8
0
 62
    13
 10
-64.1849035
 20
14.5006211
 30
0.0000000
  0
VERTEX
  8
0
 62
    13
 10
-63.9159697
 20
14.3179582
 30
0.0000000
  0
VERTEX
  8
0
 62
    13
 10
-63.6538975
 20
14.1450821
 30
0.0000000
  0
VERTEX
  8
0
 62
    13
 10
-63.3989005
 20
13.9817729
 30
0.0000000
  0
VERTEX
  8
0
 62
    13
 10
-63.1511878
 20
13.8278069
 30
0.0000000
  0
VERTEX
  8
0
 62
    13
 10
-62.9109634
 20
13.6829563
 30
0.0000000
  0
VERTEX
  8
0
 62
    13
 10
-62.6784267
 20
13.5469898
 30
0.0000000
  0
VERTEX
  8
0
 62
    13
 10
-62.4537721
 20
13.4196722
 30
0.0000000
  0
VERTEX
  8
0
 62
    13
 10
-62.1668204
 20
13.2629559
 30
0.0000000
  0
VERTEX
  8
0
 62
    13
 10
-61.8946528
 20
13.1206149
 30
0.0000000
  0
VERTEX
  8
0
 62
    13
 10
-61.6376882
 20
12.9920628
 30
0.0000000
  0
VERTEX
  8
0
 62
    13
 10
-61.3963294
 20
12.8767028
 30
0.0000000
  0
VERTEX
  8
0
 62
    13
 10
-61.3533012
 20
12.8567042
 30
0.0000000
  0
VERTEX
  8
0
 62
    13
 10
-61.6720691
 20
11.2284599
 30
0.0000000
  0
VERTEX
  8
0
 62
    13
 10
-61.9736517
 20
11.2112063
 30
0.0000000
  0
VERTEX
  8
0
 62
    13
 10
-62.2500761
 20
11.1901339
 30
0.0000000
  0
VERTEX
  8
0
 62
    13
 10
-62.5446153
 20
11.1625046
 30
0.0000000
  0
VERTEX
  8
0
 62
    13
 10
-62.7931889
 20
11.1352510
 30
0.0000000
  0
VERTEX
  8
0
 62
    13
 10
-63.0531753
 20
11.1030672
 30
0.0000000
  0
VERTEX
  8
0
 62
    13
 10
-63.3244831
 20
11.0656294
 30
0.0000000
  0
VERTEX
  8
0
 62
    13
 10
-63.6070140
 20
11.0226155
 30
0.0000000
  0
VERTEX
  8
0
 62
    13
 10
-63.9006628
 20
10.9737053
 30
0.0000000
  0
VERTEX
  8
0
 62
    13
 10
-64.2053177
 20
10.9185801
 30
0.0000000
  0
VERTEX
  8
0
 62
    13
 10
-64.5208600
 20
10.8569236
 30
0.0000000
  0
VERTEX
  8
0
 62
    13
 10
-64.8471646
 20
10.7884214
 30
0.0000000
  0
VERTEX
  8
0
 62
    13
 10
-65.0988766
 20
10.7323645
 30
0.0000000
  0
VERTEX
  8
0
 62
    13
 10
-65.3565102
 20
10.6721505
 30
0.0000000
  0
VERTEX
  8
0
 62
    13
 10
-65.6200053
 20
10.6076495
 30
0.0000000
  0
VERTEX
  8
0
 62
    13
 10
-65.8892995
 20
10.5387322
 30
0.0000000
  0
VERTEX
  8
0
 62
    13
 10
-66.1643285
 20
10.4652703
 30
0.0000000
  0
VERTEX
  8
0
 62
    13
 10
-66.1781596
 20
10.4614947
 30
0.0000000
  0
VERTEX
  8
0
 62
    13
 10
-66.2201752
 20
10.1921575
 30
0.0000000
  0
VERTEX
  8
0
 62
    13
 10
-66.2610946
 20
9.9226517
 30
0.0000000
  0
VERTEX
  8
0
 62
    13
 10
-66.3009172
 20
9.6529816
 30
0.0000000
  0
VERTEX
  8
0
 62
    13
 10
-66.3396423
 20
9.3831517
 30
0.0000000
  0
VERTEX
  8
0
 62
    13
 10
-66.3772693
 20
9.1131664
 30
0.0000000
  0
VERTEX
  8
0
 62
    13
 10
-66.4063646
 20
8.8986751
 30
0.0000000
  0
VERTEX
  8
0
 62
    13
 10
-66.1853565
 20
8.7625663
 30
0.0000000
  0
VERTEX
  8
0
 62
    13
 10
-65.8779244
 20
8.5780751
 30
0.0000000
  0
VERTEX
  8
0
 62
    13
 10
-65.5776624
 20
8.4033593
 30
0.0000000
  0
VERTEX
  8
0
 62
    13
 10
-65.2847768
 20
8.2381902
 30
0.0000000
  0
VERTEX
  8
0
 62
    13
 10
-64.9994689
 20
8.0823359
 30
0.0000000
  0
VERTEX
  8
0
 62
    13
 10
-64.7219352
 20
7.9355604
 30
0.0000000
  0
VERTEX
  8
0
 62
    13
 10
-64.4523670
 20
7.7976244
 30
0.0000000
  0
VERTEX
  8
0
 62
    13
 10
-64.1909508
 20
7.6682849
 30
0.0000000
  0
VERTEX
  8
0
 62
    13
 10
-63.9378678
 20
7.5472956
 30
0.0000000
  0
VERTEX
  8
0
 62
    13
 10
-63.6932940
 20
7.4344068
 30
0.0000000
  0
VERTEX
  8
0
 62
    13
 10
-63.4574002
 20
7.3293658
 30
0.0000000
  0
VERTEX
  8
0
 62
    13
 10
-63.1566628
 20
7.2010760
 30
0.0000000
  0
VERTEX
  8
0
 62
    13
 10
-62.8720279
 20
7.0856675
 30
0.0000000
  0
VERTEX
  8
0
 62
    13
 10
-62.6038559
 20
6.9825161
 30
0.0000000
  0
VERTEX
  8
0
 62
    13
 10
-62.3524900
 20
6.8909892
 30
0.0000000
  0
VERTEX
  8
0
 62
    13
 10
-62.3077326
 20
6.8752367
 30
0.0000000
  0
VERTEX
  8
0
 62
    13
 10
-62.4678640
 20
5.2238282
 30
0.0000000
  0
VERTEX
  8
0
 62
    13
 10
-62.7663735
 20
5.1775481
 30
0.0000000
  0
VERTEX
  8
0
 62
    13
 10
-63.0394737
 20
5.1298954
 30
0.0000000
  0
VERTEX
  8
0
 62
    13
 10
-63.3299713
 20
5.0739679
 30
0.0000000
  0
VERTEX
  8
0
 62
    13
 10
-63.5747540
 20
5.0228507
 30
0.0000000
  0
VERTEX
  8
0
 62
    13
 10
-63.8304206
 20
4.9657248
 30
0.0000000
  0
VERTEX
  8
0
 62
    13
 10
-64.0968486
 20
4.9022768
 30
0.0000000
  0
VERTEX
  8
0
 62
    13
 10
-64.3739090
 20
4.8321956
 30
0.0000000
  0
VERTEX
  8
0
 62
    13
 10
-64.6614665
 20
4.7551725
 30
0.0000000
  0
VERTEX
  8
0
 62
    13
 10
-64.9593788
 20
4.6709012
 30
0.0000000
  0
VERTEX
  8
0
 62
    13
 10
-65.2674973
 20
4.5790783
 30
0.0000000
  0
VERTEX
  8
0
 62
    13
 10
-65.5856672
 20
4.4794030
 30
0.0000000
  0
VERTEX
  8
0
 62
    13
 10
-65.8307939
 20
4.3993141
 30
0.0000000
  0
VERTEX
  8
0
 62
    13
 10
-66.0814133
 20
4.3145160
 30
0.0000000
  0
VERTEX
  8
0
 62
    13
 10
-66.3374530
 20
4.2248851
 30
0.0000000
  0
VERTEX
  8
0
 62
    13
 10
-66.5988385
 20
4.1302989
 30
0.0000000
  0
VERTEX
  8
0
 62
    13
 10
-66.8654935
 20
4.0306358
 30
0.0000000
  0
VERTEX
  8
0
 62
    13
 10
-66.8788956
 20
4.0255430
 30
0.0000000
  0
VERTEX
  8
0
 62
    13
 10
-66.8947203
 20
3.7534081
 30
0.0000000
  0
VERTEX
  8
0
 62
    13
 10
-66.9094376
 20
3.4812111
 30
0.0000000
  0
VERTEX
  8
0
 62
    13
 10
-66.9230474
 20
3.2089564
 30
0.0000000
  0
VERTEX
  8
0
 62
    13
 10
-66.9355494
 20
2.9366487
 30
0.0000000
  0
VERTEX
  8
0
 62
    13
 10
-66.9469433
 20
2.6642923
 30
0.0000000
  0
VERTEX
  8
0
 62
    13
 10
-66.9552014
 20
2.4479942
 30
0.0000000
  0
VERTEX
  8
0
 62
    13
 10
-66.7220887
 20
2.3338512
 30
0.0000000
  0
VERTEX
  8
0
 62
    13
 10
-66.3982858
 20
2.1798928
 30
0.0000000
  0
VERTEX
  8
0
 62
    13
 10
-66.0825630
 20
2.0349720
 30
0.0000000
  0
VERTEX
  8
0
 62
    13
 10
-65.7751036
 20
1.8988416
 30
0.0000000
  0
VERTEX
  8
0
 62
    13
 10
-65.4760855
 20
1.7712510
 30
0.0000000
  0
VERTEX
  8
0
 62
    13
 10
-65.1856816
 20
1.6519466
 30
0.0000000
  0
VERTEX
  8
0
 62
    13
 10
-64.9040591
 20
1.5406716
 30
0.0000000
  0
VERTEX
  8
0
 62
    13
 10
-64.6313802
 20
1.4371662
 30
0.0000000
  0
VERTEX
  8
0
 62
    13
 10
-64.3678015
 20
1.3411677
 30
0.0000000
  0
VERTEX
  8
0
 62
    13
 10
-64.1134742
 20
1.2524107
 30
0.0000000
  0
VERTEX
  8
0
 62
    13
 10
-63.8685437
 20
1.1706272
 30
0.0000000
  0
VERTEX
  8
0
 62
    13
 10
-63.5568286
 20
1.0719616
 30
0.0000000
  0
VERTEX
  8
0
 62
    13
 10
-63.2623839
 20
0.9845630
 30
0.0000000
  0
VERTEX
  8
0
 62
    13
 10
-62.9855083
 20
0.9077756
 30
0.0000000
  0
VERTEX
  8
0
 62
    13
 10
-62.7264822
 20
0.8409362
 30
0.0000000
  0
VERTEX
  8
0
 62
    13
 10
-62.6804134
 20
0.8295770
 30
0.0000000
  0
VERTEX
  8
0
 62
    13
 10
-62.6804134
 20
-0.8295771
 30
0.0000000
  0
VERTEX
  8
0
 62
    13
 10
-62.9730626
 20
-0.9044514
 30
0.0000000
  0
VERTEX
  8
0
 62
    13
 10
-63.2402887
 20
-0.9782396
 30
0.0000000
  0
VERTEX
  8
0
 62
    13
 10
-63.5240324
 20
-1.0619431
 30
0.0000000
  0
VERTEX
  8
0
 62
    13
 10
-63.7627389
 20
-1.1364466
 30
0.0000000
  0
VERTEX
  8
0
 62
    13
 10
-64.0116984
 20
-1.2179811
 30
0.0000000
  0
VERTEX
  8
0
 62
    13
 10
-64.2707590
 20
-1.3068470
 30
0.0000000
  0
VERTEX
  8
0
 62
    13
 10
-64.5397623
 20
-1.4033412
 30
0.0000000
  0
VERTEX
  8
0
 62
    13
 10
-64.8185435
 20
-1.5077581
 30
0.0000000
  0
VERTEX
  8
0
 62
    13
 10
-65.1069316
 20
-1.6203886
 30
0.0000000
  0
VERTEX
  8
0
 62
    13
 10
-65.4047496
 20
-1.7415206
 30
0.0000000
  0
VERTEX
  8
0
 62
    13
 10
-65.7118141
 20
-1.8714384
 30
0.0000000
  0
VERTEX
  8
0
 62
    13
 10
-65.9480667
 20
-1.9748116
 30
0.0000000
  0
VERTEX
  8
0
 62
    13
 10
-66.1893320
 20
-2.0834021
 30
0.0000000
  0
VERTEX
  8
0
 62
    13
 10
-66.4355257
 20
-2.1973259
 30
0.0000000
  0
VERTEX
  8
0
 62
    13
 10
-66.6865622
 20
-2.3166979
 30
0.0000000
  0
VERTEX
  8
0
 62
    13
 10
-66.9423535
 20
-2.4416316
 30
0.0000000
  0
VERTEX
  8
0
 62
    13
 10
-66.9552014
 20
-2.4479942
 30
0.0000000
  0
VERTEX
  8
0
 62
    13
 10
-66.9446874
 20
-2.7203859
 30
0.0000000
  0
VERTEX
  8
0
 62
    13
 10
-66.9330653
 20
-2.9927327
 30
0.0000000
  0
VERTEX
  8
0
 62
    13
 10
-66.9203351
 20
-3.2650298
 30
0.0000000
  0
VERTEX
  8
0
 62
    13
 10
-66.9064973
 20
-3.5372730
 30
0.0000000
  0
VERTEX
  8
0
 62
    13
 10
-66.8915519
 20
-3.8094575
 30
0.0000000
  0
VERTEX
  8
0
 62
    13
 10
-66.8788956
 20
-4.0255430
 30
0.0000000
  0
VERTEX
  8
0
 62
    13
 10
-66.6358548
 20
-4.1166545
 30
0.0000000
  0
VERTEX
  8
0
 62
    13
 10
-66.2987044
 20
-4.2386427
 30
0.0000000
  0
VERTEX
  8
0
 62
    13
 10
-65.9704686
 20
-4.3524153
 30
0.0000000
  0
VERTEX
  8
0
 62
    13
 10
-65.6513060
 20
-4.4582361
 30
0.0000000
  0
VERTEX
  8
0
 62
    13
 10
-65.3413696
 20
-4.5563716
 30
0.0000000
  0
VERTEX
  8
0
 62
    13
 10
-65.0408068
 20
-4.6470910
 30
0.0000000
  0
VERTEX
  8
0
 62
    13
 10
-64.7497595
 20
-4.7306661
 30
0.0000000
  0
VERTEX
  8
0
 62
    13
 10
-64.4683639
 20
-4.8073710
 30
0.0000000
  0
VERTEX
  8
0
 62
    13
 10
-64.1967505
 20
-4.8774823
 30
0.0000000
  0
VERTEX
  8
0
 62
    13
 10
-63.9350441
 20
-4.9412787
 30
0.0000000
  0
VERTEX
  8
0
 62
    13
 10
-63.6833638
 20
-4.9990413
 30
0.0000000
  0
VERTEX
  8
0
 62
    13
 10
-63.3635813
 20
-5.0671615
 30
0.0000000
  0
VERTEX
  8
0
 62
    13
 10
-63.0620760
 20
-5.1257340
 30
0.0000000
  0
VERTEX
  8
0
 62
    13
 10
-62.7790819
 20
-5.1754406
 30
0.0000000
  0
VERTEX
  8
0
 62
    13
 10
-62.5148141
 20
-5.2169683
 30
0.0000000
  0
VERTEX
  8
0
 62
    13
 10
-62.4678640
 20
-5.2238282
 30
0.0000000
  0
VERTEX
  8
0
 62
    13
 10
-62.3077326
 20
-6.8752367
 30
0.0000000
  0
VERTEX
  8
0
 62
    13
 10
-62.5917892
 20
-6.9780062
 30
0.0000000
  0
VERTEX
  8
0
 62
    13
 10
-62.8506462
 20
-7.0772411
 30
0.0000000
  0
VERTEX
  8
0
 62
    13
 10
-63.1249867
 20
-7.1879390
 30
0.0000000
  0
VERTEX
  8
0
 62
    13
 10
-63.3553882
 20
-7.2851332
 30
0.0000000
  0
VERTEX
  8
0
 62
    13
 10
-63.5953163
 20
-7.3903152
 30
0.0000000
  0
VERTEX
  8
0
 62
    13
 10
-63.8445907
 20
-7.5037691
 30
0.0000000
  0
VERTEX
  8
0
 62
    13
 10
-64.1030251
 20
-7.6257754
 30
0.0000000
  0
VERTEX
  8
0
 62
    13
 10
-64.3704272
 20
-7.7566111
 30
0.0000000
  0
VERTEX
  8
0
 62
    13
 10
-64.6465986
 20
-7.8965493
 30
0.0000000
  0
VERTEX
  8
0
 62
    13
 10
-64.9313354
 20
-8.0458593
 30
0.0000000
  0
VERTEX
  8
0
 62
    13
 10
-65.2244275
 20
-8.2048066
 30
0.0000000
  0
VERTEX
  8
0
 62
    13
 10
-65.4496003
 20
-8.3304989
 30
0.0000000
  0
VERTEX
  8
0
 62
    13
 10
-65.6792587
 20
-8.4618679
 30
0.0000000
  0
VERTEX
  8
0
 62
    13
 10
-65.9133079
 20
-8.5990211
 30
0.0000000
  0
VERTEX
  8
0
 62
    13
 10
-66.1516513
 20
-8.7420643
 30
0.0000000
  0
VERTEX
  8
0
 62
    13
 10
-66.3941907
 20
-8.8911022
 30
0.0000000
  0
VERTEX
  8
0
 62
    13
 10
-66.4063646
 20
-8.8986751
 30
0.0000000
  0
VERTEX
  8
0
 62
    13
 10
-66.3696101
 20
-9.1687805
 30
0.0000000
  0
VERTEX
  8
0
 62
    13
 10
-66.3317569
 20
-9.4387341
 30
0.0000000
  0
VERTEX
  8
0
 62
    13
 10
-66.2928057
 20
-9.7085314
 30
0.0000000
  0
VERTEX
  8
0
 62
    13
 10
-66.2527572
 20
-9.9781681
 30
0.0000000
  0
VERTEX
  8
0
 62
    13
 10
-66.2116120
 20
-10.2476395
 30
0.0000000
  0
VERTEX
  8
0
 62
    13
 10
-66.1781596
 20
-10.4614947
 30
0.0000000
  0
VERTEX
  8
0
 62
    13
 10
-65.9274598
 20
-10.5287241
 30
0.0000000
  0
VERTEX
  8
0
 62
    13
 10
-65.5801098
 20
-10.6176031
 30
0.0000000
  0
VERTEX
  8
0
 62
    13
 10
-65.2424257
 20
-10.6991652
 30
0.0000000
  0
VERTEX
  8
0
 62
    13
 10
-64.9145399
 20
-10.7736883
 30
0.0000000
  0
VERTEX
  8
0
 62
    13
 10
-64.5965790
 20
-10.8414525
 30
0.0000000
  0
VERTEX
  8
0
 62
    13
 10
-64.2886636
 20
-10.9027400
 30
0.0000000
  0
VERTEX
  8
0
 62
    13
 10
-63.9909089
 20
-10.9578347
 30
0.0000000
  0
VERTEX
  8
0
 62
    13
 10
-63.7034238
 20
-11.0070230
 30
0.0000000
  0
VERTEX
  8
0
 62
    13
 10
-63.4263117
 20
-11.0505925
 30
0.0000000
  0
VERTEX
  8
0
 62
    13
 10
-63.1596698
 20
-11.0888328
 30
0.0000000
  0
VERTEX
  8
0
 62
    13
 10
-62.9035896
 20
-11.1220351
 30
0.0000000
  0
VERTEX
  8
0
 62
    13
 10
-62.5787253
 20
-11.1589738
 30
0.0000000
  0
VERTEX
  8
0
 62
    13
 10
-62.2729745
 20
-11.1881734
 30
0.0000000
  0
VERTEX
  8
0
 62
    13
 10
-61.9865041
 20
-11.2103351
 30
0.0000000
  0
VERTEX
  8
0
 62
    13
 10
-61.7194621
 20
-11.2261634
 30
0.0000000
  0
VERTEX
  8
0
 62
    13
 10
-61.6720691
 20
-11.2284600
 30
0.0000000
  0
VERTEX
  8
0
 62
    13
 10
-61.3533012
 20
-12.8567042
 30
0.0000000
  0
VERTEX
  8
0
 62
    13
 10
-61.6261131
 20
-12.9864093
 30
0.0000000
  0
VERTEX
  8
0
 62
    13
 10
-61.8741842
 20
-13.1101642
 30
0.0000000
  0
VERTEX
  8
0
 62
    13
 10
-62.1365600
 20
-13.2468231
 30
0.0000000
  0
VERTEX
  8
0
 62
    13
 10
-62.3565054
 20
-13.3658004
 30
0.0000000
  0
VERTEX
  8
0
 62
    13
 10
-62.5851619
 20
-13.4936478
 30
0.0000000
  0
VERTEX
  8
0
 62
    13
 10
-62.8223227
 20
-13.6306305
 30
0.0000000
  0
VERTEX
  8
0
 62
    13
 10
-63.0677753
 20
-13.7770098
 30
0.0000000
  0
VERTEX
  8
0
 62
    13
 10
-63.3213016
 20
-13.9330427
 30
0.0000000
  0
VERTEX
  8
0
 62
    13
 10
-63.5826778
 20
-14.0989820
 30
0.0000000
  0
VERTEX
  8
0
 62
    13
 10
-63.8516748
 20
-14.2750761
 30
0.0000000
  0
VERTEX
  8
0
 62
    13
 10
-64.1280580
 20
-14.4615688
 30
0.0000000
  0
VERTEX
  8
0
 62
    13
 10
-64.3400485
 20
-14.6084066
 30
0.0000000
  0
VERTEX
  8
0
 62
    13
 10
-64.5559558
 20
-14.7613276
 30
0.0000000
  0
VERTEX
  8
0
 62
    13
 10
-64.7756753
 20
-14.9204295
 30
0.0000000
  0
VERTEX
  8
0
 62
    13
 10
-64.9991004
 20
-15.0858084
 30
0.0000000
  0
VERTEX
  8
0
 62
    13
 10
-65.2261232
 20
-15.2575589
 30
0.0000000
  0
VERTEX
  8
0
 62
    13
 10
-65.2375094
 20
-15.2662714
 30
0.0000000
  0
VERTEX
  8
0
 62
    13
 10
-65.1748575
 20
-15.5315685
 30
0.0000000
  0
VERTEX
  8
0
 62
    13
 10
-65.1111268
 20
-15.7966085
 30
0.0000000
  0
VERTEX
  8
0
 62
    13
 10
-65.0463183
 20
-16.0613871
 30
0.0000000
  0
VERTEX
  8
0
 62
    13
 10
-64.9804330
 20
-16.3258997
 30
0.0000000
  0
VERTEX
  8
0
 62
    13
 10
-64.9134721
 20
-16.5901421
 30
0.0000000
  0
VERTEX
  8
0
 62
    13
 10
-64.8595359
 20
-16.7997703
 30
0.0000000
  0
VERTEX
  8
0
 62
    13
 10
-64.6035179
 20
-16.8424898
 30
0.0000000
  0
VERTEX
  8
0
 62
    13
 10
-64.2492114
 20
-16.8974297
 30
0.0000000
  0
VERTEX
  8
0
 62
    13
 10
-63.9052319
 20
-16.9460199
 30
0.0000000
  0
VERTEX
  8
0
 62
    13
 10
-63.5716842
 20
-16.9885496
 30
0.0000000
  0
VERTEX
  8
0
 62
    13
 10
-63.2486674
 20
-17.0253098
 30
0.0000000
  0
VERTEX
  8
0
 62
    13
 10
-62.9362745
 20
-17.0565930
 30
0.0000000
  0
VERTEX
  8
0
 62
    13
 10
-62.6345923
 20
-17.0826931
 30
0.0000000
  0
VERTEX
  8
0
 62
    13
 10
-62.3437020
 20
-17.1039054
 30
0.0000000
  0
VERTEX
  8
0
 62
    13
 10
-62.0636785
 20
-17.1205263
 30
0.0000000
  0
VERTEX
  8
0
 62
    13
 10
-61.7945906
 20
-17.1328535
 30
0.0000000
  0
VERTEX
  8
0
 62
    13
 10
-61.5365014
 20
-17.1411855
 30
0.0000000
  0
VERTEX
  8
0
 62
    13
 10
-61.2095887
 20
-17.1465977
 30
0.0000000
  0
VERTEX
  8
0
 62
    13
 10
-60.9024470
 20
-17.1461518
 30
0.0000000
  0
VERTEX
  8
0
 62
    13
 10
-60.6151751
 20
-17.1405617
 30
0.0000000
  0
VERTEX
  8
0
 62
    13
 10
-60.3478520
 20
-17.1305429
 30
0.0000000
  0
VERTEX
  8
0
 62
    13
 10
-60.3004586
 20
-17.1282546
 30
0.0000000
  0
VERTEX
  8
0
 62
    13
 10
-59.8260307
 20
-18.7181321
 30
0.0000000
  0
VERTEX
  8
0
 62
    13
 10
-60.0850507
 20
-18.8735619
 30
0.0000000
  0
VERTEX
  8
0
 62
    13
 10
-60.3200195
 20
-19.0206813
 30
0.0000000
  0
VERTEX
  8
0
 62
    13
 10
-60.5679810
 20
-19.1820251
 30
0.0000000
  0
VERTEX
  8
0
 62
    13
 10
-60.7754166
 20
-19.3216748
 30
0.0000000
  0
VERTEX
  8
0
 62
    13
 10
-60.9906666
 20
-19.4709939
 30
0.0000000
  0
VERTEX
  8
0
 62
    13
 10
-61.2134995
 20
-19.6302264
 30
0.0000000
  0
VERTEX
  8
0
 62
    13
 10
-61.4436787
 20
-19.7996120
 30
0.0000000
  0
VERTEX
  8
0
 62
    13
 10
-61.6809620
 20
-19.9793853
 30
0.0000000
  0
VERTEX
  8
0
 62
    13
 10
-61.9251026
 20
-20.1697763
 30
0.0000000
  0
VERTEX
  8
0
 62
    13
 10
-62.1758483
 20
-20.3710103
 30
0.0000000
  0
VERTEX
  8
0
 62
    13
 10
-62.4329421
 20
-20.5833073
 30
0.0000000
  0
VERTEX
  8
0
 62
    13
 10
-62.6297710
 20
-20.7499196
 30
0.0000000
  0
VERTEX
  8
0
 62
    13
 10
-62.8299115
 20
-20.9229648
 30
0.0000000
  0
VERTEX
  8
0
 62
    13
 10
-63.0332496
 20
-21.1025299
 30
0.0000000
  0
VERTEX
  8
0
 62
    13
 10
-63.2396703
 20
-21.2887003
 30
0.0000000
  0
VERTEX
  8
0
 62
    13
 10
-63.4490570
 20
-21.4815600
 30
0.0000000
  0
VERTEX
  8
0
 62
    13
 10
-63.4595492
 20
-21.4913307
 30
0.0000000
  0
VERTEX
  8
0
 62
    13
 10
-63.3715849
 20
-21.7493426
 30
0.0000000
  0
VERTEX
  8
0
 62
    13
 10
-63.2825717
 20
-22.0069944
 30
0.0000000
  0
VERTEX
  8
0
 62
    13
 10
-63.1925109
 20
-22.2642819
 30
0.0000000
  0
VERTEX
  8
0
 62
    13
 10
-63.1014040
 20
-22.5212008
 30
0.0000000
  0
VERTEX
  8
0
 62
    13
 10
-63.0092526
 20
-22.7777470
 30
0.0000000
  0
VERTEX
  8
0
 62
    13
 10
-62.9353362
 20
-22.9811910
 30
0.0000000
  0
VERTEX
  8
0
 62
    13
 10
-62.6763903
 20
-22.9990017
 30
0.0000000
  0
VERTEX
  8
0
 62
    13
 10
-62.3184354
 20
-23.0194897
 30
0.0000000
  0
VERTEX
  8
0
 62
    13
 10
-61.9713721
 20
-23.0346542
 30
0.0000000
  0
VERTEX
  8
0
 62
    13
 10
-61.6352769
 20
-23.0447934
 30
0.0000000
  0
VERTEX
  8
0
 62
    13
 10
-61.3102202
 20
-23.0502063
 30
0.0000000
  0
VERTEX
  8
0
 62
    13
 10
-60.9962663
 20
-23.0511932
 30
0.0000000
  0
VERTEX
  8
0
 62
    13
 10
-60.6934735
 20
-23.0480549
 30
0.0000000
  0
VERTEX
  8
0
 62
    13
 10
-60.4018939
 20
-23.0410932
 30
0.0000000
  0
VERTEX
  8
0
 62
    13
 10
-60.1215734
 20
-23.0306104
 30
0.0000000
  0
VERTEX
  8
0
 62
    13
 10
-59.8525521
 20
-23.0169093
 30
0.0000000
  0
VERTEX
  8
0
 62
    13
 10
-59.5948635
 20
-23.0002932
 30
0.0000000
  0
VERTEX
  8
0
 62
    13
 10
-59.2689546
 20
-22.9741286
 30
0.0000000
  0
VERTEX
  8
0
 62
    13
 10
-58.9632898
 20
-22.9440413
 30
0.0000000
  0
VERTEX
  8
0
 62
    13
 10
-58.6778985
 20
-22.9107515
 30
0.0000000
  0
VERTEX
  8
0
 62
    13
 10
-58.4127904
 20
-22.8749790
 30
0.0000000
  0
VERTEX
  8
0
 62
    13
 10
-58.3658391
 20
-22.8681273
 30
0.0000000
  0
VERTEX
  8
0
 62
    13
 10
-57.7401806
 20
-24.4047938
 30
0.0000000
  0
VERTEX
  8
0
 62
    13
 10
-57.9829902
 20
-24.5844970
 30
0.0000000
  0
VERTEX
  8
0
 62
    13
 10
-58.2026631
 20
-24.7536074
 30
0.0000000
  0
VERTEX
  8
0
 62
    13
 10
-58.4338951
 20
-24.9381297
 30
0.0000000
  0
VERTEX
  8
0
 62
    13
 10
-58.6268842
 20
-25.0971479
 30
0.0000000
  0
VERTEX
  8
0
 62
    13
 10
-58.8267179
 20
-25.2665446
 30
0.0000000
  0
VERTEX
  8
0
 62
    13
 10
-59.0331424
 20
-25.4465402
 30
0.0000000
  0
VERTEX
  8
0
 62
    13
 10
-59.2458989
 20
-25.6373505
 30
0.0000000
  0
VERTEX
  8
0
 62
    13
 10
-59.4647240
 20
-25.8391857
 30
0.0000000
  0
VERTEX
  8
0
 62
    13
 10
-59.6893494
 20
-26.0522509
 30
0.0000000
  0
VERTEX
  8
0
 62
    13
 10
-59.9195026
 20
-26.2767459
 30
0.0000000
  0
VERTEX
  8
0
 62
    13
 10
-60.1549066
 20
-26.5128649
 30
0.0000000
  0
VERTEX
  8
0
 62
    13
 10
-60.3347363
 20
-26.6976962
 30
0.0000000
  0
VERTEX
  8
0
 62
    13
 10
-60.5172411
 20
-26.8892498
 30
0.0000000
  0
VERTEX
  8
0
 62
    13
 10
-60.7022995
 20
-27.0876016
 30
0.0000000
  0
VERTEX
  8
0
 62
    13
 10
-60.8897885
 20
-27.2928254
 30
0.0000000
  0
VERTEX
  8
0
 62
    13
 10
-61.0795840
 20
-27.5049935
 30
0.0000000
  0
VERTEX
  8
0
 62
    13
 10
-61.0890842
 20
-27.5157313
 30
0.0000000
  0
VERTEX
  8
0
 62
    13
 10
-60.9766289
 20
-27.7640488
 30
0.0000000
  0
VERTEX
  8
0
 62
    13
 10
-60.8631642
 20
-28.0119068
 30
0.0000000
  0
VERTEX
  8
0
 62
    13
 10
-60.7486920
 20
-28.2593011
 30
0.0000000
  0
VERTEX
  8
0
 62
    13
 10
-60.6332142
 20
-28.5062275
 30
0.0000000
  0
VERTEX
  8
0
 62
    13
 10
-60.5167328
 20
-28.7526822
 30
0.0000000
  0
VERTEX
  8
0
 62
    13
 10
-60.4235262
 20
-28.9480424
 30
0.0000000
  0
VERTEX
  8
0
 62
    13
 10
-60.1640702
 20
-28.9407781
 30
0.0000000
  0
VERTEX
  8
0
 62
    13
 10
-59.8058090
 20
-28.9266228
 30
0.0000000
  0
VERTEX
  8
0
 62
    13
 10
-59.4589023
 20
-28.9082201
 30
0.0000000
  0
VERTEX
  8
0
 62
    13
 10
-59.1233975
 20
-28.8858741
 30
0.0000000
  0
VERTEX
  8
0
 62
    13
 10
-58.7993359
 20
-28.8598893
 30
0.0000000
  0
VERTEX
  8
0
 62
    13
 10
-58.4867524
 20
-28.8305706
 30
0.0000000
  0
VERTEX
  8
0
 62
    13
 10
-58.1856760
 20
-28.7982233
 30
0.0000000
  0
VERTEX
  8
0
 62
    13
 10
-57.8961295
 20
-28.7631526
 30
0.0000000
  0
VERTEX
  8
0
 62
    13
 10
-57.6181294
 20
-28.7256639
 30
0.0000000
  0
VERTEX
  8
0
 62
    13
 10
-57.3516863
 20
-28.6860624
 30
0.0000000
  0
VERTEX
  8
0
 62
    13
 10
-57.0968045
 20
-28.6446534
 30
0.0000000
  0
VERTEX
  8
0
 62
    13
 10
-56.7749422
 20
-28.5871561
 30
0.0000000
  0
VERTEX
  8
0
 62
    13
 10
-56.4736083
 20
-28.5277084
 30
0.0000000
  0
VERTEX
  8
0
 62
    13
 10
-56.1927622
 20
-28.4670298
 30
0.0000000
  0
VERTEX
  8
0
 62
    13
 10
-55.9323442
 20
-28.4058377
 30
0.0000000
  0
VERTEX
  8
0
 62
    13
 10
-55.8862734
 20
-28.3944865
 30
0.0000000
  0
VERTEX
  8
0
 62
    13
 10
-55.1152260
 20
-29.8635945
 30
0.0000000
  0
VERTEX
  8
0
 62
    13
 10
-55.3395583
 20
-30.0658933
 30
0.0000000
  0
VERTEX
  8
0
 62
    13
 10
-55.5418841
 20
-30.2554158
 30
0.0000000
  0
VERTEX
  8
0
 62
    13
 10
-55.7542277
 20
-30.4613938
 30
0.0000000
  0
VERTEX
  8
0
 62
    13
 10
-55.9309683
 20
-30.6382957
 30
0.0000000
  0
VERTEX
  8
0
 62
    13
 10
-56.1135200
 20
-30.8261883
 30
0.0000000
  0
VERTEX
  8
0
 62
    13
 10
-56.3016088
 20
-31.0252665
 30
0.0000000
  0
VERTEX
  8
0
 62
    13
 10
-56.4949562
 20
-31.2357200
 30
0.0000000
  0
VERTEX
  8
0
 62
    13
 10
-56.6932798
 20
-31.4577326
 30
0.0000000
  0
VERTEX
  8
0
 62
    13
 10
-56.8962928
 20
-31.6914826
 30
0.0000000
  0
VERTEX
  8
0
 62
    13
 10
-57.1037047
 20
-31.9371426
 30
0.0000000
  0
VERTEX
  8
0
 62
    13
 10
-57.3152210
 20
-32.1948791
 30
0.0000000
  0
VERTEX
  8
0
 62
    13
 10
-57.4763724
 20
-32.3962036
 30
0.0000000
  0
VERTEX
  8
0
 62
    13
 10
-57.6395376
 20
-32.6044772
 30
0.0000000
  0
VERTEX
  8
0
 62
    13
 10
-57.8045883
 20
-32.8197637
 30
0.0000000
  0
VERTEX
  8
0
 62
    13
 10
-57.9713951
 20
-33.0421248
 30
0.0000000
  0
VERTEX
  8
0
 62
    13
 10
-58.1398275
 20
-33.2716203
 30
0.0000000
  0
VERTEX
  8
0
 62
    13
 10
-58.1482469
 20
-33.2832248
 30
0.0000000
  0
VERTEX
  8
0
 62
    13
 10
-58.0123505
 20
-33.5195296
 30
0.0000000
  0
VERTEX
  8
0
 62
    13
 10
-57.8754937
 20
-33.7552796
 30
0.0000000
  0
VERTEX
  8
0
 62
    13
 10
-57.7376790
 20
-33.9904708
 30
0.0000000
  0
VERTEX
  8
0
 62
    13
 10
-57.5989084
 20
-34.2250993
 30
0.0000000
  0
VERTEX
  8
0
 62
    13
 10
-57.4591845
 20
-34.4591613
 30
0.0000000
  0
VERTEX
  8
0
 62
    13
 10
-57.3475580
 20
-34.6446138
 30
0.0000000
  0
VERTEX
  8
0
 62
    13
 10
-57.0900144
 20
-34.6123423
 30
0.0000000
  0
VERTEX
  8
0
 62
    13
 10
-56.7347918
 20
-34.5636759
 30
0.0000000
  0
VERTEX
  8
0
 62
    13
 10
-56.3912807
 20
-34.5118778
 30
0.0000000
  0
VERTEX
  8
0
 62
    13
 10
-56.0594989
 20
-34.4572552
 30
0.0000000
  0
VERTEX
  8
0
 62
    13
 10
-55.7394580
 20
-34.4001152
 30
0.0000000
  0
VERTEX
  8
0
 62
    13
 10
-55.4311635
 20
-34.3407648
 30
0.0000000
  0
VERTEX
  8
0
 62
    13
 10
-55.1346146
 20
-34.2795104
 30
0.0000000
  0
VERTEX
  8
0
 62
    13
 10
-54.8498046
 20
-34.2166582
 30
0.0000000
  0
VERTEX
  8
0
 62
    13
 10
-54.5767205
 20
-34.1525136
 30
0.0000000
  0
VERTEX
  8
0
 62
    13
 10
-54.3153433
 20
-34.0873815
 30
0.0000000
  0
VERTEX
  8
0
 62
    13
 10
-54.0656479
 20
-34.0215661
 30
0.0000000
  0
VERTEX
  8
0
 62
    13
 10
-53.7508375
 20
-33.9332731
 30
0.0000000
  0
VERTEX
  8
0
 62
    13
 10
-53.4566478
 20
-33.8450200
 30
0.0000000
  0
VERTEX
  8
0
 62
    13
 10
-53.1829691
 20
-33.7575191
 30
0.0000000
  0
VERTEX
  8
0
 62
    13
 10
-52.9296728
 20
-33.6714787
 30
0.0000000
  0
VERTEX
  8
0
 62
    13
 10
-52.8849126
 20
-33.6557341
 30
0.0000000
  0
VERTEX
  8
0
 62
    13
 10
-51.9756754
 20
-35.0435669
 30
0.0000000
  0
VERTEX
  8
0
 62
    13
 10
-52.1794357
 20
-35.2665725
 30
0.0000000
  0
VERTEX
  8
0
 62
    13
 10
-52.3625255
 20
-35.4747374
 30
0.0000000
  0
VERTEX
  8
0
 62
    13
 10
-52.5539980
 20
-35.7002480
 30
0.0000000
  0
VERTEX
  8
0
 62
    13
 10
-52.7128401
 20
-35.8933820
 30
0.0000000
  0
VERTEX
  8
0
 62
    13
 10
-52.8764053
 20
-36.0980162
 30
0.0000000
  0
VERTEX
  8
0
 62
    13
 10
-53.0444022
 20
-36.3143183
 30
0.0000000
  0
VERTEX
  8
0
 62
    13
 10
-53.2165353
 20
-36.5424500
 30
0.0000000
  0
VERTEX
  8
0
 62
    13
 10
-53.3925057
 20
-36.7825671
 30
0.0000000
  0
VERTEX
  8
0
 62
    13
 10
-53.5720109
 20
-37.0348195
 30
0.0000000
  0
VERTEX
  8
0
 62
    13
 10
-53.7547449
 20
-37.2993508
 30
0.0000000
  0
VERTEX
  8
0
 62
    13
 10
-53.9403986
 20
-37.5762983
 30
0.0000000
  0
VERTEX
  8
0
 62
    13
 10
-54.0813670
 20
-37.7922363
 30
0.0000000
  0
VERTEX
  8
0
 62
    13
 10
-54.2236692
 20
-38.0152854
 30
0.0000000
  0
VERTEX
  8
0
 62
    13
 10
-54.3671713
 20
-38.2454965
 30
0.0000000
  0
VERTEX
  8
0
 62
    13
 10
-54.5117384
 20
-38.4829187
 30
0.0000000
  0
VERTEX
  8
0
 62
    13
 10
-54.6572350
 20
-38.7275989
 30
0.0000000
  0
VERTEX
  8
0
 62
    13
 10
-54.6644952
 20
-38.7399619
 30
0.0000000
  0
VERTEX
  8
0
 62
    13
 10
-54.5064264
 20
-38.9620476
 30
0.0000000
  0
VERTEX
  8
0
 62
    13
 10
-54.3474554
 20
-39.1834884
 30
0.0000000
  0
VERTEX
  8
0
 62
    13
 10
-54.1875848
 20
-39.4042806
 30
0.0000000
  0
VERTEX
  8
0
 62
    13
 10
-54.0268172
 20
-39.6244205
 30
0.0000000
  0
VERTEX
  8
0
 62
    13
 10
-53.8651552
 20
-39.8439045
 30
0.0000000
  0
VERTEX
  8
0
 62
    13
 10
-53.7361512
 20
-40.0177178
 30
0.0000000
  0
VERTEX
  8
0
 62
    13
 10
-53.4829245
 20
-39.9607404
 30
0.0000000
  0
VERTEX
  8
0
 62
    13
 10
-53.1340572
 20
-39.8780172
 30
0.0000000
  0
VERTEX
  8
0
 62
    13
 10
-52.7971490
 20
-39.7933073
 30
0.0000000
  0
VERTEX
  8
0
 62
    13
 10
-52.4721879
 20
-39.7069182
 30
0.0000000
  0
VERTEX
  8
0
 62
    13
 10
-52.1591559
 20
-39.6191566
 30
0.0000000
  0
VERTEX
  8
0
 62
    13
 10
-51.8580287
 20
-39.5303285
 30
0.0000000
  0
VERTEX
  8
0
 62
    13
 10
-51.5687761
 20
-39.4407390
 30
0.0000000
  0
VERTEX
  8
0
 62
    13
 10
-51.2913618
 20
-39.3506920
 30
0.0000000
  0
VERTEX
  8
0
 62
    13
 10
-51.0257434
 20
-39.2604905
 30
0.0000000
  0
VERTEX
  8
0
 62
    13
 10
-50.7718726
 20
-39.1704359
 30
0.0000000
  0
VERTEX
  8
0
 62
    13
 10
-50.5296950
 20
-39.0808287
 30
0.0000000
  0
VERTEX
  8
0
 62
    13
 10
-50.2248757
 20
-38.9625643
 30
0.0000000
  0
VERTEX
  8
0
 62
    13
 10
-49.9405771
 20
-38.8463298
 30
0.0000000
  0
VERTEX
  8
0
 62
    13
 10
-49.6766211
 20
-38.7328236
 30
0.0000000
  0
VERTEX
  8
0
 62
    13
 10
-49.4328113
 20
-38.6227382
 30
0.0000000
  0
VERTEX
  8
0
 62
    13
 10
-49.3897796
 20
-38.6027471
 30
0.0000000
  0
VERTEX
  8
0
 62
    13
 10
-48.3508419
 20
-39.8963470
 30
0.0000000
  0
VERTEX
  8
0
 62
    13
 10
-48.5321279
 20
-40.1379772
 30
0.0000000
  0
VERTEX
  8
0
 62
    13
 10
-48.6942721
 20
-40.3628410
 30
0.0000000
  0
VERTEX
  8
0
 62
    13
 10
-48.8630858
 20
-40.6057786
 30
0.0000000
  0
VERTEX
  8
0
 62
    13
 10
-49.0025462
 20
-40.8133415
 30
0.0000000
  0
VERTEX
  8
0
 62
    13
 10
-49.1455979
 20
-41.0328067
 30
0.0000000
  0
VERTEX
  8
0
 62
    13
 10
-49.2919343
 20
-41.2643130
 30
0.0000000
  0
VERTEX
  8
0
 62
    13
 10
-49.4412460
 20
-41.5079929
 30
0.0000000
  0
VERTEX
  8
0
 62
    13
 10
-49.5932202
 20
-41.7639727
 30
0.0000000
  0
VERTEX
  8
0
 62
    13
 10
-49.7475415
 20
-42.0323723
 30
0.0000000
  0
VERTEX
  8
0
 62
    13
 10
-49.9038915
 20
-42.3133050
 30
0.0000000
  0
VERTEX
  8
0
 62
    13
 10
-50.0619492
 20
-42.6068778
 30
0.0000000
  0
VERTEX
  8
0
 62
    13
 10
-50.1814186
 20
-42.8354131
 30
0.0000000
  0
VERTEX
  8
0
 62
    13
 10
-50.3015291
 20
-43.0711551
 30
0.0000000
  0
VERTEX
  8
0
 62
    13
 10
-50.4221427
 20
-43.3141415
 30
0.0000000
  0
VERTEX
  8
0
 62
    13
 10
-50.5431204
 20
-43.5644080
 30
0.0000000
  0
VERTEX
  8
0
 62
    13
 10
-50.6643226
 20
-43.8219884
 30
0.0000000
  0
VERTEX
  8
0
 62
    13
 10
-50.6703557
 20
-43.8349943
 30
0.0000000
  0
VERTEX
  8
0
 62
    13
 10
-50.4915905
 20
-44.0407875
 30
0.0000000
  0
VERTEX
  8
0
 62
    13
 10
-50.3119895
 20
-44.2458516
 30
0.0000000
  0
VERTEX
  8
0
 62
    13
 10
-50.1315557
 20
-44.4501833
 30
0.0000000
  0
VERTEX
  8
0
 62
    13
 10
-49.9502921
 20
-44.6537792
 30
0.0000000
  0
VERTEX
  8
0
 62
    13
 10
-49.7682016
 20
-44.8566360
 30
0.0000000
  0
VERTEX
  8
0
 62
    13
 10
-49.6230243
 20
-45.0171871
 30
0.0000000
  0
VERTEX
  8
0
 62
    13
 10
-49.3764789
 20
-44.9360358
 30
0.0000000
  0
VERTEX
  8
0
 62
    13
 10
-49.0372242
 20
-44.8200283
 30
0.0000000
  0
VERTEX
  8
0
 62
    13
 10
-48.7100645
 20
-44.7031975
 30
0.0000000
  0
VERTEX
  8
0
 62
    13
 10
-48.3949582
 20
-44.5858484
 30
0.0000000
  0
VERTEX
  8
0
 62
    13
 10
-48.0918577
 20
-44.4682845
 30
0.0000000
  0
VERTEX
  8
0
 62
    13
 10
-47.8007095
 20
-44.3508081
 30
0.0000000
  0
VERTEX
  8
0
 62
    13
 10
-47.5214539
 20
-44.2337200
 30
0.0000000
  0
VERTEX
  8
0
 62
    13
 10
-47.2540254
 20
-44.1173190
 30
0.0000000
  0
VERTEX
  8
0
 62
    13
 10
-46.9983528
 20
-44.0019027
 30
0.0000000
  0
VERTEX
  8
0
 62
    13
 10
-46.7543586
 20
-43.8877665
 30
0.0000000
  0
VERTEX
  8
0
 62
    13
 10
-46.5219599
 20
-43.7752041
 30
0.0000000
  0
VERTEX
  8
0
 62
    13
 10
-46.2299778
 20
-43.6280725
 30
0.0000000
  0
VERTEX
  8
0
 62
    13
 10
-45.9582246
 20
-43.4849418
 30
0.0000000
  0
VERTEX
  8
0
 62
    13
 10
-45.7064558
 20
-43.3464901
 30
0.0000000
  0
VERTEX
  8
0
 62
    13
 10
-45.4744090
 20
-43.2133876
 30
0.0000000
  0
VERTEX
  8
0
 62
    13
 10
-45.4335076
 20
-43.1893367
 30
0.0000000
  0
VERTEX
  8
0
 62
    13
 10
-44.2745697
 20
-44.3766256
 30
0.0000000
  0
VERTEX
  8
0
 62
    13
 10
-44.4316886
 20
-44.6346244
 30
0.0000000
  0
VERTEX
  8
0
 62
    13
 10
-44.5713734
 20
-44.8740877
 30
0.0000000
  0
VERTEX
  8
0
 62
    13
 10
-44.7159522
 20
-45.1321840
 30
0.0000000
  0
VERTEX
  8
0
 62
    13
 10
-44.8347288
 20
-45.3522378
 30
0.0000000
  0
VERTEX
  8
0
 62
    13
 10
-44.9559312
 20
-45.5844849
 30
0.0000000
  0
VERTEX
  8
0
 62
    13
 10
-45.0792409
 20
-45.8290340
 30
0.0000000
  0
VERTEX
  8
0
 62
    13
 10
-45.2043370
 20
-46.0859870
 30
0.0000000
  0
VERTEX
  8
0
 62
    13
 10
-45.3308962
 20
-46.3554394
 30
0.0000000
  0
VERTEX
  8
0
 62
    13
 10
-45.4585928
 20
-46.6374801
 30
0.0000000
  0
VERTEX
  8
0
 62
    13
 10
-45.5870990
 20
-46.9321913
 30
0.0000000
  0
VERTEX
  8
0
 62
    13
 10
-45.7160849
 20
-47.2396483
 30
0.0000000
  0
VERTEX
  8
0
 62
    13
 10
-45.8129397
 20
-47.4786472
 30
0.0000000
  0
VERTEX
  8
0
 62
    13
 10
-45.9097371
 20
-47.7248810
 30
0.0000000
  0
VERTEX
  8
0
 62
    13
 10
-46.0063361
 20
-47.9783739
 30
0.0000000
  0
VERTEX
  8
0
 62
    13
 10
-46.1025948
 20
-48.2391482
 30
0.0000000
  0
VERTEX
  8
0
 62
    13
 10
-46.1983711
 20
-48.5072237
 30
0.0000000
  0
VERTEX
  8
0
 62
    13
 10
-46.2031208
 20
-48.5207513
 30
0.0000000
  0
VERTEX
  8
0
 62
    13
 10
-46.0053283
 20
-48.7083304
 30
0.0000000
  0
VERTEX
  8
0
 62
    13
 10
-45.8067742
 20
-48.8951032
 30
0.0000000
  0
VERTEX
  8
0
 62
    13
 10
-45.6074618
 20
-49.0810666
 30
0.0000000
  0
VERTEX
  8
0
 62
    13
 10
-45.4073945
 20
-49.2662176
 30
0.0000000
  0
VERTEX
  8
0
 62
    13
 10
-45.2065756
 20
-49.4505531
 30
0.0000000
  0
VERTEX
  8
0
 62
    13
 10
-45.0465807
 20
-49.5963431
 30
0.0000000
  0
VERTEX
  8
0
 62
    13
 10
-44.8090185
 20
-49.4917756
 30
0.0000000
  0
VERTEX
  8
0
 62
    13
 10
-44.4825439
 20
-49.3435668
 30
0.0000000
  0
VERTEX
  8
0
 62
    13
 10
-44.1681873
 20
-49.1957060
 30
0.0000000
  0
VERTEX
  8
0
 62
    13
 10
-43.8658778
 20
-49.0484925
 30
0.0000000
  0
VERTEX
  8
0
 62
    13
 10
-43.5755389
 20
-48.9022241
 30
0.0000000
  0
VERTEX
  8
0
 62
    13
 10
-43.2970879
 20
-48.7571963
 30
0.0000000
  0
VERTEX
  8
0
 62
    13
 10
-43.0304366
 20
-48.6137026
 30
0.0000000
  0
VERTEX
  8
0
 62
    13
 10
-42.7754909
 20
-48.4720345
 30
0.0000000
  0
VERTEX
  8
0
 62
    13
 10
-42.5321511
 20
-48.3324811
 30
0.0000000
  0
VERTEX
  8
0
 62
    13
 10
-42.3003118
 20
-48.1953289
 30
0.0000000
  0
VERTEX
  8
0
 62
    13
 10
-42.0798618
 20
-48.0608622
 30
0.0000000
  0
VERTEX
  8
0
 62
    13
 10
-41.8034430
 20
-47.8862371
 30
0.0000000
  0
VERTEX
  8
0
 62
    13
 10
-41.5467726
 20
-47.7175467
 30
0.0000000
  0
VERTEX
  8
0
 62
    13
 10
-41.3095416
 20
-47.5554421
 30
0.0000000
  0
VERTEX
  8
0
 62
    13
 10
-41.0914244
 20
-47.4005653
 30
0.0000000
  0
VERTEX
  8
0
 62
    13
 10
-41.0530352
 20
-47.3726790
 30
0.0000000
  0
VERTEX
  8
0
 62
    13
 10
-39.7849177
 20
-48.4425716
 30
0.0000000
  0
VERTEX
  8
0
 62
    13
 10
-39.9164027
 20
-48.7145302
 30
0.0000000
  0
VERTEX
  8
0
 62
    13
 10
-40.0323238
 20
-48.9663571
 30
0.0000000
  0
VERTEX
  8
0
 62
    13
 10
-40.1513178
 20
-49.2372023
 30
0.0000000
  0
VERTEX
  8
0
 62
    13
 10
-40.2483017
 20
-49.4676924
 30
0.0000000
  0
VERTEX
  8
0
 62
    13
 10
-40.3465231
 20
-49.7105531
 30
0.0000000
  0
VERTEX
  8
0
 62
    13
 10
-40.4456548
 20
-49.9658616
 30
0.0000000
  0
VERTEX
  8
0
 62
    13
 10
-40.5453674
 20
-50.2336885
 30
0.0000000
  0
VERTEX
  8
0
 62
    13
 10
-40.6453298
 20
-50.5140978
 30
0.0000000
  0
VERTEX
  8
0
 62
    13
 10
-40.7452094
 20
-50.8071463
 30
0.0000000
  0
VERTEX
  8
0
 62
    13
 10
-40.8446719
 20
-51.1128843
 30
0.0000000
  0
VERTEX
  8
0
 62
    13
 10
-40.9433818
 20
-51.4313550
 30
0.0000000
  0
VERTEX
  8
0
 62
    13
 10
-41.0167178
 20
-51.6785860
 30
0.0000000
  0
VERTEX
  8
0
 62
    13
 10
-41.0892983
 20
-51.9330125
 30
0.0000000
  0
VERTEX
  8
0
 62
    13
 10
-41.1609807
 20
-52.1946452
 30
0.0000000
  0
VERTEX
  8
0
 62
    13
 10
-41.2316217
 20
-52.4634924
 30
0.0000000
  0
VERTEX
  8
0
 62
    13
 10
-41.3010779
 20
-52.7395602
 30
0.0000000
  0
VERTEX
  8
0
 62
    13
 10
-41.3044998
 20
-52.7534830
 30
0.0000000
  0
VERTEX
  8
0
 62
    13
 10
-41.0895266
 20
-52.9210967
 30
0.0000000
  0
VERTEX
  8
0
 62
    13
 10
-40.8738733
 20
-53.0878344
 30
0.0000000
  0
VERTEX
  8
0
 62
    13
 10
-40.6575434
 20
-53.2536932
 30
0.0000000
  0
VERTEX
  8
0
 62
    13
 10
-40.4405404
 20
-53.4186706
 30
0.0000000
  0
VERTEX
  8
0
 62
    13
 10
-40.2228680
 20
-53.5827637
 30
0.0000000
  0
VERTEX
  8
0
 62
    13
 10
-40.0495493
 20
-53.7124313
 30
0.0000000
  0
VERTEX
  8
0
 62
    13
 10
-39.8231883
 20
-53.5854239
 30
0.0000000
  0
VERTEX
  8
0
 62
    13
 10
-39.5125420
 20
-53.4063977
 30
0.0000000
  0
VERTEX
  8
0
 62
    13
 10
-39.2139235
 20
-53.2288874
 30
0.0000000
  0
VERTEX
  8
0
 62
    13
 10
-38.9272336
 20
-53.0531841
 30
0.0000000
  0
VERTEX
  8
0
 62
    13
 10
-38.6523670
 20
-52.8795767
 30
0.0000000
  0
VERTEX
  8
0
 62
    13
 10
-38.3892131
 20
-52.7083516
 30
0.0000000
  0
VERTEX
  8
0
 62
    13
 10
-38.1376558
 20
-52.5397923
 30
0.0000000
  0
VERTEX
  8
0
 62
    13
 10
-37.8975732
 20
-52.3741797
 30
0.0000000
  0
VERTEX
  8
0
 62
    13
 10
-37.6688383
 20
-52.2117921
 30
0.0000000
  0
VERTEX
  8
0
 62
    13
 10
-37.4513183
 20
-52.0529044
 30
0.0000000
  0
VERTEX
  8
0
 62
    13
 10
-37.2448754
 20
-51.8977890
 30
0.0000000
  0
VERTEX
  8
0
 62
    13
 10
-36.9866008
 20
-51.6973009
 30
0.0000000
  0
VERTEX
  8
0
 62
    13
 10
-36.7474096
 20
-51.5046257
 30
0.0000000
  0
VERTEX
  8
0
 62
    13
 10
-36.5269314
 20
-51.3203818
 30
0.0000000
  0
VERTEX
  8
0
 62
    13
 10
-36.3247802
 20
-51.1451766
 30
0.0000000
  0
VERTEX
  8
0
 62
    13
 10
-36.2892616
 20
-51.1137154
 30
0.0000000
  0
VERTEX
  8
0
 62
    13
 10
-34.9238046
 20
-52.0562224
 30
0.0000000
  0
VERTEX
  8
0
 62
    13
 10
-35.0284280
 20
-52.3396015
 30
0.0000000
  0
VERTEX
  8
0
 62
    13
 10
-35.1195032
 20
-52.6014408
 30
0.0000000
  0
VERTEX
  8
0
 62
    13
 10
-35.2118013
 20
-52.8825062
 30
0.0000000
  0
VERTEX
  8
0
 62
    13
 10
-35.2860869
 20
-53.1212806
 30
0.0000000
  0
VERTEX
  8
0
 62
    13
 10
-35.3604104
 20
-53.3724872
 30
0.0000000
  0
VERTEX
  8
0
 62
    13
 10
-35.4344385
 20
-53.6361714
 30
0.0000000
  0
VERTEX
  8
0
 62
    13
 10
-35.5078365
 20
-53.9123717
 30
0.0000000
  0
VERTEX
  8
0
 62
    13
 10
-35.5802689
 20
-54.2011197
 30
0.0000000
  0
VERTEX
  8
0
 62
    13
 10
-35.6513990
 20
-54.5024399
 30
0.0000000
  0
VERTEX
  8
0
 62
    13
 10
-35.7208892
 20
-54.8163501
 30
0.0000000
  0
VERTEX
  8
0
 62
    13
 10
-35.7884014
 20
-55.1428610
 30
0.0000000
  0
VERTEX
  8
0
 62
    13
 10
-35.8375338
 20
-55.3960157
 30
0.0000000
  0
VERTEX
  8
0
 62
    13
 10
-35.8852198
 20
-55.6562596
 30
0.0000000
  0
VERTEX
  8
0
 62
    13
 10
-35.9313163
 20
-55.9235892
 30
0.0000000
  0
VERTEX
  8
0
 62
    13
 10
-35.9756801
 20
-56.1979991
 30
0.0000000
  0
VERTEX
  8
0
 62
    13
 10
-36.0181676
 20
-56.4794817
 30
0.0000000
  0
VERTEX
  8
0
 62
    13
 10
-36.0202298
 20
-56.4936697
 30
0.0000000
  0
VERTEX
  8
0
 62
    13
 10
-35.7900832
 20
-56.6397530
 30
0.0000000
  0
VERTEX
  8
0
 62
    13
 10
-35.5593441
 20
-56.7848987
 30
0.0000000
  0
VERTEX
  8
0
 62
    13
 10
-35.3280164
 20
-56.9291045
 30
0.0000000
  0
VERTEX
  8
0
 62
    13
 10
-35.0961038
 20
-57.0723678
 30
0.0000000
  0
VERTEX
  8
0
 62
    13
 10
-34.8636104
 20
-57.2146865
 30
0.0000000
  0
VERTEX
  8
0
 62
    13
 10
-34.6785860
 20
-57.3270211
 30
0.0000000
  0
VERTEX
  8
0
 62
    13
 10
-34.4655397
 20
-57.1787597
 30
0.0000000
  0
VERTEX
  8
0
 62
    13
 10
-34.1736222
 20
-56.9705875
 30
0.0000000
  0
VERTEX
  8
0
 62
    13
 10
-33.8935300
 20
-56.7650850
 30
0.0000000
  0
VERTEX
  8
0
 62
    13
 10
-33.6251362
 20
-56.5625324
 30
0.0000000
  0
VERTEX
  8
0
 62
    13
 10
-33.3683083
 20
-56.3632070
 30
0.0000000
  0
VERTEX
  8
0
 62
    13
 10
-33.1229086
 20
-56.1673832
 30
0.0000000
  0
VERTEX
  8
0
 62
    13
 10
-32.8887939
 20
-55.9753320
 30
0.0000000
  0
VERTEX
  8
0
 62
    13
 10
-32.6658161
 20
-55.7873213
 30
0.0000000
  0
VERTEX
  8
0
 62
    13
 10
-32.4538216
 20
-55.6036156
 30
0.0000000
  0
VERTEX
  8
0
 62
    13
 10
-32.2526520
 20
-55.4244760
 30
0.0000000
  0
VERTEX
  8
0
 62
    13
 10
-32.0621436
 20
-55.2501601
 30
0.0000000
  0
VERTEX
  8
0
 62
    13
 10
-31.8244246
 20
-55.0256809
 30
0.0000000
  0
VERTEX
  8
0
 62
    13
 10
-31.6049459
 20
-54.8108199
 30
0.0000000
  0
VERTEX
  8
0
 62
    13
 10
-31.4032791
 20
-54.6061569
 30
0.0000000
  0
VERTEX
  8
0
 62
    13
 10
-31.2189813
 20
-54.4122592
 30
0.0000000
  0
VERTEX
  8
0
 62
    13
 10
-31.1866650
 20
-54.3775169
 30
0.0000000
  0
VERTEX
  8
0
 62
    13
 10
-29.7366174
 20
-55.1838382
 30
0.0000000
  0
VERTEX
  8
0
 62
    13
 10
-29.8134023
 20
-55.4759920
 30
0.0000000
  0
VERTEX
  8
0
 62
    13
 10
-29.8787812
 20
-55.7453990
 30
0.0000000
  0
VERTEX
  8
0
 62
    13
 10
-29.9435217
 20
-56.0340603
 30
0.0000000
  0
VERTEX
  8
0
 62
    13
 10
-29.9944155
 20
-56.2788897
 30
0.0000000
  0
VERTEX
  8
0
 62
    13
 10
-30.0441471
 20
-56.5360968
 30
0.0000000
  0
VERTEX
  8
0
 62
    13
 10
-30.0923804
 20
-56.8056948
 30
0.0000000
  0
VERTEX
  8
0
 62
    13
 10
-30.1387786
 20
-57.0876896
 30
0.0000000
  0
VERTEX
  8
0
 62
    13
 10
-30.1830046
 20
-57.3820803
 30
0.0000000
  0
VERTEX
  8
0
 62
    13
 10
-30.2247210
 20
-57.6888589
 30
0.0000000
  0
VERTEX
  8
0
 62
    13
 10
-30.2635902
 20
-58.0080105
 30
0.0000000
  0
VERTEX
  8
0
 62
    13
 10
-30.2992744
 20
-58.3395129
 30
0.0000000
  0
VERTEX
  8
0
 62
    13
 10
-30.3237444
 20
-58.5962278
 30
0.0000000
  0
VERTEX
  8
0
 62
    13
 10
-30.3460907
 20
-58.8598591
 30
0.0000000
  0
VERTEX
  8
0
 62
    13
 10
-30.3661710
 20
-59.1303897
 30
0.0000000
  0
VERTEX
  8
0
 62
    13
 10
-30.3838432
 20
-59.4078003
 30
0.0000000
  0
VERTEX
  8
0
 62
    13
 10
-30.3989655
 20
-59.6920694
 30
0.0000000
  0
VERTEX
  8
0
 62
    13
 10
-30.3996487
 20
-59.7063903
 30
0.0000000
  0
VERTEX
  8
0
 62
    13
 10
-30.1564773
 20
-59.8295792
 30
0.0000000
  0
VERTEX
  8
0
 62
    13
 10
-29.9128068
 20
-59.9517778
 30
0.0000000
  0
VERTEX
  8
0
 62
    13
 10
-29.6686412
 20
-60.0729840
 30
0.0000000
  0
VERTEX
  8
0
 62
    13
 10
-29.4239844
 20
-60.1931958
 30
0.0000000
  0
VERTEX
  8
0
 62
    13
 10
-29.1788406
 20
-60.3124112
 30
0.0000000
  0
VERTEX
  8
0
 62
    13
 10
-28.9838381
 20
-60.4063640
 30
0.0000000
  0
VERTEX
  8
0
 62
    13
 10
-28.7860957
 20
-60.2382327
 30
0.0000000
  0
VERTEX
  8
0
 62
    13
 10
-28.5156324
 20
-60.0028583
 30
0.0000000
  0
VERTEX
  8
0
 62
    13
 10
-28.2566817
 20
-59.7712823
 30
0.0000000
  0
VERTEX
  8
0
 62
    13
 10
-28.0090900
 20
-59.5437716
 30
0.0000000
  0
VERTEX
  8
0
 62
    13
 10
-27.7726987
 20
-59.3205893
 30
0.0000000
  0
VERTEX
  8
0
 62
    13
 10
-27.5473443
 20
-59.1019951
 30
0.0000000
  0
VERTEX
  8
0
 62
    13
 10
-27.3328582
 20
-58.8882452
 30
0.0000000
  0
VERTEX
  8
0
 62
    13
 10
-27.1290670
 20
-58.6795917
 30
0.0000000
  0
VERTEX
  8
0
 62
    13
 10
-26.9357923
 20
-58.4762832
 30
0.0000000
  0
VERTEX
  8
0
 62
    13
 10
-26.7528513
 20
-58.2785642
 30
0.0000000
  0
VERTEX
  8
0
 62
    13
 10
-26.5800562
 20
-58.0866754
 30
0.0000000
  0
VERTEX
  8
0
 62
    13
 10
-26.3651124
 20
-57.8403009
 30
0.0000000
  0
VERTEX
  8
0
 62
    13
 10
-26.1673953
 20
-57.6052602
 30
0.0000000
  0
VERTEX
  8
0
 62
    13
 10
-25.9864228
 20
-57.3820890
 30
0.0000000
  0
VERTEX
  8
0
 62
    13
 10
-25.8216992
 20
-57.1713092
 30
0.0000000
  0
VERTEX
  8
0
 62
    13
 10
-25.7928869
 20
-57.1336101
 30
0.0000000
  0
VERTEX
  8
0
 62
    13
 10
-24.2717874
 20
-57.7962175
 30
0.0000000
  0
VERTEX
  8
0
 62
    13
 10
-24.3200170
 20
-58.0944182
 30
0.0000000
  0
VERTEX
  8
0
 62
    13
 10
-24.3590891
 20
-58.3688774
 30
0.0000000
  0
VERTEX
  8
0
 62
    13
 10
-24.3956676
 20
-58.6624396
 30
0.0000000
  0
VERTEX
  8
0
 62
    13
 10
-24.4226943
 20
-58.9110379
 30
0.0000000
  0
VERTEX
  8
0
 62
    13
 10
-24.4473697
 20
-59.1718441
 30
0.0000000
  0
VERTEX
  8
0
 62
    13
 10
-24.4693578
 20
-59.4448387
 30
0.0000000
  0
VERTEX
  8
0
 62
    13
 10
-24.4883230
 20
-59.7299951
 30
0.0000000
  0
VERTEX
  8
0
 62
    13
 10
-24.5039298
 20
-60.0272799
 30
0.0000000
  0
VERTEX
  8
0
 62
    13
 10
-24.5158430
 20
-60.3366526
 30
0.0000000
  0
VERTEX
  8
0
 62
    13
 10
-24.5237281
 20
-60.6580656
 30
0.0000000
  0
VERTEX
  8
0
 62
    13
 10
-24.5272512
 20
-60.9914645
 30
0.0000000
  0
VERTEX
  8
0
 62
    13
 10
-24.5268304
 20
-61.2493427
 30
0.0000000
  0
VERTEX
  8
0
 62
    13
 10
-24.5236282
 20
-61.5138999
 30
0.0000000
  0
VERTEX
  8
0
 62
    13
 10
-24.5175048
 20
-61.7851056
 30
0.0000000
  0
VERTEX
  8
0
 62
    13
 10
-24.5083206
 20
-62.0629268
 30
0.0000000
  0
VERTEX
  8
0
 62
    13
 10
-24.4959363
 20
-62.3473284
 30
0.0000000
  0
VERTEX
  8
0
 62
    13
 10
-24.4952342
 20
-62.3616483
 30
0.0000000
  0
VERTEX
  8
0
 62
    13
 10
-24.2413086
 20
-62.4607928
 30
0.0000000
  0
VERTEX
  8
0
 62
    13
 10
-23.9869818
 20
-62.5589033
 30
0.0000000
  0
VERTEX
  8
0
 62
    13
 10
-23.7322579
 20
-62.6559783
 30
0.0000000
  0
VERTEX
  8
0
 62
    13
 10
-23.4771412
 20
-62.7520161
 30
0.0000000
  0
VERTEX
  8
0
 62
    13
 10
-23.2216358
 20
-62.8470151
 30
0.0000000
  0
VERTEX
  8
0
 62
    13
 10
-23.0184759
 20
-62.9217088
 30
0.0000000
  0
VERTEX
  8
0
 62
    13
 10
-22.8378837
 20
-62.7352776
 30
0.0000000
  0
VERTEX
  8
0
 62
    13
 10
-22.5913999
 20
-62.4748985
 30
0.0000000
  0
VERTEX
  8
0
 62
    13
 10
-22.3560084
 20
-62.2194113
 30
0.0000000
  0
VERTEX
  8
0
 62
    13
 10
-22.1315305
 20
-61.9690666
 30
0.0000000
  0
VERTEX
  8
0
 62
    13
 10
-21.9177830
 20
-61.7241111
 30
0.0000000
  0
VERTEX
  8
0
 62
    13
 10
-21.7145780
 20
-61.4847877
 30
0.0000000
  0
VERTEX
  8
0
 62
    13
 10
-21.5217230
 20
-61.2513347
 30
0.0000000
  0
VERTEX
  8
0
 62
    13
 10
-21.3390211
 20
-61.0239866
 30
0.0000000
  0
VERTEX
  8
0
 62
    13
 10
-21.1662708
 20
-60.8029735
 30
0.0000000
  0
VERTEX
  8
0
 62
    13
 10
-21.0032665
 20
-60.5885212
 30
0.0000000
  0
VERTEX
  8
0
 62
    13
 10
-20.8497980
 20
-60.3808510
 30
0.0000000
  0
VERTEX
  8
0
 62
    13
 10
-20.6596362
 20
-60.1148816
 30
0.0000000
  0
VERTEX
  8
0
 62
    13
 10
-20.4855268
 20
-59.8618557
 30
0.0000000
  0
VERTEX
  8
0
 62
    13
 10
-20.3269383
 20
-59.6222600
 30
0.0000000
  0
VERTEX
  8
0
 62
    13
 10
-20.1833269
 20
-59.3965661
 30
0.0000000
  0
VERTEX
  8
0
 62
    13
 10
-20.1582876
 20
-59.3562622
 30
0.0000000
  0
VERTEX
  8
0
 62
    13
 10
-18.5803383
 20
-59.8689690
 30
0.0000000
  0
VERTEX
  8
0
 62
    13
 10
-18.5995622
 20
-60.1704324
 30
0.0000000
  0
VERTEX
  8
0
 62
    13
 10
-18.6119628
 20
-60.4473814
 30
0.0000000
  0
VERTEX
  8
0
 62
    13
 10
-18.6200376
 20
-60.7431034
 30
0.0000000
  0
VERTEX
  8
0
 62
    13
 10
-18.6229450
 20
-60.9931496
 30
0.0000000
  0
VERTEX
  8
0
 62
    13
 10
-18.6223337
 20
-61.2551198
 30
0.0000000
  0
VERTEX
  8
0
 62
    13
 10
-18.6178715
 20
-61.5289621
 30
0.0000000
  0
VERTEX
  8
0
 62
    13
 10
-18.6092266
 20
-61.8146178
 30
0.0000000
  0
VERTEX
  8
0
 62
    13
 10
-18.5960684
 20
-62.1120210
 30
0.0000000
  0
VERTEX
  8
0
 62
    13
 10
-18.5780672
 20
-62.4210992
 30
0.0000000
  0
VERTEX
  8
0
 62
    13
 10
-18.5548947
 20
-62.7417728
 30
0.0000000
  0
VERTEX
  8
0
 62
    13
 10
-18.5262236
 20
-63.0739552
 30
0.0000000
  0
VERTEX
  8
0
 62
    13
 10
-18.5009160
 20
-63.3305889
 30
0.0000000
  0
VERTEX
  8
0
 62
    13
 10
-18.4721953
 20
-63.5936021
 30
0.0000000
  0
VERTEX
  8
0
 62
    13
 10
-18.4399254
 20
-63.8629507
 30
0.0000000
  0
VERTEX
  8
0
 62
    13
 10
-18.4039704
 20
-64.1385885
 30
0.0000000
  0
VERTEX
  8
0
 62
    13
 10
-18.3641952
 20
-64.4204671
 30
0.0000000
  0
VERTEX
  8
0
 62
    13
 10
-18.3621143
 20
-64.4346524
 30
0.0000000
  0
VERTEX
  8
0
 62
    13
 10
-18.0998053
 20
-64.5088267
 30
0.0000000
  0
VERTEX
  8
0
 62
    13
 10
-17.8371968
 20
-64.5819331
 30
0.0000000
  0
VERTEX
  8
0
 62
    13
 10
-17.5742929
 20
-64.6539705
 30
0.0000000
  0
VERTEX
  8
0
 62
    13
 10
-17.3110982
 20
-64.7249377
 30
0.0000000
  0
VERTEX
  8
0
 62
    13
 10
-17.0476169
 20
-64.7948334
 30
0.0000000
  0
VERTEX
  8
0
 62
    13
 10
-16.8381964
 20
-64.8495707
 30
0.0000000
  0
VERTEX
  8
0
 62
    13
 10
-16.6764405
 20
-64.6465801
 30
0.0000000
  0
VERTEX
  8
0
 62
    13
 10
-16.4562376
 20
-64.3636274
 30
0.0000000
  0
VERTEX
  8
0
 62
    13
 10
-16.2466030
 20
-64.0866144
 30
0.0000000
  0
VERTEX
  8
0
 62
    13
 10
-16.0473348
 20
-63.8157731
 30
0.0000000
  0
VERTEX
  8
0
 62
    13
 10
-15.8582268
 20
-63.5513316
 30
0.0000000
  0
VERTEX
  8
0
 62
    13
 10
-15.6790685
 20
-63.2935133
 30
0.0000000
  0
VERTEX
  8
0
 62
    13
 10
-15.5096453
 20
-63.0425369
 30
0.0000000
  0
VERTEX
  8
0
 62
    13
 10
-15.3497386
 20
-62.7986169
 30
0.0000000
  0
VERTEX
  8
0
 62
    13
 10
-15.1991256
 20
-62.5619628
 30
0.0000000
  0
VERTEX
  8
0
 62
    13
 10
-15.0575798
 20
-62.3327794
 30
0.0000000
  0
VERTEX
  8
0
 62
    13
 10
-14.9248708
 20
-62.1112669
 30
0.0000000
  0
VERTEX
  8
0
 62
    13
 10
-14.7612665
 20
-61.8281859
 30
0.0000000
  0
VERTEX
  8
0
 62
    13
 10
-14.6123905
 20
-61.5595372
 30
0.0000000
  0
VERTEX
  8
0
 62
    13
 10
-14.4776667
 20
-61.3057540
 30
0.0000000
  0
VERTEX
  8
0
 62
    13
 10
-14.3565083
 20
-61.0672532
 30
0.0000000
  0
VERTEX
  8
0
 62
    13
 10
-14.3354757
 20
-61.0247208
 30
0.0000000
  0
VERTEX
  8
0
 62
    13
 10
-12.7154095
 20
-61.3827401
 30
0.0000000
  0
VERTEX
  8
0
 62
    13
 10
-12.7054483
 20
-61.6846515
 30
0.0000000
  0
VERTEX
  8
0
 62
    13
 10
-12.6910616
 20
-61.9615044
 30
0.0000000
  0
VERTEX
  8
0
 62
    13
 10
-12.6705574
 20
-62.2566252
 30
0.0000000
  0
VERTEX
  8
0
 62
    13
 10
-12.6493183
 20
-62.5057848
 30
0.0000000
  0
VERTEX
  8
0
 62
    13
 10
-12.6234261
 20
-62.7664730
 30
0.0000000
  0
VERTEX
  8
0
 62
    13
 10
-12.5925551
 20
-63.0386062
 30
0.0000000
  0
VERTEX
  8
0
 62
    13
 10
-12.5563808
 20
-63.3220940
 30
0.0000000
  0
VERTEX
  8
0
 62
    13
 10
-12.5145804
 20
-63.6168389
 30
0.0000000
  0
VERTEX
  8
0
 62
    13
 10
-12.4668330
 20
-63.9227368
 30
0.0000000
  0
VERTEX
  8
0
 62
    13
 10
-12.4128192
 20
-64.2396769
 30
0.0000000
  0
VERTEX
  8
0
 62
    13
 10
-12.3522217
 20
-64.5675415
 30
0.0000000
  0
VERTEX
  8
0
 62
    13
 10
-12.3022635
 20
-64.8205346
 30
0.0000000
  0
VERTEX
  8
0
 62
    13
 10
-12.2482925
 20
-65.0795479
 30
0.0000000
  0
VERTEX
  8
0
 62
    13
 10
-12.1901773
 20
-65.3445246
 30
0.0000000
  0
VERTEX
  8
0
 62
    13
 10
-12.1277873
 20
-65.6154055
 30
0.0000000
  0
VERTEX
  8
0
 62
    13
 10
-12.0609926
 20
-65.8921293
 30
0.0000000
  0
VERTEX
  8
0
 62
    13
 10
-12.0575523
 20
-65.9060476
 30
0.0000000
  0
VERTEX
  8
0
 62
    13
 10
-11.7893090
 20
-65.9545591
 30
0.0000000
  0
VERTEX
  8
0
 62
    13
 10
-11.5208706
 20
-66.0019789
 30
0.0000000
  0
VERTEX
  8
0
 62
    13
 10
-11.2522415
 20
-66.0483061
 30
0.0000000
  0
VERTEX
  8
0
 62
    13
 10
-10.9834261
 20
-66.0935400
 30
0.0000000
  0
VERTEX
  8
0
 62
    13
 10
-10.7144289
 20
-66.1376798
 30
0.0000000
  0
VERTEX
  8
0
 62
    13
 10
-10.5007032
 20
-66.1719496
 30
0.0000000
  0
VERTEX
  8
0
 62
    13
 10
-10.3592938
 20
-65.9542949
 30
0.0000000
  0
VERTEX
  8
0
 62
    13
 10
-10.1674278
 20
-65.6514105
 30
0.0000000
  0
VERTEX
  8
0
 62
    13
 10
-9.9855075
 20
-65.3554580
 30
0.0000000
  0
VERTEX
  8
0
 62
    13
 10
-9.8133095
 20
-65.0666490
 30
0.0000000
  0
VERTEX
  8
0
 62
    13
 10
-9.6506066
 20
-64.7851904
 30
0.0000000
  0
VERTEX
  8
0
 62
    13
 10
-9.4971677
 20
-64.5112844
 30
0.0000000
  0
VERTEX
  8
0
 62
    13
 10
-9.3527582
 20
-64.2451280
 30
0.0000000
  0
VERTEX
  8
0
 62
    13
 10
-9.2171396
 20
-63.9869135
 30
0.0000000
  0
VERTEX
  8
0
 62
    13
 10
-9.0900702
 20
-63.7368279
 30
0.0000000
  0
VERTEX
  8
0
 62
    13
 10
-8.9713046
 20
-63.4950533
 30
0.0000000
  0
VERTEX
  8
0
 62
    13
 10
-8.8605942
 20
-63.2617666
 30
0.0000000
  0
VERTEX
  8
0
 62
    13
 10
-8.7250749
 20
-62.9642170
 30
0.0000000
  0
VERTEX
  8
0
 62
    13
 10
-8.6028222
 20
-62.6824539
 30
0.0000000
  0
VERTEX
  8
0
 62
    13
 10
-8.4932209
 20
-62.4168527
 30
0.0000000
  0
VERTEX
  8
0
 62
    13
 10
-8.3956468
 20
-62.1677719
 30
0.0000000
  0
VERTEX
  8
0
 62
    13
 10
-8.3788174
 20
-62.1234081
 30
0.0000000
  0
VERTEX
  8
0
 62
    13
 10
-6.7317604
 20
-62.3233970
 30
0.0000000
  0
VERTEX
  8
0
 62
    13
 10
-6.6927070
 20
-62.6229377
 30
0.0000000
  0
VERTEX
  8
0
 62
    13
 10
-6.6516673
 20
-62.8971096
 30
0.0000000
  0
VERTEX
  8
0
 62
    13
 10
-6.6027756
 20
-63.1888738
 30
0.0000000
  0
VERTEX
  8
0
 62
    13
 10
-6.5575883
 20
-63.4348202
 30
0.0000000
  0
VERTEX
  8
0
 62
    13
 10
-6.5066569
 20
-63.6917925
 30
0.0000000
  0
VERTEX
  8
0
 62
    13
 10
-6.4496654
 20
-63.9596758
 30
0.0000000
  0
VERTEX
  8
0
 62
    13
 10
-6.3862994
 20
-64.2383488
 30
0.0000000
  0
VERTEX
  8
0
 62
    13
 10
-6.3162472
 20
-64.5276835
 30
0.0000000
  0
VERTEX
  8
0
 62
    13
 10
-6.2391993
 20
-64.8275451
 30
0.0000000
  0
VERTEX
  8
0
 62
    13
 10
-6.1548485
 20
-65.1377925
 30
0.0000000
  0
VERTEX
  8
0
 62
    13
 10
-6.0628904
 20
-65.4582780
 30
0.0000000
  0
VERTEX
  8
0
 62
    13
 10
-5.9887481
 20
-65.7052683
 30
0.0000000
  0
VERTEX
  8
0
 62
    13
 10
-5.9100306
 20
-65.9578636
 30
0.0000000
  0
VERTEX
  8
0
 62
    13
 10
-5.8266128
 20
-66.2159943
 30
0.0000000
  0
VERTEX
  8
0
 62
    13
 10
-5.7383703
 20
-66.4795891
 30
0.0000000
  0
VERTEX
  8
0
 62
    13
 10
-5.6451797
 20
-66.7485745
 30
0.0000000
  0
VERTEX
  8
0
 62
    13
 10
-5.6404121
 20
-66.7620957
 30
0.0000000
  0
VERTEX
  8
0
 62
    13
 10
-5.3687391
 20
-66.7844916
 30
0.0000000
  0
VERTEX
  8
0
 62
    13
 10
-5.0969772
 20
-66.8057819
 30
0.0000000
  0
VERTEX
  8
0
 62
    13
 10
-4.8251309
 20
-66.8259664
 30
0.0000000
  0
VERTEX
  8
0
 62
    13
 10
-4.5532048
 20
-66.8450447
 30
0.0000000
  0
VERTEX
  8
0
 62
    13
 10
-4.2812033
 20
-66.8630165
 30
0.0000000
  0
VERTEX
  8
0
 62
    13
 10
-4.0651678
 20
-66.8764988
 30
0.0000000
  0
VERTEX
  8
0
 62
    13
 10
-3.9454253
 20
-66.6462122
 30
0.0000000
  0
VERTEX
  8
0
 62
    13
 10
-3.7836875
 20
-66.3262241
 30
0.0000000
  0
VERTEX
  8
0
 62
    13
 10
-3.6311800
 20
-66.0140953
 30
0.0000000
  0
VERTEX
  8
0
 62
    13
 10
-3.4876600
 20
-65.7100151
 30
0.0000000
  0
VERTEX
  8
0
 62
    13
 10
-3.3528813
 20
-65.4141674
 30
0.0000000
  0
VERTEX
  8
0
 62
    13
 10
-3.2265945
 20
-65.1267311
 30
0.0000000
  0
VERTEX
  8
0
 62
    13
 10
-3.1085469
 20
-64.8478797
 30
0.0000000
  0
VERTEX
  8
0
 62
    13
 10
-2.9984827
 20
-64.5777815
 30
0.0000000
  0
VERTEX
  8
0
 62
    13
 10
-2.8961433
 20
-64.3165994
 30
0.0000000
  0
VERTEX
  8
0
 62
    13
 10
-2.8012667
 20
-64.0644910
 30
0.0000000
  0
VERTEX
  8
0
 62
    13
 10
-2.7135886
 20
-63.8216083
 30
0.0000000
  0
VERTEX
  8
0
 62
    13
 10
-2.6074196
 20
-63.5123682
 30
0.0000000
  0
VERTEX
  8
0
 62
    13
 10
-2.5129317
 20
-63.2201214
 30
0.0000000
  0
VERTEX
  8
0
 62
    13
 10
-2.4294763
 20
-62.9451821
 30
0.0000000
  0
VERTEX
  8
0
 62
    13
 10
-2.3563974
 20
-62.6878468
 30
0.0000000
  0
VERTEX
  8
0
 62
    13
 10
-2.3439283
 20
-62.6420659
 30
0.0000000
  0
VERTEX
  8
0
 62
    13
 10
-0.6852587
 20
-62.6821572
 30
0.0000000
  0
VERTEX
  8
0
 62
    13
 10
-0.6174778
 20
-62.9765303
 30
0.0000000
  0
VERTEX
  8
0
 62
    13
 10
-0.5501682
 20
-63.2454614
 30
0.0000000
  0
VERTEX
  8
0
 62
    13
 10
-0.4733455
 20
-63.5311448
 30
0.0000000
  0
VERTEX
  8
0
 62
    13
 10
-0.4046318
 20
-63.7715819
 30
0.0000000
  0
VERTEX
  8
0
 62
    13
 10
-0.3291369
 20
-64.0224389
 30
0.0000000
  0
VERTEX
  8
0
 62
    13
 10
-0.2465569
 20
-64.2835712
 30
0.0000000
  0
VERTEX
  8
0
 62
    13
 10
-0.1565909
 20
-64.5548276
 30
0.0000000
  0
VERTEX
  8
0
 62
    13
 10
-0.0589410
 20
-64.8360504
 30
0.0000000
  0
VERTEX
  8
0
 62
    13
 10
0.0466881
 20
-65.1270760
 30
0.0000000
  0
VERTEX
  8
0
 62
    13
 10
0.1605884
 20
-65.4277340
 30
0.0000000
  0
VERTEX
  8
0
 62
    13
 10
0.2830484
 20
-65.7378481
 30
0.0000000
  0
VERTEX
  8
0
 62
    13
 10
0.3806827
 20
-65.9765297
 30
0.0000000
  0
VERTEX
  8
0
 62
    13
 10
0.4834116
 20
-66.2203484
 30
0.0000000
  0
VERTEX
  8
0
 62
    13
 10
0.5913532
 20
-66.4692231
 30
0.0000000
  0
VERTEX
  8
0
 62
    13
 10
0.7046243
 20
-66.7230707
 30
0.0000000
  0
VERTEX
  8
0
 62
    13
 10
0.8233407
 20
-66.9818062
 30
0.0000000
  0
VERTEX
  8
0
 62
    13
 10
0.8293910
 20
-66.9948042
 30
0.0000000
  0
VERTEX
  8
0
 62
    13
 10
1.1019573
 20
-66.9908752
 30
0.0000000
  0
VERTEX
  8
0
 62
    13
 10
1.3745053
 20
-66.9858374
 30
0.0000000
  0
VERTEX
  8
0
 62
    13
 10
1.6470306
 20
-66.9796907
 30
0.0000000
  0
VERTEX
  8
0
 62
    13
 10
1.9195286
 20
-66.9724353
 30
0.0000000
  0
VERTEX
  8
0
 62
    13
 10
2.1919948
 20
-66.9640712
 30
0.0000000
  0
VERTEX
  8
0
 62
    13
 10
2.4083230
 20
-66.9566401
 30
0.0000000
  0
VERTEX
  8
0
 62
    13
 10
2.5052807
 20
-66.7158718
 30
0.0000000
  0
VERTEX
  8
0
 62
    13
 10
2.6353801
 20
-66.3817676
 30
0.0000000
  0
VERTEX
  8
0
 62
    13
 10
2.7570508
 20
-66.0563768
 30
0.0000000
  0
VERTEX
  8
0
 62
    13
 10
2.8705529
 20
-65.7398645
 30
0.0000000
  0
VERTEX
  8
0
 62
    13
 10
2.9761490
 20
-65.4323899
 30
0.0000000
  0
VERTEX
  8
0
 62
    13
 10
3.0741046
 20
-65.1341070
 30
0.0000000
  0
VERTEX
  8
0
 62
    13
 10
3.1646881
 20
-64.8451641
 30
0.0000000
  0
VERTEX
  8
0
 62
    13
 10
3.2481702
 20
-64.5657041
 30
0.0000000
  0
VERTEX
  8
0
 62
    13
 10
3.3248242
 20
-64.2958642
 30
0.0000000
  0
VERTEX
  8
0
 62
    13
 10
3.3949258
 20
-64.0357758
 30
0.0000000
  0
VERTEX
  8
0
 62
    13
 10
3.4587531
 20
-63.7855648
 30
0.0000000
  0
VERTEX
  8
0
 62
    13
 10
3.5345805
 20
-63.4675216
 30
0.0000000
  0
VERTEX
  8
0
 62
    13
 10
3.6004214
 20
-63.1675197
 30
0.0000000
  0
VERTEX
  8
0
 62
    13
 10
3.6569517
 20
-62.8858093
 30
0.0000000
  0
VERTEX
  8
0
 62
    13
 10
3.7048530
 20
-62.6226222
 30
0.0000000
  0
VERTEX
  8
0
 62
    13
 10
3.7128454
 20
-62.5758515
 30
0.0000000
  0
VERTEX
  8
0
 62
    13
 10
5.3676411
 20
-62.4556710
 30
0.0000000
  0
VERTEX
  8
0
 62
    13
 10
5.4635167
 20
-62.7421281
 30
0.0000000
  0
VERTEX
  8
0
 62
    13
 10
5.5564676
 20
-63.0033074
 30
0.0000000
  0
VERTEX
  8
0
 62
    15
 10
5.6605042
 20
-63.2802426
 30
0.0000000
  0
SEQEND
  0
POLYLINE
  8
0
 62
    13
 66
     1
 10
0.0000000
 20
0.0000000
 30
0.0000000
  0
VERTEX
  8
0
 62
    13
 10
5.6605042
 20
-63.2802426
 30
0.0000000
  0
VERTEX
  8
0
 62
    13
 10
5.7521026
 20
-63.5129254
 30
0.0000000
  0
VERTEX
  8
0
 62
    13
 10
5.8514563
 20
-63.7553251
 30
0.0000000
  0
VERTEX
  8
0
 62
    13
 10
5.9588537
 20
-64.0072682
 30
0.0000000
  0
VERTEX
  8
0
 62
    13
 10
6.0745796
 20
-64.2685752
 30
0.0000000
  0
VERTEX
  8
0
 62
    13
 10
6.1989157
 20
-64.5390607
 30
0.0000000
  0
VERTEX
  8
0
 62
    13
 10
6.3321397
 20
-64.8185330
 30
0.0000000
  0
VERTEX
  8
0
 62
    13
 10
6.4745258
 20
-65.1067944
 30
0.0000000
  0
VERTEX
  8
0
 62
    13
 10
6.6263445
 20
-65.4036417
 30
0.0000000
  0
VERTEX
  8
0
 62
    13
 10
6.7465591
 20
-65.6317859
 30
0.0000000
  0
VERTEX
  8
0
 62
    13
 10
6.8723403
 20
-65.8645517
 30
0.0000000
  0
VERTEX
  8
0
 62
    13
 10
7.0037979
 20
-66.1018467
 30
0.0000000
  0
VERTEX
  8
0
 62
    13
 10
7.1410401
 20
-66.3435770
 30
0.0000000
  0
VERTEX
  8
0
 62
    13
 10
7.2841738
 20
-66.5896468
 30
0.0000000
  0
VERTEX
  8
0
 62
    13
 10
7.2914503
 20
-66.6020002
 30
0.0000000
  0
VERTEX
  8
0
 62
    13
 10
7.5623650
 20
-66.5717832
 30
0.0000000
  0
VERTEX
  8
0
 62
    13
 10
7.8331544
 20
-66.5404641
 30
0.0000000
  0
VERTEX
  8
0
 62
    13
 10
8.1038142
 20
-66.5080437
 30
0.0000000
  0
VERTEX
  8
0
 62
    13
 10
8.3743398
 20
-66.4745223
 30
0.0000000
  0
VERTEX
  8
0
 62
    13
 10
8.6447269
 20
-66.4399005
 30
0.0000000
  0
VERTEX
  8
0
 62
    13
 10
8.8593279
 20
-66.4116254
 30
0.0000000
  0
VERTEX
  8
0
 62
    13
 10
8.9325955
 20
-66.1626233
 30
0.0000000
  0
VERTEX
  8
0
 62
    13
 10
9.0298418
 20
-65.8175224
 30
0.0000000
  0
VERTEX
  8
0
 62
    13
 10
9.1195398
 20
-65.4819077
 30
0.0000000
  0
VERTEX
  8
0
 62
    13
 10
9.2019642
 20
-65.1559185
 30
0.0000000
  0
VERTEX
  8
0
 62
    13
 10
9.2773917
 20
-64.8396878
 30
0.0000000
  0
VERTEX
  8
0
 62
    13
 10
9.3461016
 20
-64.5333433
 30
0.0000000
  0
VERTEX
  8
0
 62
    13
 10
9.4083752
 20
-64.2370067
 30
0.0000000
  0
VERTEX
  8
0
 62
    13
 10
9.4644958
 20
-63.9507942
 30
0.0000000
  0
VERTEX
  8
0
 62
    13
 10
9.5147486
 20
-63.6748158
 30
0.0000000
  0
VERTEX
  8
0
 62
    13
 10
9.5594209
 20
-63.4091758
 30
0.0000000
  0
VERTEX
  8
0
 62
    13
 10
9.5988013
 20
-63.1539726
 30
0.0000000
  0
VERTEX
  8
0
 62
    13
 10
9.6435791
 20
-62.8300958
 30
0.0000000
  0
VERTEX
  8
0
 62
    13
 10
9.6801583
 20
-62.5251398
 30
0.0000000
  0
VERTEX
  8
0
 62
    13
 10
9.7092358
 20
-62.2392886
 30
0.0000000
  0
VERTEX
  8
0
 62
    13
 10
9.7315122
 20
-61.9727070
 30
0.0000000
  0
VERTEX
  8
0
 62
    13
 10
9.7349532
 20
-61.9253833
 30
0.0000000
  0
VERTEX
  8
0
 62
    13
 10
11.3704247
 20
-61.6460531
 30
0.0000000
  0
VERTEX
  8
0
 62
    13
 10
11.4934998
 20
-61.9219195
 30
0.0000000
  0
VERTEX
  8
0
 62
    13
 10
11.6112242
 20
-62.1729085
 30
0.0000000
  0
VERTEX
  8
0
 62
    13
 10
11.7415032
 20
-62.4385099
 30
0.0000000
  0
VERTEX
  8
0
 62
    13
 10
11.8551311
 20
-62.6612659
 30
0.0000000
  0
VERTEX
  8
0
 62
    13
 10
11.9774160
 20
-62.8929449
 30
0.0000000
  0
VERTEX
  8
0
 62
    13
 10
12.1086280
 20
-63.1333465
 30
0.0000000
  0
VERTEX
  8
0
 62
    13
 10
12.2490334
 20
-63.3822646
 30
0.0000000
  0
VERTEX
  8
0
 62
    13
 10
12.3988947
 20
-63.6394871
 30
0.0000000
  0
VERTEX
  8
0
 62
    13
 10
12.5584697
 20
-63.9047967
 30
0.0000000
  0
VERTEX
  8
0
 62
    13
 10
12.7280124
 20
-64.1779703
 30
0.0000000
  0
VERTEX
  8
0
 62
    13
 10
12.9077722
 20
-64.4587791
 30
0.0000000
  0
VERTEX
  8
0
 62
    13
 10
13.0494447
 20
-64.6742559
 30
0.0000000
  0
VERTEX
  8
0
 62
    13
 10
13.1971039
 20
-64.8937954
 30
0.0000000
  0
VERTEX
  8
0
 62
    13
 10
13.3508500
 20
-65.1172951
 30
0.0000000
  0
VERTEX
  8
0
 62
    13
 10
13.5107818
 20
-65.3446512
 30
0.0000000
  0
VERTEX
  8
0
 62
    13
 10
13.6769965
 20
-65.5757578
 30
0.0000000
  0
VERTEX
  8
0
 62
    13
 10
13.6854314
 20
-65.5873513
 30
0.0000000
  0
VERTEX
  8
0
 62
    13
 10
13.9521649
 20
-65.5311283
 30
0.0000000
  0
VERTEX
  8
0
 62
    13
 10
14.2186675
 20
-65.4738205
 30
0.0000000
  0
VERTEX
  8
0
 62
    13
 10
14.4849347
 20
-65.4154289
 30
0.0000000
  0
VERTEX
  8
0
 62
    13
 10
14.7509622
 20
-65.3559545
 30
0.0000000
  0
VERTEX
  8
0
 62
    13
 10
15.0167454
 20
-65.2953983
 30
0.0000000
  0
VERTEX
  8
0
 62
    13
 10
15.2276157
 20
-65.2465432
 30
0.0000000
  0
VERTEX
  8
0
 62
    13
 10
15.2765091
 20
-64.9916322
 30
0.0000000
  0
VERTEX
  8
0
 62
    13
 10
15.3399944
 20
-64.6387567
 30
0.0000000
  0
VERTEX
  8
0
 62
    13
 10
15.3968822
 20
-64.2960517
 30
0.0000000
  0
VERTEX
  8
0
 62
    13
 10
15.4474592
 20
-63.9636292
 30
0.0000000
  0
VERTEX
  8
0
 62
    13
 10
15.4920140
 20
-63.6415950
 30
0.0000000
  0
VERTEX
  8
0
 62
    13
 10
15.5308366
 20
-63.3300491
 30
0.0000000
  0
VERTEX
  8
0
 62
    13
 10
15.5642189
 20
-63.0290858
 30
0.0000000
  0
VERTEX
  8
0
 62
    13
 10
15.5924540
 20
-62.7387929
 30
0.0000000
  0
VERTEX
  8
0
 62
    13
 10
15.6158365
 20
-62.4592528
 30
0.0000000
  0
VERTEX
  8
0
 62
    13
 10
15.6346622
 20
-62.1905414
 30
0.0000000
  0
VERTEX
  8
0
 62
    13
 10
15.6492282
 20
-61.9327289
 30
0.0000000
  0
VERTEX
  8
0
 62
    13
 10
15.6625383
 20
-61.6060423
 30
0.0000000
  0
VERTEX
  8
0
 62
    13
 10
15.6695142
 20
-61.2989796
 30
0.0000000
  0
VERTEX
  8
0
 62
    13
 10
15.6708673
 20
-61.0116565
 30
0.0000000
  0
VERTEX
  8
0
 62
    13
 10
15.6673109
 20
-60.7441694
 30
0.0000000
  0
VERTEX
  8
0
 62
    13
 10
15.6661685
 20
-60.6967345
 30
0.0000000
  0
VERTEX
  8
0
 62
    13
 10
17.2670457
 20
-60.2608625
 30
0.0000000
  0
VERTEX
  8
0
 62
    13
 10
17.4161712
 20
-60.5235626
 30
0.0000000
  0
VERTEX
  8
0
 62
    13
 10
17.5575700
 20
-60.7620178
 30
0.0000000
  0
VERTEX
  8
0
 62
    13
 10
17.7128750
 20
-61.0138056
 30
0.0000000
  0
VERTEX
  8
0
 62
    13
 10
17.8474715
 20
-61.2245551
 30
0.0000000
  0
VERTEX
  8
0
 62
    13
 10
17.9915457
 20
-61.4433503
 30
0.0000000
  0
VERTEX
  8
0
 62
    13
 10
18.1453473
 20
-61.6699658
 30
0.0000000
  0
VERTEX
  8
0
 62
    13
 10
18.3091214
 20
-61.9041707
 30
0.0000000
  0
VERTEX
  8
0
 62
    13
 10
18.4831085
 20
-62.1457288
 30
0.0000000
  0
VERTEX
  8
0
 62
    13
 10
18.6675447
 20
-62.3943987
 30
0.0000000
  0
VERTEX
  8
0
 62
    13
 10
18.8626609
 20
-62.6499337
 30
0.0000000
  0
VERTEX
  8
0
 62
    13
 10
19.0686835
 20
-62.9120823
 30
0.0000000
  0
VERTEX
  8
0
 62
    13
 10
19.2304911
 20
-63.1128798
 30
0.0000000
  0
VERTEX
  8
0
 62
    13
 10
19.3986496
 20
-63.3171432
 30
0.0000000
  0
VERTEX
  8
0
 62
    13
 10
19.5732488
 20
-63.5247609
 30
0.0000000
  0
VERTEX
  8
0
 62
    13
 10
19.7543771
 20
-63.7356199
 30
0.0000000
  0
VERTEX
  8
0
 62
    13
 10
19.9421208
 20
-63.9496057
 30
0.0000000
  0
VERTEX
  8
0
 62
    13
 10
19.9516352
 20
-63.9603309
 30
0.0000000
  0
VERTEX
  8
0
 62
    13
 10
20.2116972
 20
-63.8786269
 30
0.0000000
  0
VERTEX
  8
0
 62
    13
 10
20.4714247
 20
-63.7958654
 30
0.0000000
  0
VERTEX
  8
0
 62
    13
 10
20.7308133
 20
-63.7120480
 30
0.0000000
  0
VERTEX
  8
0
 62
    13
 10
20.9898587
 20
-63.6271759
 30
0.0000000
  0
VERTEX
  8
0
 62
    13
 10
21.2485567
 20
-63.5412505
 30
0.0000000
  0
VERTEX
  8
0
 62
    13
 10
21.4537273
 20
-63.4722716
 30
0.0000000
  0
VERTEX
  8
0
 62
    13
 10
21.4777900
 20
-63.2138317
 30
0.0000000
  0
VERTEX
  8
0
 62
    13
 10
21.5069215
 20
-62.8564764
 30
0.0000000
  0
VERTEX
  8
0
 62
    13
 10
21.5304680
 20
-62.5098808
 30
0.0000000
  0
VERTEX
  8
0
 62
    13
 10
21.5487255
 20
-62.1741287
 30
0.0000000
  0
VERTEX
  8
0
 62
    13
 10
21.5619915
 20
-61.8492978
 30
0.0000000
  0
VERTEX
  8
0
 62
    13
 10
21.5705643
 20
-61.5354594
 30
0.0000000
  0
VERTEX
  8
0
 62
    13
 10
21.5747436
 20
-61.2326792
 30
0.0000000
  0
VERTEX
  8
0
 62
    13
 10
21.5748296
 20
-60.9410165
 30
0.0000000
  0
VERTEX
  8
0
 62
    13
 10
21.5711234
 20
-60.6605246
 30
0.0000000
  0
VERTEX
  8
0
 62
    13
 10
21.5639269
 20
-60.3912507
 30
0.0000000
  0
VERTEX
  8
0
 62
    13
 10
21.5535423
 20
-60.1332359
 30
0.0000000
  0
VERTEX
  8
0
 62
    13
 10
21.5352605
 20
-59.8067898
 30
0.0000000
  0
VERTEX
  8
0
 62
    13
 10
21.5125681
 20
-59.5004873
 30
0.0000000
  0
VERTEX
  8
0
 62
    13
 10
21.4861841
 20
-59.2143749
 30
0.0000000
  0
VERTEX
  8
0
 62
    13
 10
21.4568281
 20
-58.9484798
 30
0.0000000
  0
VERTEX
  8
0
 62
    13
 10
21.4511129
 20
-58.9013766
 30
0.0000000
  0
VERTEX
  8
0
 62
    13
 10
23.0024489
 20
-58.3130325
 30
0.0000000
  0
VERTEX
  8
0
 62
    13
 10
23.1762325
 20
-58.5601135
 30
0.0000000
  0
VERTEX
  8
0
 62
    13
 10
23.3399854
 20
-58.7838086
 30
0.0000000
  0
VERTEX
  8
0
 62
    13
 10
23.5188664
 20
-59.0194318
 30
0.0000000
  0
VERTEX
  8
0
 62
    13
 10
23.6731748
 20
-59.2162070
 30
0.0000000
  0
VERTEX
  8
0
 62
    13
 10
23.8376933
 20
-59.4200757
 30
0.0000000
  0
VERTEX
  8
0
 62
    13
 10
24.0126484
 20
-59.6307893
 30
0.0000000
  0
VERTEX
  8
0
 62
    13
 10
24.1982619
 20
-59.8480944
 30
0.0000000
  0
VERTEX
  8
0
 62
    13
 10
24.3947506
 20
-60.0717326
 30
0.0000000
  0
VERTEX
  8
0
 62
    13
 10
24.6023258
 20
-60.3014409
 30
0.0000000
  0
VERTEX
  8
0
 62
    13
 10
24.8211939
 20
-60.5369515
 30
0.0000000
  0
VERTEX
  8
0
 62
    13
 10
25.0515557
 20
-60.7779923
 30
0.0000000
  0
VERTEX
  8
0
 62
    13
 10
25.2319876
 20
-60.9622357
 30
0.0000000
  0
VERTEX
  8
0
 62
    13
 10
25.4190754
 20
-61.1493159
 30
0.0000000
  0
VERTEX
  8
0
 62
    13
 10
25.6128975
 20
-61.3391131
 30
0.0000000
  0
VERTEX
  8
0
 62
    13
 10
25.8135310
 20
-61.5315064
 30
0.0000000
  0
VERTEX
  8
0
 62
    13
 10
26.0210509
 20
-61.7263733
 30
0.0000000
  0
VERTEX
  8
0
 62
    13
 10
26.0315560
 20
-61.7361302
 30
0.0000000
  0
VERTEX
  8
0
 62
    13
 10
26.2825184
 20
-61.6297080
 30
0.0000000
  0
VERTEX
  8
0
 62
    13
 10
26.5330457
 20
-61.5222656
 30
0.0000000
  0
VERTEX
  8
0
 62
    13
 10
26.7831338
 20
-61.4138048
 30
0.0000000
  0
VERTEX
  8
0
 62
    13
 10
27.0327786
 20
-61.3043274
 30
0.0000000
  0
VERTEX
  8
0
 62
    13
 10
27.2819759
 20
-61.1938352
 30
0.0000000
  0
VERTEX
  8
0
 62
    13
 10
27.4795313
 20
-61.1053765
 30
0.0000000
  0
VERTEX
  8
0
 62
    13
 10
27.4785386
 20
-60.8458207
 30
0.0000000
  0
VERTEX
  8
0
 62
    13
 10
27.4730443
 20
-60.4873220
 30
0.0000000
  0
VERTEX
  8
0
 62
    13
 10
27.4630296
 20
-60.1400720
 30
0.0000000
  0
VERTEX
  8
0
 62
    13
 10
27.4487971
 20
-59.8041252
 30
0.0000000
  0
VERTEX
  8
0
 62
    13
 10
27.4306504
 20
-59.4795303
 30
0.0000000
  0
VERTEX
  8
0
 62
    13
 10
27.4088935
 20
-59.1663297
 30
0.0000000
  0
VERTEX
  8
0
 62
    13
 10
27.3838308
 20
-58.8645596
 30
0.0000000
  0
VERTEX
  8
0
 62
    13
 10
27.3557668
 20
-58.5742501
 30
0.0000000
  0
VERTEX
  8
0
 62
    13
 10
27.3250066
 20
-58.2954254
 30
0.0000000
  0
VERTEX
  8
0
 62
    13
 10
27.2918550
 20
-58.0281031
 30
0.0000000
  0
VERTEX
  8
0
 62
    13
 10
27.2566169
 20
-57.7722951
 30
0.0000000
  0
VERTEX
  8
0
 62
    13
 10
27.2069138
 20
-57.4491375
 30
0.0000000
  0
VERTEX
  8
0
 62
    13
 10
27.1547649
 20
-57.1464550
 30
0.0000000
  0
VERTEX
  8
0
 62
    13
 10
27.1008903
 20
-56.8642247
 30
0.0000000
  0
VERTEX
  8
0
 62
    13
 10
27.0460087
 20
-56.6024042
 30
0.0000000
  0
VERTEX
  8
0
 62
    13
 10
27.0357741
 20
-56.5560725
 30
0.0000000
  0
VERTEX
  8
0
 62
    13
 10
28.5230845
 20
-55.8207494
 30
0.0000000
  0
VERTEX
  8
0
 62
    13
 10
28.7199035
 20
-56.0499045
 30
0.0000000
  0
VERTEX
  8
0
 62
    13
 10
28.9044817
 20
-56.2567508
 30
0.0000000
  0
VERTEX
  8
0
 62
    13
 10
29.1052685
 20
-56.4740096
 30
0.0000000
  0
VERTEX
  8
0
 62
    13
 10
29.2778481
 20
-56.6549732
 30
0.0000000
  0
VERTEX
  8
0
 62
    13
 10
29.4612747
 20
-56.8420118
 30
0.0000000
  0
VERTEX
  8
0
 62
    13
 10
29.6557499
 20
-57.0348562
 30
0.0000000
  0
VERTEX
  8
0
 62
    13
 10
29.8614699
 20
-57.2332325
 30
0.0000000
  0
VERTEX
  8
0
 62
    13
 10
30.0786254
 20
-57.4368628
 30
0.0000000
  0
VERTEX
  8
0
 62
    13
 10
30.3074016
 20
-57.6454648
 30
0.0000000
  0
VERTEX
  8
0
 62
    13
 10
30.5479780
 20
-57.8587522
 30
0.0000000
  0
VERTEX
  8
0
 62
    13
 10
30.8005282
 20
-58.0764346
 30
0.0000000
  0
VERTEX
  8
0
 62
    13
 10
30.9978999
 20
-58.2424037
 30
0.0000000
  0
VERTEX
  8
0
 62
    13
 10
31.2021701
 20
-58.4105539
 30
0.0000000
  0
VERTEX
  8
0
 62
    13
 10
31.4134055
 20
-58.5807586
 30
0.0000000
  0
VERTEX
  8
0
 62
    13
 10
31.6316709
 20
-58.7528898
 30
0.0000000
  0
VERTEX
  8
0
 62
    13
 10
31.8570294
 20
-58.9268184
 30
0.0000000
  0
VERTEX
  8
0
 62
    13
 10
31.8684272
 20
-58.9355158
 30
0.0000000
  0
VERTEX
  8
0
 62
    13
 10
32.1079467
 20
-58.8053691
 30
0.0000000
  0
VERTEX
  8
0
 62
    13
 10
32.3469348
 20
-58.6742489
 30
0.0000000
  0
VERTEX
  8
0
 62
    13
 10
32.5853875
 20
-58.5421575
 30
0.0000000
  0
VERTEX
  8
0
 62
    13
 10
32.8233007
 20
-58.4090970
 30
0.0000000
  0
VERTEX
  8
0
 62
    13
 10
33.0606706
 20
-58.2750696
 30
0.0000000
  0
VERTEX
  8
0
 62
    13
 10
33.2487663
 20
-58.1679570
 30
0.0000000
  0
VERTEX
  8
0
 62
    13
 10
33.2227275
 20
-57.9097087
 30
0.0000000
  0
VERTEX
  8
0
 62
    13
 10
33.1826587
 20
-57.5534139
 30
0.0000000
  0
VERTEX
  8
0
 62
    13
 10
33.1391763
 20
-57.2087515
 30
0.0000000
  0
VERTEX
  8
0
 62
    13
 10
33.0925867
 20
-56.8757467
 30
0.0000000
  0
VERTEX
  8
0
 62
    13
 10
33.0431968
 20
-56.5544185
 30
0.0000000
  0
VERTEX
  8
0
 62
    13
 10
32.9913133
 20
-56.2447798
 30
0.0000000
  0
VERTEX
  8
0
 62
    13
 10
32.9372425
 20
-55.9468374
 30
0.0000000
  0
VERTEX
  8
0
 62
    13
 10
32.8812907
 20
-55.6605918
 30
0.0000000
  0
VERTEX
  8
0
 62
    13
 10
32.8237636
 20
-55.3860375
 30
0.0000000
  0
VERTEX
  8
0
 62
    13
 10
32.7649664
 20
-55.1231628
 30
0.0000000
  0
VERTEX
  8
0
 62
    13
 10
32.7052038
 20
-54.8719499
 30
0.0000000
  0
VERTEX
  8
0
 62
    13
 10
32.6245435
 20
-54.5550980
 30
0.0000000
  0
VERTEX
  8
0
 62
    13
 10
32.5434249
 20
-54.2588617
 30
0.0000000
  0
VERTEX
  8
0
 62
    13
 10
32.4625627
 20
-53.9831486
 30
0.0000000
  0
VERTEX
  8
0
 62
    13
 10
32.3826680
 20
-53.7278471
 30
0.0000000
  0
VERTEX
  8
0
 62
    13
 10
32.3680095
 20
-53.6827195
 30
0.0000000
  0
VERTEX
  8
0
 62
    13
 10
33.7774077
 20
-52.8072831
 30
0.0000000
  0
VERTEX
  8
0
 62
    13
 10
33.9954246
 20
-53.0163725
 30
0.0000000
  0
VERTEX
  8
0
 62
    13
 10
34.1991046
 20
-53.2044389
 30
0.0000000
  0
VERTEX
  8
0
 62
    13
 10
34.4199226
 20
-53.4013047
 30
0.0000000
  0
VERTEX
  8
0
 62
    13
 10
34.6091620
 20
-53.5647672
 30
0.0000000
  0
VERTEX
  8
0
 62
    13
 10
34.8097841
 20
-53.7332294
 30
0.0000000
  0
VERTEX
  8
0
 62
    13
 10
35.0219636
 20
-53.9064039
 30
0.0000000
  0
VERTEX
  8
0
 62
    13
 10
35.2458693
 20
-54.0839993
 30
0.0000000
  0
VERTEX
  8
0
 62
    13
 10
35.4816642
 20
-54.2657204
 30
0.0000000
  0
VERTEX
  8
0
 62
    13
 10
35.7295055
 20
-54.4512685
 30
0.0000000
  0
VERTEX
  8
0
 62
    13
 10
35.9895439
 20
-54.6403413
 30
0.0000000
  0
VERTEX
  8
0
 62
    13
 10
36.2619245
 20
-54.8326328
 30
0.0000000
  0
VERTEX
  8
0
 62
    13
 10
36.4743931
 20
-54.9787780
 30
0.0000000
  0
VERTEX
  8
0
 62
    13
 10
36.6939385
 20
-55.1264284
 30
0.0000000
  0
VERTEX
  8
0
 62
    13
 10
36.9206149
 20
-55.2754513
 30
0.0000000
  0
VERTEX
  8
0
 62
    13
 10
37.1544745
 20
-55.4257132
 30
0.0000000
  0
VERTEX
  8
0
 62
    13
 10
37.3955675
 20
-55.5770797
 30
0.0000000
  0
VERTEX
  8
0
 62
    13
 10
37.4077514
 20
-55.5846365
 30
0.0000000
  0
VERTEX
  8
0
 62
    13
 10
37.6335919
 20
-55.4319803
 30
0.0000000
  0
VERTEX
  8
0
 62
    13
 10
37.8588093
 20
-55.2784066
 30
0.0000000
  0
VERTEX
  8
0
 62
    13
 10
38.0834001
 20
-55.1239178
 30
0.0000000
  0
VERTEX
  8
0
 62
    13
 10
38.3073605
 20
-54.9685165
 30
0.0000000
  0
VERTEX
  8
0
 62
    13
 10
38.5306868
 20
-54.8122053
 30
0.0000000
  0
VERTEX
  8
0
 62
    13
 10
38.7075665
 20
-54.6874389
 30
0.0000000
  0
VERTEX
  8
0
 62
    13
 10
38.6567247
 20
-54.4329094
 30
0.0000000
  0
VERTEX
  8
0
 62
    13
 10
38.5824556
 20
-54.0821450
 30
0.0000000
  0
VERTEX
  8
0
 62
    13
 10
38.5059114
 20
-53.7432883
 30
0.0000000
  0
VERTEX
  8
0
 62
    13
 10
38.4273997
 20
-53.4163346
 30
0.0000000
  0
VERTEX
  8
0
 62
    13
 10
38.3472278
 20
-53.1012733
 30
0.0000000
  0
VERTEX
  8
0
 62
    13
 10
38.2657020
 20
-52.7980877
 30
0.0000000
  0
VERTEX
  8
0
 62
    13
 10
38.1831281
 20
-52.5067547
 30
0.0000000
  0
VERTEX
  8
0
 62
    13
 10
38.0998108
 20
-52.2272456
 30
0.0000000
  0
VERTEX
  8
0
 62
    13
 10
38.0160539
 20
-51.9595251
 30
0.0000000
  0
VERTEX
  8
0
 62
    13
 10
37.9321601
 20
-51.7035524
 30
0.0000000
  0
VERTEX
  8
0
 62
    13
 10
37.8484310
 20
-51.4592802
 30
0.0000000
  0
VERTEX
  8
0
 62
    13
 10
37.7375667
 20
-51.1516922
 30
0.0000000
  0
VERTEX
  8
0
 62
    13
 10
37.6282358
 20
-50.8646679
 30
0.0000000
  0
VERTEX
  8
0
 62
    13
 10
37.5211409
 20
-50.5980463
 30
0.0000000
  0
VERTEX
  8
0
 62
    13
 10
37.4169791
 20
-50.3516476
 30
0.0000000
  0
VERTEX
  8
0
 62
    13
 10
37.3980336
 20
-50.3081455
 30
0.0000000
  0
VERTEX
  8
0
 62
    13
 10
38.7163604
 20
-49.3007693
 30
0.0000000
  0
VERTEX
  8
0
 62
    13
 10
38.9535395
 20
-49.4878410
 30
0.0000000
  0
VERTEX
  8
0
 62
    13
 10
39.1744197
 20
-49.6553715
 30
0.0000000
  0
VERTEX
  8
0
 62
    13
 10
39.4132071
 20
-49.8300062
 30
0.0000000
  0
VERTEX
  8
0
 62
    13
 10
39.6173395
 20
-49.9744414
 30
0.0000000
  0
VERTEX
  8
0
 62
    13
 10
39.8332840
 20
-50.1227543
 30
0.0000000
  0
VERTEX
  8
0
 62
    13
 10
40.0611867
 20
-50.2746421
 30
0.0000000
  0
VERTEX
  8
0
 62
    13
 10
40.3011875
 20
-50.4297984
 30
0.0000000
  0
VERTEX
  8
0
 62
    13
 10
40.5534203
 20
-50.5879137
 30
0.0000000
  0
VERTEX
  8
0
 62
    13
 10
40.8180125
 20
-50.7486755
 30
0.0000000
  0
VERTEX
  8
0
 62
    13
 10
41.0950852
 20
-50.9117682
 30
0.0000000
  0
VERTEX
  8
0
 62
    13
 10
41.3847530
 20
-51.0768736
 30
0.0000000
  0
VERTEX
  8
0
 62
    13
 10
41.6103348
 20
-51.2018303
 30
0.0000000
  0
VERTEX
  8
0
 62
    13
 10
41.8431056
 20
-51.3276022
 30
0.0000000
  0
VERTEX
  8
0
 62
    13
 10
42.0831065
 20
-51.4540520
 30
0.0000000
  0
VERTEX
  8
0
 62
    13
 10
42.3303767
 20
-51.5810417
 30
0.0000000
  0
VERTEX
  8
0
 62
    13
 10
42.5849532
 20
-51.7084327
 30
0.0000000
  0
VERTEX
  8
0
 62
    13
 10
42.5978096
 20
-51.7147783
 30
0.0000000
  0
VERTEX
  8
0
 62
    13
 10
42.8078623
 20
-51.5410381
 30
0.0000000
  0
VERTEX
  8
0
 62
    13
 10
43.0172064
 20
-51.3664446
 30
0.0000000
  0
VERTEX
  8
0
 62
    13
 10
43.2258384
 20
-51.1910009
 30
0.0000000
  0
VERTEX
  8
0
 62
    13
 10
43.4337548
 20
-51.0147098
 30
0.0000000
  0
VERTEX
  8
0
 62
    13
 10
43.6409523
 20
-50.8375743
 30
0.0000000
  0
VERTEX
  8
0
 62
    13
 10
43.8049646
 20
-50.6963189
 30
0.0000000
  0
VERTEX
  8
0
 62
    13
 10
43.7297945
 20
-50.4478846
 30
0.0000000
  0
VERTEX
  8
0
 62
    13
 10
43.6220185
 20
-50.1059258
 30
0.0000000
  0
VERTEX
  8
0
 62
    13
 10
43.5131272
 20
-49.7760385
 30
0.0000000
  0
VERTEX
  8
0
 62
    13
 10
43.4034265
 20
-49.4581886
 30
0.0000000
  0
VERTEX
  8
0
 62
    13
 10
43.2932210
 20
-49.1523359
 30
0.0000000
  0
VERTEX
  8
0
 62
    13
 10
43.1828142
 20
-48.8584340
 30
0.0000000
  0
VERTEX
  8
0
 62
    13
 10
43.0725080
 20
-48.5764306
 30
0.0000000
  0
VERTEX
  8
0
 62
    13
 10
42.9626032
 20
-48.3062676
 30
0.0000000
  0
VERTEX
  8
0
 62
    13
 10
42.8533986
 20
-48.0478807
 30
0.0000000
  0
VERTEX
  8
0
 62
    13
 10
42.7451915
 20
-47.8011998
 30
0.0000000
  0
VERTEX
  8
0
 62
    13
 10
42.6382776
 20
-47.5661490
 30
0.0000000
  0
VERTEX
  8
0
 62
    13
 10
42.4982443
 20
-47.2706969
 30
0.0000000
  0
VERTEX
  8
0
 62
    13
 10
42.3617220
 20
-46.9955645
 30
0.0000000
  0
VERTEX
  8
0
 62
    13
 10
42.2293944
 20
-46.7405237
 30
0.0000000
  0
VERTEX
  8
0
 62
    13
 10
42.1019379
 20
-46.5053284
 30
0.0000000
  0
VERTEX
  8
0
 62
    13
 10
42.0788823
 20
-46.4638578
 30
0.0000000
  0
VERTEX
  8
0
 62
    13
 10
43.2938288
 20
-45.3339476
 30
0.0000000
  0
VERTEX
  8
0
 62
    13
 10
43.5479557
 20
-45.4972549
 30
0.0000000
  0
VERTEX
  8
0
 62
    13
 10
43.7839738
 20
-45.6426852
 30
0.0000000
  0
VERTEX
  8
0
 62
    13
 10
44.0385011
 20
-45.7934584
 30
0.0000000
  0
VERTEX
  8
0
 62
    13
 10
44.2556206
 20
-45.9175176
 30
0.0000000
  0
VERTEX
  8
0
 62
    13
 10
44.4848712
 20
-46.0442966
 30
0.0000000
  0
VERTEX
  8
0
 62
    13
 10
44.7263692
 20
-46.1734795
 30
0.0000000
  0
VERTEX
  8
0
 62
    13
 10
44.9802244
 20
-46.3047480
 30
0.0000000
  0
VERTEX
  8
0
 62
    13
 10
45.2465400
 20
-46.4377812
 30
0.0000000
  0
VERTEX
  8
0
 62
    13
 10
45.5254128
 20
-46.5722557
 30
0.0000000
  0
VERTEX
  8
0
 62
    13
 10
45.8169327
 20
-46.7078457
 30
0.0000000
  0
VERTEX
  8
0
 62
    13
 10
46.1211832
 20
-46.8442233
 30
0.0000000
  0
VERTEX
  8
0
 62
    13
 10
46.3577719
 20
-46.9468249
 30
0.0000000
  0
VERTEX
  8
0
 62
    13
 10
46.6015948
 20
-47.0495440
 30
0.0000000
  0
VERTEX
  8
0
 62
    13
 10
46.8526795
 20
-47.1522401
 30
0.0000000
  0
VERTEX
  8
0
 62
    13
 10
47.1110517
 20
-47.2547719
 30
0.0000000
  0
VERTEX
  8
0
 62
    13
 10
47.3767347
 20
-47.3569981
 30
0.0000000
  0
VERTEX
  8
0
 62
    13
 10
47.3901435
 20
-47.3620732
 30
0.0000000
  0
VERTEX
  8
0
 62
    13
 10
47.5824472
 20
-47.1688710
 30
0.0000000
  0
VERTEX
  8
0
 62
    13
 10
47.7739633
 20
-46.9748881
 30
0.0000000
  0
VERTEX
  8
0
 62
    13
 10
47.9646886
 20
-46.7801275
 30
0.0000000
  0
VERTEX
  8
0
 62
    13
 10
48.1546199
 20
-46.5845925
 30
0.0000000
  0
VERTEX
  8
0
 62
    13
 10
48.3437540
 20
-46.3882865
 30
0.0000000
  0
VERTEX
  8
0
 62
    13
 10
48.4933675
 20
-46.2318611
 30
0.0000000
  0
VERTEX
  8
0
 62
    13
 10
48.3945710
 20
-45.9918415
 30
0.0000000
  0
VERTEX
  8
0
 62
    13
 10
48.2542943
 20
-45.6618810
 30
0.0000000
  0
VERTEX
  8
0
 62
    13
 10
48.1140727
 20
-45.3440433
 30
0.0000000
  0
VERTEX
  8
0
 62
    13
 10
47.9742072
 20
-45.0382649
 30
0.0000000
  0
VERTEX
  8
0
 62
    13
 10
47.8349971
 20
-44.7444763
 30
0.0000000
  0
VERTEX
  8
0
 62
    13
 10
47.6967401
 20
-44.4626022
 30
0.0000000
  0
VERTEX
  8
0
 62
    13
 10
47.5597316
 20
-44.1925615
 30
0.0000000
  0
VERTEX
  8
0
 62
    13
 10
47.4242653
 20
-43.9342670
 30
0.0000000
  0
VERTEX
  8
0
 62
    13
 10
47.2906326
 20
-43.6876261
 30
0.0000000
  0
VERTEX
  8
0
 62
    13
 10
47.1591226
 20
-43.4525403
 30
0.0000000
  0
VERTEX
  8
0
 62
    13
 10
47.0300221
 20
-43.2289055
 30
0.0000000
  0
VERTEX
  8
0
 62
    13
 10
46.8621273
 20
-42.9483479
 30
0.0000000
  0
VERTEX
  8
0
 62
    13
 10
46.6996882
 20
-42.6876762
 30
0.0000000
  0
VERTEX
  8
0
 62
    13
 10
46.5433634
 20
-42.4465974
 30
0.0000000
  0
VERTEX
  8
0
 62
    13
 10
46.3938023
 20
-42.2248014
 30
0.0000000
  0
VERTEX
  8
0
 62
    13
 10
46.3668518
 20
-42.1857496
 30
0.0000000
  0
VERTEX
  8
0
 62
    13
 10
47.4670744
 20
-40.9438550
 30
0.0000000
  0
VERTEX
  8
0
 62
    13
 10
47.7357764
 20
-41.0818731
 30
0.0000000
  0
VERTEX
  8
0
 62
    13
 10
47.9847287
 20
-41.2038455
 30
0.0000000
  0
VERTEX
  8
0
 62
    13
 10
48.2526196
 20
-41.3293494
 30
0.0000000
  0
VERTEX
  8
0
 62
    13
 10
48.4806989
 20
-41.4318744
 30
0.0000000
  0
VERTEX
  8
0
 62
    13
 10
48.7211152
 20
-41.5359356
 30
0.0000000
  0
VERTEX
  8
0
 62
    13
 10
48.9739538
 20
-41.6412076
 30
0.0000000
  0
VERTEX
  8
0
 62
    13
 10
49.2392931
 20
-41.7473627
 30
0.0000000
  0
VERTEX
  8
0
 62
    13
 10
49.5172050
 20
-41.8540717
 30
0.0000000
  0
VERTEX
  8
0
 62
    13
 10
49.8077545
 20
-41.9610033
 30
0.0000000
  0
VERTEX
  8
0
 62
    13
 10
50.1109998
 20
-42.0678246
 30
0.0000000
  0
VERTEX
  8
0
 62
    13
 10
50.4269923
 20
-42.1742011
 30
0.0000000
  0
VERTEX
  8
0
 62
    13
 10
50.6723791
 20
-42.2534896
 30
0.0000000
  0
VERTEX
  8
0
 62
    13
 10
50.9249775
 20
-42.3321969
 30
0.0000000
  0
VERTEX
  8
0
 62
    13
 10
51.1848017
 20
-42.4101804
 30
0.0000000
  0
VERTEX
  8
0
 62
    13
 10
51.4518634
 20
-42.4872971
 30
0.0000000
  0
VERTEX
  8
0
 62
    13
 10
51.7261723
 20
-42.5634039
 30
0.0000000
  0
VERTEX
  8
0
 62
    13
 10
51.7400084
 20
-42.5671612
 30
0.0000000
  0
VERTEX
  8
0
 62
    13
 10
51.9127676
 20
-42.3563010
 30
0.0000000
  0
VERTEX
  8
0
 62
    13
 10
52.0846676
 20
-42.1447396
 30
0.0000000
  0
VERTEX
  8
0
 62
    13
 10
52.2557054
 20
-41.9324806
 30
0.0000000
  0
VERTEX
  8
0
 62
    13
 10
52.4258782
 20
-41.7195275
 30
0.0000000
  0
VERTEX
  8
0
 62
    13
 10
52.5951831
 20
-41.5058838
 30
0.0000000
  0
VERTEX
  8
0
 62
    13
 10
52.7290010
 20
-41.3357489
 30
0.0000000
  0
VERTEX
  8
0
 62
    13
 10
52.6075004
 20
-41.1063850
 30
0.0000000
  0
VERTEX
  8
0
 62
    13
 10
52.4360328
 20
-40.7915035
 30
0.0000000
  0
VERTEX
  8
0
 62
    13
 10
52.2657900
 20
-40.4886829
 30
0.0000000
  0
VERTEX
  8
0
 62
    13
 10
52.0970656
 20
-40.1978310
 30
0.0000000
  0
VERTEX
  8
0
 62
    13
 10
51.9301507
 20
-39.9188496
 30
0.0000000
  0
VERTEX
  8
0
 62
    13
 10
51.7653343
 20
-39.6516352
 30
0.0000000
  0
VERTEX
  8
0
 62
    13
 10
51.6029028
 20
-39.3960783
 30
0.0000000
  0
VERTEX
  8
0
 62
    13
 10
51.4431399
 20
-39.1520640
 30
0.0000000
  0
VERTEX
  8
0
 62
    13
 10
51.2863267
 20
-38.9194719
 30
0.0000000
  0
VERTEX
  8
0
 62
    13
 10
51.1327416
 20
-38.6981761
 30
0.0000000
  0
VERTEX
  8
0
 62
    13
 10
50.9826599
 20
-38.4880453
 30
0.0000000
  0
VERTEX
  8
0
 62
    13
 10
50.7884712
 20
-38.2250016
 30
0.0000000
  0
VERTEX
  8
0
 62
    13
 10
50.6016320
 20
-37.9812245
 30
0.0000000
  0
VERTEX
  8
0
 62
    13
 10
50.4227695
 20
-37.7563587
 30
0.0000000
  0
VERTEX
  8
0
 62
    13
 10
50.2525002
 20
-37.5500329
 30
0.0000000
  0
VERTEX
  8
0
 62
    13
 10
50.2219065
 20
-37.5137645
 30
0.0000000
  0
VERTEX
  8
0
 62
    13
 10
51.1971328
 20
-36.1714806
 30
0.0000000
  0
VERTEX
  8
0
 62
    13
 10
51.4779010
 20
-36.2829210
 30
0.0000000
  0
VERTEX
  8
0
 62
    13
 10
51.7374632
 20
-36.3802966
 30
0.0000000
  0
VERTEX
  8
0
 62
    13
 10
52.0162163
 20
-36.4793594
 30
0.0000000
  0
VERTEX
  8
0
 62
    13
 10
52.2531259
 20
-36.5593930
 30
0.0000000
  0
VERTEX
  8
0
 62
    13
 10
52.5024632
 20
-36.6397649
 30
0.0000000
  0
VERTEX
  8
0
 62
    13
 10
52.7642817
 20
-36.7201429
 30
0.0000000
  0
VERTEX
  8
0
 62
    13
 10
53.0386278
 20
-36.8001936
 30
0.0000000
  0
VERTEX
  8
0
 62
    13
 10
53.3255412
 20
-36.8795820
 30
0.0000000
  0
VERTEX
  8
0
 62
    13
 10
53.6250547
 20
-36.9579723
 30
0.0000000
  0
VERTEX
  8
0
 62
    13
 10
53.9371941
 20
-37.0350275
 30
0.0000000
  0
VERTEX
  8
0
 62
    13
 10
54.2619782
 20
-37.1104098
 30
0.0000000
  0
VERTEX
  8
0
 62
    13
 10
54.5138718
 20
-37.1656449
 30
0.0000000
  0
VERTEX
  8
0
 62
    13
 10
54.7728874
 20
-37.2196055
 30
0.0000000
  0
VERTEX
  8
0
 62
    13
 10
55.0390251
 20
-37.2721483
 30
0.0000000
  0
VERTEX
  8
0
 62
    13
 10
55.3122829
 20
-37.3231298
 30
0.0000000
  0
VERTEX
  8
0
 62
    13
 10
55.5926566
 20
-37.3724066
 30
0.0000000
  0
VERTEX
  8
0
 62
    13
 10
55.6067907
 20
-37.3748111
 30
0.0000000
  0
VERTEX
  8
0
 62
    13
 10
55.7583926
 20
-37.1482615
 30
0.0000000
  0
VERTEX
  8
0
 62
    13
 10
55.9090714
 20
-36.9210971
 30
0.0000000
  0
VERTEX
  8
0
 62
    13
 10
56.0588248
 20
-36.6933214
 30
0.0000000
  0
VERTEX
  8
0
 62
    13
 10
56.2076502
 20
-36.4649384
 30
0.0000000
  0
VERTEX
  8
0
 62
    13
 10
56.3555452
 20
-36.2359518
 30
0.0000000
  0
VERTEX
  8
0
 62
    13
 10
56.4723179
 20
-36.0536958
 30
0.0000000
  0
VERTEX
  8
0
 62
    13
 10
56.3292478
 20
-35.8371293
 30
0.0000000
  0
VERTEX
  8
0
 62
    13
 10
56.1281902
 20
-35.5402667
 30
0.0000000
  0
VERTEX
  8
0
 62
    13
 10
55.9295158
 20
-35.2552906
 30
0.0000000
  0
VERTEX
  8
0
 62
    13
 10
55.7335077
 20
-34.9820807
 30
0.0000000
  0
VERTEX
  8
0
 62
    13
 10
55.5404465
 20
-34.7205114
 30
0.0000000
  0
VERTEX
  8
0
 62
    13
 10
55.3506096
 20
-34.4704515
 30
0.0000000
  0
VERTEX
  8
0
 62
    13
 10
55.1642716
 20
-34.2317645
 30
0.0000000
  0
VERTEX
  8
0
 62
    13
 10
54.9817037
 20
-34.0043087
 30
0.0000000
  0
VERTEX
  8
0
 62
    13
 10
54.8031743
 20
-33.7879371
 30
0.0000000
  0
VERTEX
  8
0
 62
    13
 10
54.6289480
 20
-33.5824975
 30
0.0000000
  0
VERTEX
  8
0
 62
    13
 10
54.4592864
 20
-33.3878327
 30
0.0000000
  0
VERTEX
  8
0
 62
    13
 10
54.2406169
 20
-33.1447589
 30
0.0000000
  0
VERTEX
  8
0
 62
    13
 10
54.0311220
 20
-32.9201523
 30
0.0000000
  0
VERTEX
  8
0
 62
    13
 10
53.8313918
 20
-32.7135991
 30
0.0000000
  0
VERTEX
  8
0
 62
    13
 10
53.6420041
 20
-32.5246698
 30
0.0000000
  0
VERTEX
  8
0
 62
    13
 10
53.6080528
 20
-32.4915234
 30
0.0000000
  0
VERTEX
  8
0
 62
    13
 10
54.4491773
 20
-31.0613829
 30
0.0000000
  0
VERTEX
  8
0
 62
    13
 10
54.7393904
 20
-31.1452050
 30
0.0000000
  0
VERTEX
  8
0
 62
    13
 10
55.0071388
 20
-31.2170746
 30
0.0000000
  0
VERTEX
  8
0
 62
    13
 10
55.2941516
 20
-31.2887714
 30
0.0000000
  0
VERTEX
  8
0
 62
    13
 10
55.5376796
 20
-31.3455663
 30
0.0000000
  0
VERTEX
  8
0
 62
    13
 10
55.7936099
 20
-31.4014985
 30
0.0000000
  0
VERTEX
  8
0
 62
    13
 10
56.0619637
 20
-31.4562322
 30
0.0000000
  0
VERTEX
  8
0
 62
    13
 10
56.3427550
 20
-31.5094309
 30
0.0000000
  0
VERTEX
  8
0
 62
    13
 10
56.6359911
 20
-31.5607576
 30
0.0000000
  0
VERTEX
  8
0
 62
    13
 10
56.9416721
 20
-31.6098747
 30
0.0000000
  0
VERTEX
  8
0
 62
    13
 10
57.2597913
 20
-31.6564444
 30
0.0000000
  0
VERTEX
  8
0
 62
    13
 10
57.5903346
 20
-31.7001286
 30
0.0000000
  0
VERTEX
  8
0
 62
    13
 10
57.8463833
 20
-31.7307946
 30
0.0000000
  0
VERTEX
  8
0
 62
    13
 10
58.1093976
 20
-31.7595047
 30
0.0000000
  0
VERTEX
  8
0
 62
    13
 10
58.3793640
 20
-31.7861161
 30
0.0000000
  0
VERTEX
  8
0
 62
    13
 10
58.6562666
 20
-31.8104865
 30
0.0000000
  0
VERTEX
  8
0
 62
    13
 10
58.9400873
 20
-31.8324733
 30
0.0000000
  0
VERTEX
  8
0
 62
    13
 10
58.9543875
 20
-31.8335024
 30
0.0000000
  0
VERTEX
  8
0
 62
    13
 10
59.0834164
 20
-31.5933788
 30
0.0000000
  0
VERTEX
  8
0
 62
    13
 10
59.2114673
 20
-31.3527322
 30
0.0000000
  0
VERTEX
  8
0
 62
    13
 10
59.3385381
 20
-31.1115666
 30
0.0000000
  0
VERTEX
  8
0
 62
    13
 10
59.4646266
 20
-30.8698861
 30
0.0000000
  0
VERTEX
  8
0
 62
    13
 10
59.5897307
 20
-30.6276945
 30
0.0000000
  0
VERTEX
  8
0
 62
    13
 10
59.6883681
 20
-30.4350192
 30
0.0000000
  0
VERTEX
  8
0
 62
    13
 10
59.5250641
 20
-30.2332719
 30
0.0000000
  0
VERTEX
  8
0
 62
    13
 10
59.2962938
 20
-29.9572001
 30
0.0000000
  0
VERTEX
  8
0
 62
    13
 10
59.0710427
 20
-29.6927292
 30
0.0000000
  0
VERTEX
  8
0
 62
    13
 10
58.8495811
 20
-29.4397123
 30
0.0000000
  0
VERTEX
  8
0
 62
    13
 10
58.6321761
 20
-29.1979971
 30
0.0000000
  0
VERTEX
  8
0
 62
    13
 10
58.4190912
 20
-28.9674264
 30
0.0000000
  0
VERTEX
  8
0
 62
    13
 10
58.2105864
 20
-28.7478380
 30
0.0000000
  0
VERTEX
  8
0
 62
    13
 10
58.0069182
 20
-28.5390644
 30
0.0000000
  0
VERTEX
  8
0
 62
    13
 10
57.8083393
 20
-28.3409335
 30
0.0000000
  0
VERTEX
  8
0
 62
    13
 10
57.6150986
 20
-28.1532682
 30
0.0000000
  0
VERTEX
  8
0
 62
    13
 10
57.4274412
 20
-27.9758868
 30
0.0000000
  0
VERTEX
  8
0
 62
    13
 10
57.1863325
 20
-27.7550524
 30
0.0000000
  0
VERTEX
  8
0
 62
    13
 10
56.9561380
 20
-27.5517136
 30
0.0000000
  0
VERTEX
  8
0
 62
    13
 10
56.7374049
 20
-27.3654013
 30
0.0000000
  0
VERTEX
  8
0
 62
    13
 10
56.5306670
 20
-27.1956326
 30
0.0000000
  0
VERTEX
  8
0
 62
    13
 10
56.4936751
 20
-27.1659177
 30
0.0000000
  0
VERTEX
  8
0
 62
    13
 10
57.1928445
 20
-25.6612735
 30
0.0000000
  0
VERTEX
  8
0
 62
    13
 10
57.4897927
 20
-25.7166946
 30
0.0000000
  0
VERTEX
  8
0
 62
    13
 10
57.7632277
 20
-25.7623873
 30
0.0000000
  0
VERTEX
  8
0
 62
    13
 10
58.0558203
 20
-25.8060486
 30
0.0000000
  0
VERTEX
  8
0
 62
    13
 10
58.3036929
 20
-25.8390745
 30
0.0000000
  0
VERTEX
  8
0
 62
    13
 10
58.5638267
 20
-25.8700448
 30
0.0000000
  0
VERTEX
  8
0
 62
    13
 10
58.8362103
 20
-25.8986231
 30
0.0000000
  0
VERTEX
  8
0
 62
    13
 10
59.1208252
 20
-25.9244732
 30
0.0000000
  0
VERTEX
  8
0
 62
    13
 10
59.4176461
 20
-25.9472589
 30
0.0000000
  0
VERTEX
  8
0
 62
    13
 10
59.7266406
 20
-25.9666442
 30
0.0000000
  0
VERTEX
  8
0
 62
    13
 10
60.0477692
 20
-25.9822936
 30
0.0000000
  0
VERTEX
  8
0
 62
    13
 10
60.3809856
 20
-25.9938718
 30
0.0000000
  0
VERTEX
  8
0
 62
    13
 10
60.6387986
 20
-25.9996824
 30
0.0000000
  0
VERTEX
  8
0
 62
    13
 10
60.9033561
 20
-26.0028739
 30
0.0000000
  0
VERTEX
  8
0
 62
    13
 10
61.1746305
 20
-26.0033056
 30
0.0000000
  0
VERTEX
  8
0
 62
    13
 10
61.4525925
 20
-26.0008372
 30
0.0000000
  0
VERTEX
  8
0
 62
    13
 10
61.7372103
 20
-25.9953288
 30
0.0000000
  0
VERTEX
  8
0
 62
    13
 10
61.7515430
 20
-25.9949729
 30
0.0000000
  0
VERTEX
  8
0
 62
    13
 10
61.8567943
 20
-25.7435172
 30
0.0000000
  0
VERTEX
  8
0
 62
    13
 10
61.9610217
 20
-25.4916353
 30
0.0000000
  0
VERTEX
  8
0
 62
    13
 10
62.0642234
 20
-25.2393315
 30
0.0000000
  0
VERTEX
  8
0
 62
    13
 10
62.1663977
 20
-24.9866099
 30
0.0000000
  0
VERTEX
  8
0
 62
    13
 10
62.2675430
 20
-24.7334747
 30
0.0000000
  0
VERTEX
  8
0
 62
    13
 10
62.3471240
 20
-24.5321790
 30
0.0000000
  0
VERTEX
  8
0
 62
    13
 10
62.1651110
 20
-24.3471346
 30
0.0000000
  0
VERTEX
  8
0
 62
    13
 10
61.9107639
 20
-24.0944311
 30
0.0000000
  0
VERTEX
  8
0
 62
    13
 10
61.6610392
 20
-23.8529347
 30
0.0000000
  0
VERTEX
  8
0
 62
    13
 10
61.4161918
 20
-23.6224731
 30
0.0000000
  0
VERTEX
  8
0
 62
    13
 10
61.1764729
 20
-23.4028690
 30
0.0000000
  0
VERTEX
  8
0
 62
    13
 10
60.9421294
 20
-23.1939404
 30
0.0000000
  0
VERTEX
  8
0
 62
    13
 10
60.7134047
 20
-22.9955006
 30
0.0000000
  0
VERTEX
  8
0
 62
    13
 10
60.4905378
 20
-22.8073585
 30
0.0000000
  0
VERTEX
  8
0
 62
    13
 10
60.2737635
 20
-22.6293181
 30
0.0000000
  0
VERTEX
  8
0
 62
    13
 10
60.0633126
 20
-22.4611794
 30
0.0000000
  0
VERTEX
  8
0
 62
    13
 10
59.8594114
 20
-22.3027376
 30
0.0000000
  0
VERTEX
  8
0
 62
    13
 10
59.5981147
 20
-22.1062045
 30
0.0000000
  0
VERTEX
  8
0
 62
    13
 10
59.3493698
 20
-21.9260319
 30
0.0000000
  0
VERTEX
  8
0
 62
    13
 10
59.1136762
 20
-21.7617002
 30
0.0000000
  0
VERTEX
  8
0
 62
    13
 10
58.8915183
 20
-21.6126771
 30
0.0000000
  0
VERTEX
  8
0
 62
    13
 10
58.8518313
 20
-21.5866712
 30
0.0000000
  0
VERTEX
  8
0
 62
    13
 10
59.4025175
 20
-20.0215716
 30
0.0000000
  0
VERTEX
  8
0
 62
    13
 10
59.7034284
 20
-20.0480744
 30
0.0000000
  0
VERTEX
  8
0
 62
    13
 10
59.9799969
 20
-20.0671635
 30
0.0000000
  0
VERTEX
  8
0
 62
    13
 10
60.2754374
 20
-20.0823817
 30
0.0000000
  0
VERTEX
  8
0
 62
    13
 10
60.5253404
 20
-20.0913303
 30
0.0000000
  0
VERTEX
  8
0
 62
    13
 10
60.7872488
 20
-20.0970494
 30
0.0000000
  0
VERTEX
  8
0
 62
    13
 10
61.0611190
 20
-20.0992055
 30
0.0000000
  0
VERTEX
  8
0
 62
    13
 10
61.3469001
 20
-20.0974656
 30
0.0000000
  0
VERTEX
  8
0
 62
    13
 10
61.6445345
 20
-20.0914976
 30
0.0000000
  0
VERTEX
  8
0
 62
    13
 10
61.9539574
 20
-20.0809702
 30
0.0000000
  0
VERTEX
  8
0
 62
    13
 10
62.2750973
 20
-20.0655531
 30
0.0000000
  0
VERTEX
  8
0
 62
    13
 10
62.6078756
 20
-20.0449172
 30
0.0000000
  0
VERTEX
  8
0
 62
    13
 10
62.8650459
 20
-20.0258182
 30
0.0000000
  0
VERTEX
  8
0
 62
    13
 10
63.1286763
 20
-20.0034613
 30
0.0000000
  0
VERTEX
  8
0
 62
    13
 10
63.3987260
 20
-19.9777092
 30
0.0000000
  0
VERTEX
  8
0
 62
    13
 10
63.6751521
 20
-19.9484252
 30
0.0000000
  0
VERTEX
  8
0
 62
    13
 10
63.9579095
 20
-19.9154729
 30
0.0000000
  0
VERTEX
  8
0
 62
    13
 10
63.9721410
 20
-19.9137353
 30
0.0000000
  0
VERTEX
  8
0
 62
    13
 10
64.0526320
 20
-19.6532953
 30
0.0000000
  0
VERTEX
  8
0
 62
    13
 10
64.1320627
 20
-19.3925299
 30
0.0000000
  0
VERTEX
  8
0
 62
    13
 10
64.2104317
 20
-19.1314435
 30
0.0000000
  0
VERTEX
  8
0
 62
    13
 10
64.2877379
 20
-18.8700405
 30
0.0000000
  0
VERTEX
  8
0
 62
    13
 10
64.3639800
 20
-18.6083251
 30
0.0000000
  0
VERTEX
  8
0
 62
    13
 10
64.4237616
 20
-18.4002884
 30
0.0000000
  0
VERTEX
  8
0
 62
    13
 10
64.2247390
 20
-18.2336747
 30
0.0000000
  0
VERTEX
  8
0
 62
    13
 10
63.9471898
 20
-18.0066989
 30
0.0000000
  0
VERTEX
  8
0
 62
    13
 10
63.6753232
 20
-17.7904319
 30
0.0000000
  0
VERTEX
  8
0
 62
    13
 10
63.4093761
 20
-17.5846773
 30
0.0000000
  0
VERTEX
  8
0
 62
    13
 10
63.1495814
 20
-17.3892346
 30
0.0000000
  0
VERTEX
  8
0
 62
    13
 10
62.8961674
 20
-17.2038987
 30
0.0000000
  0
VERTEX
  8
0
 62
    13
 10
62.6493583
 20
-17.0284605
 30
0.0000000
  0
VERTEX
  8
0
 62
    13
 10
62.4093734
 20
-16.8627064
 30
0.0000000
  0
VERTEX
  8
0
 62
    13
 10
62.1764278
 20
-16.7064190
 30
0.0000000
  0
VERTEX
  8
0
 62
    13
 10
61.9507316
 20
-16.5593766
 30
0.0000000
  0
VERTEX
  8
0
 62
    13
 10
61.7324905
 20
-16.4213538
 30
0.0000000
  0
VERTEX
  8
0
 62
    13
 10
61.4534454
 20
-16.2509570
 30
0.0000000
  0
VERTEX
  8
0
 62
    13
 10
61.1884726
 20
-16.0956328
 30
0.0000000
  0
VERTEX
  8
0
 62
    13
 10
60.9380189
 20
-15.9548160
 30
0.0000000
  0
VERTEX
  8
0
 62
    13
 10
60.7025154
 20
-15.8279299
 30
0.0000000
  0
VERTEX
  8
0
 62
    13
 10
60.6605037
 20
-15.8058758
 30
0.0000000
  0
VERTEX
  8
0
 62
    13
 10
61.0575652
 20
-14.1949337
 30
0.0000000
  0
VERTEX
  8
0
 62
    13
 10
61.3596293
 20
-14.1922707
 30
0.0000000
  0
VERTEX
  8
0
 62
    13
 10
61.6367490
 20
-14.1845779
 30
0.0000000
  0
VERTEX
  8
0
 62
    13
 10
61.9322791
 20
-14.1712110
 30
0.0000000
  0
VERTEX
  8
0
 62
    13
 10
62.1818791
 20
-14.1559987
 30
0.0000000
  0
VERTEX
  8
0
 62
    13
 10
62.4431168
 20
-14.1364133
 30
0.0000000
  0
VERTEX
  8
0
 62
    13
 10
62.7159165
 20
-14.1121270
 30
0.0000000
  0
VERTEX
  8
0
 62
    13
 10
63.0001956
 20
-14.0828134
 30
0.0000000
  0
VERTEX
  8
0
 62
    13
 10
63.2958645
 20
-14.0481474
 30
0.0000000
  0
VERTEX
  8
0
 62
    13
 10
63.6028269
 20
-14.0078055
 30
0.0000000
  0
VERTEX
  8
0
 62
    13
 10
63.9209796
 20
-13.9614660
 30
0.0000000
  0
VERTEX
  8
0
 62
    13
 10
64.2502127
 20
-13.9088087
 30
0.0000000
  0
VERTEX
  8
0
 62
    13
 10
64.5043391
 20
-13.8649783
 30
0.0000000
  0
VERTEX
  8
0
 62
    13
 10
64.7645810
 20
-13.8172817
 30
0.0000000
  0
VERTEX
  8
0
 62
    13
 10
65.0308846
 20
-13.7655864
 30
0.0000000
  0
VERTEX
  8
0
 62
    13
 10
65.3031940
 20
-13.7097601
 30
0.0000000
  0
VERTEX
  8
0
 62
    13
 10
65.5814510
 20
-13.6496715
 30
0.0000000
  0
VERTEX
  8
0
 62
    13
 10
65.5954483
 20
-13.6465686
 30
0.0000000
  0
VERTEX
  8
0
 62
    13
 10
65.6504275
 20
-13.3795759
 30
0.0000000
  0
VERTEX
  8
0
 62
    13
 10
65.7043199
 20
-13.1123617
 30
0.0000000
  0
VERTEX
  8
0
 62
    13
 10
65.7571246
 20
-12.8449304
 30
0.0000000
  0
VERTEX
  8
0
 62
    13
 10
65.8088409
 20
-12.5772866
 30
0.0000000
  0
VERTEX
  8
0
 62
    13
 10
65.8594678
 20
-12.3094345
 30
0.0000000
  0
VERTEX
  8
0
 62
    13
 10
65.8988920
 20
-12.0965993
 30
0.0000000
  0
VERTEX
  8
0
 62
    13
 10
65.6847178
 20
-11.9499718
 30
0.0000000
  0
VERTEX
  8
0
 62
    13
 10
65.3865581
 20
-11.7508430
 30
0.0000000
  0
VERTEX
  8
0
 62
    13
 10
65.0950879
 20
-11.5618245
 30
0.0000000
  0
VERTEX
  8
0
 62
    13
 10
64.8105241
 20
-11.3826981
 30
0.0000000
  0
VERTEX
  8
0
 62
    13
 10
64.5330793
 20
-11.2132416
 30
0.0000000
  0
VERTEX
  8
0
 62
    13
 10
64.2629609
 20
-11.0532289
 30
0.0000000
  0
VERTEX
  8
0
 62
    13
 10
64.0003717
 20
-10.9024302
 30
0.0000000
  0
VERTEX
  8
0
 62
    13
 10
63.7455096
 20
-10.7606118
 30
0.0000000
  0
VERTEX
  8
0
 62
    13
 10
63.4985675
 20
-10.6275365
 30
0.0000000
  0
VERTEX
  8
0
 62
    13
 10
63.2597333
 20
-10.5029634
 30
0.0000000
  0
VERTEX
  8
0
 62
    13
 10
63.0291899
 20
-10.3866482
 30
0.0000000
  0
VERTEX
  8
0
 62
    13
 10
62.7350019
 20
-10.2439786
 30
0.0000000
  0
VERTEX
  8
0
 62
    13
 10
62.4562751
 20
-10.1149531
 30
0.0000000
  0
VERTEX
  8
0
 62
    13
 10
62.1933999
 20
-9.9989659
 30
0.0000000
  0
VERTEX
  8
0
 62
    13
 10
61.9467495
 20
-9.8954016
 30
0.0000000
  0
VERTEX
  8
0
 62
    13
 10
61.9028053
 20
-9.8775051
 30
0.0000000
  0
VERTEX
  8
0
 62
    13
 10
62.1425349
 20
-8.2357615
 30
0.0000000
  0
VERTEX
  8
0
 62
    13
 10
62.4429318
 20
-8.2039576
 30
0.0000000
  0
VERTEX
  8
0
 62
    13
 10
62.7180153
 20
-8.1695548
 30
0.0000000
  0
VERTEX
  8
0
 62
    13
 10
63.0108757
 20
-8.1277275
 30
0.0000000
  0
VERTEX
  8
0
 62
    13
 10
63.2578423
 20
-8.0884964
 30
0.0000000
  0
VERTEX
  8
0
 62
    13
 10
63.5159702
 20
-8.0437893
 30
0.0000000
  0
VERTEX
  8
0
 62
    13
 10
63.7851524
 20
-7.9932875
 30
0.0000000
  0
VERTEX
  8
0
 62
    13
 10
64.0652752
 20
-7.9366738
 30
0.0000000
  0
VERTEX
  8
0
 62
    13
 10
64.3562181
 20
-7.8736335
 30
0.0000000
  0
VERTEX
  8
0
 62
    13
 10
64.6578539
 20
-7.8038538
 30
0.0000000
  0
VERTEX
  8
0
 62
    13
 10
64.9700490
 20
-7.7270244
 30
0.0000000
  0
VERTEX
  8
0
 62
    13
 10
65.2926629
 20
-7.6428373
 30
0.0000000
  0
VERTEX
  8
0
 62
    13
 10
65.5413727
 20
-7.5746848
 30
0.0000000
  0
VERTEX
  8
0
 62
    13
 10
65.7957963
 20
-7.5020940
 30
0.0000000
  0
VERTEX
  8
0
 62
    13
 10
66.0558674
 20
-7.4249379
 30
0.0000000
  0
VERTEX
  8
0
 62
    13
 10
66.3215175
 20
-7.3430906
 30
0.0000000
  0
VERTEX
  8
0
 62
    13
 10
66.5926762
 20
-7.2564269
 30
0.0000000
  0
VERTEX
  8
0
 62
    13
 10
66.6063087
 20
-7.2519875
 30
0.0000000
  0
VERTEX
  8
0
 62
    13
 10
66.6352626
 20
-6.9809349
 30
0.0000000
  0
VERTEX
  8
0
 62
    13
 10
66.6631135
 20
-6.7097669
 30
0.0000000
  0
VERTEX
  8
0
 62
    13
 10
66.6898609
 20
-6.4384877
 30
0.0000000
  0
VERTEX
  8
0
 62
    13
 10
66.7155044
 20
-6.1671019
 30
0.0000000
  0
VERTEX
  8
0
 62
    13
 10
66.7400435
 20
-5.8956141
 30
0.0000000
  0
VERTEX
  8
0
 62
    13
 10
66.7587421
 20
-5.6799675
 30
0.0000000
  0
VERTEX
  8
0
 62
    13
 10
66.5314162
 20
-5.5546953
 30
0.0000000
  0
VERTEX
  8
0
 62
    13
 10
66.2154297
 20
-5.3852727
 30
0.0000000
  0
VERTEX
  8
0
 62
    13
 10
65.9070772
 20
-5.2252675
 30
0.0000000
  0
VERTEX
  8
0
 62
    13
 10
65.6065538
 20
-5.0744417
 30
0.0000000
  0
VERTEX
  8
0
 62
    13
 10
65.3140492
 20
-4.9325536
 30
0.0000000
  0
VERTEX
  8
0
 62
    13
 10
65.0297484
 20
-4.7993581
 30
0.0000000
  0
VERTEX
  8
0
 62
    13
 10
64.7538309
 20
-4.6746069
 30
0.0000000
  0
VERTEX
  8
0
 62
    13
 10
64.4864711
 20
-4.5580483
 30
0.0000000
  0
VERTEX
  8
0
 62
    13
 10
64.2278382
 20
-4.4494275
 30
0.0000000
  0
VERTEX
  8
0
 62
    13
 10
63.9780960
 20
-4.3484868
 30
0.0000000
  0
VERTEX
  8
0
 62
    13
 10
63.7374028
 20
-4.2549653
 30
0.0000000
  0
VERTEX
  8
0
 62
    13
 10
63.4308185
 20
-4.1413549
 30
0.0000000
  0
VERTEX
  8
0
 62
    13
 10
63.1409402
 20
-4.0398328
 30
0.0000000
  0
VERTEX
  8
0
 62
    13
 10
62.8680978
 20
-3.9497582
 30
0.0000000
  0
VERTEX
  8
0
 62
    13
 10
62.6126034
 20
-3.8704826
 30
0.0000000
  0
VERTEX
  8
0
 62
    13
 10
62.5671372
 20
-3.8569109
 30
0.0000000
  0
VERTEX
  8
0
 62
    13
 10
62.6472965
 20
-2.1996943
 30
0.0000000
  0
VERTEX
  8
0
 62
    15
 10
62.9432215
 20
-2.1390463
 30
0.0000000
  0
SEQEND
  0
ENDSEC
  0
EOF
