  0
SECTION
  2
HEADER
  9
$ACADVER
  1
AC1027
  9
$ACADMAINTVER
 70
     8
  9
$DWGCODEPAGE
  3
ANSI_1252
  9
$LASTSAVEDBY
  1
Amelia
  9
$REQUIREDVERSIONS
160
                 0
  9
$INSBASE
 10
0.0
 20
0.0
 30
0.0
  9
$EXTMIN
 10
-66.95520139999999
 20
-66.9948042
 30
0.0
  9
$EXTMAX
 10
66.999932
 20
66.9948042
 30
0.0
  9
$LIMMIN
 10
0.0
 20
0.0
  9
$LIMMAX
 10
12.0
 20
9.0
  9
$ORTHOMODE
 70
     0
  9
$REGENMODE
 70
     1
  9
$FILLMODE
 70
     1
  9
$QTEXTMODE
 70
     0
  9
$MIRRTEXT
 70
     0
  9
$LTSCALE
 40
1.0
  9
$ATTMODE
 70
     1
  9
$TEXTSIZE
 40
0.2
  9
$TRACEWID
 40
0.05
  9
$TEXTSTYLE
  7
Standard
  9
$CLAYER
  8
0
  9
$CELTYPE
  6
Continuous
  9
$CECOLOR
 62
   256
  9
$CELTSCALE
 40
1.0
  9
$DISPSILH
 70
     0
  9
$DIMSCALE
 40
1.0
  9
$DIMASZ
 40
0.18
  9
$DIMEXO
 40
0.0625
  9
$DIMDLI
 40
0.38
  9
$DIMRND
 40
0.0
  9
$DIMDLE
 40
0.0
  9
$DIMEXE
 40
0.18
  9
$DIMTP
 40
0.0
  9
$DIMTM
 40
0.0
  9
$DIMTXT
 40
0.18
  9
$DIMCEN
 40
0.09
  9
$DIMTSZ
 40
0.0
  9
$DIMTOL
 70
     0
  9
$DIMLIM
 70
     0
  9
$DIMTIH
 70
     1
  9
$DIMTOH
 70
     1
  9
$DIMSE1
 70
     0
  9
$DIMSE2
 70
     0
  9
$DIMTAD
 70
     0
  9
$DIMZIN
 70
     0
  9
$DIMBLK
  1

  9
$DIMASO
 70
     1
  9
$DIMSHO
 70
     1
  9
$DIMPOST
  1

  9
$DIMAPOST
  1

  9
$DIMALT
 70
     0
  9
$DIMALTD
 70
     2
  9
$DIMALTF
 40
25.4
  9
$DIMLFAC
 40
1.0
  9
$DIMTOFL
 70
     0
  9
$DIMTVP
 40
0.0
  9
$DIMTIX
 70
     0
  9
$DIMSOXD
 70
     0
  9
$DIMSAH
 70
     0
  9
$DIMBLK1
  1

  9
$DIMBLK2
  1

  9
$DIMSTYLE
  2
Standard
  9
$DIMCLRD
 70
     0
  9
$DIMCLRE
 70
     0
  9
$DIMCLRT
 70
     0
  9
$DIMTFAC
 40
1.0
  9
$DIMGAP
 40
0.09
  9
$DIMJUST
 70
     0
  9
$DIMSD1
 70
     0
  9
$DIMSD2
 70
     0
  9
$DIMTOLJ
 70
     1
  9
$DIMTZIN
 70
     0
  9
$DIMALTZ
 70
     0
  9
$DIMALTTZ
 70
     0
  9
$DIMUPT
 70
     0
  9
$DIMDEC
 70
     4
  9
$DIMTDEC
 70
     4
  9
$DIMALTU
 70
     2
  9
$DIMALTTD
 70
     2
  9
$DIMTXSTY
  7
Standard
  9
$DIMAUNIT
 70
     0
  9
$DIMADEC
 70
     0
  9
$DIMALTRND
 40
0.0
  9
$DIMAZIN
 70
     0
  9
$DIMDSEP
 70
    46
  9
$DIMATFIT
 70
     3
  9
$DIMFRAC
 70
     0
  9
$DIMLDRBLK
  1

  9
$DIMLUNIT
 70
     2
  9
$DIMLWD
 70
    -2
  9
$DIMLWE
 70
    -2
  9
$DIMTMOVE
 70
     0
  9
$DIMFXL
 40
1.0
  9
$DIMFXLON
 70
     0
  9
$DIMJOGANG
 40
0.7853981633974483
  9
$DIMTFILL
 70
     0
  9
$DIMTFILLCLR
 70
     0
  9
$DIMARCSYM
 70
     0
  9
$DIMLTYPE
  6

  9
$DIMLTEX1
  6

  9
$DIMLTEX2
  6

  9
$DIMTXTDIRECTION
 70
     0
  9
$LUNITS
 70
     2
  9
$LUPREC
 70
     4
  9
$SKETCHINC
 40
0.1
  9
$FILLETRAD
 40
0.0
  9
$AUNITS
 70
     0
  9
$AUPREC
 70
     0
  9
$MENU
  1
.
  9
$ELEVATION
 40
0.0
  9
$PELEVATION
 40
0.0
  9
$THICKNESS
 40
0.0
  9
$LIMCHECK
 70
     0
  9
$CHAMFERA
 40
0.0
  9
$CHAMFERB
 40
0.0
  9
$CHAMFERC
 40
0.0
  9
$CHAMFERD
 40
0.0
  9
$SKPOLY
 70
     0
  9
$TDCREATE
 40
2456550.966007894
  9
$TDUCREATE
 40
2456550.549341227
  9
$TDUPDATE
 40
2456550.966754398
  9
$TDUUPDATE
 40
2456550.550087731
  9
$TDINDWG
 40
0.0007466898
  9
$TDUSRTIMER
 40
0.0007466898
  9
$USRTIMER
 70
     1
  9
$ANGBASE
 50
0.0
  9
$ANGDIR
 70
     0
  9
$PDMODE
 70
     0
  9
$PDSIZE
 40
0.0
  9
$PLINEWID
 40
0.0
  9
$SPLFRAME
 70
     0
  9
$SPLINETYPE
 70
     6
  9
$SPLINESEGS
 70
     8
  9
$HANDSEED
  5
ABD
  9
$SURFTAB1
 70
     6
  9
$SURFTAB2
 70
     6
  9
$SURFTYPE
 70
     6
  9
$SURFU
 70
     6
  9
$SURFV
 70
     6
  9
$UCSBASE
  2

  9
$UCSNAME
  2

  9
$UCSORG
 10
0.0
 20
0.0
 30
0.0
  9
$UCSXDIR
 10
1.0
 20
0.0
 30
0.0
  9
$UCSYDIR
 10
0.0
 20
1.0
 30
0.0
  9
$UCSORTHOREF
  2

  9
$UCSORTHOVIEW
 70
     0
  9
$UCSORGTOP
 10
0.0
 20
0.0
 30
0.0
  9
$UCSORGBOTTOM
 10
0.0
 20
0.0
 30
0.0
  9
$UCSORGLEFT
 10
0.0
 20
0.0
 30
0.0
  9
$UCSORGRIGHT
 10
0.0
 20
0.0
 30
0.0
  9
$UCSORGFRONT
 10
0.0
 20
0.0
 30
0.0
  9
$UCSORGBACK
 10
0.0
 20
0.0
 30
0.0
  9
$PUCSBASE
  2

  9
$PUCSNAME
  2

  9
$PUCSORG
 10
0.0
 20
0.0
 30
0.0
  9
$PUCSXDIR
 10
1.0
 20
0.0
 30
0.0
  9
$PUCSYDIR
 10
0.0
 20
1.0
 30
0.0
  9
$PUCSORTHOREF
  2

  9
$PUCSORTHOVIEW
 70
     0
  9
$PUCSORGTOP
 10
0.0
 20
0.0
 30
0.0
  9
$PUCSORGBOTTOM
 10
0.0
 20
0.0
 30
0.0
  9
$PUCSORGLEFT
 10
0.0
 20
0.0
 30
0.0
  9
$PUCSORGRIGHT
 10
0.0
 20
0.0
 30
0.0
  9
$PUCSORGFRONT
 10
0.0
 20
0.0
 30
0.0
  9
$PUCSORGBACK
 10
0.0
 20
0.0
 30
0.0
  9
$USERI1
 70
     0
  9
$USERI2
 70
     0
  9
$USERI3
 70
     0
  9
$USERI4
 70
     0
  9
$USERI5
 70
     0
  9
$USERR1
 40
0.0
  9
$USERR2
 40
0.0
  9
$USERR3
 40
0.0
  9
$USERR4
 40
0.0
  9
$USERR5
 40
0.0
  9
$WORLDVIEW
 70
     1
  9
$SHADEDGE
 70
     3
  9
$SHADEDIF
 70
    70
  9
$TILEMODE
 70
     1
  9
$MAXACTVP
 70
    64
  9
$PINSBASE
 10
0.0
 20
0.0
 30
0.0
  9
$PLIMCHECK
 70
     0
  9
$PEXTMIN
 10
1.000000000000000E+20
 20
1.000000000000000E+20
 30
1.000000000000000E+20
  9
$PEXTMAX
 10
-1.000000000000000E+20
 20
-1.000000000000000E+20
 30
-1.000000000000000E+20
  9
$PLIMMIN
 10
0.0
 20
0.0
  9
$PLIMMAX
 10
12.0
 20
9.0
  9
$UNITMODE
 70
     0
  9
$VISRETAIN
 70
     1
  9
$PLINEGEN
 70
     0
  9
$PSLTSCALE
 70
     1
  9
$TREEDEPTH
 70
  3020
  9
$CMLSTYLE
  2
Standard
  9
$CMLJUST
 70
     0
  9
$CMLSCALE
 40
1.0
  9
$PROXYGRAPHICS
 70
     1
  9
$MEASUREMENT
 70
     0
  9
$CELWEIGHT
370
    -1
  9
$ENDCAPS
280
     0
  9
$JOINSTYLE
280
     0
  9
$LWDISPLAY
290
     0
  9
$INSUNITS
 70
     0
  9
$HYPERLINKBASE
  1

  9
$STYLESHEET
  1

  9
$XEDIT
290
     1
  9
$CEPSNTYPE
380
     0
  9
$PSTYLEMODE
290
     1
  9
$FINGERPRINTGUID
  2
{455FE53B-9300-4BF8-822E-E1455112D3AE}
  9
$VERSIONGUID
  2
{22E4734F-E70B-4F91-9F0A-2DFD466756A9}
  9
$EXTNAMES
290
     1
  9
$PSVPSCALE
 40
0.0
  9
$OLESTARTUP
290
     0
  9
$SORTENTS
280
   127
  9
$INDEXCTL
280
     0
  9
$HIDETEXT
280
     0
  9
$XCLIPFRAME
280
     2
  9
$HALOGAP
280
     0
  9
$OBSCOLOR
 70
   257
  9
$OBSLTYPE
280
     0
  9
$INTERSECTIONDISPLAY
280
     0
  9
$INTERSECTIONCOLOR
 70
   257
  9
$DIMASSOC
280
     1
  9
$PROJECTNAME
  1

  9
$CAMERADISPLAY
290
     0
  9
$LENSLENGTH
 40
50.0
  9
$CAMERAHEIGHT
 40
0.0
  9
$STEPSPERSEC
 40
2.0
  9
$STEPSIZE
 40
6.0
  9
$3DDWFPREC
 40
2.0
  9
$PSOLWIDTH
 40
0.25
  9
$PSOLHEIGHT
 40
4.0
  9
$LOFTANG1
 40
1.570796326794896
  9
$LOFTANG2
 40
1.570796326794896
  9
$LOFTMAG1
 40
0.0
  9
$LOFTMAG2
 40
0.0
  9
$LOFTPARAM
 70
     7
  9
$LOFTNORMALS
280
     1
  9
$LATITUDE
 40
37.795
  9
$LONGITUDE
 40
-122.394
  9
$NORTHDIRECTION
 40
0.0
  9
$TIMEZONE
 70
 -8000
  9
$LIGHTGLYPHDISPLAY
280
     1
  9
$TILEMODELIGHTSYNCH
280
     1
  9
$CMATERIAL
347
11
  9
$SOLIDHIST
280
     0
  9
$SHOWHIST
280
     1
  9
$DWFFRAME
280
     2
  9
$DGNFRAME
280
     0
  9
$REALWORLDSCALE
290
     1
  9
$INTERFERECOLOR
 62
     1
  9
$INTERFEREOBJVS
345
33
  9
$INTERFEREVPVS
346
30
  9
$CSHADOW
280
     0
  9
$SHADOWPLANELOCATION
 40
0.0
  0
ENDSEC
  0
SECTION
  2
CLASSES
  0
CLASS
  1
ACDBDICTIONARYWDFLT
  2
AcDbDictionaryWithDefault
  3
ObjectDBX Classes
 90
        0
 91
        1
280
     0
281
     0
  0
CLASS
  1
MATERIAL
  2
AcDbMaterial
  3
ObjectDBX Classes
 90
     1153
 91
        3
280
     0
281
     0
  0
CLASS
  1
VISUALSTYLE
  2
AcDbVisualStyle
  3
ObjectDBX Classes
 90
     4095
 91
       24
280
     0
281
     0
  0
CLASS
  1
SCALE
  2
AcDbScale
  3
ObjectDBX Classes
 90
     1153
 91
       17
280
     0
281
     0
  0
CLASS
  1
TABLESTYLE
  2
AcDbTableStyle
  3
ObjectDBX Classes
 90
     4095
 91
        1
280
     0
281
     0
  0
CLASS
  1
MLEADERSTYLE
  2
AcDbMLeaderStyle
  3
ACDB_MLEADERSTYLE_CLASS
 90
     4095
 91
        1
280
     0
281
     0
  0
CLASS
  1
ACDBSECTIONVIEWSTYLE
  2
AcDbSectionViewStyle
  3
ObjectDBX Classes
 90
     1025
 91
        1
280
     0
281
     0
  0
CLASS
  1
ACDBDETAILVIEWSTYLE
  2
AcDbDetailViewStyle
  3
ObjectDBX Classes
 90
     1025
 91
        1
280
     0
281
     0
  0
CLASS
  1
SOLID_BACKGROUND
  2
AcDbSolidBackground
  3
SCENEOE
 90
     4095
 91
        1
280
     0
281
     0
  0
CLASS
  1
NPOCOLLECTION
  2
AcDbImpNonPersistentObjectsCollection
  3
ObjectDBX Classes
 90
     1153
 91
        1
280
     0
281
     0
  0
CLASS
  1
DICTIONARYVAR
  2
AcDbDictionaryVar
  3
ObjectDBX Classes
 90
        0
 91
        9
280
     0
281
     0
  0
CLASS
  1
CELLSTYLEMAP
  2
AcDbCellStyleMap
  3
ObjectDBX Classes
 90
     1152
 91
        1
280
     0
281
     0
  0
ENDSEC
  0
SECTION
  2
TABLES
  0
TABLE
  2
VPORT
  5
8
330
0
100
AcDbSymbolTable
 70
     1
  0
VPORT
  5
AA9
330
8
100
AcDbSymbolTableRecord
100
AcDbViewportTableRecord
  2
*Active
 70
     0
 10
0.0
 20
0.0
 11
1.0
 21
1.0
 12
-165.6370810848532
 22
-51.95141855215393
 13
0.0
 23
0.0
 14
1.0
 24
1.0
 15
0.0
 25
0.0
 16
-404.3752270439143
 26
-562.5399703530452
 36
885.0693471220507
 17
151.6686842070781
 27
-75.74576307393233
 37
21.14402458459693
 40
152.6161255795881
 41
2.232696897374701
 42
50.0
 43
0.0
 44
0.0
 50
0.0
 51
0.0
 71
     0
 72
  1000
 73
     1
 74
     3
 75
     0
 76
     0
 77
     0
 78
     0
281
     0
 65
     1
110
0.0
120
0.0
130
0.0
111
1.0
121
0.0
131
0.0
112
0.0
122
1.0
132
0.0
 79
     0
146
0.0
348
2F
 60
     3
 61
     5
292
     1
282
     1
141
0.0
142
0.0
 63
   250
421
  3355443
1001
ACAD_NAV_VCDISPLAY
1070
     1
  0
ENDTAB
  0
TABLE
  2
LTYPE
  5
5
330
0
100
AcDbSymbolTable
 70
     2
  0
LTYPE
  5
5A
330
5
100
AcDbSymbolTableRecord
100
AcDbLinetypeTableRecord
  2
ByBlock
 70
     0
  3

 72
    65
 73
     0
 40
0.0
  0
LTYPE
  5
5B
330
5
100
AcDbSymbolTableRecord
100
AcDbLinetypeTableRecord
  2
ByLayer
 70
     0
  3

 72
    65
 73
     0
 40
0.0
  0
LTYPE
  5
5C
330
5
100
AcDbSymbolTableRecord
100
AcDbLinetypeTableRecord
  2
Continuous
 70
     0
  3
Solid line
 72
    65
 73
     0
 40
0.0
  0
LTYPE
  5
68
330
5
100
AcDbSymbolTableRecord
100
AcDbLinetypeTableRecord
  2
PHANTOM2
 70
     0
  3
Phantom (.5x) ___ _ _ ___ _ _ ___ _ _ ___ _ _
 72
    65
 73
     6
 40
1.25
 49
0.625
 74
     0
 49
-0.125
 74
     0
 49
0.125
 74
     0
 49
-0.125
 74
     0
 49
0.125
 74
     0
 49
-0.125
 74
     0
  0
ENDTAB
  0
TABLE
  2
LAYER
  5
2
330
0
100
AcDbSymbolTable
 70
     1
  0
LAYER
  5
54
102
{ACAD_XDICTIONARY
360
AAE
102
}
330
2
100
AcDbSymbolTableRecord
100
AcDbLayerTableRecord
  2
0
 70
     0
 62
     7
  6
Continuous
370
    -3
390
F
347
21
348
0
  0
ENDTAB
  0
TABLE
  2
STYLE
  5
3
330
0
100
AcDbSymbolTable
 70
     2
  0
STYLE
  5
55
330
3
100
AcDbSymbolTableRecord
100
AcDbTextStyleTableRecord
  2
Standard
 70
     0
 40
0.0
 41
1.0
 50
0.0
 71
     0
 42
0.2
  3
txt
  4

  0
STYLE
  5
59
330
3
100
AcDbSymbolTableRecord
100
AcDbTextStyleTableRecord
  2
Annotative
 70
     0
 40
0.0
 41
1.0
 50
0.0
 71
     0
 42
0.2
  3
txt
  4

1001
AcadAnnotative
1000
AnnotativeData
1002
{
1070
     1
1070
     1
1002
}
  0
ENDTAB
  0
TABLE
  2
VIEW
  5
6
330
0
100
AcDbSymbolTable
 70
     0
  0
ENDTAB
  0
TABLE
  2
UCS
  5
7
330
0
100
AcDbSymbolTable
 70
     0
  0
ENDTAB
  0
TABLE
  2
APPID
  5
9
330
0
100
AcDbSymbolTable
 70
     3
  0
APPID
  5
56
330
9
100
AcDbSymbolTableRecord
100
AcDbRegAppTableRecord
  2
ACAD
 70
     0
  0
APPID
  5
5D
330
9
100
AcDbSymbolTableRecord
100
AcDbRegAppTableRecord
  2
AcadAnnotative
 70
     0
  0
APPID
  5
AA8
330
9
100
AcDbSymbolTableRecord
100
AcDbRegAppTableRecord
  2
ACAD_NAV_VCDISPLAY
 70
     0
  0
ENDTAB
  0
TABLE
  2
DIMSTYLE
  5
A
330
0
100
AcDbSymbolTable
 70
     2
100
AcDbDimStyleTable
 71
     0
  0
DIMSTYLE
105
57
330
A
100
AcDbSymbolTableRecord
100
AcDbDimStyleTableRecord
  2
Standard
 70
     0
340
55
  0
DIMSTYLE
105
58
330
A
100
AcDbSymbolTableRecord
100
AcDbDimStyleTableRecord
  2
Annotative
 70
     0
340
55
1001
AcadAnnotative
1000
AnnotativeData
1002
{
1070
     1
1070
     1
1002
}
  0
ENDTAB
  0
TABLE
  2
BLOCK_RECORD
  5
1
330
0
100
AcDbSymbolTable
 70
     0
  0
BLOCK_RECORD
  5
70
330
1
100
AcDbSymbolTableRecord
100
AcDbBlockTableRecord
  2
*Model_Space
340
73
 70
     0
280
     1
281
     0
  0
BLOCK_RECORD
  5
6C
330
1
100
AcDbSymbolTableRecord
100
AcDbBlockTableRecord
  2
*Paper_Space
340
6F
 70
     0
280
     1
281
     0
  0
ENDTAB
  0
ENDSEC
  0
SECTION
  2
BLOCKS
  0
BLOCK
  5
71
330
70
100
AcDbEntity
  8
0
100
AcDbBlockBegin
  2
*Model_Space
 70
     0
 10
0.0
 20
0.0
 30
0.0
  3
*Model_Space
  1

  0
ENDBLK
  5
72
330
70
100
AcDbEntity
  8
0
100
AcDbBlockEnd
  0
BLOCK
  5
6D
330
6C
100
AcDbEntity
 67
     1
  8
0
100
AcDbBlockBegin
  2
*Paper_Space
 70
     0
 10
0.0
 20
0.0
 30
0.0
  3
*Paper_Space
  1

  0
ENDBLK
  5
6E
330
6C
100
AcDbEntity
 67
     1
  8
0
100
AcDbBlockEnd
  0
ENDSEC
  0
SECTION
  2
ENTITIES
  0
CIRCLE
  5
74
330
70
100
AcDbEntity
  8
0
 62
    13
100
AcDbCircle
 10
0.0
 20
0.0
 30
0.0
 40
2.5
  0
LWPOLYLINE
  5
75
330
70
100
AcDbEntity
  8
0
 62
    13
100
AcDbPolyline
 90
     1002
 70
     0
 43
0.0
 10
62.9432215
 20
-2.139046299999999
 10
63.2137005
 20
-2.078254799999999
 10
63.5011568
 20
-2.008357699999999
 10
63.74318399999999
 20
-1.945474
 10
63.99579209999999
 20
-1.8760627
 10
64.25884359999999
 20
-1.7998167
 10
64.53219459999999
 20
-1.7164316
 10
64.81569499999999
 20
-1.6256056
 10
65.109188
 20
-1.5270396
 10
65.41251049999999
 20
-1.4204377
 10
65.72549309999999
 20
-1.305506899999999
 10
65.9664642
 20
-1.2136686
 10
66.212694
 20
-1.116861199999999
 10
66.46410429999999
 20
-1.014964899999999
 10
66.7206149
 20
-0.9078606999999999
 10
66.98214339999999
 20
-0.795431
 10
66.9952838
 20
-0.7896966
 10
66.99794229999999
 20
-0.517115
 10
66.9994917
 20
-0.2445248
 10
66.999932
 20
0.0280695
 10
66.9992633
 20
0.3006632
 10
66.99748549999999
 20
0.5732520000000001
 10
66.9952838
 20
0.7896966
 10
66.7569287
 20
0.8924438
 10
66.42606569999999
 20
1.0305784
 10
66.10370999999999
 20
1.1600763
 10
65.79003270000001
 20
1.2811934
 10
65.4851994
 20
1.394188399999999
 10
65.1893706
 20
1.499322999999999
 10
64.902701
 20
1.596861999999999
 10
64.62533979999999
 20
1.687072499999999
 10
64.35743089999999
 20
1.770224499999999
 10
64.09911239999999
 20
1.8465904
 10
63.8505167
 20
1.916445099999999
 10
63.53439870000001
 20
1.9999354
 10
63.2360753
 20
2.0730063
 10
62.9558132
 20
2.136327299999999
 10
62.69386039999999
 20
2.1905741
 10
62.64729649999999
 20
2.199694299999999
 10
62.5671372
 20
3.856910899999999
 10
62.85582729999999
 20
3.9458366
 10
63.11917639999999
 20
4.032449299999999
 10
63.3985447
 20
4.129763699999999
 10
63.63337289999999
 20
4.215712899999999
 10
63.87810250000001
 20
4.3091803
 10
64.13256719999999
 20
4.4104584
 10
64.3965943
 20
4.519836399999999
 10
64.6700052
 20
4.637600199999999
 10
64.9526151
 20
4.764032199999999
 10
65.24423299999999
 20
4.899411299999999
 10
65.54466210000001
 20
5.044012799999999
 10
65.7756445
 20
5.1586794
 10
66.01138159999999
 20
5.2787994
 10
66.25178390000001
 20
5.4044847
 10
66.49675989999998
 20
5.5358457
 10
66.7462165
 20
5.672991599999999
 10
66.75874209999999
 20
5.6799675
 10
66.73508019999999
 20
5.9515332
 10
66.7103136
 20
6.2230004
 10
66.6844428
 20
6.494364599999999
 10
66.657468
 20
6.7656212
 10
66.62938989999999
 20
7.036765899999999
 10
66.6063087
 20
7.2519875
 10
66.3591497
 20
7.3312505
 10
66.0164994
 20
7.436807400000001
 10
65.6831502
 20
7.534588900000001
 10
65.35924780000001
 20
7.624866299999999
 10
65.04493199999998
 20
7.707913099999998
 10
64.74033730000001
 20
7.7840054
 10
64.445592
 20
7.853421400000001
 10
64.16081909999999
 20
7.916441599999999
 10
63.8861356
 20
7.973348399999999
 10
63.62165260000001
 20
8.0244265
 10
63.3674755
 20
8.069962099999999
 10
63.0447753
 20
8.1225529
 10
62.74079229999999
 20
8.166490299999999
 10
62.45572710000001
 20
8.202466499999999
 10
62.1897616
 20
8.231177999999999
 10
62.14253489999999
 20
8.2357616
 10
61.90280529999999
 20
9.877505099999998
 10
62.1815652
 20
9.993878399999999
 10
62.4353255
 20
10.1055036
 10
62.70399739999999
 20
10.2293266
 10
62.9294341
 20
10.3375387
 10
63.1640003
 20
10.4541896
 10
63.40750229999999
 20
10.5795543
 10
63.6597404
 20
10.713904
 10
63.920509
 20
10.857506
 10
64.1895971
 20
11.0106235
 10
64.4667877
 20
11.1735158
 10
64.7518582
 20
11.3464378
 10
64.9706954
 20
11.4828621
 10
65.19373879999999
 20
11.6251733
 10
65.42088829999999
 20
11.773474
 10
65.6520425
 20
11.9278653
 10
65.8870981
 20
12.0884471
 10
65.898892
 20
12.0965993
 10
65.8491307
 20
12.3646136
 10
65.79827929999999
 20
12.6324231
 10
65.74633879999999
 20
12.9000235
 10
65.69331
 20
13.1674104
 10
65.6391937
 20
13.4345794
 10
65.5954483
 20
13.6465686
 10
65.34179319999999
 20
13.7016073
 10
64.99055479999999
 20
13.7736008
 10
64.6493245
 20
13.8387531
 10
64.31822120000001
 20
13.8973479
 10
63.9973576
 20
13.9496712
 10
63.68684079999999
 20
13.9960106
 10
63.386772
 20
14.0366555
 10
63.0972462
 20
14.0718969
 10
62.8183527
 20
14.1020274
 10
62.55017460000001
 20
14.1273407
 10
62.29278929999999
 20
14.1481321
 10
61.9665198
 20
14.1693323
 10
61.6597153
 20
14.183726
 10
61.37250879999999
 20
14.1920215
 10
61.10501379999999
 20
14.1949296
 10
61.05756519999999
 20
14.1949337
 10
60.6605037
 20
15.8058758
 10
60.92673050000001
 20
15.9486099
 10
61.1685328
 20
16.0842055
 10
61.4239998
 20
16.233381
 10
61.63794010000001
 20
16.3628457
 10
61.8601529
 20
16.501591
 10
62.0904186
 20
16.6498717
 10
62.3285126
 20
16.8079387
 10
62.57420429999999
 20
16.9760381
 10
62.8272582
 20
17.1544116
 10
63.0874333
 20
17.3432962
 10
63.3544837
 20
17.5429242
 10
63.5591324
 20
17.6998325
 10
63.7673995
 20
17.8630061
 10
63.9791756
 20
18.0325376
 10
64.1943498
 20
18.2085178
 10
64.4128096
 20
18.391036
 10
64.42376160000001
 20
18.4002884
 10
64.34836549999999
 20
18.6622488
 10
64.27190419999999
 20
18.9239003
 10
64.19437909999999
 20
19.1852385
 10
64.1157912
 20
19.4462591
 10
64.03614209999999
 20
19.7069578
 10
63.972141
 20
19.9137353
 10
63.714358
 20
19.9440358
 10
63.3578109
 20
19.9817939
 10
63.01188559999999
 20
20.0137085
 10
62.6766727
 20
20.0400737
 10
62.3522571
 20
20.061185
 10
62.03871750000001
 20
20.0773389
 10
61.7361267
 20
20.0888332
 10
61.44455119999999
 20
20.0959668
 10
61.1640517
 20
20.0990395
 10
61.07302270000001
 20
20.0992132
 10
60.8073748
 20
20.0973389
 10
60.5529203
 20
20.0921059
 10
60.2311286
 20
20.0804264
 10
59.9293857
 20
20.06403
 10
59.64775069999999
 20
20.04363510000001
 10
59.4025175
 20
20.0215716
 10
58.8518312
 20
21.5866713
 10
59.1030394
 20
21.7544337
 10
59.330626
 20
21.9127334
 10
59.5705029
 20
22.0858687
 10
59.7709493
 20
22.2353772
 10
59.9787338
 20
22.3949214
 10
60.1936135
 20
22.5647338
 10
60.4153402
 20
22.7450423
 10
60.643661
 20
22.9360696
 10
60.878318
 20
23.1380336
 10
61.1190486
 20
23.3511469
 10
61.36558539999999
 20
23.575617
 10
61.55413489999999
 20
23.7515443
 10
61.74568119999999
 20
23.9340568
 10
61.94010649999999
 20
24.1232362
 10
62.1372917
 20
24.3191621
 10
62.3371161
 20
24.5219127
 10
62.347124
 20
24.532179
 10
62.24679699999999
 20
24.7856397
 10
62.1454397
 20
25.0386901
 10
62.0430537
 20
25.291326
 10
61.93964059999999
 20
25.5435432
 10
61.8352022
 20
25.7953377
 10
61.751543
 20
25.9949729
 10
61.49203899999999
 20
26.0002523
 10
61.1335123
 20
26.0034223
 10
60.7861216
 20
26.0018013
 10
60.449929
 20
25.9956908
 10
60.1249904
 20
25.98539280000001
 10
59.81135550000001
 20
25.9712104
 10
59.5090679
 20
25.9534468
 10
59.21816510000001
 20
25.9324061
 10
58.9386784
 20
25.9083923
 10
58.6706332
 20
25.8817098
 10
58.41404839999999
 20
25.8526633
 10
58.0897841
 20
25.8107835
 10
57.78592989999999
 20
25.7659637
 10
57.5024802
 20
25.7189245
 10
57.23940989999999
 20
25.6703856
 10
57.19284449999999
 20
25.6612735
 10
56.49367510000001
 20
27.1659178
 10
56.7275191
 20
27.35714210000001
 10
56.93876519999999
 20
27.5366682
 10
57.1608123
 20
27.7321466
 10
57.34589320000001
 20
27.90030310000001
 10
57.5373095
 20
28.0791565
 10
57.7347968
 20
28.268915
 10
57.93808610000001
 20
28.4697815
 10
58.14690429999999
 20
28.6819531
 10
58.3609735
 20
28.905622
 10
58.5800118
 20
29.1409743
 10
58.8037332
 20
29.3881907
 10
58.9744231
 20
29.5814943
 10
59.1474602
 20
29.7816417
 10
59.3227194
 20
29.9887026
 10
59.5000744
 20
30.2027451
 10
59.6793977
 20
30.423835
 10
59.68836809999999
 20
30.4350192
 10
59.564047
 20
30.6776137
 10
59.4387399
 20
30.9197004
 10
59.312449
 20
31.1612752
 10
59.1851762
 20
31.4023342
 10
59.0569237
 20
31.6428734
 10
58.9543875
 20
31.8335024
 10
58.69558539999999
 20
31.8137114
 10
58.3384264
 20
31.7822638
 10
57.992814
 20
31.7471224
 10
57.6587806
 20
31.70859310000001
 10
57.33635279999999
 20
31.6669821
 10
57.0255509
 20
31.6225957
 10
56.72638889999999
 20
31.5757401
 10
56.4388749
 20
31.5267214
 10
56.1630106
 20
31.4758454
 10
55.8987919
 20
31.4234174
 10
55.64620829999999
 20
31.3697425
 10
55.32749980000001
 20
31.29676210000001
 10
55.0293899
 20
31.2228254
 10
54.75180329999999
 20
31.148649
 10
54.4946459
 20
31.0749467
 10
54.4491773
 20
31.0613829
 10
53.6080528
 20
32.4915234
 10
53.8223493
 20
32.7044243
 10
54.01528240000001
 20
32.9035004
 10
54.2174265
 20
33.1194969
 10
54.385414
 20
33.3047313
 10
54.55867480000001
 20
33.5012241
 10
54.73692579999999
 20
33.709157
 10
54.9198797
 20
33.928706
 10
55.10724549999999
 20
34.160041
 10
55.2987282
 20
34.4033263
 10
55.4940292
 20
34.65872020000001
 10
55.6928464
 20
34.9263748
 10
55.8440829
 20
35.1352499
 10
55.99699520000001
 20
35.3511634
 10
56.151452
 20
35.5741727
 10
56.30732099999999
 20
35.8043331
 10
56.46446889999999
 20
36.04169810000001
 10
56.4723179
 20
36.0536959
 10
56.3251635
 20
36.2831591
 10
56.1770767
 20
36.5120218
 10
56.02806
 20
36.74028
 10
55.8781158
 20
36.9679301
 10
55.7272466
 20
37.19496820000001
 10
55.60679069999999
 20
37.3748111
 10
55.35110699999999
 20
37.3301345
 10
54.9986505
 20
37.2643629
 10
54.6580431
 20
37.19602910000001
 10
54.3292877
 20
37.1254408
 10
54.0123812
 20
37.0529053
 10
53.707314
 20
36.9787294
 10
53.4140709
 20
36.9032193
 10
53.1326301
 20
36.82668029999999
 10
52.8629639
 20
36.749417
 10
52.6050387
 20
36.671733
 10
52.3588147
 20
36.5939308
 10
52.0486376
 20
36.4905314
 10
51.75905529999999
 20
36.388168
 10
51.48992370000001
 20
36.287547
 10
51.24107999999999
 20
36.1893694
 10
51.1971328
 20
36.17148070000001
 10
50.2219065
 20
37.5137645
 10
50.4146547
 20
37.746354
 10
50.5874735
 20
37.9631215
 10
50.7678272
 20
38.19761939999999
 10
50.91715279999999
 20
38.39820220000001
 10
51.0706405
 20
38.6104998
 10
51.2279909
 20
38.8346657
 10
51.38890120000001
 20
39.0708473
 10
51.5530653
 20
39.31918579999999
 10
51.7201736
 20
39.5798161
 10
51.88991389999999
 20
39.85286699999999
 10
52.0619705
 20
40.1384607
 10
52.1923416
 20
40.3609571
 10
52.3237014
 20
40.5906209
 10
52.4559136
 20
40.8274962
 10
52.58884120000001
 20
41.0716257
 10
52.72234649999999
 20
41.3230496
 10
52.72900100000001
 20
41.3357489
 10
52.56038710000001
 20
41.5499385
 10
52.3909032
 20
41.7634402
 10
52.220552
 20
41.97625069999999
 10
52.0493364
 20
42.18836629999999
 10
51.8772593
 20
42.3997836
 10
51.7400083
 20
42.5671612
 10
51.48983010000001
 20
42.4980161
 10
51.1453669
 20
42.3985346
 10
50.8129447
 20
42.29764649999999
 10
50.4925369
 20
42.1956582
 10
50.1841105
 20
42.09287549999999
 10
49.8876265
 20
41.98960259999999
 10
49.6030401
 20
41.886143
 10
49.3303002
 20
41.7827983
 10
49.06935
 20
41.6798692
 10
48.8201265
 20
41.5776545
 10
48.5825608
 20
41.4764515
 10
48.2838113
 20
41.3435983
 10
48.00546029999999
 20
41.21376409999999
 10
47.7472965
 20
41.0876379
 10
47.50909
 20
40.96590179999999
 10
47.4670744
 20
40.943855
 10
46.36685179999999
 20
42.1857497
 10
46.536252
 20
42.4358562
 10
46.68734299999999
 20
42.66829119999999
 10
46.84422249999999
 20
42.91910099999999
 10
46.97349189999999
 20
43.13315939999999
 10
47.10577339999999
 20
43.3592796
 10
47.2407541
 20
43.5975856
 10
47.37811839999999
 20
43.8481947
 10
47.51754789999999
 20
44.1112179
 10
47.6587217
 20
44.3867598
 10
47.80131629999999
 20
44.67491829999999
 10
47.945006
 20
44.9757846
 10
48.0532945
 20
45.209825
 10
48.1618753
 20
45.45109459999999
 10
48.2706085
 20
45.6996245
 10
48.3793537
 20
45.95544359999999
 10
48.48796979999999
 20
46.2185789
 10
48.49336749999999
 20
46.2318611
 10
48.30486849999999
 20
46.4287772
 10
48.11556989999999
 20
46.6249247
 10
47.92547489999999
 20
46.8203005
 10
47.7345865
 20
47.0149011
 10
47.54290789999999
 20
47.2087236
 10
47.39014339999999
 20
47.3620732
 10
47.1478066
 20
47.26910529999999
 10
46.8145528
 20
47.1368427
 10
46.4934197
 20
47.0043421
 10
46.1843509
 20
46.8719062
 10
45.88728429999999
 20
46.73983579999999
 10
45.60215170000001
 20
46.60843029999999
 10
45.3288791
 20
46.477987
 10
45.06738669999999
 20
46.3488017
 10
44.8175887
 20
46.2211677
 10
44.5793938
 20
46.09537659999999
 10
44.3527047
 20
45.9717177
 10
44.0681721
 20
45.81065129999999
 10
43.8036514
 20
45.6545584
 10
43.5588656
 20
45.50410460000001
 10
43.3335204
 20
45.3599466
 10
43.29382879999999
 20
45.3339476
 10
42.0788823
 20
46.4638578
 10
42.22335289999999
 20
46.7291463
 10
42.35130529999999
 20
46.9750786
 10
42.4832458
 20
47.23985859999999
 10
42.5912522
 20
47.4653939
 10
42.7010924
 20
47.7032255
 10
42.8124431
 20
47.9534465
 10
42.92497889999999
 20
48.2161433
 10
43.0383721
 20
48.4913955
 10
43.1522932
 20
48.7792763
 10
43.26641079999999
 20
49.07985189999999
 10
43.38039179999999
 20
49.3931817
 10
43.4655867
 20
49.6365809
 10
43.5503747
 20
49.8872037
 10
43.6346137
 20
50.1450676
 10
43.7181611
 20
50.41018789999999
 10
43.80087399999999
 20
50.6825777
 10
43.80496459999999
 20
50.6963189
 10
43.59834039999999
 20
50.874123
 10
43.39099459999999
 20
51.0510849
 10
43.1829305
 20
51.2272017
 10
42.9741515
 20
51.4024705
 10
42.7646612
 20
51.5768885
 10
42.5978096
 20
51.7147783
 10
42.36557679999999
 20
51.5988555
 10
42.0466439
 20
51.4350467
 10
41.739798
 20
51.2721709
 10
41.44495399999999
 20
51.1105238
 10
41.16202079999999
 20
50.9503989
 10
40.89090179999999
 20
50.7920876
 10
40.63149459999999
 20
50.6358787
 10
40.3836911
 20
50.4820587
 10
40.14737769999999
 20
50.3309116
 10
39.9224354
 20
50.1827187
 10
39.7087394
 20
50.03775839999999
 10
39.4410802
 20
49.8499825
 10
39.1928595
 20
49.6690884
 10
38.9637374
 20
49.4957117
 10
38.7533574
 20
49.3304777
 10
38.7163604
 20
49.3007693
 10
37.3980336
 20
50.3081455
 10
37.51622579999999
 20
50.5861389
 10
37.619845
 20
50.8432723
 10
37.7256145
 20
51.1195503
 10
37.8113494
 20
51.3544569
 10
37.8977227
 20
51.60177929999999
 10
37.9844038
 20
51.8615791
 10
38.07106029999999
 20
52.1339107
 10
38.1573585
 20
52.418822
 10
38.2429633
 20
52.7163539
 10
38.3275385
 20
53.0265402
 10
38.4107467
 20
53.349408
 10
38.4720524
 20
53.5998934
 10
38.532256
 20
53.85752939999999
 10
38.5912143
 20
54.1223198
 10
38.6487839
 20
54.3942659
 10
38.70482120000001
 20
54.673367
 10
38.7075665
 20
54.68743889999999
 10
38.4847464
 20
54.84447079999999
 10
38.26128920000001
 20
55.0005948
 10
38.03719870000001
 20
55.1558083
 10
37.8124785
 20
55.31010890000001
 10
37.5871324
 20
55.4634939
 10
37.4077514
 20
55.5846365
 10
37.1877909
 20
55.44684109999999
 10
36.8861568
 20
55.25301559999999
 10
36.5964632
 20
55.0612853
 10
36.3185968
 20
54.87193620000001
 10
36.05243870000001
 20
54.6852519
 10
35.79786460000001
 20
54.5015128
 10
35.55474470000001
 20
54.32099670000001
 10
35.3229438
 20
54.1439784
 10
35.1023215
 20
53.9707294
 10
34.8927319
 20
53.8015182
 10
34.6940242
 20
53.63661
 10
34.4457375
 20
53.42387779999999
 10
34.2161344
 20
53.21987149999999
 10
34.0048152
 20
53.0251907
 10
33.8113648
 20
52.84042349999999
 10
33.77740770000001
 20
52.8072831
 10
32.3680095
 20
53.6827195
 10
32.4588197
 20
53.97082239999999
 10
32.5371382
 20
54.2367561
 10
32.6157493
 20
54.5219525
 10
32.6784122
 20
54.7640371
 10
32.7405123
 20
55.0185412
 10
32.8017144
 20
55.28549399999999
 10
32.8616826
 20
55.56491789999999
 10
32.92008
 20
55.85682809999999
 10
32.9765692
 20
56.16123299999999
 10
33.0308122
 20
56.4781339
 10
33.0824708
 20
56.8075252
 10
33.1193149
 20
57.06275810000001
 10
33.154372
 20
57.32500189999999
 10
33.18749910000001
 20
57.5942464
 10
33.2185534
 20
57.87047929999999
 10
33.247392
 20
58.15368589999999
 10
33.2487663
 20
58.167957
 10
33.0118306
 20
58.3027505
 10
32.77434850000001
 20
58.4365789
 10
32.5363238
 20
58.56944010000001
 10
32.29776060000001
 20
58.70133159999999
 10
32.0586627
 20
58.8322515
 10
31.8684271
 20
58.93551579999999
 10
31.6627927
 20
58.77713449999999
 10
31.3812735
 20
58.55510200000001
 10
31.111437
 20
58.33630720000001
 10
30.8531426
 20
58.12102410000001
 10
30.6062447
 20
57.9095233
 10
30.3705924
 20
57.7020721
 10
30.1460298
 20
57.4989343
 10
29.9323958
 20
57.3003703
 10
29.7295243
 20
57.106637
 10
29.5372444
 20
56.91798739999999
 10
29.3553803
 20
56.73467099999999
 10
29.1287843
 20
56.4989688
 10
28.9199425
 20
56.273755
 10
28.7283992
 20
56.0595878
 10
28.5536845
 20
55.8570125
 10
28.5230845
 20
55.8207494
 10
27.03577410000001
 20
56.5560725
 10
27.0983544
 20
56.8515949
 10
27.150641
 20
57.1238459
 10
27.2013597
 20
57.415298
 10
27.24036550000001
 20
57.6623002
 10
27.2776125
 20
57.92160970000001
 10
27.3127642
 20
58.19322320000001
 10
27.3454842
 20
58.4771304
 10
27.3754355
 20
58.773314
 10
27.4022817
 20
59.0817498
 10
27.42568610000001
 20
59.4024066
 10
27.4453127
 20
59.7352459
 10
27.4573514
 20
59.9928433
 10
27.4669346
 20
60.2572463
 10
27.4739212
 20
60.5284311
 10
27.4781702
 20
60.8063716
 10
27.4795408
 20
61.0910394
 10
27.4795313
 20
61.1053765
 10
27.2306923
 20
61.21667320000001
 10
26.9814025
 20
61.32695649999999
 10
26.7316661
 20
61.4362247
 10
26.4814872
 20
61.5444759
 10
26.2308699
 20
61.6517083
 10
26.031556
 20
61.73613020000001
 10
25.8421675
 20
61.5586417
 10
25.5833918
 20
61.31047510000001
 10
25.3359317
 20
61.0666588
 10
25.0996209
 20
60.82745169999999
 10
24.8742884
 20
60.59310920000001
 10
24.6597582
 20
60.3638827
 10
24.4558495
 20
60.14001979999999
 10
24.262377
 20
59.92176419999999
 10
24.0791506
 20
59.7093553
 10
23.9059757
 20
59.5030287
 10
23.7426531
 20
59.30301570000001
 10
23.5398635
 20
59.0465442
 10
23.3537329
 20
58.8022256
 10
23.183754
 20
58.5705716
 10
23.0294062
 20
58.35207959999999
 10
23.0024489
 20
58.3130325
 10
21.4511129
 20
58.9013767
 10
21.4848791
 20
59.20155929999999
 10
21.5106455
 20
59.47758570000001
 10
21.5329983
 20
59.7725723
 10
21.5479828
 20
60.02218599999999
 10
21.5600289
 20
60.28387979999999
 10
21.5688021
 20
60.5576179
 10
21.5739683
 20
60.8433577
 10
21.575194
 20
61.14104929999999
 10
21.5721465
 20
61.4506363
 10
21.5644939
 20
61.7720549
 10
21.5519052
 20
62.1052347
 10
21.5390259
 20
62.3627914
 10
21.5230458
 20
62.62688499999999
 10
21.5038267
 20
62.89747809999999
 10
21.4812307
 20
63.1745312
 10
21.4551205
 20
63.45800229999999
 10
21.4537273
 20
63.4722716
 10
21.1953083
 20
63.5590323
 10
20.9365384
 20
63.64474079999999
 10
20.677422
 20
63.7293959
 10
20.4179632
 20
63.812996
 10
20.1581665
 20
63.8955397
 10
19.9516352
 20
63.9603309
 10
19.7802609
 20
63.7653924
 10
19.5466448
 20
63.4934089
 10
19.3238716
 20
63.22684739999999
 10
19.1117508
 20
62.9659498
 10
18.9100876
 20
62.7109536
 10
18.7186824
 20
62.462092
 10
18.5373316
 20
62.21959420000001
 10
18.365827
 20
61.98368460000001
 10
18.2039563
 20
61.75458349999999
 10
18.0515032
 20
61.53250629999999
 10
17.90824719999999
 20
61.3176641
 10
17.7311573
 20
61.0428179
 10
17.5694758
 20
60.7816757
 10
17.4226482
 20
60.5346978
 10
17.2901085
 20
60.30232909999999
 10
17.2670457
 20
60.2608625
 10
15.6661684
 20
60.69673449999999
 10
15.6708052
 20
60.9987747
 10
15.669811
 20
61.27599939999999
 10
15.663589
 20
61.5717662
 10
15.6544124
 20
61.82166089999999
 10
15.6411452
 20
62.0832956
 10
15.6234579
 20
62.3566025
 10
15.6010221
 20
62.64150690000001
 10
15.5735107
 20
62.93792719999999
 10
15.540598
 20
63.2457747
 10
15.5019597
 20
63.56495429999999
 10
15.4572733
 20
63.89536360000001
 10
15.4195963
 20
64.15047489999999
 10
15.3782021
 20
64.41179340000001
 10
15.3329568
 20
64.6792684
 10
15.2837268
 20
64.9528472
 10
15.2303795
 20
65.232475
 10
15.2276157
 20
65.2465432
 10
14.9620294
 20
65.3079578
 10
14.6961955
 20
65.3682913
 10
14.4301183
 20
65.4275428
 10
14.1638023
 20
65.4857113
 10
13.8972518
 20
65.5427957
 10
13.6854313
 20
65.58735129999999
 10
13.5336714
 20
65.3767828
 10
13.3273961
 20
65.0835218
 10
13.1313898
 20
64.796704
 10
12.9454395
 20
64.51655179999999
 10
12.7693284
 20
64.2432826
 10
12.6028354
 20
63.9771096
 10
12.4457355
 20
63.7182409
 10
12.2978001
 20
63.4668801
 10
12.1587966
 20
63.2232257
 10
12.0284888
 20
62.9874714
 10
11.9066368
 20
62.759806
 10
11.7569001
 20
62.4691512
 10
11.6211772
 20
62.1936236
 10
11.4988719
 20
61.9336278
 10
11.3893778
 20
61.6895519
 10
11.3704247
 20
61.64605309999999
 10
9.734953199999999
 20
61.9253833
 10
9.710417199999998
 20
62.226461
 10
9.6826716
 20
62.5022955
 10
9.647933099999999
 20
62.7960811
 10
9.614680999999999
 20
63.0439235
 10
9.5762244
 20
63.30305629999999
 10
9.532241699999998
 20
63.5733803
 10
9.4824134
 20
63.85478929999999
 10
9.426421799999999
 20
64.1471705
 10
9.363951099999999
 20
64.45040439999999
 10
9.294687899999999
 20
64.7643648
 10
9.218321000000001
 20
65.0889188
 10
9.156198099999999
 20
65.3392028
 10
9.089776400000001
 20
65.59530620000001
 10
9.018927099999999
 20
65.85716569999999
 10
8.9435228
 20
66.12471600000001
 10
8.863436599999999
 20
66.39788960000001
 10
8.8593279
 20
66.41162539999999
 10
8.5890541
 20
66.44712049999999
 10
8.3186382
 20
66.4815157
 10
8.048084599999999
 20
66.5148105
 10
7.777397699999999
 20
66.5470041
 10
7.506582099999999
 20
66.5780963
 10
7.291450299999999
 20
66.60200019999999
 10
7.1607217
 20
66.37776770000001
 10
6.983713099999999
 20
66.0659674
 10
6.816303699999999
 20
65.7615713
 10
6.658260099999999
 20
65.4647801
 10
6.5093454
 20
65.1757895
 10
6.369318999999999
 20
64.89479010000001
 10
6.237937
 20
64.62196759999999
 10
6.114952099999999
 20
64.3575024
 10
6.0001135
 20
64.1015697
 10
5.8931675
 20
63.8543395
 10
5.793857299999999
 20
63.6159765
 10
5.6728719
 20
63.312227
 10
5.5643749
 20
63.02488639999999
 10
5.4677337
 20
62.75430019999999
 10
5.3823074
 20
62.5007961
 10
5.367641099999999
 20
62.45567099999999
 10
3.7128453
 20
62.5758515
 10
3.659365699999999
 20
62.87315559999999
 10
3.605127799999999
 20
63.1450246
 10
3.542197
 20
63.43408589999999
 10
3.48518
 20
63.677562
 10
3.421892899999999
 20
63.9317735
 10
3.352025499999999
 20
64.19659059999999
 10
3.275269999999999
 20
64.47187669999999
 10
3.191320799999999
 20
64.75748900000001
 10
3.0998755
 20
65.053278
 10
3.0006341
 20
65.35908779999999
 10
2.893299799999999
 20
65.6747563
 10
2.807310999999999
 20
65.9178761
 10
2.716481799999999
 20
66.1663733
 10
2.6206902
 20
66.4201724
 10
2.5198156
 20
66.6791961
 10
2.4137382
 20
66.943365
 10
2.408322999999999
 20
66.9566401
 10
2.1358852
 20
66.96588440000001
 10
1.863411999999999
 20
66.97402010000001
 10
1.590907999999999
 20
66.9810472
 10
1.3183777
 20
66.98696559999999
 10
1.045825499999999
 20
66.9917751
 10
0.829391
 20
66.9948042
 10
0.7209142
 20
66.7590014
 10
0.5748250000000001
 20
66.4315728
 10
0.4375755999999999
 20
66.11244039999999
 10
0.3089143
 20
65.8017813
 10
0.1885864
 20
65.4997675
 10
0.0763341
 20
65.20656549999999
 10
-0.0281034
 20
64.92233639999999
 10
-0.1249897
 20
64.6472361
 10
-0.214591
 20
64.38141469999999
 10
-0.2971766
 20
64.1250169
 10
-0.3730179
 20
63.8781817
 10
-0.4641224000000001
 20
63.5641735
 10
-0.5443806000000001
 20
63.26770289999999
 10
-0.6144553000000001
 20
62.98905260000001
 10
-0.675016
 20
62.7284871
 10
-0.6852587
 20
62.6821572
 10
-2.343928399999999
 20
62.6420659
 10
-2.425852299999999
 20
62.9328205
 10
-2.5060762
 20
63.1981855
 10
-2.5966116
 20
63.47982370000001
 10
-2.676861299999999
 20
63.7166603
 10
-2.7643879
 20
63.9635769
 10
-2.859487599999999
 20
64.22041460000001
 10
-2.962453799999999
 20
64.4870076
 10
-3.073576599999999
 20
64.7631843
 10
-3.193142799999999
 20
65.0487667
 10
-3.3214358
 20
65.3435707
 10
-3.4587355
 20
65.64740620000001
 10
-3.5677872
 20
65.88109200000001
 10
-3.682175899999999
 20
66.1196628
 10
-3.8020154
 20
66.36303189999999
 10
-3.927418499999999
 20
66.61111049999999
 10
-4.058496599999999
 20
66.8638083
 10
-4.0651678
 20
66.87649880000001
 10
-4.337226
 20
66.85940579999999
 10
-4.6092124
 20
66.84120609999999
 10
-4.8811224
 20
66.8219
 10
-5.1529517
 20
66.80148769999999
 10
-5.424695599999999
 20
66.77996970000001
 10
-5.6404122
 20
66.76209570000001
 10
-5.725624299999999
 20
66.5169242
 10
-5.83943
 20
66.1769246
 10
-5.945237999999999
 20
65.8460355
 10
-6.043315699999999
 20
65.5244091
 10
-6.1339334
 20
65.2121919
 10
-6.217363599999999
 20
64.90952469999999
 10
-6.2938815
 20
64.6165429
 10
-6.363764399999999
 20
64.333376
 10
-6.427291999999999
 20
64.0601477
 10
-6.484746099999999
 20
63.79697619999999
 10
-6.536410299999999
 20
63.5439736
 10
-6.5967833
 20
63.22263839999999
 10
-6.648053299999999
 20
62.9198058
 10
-6.690907199999999
 20
62.63569320000001
 10
-6.726036999999999
 20
62.37049920000001
 10
-6.7317605
 20
62.323397
 10
-8.378817399999999
 20
62.1234081
 10
-8.488420800000001
 20
62.4048985
 10
-8.593881599999999
 20
62.6612821
 10
-8.711176299999999
 20
62.93286759999999
 10
-8.813909499999999
 20
63.1608532
 10
-8.924858300000002
 20
63.39816970000001
 10
-9.044302499999998
 20
63.64462979999999
 10
-9.1725179
 20
63.90004069999999
 10
-9.309776800000001
 20
64.1642032
 10
-9.456347500000001
 20
64.4369125
 10
-9.612494300000001
 20
64.71795829999999
 10
-9.778477399999999
 20
65.00712400000001
 10
-9.909574
 20
65.22919379999999
 10
-10.0464541
 20
65.4556108
 10
-10.1892226
 20
65.68627760000001
 10
-10.3379834
 20
65.92109499999999
 10
-10.4928384
 20
66.15996219999999
 10
-10.5007033
 20
66.1719496
 10
-10.7698416
 20
66.12867900000001
 10
-11.0388018
 20
66.08431379999998
 10
-11.3075791
 20
66.0388547
 10
-11.5761693
 20
65.9923024
 10
-11.8445679
 20
65.9446578
 10
-12.0575523
 20
65.90604760000001
 10
-12.1187042
 20
65.6537965
 10
-12.1991639
 20
65.3044003
 10
-12.2725425
 20
64.9648439
 10
-12.339121
 20
64.6352531
 10
-12.3991823
 20
64.31574760000001
 10
-12.4530114
 20
64.00644119999999
 10
-12.5008952
 20
63.70744209999999
 10
-12.5431224
 20
63.41885239999999
 10
-12.5799831
 20
63.1407684
 10
-12.6117692
 20
62.8732803
 10
-12.638774
 20
62.6164726
 10
-12.6678519
 20
62.2908106
 10
-12.6896549
 20
61.9844435
 10
-12.7048879
 20
61.6975213
 10
-12.7142589
 20
61.4301747
 10
-12.7154096
 20
61.3827401
 10
-14.3354758
 20
61.0247208
 10
-14.47173519999999
 20
61.2943189
 10
-14.6014483
 20
61.53932710000001
 10
-14.7444072
 20
61.79832420000001
 10
-14.8686645
 20
62.0153303
 10
-15.0019998
 20
62.24083079999999
 10
-15.1446732
 20
62.47461239999999
 10
-15.2969407
 20
62.7164563
 10
-15.4590542
 20
62.9661381
 10
-15.6312609
 20
63.2234283
 10
-15.8138036
 20
63.4880917
 10
-16.0069203
 20
63.7598878
 10
-16.1588377
 20
63.9682683
 10
-16.3169312
 20
64.1804175
 10
-16.4812958
 20
64.3962282
 10
-16.6520252
 20
64.6155919
 10
-16.8292114
 20
64.83839829999999
 10
-16.8381965
 20
64.8495707
 10
-17.1019022
 20
64.78052650000001
 10
-17.3653248
 20
64.7104101
 10
-17.62846
 20
64.63922239999999
 10
-17.89130339999999
 20
64.56696479999999
 10
-18.1538506
 20
64.49363829999999
 10
-18.3621143
 20
64.4346524
 10
-18.3986349
 20
64.17767689999999
 10
-18.4449975
 20
63.82214629999999
 10
-18.4852616
 20
63.47709309999999
 10
-18.5197192
 20
63.1426152
 10
-18.5486633
 20
62.8188045
 10
-18.5723888
 20
62.50574679999999
 10
-18.5911915
 20
62.2035221
 10
-18.6053686
 20
61.91220409999999
 10
-18.6152183
 20
61.6318607
 10
-18.6210397
 20
61.36255359999999
 10
-18.6231328
 20
61.10433839999999
 10
-18.6206441
 20
60.7773903
 10
-18.6127766
 20
60.4703491
 10
-18.6002466
 20
60.1832961
 10
-18.5837711
 20
59.91629320000001
 10
-18.5803383
 20
59.86896899999999
 10
-20.1582876
 20
59.35626219999999
 10
-20.3199309
 20
59.6114507
 10
-20.4726851
 20
59.84279599999999
 10
-20.6399735
 20
60.0867865
 10
-20.7845948
 20
60.290787
 10
-20.9390716
 20
60.50236609999999
 10
-21.1036421
 20
60.7212863
 10
-21.2785401
 20
60.9473052
 10
-21.4639946
 20
61.1801753
 10
-21.6602294
 20
61.41964399999999
 10
-21.8674636
 20
61.66545389999999
 10
-22.0859109
 20
61.91734270000001
 10
-22.2572308
 20
62.11008829999999
 10
-22.4350615
 20
62.30598879999999
 10
-22.61948760000001
 20
62.5049286
 10
-22.8105916
 20
62.7067905
 10
-23.0084545
 20
62.9114558
 10
-23.0184759
 20
62.9217088
 10
-23.2742869
 20
62.8275357
 10
-23.5297126
 20
62.7323226
 10
-23.7847487
 20
62.6360711
 10
-24.0393912
 20
62.53878270000001
 10
-24.2936357
 20
62.44045920000001
 10
-24.4952342
 20
62.36164829999999
 10
-24.5067826
 20
62.10234770000001
 10
-24.5186151
 20
61.74400219999999
 10
-24.5253888
 20
61.3966738
 10
-24.5274037
 20
61.0604317
 10
-24.52496050000001
 20
60.7353391
 10
-24.5183608
 20
60.42145309999999
 10
-24.5079068
 20
60.1188245
 10
-24.4939015
 20
59.8274983
 10
-24.4766482
 20
59.547513
 10
-24.4564505
 20
59.2789012
 10
-24.4336125
 20
59.0216894
 10
-24.3995804
 20
58.6965079
 10
-24.3621159
 20
58.3916594
 10
-24.3219397
 20
58.1071558
 10
-24.2797717
 20
57.8429895
 10
-24.2717874
 20
57.7962174
 10
-25.7928869
 20
57.1336101
 10
-25.9784049
 20
57.3720065
 10
-26.152774
 20
57.5875289
 10
-26.3428299
 20
57.8142346
 10
-26.50646500000001
 20
58.00332489999999
 10
-26.6806409
 20
58.19900699999999
 10
-26.865572
 20
58.4010219
 10
-27.0614675
 20
58.6091056
 10
-27.2685314
 20
58.8229896
 10
-27.4869622
 20
59.04240099999999
 10
-27.71695300000001
 20
59.26706239999999
 10
-27.9586914
 20
59.49669209999999
 10
-28.147814
 20
59.67200309999999
 10
-28.3437217
 20
59.849826
 10
-28.5464873
 20
60.0300373
 10
-28.7561817
 20
60.2125126
 10
-28.9728739
 20
60.397126
 10
-28.9838381
 20
60.40636389999999
 10
-29.2293658
 20
60.2879412
 10
-29.4744097
 20
60.1685204
 10
-29.7189656
 20
60.0481037
 10
-29.9630297
 20
59.92669300000001
 10
-30.2065977
 20
59.80429029999999
 10
-30.3996487
 20
59.7063902
 10
-30.3861171
 20
59.4471856
 10
-30.363309
 20
59.08937099999999
 10
-30.33652910000001
 20
58.7430102
 10
-30.3060825
 20
58.4081434
 10
-30.2722748
 20
58.08480429999999
 10
-30.2354115
 20
57.77302049999999
 10
-30.1957985
 20
57.47281369999999
 10
-30.1537415
 20
57.18419920000001
 10
-30.1095462
 20
56.90718610000001
 10
-30.0635181
 20
56.6417777
 10
-30.0159622
 20
56.3879709
 10
-29.9507043
 20
56.067592
 10
-29.8839926
 20
55.7677825
 10
-29.8165455
 20
55.4884846
 10
-29.7490785
 20
55.22962129999999
 10
-29.7366174
 20
55.1838382
 10
-31.186665
 20
54.37751689999999
 10
-31.3943255
 20
54.5968953
 10
-31.5886815
 20
54.7945825
 10
-31.7997304
 20
55.00188689999999
 10
-31.9808515
 20
55.17430129999999
 10
-32.1731003
 20
55.3522595
 10
-32.3766653
 20
55.53548290000001
 10
-32.5917293
 20
55.7236885
 10
-32.8184693
 20
55.9165895
 10
-33.0570567
 20
56.11389499999999
 10
-33.3076567
 20
56.3153103
 10
-33.570429
 20
56.52053689999999
 10
-33.77558870000001
 20
56.6767765
 10
-33.9877443
 20
56.83486139999999
 10
-34.2069561
 20
56.9946618
 10
-34.43328300000001
 20
57.1560468
 10
-34.6667814
 20
57.31888449999999
 10
-34.678586
 20
57.3270211
 10
-34.9115381
 20
57.18545429999999
 10
-35.1439122
 20
57.0429409
 10
-35.37570460000001
 20
56.89948329999999
 10
-35.6069114
 20
56.7550838
 10
-35.8375288
 20
56.6097448
 10
-36.0202298
 20
56.4936697
 10
-35.9817446
 20
56.2369811
 10
-35.9245088
 20
55.8830382
 10
-35.86442529999999
 20
55.540879
 10
-35.8018016
 20
55.21051400000001
 10
-35.7369449
 20
54.8919473
 10
-35.6701623
 20
54.5851769
 10
-35.60176
 20
54.2901947
 10
-35.5320441
 20
54.0069866
 10
-35.4613195
 20
53.7355322
 10
-35.3898906
 20
53.47580520000001
 10
-35.3180608
 20
53.227773
 10
-35.2221866
 20
52.9151881
 10
-35.1268506
 20
52.62321679999999
 10
-35.03276210000001
 20
52.35173239999999
 10
-34.9406263
 20
52.1005891
 10
-34.92380460000001
 20
52.0562224
 10
-36.28926170000001
 20
51.1137154
 10
-36.5171257
 20
51.3120276
 10
-36.729654
 20
51.4900339
 10
-36.9597254
 20
51.6760013
 10
-37.1566413
 20
51.8301301
 10
-37.36516810000001
 20
51.9887029
 10
-37.5854664
 20
52.15142410000001
 10
-37.8176909
 20
52.31799439999999
 10
-38.06199
 20
52.48811129999999
 10
-38.3185063
 20
52.6614687
 10
-38.5873758
 20
52.8377573
 10
-38.8687286
 20
53.0166646
 10
-39.08800989999999
 20
53.1523741
 10
-39.3144324
 20
53.28924499999999
 10
-39.54804390000001
 20
53.4271424
 10
-39.78889
 20
53.56593029999999
 10
-40.0370145
 20
53.705472
 10
-40.04954929999999
 20
53.71243129999999
 10
-40.26775070000001
 20
53.54904229999999
 10
-40.48528549999999
 20
53.3847669
 10
-40.7021501
 20
53.2196078
 10
-40.91834099999999
 20
53.0535677
 10
-41.1338546
 20
52.8866494
 10
-41.30449979999999
 20
52.753483
 10
-41.2414202
 20
52.50170709999999
 10
-41.15029119999999
 20
52.15494060000001
 10
-41.0574651
 20
51.8201776
 10
-40.9632489
 20
51.4973989
 10
-40.8679489
 20
51.1865789
 10
-40.7718704
 20
50.8876861
 10
-40.6753176
 20
50.6006828
 10
-40.5785935
 20
50.3255254
 10
-40.482
 20
50.06216420000001
 10
-40.3858373
 20
49.8105435
 10
-40.29040429999999
 20
49.5706018
 10
-40.16480889999999
 20
49.2687293
 10
-40.0417386
 20
48.9873223
 10
-39.9218874
 20
48.7261861
 10
-39.8059428
 20
48.48510759999999
 10
-39.7849177
 20
48.4425716
 10
-41.0530352
 20
47.37267899999999
 10
-41.29897539999999
 20
47.54807329999999
 10
-41.5276916
 20
47.7047367
 10
-41.7746374
 20
47.86763079999999
 10
-41.9855096
 20
48.002035
 10
-42.2083674
 20
48.13974179999999
 10
-42.4433421
 20
48.2804414
 10
-42.69055879999999
 20
48.4238213
 10
-42.9501362
 20
48.5695657
 10
-43.2221863
 20
48.7173564
 10
-43.506815
 20
48.8668724
 10
-43.80412139999999
 20
49.0177901
 10
-44.03547679999999
 20
49.1317023
 10
-44.2740522
 20
49.24608129999999
 10
-44.51988209999999
 20
49.3607882
 10
-44.7729989
 20
49.47568320000001
 10
-45.03343270000001
 20
49.590626
 10
-45.0465807
 20
49.596343
 10
-45.24799409999999
 20
49.4126573
 10
-45.44865849999999
 20
49.2281537
 10
-45.6485706
 20
49.0428351
 10
-45.8477271
 20
48.8567047
 10
-46.04612460000001
 20
48.66976560000001
 10
-46.2031208
 20
48.5207513
 10
-46.11603579999999
 20
48.27623879999999
 10
-45.9918645
 20
47.9398863
 10
-45.8671624
 20
47.6156452
 10
-45.74223339999999
 20
47.3034665
 10
-45.61737979999999
 20
47.0032953
 10
-45.4929025
 20
46.7150707
 10
-45.36910059999999
 20
46.43872589999999
 10
-45.2462716
 20
46.1741883
 10
-45.12471099999999
 20
45.9213791
 10
-45.00471229999999
 20
45.68021419999999
 10
-44.88656709999999
 20
45.4506033
 10
-44.7324231
 20
45.1622617
 10
-44.5827677
 20
44.8940464
 10
-44.43827269999999
 20
44.6456966
 10
-44.2996019
 20
44.41693379999999
 10
-44.2745697
 20
44.37662559999999
 10
-45.4335077
 20
43.1893366
 10
-45.69522769999999
 20
43.3401755
 10
-45.93799639999999
 20
43.4740332
  0
LWPOLYLINE
  5
461
330
70
100
AcDbEntity
  8
0
 62
    13
100
AcDbPolyline
 90
     1002
 70
     0
 43
0.0
 10
-45.93799639999999
 20
43.4740332
 10
-46.19951089999999
 20
43.6123332
 10
-46.4223705
 20
43.7257578
 10
-46.6574786
 20
43.8413128
 10
-46.9049358
 20
43.95867729999999
 10
-47.1648366
 20
44.07752799999999
 10
-47.4372685
 20
44.1975392
 10
-47.72231249999999
 20
44.3183833
 10
-48.0200428
 20
44.43973070000001
 10
-48.3305268
 20
44.5612496
 10
-48.5717963
 20
44.652301
 10
-48.8202972
 20
44.7431203
 10
-49.0760503
 20
44.8335657
 10
-49.3390744
 20
44.923495
 10
-49.609386
 20
45.0127657
 10
-49.6230243
 20
45.0171871
 10
-49.80576929999999
 20
44.8149197
 10
-49.9876897
 20
44.6119104
 10
-50.16878270000001
 20
44.4081627
 10
-50.3490453
 20
44.20367989999999
 10
-50.5284744
 20
43.9984654
 10
-50.6703557
 20
43.83499429999999
 10
-50.5600784
 20
43.6000282
 10
-50.404024
 20
43.2772302
 10
-50.2486103
 20
42.96653829999999
 10
-50.0941349
 20
42.66787429999999
 10
-49.9408935
 20
42.3811546
 10
-49.78917970000001
 20
42.1062893
 10
-49.6392846
 20
41.8431832
 10
-49.4914975
 20
41.5917352
 10
-49.3461047
 20
41.3518386
 10
-49.2033905
 20
41.123381
 10
-49.0636362
 20
40.90624459999999
 10
-48.88238279999999
 20
40.6341262
 10
-48.7075395
 20
40.38160689999999
 10
-48.5397498
 20
40.14836229999999
 10
-48.3796477
 20
39.9340511
 10
-48.35084189999999
 20
39.896347
 10
-49.3897797
 20
38.6027471
 10
-49.664836
 20
38.72762210000001
 10
-49.9193904
 20
38.83742440000001
 10
-50.193032
 20
38.9498389
 10
-50.4257983
 20
39.041225
 10
-50.6709614
 20
39.1335494
 10
-50.9285908
 20
39.2264829
 10
-51.1987489
 20
39.31969470000001
 10
-51.48149179999999
 20
39.41285220000001
 10
-51.7768682
 20
39.5056214
 10
-52.0849203
 20
39.59766720000001
 10
-52.40568320000001
 20
39.6886528
 10
-52.6546141
 20
39.7559933
 10
-52.91072020000001
 20
39.8224047
 10
-53.1740086
 20
39.88774420000001
 10
-53.4444842
 20
39.9518682
 10
-53.7221498
 20
40.01463329999999
 10
-53.7361512
 20
40.01771779999999
 10
-53.8985213
 20
39.79875720000001
 10
-54.0599993
 20
39.5791378
 10
-54.22058240000001
 20
39.3588633
 10
-54.38026800000001
 20
39.13793720000001
 10
-54.5390534
 20
38.9163633
 10
-54.66449520000001
 20
38.7399618
 10
-54.5320551
 20
38.516736
 10
-54.3455748
 20
38.2105063
 10
-54.16090050000001
 20
37.9162644
 10
-53.9783211
 20
37.6339037
 10
-53.7981226
 20
37.3633124
 10
-53.62058860000001
 20
37.10437279999999
 10
-53.44599999999999
 20
36.85696200000001
 10
-53.27463449999999
 20
36.62095129999999
 10
-53.1067672
 20
36.3962071
 10
-52.94266979999999
 20
36.1825899
 10
-52.7826113
 20
35.9799554
 10
-52.57594079999999
 20
35.7266008
 10
-52.37754210000001
 20
35.4921352
 10
-52.18802440000001
 20
35.2761735
 10
-52.0079856
 20
35.0783149
 10
-51.97567539999999
 20
35.0435669
 10
-52.8849126
 20
33.6557341
 10
-53.170737
 20
33.7534794
 10
-53.43470060000001
 20
33.838201
 10
-53.7179142
 20
33.92368060000001
 10
-53.9584139
 20
33.99217479999999
 10
-54.2113431
 20
34.0604065
 10
-54.47673919999999
 20
34.1280414
 10
-54.7546324
 20
34.1947439
 10
-55.04504629999999
 20
34.26017789999999
 10
-55.3479973
 20
34.32400620000001
 10
-55.663495
 20
34.3858909
 10
-55.99154179999999
 20
34.4454937
 10
-56.24580989999999
 20
34.4884945
 10
-56.50713
 20
34.5298782
 10
-56.7754955
 20
34.5695015
 10
-57.0508973
 20
34.6072215
 10
-57.3333243
 20
34.642895
 10
-57.34755799999999
 20
34.64461379999999
 10
-57.4880375
 20
34.4110044
 10
-57.62756529999999
 20
34.1768254
 10
-57.76613919999999
 20
33.94208070000001
 10
-57.9037568
 20
33.70677410000001
 10
-58.040416
 20
33.4709096
 10
-58.14824699999999
 20
33.2832248
 10
-57.99488079999999
 20
33.0738233
 10
-57.7797156
 20
32.7870212
 10
-57.567505
 20
32.5119765
 10
-57.3585262
 20
32.2485555
 10
-57.15305309999999
 20
31.9966191
 10
-56.9513567
 20
31.7560228
 10
-56.7537044
 20
31.5266172
 10
-56.56036070000001
 20
31.3082475
 10
-56.371586
 20
31.1007539
 10
-56.1876377
 20
30.9039717
 10
-56.0087693
 20
30.7177311
 10
-55.77861139999999
 20
30.48550580000001
 10
-55.55850970000001
 20
30.271283
 10
-55.3490335
 20
30.0746205
 10
-55.1507391
 20
29.8950618
 10
-55.115226
 20
29.8635945
 10
-55.88627339999999
 20
28.3944865
 10
-56.1801973
 20
28.4641895
 10
-56.45110540000001
 20
28.5230394
 10
-56.7412468
 20
28.5807859
 10
-56.98723440000001
 20
28.6257488
 10
-57.2455682
 20
28.66925080000001
 10
-57.51625289999999
 20
28.7109555
 10
-57.7992866
 20
28.7505261
 10
-58.09466
 20
28.7876257
 10
-58.40235709999999
 20
28.821917
 10
-58.72235459999999
 20
28.8530628
 10
-59.0546225
 20
28.8807263
 10
-59.31185379999999
 20
28.898986
 10
-59.57594799999999
 20
28.9149554
 10
-59.84688479999999
 20
28.9284928
 10
-60.1246415
 20
28.9394566
 10
-60.409193
 20
28.9477054
 10
-60.42352619999999
 20
28.9480424
 10
-60.54080329999999
 20
28.7019654
 10
-60.6570782
 20
28.4554132
 10
-60.772349
 20
28.2083901
 10
-60.88661389999999
 20
27.9609
 10
-60.9998708
 20
27.712947
 10
-61.08908420000001
 20
27.5157312
 10
-60.91622389999999
 20
27.3221093
 10
-60.6743827
 20
27.0574125
 10
-60.4366172
 20
26.8041331
 10
-60.20319010000001
 20
26.5621112
 10
-59.97436089999999
 20
26.3311819
 10
-59.7503852
 20
26.1111754
 10
-59.53151489999999
 20
25.9019169
 10
-59.317998
 20
25.703227
 10
-59.11007859999999
 20
25.5149215
 10
-58.9079968
 20
25.3368115
 10
-58.7119886
 20
25.1687036
 10
-58.46049220000001
 20
24.9597758
 10
-58.2207425
 20
24.767796
 10
-57.9932635
 20
24.592269
 10
-57.7785649
 20
24.4326867
 10
-57.74018059999999
 20
24.4047938
 10
-58.36583910000001
 20
22.8681273
 10
-58.6651181
 20
22.9091372
 10
-58.9404413
 20
22.9415659
 10
-59.2348017
 20
22.9710401
 10
-59.48398050000001
 20
22.9920519
 10
-59.7453067
 20
23.010418
 10
-60.0187529
 20
23.0258032
 10
-60.30428440000001
 20
23.0378724
 10
-60.6018595
 20
23.0462911
 10
-60.91142969999999
 20
23.0507253
 10
-61.0706959
 20
23.0513439
 10
-61.39815229999999
 20
23.0491765
 10
-61.6515206
 20
23.0444083
 10
-61.9115202
 20
23.0367912
 10
-62.17811870000001
 20
23.0261857
 10
-62.4512813
 20
23.0124529
 10
-62.7309708
 20
22.9954541
 10
-62.93533620000001
 20
22.9811909
 10
-63.0283159
 20
22.7249438
 10
-63.12025229999999
 20
22.4683205
 10
-63.2111438
 20
22.2113253
 10
-63.300989
 20
21.9539624
 10
-63.3897863
 20
21.6962362
 10
-63.45954920000001
 20
21.4913307
 10
-63.2688086
 20
21.3152961
 10
-63.0025495
 20
21.075176
 10
-62.74144899999999
 20
20.8460267
 10
-62.4857532
 20
20.6276636
 10
-62.23570429999999
 20
20.4198976
 10
-61.9915405
 20
20.2225349
 10
-61.7534956
 20
20.0353773
 10
-61.5217991
 20
19.8582224
 10
-61.2966762
 20
19.690863
 10
-61.07834780000001
 20
19.5330882
 10
-60.8670299
 20
19.3846827
 10
-60.59654309999999
 20
19.2010032
 10
-60.3393839
 20
19.0330587
 10
-60.0960261
 20
18.880306
 10
-59.8669279
 20
18.7421902
 10
-59.8260307
 20
18.718132
 10
-60.3004586
 20
17.1282546
 10
-60.6022986
 20
17.1401884
 10
-60.8794663
 20
17.1458932
 10
-61.0547305
 20
17.1470643
 10
-61.361718
 20
17.1448122
 10
-61.62064329999999
 20
17.1388534
 10
-61.89136
 20
17.1288406
 10
-62.1738027
 20
17.1144433
 10
-62.4678997
 20
17.0953323
 10
-62.77357199999999
 20
17.0711794
 10
-63.0907338
 20
17.041658
 10
-63.4192925
 20
17.0064427
 10
-63.6731312
 20
16.9760998
 10
-63.9332804
 20
16.9422359
 10
-64.1996934
 20
16.9047157
 10
-64.4723214
 20
16.8634043
 10
-64.75111360000001
 20
16.8181676
 10
-64.8595359
 20
16.7997703
 10
-64.9273501
 20
16.5357456
 10
-64.99408960000001
 20
16.27144719999999
 10
-65.05975320000001
 20
16.0068794
 10
-65.12433989999999
 20
15.7420467
 10
-65.1878485
 20
15.4769534
 10
-65.23750940000001
 20
15.2662714
 10
-65.0306695
 20
15.1094677
 10
-64.74247850000001
 20
14.8961663
 10
-64.4604807
 20
14.6932866
 10
-64.1849035
 20
14.5006211
 10
-63.91596970000001
 20
14.3179582
 10
-63.6538975
 20
14.1450821
 10
-63.39890050000001
 20
13.9817729
 10
-63.1511878
 20
13.8278069
 10
-62.91096339999999
 20
13.6829563
 10
-62.6784267
 20
13.5469898
 10
-62.4537721
 20
13.4196722
 10
-62.16682040000001
 20
13.2629559
 10
-61.8946528
 20
13.1206149
 10
-61.6376882
 20
12.9920628
 10
-61.3963294
 20
12.8767028
 10
-61.35330119999999
 20
12.8567042
 10
-61.6720691
 20
11.2284599
 10
-61.9736517
 20
11.2112063
 10
-62.25007610000001
 20
11.1901339
 10
-62.5446153
 20
11.1625046
 10
-62.79318889999999
 20
11.135251
 10
-63.05317529999999
 20
11.1030672
 10
-63.3244831
 20
11.0656294
 10
-63.60701399999999
 20
11.0226155
 10
-63.9006628
 20
10.9737053
 10
-64.20531770000001
 20
10.9185801
 10
-64.52086
 20
10.8569236
 10
-64.84716460000001
 20
10.7884214
 10
-65.09887660000001
 20
10.7323645
 10
-65.3565102
 20
10.6721505
 10
-65.6200053
 20
10.6076495
 10
-65.88929949999999
 20
10.5387322
 10
-66.16432849999999
 20
10.4652703
 10
-66.1781596
 20
10.4614947
 10
-66.22017519999999
 20
10.1921575
 10
-66.26109459999999
 20
9.922651699999999
 10
-66.3009172
 20
9.652981599999998
 10
-66.3396423
 20
9.383151699999999
 10
-66.37726929999999
 20
9.1131664
 10
-66.4063646
 20
8.898675099999998
 10
-66.1853565
 20
8.762566299999999
 10
-65.8779244
 20
8.578075099999999
 10
-65.57766239999999
 20
8.403359299999999
 10
-65.28477679999999
 20
8.2381902
 10
-64.9994689
 20
8.0823359
 10
-64.72193520000001
 20
7.9355604
 10
-64.45236700000001
 20
7.797624400000001
 10
-64.19095079999999
 20
7.6682849
 10
-63.93786779999999
 20
7.547295599999999
 10
-63.69329399999999
 20
7.434406799999999
 10
-63.4574002
 20
7.329365799999999
 10
-63.1566628
 20
7.201075999999999
 10
-62.8720279
 20
7.0856675
 10
-62.6038559
 20
6.982516099999998
 10
-62.35249
 20
6.8909892
 10
-62.3077326
 20
6.875236699999999
 10
-62.467864
 20
5.223828199999999
 10
-62.7663735
 20
5.1775481
 10
-63.03947370000001
 20
5.1298954
 10
-63.32997129999999
 20
5.0739679
 10
-63.57475400000001
 20
5.0228507
 10
-63.83042060000001
 20
4.9657248
 10
-64.0968486
 20
4.902276799999999
 10
-64.373909
 20
4.832195599999999
 10
-64.6614665
 20
4.755172499999999
 10
-64.95937879999999
 20
4.6709012
 10
-65.2674973
 20
4.579078299999999
 10
-65.5856672
 20
4.479402999999999
 10
-65.8307939
 20
4.399314099999999
 10
-66.08141329999999
 20
4.314516
 10
-66.337453
 20
4.224885099999999
 10
-66.59883849999999
 20
4.1302989
 10
-66.86549349999999
 20
4.030635799999999
 10
-66.87889560000001
 20
4.025542999999999
 10
-66.89472030000001
 20
3.753408099999999
 10
-66.9094376
 20
3.4812111
 10
-66.92304739999999
 20
3.208956399999999
 10
-66.9355494
 20
2.9366487
 10
-66.9469433
 20
2.6642923
 10
-66.95520139999999
 20
2.4479942
 10
-66.7220887
 20
2.3338512
 10
-66.39828579999999
 20
2.1798928
 10
-66.082563
 20
2.034972
 10
-65.77510359999999
 20
1.8988416
 10
-65.47608549999999
 20
1.771250999999999
 10
-65.1856816
 20
1.6519466
 10
-64.90405909999999
 20
1.5406716
 10
-64.63138020000001
 20
1.4371662
 10
-64.3678015
 20
1.341167699999999
 10
-64.11347420000002
 20
1.252410699999999
 10
-63.8685437
 20
1.170627199999999
 10
-63.55682859999999
 20
1.0719616
 10
-63.2623839
 20
0.9845629999999999
 10
-62.98550829999999
 20
0.9077755999999999
 10
-62.7264822
 20
0.8409361999999999
 10
-62.68041339999999
 20
0.829577
 10
-62.68041339999999
 20
-0.8295771
 10
-62.9730626
 20
-0.9044514000000001
 10
-63.2402887
 20
-0.9782396
 10
-63.52403240000001
 20
-1.0619431
 10
-63.7627389
 20
-1.136446599999999
 10
-64.0116984
 20
-1.2179811
 10
-64.270759
 20
-1.306846999999999
 10
-64.53976230000001
 20
-1.4033412
 10
-64.8185435
 20
-1.5077581
 10
-65.10693159999999
 20
-1.6203886
 10
-65.4047496
 20
-1.7415206
 10
-65.71181410000001
 20
-1.871438399999999
 10
-65.9480667
 20
-1.9748116
 10
-66.18933199999999
 20
-2.0834021
 10
-66.4355257
 20
-2.197325899999999
 10
-66.68656219999999
 20
-2.316697899999999
 10
-66.94235350000001
 20
-2.4416316
 10
-66.95520139999999
 20
-2.4479942
 10
-66.94468739999999
 20
-2.7203859
 10
-66.9330653
 20
-2.992732699999999
 10
-66.9203351
 20
-3.265029799999999
 10
-66.9064973
 20
-3.537273
 10
-66.8915519
 20
-3.809457499999999
 10
-66.87889560000001
 20
-4.025542999999999
 10
-66.63585479999999
 20
-4.1166545
 10
-66.29870440000001
 20
-4.2386427
 10
-65.9704686
 20
-4.352415299999999
 10
-65.651306
 20
-4.458236099999999
 10
-65.34136959999999
 20
-4.556371599999999
 10
-65.0408068
 20
-4.647091
 10
-64.7497595
 20
-4.730666099999999
 10
-64.4683639
 20
-4.807370999999999
 10
-64.19675050000001
 20
-4.877482299999999
 10
-63.9350441
 20
-4.9412787
 10
-63.68336379999999
 20
-4.9990413
 10
-63.3635813
 20
-5.0671615
 10
-63.062076
 20
-5.125733999999999
 10
-62.7790819
 20
-5.175440599999999
 10
-62.51481410000001
 20
-5.216968299999999
 10
-62.467864
 20
-5.223828199999999
 10
-62.3077326
 20
-6.875236699999999
 10
-62.5917892
 20
-6.9780062
 10
-62.8506462
 20
-7.077241099999999
 10
-63.1249867
 20
-7.187939
 10
-63.3553882
 20
-7.285133199999999
 10
-63.59531629999999
 20
-7.390315199999999
 10
-63.8445907
 20
-7.503769099999999
 10
-64.10302510000001
 20
-7.6257754
 10
-64.37042719999999
 20
-7.756611099999998
 10
-64.64659860000001
 20
-7.8965493
 10
-64.93133539999999
 20
-8.0458593
 10
-65.2244275
 20
-8.204806599999999
 10
-65.4496003
 20
-8.3304989
 10
-65.6792587
 20
-8.461867899999999
 10
-65.9133079
 20
-8.599021099999999
 10
-66.1516513
 20
-8.7420643
 10
-66.39419069999999
 20
-8.891102199999998
 10
-66.4063646
 20
-8.898675099999998
 10
-66.3696101
 20
-9.168780499999998
 10
-66.3317569
 20
-9.438734099999999
 10
-66.2928057
 20
-9.7085314
 10
-66.25275720000001
 20
-9.978168099999999
 10
-66.211612
 20
-10.2476395
 10
-66.1781596
 20
-10.4614947
 10
-65.9274598
 20
-10.5287241
 10
-65.5801098
 20
-10.6176031
 10
-65.2424257
 20
-10.6991652
 10
-64.9145399
 20
-10.7736883
 10
-64.596579
 20
-10.8414525
 10
-64.2886636
 20
-10.90274
 10
-63.9909089
 20
-10.9578347
 10
-63.7034238
 20
-11.007023
 10
-63.4263117
 20
-11.0505925
 10
-63.15966979999999
 20
-11.0888328
 10
-62.9035896
 20
-11.1220351
 10
-62.5787253
 20
-11.1589738
 10
-62.2729745
 20
-11.1881734
 10
-61.98650409999999
 20
-11.2103351
 10
-61.7194621
 20
-11.2261634
 10
-61.6720691
 20
-11.22846
 10
-61.35330119999999
 20
-12.8567042
 10
-61.6261131
 20
-12.9864093
 10
-61.87418420000001
 20
-13.1101642
 10
-62.13656
 20
-13.2468231
 10
-62.3565054
 20
-13.3658004
 10
-62.58516189999999
 20
-13.4936478
 10
-62.82232270000001
 20
-13.6306305
 10
-63.0677753
 20
-13.7770098
 10
-63.32130160000001
 20
-13.9330427
 10
-63.58267779999999
 20
-14.098982
 10
-63.8516748
 20
-14.2750761
 10
-64.128058
 20
-14.4615688
 10
-64.34004849999999
 20
-14.6084066
 10
-64.55595579999999
 20
-14.7613276
 10
-64.7756753
 20
-14.9204295
 10
-64.99910039999999
 20
-15.0858084
 10
-65.2261232
 20
-15.2575589
 10
-65.23750940000001
 20
-15.2662714
 10
-65.1748575
 20
-15.5315685
 10
-65.1111268
 20
-15.7966085
 10
-65.0463183
 20
-16.06138709999999
 10
-64.98043299999999
 20
-16.3258997
 10
-64.9134721
 20
-16.5901421
 10
-64.8595359
 20
-16.7997703
 10
-64.6035179
 20
-16.8424898
 10
-64.24921139999999
 20
-16.8974297
 10
-63.9052319
 20
-16.9460199
 10
-63.5716842
 20
-16.9885496
 10
-63.2486674
 20
-17.0253098
 10
-62.93627449999999
 20
-17.056593
 10
-62.63459229999999
 20
-17.0826931
 10
-62.343702
 20
-17.1039054
 10
-62.0636785
 20
-17.1205263
 10
-61.7945906
 20
-17.1328535
 10
-61.53650139999999
 20
-17.1411855
 10
-61.20958869999999
 20
-17.1465977
 10
-60.90244699999999
 20
-17.1461518
 10
-60.6151751
 20
-17.1405617
 10
-60.347852
 20
-17.1305429
 10
-60.3004586
 20
-17.1282546
 10
-59.8260307
 20
-18.7181321
 10
-60.0850507
 20
-18.8735619
 10
-60.32001949999999
 20
-19.0206813
 10
-60.567981
 20
-19.1820251
 10
-60.7754166
 20
-19.3216748
 10
-60.9906666
 20
-19.4709939
 10
-61.21349949999999
 20
-19.6302264
 10
-61.44367869999999
 20
-19.799612
 10
-61.680962
 20
-19.9793853
 10
-61.92510260000001
 20
-20.1697763
 10
-62.17584829999999
 20
-20.3710103
 10
-62.4329421
 20
-20.5833073
 10
-62.629771
 20
-20.7499196
 10
-62.8299115
 20
-20.9229648
 10
-63.03324960000001
 20
-21.1025299
 10
-63.2396703
 20
-21.2887003
 10
-63.44905699999999
 20
-21.48156
 10
-63.45954920000001
 20
-21.4913307
 10
-63.3715849
 20
-21.7493426
 10
-63.2825717
 20
-22.0069944
 10
-63.19251089999999
 20
-22.2642819
 10
-63.101404
 20
-22.5212008
 10
-63.00925260000001
 20
-22.777747
 10
-62.93533620000001
 20
-22.981191
 10
-62.67639029999999
 20
-22.9990017
 10
-62.31843539999999
 20
-23.0194897
 10
-61.97137210000001
 20
-23.0346542
 10
-61.63527689999999
 20
-23.0447934
 10
-61.3102202
 20
-23.0502063
 10
-60.99626629999999
 20
-23.0511932
 10
-60.6934735
 20
-23.0480549
 10
-60.4018939
 20
-23.0410932
 10
-60.12157339999999
 20
-23.0306104
 10
-59.8525521
 20
-23.0169093
 10
-59.5948635
 20
-23.0002932
 10
-59.2689546
 20
-22.97412860000001
 10
-58.96328979999999
 20
-22.9440413
 10
-58.6778985
 20
-22.9107515
 10
-58.41279039999999
 20
-22.874979
 10
-58.36583910000001
 20
-22.8681273
 10
-57.74018059999999
 20
-24.4047938
 10
-57.9829902
 20
-24.584497
 10
-58.2026631
 20
-24.7536074
 10
-58.4338951
 20
-24.9381297
 10
-58.62688420000001
 20
-25.0971479
 10
-58.82671789999999
 20
-25.2665446
 10
-59.0331424
 20
-25.4465402
 10
-59.2458989
 20
-25.6373505
 10
-59.464724
 20
-25.8391857
 10
-59.6893494
 20
-26.0522509
 10
-59.91950260000001
 20
-26.2767459
 10
-60.1549066
 20
-26.5128649
 10
-60.3347363
 20
-26.6976962
 10
-60.5172411
 20
-26.8892498
 10
-60.7022995
 20
-27.0876016
 10
-60.8897885
 20
-27.2928254
 10
-61.079584
 20
-27.5049935
 10
-61.08908420000001
 20
-27.51573130000001
 10
-60.9766289
 20
-27.7640488
 10
-60.8631642
 20
-28.0119068
 10
-60.74869200000001
 20
-28.2593011
 10
-60.6332142
 20
-28.5062275
 10
-60.5167328
 20
-28.7526822
 10
-60.42352619999999
 20
-28.9480424
 10
-60.1640702
 20
-28.9407781
 10
-59.80580899999999
 20
-28.9266228
 10
-59.45890229999999
 20
-28.9082201
 10
-59.1233975
 20
-28.8858741
 10
-58.7993359
 20
-28.8598893
 10
-58.4867524
 20
-28.8305706
 10
-58.185676
 20
-28.7982233
 10
-57.8961295
 20
-28.7631526
 10
-57.6181294
 20
-28.7256639
 10
-57.3516863
 20
-28.6860624
 10
-57.0968045
 20
-28.6446534
 10
-56.7749422
 20
-28.5871561
 10
-56.4736083
 20
-28.5277084
 10
-56.19276219999999
 20
-28.4670298
 10
-55.9323442
 20
-28.4058377
 10
-55.88627339999999
 20
-28.3944865
 10
-55.115226
 20
-29.8635945
 10
-55.3395583
 20
-30.06589330000001
 10
-55.5418841
 20
-30.2554158
 10
-55.7542277
 20
-30.4613938
 10
-55.9309683
 20
-30.6382957
 10
-56.11352
 20
-30.8261883
 10
-56.3016088
 20
-31.0252665
 10
-56.4949562
 20
-31.23572
 10
-56.69327979999999
 20
-31.4577326
 10
-56.8962928
 20
-31.6914826
 10
-57.1037047
 20
-31.93714260000001
 10
-57.31522099999999
 20
-32.1948791
 10
-57.47637239999999
 20
-32.3962036
 10
-57.6395376
 20
-32.6044772
 10
-57.80458829999999
 20
-32.8197637
 10
-57.9713951
 20
-33.0421248
 10
-58.1398275
 20
-33.2716203
 10
-58.1482469
 20
-33.2832248
 10
-58.0123505
 20
-33.51952960000001
 10
-57.8754937
 20
-33.7552796
 10
-57.73767900000001
 20
-33.9904708
 10
-57.5989084
 20
-34.2250993
 10
-57.4591845
 20
-34.4591613
 10
-57.34755799999999
 20
-34.64461379999999
 10
-57.09001439999999
 20
-34.6123423
 10
-56.7347918
 20
-34.56367589999999
 10
-56.3912807
 20
-34.5118778
 10
-56.05949889999999
 20
-34.45725520000001
 10
-55.739458
 20
-34.4001152
 10
-55.4311635
 20
-34.3407648
 10
-55.13461460000001
 20
-34.2795104
 10
-54.8498046
 20
-34.21665820000001
 10
-54.57672049999999
 20
-34.1525136
 10
-54.31534329999999
 20
-34.0873815
 10
-54.0656479
 20
-34.0215661
 10
-53.7508375
 20
-33.9332731
 10
-53.45664779999999
 20
-33.84502
 10
-53.1829691
 20
-33.7575191
 10
-52.9296728
 20
-33.6714787
 10
-52.8849126
 20
-33.6557341
 10
-51.97567539999999
 20
-35.0435669
 10
-52.1794357
 20
-35.26657249999999
 10
-52.3625255
 20
-35.4747374
 10
-52.553998
 20
-35.700248
 10
-52.71284010000001
 20
-35.893382
 10
-52.8764053
 20
-36.09801620000001
 10
-53.0444022
 20
-36.3143183
 10
-53.21653529999999
 20
-36.54245
 10
-53.3925057
 20
-36.7825671
 10
-53.5720109
 20
-37.0348195
 10
-53.75474490000001
 20
-37.2993508
 10
-53.9403986
 20
-37.5762983
 10
-54.081367
 20
-37.79223629999999
 10
-54.2236692
 20
-38.01528539999999
 10
-54.36717129999999
 20
-38.2454965
 10
-54.5117384
 20
-38.4829187
 10
-54.657235
 20
-38.7275989
 10
-54.66449520000001
 20
-38.7399619
 10
-54.50642639999999
 20
-38.96204760000001
 10
-54.3474554
 20
-39.1834884
 10
-54.18758480000001
 20
-39.40428060000001
 10
-54.0268172
 20
-39.6244205
 10
-53.8651552
 20
-39.8439045
 10
-53.7361512
 20
-40.01771779999999
 10
-53.4829245
 20
-39.9607404
 10
-53.1340572
 20
-39.8780172
 10
-52.797149
 20
-39.7933073
 10
-52.47218789999999
 20
-39.70691820000001
 10
-52.1591559
 20
-39.6191566
 10
-51.85802869999999
 20
-39.53032849999999
 10
-51.5687761
 20
-39.440739
 10
-51.29136179999999
 20
-39.350692
 10
-51.0257434
 20
-39.26049050000001
 10
-50.7718726
 20
-39.1704359
 10
-50.529695
 20
-39.0808287
 10
-50.2248757
 20
-38.9625643
 10
-49.94057709999999
 20
-38.84632979999999
 10
-49.6766211
 20
-38.73282360000001
 10
-49.43281129999999
 20
-38.62273820000001
 10
-49.3897796
 20
-38.6027471
 10
-48.35084189999999
 20
-39.896347
 10
-48.5321279
 20
-40.13797720000001
 10
-48.6942721
 20
-40.36284099999999
 10
-48.86308579999999
 20
-40.6057786
 10
-49.00254620000001
 20
-40.81334149999999
 10
-49.1455979
 20
-41.0328067
 10
-49.2919343
 20
-41.264313
 10
-49.441246
 20
-41.5079929
 10
-49.5932202
 20
-41.7639727
 10
-49.74754149999999
 20
-42.0323723
 10
-49.9038915
 20
-42.313305
 10
-50.0619492
 20
-42.6068778
 10
-50.1814186
 20
-42.83541309999999
 10
-50.3015291
 20
-43.0711551
 10
-50.4221427
 20
-43.31414149999999
 10
-50.5431204
 20
-43.564408
 10
-50.6643226
 20
-43.8219884
 10
-50.6703557
 20
-43.83499429999999
 10
-50.4915905
 20
-44.0407875
 10
-50.3119895
 20
-44.2458516
 10
-50.1315557
 20
-44.45018329999999
 10
-49.95029210000001
 20
-44.6537792
 10
-49.76820159999999
 20
-44.856636
 10
-49.6230243
 20
-45.0171871
 10
-49.3764789
 20
-44.93603579999999
 10
-49.03722420000001
 20
-44.82002829999999
 10
-48.7100645
 20
-44.70319749999999
 10
-48.3949582
 20
-44.58584839999999
 10
-48.0918577
 20
-44.46828449999999
 10
-47.80070949999999
 20
-44.3508081
 10
-47.52145389999999
 20
-44.23371999999999
 10
-47.2540254
 20
-44.117319
 10
-46.9983528
 20
-44.0019027
 10
-46.7543586
 20
-43.88776649999999
 10
-46.5219599
 20
-43.7752041
 10
-46.2299778
 20
-43.62807249999999
 10
-45.95822459999999
 20
-43.48494179999999
 10
-45.70645579999999
 20
-43.3464901
 10
-45.474409
 20
-43.21338759999999
 10
-45.4335076
 20
-43.1893367
 10
-44.2745697
 20
-44.37662559999999
 10
-44.4316886
 20
-44.63462439999999
 10
-44.5713734
 20
-44.8740877
 10
-44.7159522
 20
-45.132184
 10
-44.83472879999999
 20
-45.35223779999999
 10
-44.9559312
 20
-45.58448489999999
 10
-45.0792409
 20
-45.829034
 10
-45.204337
 20
-46.085987
 10
-45.33089620000001
 20
-46.35543939999999
 10
-45.4585928
 20
-46.6374801
 10
-45.587099
 20
-46.93219129999999
 10
-45.7160849
 20
-47.23964829999999
 10
-45.8129397
 20
-47.47864719999999
 10
-45.9097371
 20
-47.72488099999999
 10
-46.0063361
 20
-47.9783739
 10
-46.10259479999999
 20
-48.2391482
 10
-46.1983711
 20
-48.5072237
 10
-46.2031208
 20
-48.5207513
 10
-46.0053283
 20
-48.7083304
 10
-45.80677419999999
 20
-48.8951032
 10
-45.60746179999999
 20
-49.0810666
 10
-45.4073945
 20
-49.2662176
 10
-45.2065756
 20
-49.4505531
 10
-45.0465807
 20
-49.59634310000001
 10
-44.8090185
 20
-49.49177559999999
 10
-44.4825439
 20
-49.3435668
 10
-44.1681873
 20
-49.195706
 10
-43.8658778
 20
-49.0484925
 10
-43.5755389
 20
-48.9022241
 10
-43.29708789999999
 20
-48.75719629999999
 10
-43.0304366
 20
-48.61370260000001
 10
-42.77549089999999
 20
-48.4720345
 10
-42.5321511
 20
-48.33248109999999
 10
-42.3003118
 20
-48.1953289
 10
-42.07986179999999
 20
-48.0608622
 10
-41.803443
 20
-47.8862371
 10
-41.5467726
 20
-47.71754669999999
 10
-41.3095416
 20
-47.5554421
 10
-41.0914244
 20
-47.40056529999999
 10
-41.0530352
 20
-47.37267899999999
 10
-39.7849177
 20
-48.4425716
 10
-39.9164027
 20
-48.7145302
 10
-40.03232379999999
 20
-48.96635709999999
 10
-40.15131779999999
 20
-49.2372023
 10
-40.2483017
 20
-49.4676924
 10
-40.34652310000001
 20
-49.7105531
 10
-40.44565479999999
 20
-49.9658616
 10
-40.54536739999999
 20
-50.2336885
 10
-40.64532979999999
 20
-50.5140978
 10
-40.7452094
 20
-50.8071463
 10
-40.8446719
 20
-51.1128843
 10
-40.9433818
 20
-51.43135499999999
 10
-41.01671779999999
 20
-51.67858599999999
 10
-41.0892983
 20
-51.9330125
 10
-41.1609807
 20
-52.1946452
 10
-41.23162169999999
 20
-52.4634924
 10
-41.30107789999999
 20
-52.7395602
 10
-41.30449979999999
 20
-52.753483
 10
-41.08952659999999
 20
-52.92109670000001
 10
-40.87387329999999
 20
-53.0878344
 10
-40.6575434
 20
-53.2536932
 10
-40.44054039999999
 20
-53.4186706
 10
-40.22286799999999
 20
-53.5827637
 10
-40.04954929999999
 20
-53.71243129999999
 10
-39.8231883
 20
-53.5854239
 10
-39.512542
 20
-53.40639770000001
 10
-39.2139235
 20
-53.22888739999999
 10
-38.9272336
 20
-53.0531841
 10
-38.652367
 20
-52.8795767
 10
-38.3892131
 20
-52.7083516
 10
-38.1376558
 20
-52.53979229999999
 10
-37.8975732
 20
-52.3741797
 10
-37.6688383
 20
-52.2117921
 10
-37.4513183
 20
-52.0529044
 10
-37.2448754
 20
-51.897789
 10
-36.9866008
 20
-51.69730089999999
 10
-36.74740960000001
 20
-51.50462570000001
 10
-36.5269314
 20
-51.3203818
 10
-36.3247802
 20
-51.1451766
 10
-36.28926160000001
 20
-51.1137154
 10
-34.92380460000001
 20
-52.0562224
 10
-35.02842800000001
 20
-52.3396015
 10
-35.1195032
 20
-52.60144079999999
 10
-35.2118013
 20
-52.8825062
 10
-35.2860869
 20
-53.1212806
 10
-35.3604104
 20
-53.37248719999999
 10
-35.4344385
 20
-53.6361714
 10
-35.5078365
 20
-53.91237170000001
 10
-35.5802689
 20
-54.2011197
 10
-35.651399
 20
-54.5024399
 10
-35.7208892
 20
-54.81635010000001
 10
-35.7884014
 20
-55.14286099999999
 10
-35.8375338
 20
-55.3960157
 10
-35.88521979999999
 20
-55.6562596
 10
-35.93131629999999
 20
-55.9235892
 10
-35.97568010000001
 20
-56.19799910000001
 10
-36.01816760000001
 20
-56.4794817
 10
-36.0202298
 20
-56.4936697
 10
-35.79008320000001
 20
-56.639753
 10
-35.5593441
 20
-56.7848987
 10
-35.3280164
 20
-56.9291045
 10
-35.0961038
 20
-57.07236779999999
 10
-34.8636104
 20
-57.2146865
 10
-34.678586
 20
-57.3270211
 10
-34.46553970000001
 20
-57.17875970000001
 10
-34.17362220000001
 20
-56.9705875
 10
-33.89353
 20
-56.765085
 10
-33.6251362
 20
-56.5625324
 10
-33.3683083
 20
-56.36320699999999
 10
-33.1229086
 20
-56.1673832
 10
-32.8887939
 20
-55.97533199999999
 10
-32.6658161
 20
-55.7873213
 10
-32.45382160000001
 20
-55.6036156
 10
-32.25265200000001
 20
-55.424476
 10
-32.0621436
 20
-55.2501601
 10
-31.82442460000001
 20
-55.0256809
 10
-31.6049459
 20
-54.8108199
 10
-31.4032791
 20
-54.6061569
 10
-31.2189813
 20
-54.4122592
 10
-31.186665
 20
-54.37751689999999
 10
-29.7366174
 20
-55.1838382
 10
-29.8134023
 20
-55.475992
 10
-29.8787812
 20
-55.745399
 10
-29.9435217
 20
-56.0340603
 10
-29.9944155
 20
-56.2788897
 10
-30.04414710000001
 20
-56.5360968
 10
-30.0923804
 20
-56.80569479999999
 10
-30.1387786
 20
-57.0876896
 10
-30.18300460000001
 20
-57.3820803
 10
-30.224721
 20
-57.6888589
 10
-30.2635902
 20
-58.0080105
 10
-30.2992744
 20
-58.33951289999999
 10
-30.3237444
 20
-58.59622779999999
 10
-30.3460907
 20
-58.8598591
 10
-30.366171
 20
-59.1303897
 10
-30.3838432
 20
-59.4078003
 10
-30.3989655
 20
-59.6920694
 10
-30.3996487
 20
-59.7063903
 10
-30.1564773
 20
-59.8295792
 10
-29.9128068
 20
-59.95177779999999
 10
-29.6686412
 20
-60.07298399999999
 10
-29.4239844
 20
-60.1931958
 10
-29.1788406
 20
-60.3124112
 10
-28.9838381
 20
-60.406364
 10
-28.7860957
 20
-60.23823270000001
 10
-28.5156324
 20
-60.0028583
 10
-28.2566817
 20
-59.77128229999999
 10
-28.00909000000001
 20
-59.54377159999999
 10
-27.7726987
 20
-59.3205893
 10
-27.5473443
 20
-59.1019951
 10
-27.3328582
 20
-58.8882452
 10
-27.129067
 20
-58.6795917
 10
-26.9357923
 20
-58.4762832
 10
-26.75285130000001
 20
-58.27856419999999
 10
-26.5800562
 20
-58.0866754
 10
-26.3651124
 20
-57.84030089999999
 10
-26.1673953
 20
-57.60526020000001
 10
-25.9864228
 20
-57.382089
 10
-25.8216992
 20
-57.1713092
 10
-25.7928869
 20
-57.1336101
 10
-24.2717874
 20
-57.7962175
 10
-24.320017
 20
-58.09441819999999
 10
-24.3590891
 20
-58.36887739999999
 10
-24.3956676
 20
-58.66243960000001
 10
-24.4226943
 20
-58.91103789999999
 10
-24.4473697
 20
-59.1718441
 10
-24.4693578
 20
-59.4448387
 10
-24.488323
 20
-59.72999510000001
 10
-24.5039298
 20
-60.0272799
 10
-24.515843
 20
-60.33665260000001
 10
-24.5237281
 20
-60.65806559999999
 10
-24.5272512
 20
-60.9914645
 10
-24.5268304
 20
-61.2493427
 10
-24.5236282
 20
-61.5138999
 10
-24.5175048
 20
-61.7851056
 10
-24.5083206
 20
-62.06292679999999
 10
-24.4959363
 20
-62.34732839999999
 10
-24.4952342
 20
-62.36164829999999
 10
-24.2413086
 20
-62.4607928
 10
-23.9869818
 20
-62.55890329999999
 10
-23.7322579
 20
-62.65597829999999
 10
-23.4771412
 20
-62.75201609999999
 10
-23.2216358
 20
-62.84701510000001
 10
-23.0184759
 20
-62.9217088
 10
-22.8378837
 20
-62.73527760000001
 10
-22.5913999
 20
-62.4748985
 10
-22.3560084
 20
-62.21941130000001
 10
-22.1315305
 20
-61.96906659999999
 10
-21.917783
 20
-61.7241111
 10
-21.714578
 20
-61.4847877
 10
-21.521723
 20
-61.25133470000001
 10
-21.3390211
 20
-61.0239866
 10
-21.1662708
 20
-60.8029735
 10
-21.0032665
 20
-60.5885212
 10
-20.849798
 20
-60.38085099999999
 10
-20.6596362
 20
-60.11488159999999
 10
-20.4855268
 20
-59.86185569999999
 10
-20.3269383
 20
-59.62226
 10
-20.1833269
 20
-59.3965661
 10
-20.1582876
 20
-59.35626219999999
 10
-18.5803383
 20
-59.86896899999999
 10
-18.5995622
 20
-60.1704324
 10
-18.6119628
 20
-60.4473814
 10
-18.6200376
 20
-60.7431034
 10
-18.622945
 20
-60.9931496
 10
-18.6223337
 20
-61.25511979999999
 10
-18.6178715
 20
-61.5289621
 10
-18.6092266
 20
-61.81461779999999
 10
-18.59606839999999
 20
-62.112021
 10
-18.5780672
 20
-62.4210992
 10
-18.5548947
 20
-62.74177279999999
 10
-18.5262236
 20
-63.0739552
 10
-18.500916
 20
-63.3305889
 10
-18.4721953
 20
-63.59360210000001
 10
-18.4399254
 20
-63.8629507
 10
-18.4039704
 20
-64.1385885
 10
-18.36419519999999
 20
-64.42046709999999
 10
-18.3621143
 20
-64.4346524
 10
-18.0998053
 20
-64.5088267
 10
-17.8371968
 20
-64.5819331
 10
-17.57429289999999
 20
-64.65397049999999
 10
-17.3110982
 20
-64.72493769999999
 10
-17.04761689999999
 20
-64.7948334
 10
-16.8381964
 20
-64.8495707
 10
-16.6764405
 20
-64.64658009999999
 10
-16.4562376
 20
-64.36362739999999
 10
-16.246603
 20
-64.0866144
 10
-16.0473348
 20
-63.8157731
 10
-15.8582268
 20
-63.5513316
 10
-15.6790685
 20
-63.29351329999999
 10
-15.5096453
 20
-63.04253689999999
 10
-15.3497386
 20
-62.7986169
 10
-15.1991256
 20
-62.56196280000001
 10
-15.0575798
 20
-62.3327794
 10
-14.9248708
 20
-62.1112669
 10
-14.7612665
 20
-61.8281859
 10
-14.6123905
 20
-61.55953719999999
 10
-14.4776667
 20
-61.305754
 10
-14.3565083
 20
-61.0672532
 10
-14.3354757
 20
-61.0247208
 10
-12.7154095
 20
-61.3827401
 10
-12.7054483
 20
-61.6846515
 10
-12.6910616
 20
-61.9615044
 10
-12.6705574
 20
-62.2566252
 10
-12.6493183
 20
-62.5057848
 10
-12.6234261
 20
-62.766473
 10
-12.5925551
 20
-63.0386062
 10
-12.5563808
 20
-63.32209399999999
 10
-12.5145804
 20
-63.6168389
 10
-12.466833
 20
-63.9227368
 10
-12.4128192
 20
-64.23967689999999
 10
-12.3522217
 20
-64.5675415
 10
-12.3022635
 20
-64.8205346
 10
-12.2482925
 20
-65.07954789999999
 10
-12.1901773
 20
-65.3445246
 10
-12.1277873
 20
-65.61540550000001
 10
-12.0609926
 20
-65.89212929999999
 10
-12.0575523
 20
-65.90604760000001
 10
-11.789309
 20
-65.9545591
 10
-11.5208706
 20
-66.0019789
 10
-11.2522415
 20
-66.0483061
 10
-10.9834261
 20
-66.09354
 10
-10.7144289
 20
-66.1376798
 10
-10.5007032
 20
-66.1719496
 10
-10.3592938
 20
-65.9542949
 10
-10.1674278
 20
-65.6514105
 10
-9.985507499999998
 20
-65.355458
 10
-9.8133095
 20
-65.066649
 10
-9.650606599999999
 20
-64.78519040000001
 10
-9.4971677
 20
-64.51128440000001
 10
-9.3527582
 20
-64.24512800000001
 10
-9.217139599999999
 20
-63.98691349999999
 10
-9.090070199999999
 20
-63.7368279
 10
-8.971304599999999
 20
-63.49505329999999
 10
-8.860594199999999
 20
-63.26176659999999
 10
-8.7250749
 20
-62.964217
 10
-8.6028222
 20
-62.6824539
 10
-8.4932209
 20
-62.4168527
 10
-8.395646800000001
 20
-62.16777190000001
 10
-8.378817399999999
 20
-62.1234081
 10
-6.7317604
 20
-62.323397
 10
-6.692707
 20
-62.6229377
 10
-6.651667299999999
 20
-62.8971096
 10
-6.602775599999999
 20
-63.1888738
 10
-6.557588299999999
 20
-63.4348202
 10
-6.5066569
 20
-63.69179250000001
 10
-6.4496654
 20
-63.95967579999999
 10
-6.3862994
 20
-64.2383488
 10
-6.3162472
 20
-64.52768349999999
 10
-6.239199299999999
 20
-64.82754509999999
 10
-6.154848499999999
 20
-65.1377925
 10
-6.0628904
 20
-65.45827800000001
 10
-5.988748099999999
 20
-65.7052683
 10
-5.910030599999999
 20
-65.95786360000001
 10
-5.826612799999999
 20
-66.21599429999999
 10
-5.738370299999999
 20
-66.47958910000001
 10
-5.645179699999999
 20
-66.74857450000001
 10
-5.640412099999999
 20
-66.76209570000001
 10
-5.368739099999999
 20
-66.78449159999999
 10
-5.0969772
 20
-66.8057819
 10
-4.8251309
 20
-66.82596639999999
 10
-4.553204799999999
 20
-66.8450447
 10
-4.281203299999999
 20
-66.8630165
 10
-4.0651678
 20
-66.87649880000001
 10
-3.945425299999999
 20
-66.64621219999999
 10
-3.7836875
 20
-66.3262241
 10
-3.63118
 20
-66.01409529999999
 10
-3.487659999999999
 20
-65.71001510000001
 10
-3.352881299999999
 20
-65.41416739999999
 10
-3.2265945
 20
-65.1267311
 10
-3.108546899999999
 20
-64.84787970000001
 10
-2.9984827
 20
-64.5777815
 10
-2.896143299999999
 20
-64.3165994
 10
-2.8012667
 20
-64.064491
 10
-2.7135886
 20
-63.8216083
 10
-2.6074196
 20
-63.5123682
 10
-2.5129317
 20
-63.2201214
 10
-2.429476299999999
 20
-62.94518209999999
 10
-2.356397399999999
 20
-62.6878468
 10
-2.343928299999999
 20
-62.6420659
 10
-0.6852587
 20
-62.6821572
 10
-0.6174778000000001
 20
-62.97653029999999
 10
-0.5501682
 20
-63.24546139999999
 10
-0.4733455
 20
-63.5311448
 10
-0.4046318
 20
-63.7715819
 10
-0.3291369
 20
-64.0224389
 10
-0.2465569
 20
-64.28357120000001
 10
-0.1565909
 20
-64.55482760000001
 10
-0.058941
 20
-64.83605039999999
 10
0.0466881
 20
-65.127076
 10
0.1605884
 20
-65.427734
 10
0.2830484
 20
-65.73784810000001
 10
0.3806827
 20
-65.9765297
 10
0.4834116
 20
-66.22034839999999
 10
0.5913532
 20
-66.4692231
 10
0.7046243000000001
 20
-66.72307070000001
 10
0.8233406999999999
 20
-66.98180620000001
 10
0.829391
 20
-66.9948042
 10
1.1019573
 20
-66.9908752
 10
1.3745053
 20
-66.9858374
 10
1.6470306
 20
-66.9796907
 10
1.919528599999999
 20
-66.9724353
 10
2.191994799999999
 20
-66.9640712
 10
2.408322999999999
 20
-66.9566401
 10
2.5052807
 20
-66.7158718
 10
2.635380099999999
 20
-66.3817676
 10
2.757050799999999
 20
-66.0563768
 10
2.870552899999999
 20
-65.73986449999999
 10
2.976149
 20
-65.4323899
 10
3.0741046
 20
-65.134107
 10
3.1646881
 20
-64.84516410000001
 10
3.2481702
 20
-64.56570409999999
 10
3.324824199999999
 20
-64.29586419999999
 10
3.3949258
 20
-64.0357758
 10
3.4587531
 20
-63.7855648
 10
3.5345805
 20
-63.46752160000001
 10
3.6004214
 20
-63.16751970000001
 10
3.6569517
 20
-62.8858093
 10
3.704852999999999
 20
-62.62262220000001
 10
3.712845399999999
 20
-62.5758515
 10
5.367641099999999
 20
-62.45567099999999
 10
5.4635167
 20
-62.74212809999999
 10
5.556467599999999
 20
-63.0033074
 10
5.6605042
 20
-63.2802426
  0
LWPOLYLINE
  5
84D
330
70
100
AcDbEntity
  8
0
 62
    13
100
AcDbPolyline
 90
      599
 70
     0
 43
0.0
 10
5.6605042
 20
-63.2802426
 10
5.752102599999999
 20
-63.51292539999999
 10
5.851456299999999
 20
-63.75532510000001
 10
5.9588537
 20
-64.0072682
 10
6.074579599999999
 20
-64.2685752
 10
6.198915699999999
 20
-64.53906070000001
 10
6.3321397
 20
-64.818533
 10
6.4745258
 20
-65.1067944
 10
6.6263445
 20
-65.40364170000001
 10
6.746559099999999
 20
-65.63178589999999
 10
6.872340299999999
 20
-65.86455169999999
 10
7.0037979
 20
-66.10184670000001
 10
7.141040099999999
 20
-66.34357699999999
 10
7.284173799999999
 20
-66.5896468
 10
7.291450299999999
 20
-66.60200019999999
 10
7.562364999999999
 20
-66.57178319999999
 10
7.8331544
 20
-66.54046410000001
 10
8.1038142
 20
-66.5080437
 10
8.374339799999999
 20
-66.4745223
 10
8.6447269
 20
-66.43990050000001
 10
8.8593279
 20
-66.41162539999999
 10
8.932595499999999
 20
-66.16262330000001
 10
9.029841799999999
 20
-65.81752239999999
 10
9.1195398
 20
-65.48190770000001
 10
9.201964199999999
 20
-65.15591849999999
 10
9.277391699999999
 20
-64.83968780000001
 10
9.3461016
 20
-64.5333433
 10
9.4083752
 20
-64.23700670000001
 10
9.464495800000001
 20
-63.9507942
 10
9.514748599999999
 20
-63.67481579999999
 10
9.5594209
 20
-63.40917579999999
 10
9.598801299999999
 20
-63.15397260000001
 10
9.6435791
 20
-62.83009579999999
 10
9.680158300000002
 20
-62.52513979999999
 10
9.7092358
 20
-62.2392886
 10
9.731512199999999
 20
-61.97270699999999
 10
9.734953199999999
 20
-61.9253833
 10
11.3704247
 20
-61.64605309999999
 10
11.4934998
 20
-61.92191949999999
 10
11.6112242
 20
-62.1729085
 10
11.7415032
 20
-62.43850989999999
 10
11.8551311
 20
-62.66126589999999
 10
11.977416
 20
-62.8929449
 10
12.108628
 20
-63.13334649999999
 10
12.2490334
 20
-63.38226460000001
 10
12.3988947
 20
-63.6394871
 10
12.5584697
 20
-63.90479670000001
 10
12.7280124
 20
-64.1779703
 10
12.9077722
 20
-64.4587791
 10
13.0494447
 20
-64.67425590000001
 10
13.1971039
 20
-64.8937954
 10
13.35085
 20
-65.11729510000001
 10
13.5107818
 20
-65.3446512
 10
13.6769965
 20
-65.57575779999999
 10
13.6854314
 20
-65.58735129999999
 10
13.9521649
 20
-65.53112829999999
 10
14.2186675
 20
-65.4738205
 10
14.4849347
 20
-65.41542889999999
 10
14.7509622
 20
-65.35595450000001
 10
15.0167454
 20
-65.2953983
 10
15.2276157
 20
-65.2465432
 10
15.2765091
 20
-64.99163219999999
 10
15.3399944
 20
-64.6387567
 10
15.3968822
 20
-64.29605169999999
 10
15.4474592
 20
-63.9636292
 10
15.492014
 20
-63.64159499999999
 10
15.5308366
 20
-63.3300491
 10
15.5642189
 20
-63.0290858
 10
15.592454
 20
-62.73879289999999
 10
15.6158365
 20
-62.45925279999999
 10
15.6346622
 20
-62.1905414
 10
15.6492282
 20
-61.9327289
 10
15.6625383
 20
-61.6060423
 10
15.6695142
 20
-61.2989796
 10
15.6708673
 20
-61.01165649999999
 10
15.6673109
 20
-60.7441694
 10
15.6661685
 20
-60.69673449999999
 10
17.2670457
 20
-60.2608625
 10
17.4161712
 20
-60.5235626
 10
17.55757
 20
-60.76201779999999
 10
17.712875
 20
-61.01380559999999
 10
17.8474715
 20
-61.22455509999999
 10
17.9915457
 20
-61.4433503
 10
18.1453473
 20
-61.66996579999999
 10
18.3091214
 20
-61.90417070000001
 10
18.4831085
 20
-62.14572879999999
 10
18.6675447
 20
-62.39439870000001
 10
18.8626609
 20
-62.6499337
 10
19.0686835
 20
-62.91208229999999
 10
19.2304911
 20
-63.11287979999999
 10
19.3986496
 20
-63.3171432
 10
19.5732488
 20
-63.52476089999999
 10
19.7543771
 20
-63.7356199
 10
19.9421208
 20
-63.94960570000001
 10
19.9516352
 20
-63.9603309
 10
20.2116972
 20
-63.8786269
 10
20.4714247
 20
-63.7958654
 10
20.7308133
 20
-63.712048
 10
20.9898587
 20
-63.62717589999999
 10
21.2485567
 20
-63.5412505
 10
21.4537273
 20
-63.4722716
 10
21.47779
 20
-63.2138317
 10
21.5069215
 20
-62.8564764
 10
21.530468
 20
-62.50988079999999
 10
21.5487255
 20
-62.1741287
 10
21.5619915
 20
-61.8492978
 10
21.5705643
 20
-61.5354594
 10
21.5747436
 20
-61.23267919999999
 10
21.5748296
 20
-60.9410165
 10
21.5711234
 20
-60.6605246
 10
21.5639269
 20
-60.3912507
 10
21.5535423
 20
-60.13323589999999
 10
21.5352605
 20
-59.80678979999999
 10
21.5125681
 20
-59.5004873
 10
21.4861841
 20
-59.21437489999999
 10
21.4568281
 20
-58.94847979999999
 10
21.4511129
 20
-58.9013766
 10
23.0024489
 20
-58.3130325
 10
23.1762325
 20
-58.5601135
 10
23.3399854
 20
-58.7838086
 10
23.5188664
 20
-59.01943179999999
 10
23.6731748
 20
-59.216207
 10
23.8376933
 20
-59.4200757
 10
24.0126484
 20
-59.63078929999999
 10
24.1982619
 20
-59.8480944
 10
24.3947506
 20
-60.0717326
 10
24.6023258
 20
-60.3014409
 10
24.8211939
 20
-60.5369515
 10
25.0515557
 20
-60.7779923
 10
25.2319876
 20
-60.96223570000001
 10
25.4190754
 20
-61.1493159
 10
25.6128975
 20
-61.33911310000001
 10
25.813531
 20
-61.53150639999999
 10
26.0210509
 20
-61.7263733
 10
26.031556
 20
-61.73613020000001
 10
26.2825184
 20
-61.629708
 10
26.5330457
 20
-61.52226559999999
 10
26.7831338
 20
-61.41380479999999
 10
27.0327786
 20
-61.30432739999999
 10
27.2819759
 20
-61.19383520000001
 10
27.4795313
 20
-61.1053765
 10
27.4785386
 20
-60.8458207
 10
27.4730443
 20
-60.48732199999999
 10
27.4630296
 20
-60.14007199999999
 10
27.44879710000001
 20
-59.80412519999999
 10
27.43065039999999
 20
-59.47953029999999
 10
27.4088935
 20
-59.1663297
 10
27.3838308
 20
-58.8645596
 10
27.3557668
 20
-58.5742501
 10
27.3250066
 20
-58.2954254
 10
27.291855
 20
-58.02810309999999
 10
27.2566169
 20
-57.7722951
 10
27.2069138
 20
-57.4491375
 10
27.1547649
 20
-57.146455
 10
27.1008903
 20
-56.8642247
 10
27.0460087
 20
-56.6024042
 10
27.03577410000001
 20
-56.5560725
 10
28.5230845
 20
-55.8207494
 10
28.7199035
 20
-56.0499045
 10
28.9044817
 20
-56.25675079999999
 10
29.1052685
 20
-56.4740096
 10
29.2778481
 20
-56.6549732
 10
29.4612747
 20
-56.8420118
 10
29.6557499
 20
-57.0348562
 10
29.8614699
 20
-57.23323249999999
 10
30.0786254
 20
-57.4368628
 10
30.3074016
 20
-57.64546479999999
 10
30.54797800000001
 20
-57.8587522
 10
30.80052820000001
 20
-58.0764346
 10
30.9978999
 20
-58.2424037
 10
31.2021701
 20
-58.4105539
 10
31.4134055
 20
-58.5807586
 10
31.6316709
 20
-58.75288979999999
 10
31.8570294
 20
-58.9268184
 10
31.8684272
 20
-58.93551579999999
 10
32.1079467
 20
-58.8053691
 10
32.3469348
 20
-58.67424889999999
 10
32.5853875
 20
-58.54215749999999
 10
32.8233007
 20
-58.409097
 10
33.0606706
 20
-58.2750696
 10
33.2487663
 20
-58.167957
 10
33.22272750000001
 20
-57.9097087
 10
33.1826587
 20
-57.55341389999999
 10
33.13917630000001
 20
-57.2087515
 10
33.0925867
 20
-56.8757467
 10
33.0431968
 20
-56.5544185
 10
32.9913133
 20
-56.24477979999999
 10
32.9372425
 20
-55.94683739999999
 10
32.8812907
 20
-55.66059179999999
 10
32.8237636
 20
-55.3860375
 10
32.7649664
 20
-55.1231628
 10
32.7052038
 20
-54.87194989999999
 10
32.6245435
 20
-54.555098
 10
32.5434249
 20
-54.25886170000001
 10
32.4625627
 20
-53.9831486
 10
32.382668
 20
-53.72784710000001
 10
32.3680095
 20
-53.6827195
 10
33.77740770000001
 20
-52.8072831
 10
33.99542460000001
 20
-53.01637249999999
 10
34.1991046
 20
-53.20443889999999
 10
34.4199226
 20
-53.4013047
 10
34.609162
 20
-53.56476719999999
 10
34.8097841
 20
-53.7332294
 10
35.0219636
 20
-53.9064039
 10
35.2458693
 20
-54.0839993
 10
35.48166420000001
 20
-54.26572039999999
 10
35.7295055
 20
-54.45126850000001
 10
35.9895439
 20
-54.64034129999999
 10
36.2619245
 20
-54.8326328
 10
36.47439310000001
 20
-54.97877800000001
 10
36.6939385
 20
-55.1264284
 10
36.9206149
 20
-55.2754513
 10
37.1544745
 20
-55.4257132
 10
37.3955675
 20
-55.5770797
 10
37.4077514
 20
-55.5846365
 10
37.6335919
 20
-55.43198029999999
 10
37.8588093
 20
-55.27840659999999
 10
38.0834001
 20
-55.12391779999999
 10
38.3073605
 20
-54.9685165
 10
38.5306868
 20
-54.81220529999999
 10
38.7075665
 20
-54.68743889999999
 10
38.65672470000001
 20
-54.4329094
 10
38.5824556
 20
-54.08214499999999
 10
38.5059114
 20
-53.74328829999999
 10
38.4273997
 20
-53.4163346
 10
38.3472278
 20
-53.1012733
 10
38.26570200000001
 20
-52.79808769999999
 10
38.18312810000001
 20
-52.5067547
 10
38.0998108
 20
-52.2272456
 10
38.0160539
 20
-51.9595251
 10
37.9321601
 20
-51.7035524
 10
37.848431
 20
-51.4592802
 10
37.7375667
 20
-51.1516922
 10
37.62823579999999
 20
-50.8646679
 10
37.5211409
 20
-50.5980463
 10
37.41697910000001
 20
-50.3516476
 10
37.3980336
 20
-50.3081455
 10
38.7163604
 20
-49.3007693
 10
38.9535395
 20
-49.487841
 10
39.1744197
 20
-49.6553715
 10
39.4132071
 20
-49.83000620000001
 10
39.6173395
 20
-49.97444139999999
 10
39.833284
 20
-50.12275429999999
 10
40.0611867
 20
-50.2746421
 10
40.30118749999999
 20
-50.4297984
 10
40.5534203
 20
-50.5879137
 10
40.8180125
 20
-50.7486755
 10
41.0950852
 20
-50.91176820000001
 10
41.384753
 20
-51.0768736
 10
41.61033479999999
 20
-51.20183029999999
 10
41.8431056
 20
-51.32760220000001
 10
42.0831065
 20
-51.454052
 10
42.3303767
 20
-51.5810417
 10
42.5849532
 20
-51.7084327
 10
42.5978096
 20
-51.7147783
 10
42.80786229999999
 20
-51.5410381
 10
43.0172064
 20
-51.3664446
 10
43.22583839999999
 20
-51.19100089999999
 10
43.43375479999999
 20
-51.0147098
 10
43.6409523
 20
-50.83757429999999
 10
43.80496459999999
 20
-50.6963189
 10
43.7297945
 20
-50.4478846
 10
43.6220185
 20
-50.10592579999999
 10
43.51312720000001
 20
-49.7760385
 10
43.4034265
 20
-49.4581886
 10
43.293221
 20
-49.15233589999999
 10
43.1828142
 20
-48.858434
 10
43.072508
 20
-48.5764306
 10
42.9626032
 20
-48.30626760000001
 10
42.8533986
 20
-48.0478807
 10
42.74519149999999
 20
-47.8011998
 10
42.6382776
 20
-47.56614899999999
 10
42.49824429999999
 20
-47.27069689999999
 10
42.361722
 20
-46.9955645
 10
42.2293944
 20
-46.7405237
 10
42.10193789999999
 20
-46.50532839999999
 10
42.0788823
 20
-46.4638578
 10
43.29382879999999
 20
-45.3339476
 10
43.5479557
 20
-45.4972549
 10
43.7839738
 20
-45.6426852
 10
44.03850109999999
 20
-45.7934584
 10
44.25562059999999
 20
-45.9175176
 10
44.48487120000001
 20
-46.0442966
 10
44.7263692
 20
-46.1734795
 10
44.98022439999999
 20
-46.304748
 10
45.24654
 20
-46.4377812
 10
45.52541279999999
 20
-46.5722557
 10
45.8169327
 20
-46.70784570000001
 10
46.1211832
 20
-46.84422329999999
 10
46.35777189999999
 20
-46.9468249
 10
46.60159479999999
 20
-47.049544
 10
46.8526795
 20
-47.1522401
 10
47.1110517
 20
-47.2547719
 10
47.37673469999999
 20
-47.3569981
 10
47.3901435
 20
-47.3620732
 10
47.5824472
 20
-47.168871
 10
47.7739633
 20
-46.9748881
 10
47.9646886
 20
-46.78012749999999
 10
48.15461989999999
 20
-46.58459249999999
 10
48.34375399999999
 20
-46.38828649999999
 10
48.49336749999999
 20
-46.2318611
 10
48.394571
 20
-45.9918415
 10
48.25429429999999
 20
-45.661881
 10
48.1140727
 20
-45.3440433
 10
47.9742072
 20
-45.03826489999999
 10
47.8349971
 20
-44.74447629999999
 10
47.6967401
 20
-44.4626022
 10
47.55973159999999
 20
-44.19256149999999
 10
47.4242653
 20
-43.934267
 10
47.2906326
 20
-43.6876261
 10
47.1591226
 20
-43.4525403
 10
47.0300221
 20
-43.22890549999999
 10
46.8621273
 20
-42.9483479
 10
46.6996882
 20
-42.68767620000001
 10
46.54336339999999
 20
-42.4465974
 10
46.39380229999999
 20
-42.2248014
 10
46.36685179999999
 20
-42.1857496
 10
47.4670744
 20
-40.943855
 10
47.7357764
 20
-41.0818731
 10
47.9847287
 20
-41.20384549999999
 10
48.2526196
 20
-41.3293494
 10
48.4806989
 20
-41.4318744
 10
48.7211152
 20
-41.5359356
 10
48.97395379999999
 20
-41.6412076
 10
49.23929310000001
 20
-41.7473627
 10
49.517205
 20
-41.8540717
 10
49.8077545
 20
-41.9610033
 10
50.1109998
 20
-42.0678246
 10
50.4269923
 20
-42.17420109999999
 10
50.6723791
 20
-42.2534896
 10
50.9249775
 20
-42.3321969
 10
51.18480170000001
 20
-42.4101804
 10
51.45186339999999
 20
-42.4872971
 10
51.7261723
 20
-42.5634039
 10
51.7400084
 20
-42.5671612
 10
51.9127676
 20
-42.356301
 10
52.0846676
 20
-42.1447396
 10
52.2557054
 20
-41.93248060000001
 10
52.4258782
 20
-41.7195275
 10
52.5951831
 20
-41.5058838
 10
52.72900100000001
 20
-41.3357489
 10
52.60750039999999
 20
-41.10638499999999
 10
52.4360328
 20
-40.79150349999999
 10
52.26579
 20
-40.48868289999999
 10
52.0970656
 20
-40.197831
 10
51.93015070000001
 20
-39.9188496
 10
51.7653343
 20
-39.6516352
 10
51.6029028
 20
-39.3960783
 10
51.4431399
 20
-39.152064
 10
51.2863267
 20
-38.9194719
 10
51.1327416
 20
-38.6981761
 10
50.9826599
 20
-38.4880453
 10
50.7884712
 20
-38.2250016
 10
50.601632
 20
-37.9812245
 10
50.4227695
 20
-37.75635870000001
 10
50.25250020000001
 20
-37.5500329
 10
50.2219065
 20
-37.5137645
 10
51.1971328
 20
-36.1714806
 10
51.477901
 20
-36.282921
 10
51.73746320000001
 20
-36.3802966
 10
52.01621629999999
 20
-36.4793594
 10
52.25312589999999
 20
-36.559393
 10
52.5024632
 20
-36.6397649
 10
52.7642817
 20
-36.7201429
 10
53.03862779999999
 20
-36.8001936
 10
53.32554120000001
 20
-36.879582
 10
53.6250547
 20
-36.9579723
 10
53.9371941
 20
-37.03502750000001
 10
54.2619782
 20
-37.1104098
 10
54.5138718
 20
-37.1656449
 10
54.77288739999999
 20
-37.2196055
 10
55.0390251
 20
-37.2721483
 10
55.3122829
 20
-37.3231298
 10
55.5926566
 20
-37.3724066
 10
55.60679069999999
 20
-37.3748111
 10
55.7583926
 20
-37.1482615
 10
55.9090714
 20
-36.9210971
 10
56.0588248
 20
-36.6933214
 10
56.2076502
 20
-36.4649384
 10
56.3555452
 20
-36.2359518
 10
56.4723179
 20
-36.0536958
 10
56.32924779999999
 20
-35.83712929999999
 10
56.12819019999999
 20
-35.54026670000001
 10
55.9295158
 20
-35.2552906
 10
55.73350770000001
 20
-34.9820807
 10
55.54044649999999
 20
-34.7205114
 10
55.3506096
 20
-34.47045150000001
 10
55.1642716
 20
-34.23176450000001
 10
54.9817037
 20
-34.0043087
 10
54.8031743
 20
-33.78793710000001
 10
54.628948
 20
-33.5824975
 10
54.45928639999999
 20
-33.3878327
 10
54.2406169
 20
-33.1447589
 10
54.03112199999999
 20
-32.9201523
 10
53.83139179999999
 20
-32.71359910000001
 10
53.64200409999999
 20
-32.52466980000001
 10
53.6080528
 20
-32.4915234
 10
54.4491773
 20
-31.0613829
 10
54.7393904
 20
-31.145205
 10
55.00713879999999
 20
-31.2170746
 10
55.2941516
 20
-31.2887714
 10
55.5376796
 20
-31.3455663
 10
55.79360989999999
 20
-31.4014985
 10
56.0619637
 20
-31.4562322
 10
56.34275500000001
 20
-31.5094309
 10
56.63599109999999
 20
-31.5607576
 10
56.9416721
 20
-31.6098747
 10
57.25979129999999
 20
-31.65644439999999
 10
57.5903346
 20
-31.7001286
 10
57.84638329999999
 20
-31.7307946
 10
58.1093976
 20
-31.7595047
 10
58.379364
 20
-31.7861161
 10
58.6562666
 20
-31.8104865
 10
58.9400873
 20
-31.8324733
 10
58.9543875
 20
-31.8335024
 10
59.08341639999999
 20
-31.5933788
 10
59.2114673
 20
-31.3527322
 10
59.33853810000001
 20
-31.11156660000001
 10
59.46462660000001
 20
-30.86988610000001
 10
59.5897307
 20
-30.6276945
 10
59.68836809999999
 20
-30.4350192
 10
59.52506410000001
 20
-30.2332719
 10
59.29629379999999
 20
-29.9572001
 10
59.0710427
 20
-29.6927292
 10
58.8495811
 20
-29.43971230000001
 10
58.6321761
 20
-29.1979971
 10
58.4190912
 20
-28.9674264
 10
58.2105864
 20
-28.747838
 10
58.0069182
 20
-28.5390644
 10
57.8083393
 20
-28.3409335
 10
57.6150986
 20
-28.1532682
 10
57.42744120000001
 20
-27.9758868
 10
57.18633249999999
 20
-27.7550524
 10
56.956138
 20
-27.5517136
 10
56.7374049
 20
-27.3654013
 10
56.530667
 20
-27.1956326
 10
56.49367510000001
 20
-27.1659177
 10
57.19284449999999
 20
-25.6612735
 10
57.4897927
 20
-25.71669460000001
 10
57.7632277
 20
-25.7623873
 10
58.0558203
 20
-25.8060486
 10
58.3036929
 20
-25.8390745
 10
58.5638267
 20
-25.8700448
 10
58.8362103
 20
-25.8986231
 10
59.1208252
 20
-25.9244732
 10
59.41764609999999
 20
-25.9472589
 10
59.72664059999999
 20
-25.9666442
 10
60.04776920000001
 20
-25.9822936
 10
60.3809856
 20
-25.9938718
 10
60.6387986
 20
-25.9996824
 10
60.9033561
 20
-26.0028739
 10
61.17463050000001
 20
-26.0033056
 10
61.4525925
 20
-26.0008372
 10
61.7372103
 20
-25.9953288
 10
61.751543
 20
-25.9949729
 10
61.8567943
 20
-25.7435172
 10
61.9610217
 20
-25.4916353
 10
62.06422339999999
 20
-25.2393315
 10
62.1663977
 20
-24.9866099
 10
62.267543
 20
-24.7334747
 10
62.347124
 20
-24.532179
 10
62.16511099999999
 20
-24.3471346
 10
61.9107639
 20
-24.0944311
 10
61.6610392
 20
-23.8529347
 10
61.41619179999999
 20
-23.6224731
 10
61.17647289999999
 20
-23.402869
 10
60.9421294
 20
-23.1939404
 10
60.7134047
 20
-22.9955006
 10
60.49053780000001
 20
-22.8073585
 10
60.2737635
 20
-22.6293181
 10
60.0633126
 20
-22.4611794
 10
59.85941139999999
 20
-22.3027376
 10
59.59811469999999
 20
-22.1062045
 10
59.34936979999999
 20
-21.9260319
 10
59.1136762
 20
-21.7617002
 10
58.89151829999999
 20
-21.6126771
 10
58.85183129999999
 20
-21.5866712
 10
59.4025175
 20
-20.0215716
 10
59.7034284
 20
-20.0480744
 10
59.9799969
 20
-20.0671635
 10
60.27543739999999
 20
-20.0823817
 10
60.5253404
 20
-20.0913303
 10
60.7872488
 20
-20.0970494
 10
61.061119
 20
-20.0992055
 10
61.3469001
 20
-20.0974656
 10
61.64453449999999
 20
-20.09149760000001
 10
61.9539574
 20
-20.0809702
 10
62.2750973
 20
-20.0655531
 10
62.6078756
 20
-20.0449172
 10
62.8650459
 20
-20.0258182
 10
63.12867629999999
 20
-20.0034613
 10
63.398726
 20
-19.9777092
 10
63.6751521
 20
-19.9484252
 10
63.9579095
 20
-19.91547289999999
 10
63.972141
 20
-19.9137353
 10
64.05263199999999
 20
-19.6532953
 10
64.13206269999999
 20
-19.3925299
 10
64.2104317
 20
-19.1314435
 10
64.2877379
 20
-18.87004049999999
 10
64.36398
 20
-18.6083251
 10
64.42376160000001
 20
-18.4002884
 10
64.22473899999999
 20
-18.2336747
 10
63.94718979999999
 20
-18.00669889999999
 10
63.67532320000001
 20
-17.7904319
 10
63.40937610000001
 20
-17.5846773
 10
63.1495814
 20
-17.3892346
 10
62.8961674
 20
-17.2038987
 10
62.64935829999999
 20
-17.0284605
 10
62.40937339999999
 20
-16.8627064
 10
62.17642779999999
 20
-16.706419
 10
61.95073159999999
 20
-16.5593766
 10
61.7324905
 20
-16.4213538
 10
61.45344539999999
 20
-16.250957
 10
61.1884726
 20
-16.0956328
 10
60.9380189
 20
-15.954816
 10
60.7025154
 20
-15.8279299
 10
60.6605037
 20
-15.8058758
 10
61.05756519999999
 20
-14.1949337
 10
61.35962929999999
 20
-14.1922707
 10
61.636749
 20
-14.1845779
 10
61.9322791
 20
-14.171211
 10
62.1818791
 20
-14.1559987
 10
62.44311679999999
 20
-14.1364133
 10
62.71591650000001
 20
-14.112127
 10
63.00019559999999
 20
-14.0828134
 10
63.2958645
 20
-14.0481474
 10
63.6028269
 20
-14.0078055
 10
63.9209796
 20
-13.961466
 10
64.25021269999999
 20
-13.9088087
 10
64.5043391
 20
-13.8649783
 10
64.76458100000001
 20
-13.8172817
 10
65.0308846
 20
-13.7655864
 10
65.30319399999999
 20
-13.7097601
 10
65.581451
 20
-13.6496715
 10
65.5954483
 20
-13.6465686
 10
65.6504275
 20
-13.3795759
 10
65.7043199
 20
-13.1123617
 10
65.7571246
 20
-12.8449304
 10
65.80884089999999
 20
-12.5772866
 10
65.85946779999999
 20
-12.3094345
 10
65.898892
 20
-12.0965993
 10
65.6847178
 20
-11.9499718
 10
65.3865581
 20
-11.750843
 10
65.09508789999999
 20
-11.5618245
 10
64.81052410000001
 20
-11.3826981
 10
64.5330793
 20
-11.2132416
 10
64.2629609
 20
-11.0532289
 10
64.0003717
 20
-10.9024302
 10
63.7455096
 20
-10.7606118
 10
63.4985675
 20
-10.6275365
 10
63.2597333
 20
-10.5029634
 10
63.0291899
 20
-10.3866482
 10
62.7350019
 20
-10.2439786
 10
62.45627510000001
 20
-10.1149531
 10
62.19339989999999
 20
-9.998965899999999
 10
61.9467495
 20
-9.895401599999999
 10
61.90280529999999
 20
-9.877505099999998
 10
62.14253489999999
 20
-8.2357615
 10
62.44293179999999
 20
-8.2039576
 10
62.71801529999999
 20
-8.1695548
 10
63.01087569999999
 20
-8.127727499999998
 10
63.2578423
 20
-8.0884964
 10
63.5159702
 20
-8.0437893
 10
63.78515239999999
 20
-7.9932875
 10
64.0652752
 20
-7.936673799999999
 10
64.35621809999999
 20
-7.8736335
 10
64.65785389999999
 20
-7.803853799999999
 10
64.970049
 20
-7.7270244
 10
65.29266289999999
 20
-7.642837299999999
 10
65.54137270000001
 20
-7.574684799999999
 10
65.79579629999999
 20
-7.502094
 10
66.05586739999999
 20
-7.424937899999999
 10
66.3215175
 20
-7.3430906
 10
66.5926762
 20
-7.2564269
 10
66.6063087
 20
-7.2519875
 10
66.63526260000001
 20
-6.9809349
 10
66.66311349999999
 20
-6.7097669
 10
66.6898609
 20
-6.4384877
 10
66.7155044
 20
-6.167101899999999
 10
66.7400435
 20
-5.895614099999999
 10
66.75874209999999
 20
-5.6799675
 10
66.53141619999999
 20
-5.5546953
 10
66.2154297
 20
-5.385272699999999
 10
65.90707720000001
 20
-5.2252675
 10
65.6065538
 20
-5.0744417
 10
65.31404920000001
 20
-4.932553599999999
 10
65.02974839999999
 20
-4.7993581
 10
64.7538309
 20
-4.6746069
 10
64.4864711
 20
-4.5580483
 10
64.22783819999999
 20
-4.4494275
 10
63.97809599999999
 20
-4.348486799999999
 10
63.73740279999999
 20
-4.2549653
 10
63.4308185
 20
-4.141354899999999
 10
63.1409402
 20
-4.0398328
 10
62.8680978
 20
-3.9497582
 10
62.61260339999999
 20
-3.870482599999999
 10
62.5671372
 20
-3.856910899999999
 10
62.64729649999999
 20
-2.199694299999999
 10
62.9432215
 20
-2.139046299999999
  0
ENDSEC
  0
SECTION
  2
OBJECTS
  0
DICTIONARY
  5
C
330
0
100
AcDbDictionary
281
     1
  3
ACAD_BACKGROUND
350
AAB
  3
ACAD_CIP_PREVIOUS_PRODUCT_INFO
350
AAA
  3
ACAD_COLOR
350
62
  3
ACAD_DETAILVIEWSTYLE
350
6A
  3
ACAD_GROUP
350
D
  3
ACAD_LAYOUT
350
61
  3
ACAD_MATERIAL
350
10
  3
ACAD_MLEADERSTYLE
350
65
  3
ACAD_MLINESTYLE
350
5E
  3
ACAD_PLOTSETTINGS
350
60
  3
ACAD_PLOTSTYLENAME
350
E
  3
ACAD_SCALELIST
350
42
  3
ACAD_SECTIONVIEWSTYLE
350
67
  3
ACAD_TABLESTYLE
350
63
  3
ACAD_VISUALSTYLE
350
29
  3
ACDB_RECOMPOSE_DATA
350
ABC
  3
AcDbVariableDictionary
350
AB0
  0
DICTIONARY
  5
AAE
330
54
100
AcDbDictionary
280
     1
281
     1
  3
ADSK_XREC_LAYER_RECONCILED
360
AAF
  0
DICTIONARY
  5
AAB
102
{ACAD_REACTORS
330
C
102
}
330
C
100
AcDbDictionary
281
     1
  0
XRECORD
  5
AAA
102
{ACAD_REACTORS
330
C
102
}
330
C
100
AcDbXrecord
280
     1
300
ACD
300
2013
300
ACD_F_S
  0
DICTIONARY
  5
62
102
{ACAD_REACTORS
330
C
102
}
330
C
100
AcDbDictionary
281
     1
  0
DICTIONARY
  5
6A
102
{ACAD_REACTORS
330
C
102
}
330
C
100
AcDbDictionary
281
     1
  3
Imperial24
350
6B
  0
DICTIONARY
  5
D
102
{ACAD_REACTORS
330
C
102
}
330
C
100
AcDbDictionary
281
     1
  0
DICTIONARY
  5
61
102
{ACAD_REACTORS
330
C
102
}
330
C
100
AcDbDictionary
281
     1
  3
Layout1
350
6F
  3
Model
350
73
  0
DICTIONARY
  5
10
102
{ACAD_REACTORS
330
C
102
}
330
C
100
AcDbDictionary
281
     1
  3
ByBlock
350
19
  3
ByLayer
350
11
  3
Global
350
21
  0
DICTIONARY
  5
65
102
{ACAD_REACTORS
330
C
102
}
330
C
100
AcDbDictionary
281
     1
  3
Standard
350
66
  0
DICTIONARY
  5
5E
102
{ACAD_REACTORS
330
C
102
}
330
C
100
AcDbDictionary
281
     1
  3
Standard
350
5F
  0
DICTIONARY
  5
60
102
{ACAD_REACTORS
330
C
102
}
330
C
100
AcDbDictionary
281
     1
  0
ACDBDICTIONARYWDFLT
  5
E
102
{ACAD_REACTORS
330
C
102
}
330
C
100
AcDbDictionary
281
     1
  3
Normal
350
F
100
AcDbDictionaryWithDefault
340
F
  0
DICTIONARY
  5
42
102
{ACAD_REACTORS
330
C
102
}
330
C
100
AcDbDictionary
281
     1
  3
A0
350
43
  3
A1
350
44
  3
A2
350
45
  3
A3
350
46
  3
A4
350
47
  3
A5
350
48
  3
A6
350
49
  3
A7
350
4A
  3
A8
350
4B
  3
A9
350
4C
  3
B0
350
4D
  3
B1
350
4E
  3
B2
350
4F
  3
B3
350
50
  3
B4
350
51
  3
B5
350
52
  3
B6
350
53
  0
DICTIONARY
  5
67
102
{ACAD_REACTORS
330
C
102
}
330
C
100
AcDbDictionary
281
     1
  3
Imperial24
350
69
  0
DICTIONARY
  5
63
102
{ACAD_REACTORS
330
C
102
}
330
C
100
AcDbDictionary
281
     1
  3
Standard
350
64
  0
DICTIONARY
  5
29
102
{ACAD_REACTORS
330
C
102
}
330
C
100
AcDbDictionary
281
     1
  3
2dWireframe
350
2F
  3
Basic
350
2E
  3
Brighten
350
35
  3
ColorChange
350
39
  3
Conceptual
350
32
  3
Dim
350
34
  3
EdgeColorOff
350
41
  3
Facepattern
350
38
  3
Flat
350
2A
  3
FlatWithEdges
350
2B
  3
Gouraud
350
2C
  3
GouraudWithEdges
350
2D
  3
Hidden
350
31
  3
JitterOff
350
3F
  3
Linepattern
350
37
  3
OverhangOff
350
40
  3
Realistic
350
33
  3
Shaded
350
3E
  3
Shaded with edges
350
3D
  3
Shades of Gray
350
3A
  3
Sketchy
350
3B
  3
Thicken
350
36
  3
Wireframe
350
30
  3
X-Ray
350
3C
  0
XRECORD
  5
ABC
102
{ACAD_REACTORS
330
C
102
}
330
C
100
AcDbXrecord
280
     1
 90
        1
330
64
  0
DICTIONARY
  5
AB0
102
{ACAD_REACTORS
330
C
102
}
330
C
100
AcDbDictionary
281
     1
  3
CANNOSCALE
350
AB6
  3
CMLEADERSTYLE
350
AB2
  3
CTABLESTYLE
350
AB1
  3
CVIEWDETAILSTYLE
350
AB3
  3
CVIEWSECTIONSTYLE
350
AB4
  3
LAYEREVAL
350
AB8
  3
LAYERNOTIFY
350
AB9
  3
LIGHTINGUNITS
350
AB7
  3
MSLTSCALE
350
AB5
  0
XRECORD
  5
AAF
102
{ACAD_REACTORS
330
AAE
102
}
330
AAE
100
AcDbXrecord
280
     1
290
     1
  0
ACDBDETAILVIEWSTYLE
  5
6B
102
{ACAD_REACTORS
330
6A
102
}
330
6A
100
AcDbModelDocViewStyle
 70
     0
  3
Imperial24
290
     0
100
AcDbDetailViewStyle
 70
     0
 71
     0
 90
        3
 71
     1
340
55
 62
   256
 40
0.24
340
0
 62
   256
 40
0.24
300

 40
0.36
280
     3
 71
     2
340
5C
 90
       25
 62
   256
 71
     3
340
55
 62
   256
 40
0.24
 90
        1
 40
0.75
 90
        1
300
%<\AcVar ViewType \f "%tc1">% %<\AcVar ViewDetailId>%\PSCALE %<\AcVar ViewScale \f "%sn">%
 71
     4
340
5C
 90
       25
 62
   256
340
5C
 90
       25
 62
   256
280
     0
  0
LAYOUT
  5
6F
102
{ACAD_REACTORS
330
61
102
}
330
61
100
AcDbPlotSettings
  1

  2
Microsoft XPS Document Writer
  4

  6

 40
0.0
 41
0.0
 42
0.0
 43
0.0
 44
0.0
 45
0.0
 46
0.0
 47
0.0
 48
0.0
 49
0.0
140
0.0
141
0.0
142
1.0
143
1.0
 70
   688
 72
     0
 73
     0
 74
     5
  7

 75
    16
147
1.0
 76
     0
 77
     2
 78
   300
148
0.0
149
0.0
100
AcDbLayout
  1
Layout1
 70
     1
 71
     1
 10
0.0
 20
0.0
 11
12.0
 21
9.0
 12
0.0
 22
0.0
 32
0.0
 14
1.000000000000000E+20
 24
1.000000000000000E+20
 34
1.000000000000000E+20
 15
-1.000000000000000E+20
 25
-1.000000000000000E+20
 35
-1.000000000000000E+20
146
0.0
 13
0.0
 23
0.0
 33
0.0
 16
1.0
 26
0.0
 36
0.0
 17
0.0
 27
1.0
 37
0.0
 76
     0
330
6C
  0
LAYOUT
  5
73
102
{ACAD_REACTORS
330
61
102
}
330
61
100
AcDbPlotSettings
  1

  2
Microsoft XPS Document Writer
  4

  6

 40
0.0
 41
0.0
 42
0.0
 43
0.0
 44
0.0
 45
0.0
 46
0.0
 47
0.0
 48
0.0
 49
0.0
140
0.0
141
0.0
142
1.0
143
1.0
 70
  1712
 72
     0
 73
     0
 74
     0
  7

 75
     0
147
1.0
 76
     0
 77
     2
 78
   300
148
0.0
149
0.0
100
AcDbLayout
  1
Model
 70
     1
 71
     0
 10
0.0
 20
0.0
 11
12.0
 21
9.0
 12
0.0
 22
0.0
 32
0.0
 14
0.0
 24
0.0
 34
0.0
 15
0.0
 25
0.0
 35
0.0
146
0.0
 13
0.0
 23
0.0
 33
0.0
 16
1.0
 26
0.0
 36
0.0
 17
0.0
 27
1.0
 37
0.0
 76
     0
330
70
331
AA9
  0
MATERIAL
  5
19
102
{ACAD_XDICTIONARY
360
1A
102
}
102
{ACAD_REACTORS
330
10
102
}
330
10
100
AcDbMaterial
  1
ByBlock
 72
     0
 43
0.0208333333333333
 43
0.0
 43
0.0
 43
0.0
 43
0.0
 43
0.0208333333333333
 43
0.0
 43
0.0
 43
0.0
 43
0.0
 43
1.0
 43
0.0
 43
0.0
 43
0.0
 43
0.0
 43
1.0
 77
     0
 47
0.0208333333333333
 47
0.0
 47
0.0
 47
0.0
 47
0.0
 47
0.0208333333333333
 47
0.0
 47
0.0
 47
0.0
 47
0.0
 47
1.0
 47
0.0
 47
0.0
 47
0.0
 47
0.0
 47
1.0
171
     0
 49
0.0208333333333333
 49
0.0
 49
0.0
 49
0.0
 49
0.0
 49
0.0208333333333333
 49
0.0
 49
0.0
 49
0.0
 49
0.0
 49
1.0
 49
0.0
 49
0.0
 49
0.0
 49
0.0
 49
1.0
175
     0
142
0.0208333333333333
142
0.0
142
0.0
142
0.0
142
0.0
142
0.0208333333333333
142
0.0
142
0.0
142
0.0
142
0.0
142
1.0
142
0.0
142
0.0
142
0.0
142
0.0
142
1.0
179
     0
144
0.0208333333333333
144
0.0
144
0.0
144
0.0
144
0.0
144
0.0208333333333333
144
0.0
144
0.0
144
0.0
144
0.0
144
1.0
144
0.0
144
0.0
144
0.0
144
0.0
144
1.0
147
0.0208333333333333
147
0.0
147
0.0
147
0.0
147
0.0
147
0.0208333333333333
147
0.0
147
0.0
147
0.0
147
0.0
147
1.0
147
0.0
147
0.0
147
0.0
147
0.0
147
1.0
  0
MATERIAL
  5
11
102
{ACAD_XDICTIONARY
360
12
102
}
102
{ACAD_REACTORS
330
10
102
}
330
10
100
AcDbMaterial
  1
ByLayer
 72
     0
 43
0.0208333333333333
 43
0.0
 43
0.0
 43
0.0
 43
0.0
 43
0.0208333333333333
 43
0.0
 43
0.0
 43
0.0
 43
0.0
 43
1.0
 43
0.0
 43
0.0
 43
0.0
 43
0.0
 43
1.0
 77
     0
 47
0.0208333333333333
 47
0.0
 47
0.0
 47
0.0
 47
0.0
 47
0.0208333333333333
 47
0.0
 47
0.0
 47
0.0
 47
0.0
 47
1.0
 47
0.0
 47
0.0
 47
0.0
 47
0.0
 47
1.0
171
     0
 49
0.0208333333333333
 49
0.0
 49
0.0
 49
0.0
 49
0.0
 49
0.0208333333333333
 49
0.0
 49
0.0
 49
0.0
 49
0.0
 49
1.0
 49
0.0
 49
0.0
 49
0.0
 49
0.0
 49
1.0
175
     0
142
0.0208333333333333
142
0.0
142
0.0
142
0.0
142
0.0
142
0.0208333333333333
142
0.0
142
0.0
142
0.0
142
0.0
142
1.0
142
0.0
142
0.0
142
0.0
142
0.0
142
1.0
179
     0
144
0.0208333333333333
144
0.0
144
0.0
144
0.0
144
0.0
144
0.0208333333333333
144
0.0
144
0.0
144
0.0
144
0.0
144
1.0
144
0.0
144
0.0
144
0.0
144
0.0
144
1.0
147
0.0208333333333333
147
0.0
147
0.0
147
0.0
147
0.0
147
0.0208333333333333
147
0.0
147
0.0
147
0.0
147
0.0
147
1.0
147
0.0
147
0.0
147
0.0
147
0.0
147
1.0
  0
MATERIAL
  5
21
102
{ACAD_XDICTIONARY
360
22
102
}
102
{ACAD_REACTORS
330
10
102
}
330
10
100
AcDbMaterial
  1
Global
 72
     0
 43
0.0208333333333333
 43
0.0
 43
0.0
 43
0.0
 43
0.0
 43
0.0208333333333333
 43
0.0
 43
0.0
 43
0.0
 43
0.0
 43
1.0
 43
0.0
 43
0.0
 43
0.0
 43
0.0
 43
1.0
 77
     0
 47
0.0208333333333333
 47
0.0
 47
0.0
 47
0.0
 47
0.0
 47
0.0208333333333333
 47
0.0
 47
0.0
 47
0.0
 47
0.0
 47
1.0
 47
0.0
 47
0.0
 47
0.0
 47
0.0
 47
1.0
171
     0
 49
0.0208333333333333
 49
0.0
 49
0.0
 49
0.0
 49
0.0
 49
0.0208333333333333
 49
0.0
 49
0.0
 49
0.0
 49
0.0
 49
1.0
 49
0.0
 49
0.0
 49
0.0
 49
0.0
 49
1.0
175
     0
142
0.0208333333333333
142
0.0
142
0.0
142
0.0
142
0.0
142
0.0208333333333333
142
0.0
142
0.0
142
0.0
142
0.0
142
1.0
142
0.0
142
0.0
142
0.0
142
0.0
142
1.0
179
     0
144
0.0208333333333333
144
0.0
144
0.0
144
0.0
144
0.0
144
0.0208333333333333
144
0.0
144
0.0
144
0.0
144
0.0
144
1.0
144
0.0
144
0.0
144
0.0
144
0.0
144
1.0
147
0.0208333333333333
147
0.0
147
0.0
147
0.0
147
0.0
147
0.0208333333333333
147
0.0
147
0.0
147
0.0
147
0.0
147
1.0
147
0.0
147
0.0
147
0.0
147
0.0
147
1.0
  0
MLEADERSTYLE
  5
66
102
{ACAD_REACTORS
330
65
102
}
330
65
100
AcDbMLeaderStyle
179
     2
170
     2
171
     1
172
     0
 90
        2
 40
0.0
 41
0.0
173
     1
 91
-1056964608
340
5A
 92
       -2
290
     1
 42
0.09
291
     1
 43
0.36
  3
Standard
 44
0.18
300

342
55
174
     1
178
     6
175
     1
176
     0
 93
-1056964608
 45
0.18
292
     0
297
     0
 46
0.18
 94
-1056964608
 47
1.0
 49
1.0
140
1.0
293
     1
141
0.0
294
     1
177
     0
142
1.0
295
     0
296
     0
143
0.125
271
     0
272
     9
273
     9
298
     0
  0
MLINESTYLE
  5
5F
102
{ACAD_REACTORS
330
5E
102
}
330
5E
100
AcDbMlineStyle
  2
STANDARD
 70
     0
  3

 62
   256
 51
90.0
 52
90.0
 71
     2
 49
0.5
 62
   256
  6
BYLAYER
 49
-0.5
 62
   256
  6
BYLAYER
  0
ACDBPLACEHOLDER
  5
F
102
{ACAD_REACTORS
330
E
102
}
330
E
  0
SCALE
  5
43
102
{ACAD_REACTORS
330
42
102
}
330
42
100
AcDbScale
 70
     0
300
1:1
140
1.0
141
1.0
290
     1
  0
SCALE
  5
44
102
{ACAD_REACTORS
330
42
102
}
330
42
100
AcDbScale
 70
     0
300
1/128" = 1'-0"
140
0.0078125
141
12.0
290
     0
  0
SCALE
  5
45
102
{ACAD_REACTORS
330
42
102
}
330
42
100
AcDbScale
 70
     0
300
1/64" = 1'-0"
140
0.015625
141
12.0
290
     0
  0
SCALE
  5
46
102
{ACAD_REACTORS
330
42
102
}
330
42
100
AcDbScale
 70
     0
300
1/32" = 1'-0"
140
0.03125
141
12.0
290
     0
  0
SCALE
  5
47
102
{ACAD_REACTORS
330
42
102
}
330
42
100
AcDbScale
 70
     0
300
1/16" = 1'-0"
140
0.0625
141
12.0
290
     0
  0
SCALE
  5
48
102
{ACAD_REACTORS
330
42
102
}
330
42
100
AcDbScale
 70
     0
300
3/32" = 1'-0"
140
0.09375
141
12.0
290
     0
  0
SCALE
  5
49
102
{ACAD_REACTORS
330
42
102
}
330
42
100
AcDbScale
 70
     0
300
1/8" = 1'-0"
140
0.125
141
12.0
290
     0
  0
SCALE
  5
4A
102
{ACAD_REACTORS
330
42
102
}
330
42
100
AcDbScale
 70
     0
300
3/16" = 1'-0"
140
0.1875
141
12.0
290
     0
  0
SCALE
  5
4B
102
{ACAD_REACTORS
330
42
102
}
330
42
100
AcDbScale
 70
     0
300
1/4" = 1'-0"
140
0.25
141
12.0
290
     0
  0
SCALE
  5
4C
102
{ACAD_REACTORS
330
42
102
}
330
42
100
AcDbScale
 70
     0
300
3/8" = 1'-0"
140
0.375
141
12.0
290
     0
  0
SCALE
  5
4D
102
{ACAD_REACTORS
330
42
102
}
330
42
100
AcDbScale
 70
     0
300
1/2" = 1'-0"
140
0.5
141
12.0
290
     0
  0
SCALE
  5
4E
102
{ACAD_REACTORS
330
42
102
}
330
42
100
AcDbScale
 70
     0
300
3/4" = 1'-0"
140
0.75
141
12.0
290
     0
  0
SCALE
  5
4F
102
{ACAD_REACTORS
330
42
102
}
330
42
100
AcDbScale
 70
     0
300
1" = 1'-0"
140
1.0
141
12.0
290
     0
  0
SCALE
  5
50
102
{ACAD_REACTORS
330
42
102
}
330
42
100
AcDbScale
 70
     0
300
1-1/2" = 1'-0"
140
1.5
141
12.0
290
     0
  0
SCALE
  5
51
102
{ACAD_REACTORS
330
42
102
}
330
42
100
AcDbScale
 70
     0
300
3" = 1'-0"
140
3.0
141
12.0
290
     0
  0
SCALE
  5
52
102
{ACAD_REACTORS
330
42
102
}
330
42
100
AcDbScale
 70
     0
300
6" = 1'-0"
140
6.0
141
12.0
290
     0
  0
SCALE
  5
53
102
{ACAD_REACTORS
330
42
102
}
330
42
100
AcDbScale
 70
     0
300
1'-0" = 1'-0"
140
12.0
141
12.0
290
     0
  0
ACDBSECTIONVIEWSTYLE
  5
69
102
{ACAD_REACTORS
330
67
102
}
330
67
100
AcDbModelDocViewStyle
 70
     0
  3
Imperial24
290
     0
100
AcDbSectionViewStyle
 70
     0
 71
     0
 90
       78
 71
     1
340
55
 62
   256
 40
0.24
340
0
340
0
 62
   256
 40
0.24
300
I, O, Q, S, X, Z
 40
0.48
 90
        3
 40
0.18
 90
        1
 71
     2
340
68
 90
       25
 62
   256
340
5C
 90
       50
 62
   256
 40
0.24
 40
0.0
 40
0.24
 71
     3
340
55
 62
   256
 40
0.24
 90
        1
 40
0.75
 90
        1
300
%<\AcVar ViewType \f "%tc1">% %<\AcVar ViewSectionStartId>%-%<\AcVar ViewSectionEndId>%\PSCALE %<\AcVar ViewScale \f "%sn">%
 71
     4
 62
   256
 62
   257
300
ANSI31
 40
1.0
 90
        0
290
     0
290
     0
 90
        6
 40
0.0
 40
1.570796326794896
 40
0.2617993877991494
 40
1.308996938995747
 40
-0.2617993877991494
 40
1.832595714594046
  0
TABLESTYLE
  5
64
102
{ACAD_XDICTIONARY
360
ABA
102
}
102
{ACAD_REACTORS
330
63
102
}
330
63
100
AcDbTableStyle
280
     0
  3
Standard
 70
     0
 71
     0
 40
0.06
 41
0.06
280
     0
281
     0
  7
Standard
140
0.18
170
     2
 62
     0
 63
     7
283
     0
 90
      512
 91
        0
  1

274
    -2
284
     1
 64
     0
275
    -2
285
     1
 65
     0
276
    -2
286
     1
 66
     0
277
    -2
287
     1
 67
     0
278
    -2
288
     1
 68
     0
279
    -2
289
     1
 69
     0
  7
Standard
140
0.25
170
     5
 62
     0
 63
     7
283
     0
 90
      512
 91
        0
  1

274
    -2
284
     1
 64
     0
275
    -2
285
     1
 65
     0
276
    -2
286
     1
 66
     0
277
    -2
287
     1
 67
     0
278
    -2
288
     1
 68
     0
279
    -2
289
     1
 69
     0
  7
Standard
140
0.18
170
     5
 62
     0
 63
     7
283
     0
 90
      512
 91
        0
  1

274
    -2
284
     1
 64
     0
275
    -2
285
     1
 65
     0
276
    -2
286
     1
 66
     0
277
    -2
287
     1
 67
     0
278
    -2
288
     1
 68
     0
279
    -2
289
     1
 69
     0
  0
VISUALSTYLE
  5
2F
102
{ACAD_REACTORS
330
29
102
}
330
29
100
AcDbVisualStyle
  2
2dWireframe
 70
     4
177
     3
291
     0
 70
    58
 90
        0
176
     1
 90
        2
176
     1
 90
        0
176
     1
 90
        0
176
     1
 40
0.6
176
     1
 40
30.0
176
     1
 62
     7
420
 16777215
176
     1
 90
        1
176
     1
 90
        4
176
     1
 62
     7
176
     1
 62
   257
176
     1
 90
        1
176
     1
 90
        1
176
     1
 40
1.0
176
     1
 90
        0
176
     1
 62
   257
176
     1
 40
1.0
176
     1
 90
        1
176
     1
 90
        6
176
     1
 90
        2
176
     1
 62
     7
176
     1
 90
        5
176
     1
 90
        0
176
     1
 90
        0
176
     1
290
     0
176
     1
 90
        1
176
     1
 40
0.0
176
     1
 90
        0
176
     1
290
     1
176
     1
290
     1
176
     1
290
     0
176
     1
290
     0
176
     1
290
     0
176
     1
290
     0
176
     1
290
     0
176
     1
290
     0
176
     1
290
     0
176
     1
 90
       50
176
     1
 40
0.0
176
     1
 40
1.0
176
     1
 90
        0
176
     1
 62
    18
420
        0
176
     1
 90
       50
176
     1
 90
        3
176
     1
 62
     5
420
      255
176
     1
290
     0
176
     1
 90
       50
176
     1
 90
       50
176
     1
 90
       50
176
     1
290
     0
176
     1
 90
       50
176
     1
 62
   256
176
     0
 40
1.0
176
     0
 90
        2
176
     1
  1
strokes_ogs.tif
176
     1
290
     0
176
     1
 40
1.0
176
     1
 40
1.0
176
     1
  0
VISUALSTYLE
  5
2E
102
{ACAD_REACTORS
330
29
102
}
330
29
100
AcDbVisualStyle
  2
Basic
 70
     7
177
     3
291
     1
 70
    58
 90
        1
176
     1
 90
        0
176
     1
 90
        1
176
     1
 90
        0
176
     1
 40
0.6
176
     1
 40
30.0
176
     1
 62
     7
420
 16777215
176
     1
 90
        0
176
     1
 90
        4
176
     1
 62
     7
176
     1
 62
   257
176
     1
 90
        1
176
     1
 90
        1
176
     1
 40
1.0
176
     1
 90
        8
176
     1
 62
     7
176
     1
 40
1.0
176
     1
 90
        1
176
     1
 90
        6
176
     1
 90
        2
176
     1
 62
     7
176
     1
 90
        5
176
     1
 90
        0
176
     1
 90
        0
176
     1
290
     0
176
     1
 90
        1
176
     1
 40
0.0
176
     1
 90
        0
176
     1
290
     0
176
     1
290
     1
176
     1
290
     1
176
     1
290
     0
176
     1
290
     0
176
     1
290
     0
176
     1
290
     0
176
     1
290
     0
176
     1
290
     0
176
     1
 90
       50
176
     1
 40
0.0
176
     1
 40
1.0
176
     1
 90
        0
176
     1
 62
    18
420
        0
176
     1
 90
       50
176
     1
 90
        3
176
     1
 62
     5
420
      255
176
     1
290
     0
176
     1
 90
       50
176
     1
 90
       50
176
     1
 90
       50
176
     1
290
     0
176
     1
 90
       50
176
     1
 62
   256
176
     0
 40
1.0
176
     0
 90
        2
176
     1
  1
strokes_ogs.tif
176
     1
290
     0
176
     1
 40
1.0
176
     1
 40
1.0
176
     1
  0
VISUALSTYLE
  5
35
102
{ACAD_REACTORS
330
29
102
}
330
29
100
AcDbVisualStyle
  2
Brighten
 70
    12
177
     3
291
     1
 70
    58
 90
        2
176
     1
 90
        2
176
     1
 90
        0
176
     1
 90
        0
176
     1
 40
0.6
176
     1
 40
30.0
176
     1
 62
     7
420
 16777215
176
     1
 90
        1
176
     1
 90
        4
176
     1
 62
     7
176
     1
 62
   257
176
     1
 90
        1
176
     1
 90
        1
176
     1
 40
1.0
176
     1
 90
        8
176
     1
 62
     7
176
     1
 40
1.0
176
     1
 90
        1
176
     1
 90
        6
176
     1
 90
        2
176
     1
 62
     7
176
     1
 90
        5
176
     1
 90
        0
176
     1
 90
        0
176
     1
290
     0
176
     1
 90
        1
176
     1
 40
50.0
176
     1
 90
        0
176
     1
290
     0
176
     1
290
     1
176
     1
290
     1
176
     1
290
     0
176
     1
290
     0
176
     1
290
     0
176
     1
290
     0
176
     1
290
     0
176
     1
290
     0
176
     1
 90
       50
176
     1
 40
0.0
176
     1
 40
1.0
176
     1
 90
        0
176
     1
 62
    18
420
        0
176
     1
 90
       50
176
     1
 90
        3
176
     1
 62
     5
420
      255
176
     1
290
     0
176
     1
 90
       50
176
     1
 90
       50
176
     1
 90
       50
176
     1
290
     0
176
     1
 90
       50
176
     1
 62
   256
176
     0
 40
1.0
176
     0
 90
        2
176
     1
  1
strokes_ogs.tif
176
     1
290
     0
176
     1
 40
1.0
176
     1
 40
1.0
176
     1
  0
VISUALSTYLE
  5
39
102
{ACAD_REACTORS
330
29
102
}
330
29
100
AcDbVisualStyle
  2
ColorChange
 70
    16
177
     3
291
     1
 70
    58
 90
        2
176
     1
 90
        2
176
     1
 90
        3
176
     1
 90
        0
176
     1
 40
0.6
176
     1
 40
30.0
176
     1
 62
     8
420
  8421504
176
     1
 90
        1
176
     1
 90
        4
176
     1
 62
     7
176
     1
 62
   257
176
     1
 90
        1
176
     1
 90
        1
176
     1
 40
1.0
176
     1
 90
        8
176
     1
 62
     8
420
  8421504
176
     1
 40
1.0
176
     1
 90
        1
176
     1
 90
        6
176
     1
 90
        2
176
     1
 62
     7
176
     1
 90
        5
176
     1
 90
        0
176
     1
 90
        0
176
     1
290
     0
176
     1
 90
        1
176
     1
 40
0.0
176
     1
 90
        0
176
     1
290
     0
176
     1
290
     1
176
     1
290
     1
176
     1
290
     0
176
     1
290
     0
176
     1
290
     0
176
     1
290
     0
176
     1
290
     0
176
     1
290
     0
176
     1
 90
       50
176
     1
 40
0.0
176
     1
 40
1.0
176
     1
 90
        0
176
     1
 62
    18
420
        0
176
     1
 90
       50
176
     1
 90
        3
176
     1
 62
     5
420
      255
176
     1
290
     0
176
     1
 90
       50
176
     1
 90
       50
176
     1
 90
       50
176
     1
290
     0
176
     1
 90
       50
176
     1
 62
   256
176
     0
 40
1.0
176
     0
 90
        2
176
     1
  1
strokes_ogs.tif
176
     1
290
     0
176
     1
 40
1.0
176
     1
 40
1.0
176
     1
  0
VISUALSTYLE
  5
32
102
{ACAD_REACTORS
330
29
102
}
330
29
100
AcDbVisualStyle
  2
Conceptual
 70
     9
177
     3
291
     0
 70
    58
 90
        3
176
     1
 90
        2
176
     1
 90
        0
176
     1
 90
        0
176
     1
 40
0.6
176
     1
 40
30.0
176
     1
 62
     7
420
 16777215
176
     1
 90
        2
176
     1
 90
        2
176
     1
 62
     7
176
     1
 62
   257
176
     1
 90
        1
176
     1
 90
        1
176
     1
 40
179.0
176
     1
 90
        8
176
     1
 62
     7
176
     1
 40
1.0
176
     1
 90
        1
176
     1
 90
        6
176
     1
 90
        2
176
     1
 62
     7
176
     1
 90
        3
176
     1
 90
        0
176
     1
 90
        0
176
     1
290
     0
176
     1
 90
        1
176
     1
 40
0.0
176
     1
 90
        0
176
     1
290
     0
176
     1
290
     1
176
     1
290
     1
176
     1
290
     0
176
     1
290
     0
176
     1
290
     0
176
     1
290
     0
176
     1
290
     0
176
     1
290
     0
176
     1
 90
       50
176
     1
 40
0.0
176
     1
 40
1.0
176
     1
 90
        0
176
     1
 62
    18
420
        0
176
     1
 90
       50
176
     1
 90
        3
176
     1
 62
     5
420
      255
176
     1
290
     0
176
     1
 90
       50
176
     1
 90
       50
176
     1
 90
       50
176
     1
290
     0
176
     1
 90
       50
176
     1
 62
   256
176
     0
 40
1.0
176
     0
 90
        2
176
     1
  1
strokes_ogs.tif
176
     1
290
     0
176
     1
 40
1.0
176
     1
 40
1.0
176
     1
  0
VISUALSTYLE
  5
34
102
{ACAD_REACTORS
330
29
102
}
330
29
100
AcDbVisualStyle
  2
Dim
 70
    11
177
     3
291
     1
 70
    58
 90
        2
176
     1
 90
        2
176
     1
 90
        0
176
     1
 90
        0
176
     1
 40
0.6
176
     1
 40
30.0
176
     1
 62
     7
420
 16777215
176
     1
 90
        1
176
     1
 90
        4
176
     1
 62
     7
176
     1
 62
   257
176
     1
 90
        1
176
     1
 90
        1
176
     1
 40
1.0
176
     1
 90
        8
176
     1
 62
     7
176
     1
 40
1.0
176
     1
 90
        1
176
     1
 90
        6
176
     1
 90
        2
176
     1
 62
     7
176
     1
 90
        5
176
     1
 90
        0
176
     1
 90
        0
176
     1
290
     0
176
     1
 90
        1
176
     1
 40
-50.0
176
     1
 90
        0
176
     1
290
     0
176
     1
290
     1
176
     1
290
     1
176
     1
290
     0
176
     1
290
     0
176
     1
290
     0
176
     1
290
     0
176
     1
290
     0
176
     1
290
     0
176
     1
 90
       50
176
     1
 40
0.0
176
     1
 40
1.0
176
     1
 90
        0
176
     1
 62
    18
420
        0
176
     1
 90
       50
176
     1
 90
        3
176
     1
 62
     5
420
      255
176
     1
290
     0
176
     1
 90
       50
176
     1
 90
       50
176
     1
 90
       50
176
     1
290
     0
176
     1
 90
       50
176
     1
 62
   256
176
     0
 40
1.0
176
     0
 90
        2
176
     1
  1
strokes_ogs.tif
176
     1
290
     0
176
     1
 40
1.0
176
     1
 40
1.0
176
     1
  0
VISUALSTYLE
  5
41
102
{ACAD_REACTORS
330
29
102
}
330
29
100
AcDbVisualStyle
  2
EdgeColorOff
 70
    22
177
     3
291
     1
 70
    58
 90
        2
176
     0
 90
        2
176
     0
 90
        0
176
     0
 90
        0
176
     0
 40
0.6
176
     0
 40
30.0
176
     0
 62
     7
420
 16777215
176
     0
 90
        1
176
     0
 90
        4
176
     0
 62
     7
176
     0
 62
   257
176
     0
 90
        1
176
     0
 90
        1
176
     0
 40
1.0
176
     0
 90
        8
176
     2
 62
     7
176
     0
 40
1.0
176
     0
 90
        1
176
     0
 90
        6
176
     0
 90
        2
176
     0
 62
     7
176
     0
 90
        5
176
     0
 90
        0
176
     0
 90
        0
176
     0
290
     0
176
     0
 90
        1
176
     0
 40
0.0
176
     0
 90
        0
176
     0
290
     0
176
     1
290
     1
176
     1
290
     1
176
     1
290
     0
176
     1
290
     0
176
     1
290
     0
176
     1
290
     0
176
     1
290
     0
176
     1
290
     0
176
     1
 90
       50
176
     0
 40
0.0
176
     0
 40
1.0
176
     0
 90
        0
176
     0
 62
    18
420
        0
176
     0
 90
       50
176
     0
 90
        3
176
     0
 62
     5
420
      255
176
     0
290
     0
176
     1
 90
       50
176
     0
 90
       50
176
     0
 90
       50
176
     0
290
     0
176
     1
 90
       50
176
     0
 62
   256
176
     0
 40
1.0
176
     0
 90
        2
176
     0
  1
strokes_ogs.tif
176
     0
290
     0
176
     1
 40
1.0
176
     0
 40
1.0
176
     0
  0
VISUALSTYLE
  5
38
102
{ACAD_REACTORS
330
29
102
}
330
29
100
AcDbVisualStyle
  2
Facepattern
 70
    15
177
     3
291
     1
 70
    58
 90
        2
176
     1
 90
        2
176
     1
 90
        0
176
     1
 90
        0
176
     1
 40
0.6
176
     1
 40
30.0
176
     1
 62
     7
420
 16777215
176
     1
 90
        1
176
     1
 90
        4
176
     1
 62
     7
176
     1
 62
   257
176
     1
 90
        1
176
     1
 90
        1
176
     1
 40
1.0
176
     1
 90
        8
176
     1
 62
     7
176
     1
 40
1.0
176
     1
 90
        1
176
     1
 90
        6
176
     1
 90
        2
176
     1
 62
     7
176
     1
 90
        5
176
     1
 90
        0
176
     1
 90
        0
176
     1
290
     0
176
     1
 90
        1
176
     1
 40
0.0
176
     1
 90
        0
176
     1
290
     0
176
     1
290
     1
176
     1
290
     1
176
     1
290
     0
176
     1
290
     0
176
     1
290
     0
176
     1
290
     0
176
     1
290
     0
176
     1
290
     0
176
     1
 90
       50
176
     1
 40
0.0
176
     1
 40
1.0
176
     1
 90
        0
176
     1
 62
    18
420
        0
176
     1
 90
       50
176
     1
 90
        3
176
     1
 62
     5
420
      255
176
     1
290
     0
176
     1
 90
       50
176
     1
 90
       50
176
     1
 90
       50
176
     1
290
     0
176
     1
 90
       50
176
     1
 62
   256
176
     0
 40
1.0
176
     0
 90
        2
176
     1
  1
strokes_ogs.tif
176
     1
290
     0
176
     1
 40
1.0
176
     1
 40
1.0
176
     1
  0
VISUALSTYLE
  5
2A
102
{ACAD_REACTORS
330
29
102
}
330
29
100
AcDbVisualStyle
  2
Flat
 70
     0
177
     3
291
     1
 70
    58
 90
        2
176
     1
 90
        1
176
     1
 90
        1
176
     1
 90
        2
176
     1
 40
0.6
176
     1
 40
30.0
176
     1
 62
     7
420
 16777215
176
     1
 90
        0
176
     1
 90
        0
176
     1
 62
     7
176
     1
 62
   257
176
     1
 90
        1
176
     1
 90
        1
176
     1
 40
1.0
176
     1
 90
        8
176
     1
 62
     7
176
     1
 40
1.0
176
     1
 90
        1
176
     1
 90
        6
176
     1
 90
        2
176
     1
 62
     7
176
     1
 90
        5
176
     1
 90
        0
176
     1
 90
        0
176
     1
290
     0
176
     1
 90
       13
176
     1
 40
0.0
176
     1
 90
        0
176
     1
290
     0
176
     1
290
     1
176
     1
290
     1
176
     1
290
     0
176
     1
290
     0
176
     1
290
     0
176
     1
290
     0
176
     1
290
     0
176
     1
290
     0
176
     1
 90
       50
176
     1
 40
0.0
176
     1
 40
1.0
176
     1
 90
        0
176
     1
 62
    18
420
        0
176
     1
 90
       50
176
     1
 90
        3
176
     1
 62
     5
420
      255
176
     1
290
     0
176
     1
 90
       50
176
     1
 90
       50
176
     1
 90
       50
176
     1
290
     0
176
     1
 90
       50
176
     1
 62
   256
176
     0
 40
1.0
176
     0
 90
        2
176
     1
  1
strokes_ogs.tif
176
     1
290
     0
176
     1
 40
1.0
176
     1
 40
1.0
176
     1
  0
VISUALSTYLE
  5
2B
102
{ACAD_REACTORS
330
29
102
}
330
29
100
AcDbVisualStyle
  2
FlatWithEdges
 70
     1
177
     3
291
     1
 70
    58
 90
        2
176
     1
 90
        1
176
     1
 90
        1
176
     1
 90
        2
176
     1
 40
0.6
176
     1
 40
30.0
176
     1
 62
     7
420
 16777215
176
     1
 90
        1
176
     1
 90
        0
176
     1
 62
     7
176
     1
 62
   257
176
     1
 90
        1
176
     1
 90
        1
176
     1
 40
1.0
176
     1
 90
        0
176
     1
 62
   257
176
     1
 40
1.0
176
     1
 90
        1
176
     1
 90
        6
176
     1
 90
        2
176
     1
 62
     7
176
     1
 90
        5
176
     1
 90
        0
176
     1
 90
        0
176
     1
290
     0
176
     1
 90
       13
176
     1
 40
0.0
176
     1
 90
        0
176
     1
290
     0
176
     1
290
     1
176
     1
290
     1
176
     1
290
     0
176
     1
290
     0
176
     1
290
     0
176
     1
290
     0
176
     1
290
     0
176
     1
290
     0
176
     1
 90
       50
176
     1
 40
0.0
176
     1
 40
1.0
176
     1
 90
        0
176
     1
 62
    18
420
        0
176
     1
 90
       50
176
     1
 90
        3
176
     1
 62
     5
420
      255
176
     1
290
     0
176
     1
 90
       50
176
     1
 90
       50
176
     1
 90
       50
176
     1
290
     0
176
     1
 90
       50
176
     1
 62
   256
176
     0
 40
1.0
176
     0
 90
        2
176
     1
  1
strokes_ogs.tif
176
     1
290
     0
176
     1
 40
1.0
176
     1
 40
1.0
176
     1
  0
VISUALSTYLE
  5
2C
102
{ACAD_REACTORS
330
29
102
}
330
29
100
AcDbVisualStyle
  2
Gouraud
 70
     2
177
     3
291
     1
 70
    58
 90
        2
176
     1
 90
        2
176
     1
 90
        1
176
     1
 90
        2
176
     1
 40
0.6
176
     1
 40
30.0
176
     1
 62
     7
420
 16777215
176
     1
 90
        0
176
     1
 90
        0
176
     1
 62
     7
176
     1
 62
   257
176
     1
 90
        1
176
     1
 90
        1
176
     1
 40
1.0
176
     1
 90
        0
176
     1
 62
     7
176
     1
 40
1.0
176
     1
 90
        1
176
     1
 90
        6
176
     1
 90
        2
176
     1
 62
     7
176
     1
 90
        5
176
     1
 90
        0
176
     1
 90
        0
176
     1
290
     0
176
     1
 90
       13
176
     1
 40
0.0
176
     1
 90
        0
176
     1
290
     0
176
     1
290
     1
176
     1
290
     1
176
     1
290
     0
176
     1
290
     0
176
     1
290
     0
176
     1
290
     0
176
     1
290
     0
176
     1
290
     0
176
     1
 90
       50
176
     1
 40
0.0
176
     1
 40
1.0
176
     1
 90
        0
176
     1
 62
    18
420
        0
176
     1
 90
       50
176
     1
 90
        3
176
     1
 62
     5
420
      255
176
     1
290
     0
176
     1
 90
       50
176
     1
 90
       50
176
     1
 90
       50
176
     1
290
     0
176
     1
 90
       50
176
     1
 62
   256
176
     0
 40
1.0
176
     0
 90
        2
176
     1
  1
strokes_ogs.tif
176
     1
290
     0
176
     1
 40
1.0
176
     1
 40
1.0
176
     1
  0
VISUALSTYLE
  5
2D
102
{ACAD_REACTORS
330
29
102
}
330
29
100
AcDbVisualStyle
  2
GouraudWithEdges
 70
     3
177
     3
291
     1
 70
    58
 90
        2
176
     1
 90
        2
176
     1
 90
        1
176
     1
 90
        2
176
     1
 40
0.6
176
     1
 40
30.0
176
     1
 62
     7
420
 16777215
176
     1
 90
        1
176
     1
 90
        0
176
     1
 62
     7
176
     1
 62
   257
176
     1
 90
        1
176
     1
 90
        1
176
     1
 40
1.0
176
     1
 90
        0
176
     1
 62
   257
176
     1
 40
1.0
176
     1
 90
        1
176
     1
 90
        6
176
     1
 90
        2
176
     1
 62
     7
176
     1
 90
        5
176
     1
 90
        0
176
     1
 90
        0
176
     1
290
     0
176
     1
 90
       13
176
     1
 40
0.0
176
     1
 90
        0
176
     1
290
     0
176
     1
290
     1
176
     1
290
     1
176
     1
290
     0
176
     1
290
     0
176
     1
290
     0
176
     1
290
     0
176
     1
290
     0
176
     1
290
     0
176
     1
 90
       50
176
     1
 40
0.0
176
     1
 40
1.0
176
     1
 90
        0
176
     1
 62
    18
420
        0
176
     1
 90
       50
176
     1
 90
        3
176
     1
 62
     5
420
      255
176
     1
290
     0
176
     1
 90
       50
176
     1
 90
       50
176
     1
 90
       50
176
     1
290
     0
176
     1
 90
       50
176
     1
 62
   256
176
     0
 40
1.0
176
     0
 90
        2
176
     1
  1
strokes_ogs.tif
176
     1
290
     0
176
     1
 40
1.0
176
     1
 40
1.0
176
     1
  0
VISUALSTYLE
  5
31
102
{ACAD_REACTORS
330
29
102
}
330
29
100
AcDbVisualStyle
  2
Hidden
 70
     6
177
     3
291
     0
 70
    58
 90
        1
176
     1
 90
        2
176
     1
 90
        2
176
     1
 90
        0
176
     1
 40
0.6
176
     1
 40
30.0
176
     1
 62
     7
420
 16777215
176
     1
 90
        2
176
     1
 90
        2
176
     1
 62
     7
176
     1
 62
   257
176
     1
 90
        2
176
     1
 90
        1
176
     1
 40
40.0
176
     1
 90
        0
176
     1
 62
   257
176
     1
 40
1.0
176
     1
 90
        1
176
     1
 90
        6
176
     1
 90
        2
176
     1
 62
     7
176
     1
 90
        3
176
     1
 90
        0
176
     1
 90
        0
176
     1
290
     0
176
     1
 90
        1
176
     1
 40
0.0
176
     1
 90
        0
176
     1
290
     0
176
     1
290
     1
176
     1
290
     1
176
     1
290
     0
176
     1
290
     0
176
     1
290
     0
176
     1
290
     0
176
     1
290
     0
176
     1
290
     0
176
     1
 90
       50
176
     1
 40
0.0
176
     1
 40
1.0
176
     1
 90
        0
176
     1
 62
    18
420
        0
176
     1
 90
       50
176
     1
 90
        3
176
     1
 62
     5
420
      255
176
     1
290
     0
176
     1
 90
       50
176
     1
 90
       50
176
     1
 90
       50
176
     1
290
     0
176
     1
 90
       50
176
     1
 62
   256
176
     0
 40
1.0
176
     0
 90
        2
176
     1
  1
strokes_ogs.tif
176
     1
290
     0
176
     1
 40
1.0
176
     1
 40
1.0
176
     1
  0
VISUALSTYLE
  5
3F
102
{ACAD_REACTORS
330
29
102
}
330
29
100
AcDbVisualStyle
  2
JitterOff
 70
    20
177
     3
291
     1
 70
    58
 90
        2
176
     0
 90
        2
176
     0
 90
        0
176
     0
 90
        0
176
     0
 40
0.6
176
     0
 40
30.0
176
     0
 62
     7
420
 16777215
176
     0
 90
        1
176
     0
 90
        4
176
     0
 62
     7
176
     0
 62
   257
176
     0
 90
        1
176
     0
 90
        1
176
     0
 40
1.0
176
     0
 90
       10
176
     2
 62
     7
176
     0
 40
1.0
176
     0
 90
        1
176
     0
 90
        6
176
     0
 90
        2
176
     0
 62
     7
176
     0
 90
        5
176
     0
 90
        0
176
     0
 90
        0
176
     0
290
     0
176
     0
 90
        1
176
     0
 40
0.0
176
     0
 90
        0
176
     0
290
     0
176
     1
290
     1
176
     1
290
     1
176
     1
290
     0
176
     1
290
     0
176
     1
290
     0
176
     1
290
     0
176
     1
290
     0
176
     1
290
     0
176
     1
 90
       50
176
     0
 40
0.0
176
     0
 40
1.0
176
     0
 90
        0
176
     0
 62
    18
420
        0
176
     0
 90
       50
176
     0
 90
        3
176
     0
 62
     5
420
      255
176
     0
290
     0
176
     1
 90
       50
176
     0
 90
       50
176
     0
 90
       50
176
     0
290
     0
176
     1
 90
       50
176
     0
 62
   256
176
     0
 40
1.0
176
     0
 90
        2
176
     0
  1
strokes_ogs.tif
176
     0
290
     0
176
     1
 40
1.0
176
     0
 40
1.0
176
     0
  0
VISUALSTYLE
  5
37
102
{ACAD_REACTORS
330
29
102
}
330
29
100
AcDbVisualStyle
  2
Linepattern
 70
    14
177
     3
291
     1
 70
    58
 90
        2
176
     1
 90
        2
176
     1
 90
        0
176
     1
 90
        0
176
     1
 40
0.6
176
     1
 40
30.0
176
     1
 62
     7
420
 16777215
176
     1
 90
        1
176
     1
 90
        4
176
     1
 62
     7
176
     1
 62
   257
176
     1
 90
        7
176
     1
 90
        7
176
     1
 40
1.0
176
     1
 90
        8
176
     1
 62
     7
176
     1
 40
1.0
176
     1
 90
        1
176
     1
 90
        6
176
     1
 90
        2
176
     1
 62
     7
176
     1
 90
        5
176
     1
 90
        0
176
     1
 90
        0
176
     1
290
     0
176
     1
 90
        1
176
     1
 40
0.0
176
     1
 90
        0
176
     1
290
     0
176
     1
290
     1
176
     1
290
     1
176
     1
290
     0
176
     1
290
     0
176
     1
290
     0
176
     1
290
     0
176
     1
290
     0
176
     1
290
     0
176
     1
 90
       50
176
     1
 40
0.0
176
     1
 40
1.0
176
     1
 90
        0
176
     1
 62
    18
420
        0
176
     1
 90
       50
176
     1
 90
        3
176
     1
 62
     5
420
      255
176
     1
290
     0
176
     1
 90
       50
176
     1
 90
       50
176
     1
 90
       50
176
     1
290
     0
176
     1
 90
       50
176
     1
 62
   256
176
     0
 40
1.0
176
     0
 90
        2
176
     1
  1
strokes_ogs.tif
176
     1
290
     0
176
     1
 40
1.0
176
     1
 40
1.0
176
     1
  0
VISUALSTYLE
  5
40
102
{ACAD_REACTORS
330
29
102
}
330
29
100
AcDbVisualStyle
  2
OverhangOff
 70
    21
177
     3
291
     1
 70
    58
 90
        2
176
     0
 90
        2
176
     0
 90
        0
176
     0
 90
        0
176
     0
 40
0.6
176
     0
 40
30.0
176
     0
 62
     7
420
 16777215
176
     0
 90
        1
176
     0
 90
        4
176
     0
 62
     7
176
     0
 62
   257
176
     0
 90
        1
176
     0
 90
        1
176
     0
 40
1.0
176
     0
 90
        9
176
     2
 62
     7
176
     0
 40
1.0
176
     0
 90
        1
176
     0
 90
        6
176
     0
 90
        2
176
     0
 62
     7
176
     0
 90
        5
176
     0
 90
        0
176
     0
 90
        0
176
     0
290
     0
176
     0
 90
        1
176
     0
 40
0.0
176
     0
 90
        0
176
     0
290
     0
176
     1
290
     1
176
     1
290
     1
176
     1
290
     0
176
     1
290
     0
176
     1
290
     0
176
     1
290
     0
176
     1
290
     0
176
     1
290
     0
176
     1
 90
       50
176
     0
 40
0.0
176
     0
 40
1.0
176
     0
 90
        0
176
     0
 62
    18
420
        0
176
     0
 90
       50
176
     0
 90
        3
176
     0
 62
     5
420
      255
176
     0
290
     0
176
     1
 90
       50
176
     0
 90
       50
176
     0
 90
       50
176
     0
290
     0
176
     1
 90
       50
176
     0
 62
   256
176
     0
 40
1.0
176
     0
 90
        2
176
     0
  1
strokes_ogs.tif
176
     0
290
     0
176
     1
 40
1.0
176
     0
 40
1.0
176
     0
  0
VISUALSTYLE
  5
33
102
{ACAD_REACTORS
330
29
102
}
330
29
100
AcDbVisualStyle
  2
Realistic
 70
     8
177
     3
291
     0
 70
    58
 90
        2
176
     1
 90
        3
176
     1
 90
        0
176
     1
 90
        2
176
     1
 40
0.6
176
     1
 40
30.0
176
     1
 62
     7
420
 16777215
176
     1
 90
        0
176
     1
 90
        0
176
     1
 62
     7
176
     1
 62
   257
176
     1
 90
        1
176
     1
 90
        1
176
     1
 40
1.0
176
     1
 90
        8
176
     1
 62
   257
176
     1
 40
1.0
176
     1
 90
        1
176
     1
 90
        6
176
     1
 90
        2
176
     1
 62
     7
176
     1
 90
        3
176
     1
 90
        0
176
     1
 90
        0
176
     1
290
     0
176
     1
 90
       13
176
     1
 40
0.0
176
     1
 90
        0
176
     1
290
     0
176
     1
290
     1
176
     1
290
     1
176
     1
290
     0
176
     1
290
     0
176
     1
290
     0
176
     1
290
     0
176
     1
290
     0
176
     1
290
     0
176
     1
 90
       50
176
     1
 40
0.0
176
     1
 40
1.0
176
     1
 90
        0
176
     1
 62
    18
420
        0
176
     1
 90
       50
176
     1
 90
        3
176
     1
 62
     5
420
      255
176
     1
290
     0
176
     1
 90
       50
176
     1
 90
       50
176
     1
 90
       50
176
     1
290
     0
176
     1
 90
       50
176
     1
 62
   256
176
     0
 40
1.0
176
     0
 90
        2
176
     1
  1
strokes_ogs.tif
176
     1
290
     0
176
     1
 40
1.0
176
     1
 40
1.0
176
     1
  0
VISUALSTYLE
  5
3E
102
{ACAD_REACTORS
330
29
102
}
330
29
100
AcDbVisualStyle
  2
Shaded
 70
    27
177
     3
291
     0
 70
    58
 90
        2
176
     1
 90
        2
176
     1
 90
        1
176
     1
 90
        2
176
     1
 40
0.6
176
     1
 40
30.0
176
     1
 62
     7
420
 16777215
176
     1
 90
        0
176
     1
 90
        4
176
     1
 62
     7
176
     1
 62
   257
176
     1
 90
        1
176
     1
 90
        1
176
     1
 40
1.0
176
     1
 90
        8
176
     1
 62
   257
176
     1
 40
1.0
176
     1
 90
        1
176
     1
 90
        6
176
     1
 90
        2
176
     1
 62
     8
420
  7895160
176
     1
 90
        3
176
     1
 90
        0
176
     1
 90
        0
176
     1
290
     0
176
     1
 90
        5
176
     1
 40
0.0
176
     1
 90
        0
176
     1
290
     0
176
     1
290
     1
176
     1
290
     1
176
     1
290
     0
176
     1
290
     0
176
     1
290
     0
176
     1
290
     0
176
     1
290
     0
176
     1
290
     0
176
     1
 90
       50
176
     1
 40
0.0
176
     1
 40
1.0
176
     1
 90
        0
176
     1
 62
    18
420
        0
176
     1
 90
       50
176
     1
 90
        3
176
     1
 62
     5
420
      255
176
     1
290
     0
176
     1
 90
       50
176
     1
 90
       50
176
     1
 90
       50
176
     1
290
     0
176
     1
 90
       50
176
     1
 62
   256
176
     0
 40
1.0
176
     0
 90
        2
176
     1
  1
strokes_ogs.tif
176
     1
290
     0
176
     1
 40
1.0
176
     1
 40
1.0
176
     1
  0
VISUALSTYLE
  5
3D
102
{ACAD_REACTORS
330
29
102
}
330
29
100
AcDbVisualStyle
  2
Shaded with edges
 70
    26
177
     3
291
     0
 70
    58
 90
        2
176
     1
 90
        2
176
     1
 90
        1
176
     1
 90
        2
176
     1
 40
0.6
176
     1
 40
30.0
176
     1
 62
     7
420
 16777215
176
     1
 90
        1
176
     1
 90
       10
176
     1
 62
     7
176
     1
 62
   257
176
     1
 90
        2
176
     1
 90
        1
176
     1
 40
1.0
176
     1
 90
        8
176
     1
 62
   257
176
     1
 40
1.0
176
     1
 90
        1
176
     1
 90
        6
176
     1
 90
        2
176
     1
 62
     7
176
     1
 90
        3
176
     1
 90
        0
176
     1
 90
        0
176
     1
290
     0
176
     1
 90
        5
176
     1
 40
0.0
176
     1
 90
        0
176
     1
290
     0
176
     1
290
     1
176
     1
290
     1
176
     1
290
     0
176
     1
290
     0
176
     1
290
     0
176
     1
290
     0
176
     1
290
     0
176
     1
290
     0
176
     1
 90
       50
176
     1
 40
0.0
176
     1
 40
1.0
176
     1
 90
        0
176
     1
 62
    18
420
        0
176
     1
 90
       50
176
     1
 90
        3
176
     1
 62
     5
420
      255
176
     1
290
     0
176
     1
 90
       50
176
     1
 90
       50
176
     1
 90
       50
176
     1
290
     0
176
     1
 90
       50
176
     1
 62
   256
176
     0
 40
1.0
176
     0
 90
        2
176
     1
  1
strokes_ogs.tif
176
     1
290
     0
176
     1
 40
1.0
176
     1
 40
1.0
176
     1
  0
VISUALSTYLE
  5
3A
102
{ACAD_REACTORS
330
29
102
}
330
29
100
AcDbVisualStyle
  2
Shades of Gray
 70
    23
177
     3
291
     0
 70
    58
 90
        2
176
     1
 90
        2
176
     1
 90
        3
176
     1
 90
        0
176
     1
 40
0.6
176
     1
 40
30.0
176
     1
 62
     7
420
 16777215
176
     1
 90
        2
176
     1
 90
        2
176
     1
 62
     7
176
     1
 62
     7
176
     1
 90
        1
176
     1
 90
        1
176
     1
 40
40.0
176
     1
 90
        8
176
     1
 62
     7
176
     1
 40
1.0
176
     1
 90
        1
176
     1
 90
        6
176
     1
 90
        2
176
     1
 62
     7
176
     1
 90
        3
176
     1
 90
        0
176
     1
 90
        0
176
     1
290
     0
176
     1
 90
        1
176
     1
 40
0.0
176
     1
 90
        0
176
     1
290
     0
176
     1
290
     1
176
     1
290
     1
176
     1
290
     0
176
     1
290
     0
176
     1
290
     0
176
     1
290
     0
176
     1
290
     0
176
     1
290
     0
176
     1
 90
       50
176
     1
 40
0.0
176
     1
 40
1.0
176
     1
 90
        0
176
     1
 62
    18
420
        0
176
     1
 90
       50
176
     1
 90
        3
176
     1
 62
     5
420
      255
176
     1
290
     0
176
     1
 90
       50
176
     1
 90
       50
176
     1
 90
       50
176
     1
290
     0
176
     1
 90
       50
176
     1
 62
   256
176
     0
 40
1.0
176
     0
 90
        2
176
     1
  1
strokes_ogs.tif
176
     1
290
     0
176
     1
 40
1.0
176
     1
 40
1.0
176
     1
  0
VISUALSTYLE
  5
3B
102
{ACAD_REACTORS
330
29
102
}
330
29
100
AcDbVisualStyle
  2
Sketchy
 70
    24
177
     3
291
     0
 70
    58
 90
        1
176
     1
 90
        2
176
     1
 90
        2
176
     1
 90
        0
176
     1
 40
0.6
176
     1
 40
30.0
176
     1
 62
     7
420
 16777215
176
     1
 90
        2
176
     1
 90
        2
176
     1
 62
     7
176
     1
 62
     7
176
     1
 90
        1
176
     1
 90
        1
176
     1
 40
40.0
176
     1
 90
       11
176
     1
 62
     7
176
     1
 40
1.0
176
     1
 90
        1
176
     1
 90
        6
176
     1
 90
        2
176
     1
 62
     7
176
     1
 90
        6
176
     1
 90
        0
176
     1
 90
        0
176
     1
290
     0
176
     1
 90
        1
176
     1
 40
0.0
176
     1
 90
        0
176
     1
290
     0
176
     1
290
     1
176
     1
290
     1
176
     1
290
     0
176
     1
290
     0
176
     1
290
     0
176
     1
290
     0
176
     1
290
     0
176
     1
290
     0
176
     1
 90
       50
176
     1
 40
0.0
176
     1
 40
1.0
176
     1
 90
        0
176
     1
 62
    18
420
        0
176
     1
 90
       50
176
     1
 90
        3
176
     1
 62
     5
420
      255
176
     1
290
     0
176
     1
 90
       50
176
     1
 90
       50
176
     1
 90
       50
176
     1
290
     0
176
     1
 90
       50
176
     1
 62
   256
176
     0
 40
1.0
176
     0
 90
        2
176
     1
  1
strokes_ogs.tif
176
     1
290
     0
176
     1
 40
1.0
176
     1
 40
1.0
176
     1
  0
VISUALSTYLE
  5
36
102
{ACAD_REACTORS
330
29
102
}
330
29
100
AcDbVisualStyle
  2
Thicken
 70
    13
177
     3
291
     1
 70
    58
 90
        2
176
     1
 90
        2
176
     1
 90
        0
176
     1
 90
        0
176
     1
 40
0.6
176
     1
 40
30.0
176
     1
 62
     7
420
 16777215
176
     1
 90
        1
176
     1
 90
        4
176
     1
 62
     7
176
     1
 62
   257
176
     1
 90
        1
176
     1
 90
        1
176
     1
 40
1.0
176
     1
 90
       12
176
     1
 62
     7
176
     1
 40
1.0
176
     1
 90
        1
176
     1
 90
        6
176
     1
 90
        2
176
     1
 62
     7
176
     1
 90
        5
176
     1
 90
        0
176
     1
 90
        0
176
     1
290
     0
176
     1
 90
        1
176
     1
 40
0.0
176
     1
 90
        0
176
     1
290
     0
176
     1
290
     1
176
     1
290
     1
176
     1
290
     0
176
     1
290
     0
176
     1
290
     0
176
     1
290
     0
176
     1
290
     0
176
     1
290
     0
176
     1
 90
       50
176
     1
 40
0.0
176
     1
 40
1.0
176
     1
 90
        0
176
     1
 62
    18
420
        0
176
     1
 90
       50
176
     1
 90
        3
176
     1
 62
     5
420
      255
176
     1
290
     0
176
     1
 90
       50
176
     1
 90
       50
176
     1
 90
       50
176
     1
290
     0
176
     1
 90
       50
176
     1
 62
   256
176
     0
 40
1.0
176
     0
 90
        2
176
     1
  1
strokes_ogs.tif
176
     1
290
     0
176
     1
 40
1.0
176
     1
 40
1.0
176
     1
  0
VISUALSTYLE
  5
30
102
{ACAD_REACTORS
330
29
102
}
330
29
100
AcDbVisualStyle
  2
Wireframe
 70
     5
177
     3
291
     0
 70
    58
 90
        0
176
     1
 90
        2
176
     1
 90
        0
176
     1
 90
        0
176
     1
 40
0.6
176
     1
 40
30.0
176
     1
 62
     7
420
 16777215
176
     1
 90
        1
176
     1
 90
        4
176
     1
 62
     7
176
     1
 62
   257
176
     1
 90
        1
176
     1
 90
        1
176
     1
 40
1.0
176
     1
 90
        0
176
     1
 62
   257
176
     1
 40
1.0
176
     1
 90
        1
176
     1
 90
        6
176
     1
 90
        2
176
     1
 62
     7
176
     1
 90
        3
176
     1
 90
        0
176
     1
 90
        0
176
     1
290
     0
176
     1
 90
        1
176
     1
 40
0.0
176
     1
 90
        0
176
     1
290
     0
176
     1
290
     1
176
     1
290
     1
176
     1
290
     0
176
     1
290
     0
176
     1
290
     0
176
     1
290
     0
176
     1
290
     0
176
     1
290
     0
176
     1
 90
       50
176
     1
 40
0.0
176
     1
 40
1.0
176
     1
 90
        0
176
     1
 62
    18
420
        0
176
     1
 90
       50
176
     1
 90
        3
176
     1
 62
     5
420
      255
176
     1
290
     0
176
     1
 90
       50
176
     1
 90
       50
176
     1
 90
       50
176
     1
290
     0
176
     1
 90
       50
176
     1
 62
   256
176
     0
 40
1.0
176
     0
 90
        2
176
     1
  1
strokes_ogs.tif
176
     1
290
     0
176
     1
 40
1.0
176
     1
 40
1.0
176
     1
  0
VISUALSTYLE
  5
3C
102
{ACAD_REACTORS
330
29
102
}
330
29
100
AcDbVisualStyle
  2
X-Ray
 70
    25
177
     3
291
     0
 70
    58
 90
        2
176
     1
 90
        2
176
     1
 90
        1
176
     1
 90
        1
176
     1
 40
0.5
176
     1
 40
30.0
176
     1
 62
     7
420
 16777215
176
     1
 90
        1
176
     1
 90
        0
176
     1
 62
     7
176
     1
 62
   257
176
     1
 90
        1
176
     1
 90
        1
176
     1
 40
1.0
176
     1
 90
        8
176
     1
 62
     7
176
     1
 40
1.0
176
     1
 90
        1
176
     1
 90
        6
176
     1
 90
        2
176
     1
 62
     7
176
     1
 90
        3
176
     1
 90
        0
176
     1
 90
        0
176
     1
290
     0
176
     1
 90
       13
176
     1
 40
0.0
176
     1
 90
        0
176
     1
290
     0
176
     1
290
     1
176
     1
290
     1
176
     1
290
     0
176
     1
290
     0
176
     1
290
     0
176
     1
290
     0
176
     1
290
     0
176
     1
290
     0
176
     1
 90
       50
176
     1
 40
0.0
176
     1
 40
1.0
176
     1
 90
        0
176
     1
 62
    18
420
        0
176
     1
 90
       50
176
     1
 90
        3
176
     1
 62
     5
420
      255
176
     1
290
     0
176
     1
 90
       50
176
     1
 90
       50
176
     1
 90
       50
176
     1
290
     0
176
     1
 90
       50
176
     1
 62
   256
176
     0
 40
1.0
176
     0
 90
        2
176
     1
  1
strokes_ogs.tif
176
     1
290
     0
176
     1
 40
1.0
176
     1
 40
1.0
176
     1
  0
DICTIONARYVAR
  5
AB6
102
{ACAD_REACTORS
330
AB0
102
}
330
AB0
100
DictionaryVariables
280
     0
  1
1:1
  0
DICTIONARYVAR
  5
AB2
102
{ACAD_REACTORS
330
AB0
102
}
330
AB0
100
DictionaryVariables
280
     0
  1
STANDARD
  0
DICTIONARYVAR
  5
AB1
102
{ACAD_REACTORS
330
AB0
102
}
330
AB0
100
DictionaryVariables
280
     0
  1
STANDARD
  0
DICTIONARYVAR
  5
AB3
102
{ACAD_REACTORS
330
AB0
102
}
330
AB0
100
DictionaryVariables
280
     0
  1
Imperial24
  0
DICTIONARYVAR
  5
AB4
102
{ACAD_REACTORS
330
AB0
102
}
330
AB0
100
DictionaryVariables
280
     0
  1
Imperial24
  0
DICTIONARYVAR
  5
AB8
102
{ACAD_REACTORS
330
AB0
102
}
330
AB0
100
DictionaryVariables
280
     0
  1
1
  0
DICTIONARYVAR
  5
AB9
102
{ACAD_REACTORS
330
AB0
102
}
330
AB0
100
DictionaryVariables
280
     0
  1
15
  0
DICTIONARYVAR
  5
AB7
102
{ACAD_REACTORS
330
AB0
102
}
330
AB0
100
DictionaryVariables
280
     0
  1
0
  0
DICTIONARYVAR
  5
AB5
102
{ACAD_REACTORS
330
AB0
102
}
330
AB0
100
DictionaryVariables
280
     0
  1
0
  0
DICTIONARY
  5
1A
330
19
100
AcDbDictionary
280
     1
281
     1
  3
BUMPTILE
360
1C
  3
DIFFUSETILE
360
1B
  3
OPACITYTILE
360
1F
  3
REFLECTIONTILE
360
1E
  3
REFRACTIONTILE
360
20
  3
SPECULARTILE
360
1D
  0
DICTIONARY
  5
12
330
11
100
AcDbDictionary
280
     1
281
     1
  3
BUMPTILE
360
14
  3
DIFFUSETILE
360
13
  3
OPACITYTILE
360
17
  3
REFLECTIONTILE
360
16
  3
REFRACTIONTILE
360
18
  3
SPECULARTILE
360
15
  0
DICTIONARY
  5
22
330
21
100
AcDbDictionary
280
     1
281
     1
  3
BUMPTILE
360
24
  3
DIFFUSETILE
360
23
  3
OPACITYTILE
360
27
  3
REFLECTIONTILE
360
26
  3
REFRACTIONTILE
360
28
  3
SPECULARTILE
360
25
  0
DICTIONARY
  5
ABA
330
64
100
AcDbDictionary
280
     1
281
     1
  3
ACAD_ROUNDTRIP_2008_TABLESTYLE_CELLSTYLEMAP
360
ABB
  0
XRECORD
  5
1C
102
{ACAD_REACTORS
330
1A
102
}
330
1A
100
AcDbXrecord
280
     1
270
     1
271
     1
  0
XRECORD
  5
1B
102
{ACAD_REACTORS
330
1A
102
}
330
1A
100
AcDbXrecord
280
     1
270
     1
271
     1
  0
XRECORD
  5
1F
102
{ACAD_REACTORS
330
1A
102
}
330
1A
100
AcDbXrecord
280
     1
270
     1
271
     1
  0
XRECORD
  5
1E
102
{ACAD_REACTORS
330
1A
102
}
330
1A
100
AcDbXrecord
280
     1
270
     1
271
     1
  0
XRECORD
  5
20
102
{ACAD_REACTORS
330
1A
102
}
330
1A
100
AcDbXrecord
280
     1
270
     1
271
     1
  0
XRECORD
  5
1D
102
{ACAD_REACTORS
330
1A
102
}
330
1A
100
AcDbXrecord
280
     1
270
     1
271
     1
  0
XRECORD
  5
14
102
{ACAD_REACTORS
330
12
102
}
330
12
100
AcDbXrecord
280
     1
270
     1
271
     1
  0
XRECORD
  5
13
102
{ACAD_REACTORS
330
12
102
}
330
12
100
AcDbXrecord
280
     1
270
     1
271
     1
  0
XRECORD
  5
17
102
{ACAD_REACTORS
330
12
102
}
330
12
100
AcDbXrecord
280
     1
270
     1
271
     1
  0
XRECORD
  5
16
102
{ACAD_REACTORS
330
12
102
}
330
12
100
AcDbXrecord
280
     1
270
     1
271
     1
  0
XRECORD
  5
18
102
{ACAD_REACTORS
330
12
102
}
330
12
100
AcDbXrecord
280
     1
270
     1
271
     1
  0
XRECORD
  5
15
102
{ACAD_REACTORS
330
12
102
}
330
12
100
AcDbXrecord
280
     1
270
     1
271
     1
  0
XRECORD
  5
24
102
{ACAD_REACTORS
330
22
102
}
330
22
100
AcDbXrecord
280
     1
270
     1
271
     1
  0
XRECORD
  5
23
102
{ACAD_REACTORS
330
22
102
}
330
22
100
AcDbXrecord
280
     1
270
     1
271
     1
  0
XRECORD
  5
27
102
{ACAD_REACTORS
330
22
102
}
330
22
100
AcDbXrecord
280
     1
270
     1
271
     1
  0
XRECORD
  5
26
102
{ACAD_REACTORS
330
22
102
}
330
22
100
AcDbXrecord
280
     1
270
     1
271
     1
  0
XRECORD
  5
28
102
{ACAD_REACTORS
330
22
102
}
330
22
100
AcDbXrecord
280
     1
270
     1
271
     1
  0
XRECORD
  5
25
102
{ACAD_REACTORS
330
22
102
}
330
22
100
AcDbXrecord
280
     1
270
     1
271
     1
  0
CELLSTYLEMAP
  5
ABB
102
{ACAD_REACTORS
330
ABA
102
}
330
ABA
100
AcDbCellStyleMap
 90
        3
300
CELLSTYLE
  1
TABLEFORMAT_BEGIN
 90
        5
170
     1
 91
        0
 92
    32768
 62
   257
 93
        1
300
CONTENTFORMAT
  1
CONTENTFORMAT_BEGIN
 90
        0
 91
        0
 92
      512
 93
        0
300

 40
0.0
140
1.0
 94
        5
 62
     0
340
55
144
0.25
309
CONTENTFORMAT_END
171
     0
 94
        0
309
TABLEFORMAT_END
  1
CELLSTYLE_BEGIN
 90
        1
 91
        1
300
_TITLE
309
CELLSTYLE_END
300
CELLSTYLE
  1
TABLEFORMAT_BEGIN
 90
        5
170
     1
 91
        0
 92
        0
 62
   257
 93
        1
300
CONTENTFORMAT
  1
CONTENTFORMAT_BEGIN
 90
        0
 91
        0
 92
      512
 93
        0
300

 40
0.0
140
1.0
 94
        5
 62
     0
340
55
144
0.18
309
CONTENTFORMAT_END
171
     0
 94
        0
309
TABLEFORMAT_END
  1
CELLSTYLE_BEGIN
 90
        2
 91
        1
300
_HEADER
309
CELLSTYLE_END
300
CELLSTYLE
  1
TABLEFORMAT_BEGIN
 90
        5
170
     1
 91
        0
 92
        0
 62
   257
 93
        1
300
CONTENTFORMAT
  1
CONTENTFORMAT_BEGIN
 90
        0
 91
        0
 92
      512
 93
        0
300

 40
0.0
140
1.0
 94
        2
 62
     0
340
55
144
0.18
309
CONTENTFORMAT_END
171
     0
 94
        0
309
TABLEFORMAT_END
  1
CELLSTYLE_BEGIN
 90
        3
 91
        2
300
_DATA
309
CELLSTYLE_END
  0
ENDSEC
  0
EOF
